<svg width="21" height="30" viewBox="0 0 21 30" fill="none" xmlns="http://www.w3.org/2000/svg">
<path d="M11.9175 9.78754C10.8234 7.58159 7.77035 9.45224 9.14098 11.4111C10.2998 12.9053 12.6411 11.5288 11.9175 9.78754ZM9.37628 9.95814C10.0175 8.59339 12.0352 9.46989 11.4822 10.8699C10.8469 12.2582 8.79391 11.37 9.37628 9.95814ZM11.3646 7.22275L19.3531 0.587231L20.2825 1.51667L13.6706 9.4993L13.0176 8.85222C12.9529 8.78751 12.8764 8.76398 12.794 8.76398C12.6117 8.74045 12.394 9.05223 12.2764 9.15223C12.1234 8.93457 11.9352 8.74045 11.7175 8.5875C11.8175 8.46397 12.1234 8.25808 12.1058 8.06984C12.1058 7.98748 12.0764 7.90513 12.0176 7.8463L11.3646 7.22275ZM7.23504 9.4993L0.599514 1.51079L1.52896 0.587231L9.49982 7.21099L8.8645 7.8463C8.74097 7.96983 8.74097 8.16984 8.8645 8.29338L9.14687 8.57574C8.92921 8.72868 8.73509 8.91693 8.58214 9.13458L8.30566 8.8581C8.18213 8.73457 7.988 8.73457 7.86447 8.8581L7.23504 9.4993ZM1.52896 20.2644L0.599514 19.3349L7.20562 11.3464L7.85859 11.9935C7.98212 12.117 8.17624 12.117 8.29978 11.9994L8.58214 11.717C8.73509 11.9347 8.93509 12.1112 9.14687 12.2759C8.96451 12.4582 8.59979 12.7229 8.8645 12.9994L9.5057 13.6289L7.31151 15.4524C7.31151 15.4583 1.52896 20.2644 1.52896 20.2644ZM13.647 11.3464L20.2825 19.3408L19.3531 20.2703C17.7942 18.9761 12.8529 14.8642 11.3587 13.6583L12.0117 13.0053C12.0705 12.9465 12.1058 12.87 12.1058 12.7818C12.1234 12.5935 11.8175 12.3876 11.7175 12.2641C11.9293 12.1053 12.1234 11.917 12.2764 11.6994C12.4705 11.8817 12.7293 12.27 13.0176 11.9994L13.647 11.3464ZM11.5881 24.1998C11.7587 24.1998 11.8999 24.341 11.8999 24.5116V27.847H8.98215V24.5116C8.98215 24.341 9.12333 24.1998 9.29981 24.1998H11.5881ZM19.6178 28.8529V30H1.26424V28.8529C1.26424 28.647 1.42895 28.4764 1.64073 28.4764H19.2413C19.4472 28.4764 19.6178 28.6411 19.6178 28.8529ZM11.3469 12.7818L11.1293 12.5641C10.6822 12.7053 10.194 12.7112 9.741 12.5759C9.741 12.57 9.741 12.57 9.73512 12.57L9.52923 12.7818L9.95866 13.2112C10.2116 13.4583 10.1881 13.8936 9.91748 14.1112V14.1171C9.9116 14.1171 7.788 15.8878 7.78211 15.8878L3.72903 27.8529H8.35272V24.5175C8.35272 23.9998 8.77626 23.5763 9.29981 23.5763H11.5881C12.1058 23.5763 12.5293 23.9998 12.5293 24.5175V27.8529H17.153L13.0999 15.8936L10.9646 14.1171C10.694 13.8994 10.6704 13.4641 10.9175 13.2171L11.3469 12.7818ZM12.3587 17.1937C12.5352 17.1937 12.6705 17.3349 12.6705 17.5055V21.1703C12.6705 21.3409 12.5352 21.4821 12.3587 21.4821H8.48214C8.31154 21.4821 8.17036 21.3409 8.17036 21.1703V17.5055C8.17036 17.3349 8.31154 17.1937 8.48214 17.1937H12.3587ZM10.941 10.4229C10.9293 11.0994 9.91748 11.1052 9.90571 10.4229C9.91748 9.74048 10.9352 9.74048 10.941 10.4229ZM1.43484 15.7113C-0.1711 13.0171 -0.44758 9.56401 0.699518 6.65214C0.764226 6.48743 0.946585 6.41096 1.10541 6.47567C1.26424 6.54038 1.3466 6.72273 1.28189 6.88156C0.199501 9.62283 0.458333 12.8641 1.97015 15.3995C2.18192 15.7407 1.64661 16.0642 1.43484 15.7113ZM19.3296 14.5112C20.6237 11.7464 20.4943 8.3522 19.0001 5.6874C18.8001 5.32269 19.3472 5.02856 19.5472 5.38151C21.1355 8.2169 21.2767 11.8288 19.8943 14.7759C19.7237 15.1466 19.159 14.8877 19.3296 14.5112ZM5.9997 0.981362C8.41743 -0.165736 11.3058 -0.3128 13.8294 0.569583C14.2176 0.704882 14.0117 1.29902 13.6235 1.16372C11.1881 0.293103 8.45861 0.534288 6.12912 1.58138C5.81146 1.59315 5.69969 1.11078 5.9997 0.981362ZM13.5941 3.64028C12.0999 2.93437 10.3528 2.75201 8.73509 3.12849C8.33507 3.21673 8.19389 2.61083 8.5939 2.51671C10.3469 2.11081 12.2352 2.30494 13.8588 3.06967C14.2353 3.25203 13.9647 3.81675 13.5941 3.64028ZM3.57609 7.39335C2.8643 8.97575 2.74665 10.8288 3.22902 12.4935C3.34078 12.8876 2.74076 13.0641 2.62311 12.6641C2.09957 10.8582 2.23486 8.85222 2.9996 7.13451C3.17019 6.76391 3.74668 7.01098 3.57609 7.39335ZM17.1589 13.6877C17.8178 12.3465 18.0472 10.8052 17.8236 9.31694C17.7648 8.91104 18.3825 8.81692 18.4472 9.22282C18.6884 10.8288 18.4354 12.4994 17.7236 13.9583C17.5413 14.3289 16.9824 14.0583 17.1589 13.6877ZM12.047 19.0173H10.7352V17.8172H12.047V19.0173ZM10.1116 19.0173H8.79979V17.8172H10.1116V19.0173ZM10.1116 20.8526H8.79979V19.6585H10.1116V20.8526ZM12.047 20.8526H10.7352V19.6585H12.047V20.8526Z" fill="white"/>
</svg>
