<svg width="21" height="30" viewBox="0 0 21 30" fill="none" xmlns="http://www.w3.org/2000/svg">
<path d="M10.3495 8.13921C11.4778 8.13921 12.5697 7.64744 13.3184 6.8035C14.0744 5.95153 14.4292 4.79483 14.2855 3.6652C14.1446 2.55726 13.5244 1.5429 12.607 0.907042C11.6671 0.255578 10.4645 0.0426016 9.35716 0.327656C8.28206 0.604375 7.35463 1.3407 6.83692 2.32216C6.30278 3.33496 6.23622 4.56155 6.65647 5.62668C7.06312 6.65715 7.90474 7.48831 8.94035 7.88173C9.3895 8.0524 9.86904 8.13921 10.3495 8.13921Z" fill="white"/>
<path d="M20.1941 0.211114C19.6587 -0.160873 18.9233 -0.0283744 18.5512 0.507012C18.5512 0.507012 14.866 6.12575 13.6022 7.63043C12.6591 8.75316 11.7608 9.06667 10.407 8.87952C9.73838 8.78707 1.45474 6.72763 1.45474 6.72763C0.873476 6.58724 0.263254 6.92074 0.0651318 7.48433C-0.126158 8.02837 0.11659 8.64993 0.627093 8.91901C0.6736 8.94351 0.721798 8.96489 0.771125 8.98306L9.75599 12.29C9.80713 12.4448 10.2478 13.6368 10.4976 14.8844C10.6567 15.6781 10.7242 16.4868 10.77 17.2941C10.8023 17.8602 10.7935 18.4267 10.787 18.9933C10.7803 19.5772 10.876 20.1486 11.1074 20.687C11.0876 21.4245 11.0495 22.1618 10.9868 22.897C10.9181 23.7014 10.792 24.501 10.6606 25.2981C10.4945 26.3053 10.2342 26.6924 10.2167 26.7187C9.89425 26.8407 9.50403 26.7989 9.17021 26.755C8.7714 26.7027 8.37847 26.6085 7.99276 26.4956C7.6538 26.3963 7.31942 26.2814 6.98993 26.1543C6.72794 26.0533 6.47297 25.938 6.21474 25.8284C6.09459 25.7774 5.97519 25.7209 5.843 25.6923C5.70725 25.6628 5.56735 25.6533 5.42884 25.6639C5.15456 25.6849 4.88812 25.7852 4.66831 25.9505C4.20927 26.2959 3.99692 26.8997 4.137 27.4563C4.23622 27.8503 4.50178 28.1893 4.86067 28.3798C6.01248 29.0097 7.24427 29.5501 8.53141 29.8293C9.22831 29.9805 9.95135 30.055 10.661 29.953C11.3982 29.8471 12.0991 29.5379 12.6344 29.0133C12.762 28.8882 12.8799 28.7506 12.9859 28.6065C12.9859 28.6069 12.9856 28.6073 12.9851 28.6077C12.9838 28.6095 12.9823 28.6115 12.9811 28.6135C13.0393 28.5168 13.113 28.4278 13.1743 28.3328C13.2787 28.1715 13.375 28.005 13.4641 27.8347C13.6426 27.494 13.7951 27.1399 13.9308 26.7803C14.203 26.0583 14.4138 25.3137 14.5946 24.564C14.7134 24.0719 14.8192 23.5767 14.9149 23.0796C15.1153 23.0708 15.3138 23.0475 15.5106 23.009C15.8666 23.7366 16.1964 24.4774 16.4764 25.2378C15.7268 25.5302 15.36 26.4127 15.6787 27.1513C15.8944 27.6514 16.1564 28.1292 16.5243 28.5355C16.9243 28.9771 17.4307 29.32 18.0088 29.479C18.3249 29.5662 18.6569 29.5954 18.9814 29.5455C19.6332 29.4432 20.179 28.9358 20.2951 28.2493C20.5461 26.771 20.3065 25.2599 19.9667 23.8147C19.7827 23.0318 19.5585 22.2582 19.3085 21.4939C19.1447 20.9935 18.9752 20.4925 18.7786 20.0038C18.7397 19.9068 18.7024 19.8091 18.6609 19.7131C18.7094 19.3881 18.7135 19.0622 18.6866 18.7352C18.6596 18.4084 18.6372 18.0806 18.6035 17.7544C18.5238 16.9825 18.4162 16.2115 18.2709 15.4491C17.9682 13.8612 17.5427 12.2922 16.9169 10.7993C16.7469 10.3938 16.5643 9.99404 16.3608 9.60425L20.5616 1.73673C20.8409 1.21545 20.6912 0.556527 20.1941 0.211114C20.6912 0.556527 19.6587 -0.160873 20.1941 0.211114Z" fill="white"/>
</svg>
