<svg width="22" height="25" viewBox="0 0 22 25" fill="none" xmlns="http://www.w3.org/2000/svg">
<path fill-rule="evenodd" clip-rule="evenodd" d="M17.5931 20.3904L18.4112 25.0001H8.81804L8.74279 19.9802L5.38082 19.837C5.15022 19.8103 4.93661 19.7593 4.7497 19.6744L11.51 14.8074C12.0635 15.1205 12.7019 15.3002 13.3816 15.3002C15.4789 15.3002 17.1781 13.601 17.1781 11.5037C17.1781 10.0035 16.3066 8.70488 15.0419 8.08831V0.405546C18.6224 1.54643 21.244 4.99821 21.244 9.30687C21.2998 11.6663 20.5206 14.2758 18.4767 16.8683C17.666 17.8975 17.3625 19.0991 17.5931 20.3904ZM3.9268 17.4096L3.89282 14.9725H3.03837C2.72281 14.9725 2.45336 14.8244 2.28587 14.5574C2.11838 14.2928 2.10139 13.9845 2.23732 13.7005L3.79087 10.4672C3.93408 10.1686 3.77873 9.89431 3.71319 9.56904C2.93642 5.70702 5.64298 1.7212 9.59724 0.454094C10.3133 0.22349 11.0246 0.0851274 11.7212 0.0292969V8.08831C10.4565 8.70488 9.58511 10.0035 9.58511 11.5037C9.58511 12.0693 9.7089 12.6057 9.9298 13.0888L3.9268 17.4096Z" fill="white"/>
<path fill-rule="evenodd" clip-rule="evenodd" d="M2.08756 18.9775C2.26476 18.9775 2.43226 19.0139 2.58518 19.0819L10.8432 13.1372C10.5398 12.6662 10.3626 12.1055 10.3626 11.5035C10.3626 10.1976 11.1904 9.08581 12.3507 8.6683V0H14.4018V8.6683C15.5621 9.08581 16.3923 10.1976 16.3923 11.5035C16.3923 13.1687 15.0427 14.5184 13.3775 14.5184C12.7415 14.5184 12.1516 14.3217 11.6637 13.9843L3.31098 19.997C3.32312 20.0699 3.3304 20.1451 3.3304 20.2204C3.3304 20.9049 2.77452 21.4632 2.08756 21.4632C1.4006 21.4632 0.844727 20.9049 0.844727 20.2204C0.844727 19.5334 1.4006 18.9775 2.08756 18.9775Z" fill="white"/>
</svg>
