<svg width="23" height="23" viewBox="0 0 23 23" fill="none" xmlns="http://www.w3.org/2000/svg">
<path fill-rule="evenodd" clip-rule="evenodd" d="M6.66662 9.4228L6.47417 8.6228C5.874 6.1471 17.0821 2.52061 18.057 4.87518L18.3736 5.63732C19.2345 7.71681 23.3698 6.1042 22.5063 4.04237C21.9847 2.78811 21.3237 2.05121 20.759 1.59443C16.9479 -1.48696 3.62277 2.82345 2.35407 7.55025C2.16668 8.2493 2.06539 9.231 2.3794 10.5534C2.89852 12.7263 7.19588 11.6108 6.66662 9.4228ZM7.16102 13.895H6.51275C5.71253 13.895 5.17821 14.5536 5.05919 15.3435L4.44384 19.3536C4.22606 19.2754 4.02094 19.1618 3.83861 19.018C3.51194 18.7656 3.25111 18.4224 3.1093 18.0312L3.09664 17.9984C3.33215 18.0741 3.57525 18.0868 3.82089 18.0237C3.85634 18.0136 3.88926 18.0035 3.91965 17.9909C4.16022 17.9 4.32482 17.7309 4.41598 17.524C4.50461 17.3271 4.51981 17.095 4.4641 16.8754C4.45397 16.8401 4.44131 16.8048 4.42865 16.7694L4.42864 16.7694C4.32735 16.4994 4.13996 16.3278 3.91965 16.242C3.75758 16.1789 3.58032 16.1637 3.40812 16.194C3.24098 16.2218 3.07638 16.295 2.93457 16.401C2.73958 16.5524 2.59018 16.7694 2.53953 17.0445L2.51421 17.0142C2.30149 16.7492 2.13689 16.4211 2.04826 16.0855C2.03053 16.0148 2.01534 15.9442 2.00268 15.8735C2.04066 15.8987 2.07612 15.9189 2.1141 15.9366C2.29896 16.0224 2.48635 16.0451 2.66108 16.0199C2.83328 15.9972 2.99535 15.9265 3.13209 15.8306C3.44104 15.6085 3.63856 15.23 3.59551 14.8969C3.55752 14.6167 3.41318 14.3921 3.21313 14.2508V14.2483C3.07385 14.1473 2.90672 14.0868 2.73452 14.0716C2.56232 14.059 2.38253 14.0893 2.21286 14.1751C2.0204 14.2735 1.84061 14.4401 1.71146 14.6874C1.64056 14.4981 1.57725 14.271 1.52154 14.001C1.51335 13.9651 1.50729 13.9303 1.50128 13.8958C1.498 13.8769 1.49473 13.8582 1.49115 13.8394C1.66588 13.948 1.85074 13.9984 2.03053 14.0035C2.20273 14.006 2.36733 13.9656 2.51421 13.8924C2.65855 13.8167 2.78517 13.7082 2.88393 13.5745C3.08145 13.307 3.15489 12.9385 3.00295 12.5499C2.86873 12.2041 2.60537 12.0022 2.30656 11.9467C2.14449 11.9139 1.96976 11.929 1.80516 11.9921C1.64562 12.0527 1.49368 12.1562 1.36453 12.3051C1.30629 12.3732 1.25058 12.4514 1.205 12.5372C1.13156 12.1713 1.20246 11.8205 1.34934 11.5051C1.49368 11.1946 1.71399 10.9196 1.95203 10.7C1.93684 10.6521 1.92164 10.6041 1.90898 10.5536C1.88113 10.4275 1.8558 10.3088 1.83301 10.1902C1.48102 10.4678 1.13662 10.8565 0.92644 11.3082C0.652949 11.8887 0.592173 12.5726 0.984684 13.2691L0.999878 13.2969C0.984684 13.5316 1.00241 13.7965 1.06319 14.0943C1.17714 14.6495 1.33668 15.0584 1.519 15.3562C1.49368 15.6338 1.52154 15.9215 1.59751 16.2041C1.70133 16.6028 1.89885 16.989 2.14955 17.3019C2.26857 17.4533 2.40278 17.5871 2.5446 17.6981C2.56992 17.8672 2.61297 18.0312 2.67121 18.1902C2.84341 18.6647 3.15742 19.0786 3.54993 19.3839C3.7981 19.5757 4.07665 19.7271 4.37293 19.8205L4.22859 20.7593H2.83075V22.7782H20.4279V20.7593H19.03L18.1994 15.3435C18.0779 14.5536 17.5461 13.895 16.7459 13.895H16.0976V12.1915H12.998V13.895H10.2606V12.1915H7.16102V13.895ZM2.04066 13.5366C1.85327 13.5341 1.64815 13.4281 1.47849 13.1833C1.51647 12.9309 1.60257 12.7417 1.71653 12.6104C1.79249 12.5221 1.88113 12.4615 1.96976 12.4287C2.05332 12.3959 2.14196 12.3883 2.22046 12.4035C2.36733 12.4312 2.49901 12.5372 2.56739 12.7164C2.65602 12.9435 2.61803 13.153 2.50661 13.3019C2.45343 13.3751 2.38253 13.4331 2.30149 13.476C2.22046 13.5164 2.13183 13.5391 2.04066 13.5366ZM2.31415 15.5152C2.21033 15.4647 2.10397 15.3789 2.00521 15.2502C2.01534 15.1921 2.03053 15.1341 2.05079 15.0786C2.13689 14.8237 2.27364 14.6672 2.42304 14.5915C2.51167 14.5461 2.60537 14.5309 2.69653 14.5385C2.78517 14.5461 2.86873 14.5763 2.93964 14.6268C3.04093 14.6975 3.11184 14.811 3.13209 14.9549C3.15489 15.1215 3.0384 15.3234 2.8586 15.4521C2.7801 15.5076 2.69147 15.548 2.59777 15.5606C2.50661 15.5732 2.41038 15.5606 2.31415 15.5152ZM3.22326 17.5517C3.14476 17.524 3.06625 17.4861 2.98775 17.4407C2.98522 17.3574 2.98522 17.2741 2.99282 17.1883C3.00801 17.0066 3.09664 16.8628 3.22073 16.7694C3.29923 16.7088 3.39292 16.6685 3.48662 16.6533C3.57778 16.6382 3.66895 16.6432 3.74998 16.676C3.85127 16.7164 3.93991 16.7997 3.99055 16.936H3.99308C3.99512 16.9431 3.99757 16.9506 4.00011 16.9584L4.00011 16.9584L4.00012 16.9584C4.00387 16.9699 4.00779 16.982 4.01081 16.994C4.0412 17.1126 4.0336 17.2338 3.98802 17.3372C3.94497 17.4331 3.86647 17.5139 3.75505 17.5568C3.74914 17.5585 3.74323 17.5604 3.73733 17.5624C3.72551 17.5663 3.71369 17.5702 3.70187 17.5719C3.54233 17.6148 3.38026 17.6022 3.22326 17.5517ZM14.4946 18.43C14.4946 16.8552 13.2107 15.5757 11.628 15.5757C10.0479 15.5757 8.76398 16.8552 8.76398 18.43C8.76398 20.0073 10.0479 21.2868 11.628 21.2868C13.2107 21.2868 14.4946 20.0073 14.4946 18.43ZM21.6286 11.3608C20.5422 11.4946 19.4052 11.3911 18.2986 11.0151C17.4123 10.7123 16.6196 10.2605 15.9384 9.69775L16.3082 9.25359C16.9362 9.77094 17.668 10.1873 18.486 10.4675C19.5065 10.8157 20.5549 10.9116 21.5602 10.788L21.6286 11.3608ZM21.3627 9.19302C20.5929 9.2864 19.7901 9.21321 19.0076 8.94823C18.3796 8.73372 17.82 8.41321 17.3388 8.017L17.7085 7.57031C18.1365 7.92615 18.6379 8.2088 19.195 8.4006C19.8914 8.63782 20.608 8.70343 21.2918 8.61763L21.3627 9.19302ZM13.5363 18.4199C13.5363 19.4708 12.6814 20.3228 11.6269 20.3228C10.5724 20.3228 9.71753 19.4708 9.71753 18.4199C9.71753 17.369 10.5724 16.5171 11.6269 16.5171C12.6814 16.5171 13.5363 17.369 13.5363 18.4199Z" fill="#39CA6E"/>
</svg>
