<svg width="37" height="31" viewBox="0 0 37 31" fill="none" xmlns="http://www.w3.org/2000/svg">
<path fill-rule="evenodd" clip-rule="evenodd" d="M21.4709 26.6348L27.6543 30.0076L33.7675 18.765C34.7981 16.8912 35.4773 15.3687 35.8052 14.1976C36.1331 13.0265 36.2971 11.996 36.2971 11.1059C36.2971 8.90424 35.5242 7.0539 33.9783 5.55488C32.4793 4.00902 30.6992 3.23609 28.6381 3.23609C26.4364 3.23609 24.6095 4.00902 23.1573 5.55488C21.7051 7.10074 20.979 8.95109 20.979 11.1059C20.979 13.1202 21.6349 14.8066 22.9465 16.1651C23.7277 16.9194 24.5477 17.4568 25.4063 17.7773C25.6322 17.8616 25.8607 17.9309 26.0919 17.9852L21.4709 26.6348ZM25.0725 18.4021L20.5229 26.9181L27.9355 30.9614L34.3832 19.1036C34.3835 19.103 34.3838 19.1024 34.3842 19.1018C35.4238 17.2114 36.1326 15.6346 36.4819 14.3871C36.8212 13.1752 36.9998 12.0786 36.9998 11.1059C36.9998 8.72259 36.1558 6.69132 34.4752 5.05793C32.8519 3.38756 30.8951 2.53342 28.6381 2.53342C26.2507 2.53342 24.2357 3.38059 22.6452 5.07378C21.0684 6.75223 20.2764 8.7755 20.2764 11.1059C20.2764 13.2889 20.9939 15.1544 22.441 16.6532L22.4496 16.662L22.4584 16.6706C23.2747 17.4587 24.147 18.0411 25.0725 18.4021Z" fill="#323C45"/>
<path fill-rule="evenodd" clip-rule="evenodd" d="M17.2552 4.92022L12.7115 13.4252C13.6523 13.7857 14.5258 14.3737 15.3285 15.1763C16.7871 16.635 17.5017 18.5076 17.5017 20.7324C17.5017 23.0628 16.7097 25.0861 15.1329 26.7645C13.5424 28.4577 11.5274 29.3049 9.14002 29.3049C6.8874 29.3049 4.91081 28.478 3.24035 26.8581L3.23259 26.8506L3.22506 26.8428C1.59577 25.1626 0.77832 23.1121 0.77832 20.7324C0.77832 19.7597 0.956872 18.6631 1.29621 17.4512C1.64551 16.2037 2.35434 14.6268 3.394 12.7363C3.3943 12.7358 3.39459 12.7353 3.39489 12.7347L9.84254 0.876953L17.2552 4.92022ZM12.3774 14.0504C12.1517 13.968 11.9223 13.9003 11.6892 13.8474L16.3072 5.20352L10.1239 1.83079L4.01057 13.0734C2.98 14.9471 2.30076 16.4696 1.97285 17.6407C1.64494 18.8118 1.48098 19.8423 1.48098 20.7324C1.48098 22.9341 2.23049 24.8078 3.72951 26.3537C5.27537 27.8527 7.07887 28.6022 9.14002 28.6022C11.3417 28.6022 13.1686 27.8293 14.6208 26.2834C16.073 24.7376 16.799 22.8872 16.799 20.7324C16.799 18.6712 16.1432 16.9848 14.8316 15.6732C14.069 14.9106 13.2509 14.3696 12.3774 14.0504Z" fill="#323C45"/>
</svg>
