<svg width="42" height="33" viewBox="0 0 42 33" fill="none" xmlns="http://www.w3.org/2000/svg">
<path d="M20.0209 10.1031C23.1066 9.94559 26.1924 9.78807 29.2782 9.62933C29.9429 9.5954 30.7953 8.94105 31.1819 8.16674C32.3371 5.85472 33.4923 3.54392 34.6475 1.2319C35.0341 0.458799 34.8095 -0.0877001 34.1459 0.0116634C31.0657 0.474552 27.9855 0.937441 24.9053 1.40033C24.2417 1.49969 23.3893 2.13344 23.0005 2.81565C21.8408 4.85382 20.68 6.89077 19.5203 8.92894C19.1327 9.61115 19.3561 10.1358 20.0209 10.1019V10.1031Z" fill="#39CA6E"/>
<path d="M27.0288 21.0704C30.1212 21.2691 33.2137 21.4666 36.3062 21.6653C36.972 21.7078 37.8245 21.0352 38.2088 20.1616C39.3584 17.5515 40.508 14.9426 41.6577 12.3325C42.042 11.4588 41.8152 10.7705 41.1504 10.7935C38.0636 10.9002 34.9767 11.0068 31.8898 11.1146C31.225 11.1377 30.3726 11.7896 29.986 12.5712C28.832 14.9062 27.6767 17.2425 26.5215 19.5775C26.135 20.3591 26.3618 21.0268 27.0288 21.0704Z" fill="#39CA6E"/>
<path d="M14.323 20.2553C17.4155 20.454 20.508 20.6527 23.6004 20.8502C24.2663 20.8926 25.1199 20.3001 25.5064 19.527C26.6616 17.215 27.8168 14.903 28.972 12.5921C29.3586 11.8178 29.1329 11.2095 28.4682 11.2326C25.3813 11.3392 22.2944 11.4458 19.2075 11.5537C18.5428 11.5767 17.6892 12.1474 17.3004 12.8297C16.1407 14.8678 14.9799 16.9048 13.8203 18.9429C13.4315 19.6251 13.6572 20.2116 14.3241 20.2553H14.323Z" fill="#39CA6E"/>
<path d="M1.61721 19.4396C4.70968 19.6383 7.80215 19.837 10.8946 20.0346C11.5605 20.077 12.4163 19.5656 12.8039 18.8919C13.9647 16.878 15.1255 14.864 16.2852 12.8501C16.674 12.1764 16.4494 11.6493 15.7836 11.6711C12.6967 11.7777 9.60981 11.8843 6.52293 11.9922C5.85818 12.0152 5.00239 12.506 4.61248 13.0876C3.21372 15.1754 2.51434 16.22 1.11558 18.3066C0.725666 18.8882 0.949111 19.3948 1.61609 19.4384L1.61721 19.4396Z" fill="#39CA6E"/>
<path d="M8.62487 30.4059C11.724 30.9608 14.8232 31.5146 17.9213 32.0696C18.5894 32.1896 19.4429 31.6588 19.8295 30.8857C20.9847 28.5737 22.1399 26.2629 23.2951 23.9509C23.6817 23.1778 23.4549 22.5065 22.7879 22.4531C19.6943 22.2035 16.6007 21.9539 13.5082 21.7055C12.8413 21.6522 11.9866 22.1611 11.5989 22.8433C10.4392 24.8815 9.27845 26.9184 8.11877 28.9566C7.72998 29.6388 7.95677 30.2883 8.62487 30.4071V30.4059Z" fill="#39CA6E"/>
</svg>
