<svg width="200" height="181" viewBox="0 0 200 181" fill="none" xmlns="http://www.w3.org/2000/svg">
<g opacity="0.15">
<path d="M52.8566 49.7117C57.9771 24.3044 75.2394 15.6538 83.2305 14.5044C111.928 9.16712 148.5 44.8077 164.338 64.4729C180.176 84.138 187.76 111.275 163.828 127.221C139.895 143.167 123.752 166.885 89.7494 170.304C55.7471 173.723 28.7313 147.168 24.3441 122.215C19.957 97.2626 46.4561 81.4709 52.8566 49.7117Z" stroke="#323C45"/>
<path d="M51.6132 43.7856C60.9522 17.3521 82.496 9.82756 92.1005 9.36947C126.748 6.44274 165.424 47.6828 181.627 70.0248C197.83 92.3667 203.302 121.841 172.923 136.461C142.545 151.081 120.38 174.677 79.7027 175.067C39.0253 175.456 10.4844 144.752 8.51409 117.896C6.54377 91.0401 39.9395 76.8274 51.6132 43.7856Z" stroke="#323C45"/>
<path d="M62.3948 54.3419C69.653 33.7979 86.3967 27.9499 93.8613 27.5939C120.789 25.3193 150.848 57.3708 163.441 74.7349C176.034 92.0989 180.287 115.006 156.677 126.369C133.066 137.732 115.84 156.07 84.2258 156.373C52.6115 156.676 30.4297 132.812 28.8984 111.94C27.367 91.0679 53.322 80.0219 62.3948 54.3419Z" stroke="#323C45"/>
<path d="M67.2622 59.1072C73.5811 41.2218 88.158 36.1306 94.6566 35.8207C118.1 33.8404 144.269 61.7441 155.232 76.8611C166.195 91.978 169.898 111.921 149.343 121.813C128.788 131.705 113.791 147.671 86.2681 147.934C58.745 148.198 39.4338 127.423 38.1006 109.252C36.7675 91.0805 59.3636 81.4639 67.2622 59.1072Z" stroke="#323C45"/>
<path d="M71.9882 63.737C77.3946 48.4347 89.8663 44.0787 95.4263 43.8136C115.484 42.1193 137.873 65.9931 147.253 78.9269C156.633 91.8606 159.801 108.923 142.215 117.387C124.628 125.85 111.797 139.51 88.2492 139.736C64.7011 139.961 48.1788 122.186 47.0382 106.639C45.8976 91.0927 65.2303 82.8649 71.9882 63.737Z" stroke="#323C45"/>
<path d="M78.6822 70.2892C82.797 58.6426 92.2892 55.3273 96.521 55.1255C111.787 53.8359 128.827 72.0063 135.967 81.8502C143.106 91.6941 145.517 104.68 132.132 111.122C118.747 117.564 108.981 127.96 91.0585 128.132C73.136 128.303 60.5608 114.775 59.6927 102.942C58.8246 91.1096 73.5388 84.8475 78.6822 70.2892Z" stroke="#323C45"/>
<path d="M82.8437 74.3652C86.1551 64.9925 93.794 62.3245 97.1995 62.1621C109.485 61.1243 123.198 75.747 128.943 83.6689C134.689 91.5908 136.629 102.042 125.857 107.226C115.086 112.409 107.227 120.776 92.8035 120.914C78.3804 121.052 68.2605 110.165 67.5619 100.643C66.8632 91.1204 78.7045 86.081 82.8437 74.3652Z" stroke="#323C45"/>
<path d="M86.2613 77.7111C88.9131 70.2052 95.0305 68.0685 97.7578 67.9385C107.596 67.1074 118.578 78.8177 123.179 85.1618C127.78 91.5059 129.334 99.8752 120.708 104.027C112.082 108.178 105.788 114.878 94.2374 114.989C82.6869 115.099 74.5826 106.381 74.0231 98.755C73.4636 91.1292 82.9465 87.0934 86.2613 77.7111Z" stroke="#323C45"/>
</g>
</svg>
