<svg width="95" height="90" viewBox="0 0 95 90" fill="none" xmlns="http://www.w3.org/2000/svg">
<path d="M81.1061 44.9997C81.1061 64.7507 65.2479 80.799 45.5671 81.1012C45.3787 81.1038 45.1913 81.1056 45.0003 81.1056C25.0593 81.1056 8.89453 64.9408 8.89453 44.9997C8.89453 26.4848 22.8327 11.224 40.7879 9.13746C42.1693 8.97628 43.5743 8.89307 45.0003 8.89307C64.9413 8.89307 81.1061 25.0579 81.1061 44.9989V44.9997Z" fill="url(#paint0_linear_1_10967)"/>
<path d="M67.4999 67.5C79.9263 55.0736 79.9263 34.9264 67.4999 22.5C55.0735 10.0736 34.9264 10.0736 22.5 22.5C10.0736 34.9264 10.0736 55.0736 22.5 67.5C34.9264 79.9264 55.0735 79.9264 67.4999 67.5Z" fill="url(#paint1_linear_1_10967)"/>
<path d="M65.0952 65.0949C76.1933 53.9968 76.1933 36.0032 65.0952 24.9051C53.9971 13.807 36.0035 13.807 24.9054 24.9051C13.8073 36.0032 13.8073 53.9968 24.9054 65.0949C36.0035 76.193 53.9971 76.193 65.0952 65.0949Z" fill="url(#paint2_linear_1_10967)"/>
<path d="M55.2494 23.0029L33.0449 47.8282H42.1049L34.753 66.5937L56.9566 41.842H48.6395L55.2494 23.0029Z" fill="url(#paint3_linear_1_10967)"/>
<path style="mix-blend-mode:multiply" opacity="0.2" d="M38.2194 62.8726C37.7245 68.2667 38.5041 72.777 41.1337 76.5865C42.2575 78.2158 43.7186 79.7154 45.5651 81.1012C45.3768 81.1038 45.1893 81.1055 44.9984 81.1055C25.0574 81.1055 8.89258 64.9408 8.89258 44.9997C8.89258 26.4848 22.8307 11.224 40.7859 9.13745C41.9369 10.2814 43.0485 11.626 44.0156 13.1957C46.8449 17.7708 48.4698 24.2397 46.3815 33.1341C46.0303 34.6311 45.5739 36.1982 44.9984 37.8371C43.7134 41.5012 42.5431 44.9279 41.5445 48.133C40.9734 49.9708 40.4592 51.734 40.0107 53.429C39.1085 56.8487 38.4796 59.9873 38.2177 62.8726H38.2194Z" fill="url(#paint4_linear_1_10967)"/>
<path d="M85.36 44.9997C85.36 64.7507 69.5018 80.799 49.821 81.1012C49.6327 81.1038 49.4452 81.1056 49.2542 81.1056C29.3132 81.1056 13.1484 64.9408 13.1484 44.9997C13.1484 26.4848 27.0866 11.224 45.0418 9.13746C46.4232 8.97628 47.8282 8.89307 49.2542 8.89307C69.1953 8.89307 85.36 25.0579 85.36 44.9989V44.9997Z" fill="url(#paint5_linear_1_10967)"/>
<path d="M71.7538 67.5C84.1802 55.0736 84.1802 34.9264 71.7538 22.5C59.3274 10.0736 39.1803 10.0736 26.7539 22.5C14.3275 34.9264 14.3275 55.0736 26.7539 67.5C39.1803 79.9264 59.3274 79.9264 71.7538 67.5Z" fill="url(#paint6_linear_1_10967)"/>
<path d="M59.5013 23.0029L37.2969 47.8282H46.3568L39.005 66.5937L61.2086 41.842H52.8923L59.5013 23.0029Z" fill="white"/>
<path style="mix-blend-mode:multiply" opacity="0.2" d="M42.4733 62.8726C41.9784 68.2667 42.758 72.777 45.3876 76.5865C46.5114 78.2158 47.9725 79.7154 49.819 81.1012C49.6307 81.1038 49.4432 81.1055 49.2523 81.1055C29.3113 81.1055 13.1465 64.9408 13.1465 44.9997C13.1465 26.4848 27.0846 11.224 45.0398 9.13745C46.1908 10.2814 47.3024 11.626 48.2695 13.1957C51.0988 17.7708 52.7237 24.2397 50.6354 33.1341C50.2842 34.6311 49.8278 36.1982 49.2523 37.8371C47.9673 41.5012 46.797 44.9279 45.7984 48.133C45.2273 49.9708 44.7131 51.734 44.2646 53.429C43.3624 56.8487 42.7335 59.9873 42.4716 62.8726H42.4733Z" fill="url(#paint7_linear_1_10967)"/>
<defs>
<linearGradient id="paint0_linear_1_10967" x1="43.9904" y1="65.6406" x2="47.5721" y2="-7.55203" gradientUnits="userSpaceOnUse">
<stop stop-color="#311944"/>
<stop offset="1" stop-color="#A03976"/>
</linearGradient>
<linearGradient id="paint1_linear_1_10967" x1="43.9896" y1="65.6408" x2="47.5713" y2="-7.55183" gradientUnits="userSpaceOnUse">
<stop stop-color="#311944"/>
<stop offset="1" stop-color="#A03976"/>
</linearGradient>
<linearGradient id="paint2_linear_1_10967" x1="43.9899" y1="65.6408" x2="47.5717" y2="-7.55183" gradientUnits="userSpaceOnUse">
<stop stop-color="#311944"/>
<stop offset="1" stop-color="#A03976"/>
</linearGradient>
<linearGradient id="paint3_linear_1_10967" x1="43.9908" y1="65.476" x2="47.5726" y2="-7.71578" gradientUnits="userSpaceOnUse">
<stop stop-color="#311944"/>
<stop offset="1" stop-color="#A03976"/>
</linearGradient>
<linearGradient id="paint4_linear_1_10967" x1="27.122" y1="64.8155" x2="30.7029" y2="-8.37718" gradientUnits="userSpaceOnUse">
<stop stop-color="#311944"/>
<stop offset="1" stop-color="#A03976"/>
</linearGradient>
<linearGradient id="paint5_linear_1_10967" x1="89.922" y1="-131.225" x2="47.8413" y2="51.1226" gradientUnits="userSpaceOnUse">
<stop stop-color="#FCB148"/>
<stop offset="0.05" stop-color="#FDB946"/>
<stop offset="0.14" stop-color="#FEC144"/>
<stop offset="0.32" stop-color="#FFC444"/>
<stop offset="0.48" stop-color="#FDB946"/>
<stop offset="0.78" stop-color="#F99C4C"/>
<stop offset="0.87" stop-color="#F8924F"/>
<stop offset="1" stop-color="#F8924F"/>
</linearGradient>
<linearGradient id="paint6_linear_1_10967" x1="49.4479" y1="52.4473" x2="50.7907" y2="103.928" gradientUnits="userSpaceOnUse">
<stop offset="0.32" stop-color="#FFC444"/>
<stop offset="0.5" stop-color="#FDB946"/>
<stop offset="0.61" stop-color="#FCB148"/>
<stop offset="0.63" stop-color="#FBA949"/>
<stop offset="0.68" stop-color="#F99C4C"/>
<stop offset="0.74" stop-color="#F8944E"/>
<stop offset="0.87" stop-color="#F8924F"/>
<stop offset="1" stop-color="#F8924F"/>
</linearGradient>
<linearGradient id="paint7_linear_1_10967" x1="13.1465" y1="45.1215" x2="51.5823" y2="45.1215" gradientUnits="userSpaceOnUse">
<stop stop-color="#FCB148"/>
<stop offset="0.05" stop-color="#FDB946"/>
<stop offset="0.14" stop-color="#FEC144"/>
<stop offset="0.32" stop-color="#FFC444"/>
<stop offset="0.48" stop-color="#FDB946"/>
<stop offset="0.78" stop-color="#F99C4C"/>
<stop offset="0.87" stop-color="#F8924F"/>
<stop offset="1" stop-color="#F8924F"/>
</linearGradient>
</defs>
</svg>
