<svg width="151" height="150" viewBox="0 0 151 150" fill="none" xmlns="http://www.w3.org/2000/svg">
<path d="M75.4132 14.6701L83.296 0L87.9568 15.9879L98.717 3.27785L99.951 19.8853L113.119 9.6908L110.874 26.1917L125.874 18.9575L120.247 34.631L136.423 30.6736L127.66 44.8348L144.306 44.327L132.791 56.3574L149.178 59.3208L135.413 68.6941L150.825 75.0005L135.413 81.3069L149.178 90.6792L132.791 93.6436L144.306 105.673L127.66 105.165L136.423 119.326L120.247 115.369L125.874 131.044L110.874 123.808L113.119 140.31L99.951 130.115L98.717 146.722L87.9568 134.012L83.296 150L75.4132 135.331L67.5305 150L62.8697 134.012L52.1094 146.722L50.8744 130.115L37.7061 140.31L39.9517 123.808L24.9516 131.044L30.5784 115.369L14.4022 119.326L23.1652 105.165L6.51949 105.673L18.0349 93.6436L1.64771 90.6792L15.4128 81.3069L0 75.0005L15.4128 68.6941L1.64771 59.3208L18.0349 56.3574L6.51949 44.327L23.1652 44.8348L14.4022 30.6736L30.5784 34.631L24.9516 18.9575L39.9517 26.1917L37.7061 9.6908L50.8744 19.8853L52.1094 3.27785L62.8697 15.9879L67.5305 0L75.4132 14.6701Z" fill="url(#paint0_linear_1_10959)"/>
<path d="M130.027 86.4723L144.805 82.1259L131.218 74.8669L144.771 67.5416L129.971 63.2667L141.704 53.2842L126.339 52.1785L135.741 39.9753L120.482 42.0884L127.141 28.1971L112.654 33.4371L116.279 18.4639L103.199 26.6011L103.631 11.2028L92.5285 21.8814L89.7503 6.72926L81.1104 19.4828L75.2425 5.23877L69.4429 19.5107L60.742 6.79857L58.0372 21.9642L46.8828 11.3383L47.3896 26.7346L34.27 18.6605L37.9667 33.6151L23.4559 28.4454L30.1812 42.3046L14.9122 40.2638L24.3713 52.4226L9.01224 53.6017L20.7934 63.5273L6.01367 67.8737L19.6009 75.1337L6.04884 82.458L20.8483 86.734L9.11464 96.7164L24.4799 97.8211L15.0787 110.025L30.3384 107.911L23.6793 121.803L38.1653 116.563L34.5399 131.536L47.6213 123.398L47.1879 138.798L58.2906 128.118L61.0689 143.271L69.7088 130.517L75.5766 144.761L81.3762 130.489L90.0771 143.202L92.783 128.036L103.936 138.662L103.43 123.265L116.549 131.34L112.852 116.385L127.364 121.555L120.638 107.696L135.908 109.736L126.448 97.577L141.808 96.3989L130.027 86.4723Z" fill="url(#paint1_linear_1_10959)"/>
<path d="M135.543 75.0005C135.543 105.766 112.435 131.139 82.628 134.704C80.2625 134.99 77.8535 135.134 75.4083 135.134C42.1975 135.134 15.2734 108.21 15.2734 75.0005C15.2734 59.8742 20.8568 46.0523 30.078 35.4874C41.1032 22.8519 57.3238 14.8667 75.4083 14.8667C108.619 14.8667 135.543 41.7907 135.543 75.0005Z" fill="url(#paint2_linear_1_10959)"/>
<path style="mix-blend-mode:multiply" opacity="0.2" d="M103.003 110.462C99.9596 118.941 92.8091 127.274 82.628 134.704C80.2625 134.989 77.8535 135.134 75.4083 135.134C42.1975 135.134 15.2734 108.21 15.2734 75.0004C15.2734 59.8741 20.8568 46.0521 30.078 35.4873C30.5549 39.8647 32.7994 44.7416 38.2339 49.753C43.7945 54.8699 52.6961 60.1306 66.4726 65.1255C99.3483 77.0515 108.897 94.021 103.002 110.462H103.003Z" fill="url(#paint3_linear_1_10959)"/>
<g style="mix-blend-mode:soft-light" opacity="0.3">
<path d="M75.4095 119.932C100.224 119.932 120.341 99.8155 120.341 75.0008C120.341 50.1861 100.224 30.0698 75.4095 30.0698C50.5948 30.0698 30.4785 50.1861 30.4785 75.0008C30.4785 99.8155 50.5948 119.932 75.4095 119.932Z" fill="white"/>
</g>
<defs>
<linearGradient id="paint0_linear_1_10959" x1="64.7708" y1="261.992" x2="78.5731" y2="19.4695" gradientUnits="userSpaceOnUse">
<stop stop-color="#FFC444"/>
<stop offset="1" stop-color="#F36F56"/>
</linearGradient>
<linearGradient id="paint1_linear_1_10959" x1="64.6092" y1="247.746" x2="78.6153" y2="23.6934" gradientUnits="userSpaceOnUse">
<stop stop-color="#FFC444"/>
<stop offset="1" stop-color="#F36F56"/>
</linearGradient>
<linearGradient id="paint2_linear_1_10959" x1="115.578" y1="-23.5996" x2="28.8151" y2="189.366" gradientUnits="userSpaceOnUse">
<stop stop-color="#FCB148"/>
<stop offset="0.05" stop-color="#FDB946"/>
<stop offset="0.14" stop-color="#FEC144"/>
<stop offset="0.32" stop-color="#FFC444"/>
<stop offset="0.48" stop-color="#FDB946"/>
<stop offset="0.78" stop-color="#F99C4C"/>
<stop offset="0.87" stop-color="#F8924F"/>
<stop offset="1" stop-color="#F8924F"/>
</linearGradient>
<linearGradient id="paint3_linear_1_10959" x1="15.2734" y1="85.3108" x2="104.639" y2="85.3108" gradientUnits="userSpaceOnUse">
<stop stop-color="#FCB148"/>
<stop offset="0.05" stop-color="#FDB946"/>
<stop offset="0.14" stop-color="#FEC144"/>
<stop offset="0.32" stop-color="#FFC444"/>
<stop offset="0.48" stop-color="#FDB946"/>
<stop offset="0.78" stop-color="#F99C4C"/>
<stop offset="0.87" stop-color="#F8924F"/>
<stop offset="1" stop-color="#F8924F"/>
</linearGradient>
</defs>
</svg>
