<svg width="81" height="125" viewBox="0 0 81 125" fill="none" xmlns="http://www.w3.org/2000/svg">
<g opacity="0.4">
<path d="M42.3441 45.975L39.3151 45.9133L36.5296 124.101C36.5199 124.361 36.7244 124.578 36.9841 124.582L41.4123 124.673C41.672 124.679 41.8863 124.471 41.8863 124.212L42.3441 45.975Z" fill="url(#paint0_linear_1_9769)"/>
<g style="mix-blend-mode:multiply">
<path d="M39.1445 50.9659L42.0905 51.0258L42.0965 49.8121L39.1865 49.7521L39.1445 50.9659Z" fill="#E6E6E6"/>
</g>
<path d="M42.2508 50.1509C42.2508 50.094 42.2058 50.049 42.1489 50.046L39.119 49.9831C39.062 49.9831 39.0171 50.0251 39.0141 50.082L38.9961 50.6244C38.9961 50.6814 39.038 50.7293 39.098 50.7323L42.1429 50.7953C42.1998 50.7953 42.2478 50.7503 42.2478 50.6934V50.1509H42.2508Z" fill="url(#paint1_linear_1_9769)"/>
<path d="M40.9438 41.5078L40.68 41.5018C39.6011 41.4809 38.6991 42.344 38.6781 43.4229L38.6271 45.9013C38.6181 46.3269 38.9538 46.6775 39.3794 46.6865L42.0316 46.7405C42.4572 46.7495 42.8079 46.4138 42.8168 45.9883L42.8678 43.5098C42.8888 42.4309 42.0257 41.5288 40.9468 41.5078H40.9438Z" fill="url(#paint2_radial_1_9769)"/>
<g style="mix-blend-mode:multiply">
<path d="M42.0318 46.6115L39.3795 46.5576C38.9539 46.5486 38.6183 46.198 38.6273 45.7724V45.9013C38.6153 46.3268 38.9539 46.6775 39.3765 46.6865L42.0288 46.7404C42.4543 46.7494 42.805 46.4137 42.814 45.9882V45.8593C42.808 46.2849 42.4573 46.6205 42.0318 46.6115Z" fill="#E6E6E6"/>
</g>
<path d="M44.0961 45.952C44.0572 47.7742 42.5497 49.2217 40.7276 49.1827C38.9054 49.1438 37.4579 47.6363 37.4969 45.8142C37.5358 43.992 39.0433 42.5445 40.8654 42.5835C42.6876 42.6224 44.1351 44.1299 44.0961 45.952Z" fill="#D6D6D6"/>
<path d="M43.5255 45.9398C43.4956 47.4473 42.2458 48.6461 40.7384 48.6131C39.2309 48.5831 38.0322 47.3334 38.0651 45.826C38.0951 44.3185 39.3448 43.1197 40.8523 43.1527C42.3597 43.1827 43.5585 44.4324 43.5255 45.9398Z" fill="url(#paint3_radial_1_9769)"/>
<path d="M39.5488 43.4496C39.7796 44.079 40.2561 44.5195 40.8225 44.5315C41.3889 44.5435 41.8834 44.1239 42.1412 43.5036C41.7606 43.2878 41.32 43.1589 40.8525 43.1499C40.385 43.1409 39.9414 43.2488 39.5488 43.4496Z" fill="url(#paint4_linear_1_9769)"/>
<path d="M39.8639 42.5088L39.8459 43.3359C39.834 43.8844 40.2685 44.3369 40.817 44.3489C41.3654 44.3609 41.8179 43.9263 41.8299 43.3779L41.8479 42.5507L39.8639 42.5088Z" fill="url(#paint5_linear_1_9769)"/>
<path style="mix-blend-mode:multiply" d="M41.8449 42.5519L39.8613 42.5107L39.8482 43.143L41.8317 43.1842L41.8449 42.5519Z" fill="url(#paint6_linear_1_9769)"/>
<path d="M42.9145 0.0212098L41.8895 0.00023122C41.2872 -0.0117565 40.7777 0.443778 40.7237 1.04316L37.7598 32.9725C37.7298 33.3022 37.7688 33.6348 37.8767 33.9465L39.5579 38.8015L39.477 42.6496L42.1773 42.7066L43.0584 0.174053C43.0584 0.0931362 42.9954 0.0242067 42.9115 0.0212098H42.9145Z" fill="url(#paint7_linear_1_9769)"/>
<path d="M39.492 42.0956L39.4805 42.6499L42.1801 42.706L42.1916 42.1517L39.492 42.0956Z" fill="url(#paint8_linear_1_9769)"/>
<g style="mix-blend-mode:multiply">
<path d="M39.489 42.0923L39.7917 42.0983L39.8636 38.6878L37.7718 32.8527L37.7598 32.9696C37.7298 33.2993 37.7688 33.6319 37.8767 33.9436L39.5579 38.7986L39.489 42.0923Z" fill="#E6E6E6"/>
</g>
<path d="M41.1962 43.6388C41.1932 43.8186 41.0434 43.9595 40.8665 43.9565C40.6867 43.9535 40.5459 43.8036 40.5489 43.6268C40.5519 43.447 40.7017 43.3061 40.8785 43.3091C41.0554 43.3121 41.1992 43.462 41.1962 43.6388Z" fill="#808080"/>
<path d="M40.6406 43.6266C40.6406 43.7404 40.7185 43.8303 40.8234 43.8543L40.8324 43.4048C40.7245 43.4228 40.6406 43.5127 40.6406 43.6266Z" fill="#E6E6E6"/>
<path d="M41.1078 43.6355C41.1078 43.5216 41.0299 43.4317 40.925 43.4077L40.916 43.8573C41.0239 43.8393 41.1078 43.7494 41.1078 43.6355Z" fill="#E6E6E6"/>
<path d="M39.3161 48.176C39.7447 47.6605 39.8885 47.0282 39.6158 46.5337C39.3431 46.0362 38.7317 45.8204 38.0664 45.9073C38.0694 46.3449 38.1773 46.7884 38.4051 47.199C38.6298 47.6096 38.9475 47.9393 39.3161 48.176Z" fill="url(#paint9_linear_1_9769)"/>
<path d="M38.3408 48.3766L39.066 47.978C39.5456 47.7143 39.7194 47.1119 39.4556 46.6324C39.1919 46.1529 38.5895 45.976 38.11 46.2428L37.3848 46.6414L38.3408 48.3796V48.3766Z" fill="url(#paint10_linear_1_9769)"/>
<path style="mix-blend-mode:multiply" d="M37.3838 46.6381L38.3398 48.3765L38.8939 48.0718L37.9378 46.3334L37.3838 46.6381Z" fill="url(#paint11_linear_1_9769)"/>
<path d="M0.0178496 66.9755L0.512344 67.8746C0.803047 68.4021 1.45038 68.6148 1.99882 68.3631L31.132 54.9668C31.4317 54.8289 31.6984 54.6281 31.9172 54.3794L35.2798 50.4984L38.6543 48.6433L37.3537 46.2757L0.0777885 66.7747C0.00586211 66.8137 -0.0211105 66.9036 0.0178496 66.9755Z" fill="url(#paint12_linear_1_9769)"/>
<path d="M37.3491 46.2774L36.8633 46.5446L38.1645 48.9106L38.6503 48.6434L37.3491 46.2774Z" fill="url(#paint13_linear_1_9769)"/>
<g style="mix-blend-mode:multiply">
<path d="M38.1671 48.907L38.0202 48.6432L35.0323 50.2856L31.0254 55.0147L31.1333 54.9668C31.433 54.8289 31.6997 54.6281 31.9185 54.3794L35.281 50.4984L38.1671 48.91V48.907Z" fill="#E6E6E6"/>
</g>
<path d="M38.6519 46.6535C38.8078 46.5666 39.0055 46.6235 39.0925 46.7823C39.1794 46.9382 39.1224 47.136 38.9636 47.2229C38.8078 47.3098 38.61 47.2529 38.523 47.094C38.4361 46.9382 38.4931 46.7404 38.6519 46.6535Z" fill="#808080"/>
<path d="M38.9186 47.1419C39.0175 47.088 39.0564 46.9711 39.0235 46.8692L38.6309 47.085C38.6998 47.1689 38.8197 47.1959 38.9186 47.1419Z" fill="#E6E6E6"/>
<path d="M38.6945 46.7345C38.5956 46.7885 38.5566 46.9054 38.5896 47.0073L38.9822 46.7915C38.9133 46.7076 38.7934 46.6806 38.6945 46.7345Z" fill="#E6E6E6"/>
<path d="M43.526 46.0182C42.8667 45.9043 42.2463 46.0961 41.9526 46.5816C41.6589 47.0672 41.7758 47.7055 42.1834 48.236C42.561 48.0142 42.8906 47.6965 43.1334 47.2979C43.3761 46.8963 43.502 46.4588 43.526 46.0212V46.0182Z" fill="url(#paint14_linear_1_9769)"/>
<path d="M44.1844 46.7612L43.4742 46.3327C43.0066 46.048 42.3953 46.1978 42.1136 46.6683C41.8318 47.1388 41.9787 47.7472 42.4492 48.0289L43.1595 48.4575L44.1874 46.7612H44.1844Z" fill="url(#paint15_linear_1_9769)"/>
<path style="mix-blend-mode:multiply" d="M43.1561 48.4574L44.1836 46.7603L43.6426 46.4328L42.6152 48.13L43.1561 48.4574Z" fill="url(#paint16_linear_1_9769)"/>
<path d="M79.453 70.6499L79.9834 69.7748C80.2951 69.2593 80.1573 68.591 79.6658 68.2433L53.4965 49.7133C53.2268 49.5215 52.9181 49.3926 52.5945 49.3297L47.5506 48.3587L44.257 46.3657L42.8574 48.6764L79.2492 70.7068C79.3181 70.7488 79.411 70.7278 79.453 70.6559V70.6499Z" fill="url(#paint17_linear_1_9769)"/>
<path d="M44.2558 46.3634L42.8574 48.6733L43.3317 48.9605L44.7301 46.6505L44.2558 46.3634Z" fill="url(#paint18_linear_1_9769)"/>
<g style="mix-blend-mode:multiply">
<path d="M44.732 46.6475L44.5762 46.9052L47.4922 48.6704L53.591 49.7763L53.4951 49.7073C53.2253 49.5155 52.9166 49.3867 52.593 49.3237L47.5491 48.3527L44.732 46.6475Z" fill="#E6E6E6"/>
</g>
<path d="M42.538 47.3546C42.3852 47.2617 42.3372 47.0639 42.4302 46.9111C42.5231 46.7582 42.7209 46.7103 42.8737 46.8032C43.0265 46.8961 43.0745 47.0939 42.9816 47.2467C42.8887 47.3996 42.6909 47.4475 42.538 47.3546Z" fill="#808080"/>
<path d="M42.8239 46.8782C42.728 46.8182 42.6081 46.8422 42.5332 46.9231L42.9168 47.1569C42.9528 47.055 42.9168 46.9381 42.8239 46.8782Z" fill="#E6E6E6"/>
<path d="M42.5812 47.2768C42.6771 47.3368 42.797 47.3128 42.8719 47.2319L42.4883 46.9981C42.4524 47.1 42.4883 47.2169 42.5812 47.2768Z" fill="#E6E6E6"/>
<path d="M63.1014 97.1568L62.0424 97.1353L61.0685 124.473C61.0651 124.564 61.1366 124.64 61.2274 124.641L62.7757 124.673C62.8665 124.675 62.9414 124.602 62.9414 124.512L63.1014 97.1568Z" fill="url(#paint19_linear_1_9769)"/>
<g style="mix-blend-mode:multiply">
<path d="M61.9844 98.9019L63.0144 98.9229L63.0165 98.4985L61.999 98.4775L61.9844 98.9019Z" fill="#E6E6E6"/>
</g>
<path d="M63.0696 98.6168C63.0696 98.5969 63.0539 98.5812 63.034 98.5801L61.9746 98.5581C61.9547 98.5581 61.939 98.5728 61.9379 98.5927L61.9316 98.7823C61.9316 98.8023 61.9463 98.819 61.9673 98.8201L63.0319 98.8421C63.0518 98.8421 63.0686 98.8264 63.0686 98.8064V98.6168H63.0696Z" fill="url(#paint20_linear_1_9769)"/>
<path d="M62.6128 95.595L62.5206 95.5929C62.1433 95.5856 61.8279 95.8874 61.8206 96.2646L61.8028 97.1312C61.7997 97.2799 61.917 97.4025 62.0658 97.4057L62.9932 97.4246C63.142 97.4277 63.2645 97.3103 63.2677 97.1615L63.2855 96.295C63.2928 95.9177 62.9911 95.6023 62.6138 95.595H62.6128Z" fill="url(#paint21_radial_1_9769)"/>
<g style="mix-blend-mode:multiply">
<path d="M62.9932 97.3795L62.0659 97.3606C61.9171 97.3575 61.7997 97.2349 61.8028 97.0861V97.1311C61.7987 97.2799 61.9171 97.4025 62.0648 97.4057L62.9922 97.4245C63.1409 97.4277 63.2635 97.3103 63.2667 97.1615V97.1164C63.2646 97.2652 63.142 97.3826 62.9932 97.3795Z" fill="#E6E6E6"/>
</g>
<path d="M63.7158 97.1488C63.7022 97.7859 63.1752 98.292 62.5381 98.2783C61.901 98.2647 61.3948 97.7377 61.4085 97.1006C61.4221 96.4635 61.9492 95.9573 62.5863 95.971C63.2234 95.9846 63.7295 96.5117 63.7158 97.1488Z" fill="#D6D6D6"/>
<path d="M63.5149 97.1447C63.5044 97.6717 63.0675 98.0909 62.5404 98.0793C62.0133 98.0689 61.5942 97.6319 61.6057 97.1048C61.6162 96.5778 62.0531 96.1586 62.5802 96.1702C63.1073 96.1806 63.5264 96.6176 63.5149 97.1447Z" fill="url(#paint22_radial_1_9769)"/>
<path d="M62.127 96.274C62.2076 96.4941 62.3742 96.6481 62.5723 96.6523C62.7703 96.6565 62.9432 96.5098 63.0333 96.2929C62.9003 96.2175 62.7462 96.1724 62.5828 96.1692C62.4193 96.1661 62.2642 96.2038 62.127 96.274Z" fill="url(#paint23_linear_1_9769)"/>
<path d="M62.2388 95.9448L62.2325 96.234C62.2283 96.4258 62.3803 96.584 62.572 96.5882C62.7638 96.5924 62.922 96.4405 62.9262 96.2487L62.9325 95.9595L62.2388 95.9448Z" fill="url(#paint24_linear_1_9769)"/>
<path style="mix-blend-mode:multiply" d="M62.9299 95.9597L62.2363 95.9453L62.2317 96.1664L62.9253 96.1808L62.9299 95.9597Z" fill="url(#paint25_linear_1_9769)"/>
<path d="M63.3038 81.0894L62.9454 81.0821C62.7348 81.0779 62.5567 81.2372 62.5378 81.4468L61.5015 92.6106C61.491 92.7258 61.5046 92.8422 61.5423 92.9511L62.1302 94.6487L62.1019 95.9941L63.046 96.014L63.3541 81.1429C63.3541 81.1146 63.3321 81.0905 63.3027 81.0894H63.3038Z" fill="url(#paint26_linear_1_9769)"/>
<path d="M62.1056 95.8003L62.1016 95.9941L63.0455 96.0137L63.0495 95.8199L62.1056 95.8003Z" fill="url(#paint27_linear_1_9769)"/>
<g style="mix-blend-mode:multiply">
<path d="M62.1061 95.7993L62.2119 95.8013L62.2371 94.6089L61.5057 92.5687L61.5015 92.6096C61.491 92.7249 61.5046 92.8412 61.5423 92.9501L62.1302 94.6477L62.1061 95.7993Z" fill="#E6E6E6"/>
</g>
<path d="M62.7049 96.3399C62.7038 96.4028 62.6514 96.452 62.5896 96.451C62.5267 96.4499 62.4775 96.3975 62.4785 96.3357C62.4796 96.2728 62.532 96.2236 62.5938 96.2246C62.6556 96.2257 62.7059 96.2781 62.7049 96.3399Z" fill="#808080"/>
<path d="M62.5098 96.3357C62.5098 96.3755 62.537 96.407 62.5737 96.4154L62.5768 96.2582C62.5391 96.2645 62.5098 96.2959 62.5098 96.3357Z" fill="#E6E6E6"/>
<path d="M62.6725 96.3387C62.6725 96.2989 62.6453 96.2674 62.6086 96.259L62.6055 96.4162C62.6432 96.4099 62.6725 96.3785 62.6725 96.3387Z" fill="#E6E6E6"/>
<path d="M62.0444 97.9264C62.1942 97.7461 62.2445 97.5251 62.1492 97.3522C62.0538 97.1782 61.84 97.1028 61.6074 97.1332C61.6085 97.2861 61.6462 97.4412 61.7258 97.5848C61.8044 97.7283 61.9155 97.8436 62.0444 97.9264Z" fill="url(#paint28_linear_1_9769)"/>
<path d="M61.7054 97.9965L61.9589 97.8571C62.1266 97.7649 62.1874 97.5543 62.0952 97.3866C62.0029 97.219 61.7923 97.1572 61.6247 97.2504L61.3711 97.3898L61.7054 97.9975V97.9965Z" fill="url(#paint29_linear_1_9769)"/>
<path style="mix-blend-mode:multiply" d="M61.3727 97.3886L61.707 97.9965L61.9008 97.8899L61.5665 97.2821L61.3727 97.3886Z" fill="url(#paint30_linear_1_9769)"/>
<path d="M48.307 104.499L48.4799 104.814C48.5816 104.998 48.8079 105.073 48.9997 104.985L59.1858 100.301C59.2906 100.252 59.3839 100.182 59.4604 100.095L60.6361 98.7383L61.8159 98.0896L61.3612 97.2618L48.328 104.429C48.3028 104.443 48.2934 104.474 48.307 104.499Z" fill="url(#paint31_linear_1_9769)"/>
<path d="M61.3613 97.2624L61.1914 97.3558L61.6464 98.1831L61.8162 98.0897L61.3613 97.2624Z" fill="url(#paint32_linear_1_9769)"/>
<g style="mix-blend-mode:multiply">
<path d="M61.6474 98.1819L61.5961 98.0897L60.5514 98.6639L59.1504 100.317L59.1881 100.301C59.2929 100.252 59.3862 100.182 59.4627 100.095L60.6383 98.7383L61.6474 98.183V98.1819Z" fill="#E6E6E6"/>
</g>
<path d="M61.8151 97.394C61.8696 97.3636 61.9388 97.3835 61.9692 97.439C61.9995 97.4935 61.9796 97.5627 61.9241 97.5931C61.8696 97.6234 61.8005 97.6035 61.7701 97.548C61.7397 97.4935 61.7596 97.4244 61.8151 97.394Z" fill="#808080"/>
<path d="M61.9092 97.565C61.9438 97.5461 61.9574 97.5052 61.9459 97.4696L61.8086 97.545C61.8327 97.5744 61.8746 97.5838 61.9092 97.565Z" fill="#E6E6E6"/>
<path d="M61.8298 97.4222C61.7952 97.4411 61.7816 97.482 61.7931 97.5176L61.9303 97.4422C61.9062 97.4128 61.8643 97.4034 61.8298 97.4222Z" fill="#E6E6E6"/>
<path d="M63.5136 97.1718C63.283 97.132 63.0661 97.199 62.9634 97.3688C62.8607 97.5385 62.9016 97.7617 63.0441 97.9472C63.1761 97.8697 63.2914 97.7586 63.3763 97.6192C63.4612 97.4788 63.5052 97.3258 63.5136 97.1728V97.1718Z" fill="url(#paint33_linear_1_9769)"/>
<path d="M63.7408 97.4317L63.4925 97.2819C63.329 97.1823 63.1152 97.2347 63.0167 97.3992C62.9182 97.5637 62.9696 97.7764 63.1341 97.8749L63.3824 98.0248L63.7419 97.4317H63.7408Z" fill="url(#paint34_linear_1_9769)"/>
<path style="mix-blend-mode:multiply" d="M63.381 98.0247L63.7402 97.4313L63.5511 97.3168L63.1919 97.9102L63.381 98.0247Z" fill="url(#paint35_linear_1_9769)"/>
<path d="M76.0727 105.784L76.2581 105.478C76.3671 105.298 76.3189 105.064 76.1471 104.943L66.9972 98.4639C66.9029 98.3968 66.795 98.3518 66.6818 98.3298L64.9183 97.9903L63.7667 97.2935L63.2773 98.1014L76.0014 105.804C76.0255 105.819 76.058 105.811 76.0727 105.786V105.784Z" fill="url(#paint36_linear_1_9769)"/>
<path d="M63.7663 97.2925L63.2773 98.1001L63.4432 98.2005L63.9321 97.3928L63.7663 97.2925Z" fill="url(#paint37_linear_1_9769)"/>
<g style="mix-blend-mode:multiply">
<path d="M63.9314 97.3916L63.877 97.4817L64.8965 98.0989L67.0289 98.4856L66.9954 98.4615C66.9011 98.3944 66.7931 98.3493 66.68 98.3273L64.9164 97.9878L63.9314 97.3916Z" fill="#E6E6E6"/>
</g>
<path d="M63.1617 97.639C63.1083 97.6066 63.0915 97.5374 63.124 97.484C63.1565 97.4305 63.2256 97.4138 63.2791 97.4462C63.3325 97.4787 63.3493 97.5479 63.3168 97.6013C63.2843 97.6548 63.2151 97.6715 63.1617 97.639Z" fill="#808080"/>
<path d="M63.2618 97.4721C63.2283 97.4512 63.1864 97.4596 63.1602 97.4879L63.2943 97.5696C63.3069 97.534 63.2943 97.4931 63.2618 97.4721Z" fill="#E6E6E6"/>
<path d="M63.1779 97.6115C63.2114 97.6324 63.2534 97.6241 63.2796 97.5958L63.1454 97.514C63.1329 97.5497 63.1454 97.5905 63.1779 97.6115Z" fill="#E6E6E6"/>
<path d="M18.991 107.11L18.3151 107.096L17.6934 124.546C17.6913 124.604 17.7369 124.652 17.7949 124.653L18.7831 124.673C18.8411 124.675 18.8889 124.628 18.8889 124.57L18.991 107.11Z" fill="url(#paint38_linear_1_9769)"/>
<g style="mix-blend-mode:multiply">
<path d="M18.2773 108.224L18.9348 108.237L18.9361 107.967L18.2867 107.953L18.2773 108.224Z" fill="#E6E6E6"/>
</g>
<path d="M18.9705 108.042C18.9705 108.03 18.9605 108.019 18.9477 108.019L18.2716 108.005C18.2589 108.005 18.2488 108.014 18.2482 108.027L18.2441 108.148C18.2441 108.161 18.2535 108.171 18.2669 108.172L18.9464 108.186C18.9591 108.186 18.9698 108.176 18.9698 108.163V108.042H18.9705Z" fill="url(#paint39_linear_1_9769)"/>
<path d="M18.6772 106.113L18.6183 106.112C18.3776 106.107 18.1762 106.3 18.1716 106.541L18.1602 107.094C18.1582 107.189 18.2331 107.267 18.3281 107.269L18.92 107.281C19.015 107.283 19.0932 107.208 19.0952 107.113L19.1066 106.56C19.1113 106.319 18.9186 106.118 18.6779 106.113H18.6772Z" fill="url(#paint40_radial_1_9769)"/>
<g style="mix-blend-mode:multiply">
<path d="M18.92 107.252L18.3281 107.24C18.2331 107.238 18.1582 107.16 18.1602 107.065V107.094C18.1575 107.189 18.2331 107.267 18.3274 107.269L18.9193 107.281C19.0143 107.283 19.0926 107.208 19.0946 107.113V107.084C19.0932 107.179 19.015 107.254 18.92 107.252Z" fill="#E6E6E6"/>
</g>
<path d="M19.3811 107.104C19.3724 107.511 19.036 107.834 18.6294 107.825C18.2227 107.817 17.8997 107.48 17.9084 107.074C17.9171 106.667 18.2535 106.344 18.6601 106.353C19.0668 106.361 19.3898 106.698 19.3811 107.104Z" fill="#D6D6D6"/>
<path d="M19.2539 107.102C19.2472 107.438 18.9683 107.706 18.6319 107.698C18.2955 107.692 18.0279 107.413 18.0353 107.076C18.042 106.74 18.3209 106.472 18.6573 106.48C18.9937 106.486 19.2613 106.765 19.2539 107.102Z" fill="url(#paint41_radial_1_9769)"/>
<path d="M18.3691 106.546C18.4206 106.687 18.527 106.785 18.6534 106.788C18.7798 106.79 18.8902 106.697 18.9477 106.558C18.8627 106.51 18.7644 106.481 18.6601 106.479C18.5557 106.477 18.4568 106.501 18.3691 106.546Z" fill="url(#paint42_linear_1_9769)"/>
<path d="M18.4377 106.336L18.4336 106.521C18.431 106.643 18.528 106.744 18.6503 106.747C18.7727 106.75 18.8737 106.653 18.8764 106.53L18.8804 106.346L18.4377 106.336Z" fill="url(#paint43_linear_1_9769)"/>
<path style="mix-blend-mode:multiply" d="M18.8802 106.346L18.4375 106.337L18.4346 106.478L18.8772 106.487L18.8802 106.346Z" fill="url(#paint44_linear_1_9769)"/>
<path d="M19.1194 96.8543L18.8906 96.8497C18.7562 96.847 18.6425 96.9486 18.6305 97.0824L17.969 104.208C17.9623 104.282 17.971 104.356 17.9951 104.425L18.3703 105.509L18.3522 106.368L18.9548 106.38L19.1515 96.8885C19.1515 96.8704 19.1374 96.855 19.1187 96.8543H19.1194Z" fill="url(#paint45_linear_1_9769)"/>
<path d="M18.358 106.244L18.3555 106.368L18.958 106.38L18.9605 106.256L18.358 106.244Z" fill="url(#paint46_linear_1_9769)"/>
<g style="mix-blend-mode:multiply">
<path d="M18.3549 106.244L18.4224 106.245L18.4385 105.484L17.9717 104.182L17.969 104.208C17.9623 104.281 17.971 104.355 17.9951 104.425L18.3703 105.508L18.3549 106.244Z" fill="#E6E6E6"/>
</g>
<path d="M18.7363 106.588C18.7356 106.628 18.7022 106.66 18.6627 106.659C18.6226 106.659 18.5911 106.625 18.5918 106.586C18.5925 106.546 18.6259 106.514 18.6654 106.515C18.7048 106.515 18.7369 106.549 18.7363 106.588Z" fill="#808080"/>
<path d="M18.6133 106.586C18.6133 106.611 18.6307 106.631 18.6541 106.637L18.6561 106.536C18.632 106.54 18.6133 106.56 18.6133 106.586Z" fill="#E6E6E6"/>
<path d="M18.7166 106.588C18.7166 106.563 18.6992 106.542 18.6758 106.537L18.6738 106.637C18.6979 106.633 18.7166 106.613 18.7166 106.588Z" fill="#E6E6E6"/>
<path d="M18.3141 107.601C18.4097 107.486 18.4418 107.345 18.3809 107.234C18.3201 107.123 18.1836 107.075 18.0352 107.095C18.0358 107.192 18.0599 107.291 18.1107 107.383C18.1609 107.475 18.2318 107.548 18.3141 107.601Z" fill="url(#paint47_linear_1_9769)"/>
<path d="M18.1001 107.646L18.2619 107.557C18.3689 107.498 18.4077 107.363 18.3489 107.256C18.29 107.149 18.1556 107.11 18.0486 107.169L17.8867 107.258L18.1001 107.646V107.646Z" fill="url(#paint48_linear_1_9769)"/>
<path style="mix-blend-mode:multiply" d="M17.8862 107.258L18.0996 107.646L18.2233 107.577L18.0099 107.19L17.8862 107.258Z" fill="url(#paint49_linear_1_9769)"/>
<path d="M9.54695 111.796L9.65731 111.997C9.72219 112.115 9.86665 112.162 9.98905 112.106L16.4907 109.116C16.5576 109.086 16.6172 109.041 16.666 108.985L17.4164 108.119L18.1695 107.705L17.8792 107.177L9.56033 111.752C9.54428 111.76 9.53826 111.78 9.54695 111.796Z" fill="url(#paint50_linear_1_9769)"/>
<path d="M17.8779 107.177L17.7695 107.237L18.0599 107.765L18.1684 107.705L17.8779 107.177Z" fill="url(#paint51_linear_1_9769)"/>
<g style="mix-blend-mode:multiply">
<path d="M18.0606 107.764L18.0278 107.705L17.361 108.072L16.4668 109.127L16.4909 109.116C16.5578 109.086 16.6173 109.041 16.6661 108.985L17.4165 108.119L18.0606 107.765V107.764Z" fill="#E6E6E6"/>
</g>
<path d="M18.1648 107.261C18.1996 107.242 18.2437 107.254 18.2631 107.29C18.2825 107.325 18.2698 107.369 18.2343 107.388C18.1996 107.407 18.1554 107.395 18.136 107.359C18.1166 107.325 18.1293 107.28 18.1648 107.261Z" fill="#808080"/>
<path d="M18.2224 107.37C18.2445 107.358 18.2532 107.332 18.2458 107.309L18.1582 107.357C18.1736 107.376 18.2003 107.382 18.2224 107.37Z" fill="#E6E6E6"/>
<path d="M18.1725 107.279C18.1504 107.291 18.1417 107.317 18.149 107.34L18.2367 107.292C18.2213 107.273 18.1945 107.267 18.1725 107.279Z" fill="#E6E6E6"/>
<path d="M19.2548 107.119C19.1077 107.094 18.9692 107.137 18.9037 107.245C18.8381 107.354 18.8642 107.496 18.9552 107.614C19.0395 107.565 19.113 107.494 19.1672 107.405C19.2214 107.315 19.2495 107.218 19.2548 107.12V107.119Z" fill="url(#paint52_linear_1_9769)"/>
<path d="M19.4022 107.285L19.2437 107.189C19.1394 107.126 19.003 107.159 18.9401 107.264C18.8772 107.369 18.91 107.505 19.015 107.568L19.1735 107.664L19.4029 107.285H19.4022Z" fill="url(#paint53_linear_1_9769)"/>
<path style="mix-blend-mode:multiply" d="M19.1711 107.663L19.4004 107.285L19.2797 107.212L19.0504 107.59L19.1711 107.663Z" fill="url(#paint54_linear_1_9769)"/>
<path d="M27.2725 112.616L27.3909 112.421C27.4605 112.306 27.4297 112.157 27.32 112.079L21.4798 107.944C21.4196 107.901 21.3507 107.872 21.2785 107.858L20.1529 107.642L19.4178 107.197L19.1055 107.712L27.2271 112.629C27.2425 112.638 27.2632 112.634 27.2725 112.618V112.616Z" fill="url(#paint55_linear_1_9769)"/>
<path d="M19.4175 107.196L19.1055 107.712L19.2113 107.776L19.5234 107.26L19.4175 107.196Z" fill="url(#paint56_linear_1_9769)"/>
<g style="mix-blend-mode:multiply">
<path d="M19.527 107.26L19.4922 107.317L20.143 107.711L21.504 107.958L21.4826 107.943C21.4224 107.9 21.3535 107.871 21.2813 107.857L20.1557 107.64L19.527 107.26Z" fill="#E6E6E6"/>
</g>
<path d="M19.0366 107.418C19.0025 107.397 18.9918 107.353 19.0125 107.319C19.0333 107.285 19.0774 107.274 19.1115 107.295C19.1456 107.315 19.1563 107.36 19.1356 107.394C19.1148 107.428 19.0707 107.439 19.0366 107.418Z" fill="#808080"/>
<path d="M19.1 107.312C19.0786 107.298 19.0519 107.304 19.0352 107.322L19.1208 107.374C19.1288 107.351 19.1208 107.325 19.1 107.312Z" fill="#E6E6E6"/>
<path d="M19.0472 107.401C19.0686 107.414 19.0954 107.409 19.1121 107.391L19.0265 107.339C19.0185 107.361 19.0265 107.387 19.0472 107.401Z" fill="#E6E6E6"/>
</g>
<defs>
<linearGradient id="paint0_linear_1_9769" x1="37.3229" y1="85.2339" x2="42.6817" y2="85.3452" gradientUnits="userSpaceOnUse">
<stop stop-color="#CCCCCC"/>
<stop offset="0.07" stop-color="#D1D1D1"/>
<stop offset="0.33" stop-color="#E0E0E0"/>
<stop offset="0.54" stop-color="#E6E6E6"/>
<stop offset="0.91" stop-color="#D1D1D1"/>
<stop offset="1" stop-color="#CCCCCC"/>
</linearGradient>
<linearGradient id="paint1_linear_1_9769" x1="38.5292" y1="50.351" x2="42.721" y2="50.4381" gradientUnits="userSpaceOnUse">
<stop stop-color="#B3B3B3"/>
<stop offset="0.03" stop-color="#B7B7B7"/>
<stop offset="0.22" stop-color="#D1D1D1"/>
<stop offset="0.4" stop-color="#E0E0E0"/>
<stop offset="0.54" stop-color="#E6E6E6"/>
<stop offset="0.74" stop-color="#D1D1D1"/>
<stop offset="1" stop-color="#B3B3B3"/>
</linearGradient>
<radialGradient id="paint2_radial_1_9769" cx="0" cy="0" r="1" gradientUnits="userSpaceOnUse" gradientTransform="translate(40.7656 45.3147) rotate(1.19) scale(2.36158 3.40068)">
<stop stop-color="#E6E6E6"/>
<stop offset="0.33" stop-color="#E3E3E3"/>
<stop offset="0.58" stop-color="#D9D9D9"/>
<stop offset="0.8" stop-color="#C9C9C9"/>
<stop offset="1" stop-color="#B3B3B3"/>
</radialGradient>
<radialGradient id="paint3_radial_1_9769" cx="0" cy="0" r="1" gradientUnits="userSpaceOnUse" gradientTransform="translate(40.7924 45.8763) rotate(1.19) scale(2.7332)">
<stop stop-color="#F2F2F2"/>
<stop offset="0.3" stop-color="#EEEEEE"/>
<stop offset="0.52" stop-color="#E6E6E6"/>
<stop offset="1" stop-color="#CCCCCC"/>
</radialGradient>
<linearGradient id="paint4_linear_1_9769" x1="39.3647" y1="43.8155" x2="42.2951" y2="43.8764" gradientUnits="userSpaceOnUse">
<stop stop-color="#CCCCCC"/>
<stop offset="0.08" stop-color="#BCBCBC"/>
<stop offset="0.22" stop-color="#A8A8A8"/>
<stop offset="0.36" stop-color="#9C9C9C"/>
<stop offset="0.5" stop-color="#999999"/>
<stop offset="0.66" stop-color="#9C9C9C"/>
<stop offset="0.79" stop-color="#A6A6A6"/>
<stop offset="0.9" stop-color="#B6B6B6"/>
<stop offset="1" stop-color="#CCCCCC"/>
</linearGradient>
<linearGradient id="paint5_linear_1_9769" x1="39.8379" y1="43.4239" x2="41.8214" y2="43.4651" gradientUnits="userSpaceOnUse">
<stop stop-color="#C0C0C0"/>
<stop offset="0.08" stop-color="#C8C8C8"/>
<stop offset="0.31" stop-color="#DEDEDE"/>
<stop offset="0.46" stop-color="#E6E6E6"/>
<stop offset="0.61" stop-color="#DCDCDC"/>
<stop offset="0.87" stop-color="#C3C3C3"/>
<stop offset="1" stop-color="#B3B3B3"/>
</linearGradient>
<linearGradient id="paint6_linear_1_9769" x1="40.85" y1="42.5343" x2="40.8369" y2="43.1665" gradientUnits="userSpaceOnUse">
<stop stop-color="#C0C0C0"/>
<stop offset="0.41" stop-color="#E1E1E1"/>
<stop offset="0.77" stop-color="#F7F7F7"/>
<stop offset="1" stop-color="white"/>
</linearGradient>
<linearGradient id="paint7_linear_1_9769" x1="37.9926" y1="21.2723" x2="42.6158" y2="21.3684" gradientUnits="userSpaceOnUse">
<stop stop-color="#F2F2F2"/>
<stop offset="0.55" stop-color="#F0F0F0"/>
<stop offset="0.75" stop-color="#E9E9E9"/>
<stop offset="0.8" stop-color="#E6E6E6"/>
<stop offset="0.89" stop-color="#D1D1D1"/>
<stop offset="1" stop-color="#B3B3B3"/>
</linearGradient>
<linearGradient id="paint8_linear_1_9769" x1="39.4832" y1="42.3742" x2="42.1858" y2="42.4303" gradientUnits="userSpaceOnUse">
<stop stop-color="#B3B3B3"/>
<stop offset="0.15" stop-color="#C8C8C8"/>
<stop offset="0.34" stop-color="#DEDEDE"/>
<stop offset="0.46" stop-color="#E6E6E6"/>
<stop offset="0.57" stop-color="#DCDCDC"/>
<stop offset="0.76" stop-color="#C3C3C3"/>
<stop offset="1" stop-color="#999999"/>
</linearGradient>
<linearGradient id="paint9_linear_1_9769" x1="39.7157" y1="48.1437" x2="38.3032" y2="45.5755" gradientUnits="userSpaceOnUse">
<stop stop-color="#CCCCCC"/>
<stop offset="0.08" stop-color="#BCBCBC"/>
<stop offset="0.22" stop-color="#A8A8A8"/>
<stop offset="0.36" stop-color="#9C9C9C"/>
<stop offset="0.5" stop-color="#999999"/>
<stop offset="0.66" stop-color="#9C9C9C"/>
<stop offset="0.79" stop-color="#A6A6A6"/>
<stop offset="0.9" stop-color="#B6B6B6"/>
<stop offset="1" stop-color="#CCCCCC"/>
</linearGradient>
<linearGradient id="paint10_linear_1_9769" x1="39.1386" y1="47.93" x2="38.1825" y2="46.1916" gradientUnits="userSpaceOnUse">
<stop stop-color="#C0C0C0"/>
<stop offset="0.08" stop-color="#C8C8C8"/>
<stop offset="0.31" stop-color="#DEDEDE"/>
<stop offset="0.46" stop-color="#E6E6E6"/>
<stop offset="0.61" stop-color="#DCDCDC"/>
<stop offset="0.87" stop-color="#C3C3C3"/>
<stop offset="1" stop-color="#B3B3B3"/>
</linearGradient>
<linearGradient id="paint11_linear_1_9769" x1="37.8522" y1="47.5023" x2="38.4063" y2="47.1976" gradientUnits="userSpaceOnUse">
<stop stop-color="#C0C0C0"/>
<stop offset="0.41" stop-color="#E1E1E1"/>
<stop offset="0.77" stop-color="#F7F7F7"/>
<stop offset="1" stop-color="white"/>
</linearGradient>
<linearGradient id="paint12_linear_1_9769" x1="20.8777" y1="60.6061" x2="18.6477" y2="56.5516" gradientUnits="userSpaceOnUse">
<stop stop-color="#F2F2F2"/>
<stop offset="0.55" stop-color="#F0F0F0"/>
<stop offset="0.75" stop-color="#E9E9E9"/>
<stop offset="0.8" stop-color="#E6E6E6"/>
<stop offset="0.89" stop-color="#D1D1D1"/>
<stop offset="1" stop-color="#B3B3B3"/>
</linearGradient>
<linearGradient id="paint13_linear_1_9769" x1="38.4032" y1="48.7725" x2="37.1005" y2="46.4039" gradientUnits="userSpaceOnUse">
<stop stop-color="#B3B3B3"/>
<stop offset="0.15" stop-color="#C8C8C8"/>
<stop offset="0.34" stop-color="#DEDEDE"/>
<stop offset="0.46" stop-color="#E6E6E6"/>
<stop offset="0.57" stop-color="#DCDCDC"/>
<stop offset="0.76" stop-color="#C3C3C3"/>
<stop offset="1" stop-color="#999999"/>
</linearGradient>
<linearGradient id="paint14_linear_1_9769" x1="43.3085" y1="45.7131" x2="41.791" y2="48.2207" gradientUnits="userSpaceOnUse">
<stop stop-color="#CCCCCC"/>
<stop offset="0.08" stop-color="#BCBCBC"/>
<stop offset="0.22" stop-color="#A8A8A8"/>
<stop offset="0.36" stop-color="#9C9C9C"/>
<stop offset="0.5" stop-color="#999999"/>
<stop offset="0.66" stop-color="#9C9C9C"/>
<stop offset="0.79" stop-color="#A6A6A6"/>
<stop offset="0.9" stop-color="#B6B6B6"/>
<stop offset="1" stop-color="#CCCCCC"/>
</linearGradient>
<linearGradient id="paint15_linear_1_9769" x1="43.4107" y1="46.3182" x2="42.3851" y2="48.013" gradientUnits="userSpaceOnUse">
<stop stop-color="#C0C0C0"/>
<stop offset="0.08" stop-color="#C8C8C8"/>
<stop offset="0.31" stop-color="#DEDEDE"/>
<stop offset="0.46" stop-color="#E6E6E6"/>
<stop offset="0.61" stop-color="#DCDCDC"/>
<stop offset="0.87" stop-color="#C3C3C3"/>
<stop offset="1" stop-color="#B3B3B3"/>
</linearGradient>
<linearGradient id="paint16_linear_1_9769" x1="43.6658" y1="47.5924" x2="43.1249" y2="47.2649" gradientUnits="userSpaceOnUse">
<stop stop-color="#C0C0C0"/>
<stop offset="0.41" stop-color="#E1E1E1"/>
<stop offset="0.77" stop-color="#F7F7F7"/>
<stop offset="1" stop-color="white"/>
</linearGradient>
<linearGradient id="paint17_linear_1_9769" x1="63.5207" y1="55.7901" x2="61.1251" y2="59.749" gradientUnits="userSpaceOnUse">
<stop stop-color="#F2F2F2"/>
<stop offset="0.55" stop-color="#F0F0F0"/>
<stop offset="0.75" stop-color="#E9E9E9"/>
<stop offset="0.8" stop-color="#E6E6E6"/>
<stop offset="0.89" stop-color="#D1D1D1"/>
<stop offset="1" stop-color="#B3B3B3"/>
</linearGradient>
<linearGradient id="paint18_linear_1_9769" x1="44.4902" y1="46.4913" x2="43.0918" y2="48.8012" gradientUnits="userSpaceOnUse">
<stop stop-color="#B3B3B3"/>
<stop offset="0.15" stop-color="#C8C8C8"/>
<stop offset="0.34" stop-color="#DEDEDE"/>
<stop offset="0.46" stop-color="#E6E6E6"/>
<stop offset="0.57" stop-color="#DCDCDC"/>
<stop offset="0.76" stop-color="#C3C3C3"/>
<stop offset="1" stop-color="#999999"/>
</linearGradient>
<linearGradient id="paint19_linear_1_9769" x1="61.3458" y1="110.883" x2="63.2195" y2="110.922" gradientUnits="userSpaceOnUse">
<stop stop-color="#CCCCCC"/>
<stop offset="0.07" stop-color="#D1D1D1"/>
<stop offset="0.33" stop-color="#E0E0E0"/>
<stop offset="0.54" stop-color="#E6E6E6"/>
<stop offset="0.91" stop-color="#D1D1D1"/>
<stop offset="1" stop-color="#CCCCCC"/>
</linearGradient>
<linearGradient id="paint20_linear_1_9769" x1="61.7684" y1="98.6867" x2="63.234" y2="98.7172" gradientUnits="userSpaceOnUse">
<stop stop-color="#B3B3B3"/>
<stop offset="0.03" stop-color="#B7B7B7"/>
<stop offset="0.22" stop-color="#D1D1D1"/>
<stop offset="0.4" stop-color="#E0E0E0"/>
<stop offset="0.54" stop-color="#E6E6E6"/>
<stop offset="0.74" stop-color="#D1D1D1"/>
<stop offset="1" stop-color="#B3B3B3"/>
</linearGradient>
<radialGradient id="paint21_radial_1_9769" cx="0" cy="0" r="1" gradientUnits="userSpaceOnUse" gradientTransform="translate(62.5505 96.926) rotate(1.19) scale(0.825707 1.18902)">
<stop stop-color="#E6E6E6"/>
<stop offset="0.33" stop-color="#E3E3E3"/>
<stop offset="0.58" stop-color="#D9D9D9"/>
<stop offset="0.8" stop-color="#C9C9C9"/>
<stop offset="1" stop-color="#B3B3B3"/>
</radialGradient>
<radialGradient id="paint22_radial_1_9769" cx="0" cy="0" r="1" gradientUnits="userSpaceOnUse" gradientTransform="translate(62.5593 97.1225) rotate(1.19) scale(0.955641)">
<stop stop-color="#F2F2F2"/>
<stop offset="0.3" stop-color="#EEEEEE"/>
<stop offset="0.52" stop-color="#E6E6E6"/>
<stop offset="1" stop-color="#CCCCCC"/>
</radialGradient>
<linearGradient id="paint23_linear_1_9769" x1="62.0626" y1="96.402" x2="63.0872" y2="96.4232" gradientUnits="userSpaceOnUse">
<stop stop-color="#CCCCCC"/>
<stop offset="0.08" stop-color="#BCBCBC"/>
<stop offset="0.22" stop-color="#A8A8A8"/>
<stop offset="0.36" stop-color="#9C9C9C"/>
<stop offset="0.5" stop-color="#999999"/>
<stop offset="0.66" stop-color="#9C9C9C"/>
<stop offset="0.79" stop-color="#A6A6A6"/>
<stop offset="0.9" stop-color="#B6B6B6"/>
<stop offset="1" stop-color="#CCCCCC"/>
</linearGradient>
<linearGradient id="paint24_linear_1_9769" x1="62.2297" y1="96.2648" x2="62.9232" y2="96.2792" gradientUnits="userSpaceOnUse">
<stop stop-color="#C0C0C0"/>
<stop offset="0.08" stop-color="#C8C8C8"/>
<stop offset="0.31" stop-color="#DEDEDE"/>
<stop offset="0.46" stop-color="#E6E6E6"/>
<stop offset="0.61" stop-color="#DCDCDC"/>
<stop offset="0.87" stop-color="#C3C3C3"/>
<stop offset="1" stop-color="#B3B3B3"/>
</linearGradient>
<linearGradient id="paint25_linear_1_9769" x1="62.582" y1="95.9535" x2="62.5774" y2="96.1746" gradientUnits="userSpaceOnUse">
<stop stop-color="#C0C0C0"/>
<stop offset="0.41" stop-color="#E1E1E1"/>
<stop offset="0.77" stop-color="#F7F7F7"/>
<stop offset="1" stop-color="white"/>
</linearGradient>
<linearGradient id="paint26_linear_1_9769" x1="61.5829" y1="88.5197" x2="63.1993" y2="88.5533" gradientUnits="userSpaceOnUse">
<stop stop-color="#F2F2F2"/>
<stop offset="0.55" stop-color="#F0F0F0"/>
<stop offset="0.75" stop-color="#E9E9E9"/>
<stop offset="0.8" stop-color="#E6E6E6"/>
<stop offset="0.89" stop-color="#D1D1D1"/>
<stop offset="1" stop-color="#B3B3B3"/>
</linearGradient>
<linearGradient id="paint27_linear_1_9769" x1="62.1025" y1="95.8977" x2="63.0475" y2="95.9174" gradientUnits="userSpaceOnUse">
<stop stop-color="#B3B3B3"/>
<stop offset="0.15" stop-color="#C8C8C8"/>
<stop offset="0.34" stop-color="#DEDEDE"/>
<stop offset="0.46" stop-color="#E6E6E6"/>
<stop offset="0.57" stop-color="#DCDCDC"/>
<stop offset="0.76" stop-color="#C3C3C3"/>
<stop offset="1" stop-color="#999999"/>
</linearGradient>
<linearGradient id="paint28_linear_1_9769" x1="62.1841" y1="97.9151" x2="61.6902" y2="97.0171" gradientUnits="userSpaceOnUse">
<stop stop-color="#CCCCCC"/>
<stop offset="0.08" stop-color="#BCBCBC"/>
<stop offset="0.22" stop-color="#A8A8A8"/>
<stop offset="0.36" stop-color="#9C9C9C"/>
<stop offset="0.5" stop-color="#999999"/>
<stop offset="0.66" stop-color="#9C9C9C"/>
<stop offset="0.79" stop-color="#A6A6A6"/>
<stop offset="0.9" stop-color="#B6B6B6"/>
<stop offset="1" stop-color="#CCCCCC"/>
</linearGradient>
<linearGradient id="paint29_linear_1_9769" x1="61.9843" y1="97.8403" x2="61.65" y2="97.2325" gradientUnits="userSpaceOnUse">
<stop stop-color="#C0C0C0"/>
<stop offset="0.08" stop-color="#C8C8C8"/>
<stop offset="0.31" stop-color="#DEDEDE"/>
<stop offset="0.46" stop-color="#E6E6E6"/>
<stop offset="0.61" stop-color="#DCDCDC"/>
<stop offset="0.87" stop-color="#C3C3C3"/>
<stop offset="1" stop-color="#B3B3B3"/>
</linearGradient>
<linearGradient id="paint30_linear_1_9769" x1="61.5365" y1="97.6908" x2="61.7303" y2="97.5843" gradientUnits="userSpaceOnUse">
<stop stop-color="#C0C0C0"/>
<stop offset="0.41" stop-color="#E1E1E1"/>
<stop offset="0.77" stop-color="#F7F7F7"/>
<stop offset="1" stop-color="white"/>
</linearGradient>
<linearGradient id="paint31_linear_1_9769" x1="55.6005" y1="102.272" x2="54.8208" y2="100.855" gradientUnits="userSpaceOnUse">
<stop stop-color="#F2F2F2"/>
<stop offset="0.55" stop-color="#F0F0F0"/>
<stop offset="0.75" stop-color="#E9E9E9"/>
<stop offset="0.8" stop-color="#E6E6E6"/>
<stop offset="0.89" stop-color="#D1D1D1"/>
<stop offset="1" stop-color="#B3B3B3"/>
</linearGradient>
<linearGradient id="paint32_linear_1_9769" x1="61.7298" y1="98.1348" x2="61.2744" y2="97.3066" gradientUnits="userSpaceOnUse">
<stop stop-color="#B3B3B3"/>
<stop offset="0.15" stop-color="#C8C8C8"/>
<stop offset="0.34" stop-color="#DEDEDE"/>
<stop offset="0.46" stop-color="#E6E6E6"/>
<stop offset="0.57" stop-color="#DCDCDC"/>
<stop offset="0.76" stop-color="#C3C3C3"/>
<stop offset="1" stop-color="#999999"/>
</linearGradient>
<linearGradient id="paint33_linear_1_9769" x1="63.4375" y1="97.0651" x2="62.9069" y2="97.9419" gradientUnits="userSpaceOnUse">
<stop stop-color="#CCCCCC"/>
<stop offset="0.08" stop-color="#BCBCBC"/>
<stop offset="0.22" stop-color="#A8A8A8"/>
<stop offset="0.36" stop-color="#9C9C9C"/>
<stop offset="0.5" stop-color="#999999"/>
<stop offset="0.66" stop-color="#9C9C9C"/>
<stop offset="0.79" stop-color="#A6A6A6"/>
<stop offset="0.9" stop-color="#B6B6B6"/>
<stop offset="1" stop-color="#CCCCCC"/>
</linearGradient>
<linearGradient id="paint34_linear_1_9769" x1="63.4703" y1="97.2768" x2="63.1117" y2="97.8694" gradientUnits="userSpaceOnUse">
<stop stop-color="#C0C0C0"/>
<stop offset="0.08" stop-color="#C8C8C8"/>
<stop offset="0.31" stop-color="#DEDEDE"/>
<stop offset="0.46" stop-color="#E6E6E6"/>
<stop offset="0.61" stop-color="#DCDCDC"/>
<stop offset="0.87" stop-color="#C3C3C3"/>
<stop offset="1" stop-color="#B3B3B3"/>
</linearGradient>
<linearGradient id="paint35_linear_1_9769" x1="63.5592" y1="97.7222" x2="63.3701" y2="97.6077" gradientUnits="userSpaceOnUse">
<stop stop-color="#C0C0C0"/>
<stop offset="0.41" stop-color="#E1E1E1"/>
<stop offset="0.77" stop-color="#F7F7F7"/>
<stop offset="1" stop-color="white"/>
</linearGradient>
<linearGradient id="paint36_linear_1_9769" x1="70.5021" y1="100.589" x2="69.6645" y2="101.973" gradientUnits="userSpaceOnUse">
<stop stop-color="#F2F2F2"/>
<stop offset="0.55" stop-color="#F0F0F0"/>
<stop offset="0.75" stop-color="#E9E9E9"/>
<stop offset="0.8" stop-color="#E6E6E6"/>
<stop offset="0.89" stop-color="#D1D1D1"/>
<stop offset="1" stop-color="#B3B3B3"/>
</linearGradient>
<linearGradient id="paint37_linear_1_9769" x1="63.8482" y1="97.3372" x2="63.3593" y2="98.1448" gradientUnits="userSpaceOnUse">
<stop stop-color="#B3B3B3"/>
<stop offset="0.15" stop-color="#C8C8C8"/>
<stop offset="0.34" stop-color="#DEDEDE"/>
<stop offset="0.46" stop-color="#E6E6E6"/>
<stop offset="0.57" stop-color="#DCDCDC"/>
<stop offset="0.76" stop-color="#C3C3C3"/>
<stop offset="1" stop-color="#999999"/>
</linearGradient>
<linearGradient id="paint38_linear_1_9769" x1="17.8705" y1="115.872" x2="19.0664" y2="115.897" gradientUnits="userSpaceOnUse">
<stop stop-color="#CCCCCC"/>
<stop offset="0.07" stop-color="#D1D1D1"/>
<stop offset="0.33" stop-color="#E0E0E0"/>
<stop offset="0.54" stop-color="#E6E6E6"/>
<stop offset="0.91" stop-color="#D1D1D1"/>
<stop offset="1" stop-color="#CCCCCC"/>
</linearGradient>
<linearGradient id="paint39_linear_1_9769" x1="18.1399" y1="108.087" x2="19.0754" y2="108.106" gradientUnits="userSpaceOnUse">
<stop stop-color="#B3B3B3"/>
<stop offset="0.03" stop-color="#B7B7B7"/>
<stop offset="0.22" stop-color="#D1D1D1"/>
<stop offset="0.4" stop-color="#E0E0E0"/>
<stop offset="0.54" stop-color="#E6E6E6"/>
<stop offset="0.74" stop-color="#D1D1D1"/>
<stop offset="1" stop-color="#B3B3B3"/>
</linearGradient>
<radialGradient id="paint40_radial_1_9769" cx="0" cy="0" r="1" gradientUnits="userSpaceOnUse" gradientTransform="translate(18.6374 106.963) rotate(1.19) scale(0.527038 0.758935)">
<stop stop-color="#E6E6E6"/>
<stop offset="0.33" stop-color="#E3E3E3"/>
<stop offset="0.58" stop-color="#D9D9D9"/>
<stop offset="0.8" stop-color="#C9C9C9"/>
<stop offset="1" stop-color="#B3B3B3"/>
</radialGradient>
<radialGradient id="paint41_radial_1_9769" cx="0" cy="0" r="1" gradientUnits="userSpaceOnUse" gradientTransform="translate(18.6439 107.087) rotate(1.19) scale(0.609973)">
<stop stop-color="#F2F2F2"/>
<stop offset="0.3" stop-color="#EEEEEE"/>
<stop offset="0.52" stop-color="#E6E6E6"/>
<stop offset="1" stop-color="#CCCCCC"/>
</radialGradient>
<linearGradient id="paint42_linear_1_9769" x1="18.328" y1="106.628" x2="18.982" y2="106.641" gradientUnits="userSpaceOnUse">
<stop stop-color="#CCCCCC"/>
<stop offset="0.08" stop-color="#BCBCBC"/>
<stop offset="0.22" stop-color="#A8A8A8"/>
<stop offset="0.36" stop-color="#9C9C9C"/>
<stop offset="0.5" stop-color="#999999"/>
<stop offset="0.66" stop-color="#9C9C9C"/>
<stop offset="0.79" stop-color="#A6A6A6"/>
<stop offset="0.9" stop-color="#B6B6B6"/>
<stop offset="1" stop-color="#CCCCCC"/>
</linearGradient>
<linearGradient id="paint43_linear_1_9769" x1="18.4318" y1="106.541" x2="18.8745" y2="106.55" gradientUnits="userSpaceOnUse">
<stop stop-color="#C0C0C0"/>
<stop offset="0.08" stop-color="#C8C8C8"/>
<stop offset="0.31" stop-color="#DEDEDE"/>
<stop offset="0.46" stop-color="#E6E6E6"/>
<stop offset="0.61" stop-color="#DCDCDC"/>
<stop offset="0.87" stop-color="#C3C3C3"/>
<stop offset="1" stop-color="#B3B3B3"/>
</linearGradient>
<linearGradient id="paint44_linear_1_9769" x1="18.6582" y1="106.342" x2="18.6552" y2="106.483" gradientUnits="userSpaceOnUse">
<stop stop-color="#C0C0C0"/>
<stop offset="0.41" stop-color="#E1E1E1"/>
<stop offset="0.77" stop-color="#F7F7F7"/>
<stop offset="1" stop-color="white"/>
</linearGradient>
<linearGradient id="paint45_linear_1_9769" x1="18.0209" y1="101.597" x2="19.0527" y2="101.618" gradientUnits="userSpaceOnUse">
<stop stop-color="#F2F2F2"/>
<stop offset="0.55" stop-color="#F0F0F0"/>
<stop offset="0.75" stop-color="#E9E9E9"/>
<stop offset="0.8" stop-color="#E6E6E6"/>
<stop offset="0.89" stop-color="#D1D1D1"/>
<stop offset="1" stop-color="#B3B3B3"/>
</linearGradient>
<linearGradient id="paint46_linear_1_9769" x1="18.3561" y1="106.306" x2="18.9592" y2="106.319" gradientUnits="userSpaceOnUse">
<stop stop-color="#B3B3B3"/>
<stop offset="0.15" stop-color="#C8C8C8"/>
<stop offset="0.34" stop-color="#DEDEDE"/>
<stop offset="0.46" stop-color="#E6E6E6"/>
<stop offset="0.57" stop-color="#DCDCDC"/>
<stop offset="0.76" stop-color="#C3C3C3"/>
<stop offset="1" stop-color="#999999"/>
</linearGradient>
<linearGradient id="paint47_linear_1_9769" x1="18.4032" y1="107.594" x2="18.088" y2="107.021" gradientUnits="userSpaceOnUse">
<stop stop-color="#CCCCCC"/>
<stop offset="0.08" stop-color="#BCBCBC"/>
<stop offset="0.22" stop-color="#A8A8A8"/>
<stop offset="0.36" stop-color="#9C9C9C"/>
<stop offset="0.5" stop-color="#999999"/>
<stop offset="0.66" stop-color="#9C9C9C"/>
<stop offset="0.79" stop-color="#A6A6A6"/>
<stop offset="0.9" stop-color="#B6B6B6"/>
<stop offset="1" stop-color="#CCCCCC"/>
</linearGradient>
<linearGradient id="paint48_linear_1_9769" x1="18.2781" y1="107.546" x2="18.0648" y2="107.158" gradientUnits="userSpaceOnUse">
<stop stop-color="#C0C0C0"/>
<stop offset="0.08" stop-color="#C8C8C8"/>
<stop offset="0.31" stop-color="#DEDEDE"/>
<stop offset="0.46" stop-color="#E6E6E6"/>
<stop offset="0.61" stop-color="#DCDCDC"/>
<stop offset="0.87" stop-color="#C3C3C3"/>
<stop offset="1" stop-color="#B3B3B3"/>
</linearGradient>
<linearGradient id="paint49_linear_1_9769" x1="17.9908" y1="107.45" x2="18.1144" y2="107.382" gradientUnits="userSpaceOnUse">
<stop stop-color="#C0C0C0"/>
<stop offset="0.41" stop-color="#E1E1E1"/>
<stop offset="0.77" stop-color="#F7F7F7"/>
<stop offset="1" stop-color="white"/>
</linearGradient>
<linearGradient id="paint50_linear_1_9769" x1="14.2023" y1="110.375" x2="13.7046" y2="109.47" gradientUnits="userSpaceOnUse">
<stop stop-color="#F2F2F2"/>
<stop offset="0.55" stop-color="#F0F0F0"/>
<stop offset="0.75" stop-color="#E9E9E9"/>
<stop offset="0.8" stop-color="#E6E6E6"/>
<stop offset="0.89" stop-color="#D1D1D1"/>
<stop offset="1" stop-color="#B3B3B3"/>
</linearGradient>
<linearGradient id="paint51_linear_1_9769" x1="18.1132" y1="107.734" x2="17.8225" y2="107.205" gradientUnits="userSpaceOnUse">
<stop stop-color="#B3B3B3"/>
<stop offset="0.15" stop-color="#C8C8C8"/>
<stop offset="0.34" stop-color="#DEDEDE"/>
<stop offset="0.46" stop-color="#E6E6E6"/>
<stop offset="0.57" stop-color="#DCDCDC"/>
<stop offset="0.76" stop-color="#C3C3C3"/>
<stop offset="1" stop-color="#999999"/>
</linearGradient>
<linearGradient id="paint52_linear_1_9769" x1="19.2063" y1="107.051" x2="18.8676" y2="107.611" gradientUnits="userSpaceOnUse">
<stop stop-color="#CCCCCC"/>
<stop offset="0.08" stop-color="#BCBCBC"/>
<stop offset="0.22" stop-color="#A8A8A8"/>
<stop offset="0.36" stop-color="#9C9C9C"/>
<stop offset="0.5" stop-color="#999999"/>
<stop offset="0.66" stop-color="#9C9C9C"/>
<stop offset="0.79" stop-color="#A6A6A6"/>
<stop offset="0.9" stop-color="#B6B6B6"/>
<stop offset="1" stop-color="#CCCCCC"/>
</linearGradient>
<linearGradient id="paint53_linear_1_9769" x1="19.2296" y1="107.186" x2="19.0007" y2="107.564" gradientUnits="userSpaceOnUse">
<stop stop-color="#C0C0C0"/>
<stop offset="0.08" stop-color="#C8C8C8"/>
<stop offset="0.31" stop-color="#DEDEDE"/>
<stop offset="0.46" stop-color="#E6E6E6"/>
<stop offset="0.61" stop-color="#DCDCDC"/>
<stop offset="0.87" stop-color="#C3C3C3"/>
<stop offset="1" stop-color="#B3B3B3"/>
</linearGradient>
<linearGradient id="paint54_linear_1_9769" x1="19.2848" y1="107.47" x2="19.1641" y2="107.397" gradientUnits="userSpaceOnUse">
<stop stop-color="#C0C0C0"/>
<stop offset="0.41" stop-color="#E1E1E1"/>
<stop offset="0.77" stop-color="#F7F7F7"/>
<stop offset="1" stop-color="white"/>
</linearGradient>
<linearGradient id="paint55_linear_1_9769" x1="23.7169" y1="109.3" x2="23.1823" y2="110.184" gradientUnits="userSpaceOnUse">
<stop stop-color="#F2F2F2"/>
<stop offset="0.55" stop-color="#F0F0F0"/>
<stop offset="0.75" stop-color="#E9E9E9"/>
<stop offset="0.8" stop-color="#E6E6E6"/>
<stop offset="0.89" stop-color="#D1D1D1"/>
<stop offset="1" stop-color="#B3B3B3"/>
</linearGradient>
<linearGradient id="paint56_linear_1_9769" x1="19.4699" y1="107.225" x2="19.1578" y2="107.74" gradientUnits="userSpaceOnUse">
<stop stop-color="#B3B3B3"/>
<stop offset="0.15" stop-color="#C8C8C8"/>
<stop offset="0.34" stop-color="#DEDEDE"/>
<stop offset="0.46" stop-color="#E6E6E6"/>
<stop offset="0.57" stop-color="#DCDCDC"/>
<stop offset="0.76" stop-color="#C3C3C3"/>
<stop offset="1" stop-color="#999999"/>
</linearGradient>
</defs>
</svg>
