<svg width="528" height="188" viewBox="0 0 528 188" fill="none" xmlns="http://www.w3.org/2000/svg">
<g opacity="0.02">
<path d="M519.74 163.216C517.236 158.809 519.19 155.908 523.923 156.568C526.48 156.928 529.016 157.28 531.53 157.632C536.094 158.277 542.105 162.174 545.074 166.476C546.743 168.912 548.465 171.401 550.219 173.956C553.557 178.813 552.364 182.531 547.345 182.014C544.577 181.721 541.778 181.429 538.957 181.137C533.717 180.582 526.945 175.868 524.103 170.883C522.613 168.26 521.155 165.712 519.74 163.224L519.74 163.216Z" fill="white"/>
<path d="M487.325 159.05C485.476 154.538 488.307 151.6 493.505 152.319C496.305 152.709 499.073 153.099 501.83 153.481C506.817 154.178 512.733 158.21 515.163 162.625C516.526 165.121 517.931 167.684 519.378 170.315C522.115 175.321 519.991 179.136 514.445 178.559C511.37 178.237 508.275 177.922 505.148 177.585C499.348 176.978 492.702 172.061 490.579 166.919C489.47 164.221 488.381 161.598 487.335 159.042L487.325 159.05Z" fill="white"/>
<path d="M451.579 154.455C450.523 149.83 454.421 146.87 460.126 147.664C463.2 148.092 466.254 148.519 469.275 148.938C474.748 149.703 480.537 153.87 482.302 158.397C483.295 160.96 484.319 163.599 485.365 166.312C487.362 171.483 484.108 175.388 477.928 174.751C474.515 174.392 471.061 174.039 467.574 173.672C461.098 172.997 454.675 167.863 453.449 162.557C452.815 159.776 452.192 157.078 451.59 154.455L451.579 154.455Z" fill="white"/>
<path d="M411.929 149.358C411.855 144.621 417.021 141.661 423.328 142.538C426.719 143.01 430.089 143.482 433.428 143.947C439.46 144.794 445.06 149.096 446 153.743C446.528 156.381 447.078 159.087 447.627 161.882C448.694 167.219 444.056 171.221 437.147 170.502C433.322 170.104 429.455 169.7 425.547 169.287C418.289 168.53 412.161 163.172 412.055 157.693C412.013 154.83 411.96 152.056 411.918 149.366L411.929 149.358Z" fill="white"/>
<path d="M367.728 143.669C368.869 138.82 375.578 135.867 382.582 136.841C386.354 137.366 390.094 137.89 393.791 138.408C400.479 139.345 405.814 143.804 405.73 148.556C405.687 151.262 405.634 154.05 405.582 156.92C405.476 162.422 399.148 166.514 391.361 165.704C387.051 165.255 382.688 164.798 378.282 164.34C370.073 163.478 364.39 157.88 365.71 152.228C366.397 149.283 367.073 146.435 367.717 143.677L367.728 143.669Z" fill="white"/>
<path d="M318.114 137.291C320.776 132.344 329.355 129.421 337.183 130.508C341.399 131.092 345.561 131.677 349.692 132.254C357.151 133.296 362.116 137.913 360.785 142.777C360.024 145.55 359.232 148.413 358.418 151.366C356.844 157.04 348.403 161.215 339.571 160.293C334.669 159.783 329.714 159.266 324.696 158.742C315.346 157.76 310.275 151.891 313.391 146.067C315.018 143.04 316.592 140.124 318.103 137.298L318.114 137.291Z" fill="white"/>
<path d="M262.068 130.088C266.654 125.059 277.514 122.196 286.325 123.418C291.058 124.077 295.738 124.729 300.376 125.381C308.744 126.558 313.213 131.332 310.307 136.294C308.638 139.127 306.916 142.065 305.141 145.101C301.686 150.947 290.614 155.181 280.504 154.132C274.894 153.547 269.2 152.955 263.452 152.348C252.708 151.224 248.482 145.063 253.923 139.067C256.733 135.964 259.459 132.981 262.079 130.096L262.068 130.088Z" fill="white"/>
<path d="M198.212 121.881C205.227 116.785 218.93 114.026 228.924 115.413C234.28 116.163 239.584 116.897 244.824 117.632C254.279 118.958 258.093 123.905 253.202 128.956C250.402 131.85 247.486 134.848 244.465 137.958C238.622 143.969 224.18 148.241 212.485 147.027C205.988 146.345 199.406 145.655 192.729 144.966C180.252 143.654 177.22 137.186 185.651 131.04C190.003 127.87 194.187 124.827 198.212 121.896L198.212 121.881Z" fill="white"/>
<path d="M124.818 112.445C134.949 107.319 152.233 104.718 163.643 106.299C169.76 107.154 175.803 108.001 181.772 108.833C192.538 110.339 195.464 115.466 188.058 120.577C183.79 123.515 179.353 126.566 174.747 129.744C165.788 135.912 147.025 140.169 133.354 138.753C125.747 137.958 118.024 137.149 110.196 136.332C95.532 134.788 94.1586 127.99 106.53 121.709C112.879 118.494 118.975 115.406 124.818 112.445Z" fill="white"/>
<path d="M39.5732 101.48C53.7617 96.3758 75.5885 94.0149 88.7522 95.8512C95.7989 96.833 102.761 97.8074 109.628 98.7667C122 100.498 123.732 105.805 113.093 110.939C106.945 113.907 100.521 116.995 93.8233 120.217C80.7547 126.498 56.3395 130.695 40.1437 129.017C31.1108 128.072 21.9406 127.113 12.6224 126.139C-4.85169 124.302 -3.90086 117.144 13.7423 110.789C22.7435 107.543 31.3432 104.448 39.5732 101.487L39.5732 101.48Z" fill="white"/>
<path d="M505.871 138.858C503.948 135.477 505.945 133.416 510.202 134.136C512.505 134.525 514.787 134.915 517.048 135.297C521.158 136.002 526.314 139.202 528.606 142.538C529.895 144.411 531.216 146.33 532.568 148.294C535.114 152.004 533.656 154.62 529.166 153.975C526.683 153.615 524.19 153.255 521.676 152.896C517.017 152.221 511.333 148.459 509.178 144.696C508.047 142.71 506.938 140.761 505.85 138.858L505.871 138.858Z" fill="white"/>
<path d="M477.096 134.196C475.691 130.77 478.385 128.724 483.001 129.504C485.495 129.923 487.967 130.351 490.418 130.763C494.866 131.52 499.937 134.803 501.796 138.19C502.831 140.094 503.909 142.043 504.997 144.036C507.068 147.814 504.87 150.452 499.968 149.748C497.264 149.358 494.538 148.961 491.791 148.563C486.699 147.829 481.131 143.947 479.547 140.117C478.712 138.093 477.899 136.122 477.106 134.188L477.096 134.196Z" fill="white"/>
<path d="M445.752 129.114C444.96 125.651 448.478 123.635 453.486 124.482C456.19 124.947 458.874 125.396 461.536 125.853C466.364 126.678 471.319 130.043 472.65 133.476C473.4 135.41 474.161 137.388 474.943 139.412C476.422 143.257 473.368 145.903 467.991 145.131C465.033 144.703 462.032 144.276 459.022 143.834C453.433 143.024 448.024 139.022 447.126 135.125C446.65 133.071 446.196 131.07 445.742 129.114L445.752 129.114Z" fill="white"/>
<path d="M411.497 123.56C411.444 120.06 415.913 118.096 421.385 119.018C424.333 119.52 427.259 120.022 430.154 120.51C435.415 121.409 440.212 124.857 440.909 128.327C441.3 130.283 441.701 132.292 442.113 134.345C442.895 138.258 438.806 140.896 432.89 140.049C429.626 139.577 426.33 139.105 423.012 138.618C416.853 137.718 411.676 133.596 411.602 129.639C411.571 127.555 411.539 125.531 411.497 123.553L411.497 123.56Z" fill="white"/>
<path d="M373.876 117.466C374.711 113.944 380.31 112.04 386.3 113.052C389.523 113.599 392.724 114.146 395.893 114.686C401.651 115.668 406.236 119.205 406.183 122.705C406.151 124.684 406.12 126.715 406.078 128.799C406.004 132.764 400.679 135.394 394.139 134.45C390.526 133.925 386.881 133.401 383.194 132.869C376.359 131.879 371.488 127.622 372.429 123.612C372.925 121.506 373.401 119.46 373.866 117.474L373.876 117.466Z" fill="white"/>
<path d="M332.387 110.744C334.289 107.213 341.23 105.385 347.811 106.501C351.361 107.108 354.879 107.701 358.355 108.293C364.662 109.372 368.994 112.992 368.032 116.515C367.483 118.508 366.923 120.555 366.332 122.661C365.222 126.678 358.429 129.271 351.15 128.222C347.135 127.637 343.068 127.053 338.969 126.461C331.352 125.359 326.893 120.967 329.059 116.912C330.2 114.791 331.309 112.737 332.376 110.729L332.387 110.744Z" fill="white"/>
<path d="M286.404 103.294C289.605 99.7714 298.131 98.0551 305.399 99.2917C309.319 99.9588 313.196 100.618 317.042 101.27C324.004 102.455 327.987 106.165 325.927 109.702C324.754 111.703 323.539 113.765 322.292 115.886C319.905 119.933 311.326 122.474 303.191 121.305C298.691 120.653 294.148 119.993 289.552 119.333C281.005 118.097 277.086 113.562 280.773 109.492C282.706 107.371 284.576 105.303 286.393 103.302L286.404 103.294Z" fill="white"/>
<path d="M235.148 94.9896C239.945 91.5044 250.372 89.9304 258.454 91.302C262.796 92.044 267.107 92.771 271.364 93.4981C279.077 94.8097 282.626 98.6097 279.225 102.132C277.281 104.133 275.284 106.195 273.224 108.316C269.262 112.385 258.518 114.829 249.358 113.51C244.287 112.775 239.163 112.033 233.976 111.284C224.33 109.882 221.118 105.213 226.696 101.143C229.602 99.0219 232.423 96.9757 235.148 94.9896Z" fill="white"/>
<path d="M177.654 85.6729C184.404 82.2477 197.146 80.8761 206.168 82.4051C211.017 83.2295 215.824 84.0465 220.578 84.856C229.178 86.325 232.157 90.1999 227.107 93.6851C224.223 95.6638 221.254 97.7174 218.18 99.831C212.285 103.893 198.846 106.202 188.461 104.703C182.703 103.871 176.882 103.024 170.987 102.177C160.01 100.58 157.739 95.7687 165.684 91.7364C169.814 89.6453 173.797 87.6216 177.654 85.6729Z" fill="white"/>
<path d="M112.711 75.1499C121.913 71.8446 137.454 70.7203 147.596 72.4442C153.047 73.3736 158.435 74.288 163.77 75.1949C173.406 76.8363 175.666 80.7936 168.588 84.2039C164.542 86.1526 160.358 88.1687 156.026 90.2523C147.68 94.2696 130.914 96.3757 119.029 94.6669C112.436 93.715 105.759 92.7482 98.9978 91.7738C86.3835 89.9375 85.3799 84.9983 96.3038 81.0559C101.967 79.0173 107.418 77.0536 112.69 75.1574L112.711 75.1499Z" fill="white"/>
<path d="M519.125 124.415C517.245 121.755 518.734 120.226 522.337 120.923C524.291 121.297 526.225 121.672 528.148 122.047C531.645 122.729 536.198 125.375 538.343 128.013C539.547 129.497 540.762 131.003 542.019 132.54C544.364 135.433 543.297 137.344 539.536 136.692C537.466 136.332 535.374 135.973 533.272 135.605C529.384 134.931 524.429 131.903 522.358 128.98C521.259 127.428 520.192 125.914 519.136 124.423L519.125 124.415Z" fill="white"/>
<path d="M495.085 119.91C493.563 117.235 495.539 115.736 499.406 116.478C501.487 116.882 503.568 117.28 505.628 117.684C509.379 118.411 513.858 121.11 515.696 123.77C516.721 125.262 517.767 126.783 518.834 128.335C520.842 131.258 519.267 133.154 515.2 132.45C512.971 132.06 510.72 131.67 508.449 131.273C504.255 130.538 499.374 127.443 497.684 124.497C496.796 122.938 495.919 121.409 495.074 119.903L495.085 119.91Z" fill="white"/>
<path d="M469.221 115.076C468.122 112.393 470.668 110.931 474.81 111.733C477.049 112.168 479.278 112.595 481.486 113.023C485.501 113.802 489.917 116.553 491.386 119.228C492.21 120.727 493.044 122.264 493.9 123.823C495.516 126.776 493.34 128.65 488.956 127.893C486.536 127.473 484.107 127.053 481.655 126.626C477.123 125.839 472.337 122.669 471.101 119.701C470.457 118.127 469.823 116.59 469.2 115.084L469.221 115.076Z" fill="white"/>
<path d="M441.329 109.852C440.716 107.161 443.917 105.752 448.376 106.614C450.785 107.079 453.183 107.543 455.56 108.001C459.881 108.84 464.202 111.643 465.248 114.326C465.829 115.833 466.431 117.377 467.033 118.951C468.174 121.919 465.322 123.77 460.568 122.946C457.948 122.488 455.317 122.031 452.655 121.567C447.731 120.712 443.083 117.467 442.386 114.484C442.026 112.91 441.667 111.366 441.319 109.852L441.329 109.852Z" fill="white"/>
<path d="M411.153 104.208C411.11 101.525 415.062 100.176 419.879 101.105C422.478 101.607 425.066 102.109 427.634 102.604C432.293 103.511 436.487 106.359 437.036 109.05C437.343 110.564 437.649 112.108 437.966 113.682C438.558 116.672 434.902 118.478 429.736 117.579C426.894 117.084 424.021 116.582 421.126 116.08C415.769 115.143 411.29 111.83 411.227 108.84C411.195 107.258 411.174 105.714 411.153 104.2L411.153 104.208Z" fill="white"/>
<path d="M378.427 98.0848C379.061 95.4165 383.868 94.1499 389.087 95.1542C391.908 95.7013 394.697 96.241 397.476 96.7731C402.515 97.7475 406.551 100.656 406.509 103.339C406.477 104.853 406.456 106.397 406.424 107.978C406.371 110.969 401.776 112.723 396.145 111.748C393.039 111.209 389.901 110.661 386.742 110.114C380.889 109.095 376.631 105.707 377.329 102.709C377.698 101.135 378.058 99.5913 378.417 98.0848L378.427 98.0848Z" fill="white"/>
<path d="M342.786 91.4141C344.213 88.7683 350.023 87.5991 355.696 88.6934C358.76 89.2855 361.792 89.8701 364.803 90.4547C370.276 91.519 374.111 94.472 373.382 97.1403C372.97 98.6468 372.547 100.183 372.104 101.757C371.269 104.748 365.596 106.419 359.415 105.355C356.013 104.763 352.569 104.171 349.104 103.563C342.681 102.439 338.719 98.9765 340.314 96.001C341.159 94.4346 341.973 92.9056 342.776 91.4141L342.786 91.4141Z" fill="white"/>
<path d="M303.819 84.1213C306.186 81.5205 313.159 80.4712 319.35 81.6629C322.688 82.3075 325.995 82.9446 329.28 83.5817C335.239 84.7359 338.82 87.7414 337.278 90.3796C336.401 91.8712 335.503 93.3926 334.595 94.9591C332.841 97.9271 325.879 99.5161 319.085 98.3318C315.335 97.6798 311.553 97.0202 307.728 96.3607C300.639 95.124 297.047 91.5863 299.72 88.6483C301.125 87.1043 302.499 85.5903 303.83 84.1213L303.819 84.1213Z" fill="white"/>
<path d="M261.06 76.1246C264.546 73.5913 272.882 72.6919 279.654 73.996C283.309 74.7006 286.922 75.4051 290.514 76.0946C297.022 77.3538 300.297 80.4043 297.783 82.9976C296.357 84.4666 294.899 85.9656 293.409 87.5096C290.557 90.4476 282.073 91.9016 274.562 90.5975C270.41 89.878 266.226 89.151 262 88.4164C254.15 87.0449 251.034 83.4473 254.985 80.5542C257.066 79.0402 259.084 77.5637 261.06 76.1321L261.06 76.1246Z" fill="white"/>
<path d="M213.915 67.2953C218.743 64.8519 228.685 64.1324 236.122 65.5715C240.137 66.3434 244.109 67.1154 248.05 67.8799C255.192 69.259 258.076 72.347 254.421 74.8728C252.35 76.3043 250.216 77.7733 248.029 79.2798C243.845 82.1579 233.545 83.4546 225.198 82.0005C220.582 81.1986 215.922 80.3816 211.221 79.5646C202.474 78.0432 199.959 74.3706 205.485 71.5675C208.379 70.0984 211.189 68.6744 213.926 67.2878L213.915 67.2953Z" fill="white"/>
<path d="M161.67 57.5215C168.115 55.2055 179.958 54.7183 188.177 56.3073C192.604 57.1617 196.988 58.0087 201.341 58.8556C209.212 60.3771 211.61 63.5025 206.581 65.9309C203.718 67.31 200.781 68.7265 197.749 70.1806C191.959 72.9687 179.482 74.0555 170.143 72.4365C164.977 71.5371 159.758 70.6302 154.486 69.7159C144.682 68.007 142.928 64.2895 150.366 61.6063C154.243 60.2047 158.015 58.8556 161.681 57.5365L161.67 57.5215Z" fill="white"/>
<path d="M529.084 113.569C527.288 111.396 528.429 110.219 531.556 110.879C533.246 111.238 534.926 111.591 536.606 111.943C539.648 112.588 543.705 114.836 545.713 117.002C546.822 118.209 547.963 119.438 549.114 120.69C551.27 123.036 550.467 124.49 547.223 123.853C545.438 123.5 543.652 123.148 541.846 122.796C538.507 122.136 534.112 119.618 532.158 117.264C531.123 116.013 530.098 114.776 529.094 113.569L529.084 113.569Z" fill="white"/>
<path d="M508.436 109.305C506.894 107.131 508.415 105.985 511.733 106.682C513.529 107.056 515.314 107.439 517.089 107.813C520.322 108.496 524.347 110.782 526.111 112.955C527.094 114.169 528.097 115.398 529.112 116.658C531.024 119.011 529.83 120.443 526.365 119.768C524.463 119.393 522.551 119.019 520.618 118.644C517.057 117.939 512.705 115.376 511.035 113.015C510.148 111.756 509.271 110.519 508.415 109.305L508.436 109.305Z" fill="white"/>
<path d="M486.448 104.763C485.212 102.589 487.146 101.487 490.674 102.229C492.587 102.634 494.488 103.039 496.379 103.436C499.823 104.163 503.796 106.479 505.296 108.652C506.131 109.867 506.976 111.103 507.853 112.362C509.469 114.731 507.853 116.132 504.155 115.405C502.127 115.008 500.077 114.603 498.017 114.199C494.203 113.449 489.924 110.833 488.572 108.473C487.854 107.213 487.156 105.977 486.459 104.763L486.448 104.763Z" fill="white"/>
<path d="M462.966 99.9131C462.079 97.7471 464.477 96.6903 468.248 97.4848C470.287 97.912 472.316 98.3467 474.323 98.7739C477.989 99.5534 481.898 101.899 483.092 104.073C483.758 105.287 484.434 106.524 485.12 107.783C486.409 110.151 484.296 111.515 480.335 110.736C478.158 110.309 475.961 109.874 473.753 109.447C469.664 108.645 465.47 105.984 464.498 103.616C463.98 102.357 463.473 101.127 462.977 99.9131L462.966 99.9131Z" fill="white"/>
<path d="M437.842 94.7194C437.356 92.5683 440.282 91.5715 444.307 92.4184C446.484 92.8756 448.65 93.3328 450.794 93.79C454.703 94.6219 458.538 97.0053 459.373 99.1639C459.838 100.371 460.313 101.607 460.81 102.859C461.718 105.227 459.056 106.539 454.788 105.707C452.442 105.242 450.086 104.785 447.709 104.32C443.314 103.451 439.226 100.753 438.687 98.3919C438.402 97.1403 438.117 95.9111 437.842 94.7119L437.842 94.7194Z" fill="white"/>
<path d="M410.906 89.1505C410.875 87.0219 414.403 86.0926 418.714 87.0069C421.049 87.5016 423.362 87.9888 425.665 88.476C429.849 89.3604 433.578 91.7813 434.012 93.9248C434.255 95.124 434.498 96.3532 434.751 97.6049C435.227 99.9583 431.92 101.225 427.324 100.326C424.799 99.8309 422.253 99.3287 419.696 98.8266C414.963 97.8972 411.012 95.1465 410.97 92.8006C410.949 91.5564 410.928 90.3422 410.906 89.1505Z" fill="white"/>
<path d="M381.939 83.162C382.436 81.0634 386.641 80.2165 391.279 81.1983C393.783 81.7305 396.265 82.2551 398.737 82.7798C403.227 83.7316 406.83 86.1825 406.788 88.3036C406.767 89.4953 406.746 90.7095 406.724 91.9462C406.682 94.2846 402.646 95.4763 397.692 94.5094C394.966 93.9698 392.219 93.4377 389.451 92.8905C384.327 91.8862 380.555 89.0906 381.094 86.7746C381.379 85.5454 381.665 84.3462 381.939 83.1695L381.939 83.162Z" fill="white"/>
<path d="M350.685 76.7089C351.794 74.6553 356.781 73.9058 361.757 74.9551C364.451 75.5247 367.124 76.0944 369.776 76.6565C374.604 77.6758 378.048 80.1567 377.477 82.2478C377.15 83.4245 376.822 84.6162 376.484 85.8454C375.84 88.1538 370.969 89.2631 365.602 88.2138C362.644 87.6292 359.665 87.0521 356.665 86.46C351.108 85.3657 347.547 82.5326 348.773 80.2541C349.417 79.0474 350.051 77.8707 350.675 76.7164L350.685 76.7089Z" fill="white"/>
<path d="M316.898 69.724C318.715 67.7303 324.6 67.0932 329.967 68.225C332.872 68.8395 335.756 69.4466 338.619 70.0537C343.817 71.1555 347.071 73.6588 345.877 75.7125C345.201 76.8667 344.514 78.0359 343.807 79.2426C342.465 81.5136 336.633 82.5179 330.791 81.3712C327.579 80.7416 324.336 80.1045 321.071 79.46C315.028 78.2683 311.732 75.3977 313.75 73.1717C314.817 71.9949 315.863 70.8482 316.888 69.724L316.898 69.724Z" fill="white"/>
<path d="M280.253 62.1541C282.904 60.2279 289.803 59.7332 295.624 60.9624C298.762 61.6295 301.889 62.2891 304.985 62.9411C310.605 64.1328 313.627 66.6586 311.704 68.6523C310.616 69.7691 309.506 70.9158 308.376 72.085C306.221 74.3036 299.259 75.173 292.899 73.9288C289.391 73.2393 285.852 72.5422 282.292 71.8452C275.678 70.5485 272.73 67.6405 275.678 65.4819C277.242 64.3427 278.763 63.2334 280.253 62.1466L280.253 62.1541Z" fill="white"/>
<path d="M240.33 53.909C243.953 52.0802 252.025 51.7429 258.353 53.0845C261.766 53.804 265.157 54.5235 268.516 55.2356C274.623 56.5247 277.359 59.073 274.581 60.9917C273.017 62.071 271.411 63.1728 269.774 64.3045C266.657 66.4481 258.385 67.1676 251.423 65.8035C247.577 65.0465 243.7 64.2895 239.791 63.5176C232.543 62.0935 229.997 59.1555 234.065 57.0943C236.209 56.0076 238.291 54.9508 240.34 53.9165L240.33 53.909Z" fill="white"/>
<path d="M196.733 44.8925C201.498 43.1837 210.943 43.0488 217.831 44.5028C221.55 45.2898 225.237 46.0693 228.903 46.8412C235.548 48.2503 237.936 50.8061 234.164 52.6274C232.041 53.6542 229.854 54.7035 227.614 55.7753C223.367 57.8214 213.563 58.3536 205.893 56.8471C201.667 56.0151 197.399 55.1757 193.088 54.3287C185.101 52.7548 183.062 49.8018 188.44 47.8606C191.271 46.8412 194.028 45.8519 196.712 44.8775L196.733 44.8925Z" fill="white"/>
<path d="M518.747 101.12C517.247 99.3065 518.441 98.3996 521.346 99.0591C522.92 99.4114 524.494 99.7711 526.047 100.123C528.889 100.768 532.534 102.747 534.214 104.56C535.144 105.572 536.095 106.607 537.067 107.648C538.863 109.605 537.943 110.721 534.922 110.084C533.263 109.732 531.605 109.372 529.925 109.012C526.829 108.353 522.92 106.164 521.304 104.208C520.438 103.166 519.592 102.14 518.747 101.12Z" fill="white"/>
<path d="M499.639 96.8708C498.361 95.0645 499.871 94.1951 502.946 94.8921C504.604 95.2669 506.263 95.6416 507.922 96.0164C510.922 96.6984 514.535 98.6996 516.014 100.513C516.838 101.525 517.673 102.552 518.518 103.594C520.103 105.55 518.846 106.637 515.655 105.955C513.901 105.58 512.127 105.198 510.352 104.823C507.077 104.118 503.199 101.9 501.826 99.9512C501.086 98.9094 500.368 97.8901 499.65 96.8783L499.639 96.8708Z" fill="white"/>
<path d="M479.394 92.3661C478.38 90.5673 480.24 89.7503 483.494 90.4848C485.258 90.8821 487.012 91.2793 488.755 91.6765C491.924 92.3961 495.495 94.4197 496.742 96.226C497.439 97.2304 498.136 98.2572 498.855 99.299C500.196 101.248 498.569 102.297 495.178 101.577C493.308 101.18 491.438 100.775 489.547 100.371C486.061 99.6213 482.247 97.3728 481.138 95.4315C480.546 94.3972 479.965 93.3779 479.394 92.3736L479.394 92.3661Z" fill="white"/>
<path d="M457.895 87.592C457.166 85.8157 459.426 85.0437 462.871 85.8232C464.741 86.2429 466.6 86.6626 468.449 87.0823C471.808 87.8468 475.316 89.893 476.309 91.6843C476.858 92.6886 477.418 93.7004 477.978 94.7347C479.035 96.6759 477.006 97.6803 473.393 96.9083C471.407 96.4811 469.4 96.0539 467.392 95.6266C463.674 94.8322 459.944 92.5462 459.141 90.62C458.719 89.5932 458.307 88.5813 457.895 87.592Z" fill="white"/>
<path d="M435.043 82.5098C434.642 80.756 437.347 80.0439 441.002 80.8684C442.988 81.3181 444.964 81.7603 446.918 82.21C450.489 83.0195 453.923 85.0881 454.62 86.8644C455 87.8537 455.391 88.8656 455.793 89.8924C456.532 91.8186 454.039 92.7705 450.183 91.946C448.059 91.4888 445.925 91.0391 443.78 90.5744C439.819 89.7275 436.174 87.419 435.73 85.5078C435.498 84.4885 435.265 83.4916 435.043 82.5098Z" fill="white"/>
<path d="M410.703 77.1062C410.672 75.3823 413.873 74.7378 417.771 75.6147C419.884 76.0944 421.976 76.5665 424.068 77.0387C427.861 77.9007 431.22 79.9843 431.569 81.7381C431.77 82.7199 431.97 83.7168 432.171 84.7286C432.551 86.6323 429.54 87.5243 425.41 86.6473C423.149 86.1602 420.867 85.673 418.564 85.1783C414.317 84.2714 410.788 81.933 410.756 80.0517C410.735 79.0474 410.724 78.0655 410.703 77.1062Z" fill="white"/>
<path d="M384.699 71.3274C385.1 69.641 388.84 69.0789 393.003 70.0158C395.253 70.5254 397.493 71.0276 399.712 71.5298C403.747 72.4442 407.001 74.5503 406.98 76.2741C406.959 77.241 406.948 78.2153 406.927 79.2122C406.885 81.0859 403.293 81.9104 398.877 80.966C396.447 80.4488 394.007 79.9242 391.545 79.3995C386.992 78.4252 383.6 76.0642 384.033 74.213C384.266 73.2311 384.488 72.2718 384.71 71.3199L384.699 71.3274Z" fill="white"/>
<path d="M356.907 65.1442C357.794 63.5028 362.158 63.0306 366.595 64.0349C368.993 64.5746 371.381 65.1217 373.758 65.6538C378.068 66.6282 381.195 68.7568 380.741 70.4431C380.477 71.3875 380.213 72.3469 379.949 73.3212C379.442 75.1575 375.174 75.892 370.43 74.8802C367.82 74.3181 365.19 73.7559 362.549 73.1938C357.657 72.1445 354.435 69.7611 355.396 67.9548C355.914 67.0029 356.41 66.0661 356.907 65.1442Z" fill="white"/>
<path d="M327.081 58.5185C328.528 56.9371 333.588 56.5698 338.343 57.6416C340.91 58.2262 343.467 58.8033 346.013 59.373C350.629 60.4223 353.598 62.5583 352.647 64.1922C352.109 65.1066 351.559 66.0435 350.999 66.9954C349.943 68.7867 344.924 69.4238 339.822 68.3295C337.011 67.7299 334.18 67.1228 331.328 66.5157C326.056 65.3839 323.034 62.978 324.608 61.2317C325.443 60.3098 326.267 59.4029 327.081 58.511L327.081 58.5185Z" fill="white"/>
<path d="M295.018 51.3977C297.099 49.8837 302.952 49.6439 308.066 50.7981C310.823 51.4202 313.57 52.0423 316.296 52.6569C321.24 53.7811 324.04 55.9322 322.518 57.5062C321.663 58.3906 320.786 59.29 319.898 60.2118C318.208 61.9432 312.334 62.4529 306.819 61.2761C303.776 60.6241 300.723 59.972 297.638 59.3124C291.933 58.0908 289.165 55.6699 291.458 53.9985C292.673 53.1141 293.867 52.2521 295.029 51.3977L295.018 51.3977Z" fill="white"/>
<path d="M260.45 43.716C263.27 42.2919 270.032 42.1945 275.525 43.4386C278.494 44.1132 281.442 44.7802 284.368 45.4398C289.693 46.6465 292.271 48.8051 290.094 50.3041C288.869 51.1435 287.622 52.0054 286.354 52.8824C283.946 54.5387 277.078 54.9135 271.099 53.6393C267.803 52.9348 264.496 52.2228 261.157 51.5108C254.977 50.1841 252.494 47.7558 255.611 46.1743C257.259 45.3349 258.875 44.5254 260.45 43.7234L260.45 43.716Z" fill="white"/>
<path d="M223.08 35.4041C226.746 34.085 234.532 34.1599 240.47 35.494C243.671 36.221 246.851 36.9406 250.01 37.6526C255.746 38.9492 258.07 41.1153 255.144 42.5243C253.496 43.3188 251.816 44.1283 250.094 44.9527C246.84 46.5117 238.843 46.7215 232.345 45.335C228.764 44.5705 225.161 43.7985 221.527 43.019C214.797 41.58 212.684 39.1441 216.762 37.6676C218.917 36.8956 221.02 36.1311 223.08 35.3891L223.08 35.4041Z" fill="white"/>
<path d="M510.06 90.6347C508.782 89.0907 509.997 88.3937 512.723 89.0457C514.191 89.398 515.67 89.7503 517.128 90.095C519.79 90.7321 523.097 92.486 524.523 94.0374C525.316 94.8994 526.129 95.7763 526.943 96.6607C528.475 98.3171 527.471 99.1865 524.65 98.5419C523.108 98.1897 521.555 97.8374 519.991 97.4776C517.118 96.8181 513.589 94.8919 512.215 93.243C511.487 92.3585 510.758 91.4891 510.05 90.6347L510.06 90.6347Z" fill="white"/>
<path d="M492.273 86.4526C491.195 84.9236 492.685 84.2641 495.548 84.9461C497.101 85.3134 498.644 85.6881 500.175 86.0479C502.975 86.7149 506.25 88.4913 507.497 90.0277C508.194 90.8822 508.902 91.7516 509.61 92.636C510.952 94.2849 509.663 95.1169 506.694 94.4423C505.067 94.0675 503.419 93.6928 501.781 93.318C498.739 92.621 495.263 90.6798 494.101 89.0384C493.477 88.1615 492.875 87.2996 492.273 86.4526Z" fill="white"/>
<path d="M473.507 82.038C472.651 80.524 474.447 79.9169 477.458 80.6289C479.095 81.0187 480.722 81.4084 482.339 81.7907C485.286 82.4952 488.519 84.2865 489.576 85.808C490.157 86.6549 490.759 87.5169 491.35 88.3938C492.481 90.0277 490.875 90.8222 487.737 90.1101C486.015 89.7129 484.283 89.3232 482.539 88.9259C479.328 88.1914 475.894 86.2202 474.965 84.6013C474.468 83.7319 473.982 82.8774 473.507 82.038Z" fill="white"/>
<path d="M453.687 77.3838C453.074 75.8923 455.208 75.3301 458.388 76.0871C460.11 76.4993 461.832 76.9041 463.533 77.3163C466.639 78.0583 469.819 79.8646 470.654 81.3711C471.119 82.2105 471.573 83.065 472.059 83.9269C472.936 85.5533 470.992 86.2953 467.675 85.5383C465.847 85.1186 464.019 84.7064 462.171 84.2792C458.769 83.4997 455.399 81.5135 454.733 79.9096C454.384 79.0551 454.036 78.2157 453.698 77.3838L453.687 77.3838Z" fill="white"/>
<path d="M432.726 72.4594C432.388 70.9978 434.892 70.4957 438.262 71.2902C440.079 71.7249 441.896 72.1596 443.692 72.5868C446.978 73.3738 450.094 75.1876 450.675 76.6716C450.992 77.496 451.32 78.343 451.647 79.1974C452.26 80.7938 449.925 81.4834 446.407 80.6814C444.474 80.2392 442.519 79.797 440.565 79.3473C436.952 78.5228 433.666 76.5142 433.296 74.9402C433.106 74.1008 432.916 73.2688 432.726 72.4594Z" fill="white"/>
<path d="M410.531 67.2429C410.51 65.8114 413.426 65.3767 416.986 66.2236C418.909 66.6808 420.832 67.138 422.744 67.5952C426.22 68.4271 429.263 70.2559 429.559 71.7175C429.717 72.5269 429.886 73.3589 430.055 74.1983C430.372 75.7723 427.604 76.4018 423.854 75.5474C421.793 75.0752 419.733 74.603 417.652 74.1308C413.806 73.2539 410.616 71.2303 410.584 69.6863C410.574 68.8619 410.553 68.0524 410.542 67.2579L410.531 67.2429Z" fill="white"/>
<path d="M386.963 61.7035C387.291 60.3169 390.661 59.9497 394.432 60.8491C396.471 61.3362 398.51 61.8234 400.528 62.3031C404.205 63.18 407.173 65.0238 407.152 66.4478C407.142 67.2423 407.121 68.0518 407.11 68.8687C407.078 70.4052 403.835 70.9673 399.852 70.0604C397.665 69.5583 395.457 69.0561 393.239 68.5539C389.139 67.617 386.065 65.5784 386.414 64.0719C386.604 63.2699 386.783 62.483 386.974 61.7035L386.963 61.7035Z" fill="white"/>
<path d="M361.915 55.8207C362.644 54.4791 366.521 54.2018 370.525 55.1536C372.691 55.6708 374.857 56.1879 376.991 56.6976C380.889 57.627 383.752 59.4857 383.372 60.8648C383.161 61.6368 382.939 62.4238 382.717 63.2183C382.294 64.7173 378.512 65.1969 374.265 64.2301C371.93 63.6979 369.574 63.1583 367.208 62.6187C362.845 61.6218 359.887 59.5682 360.668 58.1067C361.08 57.3272 361.503 56.5627 361.894 55.8132L361.915 55.8207Z" fill="white"/>
<path d="M335.239 49.5471C336.412 48.2654 340.849 48.078 345.117 49.0899C347.42 49.637 349.723 50.1841 351.995 50.7313C356.147 51.7206 358.883 53.5794 358.101 54.921C357.658 55.6705 357.214 56.4275 356.76 57.1995C355.904 58.6535 351.509 59.0357 346.966 58.0014C344.473 57.4318 341.958 56.8547 339.423 56.2776C334.753 55.2133 331.964 53.1522 333.232 51.7431C333.908 51.0011 334.573 50.2666 335.229 49.5471L335.239 49.5471Z" fill="white"/>
<path d="M306.746 42.854C308.426 41.6398 313.508 41.5649 318.051 42.6442C320.512 43.2288 322.953 43.8134 325.382 44.3905C329.799 45.4473 332.397 47.3136 331.161 48.5877C330.475 49.2998 329.767 50.0268 329.048 50.7688C327.696 52.1553 322.614 52.4327 317.755 51.3234C315.082 50.7163 312.388 50.1017 309.673 49.4796C304.665 48.3329 302.066 46.2643 303.894 44.9302C304.866 44.2256 305.816 43.5286 306.757 42.8465L306.746 42.854Z" fill="white"/>
<path d="M276.284 35.6965C278.534 34.5573 284.324 34.6098 289.184 35.764C291.804 36.3861 294.424 37.0082 297.012 37.6303C301.724 38.7545 304.154 40.6208 302.411 41.835C301.428 42.5095 300.435 43.1991 299.41 43.9036C297.487 45.2227 291.645 45.3726 286.416 44.1809C283.542 43.5213 280.647 42.8618 277.731 42.2022C272.343 40.973 269.977 38.9044 272.438 37.6527C273.748 36.9932 275.027 36.3411 276.284 35.704L276.284 35.6965Z" fill="white"/>
<path d="M243.61 28.0138C246.515 26.972 253.108 27.1669 258.306 28.4036C261.116 29.0706 263.905 29.7377 266.683 30.3973C271.733 31.604 273.952 33.4627 271.628 34.5945C270.318 35.224 268.987 35.8686 267.624 36.5207C265.056 37.7574 258.337 37.7574 252.717 36.4832C249.621 35.7787 246.505 35.0666 243.367 34.3471C237.556 33.0205 235.465 30.9519 238.645 29.8051C240.335 29.1981 242.004 28.5985 243.621 28.0138L243.61 28.0138Z" fill="white"/>
<path d="M502.65 81.6856C501.551 80.359 502.777 79.8194 505.333 80.4564C506.717 80.8012 508.101 81.146 509.475 81.4833C511.979 82.1053 514.99 83.6868 516.236 85.0209C516.923 85.7629 517.61 86.5199 518.317 87.2769C519.627 88.701 518.582 89.3755 515.94 88.7459C514.493 88.4012 513.035 88.0489 511.577 87.6966C508.883 87.0521 505.682 85.3357 504.509 83.9266C503.886 83.1696 503.263 82.4276 502.65 81.6856Z" fill="white"/>
<path d="M486.006 77.5933C485.077 76.2816 486.545 75.787 489.218 76.4465C490.665 76.8063 492.113 77.1661 493.55 77.5258C496.17 78.1779 499.159 79.7668 500.237 81.0934C500.839 81.8279 501.431 82.57 502.054 83.327C503.195 84.736 501.906 85.3731 499.128 84.7135C497.606 84.3463 496.075 83.979 494.543 83.6118C491.711 82.9297 488.552 81.2059 487.559 79.8043C487.031 79.0548 486.513 78.3203 485.996 77.5933L486.006 77.5933Z" fill="white"/>
<path d="M468.535 73.3062C467.806 72.0171 469.528 71.5599 472.338 72.257C473.859 72.6392 475.381 73.0139 476.891 73.3887C479.638 74.0707 482.596 75.6747 483.494 76.9788C483.991 77.7058 484.498 78.4403 485.016 79.1898C485.977 80.5839 484.413 81.1835 481.487 80.479C479.881 80.0967 478.275 79.707 476.659 79.3173C473.68 78.5977 470.563 76.8589 469.771 75.4798C469.348 74.7453 468.936 74.0183 468.535 73.2988L468.535 73.3062Z" fill="white"/>
<path d="M450.148 68.7868C449.63 67.5201 451.637 67.1154 454.596 67.8499C456.191 68.2472 457.786 68.6444 459.381 69.0416C462.266 69.7612 465.181 71.3726 465.889 72.6542C466.28 73.3663 466.682 74.0933 467.083 74.8278C467.833 76.1994 465.974 76.754 462.899 76.0195C461.209 75.6148 459.519 75.2025 457.807 74.7978C454.659 74.0408 451.606 72.287 451.046 70.9304C450.75 70.2109 450.454 69.4913 450.169 68.7943L450.148 68.7868Z" fill="white"/>
<path d="M430.797 64.0351C430.512 62.7984 432.847 62.4461 435.953 63.2181C437.632 63.6378 439.312 64.05 440.981 64.4698C444.024 65.2268 446.877 66.8457 447.363 68.1048C447.637 68.8094 447.912 69.5214 448.187 70.2409C448.704 71.59 446.517 72.0922 443.263 71.3127C441.478 70.8855 439.693 70.4583 437.886 70.0236C434.569 69.2216 431.568 67.4603 431.262 66.1337C431.093 65.4291 430.934 64.7246 430.776 64.0425L430.797 64.0351Z" fill="white"/>
<path d="M410.387 59.0206C410.366 57.8214 413.049 57.5291 416.324 58.3385C418.099 58.7807 419.863 59.2154 421.617 59.6501C424.818 60.4446 427.607 62.0785 427.861 63.3077C427.998 63.9973 428.136 64.6868 428.284 65.3913C428.548 66.7104 425.991 67.1527 422.557 66.3282C420.677 65.8785 418.775 65.4213 416.874 64.9641C413.366 64.1172 410.45 62.3409 410.419 61.0517C410.408 60.3622 410.397 59.6801 410.387 59.0131L410.387 59.0206Z" fill="white"/>
<path d="M388.844 53.7292C389.119 52.5675 392.183 52.3427 395.637 53.2046C397.507 53.6693 399.377 54.134 401.226 54.5912C404.607 55.4306 407.322 57.0645 407.301 58.2637C407.301 58.9308 407.28 59.6053 407.269 60.2949C407.237 61.584 404.279 61.9513 400.645 61.0818C398.648 60.6022 396.641 60.1225 394.634 59.6353C390.915 58.7434 388.094 56.9521 388.379 55.7004C388.538 55.0334 388.686 54.3738 388.844 53.7292Z" fill="white"/>
<path d="M366.046 48.1303C366.648 47.0136 370.134 46.8712 373.779 47.7781C375.755 48.2653 377.72 48.7599 379.674 49.2471C383.234 50.1315 385.876 51.7729 385.559 52.9346C385.379 53.5792 385.199 54.2313 385.02 54.8983C384.671 56.1425 381.269 56.4423 377.413 55.5204C375.3 55.0108 373.166 54.5011 371.032 53.9914C367.081 53.0396 364.376 51.2483 365.021 50.0416C365.369 49.397 365.707 48.7674 366.046 48.1453L366.046 48.1303Z" fill="white"/>
<path d="M341.908 42.2021C342.88 41.1378 346.831 41.0778 350.687 42.0372C352.779 42.5543 354.86 43.0715 356.931 43.5886C360.702 44.5255 363.227 46.1669 362.583 47.2837C362.224 47.9058 361.854 48.5353 361.474 49.1724C360.766 50.3716 356.867 50.5815 352.779 49.5996C350.529 49.06 348.268 48.5204 345.996 47.9732C341.802 46.9689 339.214 45.1626 340.26 44.0158C340.819 43.4013 341.369 42.8017 341.908 42.2021Z" fill="white"/>
<path d="M316.288 35.9062C317.672 34.9018 322.141 34.9468 326.229 35.9586C328.448 36.5133 330.645 37.0529 332.843 37.6C336.836 38.5969 339.245 40.2383 338.231 41.2951C337.66 41.8872 337.079 42.4868 336.488 43.0939C335.378 44.2331 330.92 44.3531 326.567 43.3112C324.18 42.7341 321.771 42.157 319.352 41.5799C314.883 40.5081 312.442 38.7093 313.943 37.615C314.735 37.0379 315.517 36.4683 316.288 35.9062Z" fill="white"/>
<path d="M289.06 29.2207C290.898 28.2913 295.948 28.4412 300.29 29.5205C302.646 30.1051 304.981 30.6897 307.305 31.2668C311.542 32.3236 313.824 33.965 312.387 34.9544C311.584 35.509 310.76 36.0711 309.926 36.6482C308.362 37.7275 303.28 37.7275 298.642 36.6182C296.086 36.0037 293.529 35.3891 290.941 34.7745C286.165 33.6277 283.915 31.8364 285.912 30.8171C286.979 30.2775 288.025 29.7528 289.05 29.2282L289.06 29.2207Z" fill="white"/>
<path d="M260.058 22.0931C262.414 21.2462 268.108 21.5235 272.725 22.6702C275.229 23.2923 277.712 23.9069 280.194 24.5215C284.695 25.6383 286.818 27.2797 284.917 28.2016C283.85 28.7112 282.762 29.2359 281.652 29.768C279.571 30.7649 273.803 30.6449 268.848 29.4607C266.122 28.8087 263.375 28.1491 260.618 27.4895C255.515 26.2678 253.465 24.4765 256.033 23.5472C257.396 23.0525 258.737 22.5728 260.058 22.1006L260.058 22.0931Z" fill="white"/>
<path d="M496.23 73.9591C495.28 72.8048 496.495 72.3926 498.903 73.0147C500.213 73.352 501.502 73.6818 502.802 74.019C505.168 74.6261 507.947 76.0577 509.014 77.2194C509.616 77.864 510.218 78.5235 510.82 79.1831C511.951 80.4198 510.894 80.9444 508.412 80.3223C507.049 79.9851 505.686 79.6403 504.312 79.2955C501.788 78.6659 498.861 77.122 497.836 75.9003C497.297 75.2482 496.759 74.5962 496.23 73.9591Z" fill="white"/>
<path d="M480.619 69.9787C479.816 68.847 481.242 68.4722 483.756 69.1168C485.119 69.4691 486.482 69.8138 487.834 70.1661C490.296 70.8032 493.053 72.2347 493.983 73.3889C494.501 74.026 495.029 74.6706 495.557 75.3227C496.55 76.5443 495.261 77.0315 492.662 76.3795C491.236 76.0197 489.799 75.6674 488.363 75.3077C485.711 74.6406 482.816 73.0966 481.96 71.8899C481.506 71.2454 481.052 70.6083 480.608 69.9787L480.619 69.9787Z" fill="white"/>
<path d="M464.264 65.8111C463.63 64.7018 465.289 64.3646 467.919 65.0391C469.346 65.4064 470.772 65.7736 472.188 66.1334C474.765 66.8004 477.481 68.2395 478.262 69.3712C478.696 70.0008 479.129 70.6379 479.572 71.275C480.396 72.4742 478.875 72.9239 476.149 72.2418C474.66 71.8671 473.149 71.4923 471.649 71.1176C468.87 70.4205 466.018 68.8616 465.342 67.6774C464.982 67.0478 464.623 66.4182 464.275 65.8036L464.264 65.8111Z" fill="white"/>
<path d="M447.131 61.4497C446.687 60.3629 448.589 60.0781 451.346 60.7827C452.836 61.1649 454.325 61.5472 455.804 61.9294C458.498 62.6264 461.182 64.073 461.795 65.1822C462.133 65.7968 462.471 66.4189 462.819 67.056C463.464 68.2327 461.678 68.6374 458.815 67.9254C457.241 67.5357 455.667 67.1384 454.082 66.7412C451.156 66.0142 448.356 64.4402 447.87 63.286C447.617 62.6639 447.363 62.0568 447.12 61.4497L447.131 61.4497Z" fill="white"/>
<path d="M429.147 56.8771C428.904 55.8203 431.091 55.5805 433.975 56.3225C435.539 56.7272 437.103 57.1245 438.656 57.5217C441.487 58.2487 444.118 59.7102 444.54 60.7895C444.773 61.3891 445.005 62.0037 445.248 62.6183C445.692 63.7725 443.621 64.1248 440.621 63.3753C438.973 62.9631 437.314 62.5508 435.645 62.1311C432.57 61.3666 429.823 59.7852 429.559 58.6534C429.422 58.0463 429.285 57.4542 429.147 56.8621L429.147 56.8771Z" fill="white"/>
<path d="M410.267 52.0658C410.257 51.039 412.729 50.8591 415.761 51.6386C417.398 52.0583 419.036 52.478 420.663 52.8977C423.632 53.6622 426.209 55.1238 426.421 56.1806C426.537 56.7652 426.653 57.3573 426.78 57.9644C427.002 59.0886 424.625 59.3884 421.455 58.6014C419.723 58.1667 417.98 57.732 416.215 57.2898C412.982 56.4804 410.299 54.8989 410.278 53.8046C410.278 53.22 410.257 52.6429 410.246 52.0658L410.267 52.0658Z" fill="white"/>
<path d="M390.418 47.014C390.651 46.0246 393.461 45.9122 396.641 46.7292C398.363 47.1714 400.085 47.6136 401.797 48.0558C404.913 48.8578 407.428 50.3268 407.417 51.3461C407.417 51.9157 407.396 52.4853 407.385 53.07C407.364 54.1567 404.649 54.3966 401.311 53.5646C399.483 53.1074 397.645 52.6502 395.796 52.1855C392.383 51.3311 389.784 49.7422 390.027 48.6854C390.154 48.1232 390.292 47.5611 390.418 47.014Z" fill="white"/>
<path d="M369.509 41.6924C370.016 40.748 373.186 40.703 376.535 41.565C378.352 42.0297 380.159 42.4943 381.955 42.959C385.23 43.7985 387.67 45.2675 387.406 46.2568C387.258 46.804 387.1 47.3586 386.952 47.9207C386.656 48.97 383.56 49.1424 380.042 48.2655C378.109 47.7858 376.165 47.2986 374.221 46.8115C370.619 45.9121 368.104 44.3231 368.653 43.3038C368.949 42.7642 369.235 42.2245 369.52 41.6999L369.509 41.6924Z" fill="white"/>
<path d="M347.475 36.0787C348.299 35.1868 351.848 35.2168 355.377 36.1237C357.289 36.6184 359.191 37.1056 361.082 37.5927C364.526 38.4772 366.893 39.9462 366.343 40.8906C366.037 41.4152 365.72 41.9399 365.414 42.4795C364.822 43.4838 361.314 43.5738 357.596 42.6519C355.557 42.1422 353.507 41.6326 351.436 41.1154C347.633 40.1635 345.224 38.5746 346.091 37.6077C346.555 37.0906 347.02 36.5884 347.475 36.0862L347.475 36.0787Z" fill="white"/>
<path d="M324.198 30.1501C325.349 29.3107 329.343 29.4306 333.061 30.3825C335.079 30.8996 337.087 31.4168 339.083 31.9264C342.718 32.8633 344.979 34.3323 344.123 35.2168C343.637 35.7114 343.151 36.2136 342.665 36.7232C341.735 37.6751 337.773 37.6826 333.833 36.7008C331.667 36.1611 329.501 35.614 327.314 35.0743C323.279 34.07 321.007 32.4811 322.243 31.5742C322.898 31.0945 323.553 30.6148 324.198 30.1501Z" fill="white"/>
<path d="M299.583 23.8843C301.115 23.1123 305.584 23.3222 309.514 24.334C311.648 24.8811 313.761 25.4283 315.874 25.9679C319.719 26.9572 321.864 28.4188 320.66 29.2507C319.984 29.7154 319.307 30.1876 318.61 30.6598C317.311 31.5517 312.831 31.4617 308.658 30.4199C306.366 29.8503 304.062 29.2732 301.749 28.6961C297.47 27.6243 295.325 26.0428 296.973 25.2034C297.861 24.7537 298.717 24.319 299.572 23.8843L299.583 23.8843Z" fill="white"/>
<path d="M273.522 17.2434C275.477 16.5464 280.463 16.8687 284.626 17.933C286.876 18.5101 289.126 19.0872 291.355 19.6643C295.412 20.7061 297.441 22.1677 295.856 22.9322C294.969 23.3594 294.071 23.7941 293.151 24.2363C291.429 25.0607 286.401 24.8584 281.963 23.7566C279.533 23.1495 277.082 22.5349 274.621 21.9203C270.078 20.7811 268.092 19.2071 270.205 18.4427C271.335 18.0379 272.445 17.6407 273.522 17.2434Z" fill="white"/>
<path d="M490.657 67.2205C489.822 66.2087 491.016 65.8939 493.298 66.4935C494.534 66.8233 495.76 67.1456 496.985 67.4679C499.225 68.06 501.792 69.3641 502.743 70.3834C503.261 70.9531 503.789 71.5227 504.328 72.1073C505.321 73.1866 504.254 73.5988 501.908 72.9917C500.63 72.6619 499.331 72.3246 498.042 71.9949C495.654 71.3803 492.96 69.9787 492.073 68.9144C491.597 68.3448 491.132 67.7752 490.668 67.213L490.657 67.2205Z" fill="white"/>
<path d="M475.927 63.3523C475.23 62.363 476.614 62.0782 478.98 62.7078C480.269 63.0525 481.547 63.3898 482.826 63.7271C485.15 64.3417 487.707 65.6533 488.52 66.6576C488.974 67.2123 489.429 67.7819 489.893 68.3515C490.749 69.4158 489.492 69.7905 487.041 69.161C485.699 68.8162 484.358 68.4639 483.005 68.1192C480.512 67.4746 477.85 66.073 477.1 65.0237C476.698 64.4616 476.307 63.907 475.916 63.3598L475.927 63.3523Z" fill="white"/>
<path d="M460.57 59.3284C460.02 58.3615 461.605 58.1217 464.077 58.7737C465.419 59.126 466.75 59.4783 468.081 59.8305C470.511 60.4751 473.026 61.7867 473.712 62.7761C474.093 63.3232 474.473 63.8779 474.853 64.44C475.572 65.4893 474.093 65.8191 471.536 65.1595C470.131 64.7997 468.726 64.4325 467.31 64.0652C464.711 63.3907 462.07 61.9816 461.489 60.9548C461.172 60.4077 460.866 59.8605 460.559 59.3209L460.57 59.3284Z" fill="white"/>
<path d="M444.522 55.1159C444.131 54.1716 445.948 53.9767 448.526 54.6587C449.931 55.026 451.315 55.4008 452.709 55.768C455.245 56.4351 457.728 57.7542 458.256 58.721C458.552 59.2532 458.848 59.8003 459.143 60.3475C459.703 61.3743 458.002 61.6666 455.319 60.977C453.85 60.5948 452.382 60.22 450.903 59.8378C448.177 59.1333 445.589 57.7167 445.166 56.7124C444.944 56.1727 444.722 55.6481 444.511 55.1234L444.522 55.1159Z" fill="white"/>
<path d="M427.734 50.7087C427.522 49.7943 429.572 49.6444 432.266 50.3565C433.735 50.7462 435.182 51.1285 436.64 51.5107C439.281 52.2077 441.722 53.5344 442.091 54.4787C442.292 55.0034 442.493 55.528 442.704 56.0677C443.084 57.0645 441.14 57.3118 438.341 56.5848C436.798 56.1876 435.256 55.7904 433.713 55.3931C430.861 54.6586 428.315 53.2346 428.093 52.2602C427.977 51.7355 427.85 51.2259 427.734 50.7162L427.734 50.7087Z" fill="white"/>
<path d="M410.167 46.1067C410.167 45.2223 412.459 45.1249 415.28 45.8744C416.812 46.2791 418.333 46.6838 419.855 47.0811C422.623 47.8156 425.021 49.1422 425.2 50.0491C425.306 50.5587 425.401 51.0684 425.507 51.5856C425.697 52.5524 423.478 52.7473 420.541 51.9903C418.925 51.5781 417.309 51.1583 415.682 50.7386C412.681 49.9666 410.209 48.5426 410.188 47.5982C410.188 47.096 410.167 46.5939 410.156 46.1067L410.167 46.1067Z" fill="white"/>
<path d="M391.758 41.2725C391.959 40.4256 394.547 40.3881 397.506 41.1676C399.111 41.5873 400.707 42.0145 402.291 42.4342C405.186 43.1987 407.521 44.5253 407.51 45.4097C407.51 45.8969 407.489 46.3916 407.479 46.8937C407.458 47.8306 404.943 47.9655 401.869 47.1711C400.179 46.7363 398.478 46.2941 396.777 45.8594C393.628 45.0425 391.22 43.6184 391.431 42.7115C391.547 42.2244 391.653 41.7447 391.769 41.2725L391.758 41.2725Z" fill="white"/>
<path d="M372.453 36.2135C372.887 35.404 375.792 35.434 378.887 36.251C380.567 36.6932 382.236 37.1354 383.906 37.5776C386.938 38.3796 389.22 39.7062 388.987 40.5531C388.861 41.0178 388.723 41.4975 388.596 41.9772C388.343 42.8766 385.511 42.9515 382.268 42.1121C380.493 41.6549 378.708 41.1902 376.912 40.7255C373.605 39.8711 371.27 38.447 371.724 37.5776C371.967 37.1129 372.21 36.6632 372.464 36.206L372.453 36.2135Z" fill="white"/>
<path d="M352.183 30.8918C352.881 30.1273 356.113 30.2248 359.357 31.0792C361.121 31.5439 362.875 32.0086 364.618 32.4658C367.798 33.3052 370.006 34.6318 369.541 35.4413C369.277 35.891 369.013 36.3407 368.738 36.7979C368.231 37.6523 365.051 37.6598 361.639 36.7754C359.769 36.2957 357.888 35.8085 355.997 35.3214C352.511 34.422 350.261 32.9979 351 32.181C351.391 31.7462 351.792 31.3115 352.173 30.8918L352.183 30.8918Z" fill="white"/>
<path d="M330.862 25.3008C331.845 24.5888 335.437 24.7612 338.849 25.6606C340.698 26.1478 342.536 26.635 344.374 27.1221C347.713 28.0065 349.836 29.3257 349.107 30.0902C348.695 30.5099 348.283 30.9371 347.861 31.3718C347.068 32.1813 343.508 32.1063 339.905 31.1769C337.93 30.6673 335.954 30.1576 333.957 29.6404C330.291 28.6886 328.136 27.272 329.182 26.5075C329.742 26.0953 330.302 25.6981 330.841 25.3008L330.862 25.3008Z" fill="white"/>
<path d="M308.41 19.4093C309.71 18.7573 313.703 19.0121 317.295 19.9565C319.239 20.4736 321.183 20.9833 323.106 21.4929C326.613 22.4223 328.652 23.7414 327.627 24.446C327.057 24.8357 326.476 25.2329 325.895 25.6377C324.796 26.3947 320.803 26.2298 317.01 25.2554C314.929 24.7158 312.837 24.1761 310.734 23.6365C306.857 22.6322 304.818 21.2231 306.213 20.5111C306.952 20.1363 307.692 19.7616 308.41 19.4018L308.41 19.4093Z" fill="white"/>
<path d="M284.75 13.204C286.399 12.6119 290.825 12.9641 294.607 13.961C296.657 14.5006 298.696 15.0402 300.724 15.5799C304.422 16.5542 306.355 17.8659 305.003 18.5179C304.253 18.8777 303.492 19.2449 302.721 19.6122C301.274 20.3017 296.815 20.0469 292.811 19.0201C290.614 18.4505 288.406 17.8808 286.177 17.3112C282.078 16.2544 280.176 14.8454 281.94 14.2083C282.88 13.871 283.81 13.5337 284.729 13.204L284.75 13.204Z" fill="white"/>
<path d="M485.745 61.2915C485.006 60.3996 486.178 60.1597 488.344 60.7443C489.517 61.0591 490.679 61.3739 491.841 61.6887C493.965 62.2658 496.363 63.4575 497.197 64.3719C497.662 64.8741 498.127 65.3838 498.602 65.8934C499.479 66.8528 498.412 67.1601 496.194 66.5755C494.979 66.2532 493.753 65.9309 492.538 65.6086C490.288 65.009 487.784 63.7349 487.002 62.7905C486.58 62.2883 486.168 61.7861 485.756 61.2915L485.745 61.2915Z" fill="white"/>
<path d="M471.82 57.5444C471.208 56.6675 472.549 56.4651 474.789 57.0722C476.004 57.402 477.219 57.7318 478.423 58.0541C480.631 58.6537 482.998 59.8529 483.727 60.7448C484.128 61.2395 484.53 61.7341 484.942 62.2363C485.702 63.1732 484.456 63.458 482.153 62.8434C480.885 62.5061 479.617 62.1688 478.339 61.8316C475.993 61.2095 473.511 59.9278 472.856 59.0059C472.507 58.5113 472.158 58.0241 471.82 57.5369L471.82 57.5444Z" fill="white"/>
<path d="M457.336 53.6467C456.85 52.7922 458.382 52.6273 460.706 53.2644C461.974 53.6092 463.231 53.9465 464.488 54.2912C466.781 54.9133 469.126 56.12 469.729 56.9894C470.056 57.4691 470.394 57.9563 470.732 58.451C471.366 59.3654 469.929 59.6127 467.531 58.9756C466.211 58.6234 464.89 58.2711 463.559 57.9188C461.108 57.2668 458.667 55.9851 458.15 55.0857C457.875 54.606 457.6 54.1263 457.336 53.6542L457.336 53.6467Z" fill="white"/>
<path d="M442.238 49.5847C441.9 48.7528 443.622 48.6328 446.052 49.2849C447.372 49.6447 448.682 49.9969 449.992 50.3492C452.38 50.9938 454.694 52.2005 455.158 53.0549C455.412 53.5271 455.676 53.9993 455.94 54.4789C456.426 55.3783 454.799 55.5807 452.285 54.9136C450.911 54.5464 449.527 54.1791 448.143 53.8119C445.587 53.1298 443.178 51.8407 442.819 50.9713C442.629 50.4991 442.438 50.0344 442.248 49.5772L442.238 49.5847Z" fill="white"/>
<path d="M426.508 45.3501C426.328 44.5481 428.251 44.4656 430.786 45.1552C432.16 45.5299 433.523 45.8972 434.886 46.2644C437.368 46.939 439.65 48.1457 439.967 48.9701C440.147 49.4273 440.326 49.892 440.506 50.3567C440.844 51.2261 438.995 51.391 436.375 50.694C434.938 50.3118 433.491 49.9295 432.044 49.5473C429.371 48.8352 427.015 47.5461 426.814 46.6992C426.708 46.242 426.603 45.7923 426.508 45.3501Z" fill="white"/>
<path d="M410.078 40.9354C410.068 40.1634 412.223 40.1334 414.864 40.8455C416.301 41.2352 417.727 41.6174 419.143 42.0072C421.731 42.7117 423.971 43.9184 424.129 44.7204C424.214 45.1626 424.309 45.6123 424.393 46.062C424.562 46.9014 422.481 47.0213 419.734 46.2943C418.234 45.8971 416.723 45.4924 415.213 45.0951C412.424 44.3531 410.11 43.064 410.099 42.2395C410.099 41.8048 410.078 41.3701 410.078 40.9429L410.078 40.9354Z" fill="white"/>
<path d="M392.93 36.3189C393.11 35.5769 395.508 35.5994 398.266 36.3489C399.755 36.7536 401.245 37.1584 402.735 37.5556C405.439 38.2901 407.626 39.4968 407.615 40.2688C407.615 40.696 407.605 41.1232 407.594 41.5579C407.573 42.3674 405.238 42.4348 402.375 41.6703C400.801 41.2506 399.227 40.8309 397.642 40.4112C394.726 39.6317 392.466 38.3426 392.656 37.5631C392.751 37.1434 392.856 36.7311 392.952 36.3189L392.93 36.3189Z" fill="white"/>
<path d="M374.996 31.4916C375.376 30.7946 378.049 30.8695 380.923 31.649C382.486 32.0687 384.039 32.4959 385.592 32.9157C388.413 33.6801 390.547 34.8868 390.346 35.6214C390.23 36.0261 390.124 36.4383 390.008 36.858C389.786 37.6375 387.177 37.6375 384.177 36.843C382.528 36.4083 380.88 35.9661 379.211 35.5239C376.147 34.707 373.971 33.4178 374.362 32.6758C374.584 32.2786 374.784 31.8813 374.996 31.4916Z" fill="white"/>
<path d="M356.222 26.4474C356.824 25.7878 359.782 25.9303 362.793 26.7472C364.43 27.1894 366.057 27.6316 367.674 28.0663C370.621 28.8683 372.692 30.075 372.291 30.772C372.069 31.1543 371.836 31.5515 371.604 31.9412C371.171 32.6833 368.255 32.6158 365.106 31.7839C363.384 31.3267 361.641 30.8695 359.909 30.4048C356.697 29.5503 354.584 28.2612 355.218 27.5642C355.556 27.1894 355.894 26.8147 356.232 26.4474L356.222 26.4474Z" fill="white"/>
<path d="M336.545 21.1558C337.39 20.5412 340.655 20.7511 343.814 21.6055C345.525 22.0702 347.226 22.5274 348.917 22.9846C352.002 23.824 354.009 25.0232 353.375 25.6828C353.026 26.0425 352.667 26.4098 352.308 26.7845C351.632 27.4816 348.388 27.3467 345.082 26.4698C343.275 25.9901 341.447 25.5029 339.62 25.0232C336.249 24.1313 334.221 22.8422 335.119 22.1901C335.605 21.8378 336.08 21.5006 336.545 21.1558Z" fill="white"/>
<path d="M315.926 15.6021C317.035 15.04 320.649 15.3248 323.955 16.2242C325.751 16.7114 327.526 17.1911 329.301 17.6707C332.534 18.5477 334.457 19.7469 333.58 20.354C333.094 20.6912 332.587 21.0285 332.09 21.3808C331.15 22.0253 327.547 21.823 324.082 20.9011C322.18 20.3989 320.268 19.8893 318.345 19.3796C314.796 18.4352 312.873 17.1611 314.056 16.5615C314.69 16.2392 315.313 15.9244 315.937 15.6096L315.926 15.6021Z" fill="white"/>
<path d="M294.253 9.77858C295.659 9.27641 299.631 9.64367 303.107 10.5805C304.987 11.0902 306.857 11.5999 308.717 12.102C312.108 13.0239 313.946 14.2081 312.795 14.7703C312.15 15.0775 311.506 15.3923 310.851 15.7071C309.625 16.2992 305.632 16.0069 301.976 15.0401C299.969 14.5079 297.962 13.9758 295.933 13.4361C292.204 12.4468 290.376 11.1801 291.876 10.633C292.679 10.3407 293.472 10.0559 294.253 9.77858Z" fill="white"/>
<path d="M481.383 56.0304C480.728 55.2359 481.88 55.0636 483.929 55.6257C485.039 55.933 486.148 56.2403 487.257 56.5476C489.275 57.1022 491.515 58.2115 492.265 59.0209C492.677 59.4706 493.099 59.9203 493.512 60.3775C494.293 61.2245 493.237 61.4643 491.124 60.8947C489.972 60.5799 488.81 60.2651 487.648 59.9503C485.503 59.3657 483.179 58.1965 482.482 57.3645C482.112 56.9148 481.742 56.4726 481.383 56.0304Z" fill="white"/>
<path d="M468.184 52.4026C467.635 51.6232 468.945 51.4883 471.068 52.0729C472.22 52.3952 473.371 52.7099 474.523 53.0247C476.615 53.6018 478.833 54.7111 479.478 55.5056C479.837 55.9478 480.196 56.39 480.555 56.8322C481.231 57.6641 480.016 57.874 477.83 57.2819C476.636 56.9596 475.431 56.6298 474.216 56.3001C471.998 55.693 469.684 54.5237 469.103 53.7068C468.797 53.2646 468.49 52.8374 468.184 52.4026Z" fill="white"/>
<path d="M454.482 48.64C454.049 47.883 455.517 47.7781 457.725 48.3852C458.919 48.715 460.113 49.0447 461.307 49.3745C463.473 49.9741 465.67 51.0834 466.198 51.8554C466.494 52.2826 466.79 52.7173 467.096 53.152C467.656 53.9615 466.272 54.1414 464.001 53.5193C462.754 53.182 461.508 52.8372 460.25 52.4999C457.937 51.8704 455.665 50.6936 455.211 49.8992C454.968 49.472 454.725 49.0522 454.493 48.6325L454.482 48.64Z" fill="white"/>
<path d="M440.23 44.7201C439.934 43.9856 441.572 43.9181 443.864 44.5552C445.111 44.9 446.347 45.2448 447.583 45.582C449.833 46.2041 451.999 47.3209 452.411 48.0704C452.633 48.4901 452.865 48.9098 453.098 49.3295C453.531 50.124 451.967 50.2589 449.601 49.6143C448.301 49.2621 447.002 48.9098 445.692 48.5501C443.283 47.898 441.043 46.7138 440.716 45.9418C440.547 45.5296 440.378 45.1173 440.209 44.7126L440.23 44.7201Z" fill="white"/>
<path d="M425.42 40.6504C425.261 39.9458 427.089 39.9158 429.466 40.5754C430.755 40.9352 432.044 41.2874 433.333 41.6472C435.678 42.2993 437.802 43.4085 438.087 44.1355C438.245 44.5403 438.404 44.945 438.562 45.3572C438.858 46.1217 437.104 46.2191 434.643 45.5521C433.29 45.1848 431.938 44.8176 430.575 44.4503C428.071 43.7683 425.863 42.5841 425.694 41.8421C425.599 41.4448 425.515 41.0476 425.42 40.6578L425.42 40.6504Z" fill="white"/>
<path d="M410.007 36.4156C410.007 35.7335 412.025 35.756 414.507 36.4381C415.849 36.8128 417.191 37.1801 418.522 37.5473C420.962 38.2219 423.054 39.3312 423.191 40.0357C423.265 40.4254 423.35 40.8227 423.424 41.2199C423.572 41.9619 421.607 42.0144 419.04 41.3173C417.634 40.9351 416.219 40.5528 414.803 40.1631C412.194 39.4511 410.028 38.2744 410.017 37.5548C410.017 37.1726 410.007 36.7903 409.996 36.4156L410.007 36.4156Z" fill="white"/>
<path d="M393.939 32.0014C394.098 31.3568 396.338 31.4168 398.915 32.1363C400.31 32.526 401.715 32.9083 403.099 33.2905C405.635 33.995 407.684 35.1043 407.674 35.7789C407.674 36.1536 407.663 36.5284 407.652 36.9106C407.642 37.6226 405.455 37.6226 402.771 36.8956C401.303 36.4984 399.834 36.0936 398.345 35.6964C395.619 34.9544 393.506 33.7777 393.665 33.0882C393.749 32.7209 393.834 32.3611 393.918 32.0014L393.939 32.0014Z" fill="white"/>
<path d="M377.19 27.3992C377.517 26.7846 380 26.9046 382.683 27.6466C384.141 28.0513 385.599 28.4485 387.047 28.8533C389.688 29.5878 391.695 30.697 391.515 31.3341C391.42 31.6939 391.315 32.0536 391.22 32.4134C391.029 33.0954 388.6 33.043 385.81 32.286C384.279 31.8663 382.736 31.454 381.194 31.0343C378.341 30.2623 376.292 29.0781 376.64 28.4335C376.83 28.0813 377.01 27.744 377.2 27.3992L377.19 27.3992Z" fill="white"/>
<path d="M359.717 22.5952C360.245 22.0181 362.971 22.1979 365.771 22.9699C367.292 23.3896 368.803 23.8094 370.314 24.2291C373.071 24.9936 375.015 26.0953 374.666 26.7024C374.465 27.0397 374.265 27.3845 374.064 27.7293C373.684 28.3738 371 28.2614 368.074 27.4669C366.468 27.0322 364.862 26.5975 363.246 26.1553C360.266 25.3458 358.28 24.1691 358.83 23.562C359.125 23.2322 359.421 22.91 359.706 22.5952L359.717 22.5952Z" fill="white"/>
<path d="M341.469 17.5734C342.209 17.0413 345.199 17.2811 348.125 18.0831C349.71 18.5253 351.295 18.96 352.869 19.3947C355.742 20.1892 357.634 21.291 357.084 21.8606C356.778 22.1754 356.471 22.4977 356.155 22.8199C355.563 23.4195 352.594 23.2547 349.541 22.4227C347.861 21.9655 346.181 21.5083 344.491 21.0511C341.374 20.2042 339.462 19.035 340.233 18.4653C340.645 18.1655 341.057 17.8657 341.469 17.5659L341.469 17.5734Z" fill="white"/>
<path d="M322.391 12.3343C323.353 11.8471 326.649 12.1544 329.702 12.9939C331.361 13.4511 333.009 13.9083 334.657 14.3655C337.658 15.1974 339.485 16.2917 338.714 16.8163C338.291 17.1086 337.858 17.4084 337.425 17.7007C336.612 18.2629 333.337 18.023 330.135 17.1536C328.382 16.6739 326.617 16.1942 324.842 15.7146C321.578 14.8301 319.74 13.6684 320.764 13.1438C321.314 12.8665 321.853 12.5966 322.391 12.3193L322.391 12.3343Z" fill="white"/>
<path d="M302.417 6.84068C303.632 6.40597 307.235 6.78072 310.436 7.66513C312.168 8.14481 313.901 8.62449 315.623 9.09668C318.761 9.9661 320.504 11.0529 319.511 11.5326C318.962 11.8024 318.402 12.0722 317.831 12.342C316.775 12.8517 313.161 12.5369 309.802 11.63C307.964 11.1278 306.115 10.6257 304.255 10.1235C300.832 9.19411 299.089 8.03988 300.378 7.57519C301.065 7.32786 301.751 7.08052 302.428 6.84068L302.417 6.84068Z" fill="white"/>
<path d="M477.493 51.3389C476.902 50.6269 478.032 50.507 479.987 51.0541C481.043 51.3539 482.11 51.6462 483.156 51.946C485.079 52.4856 487.181 53.5125 487.857 54.2395C488.227 54.6442 488.597 55.0489 488.977 55.4537C489.674 56.2182 488.629 56.3905 486.632 55.8359C485.533 55.5286 484.434 55.2288 483.336 54.9215C481.297 54.3594 479.12 53.2726 478.497 52.5306C478.169 52.1259 477.842 51.7286 477.504 51.3389L477.493 51.3389Z" fill="white"/>
<path d="M464.94 47.8231C464.443 47.1335 465.711 47.0361 467.74 47.6057C468.838 47.913 469.926 48.2203 471.025 48.5276C473.011 49.0897 475.103 50.1166 475.674 50.8286C475.991 51.2183 476.318 51.6156 476.635 52.0203C477.237 52.7623 476.054 52.9122 473.973 52.3351C472.832 52.0203 471.691 51.7055 470.55 51.3832C468.447 50.7986 466.282 49.7118 465.764 48.9848C465.489 48.5951 465.215 48.2053 464.94 47.8231Z" fill="white"/>
<path d="M451.937 44.1806C451.557 43.5061 452.962 43.4536 455.064 44.0382C456.205 44.3605 457.336 44.6753 458.466 44.9976C460.526 45.5822 462.586 46.609 463.062 47.2985C463.326 47.6808 463.59 48.063 463.865 48.4528C464.361 49.1798 463.03 49.2922 460.875 48.7001C459.692 48.3703 458.508 48.048 457.325 47.7183C455.138 47.1112 453.004 46.0244 452.592 45.3199C452.381 44.9376 452.159 44.5629 451.948 44.1881L451.937 44.1806Z" fill="white"/>
<path d="M438.455 40.4109C438.191 39.7588 439.754 39.7363 441.92 40.3434C443.103 40.6732 444.276 41.003 445.449 41.3328C447.583 41.9324 449.622 42.9667 449.992 43.6337C450.192 44.0085 450.404 44.3832 450.604 44.758C450.985 45.4625 449.495 45.545 447.255 44.9229C446.03 44.5856 444.804 44.2408 443.568 43.8961C441.297 43.2665 439.194 42.1797 438.909 41.4902C438.761 41.1229 438.603 40.7556 438.455 40.3959L438.455 40.4109Z" fill="white"/>
<path d="M424.469 36.4907C424.331 35.8611 426.064 35.8761 428.314 36.5132C429.54 36.858 430.755 37.2027 431.97 37.54C434.188 38.1621 436.185 39.1964 436.438 39.841C436.576 40.2007 436.724 40.5605 436.861 40.9278C437.125 41.6098 435.456 41.6473 433.132 41.0102C431.853 40.6579 430.586 40.3057 429.297 39.9459C426.93 39.2938 424.87 38.1996 424.712 37.54C424.627 37.1877 424.553 36.8355 424.469 36.4832L424.469 36.4907Z" fill="white"/>
<path d="M409.932 32.4209C409.932 31.8213 411.834 31.8737 414.169 32.5333C415.437 32.8931 416.704 33.2453 417.962 33.5976C420.265 34.2422 422.23 35.2765 422.357 35.8986C422.431 36.2433 422.494 36.5956 422.568 36.9479C422.695 37.6074 420.846 37.6074 418.427 36.9404C417.106 36.5731 415.775 36.2058 414.444 35.8386C411.993 35.1565 409.964 34.0698 409.943 33.4402C409.943 33.1029 409.932 32.7656 409.922 32.4284L409.932 32.4209Z" fill="white"/>
<path d="M394.831 28.1938C394.969 27.6241 397.071 27.7216 399.501 28.4036C400.821 28.7784 402.131 29.1456 403.441 29.5129C405.829 30.1874 407.762 31.2143 407.752 31.8064C407.752 32.1361 407.741 32.4734 407.731 32.8107C407.72 33.4403 405.671 33.3953 403.156 32.6983C401.783 32.316 400.399 31.9338 399.004 31.5515C396.448 30.8395 394.461 29.7602 394.609 29.1531C394.683 28.8308 394.757 28.5086 394.831 28.1938Z" fill="white"/>
<path d="M379.122 23.7941C379.418 23.2544 381.721 23.4043 384.246 24.1089C385.62 24.4911 386.982 24.8809 388.335 25.2631C390.817 25.9601 392.709 26.987 392.55 27.5566C392.466 27.8714 392.37 28.1862 392.286 28.5084C392.117 29.108 389.856 29.0181 387.236 28.2911C385.799 27.8939 384.362 27.4966 382.915 27.0919C380.253 26.3499 378.319 25.2706 378.626 24.701C378.795 24.3937 378.953 24.0939 379.112 23.7941L379.122 23.7941Z" fill="white"/>
<path d="M362.778 19.2221C363.242 18.72 365.767 18.9148 368.387 19.6569C369.814 20.0541 371.229 20.4588 372.645 20.8561C375.223 21.5831 377.072 22.6024 376.755 23.142C376.575 23.4418 376.406 23.7416 376.226 24.0414C375.888 24.6036 373.406 24.4612 370.669 23.7042C369.169 23.2919 367.669 22.8722 366.169 22.4525C363.39 21.6805 361.52 20.6087 361.996 20.0691C362.26 19.7843 362.513 19.4995 362.767 19.2146L362.778 19.2221Z" fill="white"/>
<path d="M345.758 14.4558C346.402 13.9912 349.17 14.246 351.896 15.0105C353.375 15.4302 354.854 15.8424 356.333 16.2547C359.017 17.0116 360.813 18.0235 360.327 18.5256C360.063 18.803 359.788 19.0878 359.513 19.3651C358.996 19.8897 356.259 19.6949 353.417 18.9079C351.854 18.4732 350.29 18.046 348.716 17.6038C345.821 16.8018 344.004 15.73 344.68 15.2353C345.04 14.9655 345.409 14.7107 345.758 14.4484L345.758 14.4558Z" fill="white"/>
<path d="M328.008 9.47866C328.854 9.05144 331.865 9.36623 334.717 10.1682C336.26 10.6029 337.802 11.0376 339.334 11.4648C342.134 12.2518 343.866 13.2636 343.19 13.7283C342.82 13.9832 342.44 14.2455 342.06 14.5078C341.341 14.995 338.341 14.7327 335.372 13.9157C333.745 13.466 332.108 13.0088 330.47 12.5591C327.448 11.7197 325.695 10.6554 326.582 10.2057C327.058 9.96583 327.533 9.72599 327.998 9.48615L328.008 9.47866Z" fill="white"/>
<path d="M309.493 4.29228C310.55 3.91004 313.846 4.29229 316.814 5.13173C318.42 5.58892 320.026 6.03862 321.632 6.48832C324.548 7.31278 326.217 8.30961 325.351 8.73683C324.865 8.96917 324.379 9.20152 323.882 9.44136C322.963 9.88356 319.667 9.55378 316.561 8.69935C314.86 8.22716 313.148 7.75498 311.437 7.2753C308.278 6.39838 306.609 5.34159 307.718 4.93686C308.31 4.7195 308.912 4.50214 309.493 4.29978L309.493 4.29228Z" fill="white"/>
<path d="M473.996 47.1259C473.468 46.4813 474.566 46.4064 476.426 46.9385C477.44 47.2308 478.444 47.5156 479.458 47.8004C481.296 48.3251 483.282 49.2844 483.885 49.9365C484.223 50.2963 484.55 50.6635 484.899 51.0308C485.533 51.7128 484.497 51.8402 482.585 51.3081C481.539 51.0158 480.493 50.716 479.437 50.4237C477.503 49.8765 475.443 48.8722 474.883 48.1977C474.588 47.8379 474.292 47.4781 473.996 47.1259Z" fill="white"/>
<path d="M462.048 43.7235C461.604 43.1014 462.83 43.049 464.763 43.5961C465.809 43.8959 466.855 44.1957 467.89 44.488C469.792 45.0351 471.757 45.987 472.275 46.6241C472.56 46.9763 472.845 47.3361 473.141 47.6959C473.68 48.3629 472.528 48.4678 470.542 47.9057C469.464 47.5984 468.376 47.2911 467.288 46.9838C465.281 46.4217 463.252 45.4099 462.787 44.7578C462.534 44.4056 462.291 44.0608 462.048 43.716L462.048 43.7235Z" fill="white"/>
<path d="M449.673 40.2008C449.335 39.5937 450.687 39.5787 452.684 40.1483C453.761 40.4556 454.839 40.7629 455.917 41.0702C457.882 41.6323 459.826 42.5917 460.248 43.2138C460.481 43.5585 460.724 43.9033 460.967 44.2556C461.41 44.9076 460.121 44.9751 458.072 44.398C456.952 44.0832 455.822 43.7609 454.691 43.4461C452.62 42.8615 450.603 41.8497 450.243 41.2201C450.043 40.8828 449.852 40.5381 449.662 40.2083L449.673 40.2008Z" fill="white"/>
<path d="M436.87 36.5585C436.627 35.9739 438.127 35.9889 440.187 36.5735C441.307 36.8958 442.427 37.2106 443.536 37.5329C445.564 38.1175 447.477 39.0694 447.815 39.6765C447.994 40.0062 448.184 40.3435 448.364 40.6808C448.713 41.3104 447.276 41.3479 445.152 40.7482C443.99 40.4185 442.828 40.0887 441.655 39.7589C439.5 39.1518 437.525 38.14 437.271 37.5329C437.134 37.2031 436.996 36.8808 436.87 36.5585Z" fill="white"/>
<path d="M423.616 32.7881C423.489 32.226 425.138 32.271 427.272 32.8856C428.434 33.2154 429.585 33.5451 430.737 33.8749C432.839 34.4745 434.73 35.4339 434.952 36.0185C435.079 36.3408 435.206 36.6631 435.333 36.9928C435.565 37.5999 433.97 37.5999 431.772 36.9854C430.568 36.6481 429.353 36.3033 428.149 35.966C425.919 35.3365 423.965 34.3246 423.828 33.74C423.754 33.4252 423.68 33.1104 423.616 32.8031L423.616 32.7881Z" fill="white"/>
<path d="M409.875 28.8758C409.875 28.3362 411.671 28.4261 413.89 29.0557C415.083 29.4005 416.288 29.7377 417.482 30.0825C419.658 30.7046 421.517 31.664 421.634 32.2186C421.697 32.5259 421.76 32.8407 421.824 33.1555C421.94 33.7401 420.186 33.7026 417.904 33.058C416.658 32.7058 415.4 32.3535 414.143 31.9937C411.829 31.3417 409.917 30.3374 409.907 29.7677C409.907 29.4604 409.907 29.1681 409.896 28.8683L409.875 28.8758Z" fill="white"/>
<path d="M395.626 24.8212C395.753 24.3115 397.728 24.4389 400.021 25.091C401.268 25.4432 402.504 25.803 403.74 26.1553C406.001 26.7998 407.828 27.7517 407.818 28.2839C407.818 28.5762 407.818 28.876 407.807 29.1758C407.797 29.7379 405.863 29.6554 403.497 28.9884C402.197 28.6211 400.898 28.2539 399.588 27.8866C397.179 27.2046 395.309 26.2002 395.436 25.6681C395.499 25.3833 395.573 25.091 395.637 24.8137L395.626 24.8212Z" fill="white"/>
<path d="M380.847 20.6086C381.111 20.1289 383.267 20.3013 385.644 20.9759C386.932 21.3431 388.221 21.7104 389.5 22.0776C391.835 22.7447 393.631 23.6966 393.493 24.2062C393.419 24.4835 393.335 24.7684 393.261 25.0532C393.113 25.5853 390.989 25.4579 388.528 24.7684C387.175 24.3861 385.834 24.0114 384.471 23.6216C381.967 22.9171 380.139 21.9128 380.414 21.4106C380.562 21.1408 380.71 20.871 380.847 20.6011L380.847 20.6086Z" fill="white"/>
<path d="M365.486 16.2394C365.898 15.7897 368.254 16.007 370.715 16.7115C372.057 17.0938 373.388 17.476 374.719 17.8583C377.149 18.5478 378.893 19.4997 378.618 19.9794C378.459 20.2417 378.312 20.5115 378.142 20.7813C377.847 21.2835 375.522 21.1111 372.966 20.3916C371.561 19.9944 370.156 19.5971 368.75 19.1999C366.151 18.4654 364.366 17.4685 364.799 16.9964C365.032 16.7415 365.264 16.4942 365.486 16.2469L365.486 16.2394Z" fill="white"/>
<path d="M349.531 11.705C350.101 11.2928 352.669 11.5626 355.225 12.2896C356.62 12.6868 358.004 13.0841 359.377 13.4813C361.892 14.2008 363.603 15.1452 363.17 15.5874C362.927 15.8347 362.684 16.0821 362.441 16.3294C361.987 16.7941 359.451 16.5768 356.789 15.8273C355.331 15.415 353.873 15.0028 352.405 14.5906C349.7 13.8261 347.978 12.8367 348.57 12.402C348.886 12.1697 349.214 11.9373 349.52 11.705L349.531 11.705Z" fill="white"/>
<path d="M332.942 6.98312C333.682 6.60837 336.471 6.93066 339.133 7.69515C340.581 8.10738 342.017 8.5196 343.454 8.93183C346.074 9.68133 347.722 10.6182 347.131 11.0229C346.803 11.2478 346.465 11.4801 346.138 11.7125C345.514 12.1397 342.736 11.8699 339.968 11.0829C338.447 10.6557 336.925 10.221 335.393 9.79375C332.573 8.99928 330.914 8.01744 331.685 7.6202C332.108 7.41034 332.52 7.20048 332.932 6.99062L332.942 6.98312Z" fill="white"/>
<path d="M315.681 2.06622C316.61 1.72894 319.632 2.11119 322.41 2.90566C323.911 3.33288 325.411 3.76009 326.9 4.18731C329.626 4.96679 331.221 5.89617 330.45 6.26343C330.027 6.46579 329.594 6.67565 329.161 6.88551C328.348 7.27525 325.326 6.93798 322.442 6.12852C320.857 5.67882 319.273 5.23661 317.677 4.78691C314.74 3.95496 313.145 2.98061 314.117 2.62835C314.645 2.44097 315.163 2.2461 315.681 2.06622Z" fill="white"/>
<path d="M470.843 43.3186C470.357 42.734 471.435 42.6965 473.22 43.2062C474.192 43.491 475.154 43.7683 476.115 44.0456C477.869 44.5553 479.749 45.4547 480.299 46.0468C480.605 46.3766 480.901 46.7063 481.218 47.0436C481.788 47.6657 480.774 47.7481 478.946 47.231C477.943 46.9462 476.95 46.6539 475.935 46.3691C474.087 45.8369 472.143 44.9 471.646 44.2929C471.372 43.9632 471.107 43.6409 470.843 43.3186Z" fill="white"/>
<path d="M459.43 40.0206C459.039 39.4585 460.223 39.436 462.061 39.9682C463.064 40.2605 464.058 40.5453 465.051 40.8376C466.868 41.3622 468.717 42.2616 469.192 42.8387C469.446 43.161 469.71 43.4833 469.974 43.8056C470.46 44.4127 469.329 44.4727 467.449 43.933C466.413 43.6407 465.378 43.3409 464.343 43.0411C462.431 42.494 460.508 41.5496 460.096 40.965C459.874 40.6502 459.652 40.3354 459.43 40.0206Z" fill="white"/>
<path d="M447.627 36.6183C447.32 36.0711 448.63 36.0861 450.521 36.6333C451.557 36.9331 452.581 37.2329 453.606 37.5252C455.476 38.0723 457.314 38.9642 457.705 39.5263C457.917 39.8336 458.138 40.1484 458.35 40.4632C458.751 41.0478 457.505 41.0778 455.55 40.5232C454.483 40.2159 453.405 39.9086 452.338 39.6013C450.363 39.0317 448.472 38.0948 448.144 37.5252C447.965 37.2179 447.796 36.9106 447.627 36.6108L447.627 36.6183Z" fill="white"/>
<path d="M435.442 33.0955C435.231 32.5708 436.668 32.6083 438.623 33.1779C439.69 33.4852 440.757 33.7925 441.813 34.0998C443.746 34.6619 445.564 35.5538 445.859 36.101C446.028 36.4008 446.197 36.7006 446.356 37.0079C446.662 37.5775 445.289 37.5775 443.271 37.0004C442.172 36.6856 441.052 36.3708 439.943 36.0485C437.894 35.4639 436.034 34.527 435.802 33.9724C435.675 33.6726 435.559 33.3803 435.442 33.088L435.442 33.0955Z" fill="white"/>
<path d="M422.846 29.4604C422.73 28.9583 424.304 29.0332 426.332 29.6178C427.431 29.9401 428.53 30.2549 429.628 30.5697C431.625 31.1468 433.421 32.0462 433.622 32.5709C433.738 32.8632 433.844 33.1555 433.96 33.4478C434.171 33.9949 432.65 33.9649 430.569 33.3653C429.428 33.0356 428.276 32.7133 427.135 32.3835C425.022 31.7764 423.173 30.8395 423.057 30.3149C422.994 30.0301 422.93 29.7453 422.867 29.4679L422.846 29.4604Z" fill="white"/>
<path d="M409.824 25.6981C409.824 25.2184 411.536 25.3234 413.628 25.9305C414.769 26.2602 415.899 26.59 417.029 26.9198C419.1 27.5194 420.854 28.4113 420.959 28.9135C421.012 29.1908 421.076 29.4681 421.129 29.7529C421.234 30.2776 419.565 30.2101 417.399 29.5955C416.216 29.2582 415.033 28.921 413.839 28.5762C411.652 27.9466 409.835 27.0097 409.835 26.5076C409.835 26.2378 409.835 25.9679 409.824 25.6981Z" fill="white"/>
<path d="M396.331 21.808C396.436 21.3508 398.306 21.5007 400.472 22.1302C401.655 22.475 402.828 22.8123 404.001 23.1496C406.135 23.7716 407.867 24.6561 407.867 25.1357C407.867 25.3981 407.867 25.6679 407.857 25.9377C407.857 26.4399 406.019 26.3349 403.779 25.6904C402.553 25.3381 401.328 24.9858 400.092 24.6336C397.82 23.9815 396.045 23.0521 396.162 22.5724C396.225 22.3176 396.278 22.0628 396.341 21.808L396.331 21.808Z" fill="white"/>
<path d="M382.367 17.7758C382.599 17.3486 384.628 17.536 386.878 18.1881C388.093 18.5403 389.308 18.8926 390.523 19.2449C392.741 19.8819 394.432 20.7738 394.305 21.2235C394.242 21.4709 394.168 21.7257 394.094 21.9805C393.967 22.4527 391.97 22.3103 389.646 21.6433C388.378 21.276 387.1 20.9163 385.821 20.549C383.466 19.8744 381.733 18.9451 381.976 18.4954C382.103 18.2555 382.229 18.0157 382.367 17.7758Z" fill="white"/>
<path d="M367.893 13.5937C368.262 13.189 370.46 13.4213 372.784 14.0959C374.052 14.4631 375.309 14.8304 376.566 15.1901C378.859 15.8572 380.517 16.7341 380.274 17.1613C380.137 17.4012 380 17.6335 379.852 17.8733C379.588 18.3156 377.411 18.1282 375.013 17.4386C373.693 17.0639 372.372 16.6816 371.041 16.2994C368.6 15.5949 366.899 14.673 367.28 14.2533C367.48 14.0284 367.692 13.8036 367.893 13.5787L367.893 13.5937Z" fill="white"/>
<path d="M352.877 9.2612C353.385 8.89395 355.772 9.17126 358.191 9.8683C359.502 10.2505 360.801 10.6253 362.111 11C364.488 11.6896 366.104 12.5665 365.724 12.9637C365.513 13.1811 365.302 13.4059 365.08 13.6233C364.678 14.0355 362.312 13.8032 359.808 13.0912C358.445 12.7014 357.061 12.3042 355.688 11.9069C353.152 11.1799 351.504 10.258 352.032 9.87579C352.317 9.66593 352.603 9.46357 352.877 9.25371L352.877 9.2612Z" fill="white"/>
<path d="M337.307 4.76448C337.973 4.4347 340.551 4.76448 343.055 5.484C344.407 5.88123 345.759 6.27097 347.111 6.66071C349.573 7.37274 351.147 8.24966 350.619 8.60942C350.323 8.81178 350.027 9.01415 349.732 9.21651C349.172 9.59876 346.604 9.31395 344.005 8.57194C342.579 8.16721 341.153 7.75498 339.727 7.34276C337.086 6.58576 335.501 5.67137 336.188 5.31911C336.557 5.13173 336.927 4.94436 337.297 4.75698L337.307 4.76448Z" fill="white"/>
<path d="M321.15 0.102461C321.974 -0.197339 324.773 0.184907 327.362 0.934408C328.767 1.34663 330.172 1.75136 331.577 2.1561C334.134 2.8981 335.655 3.76003 334.979 4.08981C334.599 4.26969 334.218 4.45706 333.838 4.64444C333.12 4.98921 330.33 4.64444 327.626 3.87995C326.147 3.45273 324.668 3.03301 323.178 2.60579C320.431 1.81882 318.899 0.911922 319.766 0.604626C320.23 0.439736 320.695 0.267351 321.15 0.109956L321.15 0.102461Z" fill="white"/>
</g>
</svg>
