<svg width="475" height="134" viewBox="0 0 475 134" fill="none" xmlns="http://www.w3.org/2000/svg">
<g opacity="0.02">
<path d="M22.7235 23.91C23.78 27.2061 19.8816 29.3162 14.1766 28.75C11.1023 28.4455 8.04904 28.141 5.02752 27.8418C-0.445032 27.2969 -6.23455 24.3266 -7.99886 21.1C-8.99195 19.2729 -10.0167 17.3925 -11.0626 15.4586C-13.0594 11.7725 -9.80542 8.98923 -3.62503 9.44331C-0.21261 9.69974 3.24206 9.95082 6.72843 10.2126C13.2046 10.6934 19.628 14.3528 20.8535 18.135C21.4874 20.117 22.1107 22.0402 22.7129 23.91H22.7235Z" fill="white"/>
<path d="M62.3762 27.5426C62.4501 30.9188 57.2839 33.029 50.9768 32.4039C47.5855 32.0674 44.2153 31.7308 40.8769 31.3996C34.8444 30.7959 29.245 27.7295 28.3048 24.4174C27.7765 22.5369 27.2272 20.6084 26.6778 18.6158C25.6108 14.8121 30.2487 11.9594 37.1581 12.4722C40.9825 12.7554 44.8492 13.0439 48.7582 13.3377C56.0162 13.8772 62.1438 17.6969 62.2494 21.602C62.2917 23.6428 62.3445 25.6194 62.3867 27.5372L62.3762 27.5426Z" fill="white"/>
<path d="M106.577 31.5976C105.436 35.054 98.727 37.1588 91.7225 36.4643C87.9509 36.0904 84.211 35.7164 80.5133 35.3478C73.8258 34.68 68.4906 31.5014 68.5751 28.1145C68.6174 26.1859 68.6702 24.1987 68.723 22.1526C68.8287 18.2314 75.157 15.3146 82.9432 15.8916C87.2536 16.2121 91.6169 16.538 96.0224 16.8638C104.231 17.4782 109.915 21.4688 108.594 25.4968C107.908 27.5963 107.232 29.6263 106.587 31.5922L106.577 31.5976Z" fill="white"/>
<path d="M156.191 36.1438C153.529 39.6696 144.95 41.7531 137.121 40.9785C132.906 40.5618 128.744 40.1451 124.613 39.7337C117.154 38.9912 112.189 35.7004 113.52 32.2333C114.28 30.2567 115.073 28.216 115.886 26.1112C117.46 22.0671 125.902 19.0916 134.734 19.7486C139.636 20.1119 144.591 20.4805 149.609 20.8545C158.959 21.5543 164.03 25.7372 160.913 29.8881C159.286 32.0463 157.712 34.1245 156.201 36.1385L156.191 36.1438Z" fill="white"/>
<path d="M212.234 41.2777C207.649 44.8623 196.789 46.903 187.978 46.0322C183.245 45.5621 178.564 45.0973 173.926 44.6326C165.559 43.7938 161.09 40.3909 163.996 36.8543C165.665 34.835 167.387 32.7408 169.162 30.5773C172.616 26.4103 183.688 23.392 193.799 24.1399C199.409 24.5566 205.103 24.9786 210.85 25.4114C221.595 26.2127 225.821 30.604 220.38 34.8777C217.569 37.0894 214.844 39.2156 212.224 41.2723L212.234 41.2777Z" fill="white"/>
<path d="M276.091 47.1273C269.076 50.76 255.373 52.7259 245.379 51.7376C240.023 51.2034 234.719 50.6798 229.479 50.1563C220.023 49.2107 216.21 45.6849 221.101 42.0843C223.901 40.0222 226.817 37.8853 229.838 35.6683C235.68 31.3839 250.122 28.3388 261.818 29.2043C268.315 29.6904 274.897 30.1819 281.574 30.6734C294.051 31.6082 297.083 36.2185 288.652 40.5991C284.299 42.8589 280.116 45.0278 276.091 47.1166V47.1273Z" fill="white"/>
<path d="M349.485 53.853C339.354 57.507 322.07 59.3608 310.66 58.2336C304.543 57.6246 298.5 57.0209 292.53 56.4279C281.765 55.3541 278.839 51.7001 286.244 48.0567C290.513 45.9626 294.95 43.7883 299.556 41.5232C308.515 37.1266 327.278 34.0922 340.949 35.1019C348.555 35.6682 356.278 36.2451 364.107 36.8274C378.771 37.9279 380.144 42.7733 367.773 47.25C361.423 49.5418 355.327 51.7428 349.485 53.853Z" fill="white"/>
<path d="M434.731 61.6686C420.543 65.3067 398.716 66.9894 385.552 65.6806C378.506 64.9808 371.544 64.2863 364.676 63.6025C352.305 62.3684 350.572 58.5862 361.211 54.9268C367.36 52.8113 373.783 50.6103 380.481 48.3132C393.55 43.8364 417.965 40.8448 434.161 42.0414C443.194 42.7145 452.364 43.3983 461.682 44.0928C479.156 45.4017 478.206 50.5034 460.562 55.0336C451.561 57.3468 442.961 59.5531 434.731 61.6633V61.6686Z" fill="white"/>
<path d="M28.5506 41.9721C29.3429 44.4402 25.8249 45.8773 20.8172 45.2736C18.1126 44.9424 15.4292 44.6219 12.7668 44.296C7.93873 43.7084 2.98383 41.3097 1.65267 38.863C0.902571 37.4847 0.141926 36.0744 -0.639868 34.632C-2.11894 31.8914 0.934269 30.0057 6.31174 30.5559C9.26987 30.8604 12.2703 31.1649 15.2812 31.4801C20.87 32.057 26.2792 34.9098 27.1772 37.6877C27.6526 39.1515 28.1069 40.5778 28.5611 41.9721H28.5506Z" fill="white"/>
<path d="M62.8081 45.9305C62.861 48.4253 58.392 49.825 52.9195 49.1679C49.9719 48.8099 47.0455 48.452 44.1507 48.1048C38.8895 47.4637 34.0931 45.0063 33.3958 42.5329C33.0049 41.1386 32.6034 39.7069 32.1914 38.2431C31.4096 35.4545 35.4982 33.574 41.4145 34.1777C44.679 34.5143 47.9752 34.8508 51.2925 35.1981C57.4518 35.8391 62.6285 38.7773 62.7025 41.598C62.7342 43.0831 62.7659 44.5255 62.8081 45.9358V45.9305Z" fill="white"/>
<path d="M100.427 50.274C99.592 52.7848 93.9927 54.1418 88.0024 53.4206C84.7802 53.0306 81.5791 52.6406 78.4096 52.256C72.6518 51.5561 68.0667 49.0346 68.1196 46.5398C68.1513 45.1295 68.183 43.6817 68.2252 42.1966C68.2992 39.3706 73.6238 37.4955 80.1634 38.1686C83.7766 38.5426 87.4214 38.9165 91.1085 39.2958C97.9439 40.001 102.814 43.0353 101.874 45.8934C101.377 47.3946 100.902 48.853 100.437 50.2687L100.427 50.274Z" fill="white"/>
<path d="M141.916 55.0658C140.014 57.582 133.073 58.8855 126.491 58.0895C122.941 57.6568 119.423 57.2347 115.948 56.8127C109.64 56.0434 105.309 53.4632 106.27 50.9523C106.82 49.5313 107.38 48.0729 107.971 46.5717C109.081 43.7083 115.874 41.8599 123.153 42.6078C127.167 43.0245 131.235 43.4412 135.334 43.8633C142.951 44.6486 147.41 47.7791 145.244 50.6692C144.103 52.181 142.993 53.6448 141.926 55.0765L141.916 55.0658Z" fill="white"/>
<path d="M187.899 60.3755C184.698 62.8864 176.172 64.1097 168.903 63.2283C164.984 62.7528 161.107 62.2827 157.261 61.8179C150.299 60.9739 146.316 58.3295 148.376 55.808C149.549 54.3816 150.764 52.9125 152.01 51.4007C154.398 48.5159 162.977 46.7049 171.111 47.5383C175.612 48.003 180.155 48.4731 184.751 48.9433C193.297 49.8247 197.217 53.0567 193.53 55.9576C191.596 57.4694 189.727 58.9438 187.909 60.3702L187.899 60.3755Z" fill="white"/>
<path d="M239.154 66.2947C234.358 68.7788 223.931 69.9007 215.849 68.9231C211.506 68.3942 207.196 67.876 202.938 67.3578C195.226 66.4229 191.676 63.7144 195.078 61.2036C197.022 59.7772 199.019 58.3081 201.079 56.7963C205.041 53.8955 215.785 52.1539 224.945 53.0942C230.016 53.6177 235.14 54.1466 240.327 54.6808C249.973 55.6798 253.184 59.008 247.606 61.9088C244.701 63.4206 241.88 64.879 239.154 66.2947Z" fill="white"/>
<path d="M296.651 72.9352C289.9 75.3766 277.159 76.3542 268.137 75.2644C263.288 74.6768 258.481 74.0945 253.726 73.5175C245.127 72.4705 242.147 69.7086 247.197 67.2244C250.082 65.8141 253.05 64.3504 256.125 62.8439C262.02 59.9484 275.458 58.303 285.843 59.3714C291.601 59.9644 297.422 60.5681 303.318 61.1717C314.294 62.3096 316.566 65.7393 308.621 68.6134C304.49 70.1039 300.507 71.5463 296.651 72.9352Z" fill="white"/>
<path d="M361.594 80.4357C352.392 82.7917 336.851 83.593 326.709 82.3643C321.257 81.7018 315.869 81.0501 310.534 80.4037C300.899 79.2338 298.638 76.4131 305.717 73.9824C309.763 72.5934 313.947 71.1564 318.278 69.6712C326.624 66.8078 343.391 65.3067 355.276 66.5247C361.868 67.2032 368.545 67.8923 375.307 68.5868C387.921 69.8956 388.925 73.4161 378.001 76.2261C372.338 77.6792 366.887 79.0788 361.615 80.4304L361.594 80.4357Z" fill="white"/>
<path d="M5.08198 51.9776C6.18071 53.8901 3.63459 54.9319 -0.5068 54.3602C-2.74653 54.0504 -4.97567 53.7459 -7.18371 53.4414C-11.1983 52.8858 -15.6144 50.9252 -17.0829 49.0181C-17.907 47.9496 -18.7416 46.8545 -19.5973 45.7433C-21.2137 43.6385 -19.0374 42.3029 -14.653 42.8425C-12.2337 43.1417 -9.80378 43.4408 -7.35275 43.7453C-2.82047 44.3063 1.96537 46.566 3.20145 48.6815C3.8459 49.8034 4.4798 50.8985 5.10313 51.9723L5.08198 51.9776Z" fill="white"/>
<path d="M32.9756 55.7014C33.5883 57.6193 30.3872 58.6236 25.9289 58.0092C23.5201 57.678 21.1219 57.3468 18.7448 57.0209C14.4238 56.4226 10.1028 54.4246 9.05693 52.5121C8.47587 51.4384 7.87368 50.3379 7.27148 49.216C6.13049 47.1005 8.98297 45.781 13.7371 46.3686C16.3572 46.6945 18.9878 47.0204 21.6501 47.3516C26.5733 47.9606 31.2218 50.2738 31.9191 52.4C32.2783 53.5218 32.6375 54.6223 32.9861 55.7014H32.9756Z" fill="white"/>
<path d="M63.1501 59.7242C63.1923 61.6367 59.2411 62.5983 54.4236 61.9359C51.8246 61.578 49.2363 61.22 46.669 60.8675C42.01 60.2211 37.8157 58.191 37.2664 56.2732C36.96 55.1941 36.6536 54.0936 36.3367 52.9717C35.7451 50.8402 39.4004 49.5527 44.5666 50.1938C47.4085 50.5464 50.2822 50.9043 53.1769 51.2622C58.5333 51.93 63.0127 54.2912 63.0761 56.4228C63.1078 57.55 63.1289 58.6504 63.1501 59.7296V59.7242Z" fill="white"/>
<path d="M95.8753 64.0885C95.2414 65.9904 90.4344 66.8932 85.2154 66.1773C82.3946 65.7874 79.6055 65.4027 76.827 65.0234C71.7876 64.3289 67.7519 62.2562 67.7941 60.3437C67.8258 59.2645 67.8469 58.1641 67.8786 57.0368C67.9314 54.9053 72.5271 53.6552 78.1582 54.3497C81.2642 54.7344 84.4019 55.1244 87.5608 55.5143C93.4137 56.2409 97.6713 58.6555 96.974 60.7924C96.6043 61.9143 96.2451 63.0148 95.8859 64.0885H95.8753Z" fill="white"/>
<path d="M131.518 68.8432C130.092 70.729 124.281 71.5624 118.608 70.7825C115.544 70.3604 112.512 69.9437 109.501 69.527C104.029 68.7685 100.194 66.6636 100.923 64.7618C101.335 63.688 101.757 62.5929 102.201 61.471C103.036 59.3395 108.709 58.1482 114.889 58.9068C118.291 59.3288 121.735 59.7509 125.201 60.1836C131.624 60.9849 135.586 63.453 133.991 65.5738C133.145 66.6903 132.332 67.7802 131.529 68.8432H131.518Z" fill="white"/>
<path d="M170.483 74.0412C168.117 75.895 161.144 76.6429 154.953 75.7935C151.615 75.334 148.308 74.88 145.022 74.4259C139.064 73.6032 135.482 71.461 137.025 69.5805C137.902 68.5174 138.8 67.4329 139.708 66.3164C141.462 64.2009 148.424 63.0684 155.217 63.9124C158.968 64.3772 162.75 64.8473 166.574 65.3174C173.663 66.1989 177.255 68.7204 174.583 70.8145C173.177 71.915 171.804 72.9942 170.473 74.0412H170.483Z" fill="white"/>
<path d="M213.245 79.7411C209.759 81.5467 201.423 82.1878 194.651 81.2582C190.996 80.7561 187.382 80.2539 183.79 79.7624C177.282 78.8649 174.007 76.6907 176.522 74.8423C177.948 73.7952 179.406 72.7268 180.896 71.6263C183.748 69.5321 192.232 68.4957 199.743 69.4253C203.895 69.9381 208.079 70.4563 212.305 70.9799C220.154 71.9575 223.271 74.5217 219.32 76.5838C217.238 77.6629 215.221 78.7153 213.245 79.7357V79.7411Z" fill="white"/>
<path d="M260.389 86.0342C255.561 87.7757 245.62 88.2886 238.182 87.2629C234.168 86.7127 230.195 86.1624 226.255 85.6175C219.113 84.6345 216.229 82.4336 219.884 80.6332C221.955 79.6129 224.089 78.5658 226.276 77.492C230.459 75.4406 240.76 74.5164 249.106 75.5528C253.723 76.1244 258.382 76.7067 263.084 77.289C271.831 78.3735 274.346 80.9912 268.82 82.9891C265.925 84.0362 263.115 85.0512 260.379 86.0395L260.389 86.0342Z" fill="white"/>
<path d="M312.633 93.0007C306.188 94.6514 294.345 94.9987 286.126 93.8661C281.699 93.2571 277.315 92.6534 272.962 92.0498C265.091 90.9653 262.693 88.7376 267.722 87.0067C270.585 86.0238 273.522 85.0141 276.554 83.9777C282.343 81.9904 294.82 81.2158 304.16 82.3697C309.326 83.0108 314.545 83.6572 319.817 84.3089C329.621 85.527 331.374 88.1767 323.937 90.0892C320.06 91.0882 316.288 92.0498 312.622 92.99L312.633 93.0007Z" fill="white"/>
<path d="M11.3367 62.7853C12.2241 64.3292 9.82594 65.0825 6.05431 64.5162C4.01531 64.2117 1.98687 63.9018 -0.0204325 63.5973C-3.68641 63.0417 -7.59539 61.3696 -8.78922 59.8204C-9.4548 58.955 -10.1309 58.0735 -10.8176 57.176C-12.1065 55.4879 -9.99358 54.5156 -6.03179 55.0712C-3.85545 55.3757 -1.658 55.6856 0.550042 55.9901C4.63861 56.5617 8.83284 58.4581 9.8048 60.1463C10.3225 61.0438 10.8296 61.9199 11.3261 62.7853H11.3367Z" fill="white"/>
<path d="M36.4609 66.4873C36.9469 68.0205 34.0204 68.731 29.9953 68.1273C27.8189 67.8015 25.6531 67.4756 23.5085 67.1497C19.5995 66.5567 15.7645 64.8579 14.9299 63.3194C14.465 62.4593 13.9896 61.5778 13.4931 60.6857C12.5845 58.9975 15.2468 58.0627 19.515 58.6556C21.8604 58.9869 24.2163 59.3127 26.5934 59.6439C30.9883 60.2636 35.0769 62.1868 35.6157 63.8696C35.9009 64.7618 36.1862 65.6379 36.4609 66.4926V66.4873Z" fill="white"/>
<path d="M63.3982 70.4566C63.4299 71.9738 59.9013 72.6362 55.5908 71.9845C53.256 71.6319 50.9424 71.2846 48.6392 70.9374C44.4556 70.307 40.7262 68.5815 40.2931 67.0536C40.0501 66.1989 39.8071 65.3227 39.5535 64.4306C39.0781 62.7532 42.3849 61.8503 46.9806 62.4914C49.5055 62.844 52.0517 63.2019 54.6083 63.5598C59.3413 64.2223 63.2926 66.1828 63.3348 67.8549C63.356 68.7417 63.3771 69.6072 63.3982 70.4566Z" fill="white"/>
<path d="M92.3633 74.725C91.8668 76.2208 87.662 76.8244 83.024 76.1246C80.5202 75.7453 78.0375 75.3714 75.5653 74.9974C71.0753 74.319 67.4727 72.5721 67.515 71.0602C67.5361 70.2108 67.5572 69.3454 67.5784 68.4639C67.6206 66.7972 71.6563 65.9477 76.6112 66.6369C79.3369 67.0215 82.0838 67.4008 84.8518 67.7908C89.9757 68.5067 93.7473 70.4993 93.2085 72.15C92.9233 73.0261 92.638 73.8809 92.3633 74.7196V74.725Z" fill="white"/>
<path d="M123.62 79.3245C122.51 80.7883 117.524 81.3225 112.548 80.5746C109.854 80.1686 107.181 79.7626 104.529 79.3619C99.701 78.6354 96.2569 76.8671 96.8274 75.3767C97.1549 74.5379 97.4824 73.6885 97.8204 72.8124C98.4649 71.167 103.335 70.3764 108.702 71.1243C111.66 71.541 114.64 71.9523 117.64 72.3743C123.197 73.1543 126.757 75.1737 125.532 76.7977C124.887 77.6578 124.254 78.4965 123.63 79.3192L123.62 79.3245Z" fill="white"/>
<path d="M157.407 84.3032C155.589 85.7242 149.705 86.1783 144.338 85.3716C141.433 84.9336 138.548 84.5008 135.685 84.0681C130.487 83.2828 127.234 81.4985 128.427 80.0348C129.104 79.2121 129.79 78.3787 130.498 77.5186C131.84 75.8999 137.672 75.1841 143.514 76.0014C146.726 76.4502 149.969 76.9043 153.233 77.3637C159.277 78.2131 162.573 80.2591 160.555 81.8458C159.488 82.6845 158.442 83.5019 157.417 84.3032H157.407Z" fill="white"/>
<path d="M194.052 89.6988C191.4 91.0717 184.502 91.4243 178.68 90.5482C175.543 90.0727 172.415 89.6026 169.32 89.1378C163.699 88.2884 160.678 86.4881 162.601 85.0671C163.689 84.2711 164.798 83.4538 165.929 82.6204C168.084 81.0391 175.046 80.4194 181.406 81.3062C184.914 81.7977 188.453 82.2945 192.013 82.7913C198.627 83.7155 201.574 85.7883 198.627 87.3268C197.063 88.1389 195.542 88.9295 194.052 89.7041V89.6988Z" fill="white"/>
<path d="M233.973 95.5755C230.349 96.879 222.278 97.1194 215.95 96.1632C212.537 95.6503 209.146 95.1375 205.786 94.63C199.68 93.7111 196.944 91.8948 199.722 90.5272C201.286 89.7579 202.892 88.9726 204.529 88.1659C207.646 86.6381 215.918 86.1252 222.88 87.0975C226.726 87.6371 230.603 88.1766 234.512 88.7269C241.759 89.7419 244.305 91.836 240.238 93.3051C238.093 94.0797 236.012 94.833 233.963 95.5702L233.973 95.5755Z" fill="white"/>
<path d="M277.57 102.002C272.805 103.22 263.36 103.316 256.472 102.28C252.753 101.719 249.066 101.163 245.4 100.613C238.755 99.6088 236.367 97.7872 240.139 96.489C242.262 95.7571 244.449 95.0092 246.689 94.2453C250.936 92.7869 260.74 92.4076 268.41 93.4814C272.636 94.0743 276.904 94.6727 281.215 95.2763C289.201 96.3982 291.24 98.503 285.863 99.8866C283.032 100.613 280.274 101.318 277.591 102.013L277.57 102.002Z" fill="white"/>
<path d="M16.4101 71.5675C17.1391 72.8336 14.8782 73.3839 11.4341 72.8283C9.56414 72.5291 7.70474 72.2299 5.85591 71.9308C2.49631 71.3859 -1.01119 69.9275 -2.00428 68.6507C-2.55365 67.9348 -3.1136 67.2136 -3.67354 66.4764C-4.73001 65.0928 -2.70155 64.3769 0.911603 64.9272C2.89778 65.2317 4.90508 65.5362 6.91239 65.8407C10.6312 66.407 14.3605 68.0363 15.1635 69.4093C15.5861 70.1411 15.9981 70.8623 16.4101 71.5675Z" fill="white"/>
<path d="M39.2613 75.1899C39.6627 76.4399 36.9581 76.9474 33.3027 76.3598C31.3165 76.0393 29.341 75.7241 27.3865 75.4035C23.8156 74.8266 20.382 73.3521 19.6847 72.086C19.3044 71.3809 18.9135 70.6597 18.512 69.9278C17.7725 68.5549 20.2658 67.8764 24.122 68.464C26.2455 68.7899 28.3796 69.1104 30.5242 69.4417C34.486 70.0453 38.1308 71.6907 38.5746 73.053C38.807 73.7795 39.0394 74.49 39.2613 75.1899Z" fill="white"/>
<path d="M63.6013 79.0415C63.633 80.2702 60.4319 80.7296 56.5335 80.1046C54.4205 79.7627 52.3287 79.4261 50.2369 79.0896C46.4441 78.4752 43.0845 76.9901 42.7359 75.74C42.5352 75.0402 42.3344 74.3297 42.1337 73.6085C41.7534 72.2516 44.7643 71.6158 48.8951 72.2409C51.156 72.5881 53.438 72.9354 55.7411 73.2879C59.9882 73.9343 63.5168 75.6011 63.5485 76.942C63.5696 77.6578 63.5802 78.3577 63.6013 79.0415Z" fill="white"/>
<path d="M89.6038 83.1603C89.2023 84.3623 85.4624 84.763 81.2999 84.0952C79.0496 83.7319 76.8098 83.374 74.5912 83.0161C70.5555 82.3643 67.3015 80.8632 67.3227 79.6345C67.3438 78.9453 67.3543 78.2508 67.3755 77.5403C67.4177 76.2048 71.0098 75.6171 75.4259 76.2902C77.8558 76.6589 80.2962 77.0328 82.7578 77.4068C87.3112 78.1012 90.7025 79.784 90.2693 81.1036C90.0369 81.8034 89.815 82.4872 89.5932 83.1656L89.6038 83.1603Z" fill="white"/>
<path d="M117.396 87.5675C116.508 88.7374 112.145 89.074 107.708 88.3581C105.31 87.9735 102.922 87.5835 100.545 87.2042C96.2345 86.5097 93.1073 84.9925 93.5616 83.7906C93.8257 83.1174 94.0898 82.4336 94.3539 81.7392C94.861 80.4303 99.1292 79.9068 103.873 80.628C106.482 81.0286 109.113 81.4293 111.754 81.83C116.646 82.5779 119.868 84.2767 118.906 85.5642C118.389 86.2426 117.892 86.9104 117.396 87.5675Z" fill="white"/>
<path d="M147.222 92.29C145.775 93.4172 140.714 93.6789 135.96 92.915C133.393 92.4983 130.836 92.087 128.29 91.681C123.673 90.9331 120.705 89.4105 121.655 88.2459C122.194 87.5942 122.744 86.9264 123.303 86.248C124.36 84.9712 129.378 84.5171 134.481 85.2971C137.291 85.7244 140.123 86.1572 142.975 86.5899C148.247 87.3965 151.268 89.1114 149.694 90.3561C148.86 91.0132 148.036 91.6596 147.222 92.2953V92.29Z" fill="white"/>
<path d="M179.286 97.3654C177.205 98.4445 171.352 98.6155 166.239 97.7928C163.482 97.3494 160.735 96.906 158.009 96.4679C153.065 95.6666 150.265 94.1334 151.786 93.0115C152.642 92.3811 153.519 91.7401 154.406 91.083C156.097 89.8489 161.971 89.4857 167.486 90.3244C170.528 90.7892 173.581 91.2539 176.666 91.7241C182.371 92.5948 185.139 94.3204 182.847 95.5117C181.632 96.142 180.438 96.7564 179.276 97.3654H179.286Z" fill="white"/>
<path d="M213.853 102.841C211.032 103.856 204.271 103.925 198.777 103.038C195.809 102.558 192.861 102.082 189.935 101.612C184.61 100.752 182.032 99.2134 184.208 98.145C185.434 97.5467 186.681 96.9323 187.948 96.3073C190.357 95.1267 197.224 94.8596 203.204 95.7677C206.5 96.2699 209.807 96.7774 213.145 97.2849C219.326 98.2305 221.808 99.9613 218.692 101.089C217.044 101.687 215.427 102.264 213.853 102.835V102.841Z" fill="white"/>
<path d="M251.223 108.765C247.557 109.705 239.771 109.652 233.833 108.701C230.632 108.183 227.452 107.67 224.293 107.163C218.556 106.238 216.232 104.694 219.159 103.69C220.807 103.124 222.487 102.547 224.209 101.959C227.463 100.848 235.46 100.698 241.957 101.687C245.539 102.232 249.142 102.782 252.776 103.338C259.506 104.363 261.618 106.099 257.54 107.152C255.385 107.702 253.283 108.247 251.223 108.776V108.765Z" fill="white"/>
<path d="M0.796177 75.5261C1.65192 76.6052 -0.144078 77.0379 -3.15504 76.5304C-4.79258 76.2526 -6.41955 75.9749 -8.03596 75.7024C-10.9835 75.2002 -14.2164 73.9235 -15.2728 72.839C-15.8539 72.2353 -16.4561 71.621 -17.0477 70.9959C-18.1781 69.8313 -16.5723 69.2651 -13.4346 69.7726C-11.7125 70.0557 -9.97988 70.3335 -8.23669 70.6166C-5.025 71.1402 -1.59147 72.5452 -0.661767 73.6991C-0.165223 74.3188 0.320762 74.9278 0.796177 75.5261Z" fill="white"/>
<path d="M20.6157 78.8435C21.2284 79.9066 19.0944 80.3073 15.9144 79.7677C14.1923 79.4739 12.4702 79.1854 10.7693 78.8916C7.66327 78.3627 4.48329 77.0753 3.64867 76.0015C3.18382 75.4031 2.72952 74.7941 2.24354 74.1798C1.36666 73.0205 3.31057 72.4917 6.62791 73.0312C8.45562 73.3304 10.2833 73.6242 12.1322 73.9287C15.534 74.4843 18.9042 75.9 19.5698 77.0432C19.9184 77.6522 20.267 78.2505 20.6051 78.8435H20.6157Z" fill="white"/>
<path d="M41.5788 82.3536C41.9169 83.3953 39.413 83.7532 36.0429 83.1869C34.2257 82.8771 32.4086 82.5673 30.6125 82.2627C27.3269 81.7018 24.2103 80.409 23.6292 79.3513C23.3123 78.7636 22.9848 78.1599 22.6573 77.5509C22.0445 76.4131 24.3793 75.9216 27.8974 76.4932C29.8307 76.8084 31.7852 77.1236 33.7397 77.4441C37.3529 78.0317 40.6385 79.4634 41.0083 80.5853C41.1984 81.1836 41.3886 81.7766 41.5788 82.3536Z" fill="white"/>
<path d="M63.7714 86.0716C63.7925 87.0919 60.8766 87.4018 57.3163 86.7981C55.3935 86.4722 53.4707 86.1464 51.5585 85.8205C48.0827 85.2275 45.04 83.924 44.7442 82.8823C44.5857 82.3053 44.4167 81.7123 44.2477 81.114C43.9307 79.9922 46.6987 79.5434 50.4492 80.1524C52.5093 80.489 54.5694 80.8255 56.6507 81.1621C60.4963 81.7871 63.6868 83.2295 63.7185 84.33C63.7291 84.9176 63.7502 85.4946 63.7608 86.0609L63.7714 86.0716Z" fill="white"/>
<path d="M87.3397 90.0198C87.0122 91.0081 83.642 91.2699 79.8704 90.6289C77.8314 90.2816 75.7924 89.9344 73.7745 89.5925C70.098 88.9674 67.1293 87.6533 67.1504 86.6382C67.161 86.072 67.1821 85.495 67.1927 84.9127C67.2244 83.8176 70.4677 83.4169 74.4507 84.0633C76.6376 84.4212 78.8456 84.7792 81.0642 85.1371C85.1634 85.8049 88.2377 87.2579 87.8891 88.3317C87.6989 88.9033 87.5193 89.4643 87.3291 90.0198H87.3397Z" fill="white"/>
<path d="M112.39 94.2129C111.661 95.1692 107.783 95.3669 103.779 94.6884C101.614 94.3198 99.4479 93.9512 97.3138 93.5879C93.4154 92.9255 90.5523 91.6006 90.9327 90.6176C91.144 90.0674 91.3658 89.5065 91.5877 88.9402C92.0103 87.8718 95.7924 87.5299 100.039 88.219C102.374 88.5983 104.73 88.9829 107.097 89.3676C111.46 90.0781 114.418 91.5418 113.636 92.5836C113.224 93.1392 112.802 93.6841 112.411 94.2183L112.39 94.2129Z" fill="white"/>
<path d="M139.066 98.6846C137.893 99.5981 133.456 99.7317 129.188 99.0105C126.884 98.6205 124.581 98.2305 122.31 97.8406C118.158 97.1354 115.422 95.8105 116.203 94.8543C116.647 94.3201 117.091 93.7805 117.545 93.2303C118.401 92.1939 122.796 91.9214 127.339 92.6586C129.832 93.0646 132.346 93.476 134.882 93.8873C139.552 94.6459 142.341 96.115 141.073 97.1194C140.397 97.6482 139.731 98.1718 139.076 98.6846H139.066Z" fill="white"/>
<path d="M167.559 103.455C165.879 104.321 160.797 104.374 156.254 103.605C153.793 103.188 151.352 102.771 148.922 102.36C144.506 101.607 141.907 100.276 143.143 99.3683C143.83 98.8608 144.538 98.3426 145.256 97.8137C146.609 96.8254 151.69 96.6278 156.55 97.4184C159.223 97.8511 161.917 98.2892 164.632 98.7326C169.64 99.55 172.239 101.024 170.411 101.975C169.439 102.477 168.488 102.974 167.548 103.46L167.559 103.455Z" fill="white"/>
<path d="M198.019 108.557C195.768 109.369 189.979 109.331 185.119 108.509C182.499 108.065 179.879 107.622 177.291 107.178C172.579 106.377 170.149 105.047 171.892 104.181C172.875 103.701 173.868 103.209 174.892 102.707C176.815 101.767 182.658 101.66 187.887 102.509C190.761 102.979 193.655 103.45 196.571 103.92C201.959 104.796 204.326 106.27 201.864 107.162C200.554 107.633 199.276 108.097 198.019 108.551V108.557Z" fill="white"/>
<path d="M230.695 114.033C227.789 114.775 221.197 114.636 215.999 113.755C213.189 113.279 210.4 112.804 207.621 112.334C202.571 111.474 200.353 110.149 202.677 109.342C203.987 108.893 205.318 108.434 206.681 107.969C209.248 107.088 215.967 107.088 221.588 107.996C224.683 108.498 227.8 109.006 230.938 109.519C236.748 110.464 238.84 111.939 235.66 112.756C233.97 113.189 232.301 113.616 230.684 114.033H230.695Z" fill="white"/>
<path d="M5.77011 81.7499C6.49908 82.6688 4.77705 82.9947 1.96682 82.4978C0.445488 82.2254 -1.07587 81.9583 -2.58663 81.6912C-5.33347 81.205 -8.29161 80.0618 -9.18962 79.1323C-9.68616 78.6141 -10.1932 78.0905 -10.7109 77.5563C-11.6723 76.5627 -10.1087 76.1353 -7.18228 76.6375C-5.57644 76.9099 -3.97062 77.1877 -2.35421 77.4655C0.625062 77.9783 3.74169 79.2177 4.53405 80.2007C4.95664 80.7242 5.36865 81.2424 5.77011 81.7553V81.7499Z" fill="white"/>
<path d="M24.1549 84.9711C24.6726 85.874 22.6653 86.1624 19.7072 85.6389C18.1119 85.3558 16.5166 85.0726 14.9213 84.7895C12.0371 84.2766 9.12125 83.1281 8.41341 82.2146C8.02251 81.7071 7.62108 81.1889 7.21962 80.6653C6.46952 79.6877 8.32891 79.2924 11.4033 79.8159C13.0936 80.1044 14.784 80.3982 16.4955 80.6867C19.6438 81.2263 22.697 82.4763 23.2569 83.4433C23.5527 83.9561 23.8485 84.469 24.1338 84.9658L24.1549 84.9711Z" fill="white"/>
<path d="M43.5077 88.3581C43.7929 89.2396 41.4581 89.4907 38.352 88.9404C36.6722 88.6413 34.9925 88.3475 33.3232 88.0483C30.2806 87.5087 27.4281 86.3548 26.9421 85.4573C26.6674 84.9552 26.3927 84.4477 26.118 83.9348C25.6004 82.9732 27.7873 82.6153 31.0412 83.1709C32.8267 83.4754 34.6121 83.7799 36.4187 84.0897C39.736 84.6613 42.7364 85.9168 43.0428 86.8623C43.2118 87.3645 43.3703 87.8667 43.5288 88.3528L43.5077 88.3581Z" fill="white"/>
<path d="M63.9178 91.9322C63.939 92.7869 61.2555 92.9953 57.9804 92.4183C56.2056 92.1031 54.4412 91.7933 52.6875 91.4834C49.4864 90.9172 46.6973 89.7526 46.4437 88.8764C46.3064 88.385 46.169 87.8935 46.0211 87.3913C45.757 86.4511 48.3137 86.1359 51.7472 86.7235C53.6278 87.0441 55.5294 87.3699 57.4311 87.6958C60.9386 88.2995 63.8545 89.5656 63.8862 90.4844C63.8967 90.9759 63.9073 91.4621 63.9178 91.9375V91.9322Z" fill="white"/>
<path d="M85.4586 95.7036C85.184 96.5317 82.1201 96.6919 78.6655 96.0776C76.7955 95.7464 74.9256 95.4151 73.0767 95.0893C69.696 94.4909 66.9808 93.3263 67.002 92.4716C67.002 91.9961 67.0231 91.5153 67.0337 91.0239C67.0654 90.105 70.0235 89.8432 73.6578 90.4629C75.6545 90.8048 77.6618 91.1467 79.6691 91.494C83.3879 92.1297 86.2087 93.4065 85.9235 94.2986C85.765 94.7741 85.6171 95.2442 85.4586 95.7036Z" fill="white"/>
<path d="M108.259 99.6943C107.657 100.49 104.171 100.592 100.526 99.9454C98.5501 99.5981 96.5851 99.2455 94.6306 98.8983C91.0703 98.2679 88.4291 97.098 88.746 96.2699C88.9256 95.8105 89.1052 95.3457 89.2848 94.8703C89.6335 93.9835 93.0353 93.7698 96.8914 94.4269C99.0044 94.7901 101.138 95.1534 103.273 95.5167C107.224 96.1951 109.928 97.4719 109.284 98.332C108.935 98.7914 108.597 99.2402 108.259 99.6836V99.6943Z" fill="white"/>
<path d="M132.395 103.92C131.423 104.678 127.472 104.721 123.616 104.037C121.524 103.669 119.443 103.3 117.372 102.932C113.6 102.264 111.075 101.094 111.72 100.298C112.079 99.8544 112.449 99.4057 112.829 98.9516C113.537 98.0969 117.435 97.9473 121.524 98.6471C123.774 99.0317 126.035 99.4164 128.307 99.8064C132.501 100.522 135.089 101.81 134.043 102.627C133.483 103.065 132.934 103.492 132.395 103.92Z" fill="white"/>
<path d="M158.017 108.407C156.633 109.123 152.164 109.091 148.075 108.37C145.857 107.975 143.659 107.59 141.462 107.2C137.468 106.49 135.059 105.32 136.074 104.566C136.644 104.144 137.225 103.717 137.817 103.284C138.926 102.472 143.385 102.387 147.737 103.129C150.125 103.541 152.534 103.952 154.953 104.363C159.422 105.127 161.862 106.409 160.362 107.189C159.57 107.601 158.788 108.007 158.017 108.407Z" fill="white"/>
<path d="M185.243 113.172C183.404 113.835 178.354 113.728 174.012 112.959C171.656 112.542 169.322 112.125 166.997 111.714C162.761 110.961 160.479 109.791 161.916 109.086C162.719 108.69 163.543 108.29 164.377 107.878C165.941 107.109 171.022 107.109 175.66 107.9C178.217 108.338 180.774 108.776 183.362 109.214C188.137 110.031 190.388 111.308 188.391 112.035C187.324 112.419 186.278 112.793 185.253 113.167L185.243 113.172Z" fill="white"/>
<path d="M214.247 118.253C211.891 118.856 206.196 118.659 201.58 117.841C199.076 117.398 196.593 116.96 194.11 116.522C189.61 115.726 187.486 114.556 189.388 113.899C190.455 113.536 191.543 113.162 192.652 112.782C194.734 112.072 200.502 112.157 205.457 113.001C208.183 113.466 210.929 113.936 213.687 114.406C218.79 115.277 220.839 116.554 218.272 117.216C216.909 117.569 215.567 117.911 214.247 118.247V118.253Z" fill="white"/>
<path d="M10.0406 87.0921C10.6745 87.8827 9.01584 88.1231 6.38521 87.6423C4.95897 87.3806 3.53271 87.1188 2.11703 86.8624C-0.460773 86.3869 -3.17592 85.3612 -3.95771 84.5545C-4.39087 84.1058 -4.82401 83.6517 -5.26773 83.1976C-6.09179 82.3429 -4.57047 82.0223 -1.84476 82.5085C-0.355124 82.7756 1.15565 83.0427 2.65585 83.3098C5.43438 83.8066 8.28687 84.9178 8.96302 85.7619C9.32222 86.2106 9.6814 86.6594 10.03 87.0974L10.0406 87.0921Z" fill="white"/>
<path d="M27.174 90.2011C27.6177 90.9757 25.7161 91.1787 22.9587 90.6766C21.469 90.4041 19.9794 90.1317 18.5003 89.8592C15.8063 89.3624 13.1228 88.3313 12.5101 87.5407C12.172 87.1026 11.8339 86.6592 11.4853 86.2051C10.8409 85.3664 12.6263 85.0779 15.4894 85.5854C17.0635 85.8632 18.6377 86.1464 20.2224 86.4295C23.1488 86.9477 25.9485 88.0696 26.4345 88.8923C26.688 89.3357 26.9416 89.7684 27.1846 90.2011H27.174Z" fill="white"/>
<path d="M45.1573 93.4599C45.4003 94.2132 43.2134 94.3841 40.3293 93.8553C38.7657 93.5668 37.2021 93.2836 35.649 93.0005C32.8177 92.4823 30.1871 91.4406 29.7645 90.6713C29.5321 90.2439 29.2996 89.8059 29.0566 89.3678C28.6129 88.5451 30.6836 88.294 33.684 88.8283C35.3321 89.1221 36.9908 89.4159 38.66 89.7151C41.7344 90.26 44.4812 91.3872 44.7453 92.1938C44.8827 92.6266 45.02 93.0486 45.1573 93.4706V93.4599Z" fill="white"/>
<path d="M64.0355 96.8896C64.0461 97.6215 61.5739 97.7497 58.5418 97.1941C56.9043 96.895 55.2667 96.5958 53.6398 96.2966C50.6711 95.7517 48.0933 94.71 47.882 93.9568C47.7658 93.5401 47.6496 93.118 47.5228 92.6853C47.3009 91.884 49.678 91.6703 52.8474 92.2312C54.58 92.5411 56.3232 92.8509 58.0875 93.1661C61.3204 93.7431 64.0038 94.8703 64.0249 95.6502C64.0249 96.0669 64.0461 96.4783 64.0566 96.8896H64.0355Z" fill="white"/>
<path d="M83.8863 100.49C83.6539 101.195 80.8437 101.275 77.6637 100.693C75.9416 100.378 74.2196 100.063 72.5081 99.7475C69.3915 99.1759 66.8771 98.1288 66.8876 97.4023C66.8876 96.9963 66.9087 96.5903 66.9193 96.1736C66.9404 95.399 69.6556 95.228 72.9941 95.821C74.8218 96.1469 76.66 96.4727 78.5089 96.804C81.9213 97.413 84.5202 98.5455 84.2772 99.2988C84.1504 99.6994 84.0131 100.1 83.8863 100.49Z" fill="white"/>
<path d="M104.795 104.283C104.288 104.956 101.119 104.988 97.7699 104.374C95.9527 104.043 94.1462 103.712 92.3501 103.38C89.0751 102.782 86.6346 101.735 86.8987 101.03C87.0466 100.64 87.2051 100.244 87.353 99.8438C87.6488 99.0959 90.7443 98.973 94.2624 99.598C96.1957 99.9399 98.1396 100.287 100.084 100.634C103.686 101.275 106.201 102.408 105.651 103.135C105.355 103.519 105.07 103.904 104.785 104.278L104.795 104.283Z" fill="white"/>
<path d="M126.83 108.284C126.006 108.92 122.456 108.899 118.928 108.252C117.015 107.9 115.114 107.553 113.223 107.205C109.779 106.575 107.412 105.528 107.961 104.855C108.268 104.481 108.585 104.107 108.891 103.722C109.483 103.006 112.99 102.942 116.709 103.599C118.748 103.963 120.798 104.326 122.868 104.694C126.672 105.373 129.08 106.505 128.214 107.195C127.749 107.563 127.284 107.921 126.83 108.279V108.284Z" fill="white"/>
<path d="M150.107 112.51C148.955 113.108 144.962 113.023 141.243 112.345C139.225 111.976 137.218 111.607 135.221 111.244C131.587 110.576 129.326 109.529 130.182 108.899C130.668 108.546 131.154 108.188 131.64 107.825C132.57 107.147 136.531 107.141 140.472 107.841C142.638 108.226 144.804 108.616 146.99 109C151.026 109.716 153.298 110.849 152.062 111.495C151.406 111.837 150.752 112.179 150.107 112.51Z" fill="white"/>
<path d="M174.72 116.976C173.188 117.526 168.719 117.377 164.789 116.656C162.655 116.266 160.542 115.876 158.429 115.491C154.583 114.786 152.439 113.744 153.643 113.151C154.319 112.82 154.995 112.483 155.693 112.147C156.992 111.511 161.472 111.575 165.645 112.318C167.937 112.724 170.24 113.135 172.554 113.546C176.833 114.31 178.977 115.438 177.329 116.036C176.442 116.356 175.586 116.666 174.73 116.976H174.72Z" fill="white"/>
<path d="M200.783 121.709C198.828 122.206 193.842 121.977 189.679 121.218C187.429 120.807 185.178 120.395 182.949 119.984C178.892 119.241 176.864 118.2 178.449 117.655C179.336 117.35 180.234 117.04 181.153 116.725C182.875 116.138 187.904 116.282 192.341 117.067C194.771 117.5 197.222 117.938 199.684 118.376C204.227 119.188 206.213 120.31 204.1 120.855C202.969 121.143 201.86 121.426 200.783 121.709Z" fill="white"/>
<path d="M13.7329 91.7131C14.2823 92.4022 12.6976 92.5732 10.2254 92.1084C8.88367 91.8573 7.55253 91.6063 6.22137 91.3552C3.79147 90.8958 1.27704 89.9609 0.590329 89.2557C0.209997 88.8657 -0.170321 88.4704 -0.550653 88.0697C-1.26906 87.3218 0.209994 87.0868 2.76667 87.5569C4.17178 87.8133 5.5769 88.0751 6.99258 88.3368C9.59151 88.8176 12.2327 89.822 12.8138 90.5539C13.1307 90.9438 13.4371 91.3338 13.7435 91.7184L13.7329 91.7131Z" fill="white"/>
<path d="M29.783 94.7153C30.1739 95.3885 28.3567 95.5274 25.7789 95.0412C24.3738 94.7795 22.9898 94.5123 21.5953 94.2506C19.0597 93.7751 16.577 92.8349 16.0488 92.1458C15.753 91.7665 15.4572 91.3765 15.1613 90.9865C14.6014 90.2546 16.3023 90.0463 18.9858 90.5378C20.4543 90.8102 21.9228 91.0773 23.4019 91.3498C26.1276 91.8519 28.716 92.8616 29.1386 93.5775C29.3604 93.9621 29.5823 94.3361 29.7936 94.71L29.783 94.7153Z" fill="white"/>
<path d="M46.569 97.8565C46.7803 98.5083 44.7307 98.6151 42.0367 98.1076C40.5682 97.8298 39.1208 97.5574 37.6629 97.2849C35.0217 96.7881 32.5812 95.8425 32.2114 95.1694C32.0107 94.7955 31.81 94.4215 31.5987 94.0369C31.2184 93.3264 33.1623 93.1501 35.962 93.6683C37.5044 93.9514 39.0469 94.2345 40.5893 94.5177C43.4418 95.0412 45.9879 96.0562 46.2098 96.7507C46.326 97.1247 46.4528 97.4879 46.569 97.8512V97.8565Z" fill="white"/>
<path d="M64.1359 101.137C64.1359 101.767 61.8434 101.837 59.0226 101.302C57.4907 101.014 55.9694 100.725 54.448 100.442C51.6801 99.9187 49.2819 98.9732 49.1023 98.3267C48.9966 97.9635 48.9015 97.6002 48.7959 97.2316C48.6057 96.5425 50.8243 96.4036 53.7613 96.9431C55.3777 97.2369 56.9941 97.5361 58.6211 97.8353C61.6215 98.3855 64.0937 99.4005 64.1148 100.074C64.1148 100.432 64.1359 100.789 64.1465 101.137H64.1359Z" fill="white"/>
<path d="M82.5463 104.582C82.3456 105.186 79.7572 105.213 76.7991 104.657C75.1932 104.358 73.5979 104.054 72.0132 103.754C69.1185 103.209 66.7837 102.264 66.7942 101.634C66.7942 101.286 66.8153 100.934 66.8259 100.576C66.847 99.908 69.3615 99.8118 72.4358 100.378C74.1262 100.688 75.8271 101.003 77.528 101.313C80.6763 101.895 83.0851 102.91 82.8738 103.557C82.7576 103.904 82.6519 104.246 82.5357 104.582H82.5463Z" fill="white"/>
<path d="M101.849 108.188C101.416 108.765 98.5108 108.744 95.4153 108.162C93.7355 107.846 92.0663 107.531 90.3971 107.216C87.365 106.644 85.083 105.699 85.3154 105.095C85.4422 104.764 85.5795 104.422 85.7063 104.08C85.9599 103.439 88.7912 103.386 92.0346 103.984C93.8095 104.31 95.5949 104.641 97.3909 104.972C100.698 105.581 103.033 106.596 102.578 107.216C102.335 107.547 102.092 107.868 101.839 108.194L101.849 108.188Z" fill="white"/>
<path d="M122.121 111.981C121.424 112.526 118.191 112.457 114.948 111.848C113.184 111.517 111.43 111.186 109.687 110.86C106.507 110.261 104.299 109.316 104.763 108.739C105.028 108.418 105.292 108.098 105.566 107.772C106.073 107.163 109.253 107.157 112.666 107.788C114.536 108.13 116.416 108.477 118.307 108.824C121.794 109.465 124.044 110.48 123.305 111.063C122.914 111.372 122.512 111.682 122.132 111.981H122.121Z" fill="white"/>
<path d="M143.443 115.967C142.46 116.474 138.868 116.351 135.456 115.71C133.607 115.363 131.769 115.016 129.93 114.668C126.592 114.038 124.468 113.098 125.197 112.553C125.609 112.254 126.021 111.949 126.444 111.639C127.236 111.062 130.797 111.116 134.399 111.778C136.375 112.142 138.35 112.505 140.347 112.873C144.013 113.552 146.168 114.562 145.123 115.106C144.563 115.4 144.003 115.683 143.464 115.967H143.443Z" fill="white"/>
<path d="M165.893 120.166C164.593 120.63 160.6 120.449 157.008 119.776C155.064 119.407 153.12 119.044 151.197 118.681C147.69 118.018 145.651 117.078 146.675 116.576C147.246 116.298 147.827 116.015 148.408 115.726C149.507 115.187 153.5 115.304 157.293 115.999C159.374 116.383 161.466 116.768 163.568 117.153C167.446 117.869 169.485 118.873 168.09 119.38C167.351 119.647 166.611 119.915 165.893 120.171V120.166Z" fill="white"/>
<path d="M189.552 124.589C187.904 125.011 183.478 124.76 179.695 124.049C177.646 123.664 175.607 123.28 173.578 122.895C169.881 122.201 167.947 121.266 169.3 120.801C170.05 120.545 170.81 120.283 171.582 120.021C173.029 119.53 177.487 119.711 181.491 120.443C183.689 120.849 185.897 121.255 188.126 121.661C192.225 122.414 194.127 123.419 192.363 123.873C191.422 124.113 190.493 124.354 189.573 124.589H189.552Z" fill="white"/>
<path d="M2.48438 92.9844C3.09714 93.6095 1.75541 93.7537 -0.48432 93.321C-1.69927 93.0859 -2.91422 92.8509 -4.11861 92.6211C-6.32664 92.1938 -8.69314 91.339 -9.42211 90.7033C-9.82357 90.3507 -10.2251 89.9981 -10.6371 89.6402C-11.3977 88.9724 -10.1511 88.7694 -7.84797 89.2075C-6.5802 89.4479 -5.31244 89.6883 -4.0341 89.9287C-1.68872 90.3721 0.794003 91.2856 1.44902 91.9427C1.79766 92.2953 2.14631 92.6425 2.48438 92.9898V92.9844Z" fill="white"/>
<path d="M16.9685 95.7626C17.4545 96.3716 15.9226 96.4891 13.5984 96.035C12.3306 95.7893 11.0734 95.5489 9.8162 95.3031C7.52365 94.8597 5.17828 93.9996 4.57608 93.3799C4.24858 93.038 3.91049 92.6908 3.57242 92.3382C2.93853 91.6865 4.37534 91.5102 6.77354 91.9643C8.09414 92.2153 9.41475 92.4664 10.7459 92.7175C13.1969 93.1823 15.6374 94.0958 16.1551 94.7369C16.4298 95.0788 16.7044 95.4207 16.9685 95.7572V95.7626Z" fill="white"/>
<path d="M32.065 98.6577C32.4031 99.2507 30.681 99.3362 28.2511 98.8714C26.9305 98.615 25.6205 98.3639 24.3105 98.1128C21.9229 97.6534 19.6092 96.7933 19.1443 96.1843C18.8907 95.8477 18.6266 95.5112 18.3625 95.1693C17.8765 94.5282 19.5035 94.384 22.0179 94.8594C23.3913 95.1212 24.7753 95.3829 26.1593 95.6447C28.716 96.1309 31.1248 97.0497 31.484 97.6694C31.6741 98.006 31.8643 98.3372 32.0545 98.6631L32.065 98.6577Z" fill="white"/>
<path d="M47.795 101.676C47.9746 102.248 46.0518 102.306 43.5163 101.815C42.1429 101.548 40.78 101.286 39.4172 101.024C36.9344 100.543 34.6524 99.6834 34.3355 99.0958C34.1559 98.7699 33.9763 98.4387 33.7967 98.1075C33.4586 97.4878 35.3075 97.3702 37.9275 97.8671C39.3643 98.1395 40.8117 98.412 42.2591 98.6844C44.932 99.1919 47.2879 100.111 47.4887 100.714C47.5943 101.04 47.6999 101.361 47.795 101.676Z" fill="white"/>
<path d="M64.2246 104.823C64.2351 105.373 62.0799 105.394 59.4387 104.887C58.0019 104.609 56.5757 104.337 55.16 104.059C52.5716 103.557 50.3319 102.696 50.1734 102.125C50.0889 101.81 49.9938 101.489 49.9093 101.169C49.7402 100.57 51.8215 100.485 54.5684 101.003C56.0686 101.286 57.5793 101.575 59.0901 101.858C61.8792 102.387 64.1929 103.305 64.2034 103.893C64.2034 104.203 64.2246 104.513 64.2246 104.817V104.823Z" fill="white"/>
<path d="M81.3723 108.113C81.1927 108.642 78.7945 108.626 76.0371 108.092C74.5475 107.804 73.0579 107.515 71.5682 107.232C68.8636 106.708 66.6767 105.848 66.6873 105.298C66.6873 104.994 66.6979 104.689 66.7085 104.379C66.7296 103.802 69.0644 103.754 71.9275 104.299C73.5016 104.598 75.0757 104.897 76.6605 105.197C79.5763 105.752 81.8372 106.671 81.647 107.227C81.5519 107.526 81.4463 107.82 81.3512 108.113H81.3723Z" fill="white"/>
<path d="M99.309 111.554C98.9286 112.051 96.2558 111.997 93.3822 111.442C91.8186 111.142 90.2655 110.838 88.7125 110.539C85.8917 109.994 83.7576 109.134 83.9584 108.61C84.0746 108.322 84.1802 108.028 84.2964 107.729C84.5183 107.173 87.1278 107.173 90.1282 107.74C91.7763 108.049 93.4244 108.365 95.0936 108.68C98.1574 109.262 100.334 110.181 99.9429 110.71C99.721 110.993 99.5203 111.276 99.309 111.554Z" fill="white"/>
<path d="M118.081 115.149C117.479 115.619 114.521 115.518 111.51 114.935C109.872 114.62 108.245 114.305 106.629 113.995C103.681 113.424 101.611 112.564 102.012 112.067C102.234 111.794 102.466 111.511 102.699 111.233C103.132 110.704 106.048 110.753 109.196 111.346C110.918 111.671 112.661 111.997 114.394 112.329C117.606 112.938 119.719 113.856 119.085 114.353C118.747 114.62 118.409 114.887 118.071 115.149H118.081Z" fill="white"/>
<path d="M137.757 118.921C136.912 119.359 133.648 119.209 130.489 118.6C128.777 118.269 127.076 117.943 125.386 117.617C122.301 117.019 120.294 116.164 120.928 115.694C121.276 115.438 121.636 115.176 121.995 114.909C122.671 114.412 125.914 114.508 129.221 115.133C131.028 115.475 132.855 115.822 134.683 116.164C138.053 116.8 140.082 117.719 139.184 118.184C138.698 118.435 138.222 118.675 137.757 118.921Z" fill="white"/>
<path d="M158.379 122.879C157.269 123.28 153.656 123.077 150.349 122.436C148.553 122.089 146.779 121.747 145.004 121.405C141.771 120.78 139.848 119.925 140.725 119.493C141.211 119.252 141.718 119.012 142.215 118.761C143.155 118.301 146.757 118.445 150.223 119.103C152.124 119.46 154.037 119.824 155.959 120.187C159.509 120.86 161.432 121.768 160.249 122.196C159.615 122.425 158.991 122.65 158.368 122.874L158.379 122.879Z" fill="white"/>
<path d="M180.049 127.03C178.644 127.388 174.672 127.126 171.196 126.459C169.315 126.095 167.445 125.732 165.586 125.374C162.195 124.717 160.356 123.873 161.508 123.472C162.152 123.253 162.797 123.029 163.452 122.805C164.677 122.382 168.671 122.591 172.326 123.28C174.334 123.659 176.341 124.039 178.369 124.423C182.099 125.128 183.927 126.031 182.426 126.421C181.623 126.63 180.831 126.833 180.049 127.03Z" fill="white"/>
<path d="M6.1188 96.6492C6.66817 97.2048 5.35813 97.3009 3.23461 96.8842C2.08305 96.6545 0.931502 96.4301 -0.220058 96.2058C-2.31188 95.7944 -4.53049 95.0038 -5.17494 94.4375C-5.53414 94.1223 -5.89333 93.8071 -6.25253 93.4919C-6.92868 92.899 -5.71374 92.7494 -3.52684 93.1714C-2.33302 93.4011 -1.12862 93.6362 0.086329 93.8712C2.30493 94.3039 4.61861 95.1373 5.19967 95.7196C5.50605 96.0348 5.81243 96.3393 6.1188 96.6492Z" fill="white"/>
<path d="M19.8226 99.331C20.2558 99.8706 18.7873 99.9454 16.5792 99.5127C15.3854 99.2776 14.1916 99.0426 12.9978 98.8075C10.832 98.3801 8.63454 97.5895 8.1063 97.0392C7.81048 96.7347 7.51466 96.4249 7.20829 96.115C6.64835 95.5381 8.03233 95.4099 10.3038 95.8533C11.5504 96.0937 12.797 96.3394 14.0542 96.5798C16.3679 97.0286 18.6394 97.8673 19.0937 98.4335C19.3366 98.7381 19.5796 99.0372 19.8121 99.3364L19.8226 99.331Z" fill="white"/>
<path d="M34.0729 102.125C34.3687 102.649 32.7312 102.697 30.4386 102.243C29.192 101.997 27.9559 101.751 26.7198 101.511C24.4695 101.067 22.3037 100.271 21.8917 99.7371C21.6698 99.4379 21.4374 99.1388 21.205 98.8396C20.7718 98.2733 22.3354 98.1772 24.7019 98.6366C26.0014 98.8877 27.3009 99.1388 28.6109 99.3952C31.0197 99.86 33.2594 100.704 33.5869 101.254C33.7559 101.548 33.925 101.842 34.094 102.13L34.0729 102.125Z" fill="white"/>
<path d="M48.883 105.026C49.0415 105.528 47.2138 105.549 44.8367 105.079C43.5478 104.823 42.2589 104.572 40.97 104.315C38.6246 103.851 36.5011 103.06 36.2158 102.542C36.0574 102.253 35.8989 101.965 35.7405 101.671C35.4446 101.126 37.1984 101.057 39.66 101.532C41.0123 101.794 42.3646 102.056 43.7274 102.317C46.2313 102.803 48.4393 103.648 48.6083 104.176C48.7034 104.46 48.7879 104.743 48.883 105.02V105.026Z" fill="white"/>
<path d="M64.2981 108.044C64.2981 108.53 62.2802 108.514 59.7974 108.028C58.4557 107.761 57.114 107.499 55.7828 107.238C53.3424 106.757 51.2505 105.966 51.1132 105.464C51.0392 105.186 50.9547 104.903 50.8808 104.62C50.7329 104.091 52.6979 104.054 55.2651 104.551C56.6703 104.823 58.086 105.095 59.5016 105.373C62.1111 105.881 64.2769 106.719 64.2875 107.232C64.2875 107.505 64.298 107.777 64.3086 108.044H64.2981Z" fill="white"/>
<path d="M80.3634 111.191C80.205 111.65 77.9652 111.607 75.3874 111.094C73.9929 110.817 72.5877 110.544 71.2038 110.272C68.6682 109.77 66.6187 108.979 66.6292 108.498C66.6292 108.231 66.6398 107.964 66.6503 107.691C66.6609 107.184 68.8478 107.184 71.5313 107.702C72.9998 107.985 74.4683 108.274 75.9579 108.557C78.6836 109.086 80.7966 109.924 80.6381 110.416C80.5536 110.678 80.4691 110.934 80.3845 111.191H80.3634Z" fill="white"/>
<path d="M97.1132 114.471C96.7857 114.909 94.3029 114.823 91.6195 114.294C90.1615 114.006 88.7036 113.723 87.2562 113.434C84.615 112.911 82.6077 112.12 82.7873 111.666C82.8824 111.41 82.9881 111.153 83.0831 110.897C83.2733 110.411 85.7032 110.448 88.4923 110.988C90.0242 111.287 91.5667 111.581 93.1091 111.88C95.9616 112.43 98.0112 113.274 97.6625 113.734C97.4724 113.985 97.2928 114.225 97.1026 114.471H97.1132Z" fill="white"/>
<path d="M114.588 117.895C114.059 118.306 111.334 118.178 108.534 117.628C107.013 117.329 105.502 117.03 103.991 116.73C101.234 116.185 99.2898 115.4 99.6385 114.967C99.8392 114.727 100.04 114.481 100.241 114.236C100.621 113.776 103.304 113.856 106.231 114.423C107.837 114.732 109.443 115.042 111.059 115.357C114.038 115.934 116.024 116.773 115.475 117.206C115.179 117.441 114.883 117.671 114.598 117.895H114.588Z" fill="white"/>
<path d="M132.835 121.474C132.096 121.854 129.106 121.683 126.179 121.111C124.595 120.796 123.01 120.486 121.436 120.176C118.562 119.61 116.671 118.825 117.22 118.419C117.527 118.194 117.833 117.964 118.15 117.735C118.742 117.307 121.71 117.425 124.764 118.018C126.444 118.344 128.123 118.67 129.814 118.995C132.93 119.599 134.843 120.433 134.071 120.839C133.659 121.052 133.247 121.266 132.835 121.48V121.474Z" fill="white"/>
<path d="M151.911 125.209C150.95 125.556 147.654 125.337 144.6 124.738C142.942 124.413 141.294 124.087 139.646 123.761C136.645 123.168 134.818 122.388 135.589 122.014C136.011 121.806 136.444 121.592 136.878 121.384C137.691 120.983 140.966 121.154 144.167 121.774C145.921 122.115 147.685 122.457 149.46 122.799C152.725 123.43 154.563 124.258 153.538 124.632C152.989 124.829 152.45 125.022 151.911 125.219V125.209Z" fill="white"/>
<path d="M171.888 129.124C170.673 129.434 167.07 129.167 163.869 128.537C162.136 128.195 160.404 127.853 158.682 127.516C155.544 126.897 153.801 126.122 154.794 125.78C155.343 125.588 155.903 125.395 156.474 125.203C157.53 124.84 161.143 125.064 164.503 125.711C166.341 126.069 168.19 126.426 170.049 126.784C173.472 127.447 175.216 128.27 173.927 128.601C173.24 128.777 172.553 128.953 171.877 129.124H171.888Z" fill="white"/>
<path d="M9.36292 99.9133C9.85946 100.405 8.59166 100.474 6.56323 100.068C5.46449 99.8492 4.37633 99.6302 3.2776 99.4112C1.29142 99.0105 -0.800399 98.2786 -1.3709 97.7711C-1.68784 97.4933 -2.01535 97.2102 -2.33229 96.9217C-2.93449 96.3928 -1.75124 96.286 0.330017 96.6973C1.47101 96.9217 2.612 97.1461 3.75299 97.3758C5.85538 97.7925 8.02119 98.5671 8.53886 99.0853C8.81355 99.3631 9.08823 99.6409 9.36292 99.9133Z" fill="white"/>
<path d="M22.3675 102.51C22.7479 102.99 21.3427 103.028 19.2403 102.611C18.0993 102.381 16.9689 102.157 15.8385 101.927C13.7784 101.511 11.7183 100.779 11.2428 100.287C10.9787 100.015 10.7146 99.7424 10.4399 99.4646C9.94336 98.9464 11.2745 98.8663 13.4297 99.2883C14.613 99.5234 15.7962 99.7531 16.9795 99.9882C19.1664 100.421 21.3005 101.195 21.7125 101.698C21.9238 101.97 22.1457 102.237 22.357 102.504L22.3675 102.51Z" fill="white"/>
<path d="M35.8498 105.197C36.1139 105.661 34.5503 105.677 32.3846 105.245C31.2013 105.01 30.0286 104.774 28.8559 104.539C26.7218 104.112 24.6829 103.375 24.3131 102.899C24.1124 102.632 23.901 102.365 23.7003 102.098C23.32 101.596 24.8096 101.537 27.0494 101.981C28.2749 102.221 29.5004 102.467 30.7365 102.712C33.0079 103.161 35.1103 103.936 35.3955 104.427C35.5434 104.689 35.7019 104.951 35.8498 105.207V105.197Z" fill="white"/>
<path d="M49.8342 107.991C49.9715 108.439 48.2389 108.429 45.9886 107.975C44.7631 107.729 43.5481 107.483 42.3332 107.243C40.1146 106.799 38.1178 106.062 37.8643 105.603C37.7269 105.346 37.579 105.09 37.4417 104.828C37.1776 104.342 38.8468 104.315 41.171 104.769C42.4494 105.02 43.7172 105.271 45.0061 105.528C47.3726 105.993 49.4327 106.773 49.5912 107.243C49.6757 107.494 49.7496 107.745 49.8342 107.996V107.991Z" fill="white"/>
<path d="M64.3722 110.891C64.3722 111.319 62.4706 111.281 60.1358 110.811C58.868 110.555 57.6002 110.304 56.343 110.053C54.0399 109.593 52.0749 108.856 51.9481 108.413C51.8741 108.167 51.8107 107.916 51.7368 107.665C51.61 107.195 53.4588 107.195 55.8782 107.67C57.1988 107.932 58.5299 108.194 59.8611 108.455C62.3121 108.942 64.3406 109.716 64.3617 110.165C64.3617 110.405 64.3722 110.646 64.3828 110.886L64.3722 110.891Z" fill="white"/>
<path d="M79.4716 113.904C79.3342 114.31 77.2318 114.241 74.8019 113.755C73.4813 113.488 72.1713 113.226 70.8613 112.964C68.4736 112.483 66.5403 111.752 66.5508 111.33C66.5508 111.094 66.5614 110.854 66.572 110.614C66.5826 110.165 68.6321 110.197 71.1465 110.694C72.5199 110.966 73.9039 111.239 75.2985 111.511C77.8551 112.019 79.8413 112.788 79.6934 113.221C79.6195 113.45 79.5455 113.68 79.4716 113.904Z" fill="white"/>
<path d="M95.1805 117.04C94.8847 117.425 92.5816 117.318 90.0566 116.816C88.6832 116.544 87.3203 116.266 85.968 115.993C83.4853 115.497 81.5942 114.765 81.7527 114.359C81.8372 114.134 81.9323 113.91 82.0168 113.68C82.1858 113.253 84.4467 113.317 87.0668 113.835C88.5036 114.118 89.9404 114.401 91.3878 114.69C94.0501 115.219 95.9834 115.988 95.6771 116.394C95.508 116.613 95.3496 116.827 95.1911 117.04H95.1805Z" fill="white"/>
<path d="M111.525 120.299C111.06 120.657 108.535 120.518 105.915 119.989C104.489 119.706 103.073 119.418 101.658 119.135C99.0799 118.616 97.2311 117.89 97.5481 117.505C97.7277 117.291 97.8967 117.078 98.0763 116.864C98.4144 116.463 100.897 116.565 103.633 117.104C105.134 117.398 106.634 117.697 108.134 117.997C110.912 118.547 112.782 119.311 112.307 119.695C112.043 119.898 111.789 120.101 111.536 120.304L111.525 120.299Z" fill="white"/>
<path d="M128.545 123.696C127.9 124.028 125.132 123.846 122.407 123.301C120.928 123.002 119.449 122.708 117.969 122.414C115.286 121.875 113.49 121.154 113.976 120.796C114.24 120.598 114.515 120.395 114.789 120.197C115.307 119.823 118.043 119.962 120.885 120.523C122.449 120.833 124.012 121.137 125.587 121.453C128.481 122.024 130.299 122.788 129.622 123.141C129.263 123.333 128.893 123.515 128.545 123.702V123.696Z" fill="white"/>
<path d="M146.294 127.244C145.449 127.548 142.438 127.324 139.586 126.752C138.043 126.443 136.501 126.133 134.969 125.828C132.169 125.267 130.437 124.546 131.113 124.215C131.482 124.033 131.863 123.846 132.243 123.659C132.962 123.312 135.962 123.499 138.931 124.081C140.558 124.402 142.195 124.728 143.833 125.048C146.854 125.647 148.608 126.405 147.721 126.726C147.245 126.897 146.77 127.068 146.305 127.239L146.294 127.244Z" fill="white"/>
<path d="M164.812 130.941C163.755 131.213 160.459 130.941 157.49 130.342C155.884 130.017 154.279 129.696 152.673 129.375C149.757 128.788 148.088 128.077 148.954 127.773C149.44 127.607 149.926 127.442 150.422 127.271C151.342 126.955 154.638 127.191 157.744 127.8C159.445 128.136 161.156 128.473 162.868 128.815C166.027 129.44 167.696 130.193 166.586 130.481C165.995 130.636 165.393 130.791 164.812 130.935V130.941Z" fill="white"/>
<path d="M0.308809 100.41C0.837047 100.87 -0.261708 100.923 -2.12111 100.544C-3.13533 100.335 -4.13897 100.132 -5.15319 99.9295C-6.99146 99.5555 -8.97764 98.8717 -9.57983 98.407C-9.91791 98.1505 -10.2454 97.8888 -10.594 97.627C-11.2279 97.1409 -10.1926 97.05 -8.28036 97.4293C-7.23444 97.6377 -6.18852 97.8514 -5.13204 98.0597C-3.19869 98.4497 -1.13856 99.1655 -0.578628 99.6463C-0.282815 99.9028 0.012995 100.159 0.308809 100.41Z" fill="white"/>
<path d="M12.2548 102.835C12.6986 103.279 11.473 103.316 9.53969 102.926C8.49378 102.712 7.44787 102.499 6.41252 102.29C4.51086 101.9 2.54582 101.222 2.02815 100.768C1.7429 100.517 1.45764 100.26 1.16183 100.004C0.623026 99.5285 1.77458 99.4538 3.76075 99.8544C4.83836 100.073 5.92655 100.292 7.01472 100.512C9.02203 100.912 11.0504 101.633 11.5153 102.098C11.7688 102.349 12.0119 102.595 12.2548 102.841V102.835Z" fill="white"/>
<path d="M24.6298 105.346C24.9679 105.779 23.6156 105.79 21.6189 105.384C20.5413 105.165 19.4637 104.946 18.386 104.727C16.421 104.326 14.4771 103.642 14.0545 103.199C13.8221 102.953 13.5791 102.707 13.3361 102.456C12.8924 101.991 14.1813 101.943 16.2309 102.355C17.3507 102.579 18.4811 102.809 19.6116 103.033C21.6823 103.45 23.7001 104.171 24.0593 104.62C24.2601 104.86 24.4502 105.106 24.6404 105.341L24.6298 105.346Z" fill="white"/>
<path d="M37.4351 107.942C37.6781 108.359 36.1779 108.348 34.1178 107.932C32.9979 107.702 31.878 107.478 30.7687 107.248C28.7403 106.831 26.8281 106.153 26.49 105.72C26.3104 105.485 26.1202 105.245 25.9406 105.004C25.592 104.555 27.0288 104.529 29.1523 104.956C30.3145 105.191 31.4766 105.426 32.6493 105.661C34.8045 106.094 36.7801 106.815 37.0337 107.248C37.171 107.483 37.3083 107.713 37.4351 107.942Z" fill="white"/>
<path d="M50.6885 110.63C50.8152 111.03 49.1671 110.998 47.033 110.56C45.8709 110.325 44.7193 110.09 43.5678 109.855C41.4654 109.428 39.5743 108.744 39.3524 108.327C39.2257 108.098 39.0989 107.868 38.9721 107.633C38.7397 107.2 40.335 107.2 42.5325 107.638C43.7368 107.878 44.9518 108.124 46.1562 108.365C48.3853 108.813 50.3398 109.535 50.4772 109.951C50.5511 110.176 50.6251 110.4 50.6885 110.619V110.63Z" fill="white"/>
<path d="M64.4277 113.418C64.4277 113.803 62.6317 113.739 60.4131 113.29C59.2193 113.044 58.0149 112.804 56.8211 112.558C54.6447 112.115 52.7853 111.431 52.6691 111.036C52.6057 110.817 52.5424 110.592 52.479 110.368C52.3628 109.951 54.1165 109.978 56.3985 110.437C57.6451 110.688 58.9023 110.94 60.1596 111.196C62.4732 111.661 64.3855 112.377 64.396 112.783C64.396 113.002 64.396 113.21 64.4066 113.424L64.4277 113.418Z" fill="white"/>
<path d="M78.6788 116.308C78.552 116.672 76.5764 116.581 74.2838 116.116C73.0372 115.865 71.8011 115.608 70.565 115.357C68.3042 114.898 66.4764 114.219 66.487 113.84C66.487 113.632 66.487 113.418 66.4976 113.204C66.5081 112.804 68.4415 112.863 70.808 113.338C72.1075 113.6 73.4069 113.862 74.717 114.123C77.1257 114.609 78.9957 115.325 78.8689 115.705C78.8055 115.908 78.7316 116.116 78.6682 116.314L78.6788 116.308Z" fill="white"/>
<path d="M93.4575 119.311C93.1934 119.653 91.0382 119.53 88.6611 119.049C87.3722 118.787 86.0833 118.526 84.8049 118.264C82.4701 117.788 80.6741 117.11 80.8114 116.747C80.8854 116.549 80.9699 116.346 81.0439 116.143C81.1918 115.764 83.3153 115.855 85.7769 116.346C87.1292 116.618 88.4709 116.886 89.8338 117.163C92.3376 117.666 94.1653 118.381 93.8906 118.739C93.7427 118.932 93.5948 119.124 93.4575 119.316V119.311Z" fill="white"/>
<path d="M108.819 122.425C108.407 122.746 106.051 122.591 103.589 122.089C102.248 121.816 100.916 121.544 99.5852 121.271C97.1553 120.78 95.4121 120.101 95.6868 119.759C95.8453 119.573 95.9932 119.38 96.1622 119.188C96.458 118.83 98.7823 118.953 101.339 119.466C102.744 119.749 104.149 120.032 105.554 120.315C108.153 120.839 109.939 121.549 109.506 121.886C109.273 122.067 109.041 122.244 108.819 122.42V122.425Z" fill="white"/>
<path d="M124.774 125.657C124.203 125.951 121.636 125.759 119.079 125.24C117.685 124.957 116.301 124.674 114.927 124.391C112.413 123.878 110.701 123.205 111.135 122.89C111.378 122.714 111.621 122.537 111.864 122.361C112.318 122.03 114.853 122.185 117.516 122.719C118.974 123.013 120.432 123.307 121.9 123.6C124.605 124.145 126.327 124.851 125.735 125.16C125.418 125.326 125.091 125.492 124.784 125.657H124.774Z" fill="white"/>
<path d="M141.36 129.023C140.621 129.29 137.832 129.06 135.169 128.515C133.722 128.221 132.285 127.928 130.849 127.634C128.228 127.1 126.58 126.432 127.172 126.143C127.499 125.983 127.838 125.817 128.165 125.652C128.788 125.347 131.567 125.54 134.335 126.101C135.856 126.405 137.378 126.715 138.909 127.019C141.73 127.586 143.389 128.285 142.618 128.569C142.195 128.718 141.783 128.868 141.371 129.017L141.36 129.023Z" fill="white"/>
<path d="M158.622 132.527C157.693 132.768 154.671 132.495 151.892 131.929C150.392 131.624 148.892 131.32 147.402 131.015C144.677 130.46 143.081 129.797 143.853 129.536C144.275 129.391 144.708 129.242 145.142 129.092C145.955 128.814 148.977 129.055 151.861 129.632C153.445 129.952 155.03 130.268 156.625 130.588C159.562 131.181 161.158 131.876 160.186 132.127C159.658 132.26 159.14 132.399 158.622 132.527Z" fill="white"/>
<path d="M3.45945 103.124C3.94543 103.541 2.86782 103.567 1.08238 103.204C0.110416 103.001 -0.850968 102.803 -1.81236 102.606C-3.56612 102.243 -5.44664 101.602 -5.99601 101.179C-6.30238 100.944 -6.59819 100.709 -6.91514 100.469C-7.48563 100.026 -6.47142 99.9668 -4.64371 100.335C-3.64006 100.538 -2.64697 100.747 -1.63275 100.95C0.216088 101.329 2.16 101.997 2.65655 102.43C2.93123 102.665 3.19533 102.894 3.45945 103.124Z" fill="white"/>
<path d="M14.8746 105.475C15.2655 105.875 14.0822 105.891 12.2439 105.512C11.2403 105.304 10.2472 105.101 9.25409 104.892C7.43695 104.518 5.5881 103.877 5.11268 103.466C4.85913 103.236 4.59502 103.007 4.3309 102.777C3.84492 102.344 4.97534 102.301 6.85586 102.686C7.89121 102.894 8.92656 103.108 9.96191 103.322C11.8741 103.712 13.7969 104.385 14.209 104.802C14.4308 105.026 14.6527 105.25 14.8746 105.475Z" fill="white"/>
<path d="M26.6762 107.9C26.9826 108.29 25.6726 108.279 23.7815 107.889C22.7461 107.675 21.7213 107.462 20.6966 107.253C18.8266 106.863 16.9883 106.228 16.5974 105.827C16.3861 105.608 16.1643 105.384 15.953 105.159C15.5515 104.743 16.7982 104.721 18.7526 105.116C19.8197 105.336 20.8973 105.555 21.9643 105.774C23.94 106.18 25.8311 106.847 26.1586 107.253C26.3382 107.472 26.5072 107.691 26.6762 107.905V107.9Z" fill="white"/>
<path d="M38.8602 110.411C39.0715 110.785 37.6347 110.758 35.6802 110.352C34.6132 110.133 33.5462 109.914 32.4897 109.695C30.5563 109.294 28.7392 108.658 28.4434 108.268C28.2743 108.055 28.1053 107.841 27.9468 107.622C27.6405 107.216 29.0139 107.216 31.0317 107.627C32.1305 107.852 33.2503 108.076 34.3596 108.306C36.4092 108.723 38.2686 109.39 38.501 109.786C38.6278 109.999 38.744 110.208 38.8602 110.416V110.411Z" fill="white"/>
<path d="M51.4568 113.002C51.5731 113.36 49.9989 113.306 47.9705 112.889C46.8717 112.66 45.773 112.435 44.6742 112.211C42.6775 111.8 40.8815 111.159 40.6808 110.785C40.5646 110.576 40.4589 110.368 40.3427 110.16C40.1314 109.77 41.6527 109.791 43.734 110.218C44.875 110.453 46.0266 110.683 47.1676 110.918C49.2805 111.351 51.1293 112.019 51.2455 112.393C51.3089 112.596 51.3723 112.799 51.4357 112.996L51.4568 113.002Z" fill="white"/>
<path d="M64.4805 115.683C64.4805 116.025 62.769 115.95 60.6771 115.518C59.5361 115.283 58.4057 115.048 57.2753 114.812C55.2046 114.385 53.4508 113.749 53.3452 113.391C53.2924 113.194 53.229 112.996 53.1762 112.793C53.0705 112.419 54.7398 112.467 56.9055 112.905C58.0888 113.146 59.272 113.386 60.4659 113.632C62.6528 114.081 64.4699 114.748 64.4699 115.106C64.4699 115.299 64.4699 115.491 64.4805 115.683Z" fill="white"/>
<path d="M77.972 118.456C77.8664 118.782 75.9965 118.675 73.8307 118.226C72.6474 117.981 71.4747 117.74 70.302 117.5C68.168 117.056 66.4353 116.426 66.4353 116.084C66.4353 115.897 66.4353 115.705 66.4459 115.513C66.4459 115.155 68.2842 115.229 70.5239 115.689C71.7494 115.94 72.9749 116.191 74.211 116.442C76.4824 116.907 78.2573 117.569 78.1411 117.911C78.0777 118.093 78.0249 118.274 77.9615 118.456H77.972Z" fill="white"/>
<path d="M91.9359 121.33C91.7035 121.634 89.6751 121.501 87.4248 121.036C86.2099 120.785 84.9949 120.534 83.7799 120.283C81.5613 119.829 79.871 119.193 79.9978 118.873C80.0612 118.696 80.1351 118.515 80.2091 118.333C80.3359 117.996 82.3326 118.098 84.6568 118.573C85.9246 118.835 87.2029 119.092 88.4813 119.353C90.8372 119.834 92.5699 120.497 92.3269 120.817C92.2001 120.988 92.0733 121.159 91.9359 121.33Z" fill="white"/>
<path d="M106.412 124.311C106.042 124.599 103.845 124.434 101.521 123.953C100.253 123.691 98.9957 123.429 97.7385 123.173C95.446 122.698 93.7873 122.073 94.0303 121.768C94.1676 121.597 94.3049 121.431 94.4529 121.261C94.717 120.945 96.8933 121.079 99.2915 121.57C100.612 121.837 101.933 122.11 103.264 122.382C105.704 122.885 107.405 123.542 107.025 123.841C106.824 124.001 106.613 124.161 106.412 124.322V124.311Z" fill="white"/>
<path d="M121.425 127.399C120.918 127.661 118.531 127.463 116.111 126.966C114.801 126.694 113.502 126.427 112.192 126.16C109.815 125.668 108.198 125.043 108.579 124.76C108.79 124.605 109.001 124.445 109.223 124.29C109.625 123.996 111.991 124.162 114.495 124.669C115.858 124.947 117.242 125.23 118.615 125.513C121.151 126.031 122.799 126.688 122.271 126.961C121.985 127.11 121.7 127.255 121.425 127.404V127.399Z" fill="white"/>
<path d="M136.995 130.604C136.33 130.839 133.752 130.604 131.248 130.091C129.896 129.808 128.544 129.53 127.191 129.252C124.73 128.745 123.155 128.12 123.684 127.863C123.98 127.719 124.275 127.575 124.571 127.431C125.131 127.158 127.698 127.361 130.297 127.89C131.724 128.179 133.15 128.472 134.576 128.766C137.217 129.306 138.802 129.958 138.115 130.209C137.745 130.342 137.376 130.476 137.006 130.609L136.995 130.604Z" fill="white"/>
<path d="M153.157 133.927C152.333 134.141 149.533 133.868 146.945 133.334C145.54 133.04 144.135 132.752 142.73 132.463C140.173 131.934 138.652 131.32 139.328 131.085C139.708 130.957 140.088 130.823 140.469 130.69C141.187 130.444 143.976 130.69 146.681 131.235C148.16 131.539 149.639 131.838 151.129 132.143C153.875 132.704 155.407 133.35 154.541 133.569C154.076 133.687 153.611 133.809 153.157 133.922V133.927Z" fill="white"/>
</g>
</svg>
