<svg width="259" height="223" viewBox="0 0 259 223" fill="none" xmlns="http://www.w3.org/2000/svg">
<path d="M256.235 234.07C237.775 231.307 218.06 229.19 197.578 227.764C197.32 224.183 194.34 221.348 190.705 221.348H188.211V209.35C201.891 209.361 231.062 209.339 244.907 209.35C247.105 209.411 248.817 207.007 248.024 204.94L229.432 151.67C228.969 150.338 227.719 149.448 226.315 149.448H133.343C131.938 149.448 130.688 150.338 130.225 151.67L111.633 204.94C110.857 207.007 112.536 209.416 114.75 209.35C128.7 209.328 157.69 209.367 171.441 209.35V221.348C167.449 221.033 163.852 221.995 162.421 226.035C140.596 225.372 118.231 225.488 96.5821 226.366C95.007 222.829 94.9575 220.995 90.4471 221.348C89.7862 212.854 89.0042 104.932 88.839 93.1442L120.169 135.422C121.706 137.489 124.068 138.583 126.464 138.583C132.175 138.799 136.278 131.891 133.315 126.928L110.934 86.109C107.233 78.6924 99.2586 75.791 92.1984 72.6519C92.0882 72.3756 91.9726 72.1048 91.8404 71.8395L117.642 11.9542C119.911 6.9251 115.929 0.884628 110.438 0.989631C107.701 0.989631 105.129 2.44863 103.725 4.78634L79.686 44.638C75.5006 51.0709 76.4368 58.6809 77.2188 65.8819C75.06 66.6612 73.1545 68.0594 71.7612 69.8997L7.5584 77.3771C1.0489 77.9574 -1.75976 86.739 3.20772 91.0054C4.61205 92.2876 6.42943 93.0116 8.31288 93.0503L54.7275 94.0119C61.7106 94.3545 67.4601 90.6849 72.791 86.6119C72.6423 96.2998 71.7337 216.186 71.1169 221.348C69.2885 221.232 67.0856 221.348 66.3036 223.332L64.1502 228.273C42.8099 229.931 22.3837 232.352 3.40047 235.48C-0.542673 236.11 -0.0360122 242.095 3.93467 242.067C21.9266 239.215 41.0421 236.767 61.1433 235.164C59.7004 237.458 60.9671 240.586 63.8198 240.608H97.7276C100.035 240.674 101.742 238.06 100.757 235.96L99.4128 232.882C120.048 232.103 141.256 232.025 162.029 232.655C162.09 235.491 161.242 239.713 165.334 239.917H194.285C197.534 239.713 197.744 237.049 197.589 234.407C217.927 235.8 237.379 238.005 255.74 240.663C259.755 240.636 260.228 234.7 256.224 234.065L256.235 234.07ZM79.1243 81.8812C72.8516 79.0295 76.9214 69.6123 83.2822 72.2319C89.5659 75.0946 85.4851 84.5229 79.1243 81.8812ZM127.67 130.713C127.709 131.874 126.128 132.41 125.462 131.46L119.046 122.799C120.12 122.02 121.161 121.213 122.168 120.373L127.516 130.128C127.615 130.31 127.665 130.503 127.665 130.713H127.67ZM105.135 89.3033L118.919 114.438C117.697 115.504 116.43 116.51 115.103 117.472L90.5572 84.3515C91.5155 83.1191 92.2534 81.6546 92.6499 80.1348C97.4137 82.1796 102.69 84.3681 105.14 89.3033H105.135ZM109.375 8.20725C110.097 6.9251 112.178 7.96409 111.562 9.32361L106.947 20.034C105.713 19.4592 104.463 18.9397 103.191 18.4534L109.375 8.20173V8.20725ZM85.3364 48.0589L99.7047 24.2341C101.263 24.7923 102.816 25.4168 104.325 26.1242L86.8784 66.6225C85.9257 66.0864 84.8793 65.6995 83.8164 65.4619C83.3428 60.0017 82.0046 52.8946 85.3419 48.0589H85.3364ZM7.65753 86.0924C6.90304 85.501 7.29956 84.0199 8.3294 83.9591L19.0299 82.7157C19.14 84.0586 19.2887 85.3684 19.4815 86.645C19.1786 86.5179 7.44826 86.7058 7.65753 86.0979V86.0924ZM64.3981 84.4344C61.6004 86.435 58.3071 87.4519 54.8761 87.3745L26.1947 86.7832C25.9304 85.2302 25.7321 83.622 25.5999 81.953L69.3711 76.8576C69.349 78.1066 69.5253 79.3556 69.8942 80.5548L64.3981 84.4399V84.4344ZM78.2376 205.161C78.2376 205.161 79.3831 88.828 79.3886 88.7948C80.3194 88.9496 81.2556 88.9993 82.1863 88.9109C82.357 100.909 83.1721 213.025 83.8329 221.343H77.7365L78.2376 205.161ZM68.8809 233.976L71.4968 227.974H90.0671L91.4274 231.091C91.4329 231.108 91.4494 231.141 91.4549 231.158L92.683 233.976H68.8754H68.8809ZM174.74 202.713H151.213L154.705 182.707H176.519V202.713H174.74ZM176.519 156.075V176.075H155.861L159.353 156.075H176.519ZM200.288 156.075L203.779 176.075H183.128V156.075H200.288ZM183.128 182.707H204.936L208.428 202.713H183.128V182.707ZM215.135 202.713L211.644 182.707H233.259L240.243 202.713H215.135ZM230.946 176.075H210.487L206.996 156.075H223.963L230.946 176.075ZM135.683 156.075H152.645L149.154 176.075H128.7L135.683 156.075ZM126.387 182.707H147.997L144.506 202.713H119.404L126.387 182.707ZM178.044 209.345H181.597V221.343H178.044V209.345ZM190.992 233.285H168.649V228.267C168.649 228.107 168.781 227.974 168.941 227.974H190.7C190.86 227.974 190.992 228.107 190.992 228.267V233.285Z" fill="white"/>
</svg>
