<svg width="121" height="121" viewBox="0 0 121 121" fill="none" xmlns="http://www.w3.org/2000/svg">
<g opacity="0.03">
<path d="M31.8682 20.8691C32.7538 22.3121 34.2906 23.1067 35.8638 23.1067C36.7024 23.1067 37.5516 22.8807 38.3177 22.4073C40.5219 21.0446 41.2083 18.1471 39.8505 15.9352L36.3316 10.2023C34.974 7.99039 32.0861 7.302 29.8821 8.66415C27.6779 10.0268 26.9917 12.9243 28.3493 15.1363L31.8682 20.8691Z" fill="white"/>
<path d="M15.7808 81.0792L9.83342 84.375C7.56719 85.6309 6.74454 88.4925 7.99625 90.7667C8.85108 92.32 10.4522 93.1976 12.1039 93.1976C12.8702 93.1976 13.6473 93.0089 14.3656 92.6106L20.313 89.3148C22.5792 88.0589 23.4019 85.1972 22.1502 82.923C20.8987 80.6489 18.0475 79.8233 15.7808 81.0792Z" fill="white"/>
<path d="M60 16.991C62.5889 16.991 64.6874 14.8851 64.6874 12.2871V5.23124C64.6874 2.63326 62.5889 0.527344 60 0.527344C57.4111 0.527344 55.3125 2.63326 55.3125 5.23124V12.2871C55.3125 14.8848 57.4111 16.991 60 16.991Z" fill="white"/>
<path d="M16.4063 60.7371C16.4063 58.1391 14.3078 56.0332 11.7189 56.0332H4.68745C2.09855 56.0332 0 58.1391 0 60.7371C0 63.3351 2.09855 65.441 4.68745 65.441H11.7186C14.3078 65.4412 16.4063 63.3353 16.4063 60.7371Z" fill="white"/>
<path d="M55.7973 87.6967C55.5291 87.6548 55.2626 87.6095 54.997 87.5598C42.1427 85.1631 32.8126 73.8822 32.8126 60.737C32.8126 47.2039 42.8653 35.5883 56.1968 33.7183C56.5261 33.6719 56.8621 33.6314 57.1961 33.597C59.7716 33.3325 61.6456 31.0235 61.3826 28.4387C61.1191 25.8544 58.8176 23.9731 56.2424 24.2377C55.7936 24.2837 55.3413 24.3386 54.8984 24.4008C46.2433 25.615 38.2892 29.9316 32.501 36.556C26.656 43.2449 23.4375 51.8323 23.4375 60.737C23.4375 78.4141 35.99 93.5848 53.2841 96.8095C53.6375 96.8752 53.9994 96.9372 54.3589 96.9933C54.6027 97.0315 54.8446 97.0498 55.0839 97.0498C57.3555 97.0496 59.351 95.3893 59.7103 93.0668C60.1072 90.4995 58.3555 88.0955 55.7973 87.6967Z" fill="white"/>
<path d="M119.252 52.4785C117.467 48.5782 113.65 46.1553 109.29 46.1553H100.864L119.551 14.9449C120.421 13.4918 120.445 11.6812 119.613 10.2059C118.781 8.73062 117.222 7.81836 115.533 7.81836H87.6568C85.9888 7.81836 84.4465 8.708 83.6068 10.1538L56.2707 57.2277C56.2486 57.2656 56.2272 57.3035 56.2065 57.3422C53.8041 61.7586 53.8976 66.9786 56.4562 71.3054C59.0148 75.6325 63.536 78.2159 68.5498 78.2159H73.1361L61.2932 111.317C60.3771 113.503 60.534 115.805 61.7345 117.668C63.0597 119.724 65.4894 120.949 68.2396 120.949C68.2521 120.949 68.2643 120.949 68.2765 120.949C70.6125 120.94 72.8705 120.01 74.4716 118.399C74.6132 118.256 74.7457 118.105 74.868 117.945L100.489 84.511C102.067 82.4515 101.683 79.4981 99.6307 77.9147C97.5784 76.3308 94.6354 76.7163 93.0575 78.776L73.9982 103.647L84.211 75.1018C84.7267 73.6607 84.5109 72.0581 83.6331 70.8056C82.755 69.5532 81.325 68.8081 79.799 68.8081H68.5491C66.1401 68.8081 64.9276 67.1973 64.5178 66.5047C64.1113 65.8175 63.2931 64.0002 64.4084 61.8988L90.3505 17.2264H107.248L88.5607 48.4371C87.6907 49.8902 87.6672 51.7006 88.499 53.1761C89.3308 54.6516 90.8897 55.5636 92.5787 55.5636H109.29C110.21 55.5636 110.589 56.0913 110.733 56.4057C110.901 56.7738 110.988 57.3457 110.444 57.9813C110.432 57.995 110.42 58.0087 110.409 58.0223L108.484 60.3236C106.82 62.3133 107.079 65.2806 109.062 66.9508C111.045 68.6209 114.001 68.3615 115.666 66.3715L117.575 64.0886C120.38 60.7938 121.023 56.3484 119.252 52.4785Z" fill="white"/>
<path d="M20.8475 31.0203L15.1258 27.7276C12.8802 26.4355 10.0154 27.2143 8.72749 29.468C7.43961 31.7217 8.216 34.5963 10.4618 35.8887L16.1837 39.1815C16.919 39.6045 17.7205 39.8057 18.5112 39.8057C20.1359 39.8055 21.7157 38.9566 22.582 37.4411C23.8699 35.1874 23.0932 32.3127 20.8475 31.0203Z" fill="white"/>
<path d="M36.816 98.0695C34.5803 96.7606 31.7098 97.5174 30.4045 99.7611L26.9796 105.65C25.6748 107.893 26.4294 110.774 28.6653 112.084C29.4083 112.519 30.2214 112.726 31.0238 112.726C32.6358 112.726 34.2052 111.89 35.0767 110.392L38.5017 104.504C39.8064 102.26 39.0519 99.3791 36.816 98.0695Z" fill="white"/>
</g>
</svg>
