<svg width="118" height="150" viewBox="0 0 118 150" fill="none" xmlns="http://www.w3.org/2000/svg">
<g opacity="0.3">
<path d="M42.4132 14.6701L50.296 0L54.9568 15.9879L65.717 3.27785L66.951 19.8853L80.1193 9.6908L77.8737 26.1917L92.8738 18.9575L87.247 34.631L103.423 30.6736L94.6602 44.8348L111.306 44.327L99.7905 56.3574L116.178 59.3208L102.413 68.6941L117.825 75.0005L102.413 81.3069L116.178 90.6792L99.7905 93.6436L111.306 105.673L94.6602 105.165L103.423 119.326L87.247 115.369L92.8738 131.044L77.8737 123.808L80.1193 140.31L66.951 130.115L65.717 146.722L54.9568 134.012L50.296 150L42.4132 135.331L34.5305 150L29.8697 134.012L19.1094 146.722L17.8744 130.115L4.7061 140.31L6.95166 123.808L-8.04844 131.044L-2.42159 115.369L-18.5978 119.326L-9.83476 105.165L-26.4805 105.673L-14.9651 93.6436L-31.3523 90.6792L-17.5872 81.3069L-33 75.0005L-17.5872 68.6941L-31.3523 59.3208L-14.9651 56.3574L-26.4805 44.327L-9.83476 44.8348L-18.5978 30.6736L-2.42159 34.631L-8.04844 18.9575L6.95166 26.1917L4.7061 9.6908L17.8744 19.8853L19.1094 3.27785L29.8697 15.9879L34.5305 0L42.4132 14.6701Z" fill="url(#paint0_linear_1_8986)"/>
<path d="M97.0267 86.4723L111.805 82.1259L98.2183 74.8669L111.771 67.5416L96.9709 63.2667L108.704 53.2842L93.3393 52.1785L102.741 39.9753L87.4818 42.0884L94.1409 28.1971L79.6538 33.4371L83.2792 18.4639L70.1989 26.6011L70.6312 11.2028L59.5285 21.8814L56.7503 6.72926L48.1104 19.4828L42.2425 5.23877L36.4429 19.5107L27.742 6.79857L25.0372 21.9642L13.8828 11.3383L14.3896 26.7346L1.26996 18.6605L4.96671 33.6151L-9.54413 28.4454L-2.81882 42.3046L-18.0878 40.2638L-8.62874 52.4226L-23.9878 53.6017L-12.2066 63.5273L-26.9863 67.8737L-13.3991 75.1337L-26.9512 82.458L-12.1517 86.734L-23.8854 96.7164L-8.52014 97.8211L-17.9213 110.025L-2.66159 107.911L-9.32072 121.803L5.16531 116.563L1.53992 131.536L14.6213 123.398L14.1879 138.798L25.2906 128.118L28.0689 143.271L36.7088 130.517L42.5766 144.761L48.3762 130.489L57.0771 143.202L59.783 128.036L70.9363 138.662L70.4295 123.265L83.5492 131.34L79.8524 116.385L94.3643 121.555L87.638 107.696L102.908 109.736L93.4479 97.577L108.808 96.3989L97.0267 86.4723Z" fill="url(#paint1_linear_1_8986)"/>
<path d="M102.543 75.0005C102.543 105.766 79.4348 131.139 49.628 134.704C47.2625 134.99 44.8535 135.134 42.4083 135.134C9.19749 135.134 -17.7266 108.21 -17.7266 75.0005C-17.7266 59.8742 -12.1432 46.0523 -2.92195 35.4874C8.10315 22.8519 24.3238 14.8667 42.4083 14.8667C75.6191 14.8667 102.543 41.7907 102.543 75.0005Z" fill="url(#paint2_linear_1_8986)"/>
<path style="mix-blend-mode:multiply" opacity="0.2" d="M70.0026 110.462C66.9596 118.941 59.8091 127.274 49.628 134.704C47.2625 134.989 44.8535 135.134 42.4083 135.134C9.19749 135.134 -17.7266 108.21 -17.7266 75.0004C-17.7266 59.8741 -12.1432 46.0521 -2.92195 35.4873C-2.44512 39.8647 -0.200586 44.7416 5.23387 49.753C10.7945 54.8699 19.6961 60.1306 33.4726 65.1255C66.3483 77.0515 75.8974 94.021 70.0016 110.462H70.0026Z" fill="url(#paint3_linear_1_8986)"/>
<g style="mix-blend-mode:soft-light" opacity="0.3">
<path d="M42.4095 119.932C67.2242 119.932 87.3405 99.8155 87.3405 75.0008C87.3405 50.1861 67.2242 30.0698 42.4095 30.0698C17.5948 30.0698 -2.52148 50.1861 -2.52148 75.0008C-2.52148 99.8155 17.5948 119.932 42.4095 119.932Z" fill="white"/>
</g>
</g>
<defs>
<linearGradient id="paint0_linear_1_8986" x1="31.7708" y1="261.992" x2="45.5731" y2="19.4695" gradientUnits="userSpaceOnUse">
<stop stop-color="#FFC444"/>
<stop offset="1" stop-color="#F36F56"/>
</linearGradient>
<linearGradient id="paint1_linear_1_8986" x1="31.6092" y1="247.746" x2="45.6153" y2="23.6934" gradientUnits="userSpaceOnUse">
<stop stop-color="#FFC444"/>
<stop offset="1" stop-color="#F36F56"/>
</linearGradient>
<linearGradient id="paint2_linear_1_8986" x1="82.5782" y1="-23.5996" x2="-4.18491" y2="189.366" gradientUnits="userSpaceOnUse">
<stop stop-color="#FCB148"/>
<stop offset="0.05" stop-color="#FDB946"/>
<stop offset="0.14" stop-color="#FEC144"/>
<stop offset="0.32" stop-color="#FFC444"/>
<stop offset="0.48" stop-color="#FDB946"/>
<stop offset="0.78" stop-color="#F99C4C"/>
<stop offset="0.87" stop-color="#F8924F"/>
<stop offset="1" stop-color="#F8924F"/>
</linearGradient>
<linearGradient id="paint3_linear_1_8986" x1="-17.7266" y1="85.3108" x2="71.639" y2="85.3108" gradientUnits="userSpaceOnUse">
<stop stop-color="#FCB148"/>
<stop offset="0.05" stop-color="#FDB946"/>
<stop offset="0.14" stop-color="#FEC144"/>
<stop offset="0.32" stop-color="#FFC444"/>
<stop offset="0.48" stop-color="#FDB946"/>
<stop offset="0.78" stop-color="#F99C4C"/>
<stop offset="0.87" stop-color="#F8924F"/>
<stop offset="1" stop-color="#F8924F"/>
</linearGradient>
</defs>
</svg>
