<svg width="23" height="237" viewBox="0 0 23 237" fill="none" xmlns="http://www.w3.org/2000/svg">
<path d="M7.56139 10.5078L5.80957 277.317H22.6721L14.2163 10.5078H7.56139Z" fill="white"/>
<path d="M18.0666 12.2336C16.3833 16.9292 11.2355 19.3751 6.55744 17.6856C1.8794 15.996 -0.557497 10.8289 1.12582 6.13341C2.80913 1.4379 7.95694 -1.00808 12.635 0.681518C17.313 2.37112 19.7499 7.53814 18.0666 12.2336Z" fill="white"/>
<path d="M14.5294 9.10372C14.5294 11.8837 12.2882 14.1332 9.51861 14.1332C6.74897 14.1332 4.50781 11.8837 4.50781 9.10372C4.50781 6.32374 6.74897 4.07422 9.51861 4.07422C12.2882 4.07422 14.5294 6.32374 14.5294 9.10372Z" fill="#BDC5CA"/>
</svg>
