<svg width="78" height="64" viewBox="0 0 78 64" fill="none" xmlns="http://www.w3.org/2000/svg">
<path d="M41.0233 40.7357C36.0227 40.7081 30.9121 40.686 23.995 40.6583C22.1501 40.6418 20.6852 42.1284 20.6797 43.9632C20.6742 45.798 22.1446 47.2846 23.973 47.2902C38.6056 47.3454 45.1812 47.4007 60.0616 47.4504C64.2581 47.467 68.3775 47.8152 70.0957 50.2579C71.3624 51.9324 70.4977 55.3423 68.5812 56.1989C66.3068 57.1771 64.4068 55.7733 63.7074 53.7617C63.1732 52.0098 61.3228 51.0261 59.577 51.5677C54.0698 53.933 59.621 61.007 63.2668 62.3278C64.5279 62.8749 65.8717 63.1512 67.2044 63.1512C75.3165 63.3889 80.1518 52.7946 75.4927 46.4391C71.5716 40.8628 63.812 40.8352 60.0836 40.8241C52.2304 40.7965 46.7012 40.7689 41.0288 40.7412L41.0233 40.7357Z" fill="white"/>
<path d="M16.5823 23.0661C31.3581 23.0163 36.0832 22.9611 50.8535 22.9113C58.0845 23.4419 70.36 20.0873 67.7165 8.54792C65.2053 -1.81982 51.228 -1.96904 48.155 8.0229C46.9489 12.212 53.128 14.1131 54.4717 9.96823C54.8132 8.84635 55.6117 7.94553 56.6581 7.48683C59.8853 5.88966 62.7986 10.7033 60.8656 13.4665C59.1418 15.9092 55.028 16.2629 50.8315 16.274C36.0612 16.3237 31.3416 16.379 16.5713 16.4287C12.2536 16.5061 12.2316 22.9887 16.5823 23.0605V23.0661Z" fill="white"/>
<path d="M44.6633 35.2353C48.992 35.158 49.0085 28.6754 44.6633 28.6035C26.7044 28.6311 21.9186 28.6533 3.29882 28.6754C1.47594 28.6754 -0.00549188 30.162 1.5305e-05 31.9968C1.5305e-05 33.8261 1.48145 35.3127 3.30983 35.3072C21.9296 35.2851 26.7099 35.263 44.6688 35.2353H44.6633Z" fill="white"/>
</svg>
