<svg width="90" height="90" viewBox="0 0 90 90" fill="none" xmlns="http://www.w3.org/2000/svg">
<path d="M21.8956 52.4704C28.3941 73.3606 57.7364 75.5049 67.2693 56.1786C77.3585 36.9188 58.3752 14.4866 37.8004 21.3616C25.1118 25.1694 17.578 39.9086 21.9011 52.4704H21.8956ZM29.3083 36.6369C36.5007 22.3785 57.7144 24.1138 62.5056 39.3559C65.6667 48.5465 60.154 59.3288 50.8689 62.1196C35.983 67.2538 21.8295 50.525 29.3028 36.6369H29.3083Z" fill="white"/>
<path d="M32.5797 15.9189C33.9951 20.0583 40.1301 18.0466 38.8689 13.8852L35.2232 2.51162C33.8243 -1.61116 27.6728 0.367334 28.934 4.54538L32.5797 15.9189Z" fill="white"/>
<path d="M4.11866 61.5246C4.00301 61.9115 16.1629 57.7279 16.4713 57.7058C20.5797 56.3021 18.6081 50.129 14.4501 51.3945L3.11085 55.0531C-0.441287 56.1529 0.450875 61.5854 4.12417 61.5246H4.11866Z" fill="white"/>
<path d="M53.9473 71.7297C52.2125 72.2934 51.2543 74.1613 51.816 75.9022L55.4673 87.2813C56.0235 89.0387 57.9345 89.9837 59.6252 89.42C61.36 88.8563 62.3182 86.9884 61.7565 85.2475L58.1052 73.8684C57.549 72.1276 55.6876 71.166 53.9473 71.7297Z" fill="white"/>
<path d="M72.0883 36.2619C72.6445 38.0193 74.5555 38.9644 76.2462 38.4007L87.58 34.7421C89.3203 34.1839 90.273 32.316 89.7168 30.5696C89.1606 28.8287 87.2992 27.8671 85.5589 28.4308L74.2251 32.0894C72.4848 32.6476 71.5321 34.5155 72.0883 36.2619Z" fill="white"/>
<path d="M19.8524 26.2083C23.0631 29.1042 27.4798 24.2187 24.2857 21.2897L20.1112 17.4985C18.7564 16.2716 16.6692 16.3766 15.4466 17.7306C14.224 19.0901 14.3232 21.1847 15.6779 22.4115L19.8524 26.2027V26.2083Z" fill="white"/>
<path d="M8.45789 40.312L13.9596 41.5002C15.6999 41.8925 17.5117 40.7596 17.8862 38.958C18.2717 37.1674 17.1372 35.4044 15.3529 35.0176L9.85121 33.8294C5.58865 32.9838 4.22837 39.3227 8.45789 40.312Z" fill="white"/>
<path d="M21.8183 66.0259L18.0403 70.215C16.0908 72.2321 17.7374 75.852 20.491 75.7581C21.3942 75.7581 22.2919 75.3878 22.9417 74.6693L26.7197 70.4802C29.6054 67.2528 24.7371 62.826 21.8183 66.0314V66.0259Z" fill="white"/>
<path d="M35.4977 75.0027L34.3137 80.5237C33.8511 82.5575 35.4757 84.5636 37.5464 84.5359C39.0719 84.5359 40.4377 83.4749 40.7736 81.9164L41.9576 76.3954C42.8002 72.1179 36.4835 70.7528 35.4977 74.9972V75.0027Z" fill="white"/>
<path d="M70.8378 63.5848C67.6216 60.6889 63.2103 65.5743 66.4045 68.5034L70.5789 72.2946C71.9282 73.5214 74.0154 73.422 75.2435 72.0624C76.4661 70.7029 76.367 68.6084 75.0122 67.3815L70.8378 63.5903V63.5848Z" fill="white"/>
<path d="M81.544 56.0401C85.399 56.0788 86.0654 50.2815 82.2379 49.4801L76.7362 48.2864C74.9574 47.8996 73.1951 49.038 72.8096 50.8286C72.4241 52.6192 73.5586 54.3821 75.3429 54.769C75.7394 54.8353 81.3182 56.1341 81.544 56.0401Z" fill="white"/>
<path d="M66.421 24.8537C67.3186 24.8537 68.2163 24.489 68.8717 23.765L72.6496 19.5814C73.8722 18.2219 73.7731 16.1274 72.4183 14.8949C71.0635 13.6681 68.9763 13.7675 67.7482 15.1271L63.9703 19.3106C62.0207 21.3278 63.6619 24.9477 66.4155 24.8537H66.421Z" fill="white"/>
<path d="M51.2648 17.3408C53.005 17.7332 54.8169 16.6002 55.1914 14.7986L56.3754 9.27759C56.7609 7.487 55.6265 5.72405 53.8421 5.33719C52.0578 4.95034 50.301 6.0888 49.9155 7.87938L48.7315 13.4004C48.346 15.191 49.4804 16.9539 51.2648 17.3408Z" fill="white"/>
</svg>
