<svg width="80" height="81" viewBox="0 0 80 81" fill="none" xmlns="http://www.w3.org/2000/svg">
<g opacity="0.08">
<path d="M76.7138 46.6H73.4691V38.6957C73.4691 35.8865 71.1917 33.6011 68.3924 33.6011H63.8652C63.2178 33.6011 62.6933 34.1277 62.6933 34.7771C62.6933 35.4266 63.2178 35.9531 63.8652 35.9531H68.3925C69.8995 35.9531 71.1255 37.1835 71.1255 38.6957V72.2187C71.1255 73.731 69.8994 74.9612 68.3925 74.9612H36.3797L38.6261 71.2758H65.2786C66.4777 71.2758 67.4531 70.2969 67.4531 69.0937V41.8206C67.4531 40.6174 66.4777 39.6385 65.2786 39.6385H41.6194L42.387 35.9531H58.3964C59.0438 35.9531 59.5683 35.4266 59.5683 34.7771C59.5683 34.1277 59.0438 33.6011 58.3964 33.6011H42.8769L43.0858 32.5979C43.2625 31.7503 42.8255 30.9352 42.0231 30.6162C41.2203 30.2969 40.3461 30.5904 39.8959 31.3291L38.512 33.6011H5.07672C2.27734 33.6011 0 35.8866 0 38.6957V72.2187C0 75.0279 2.2775 77.3132 5.07672 77.3132H30.5816L30.3725 78.314C30.1955 79.1618 30.6322 79.977 31.4345 80.2966C31.6519 80.383 31.8742 80.4247 32.0924 80.4247C32.6794 80.4247 33.2336 80.123 33.5619 79.5843L34.9461 77.3133H68.3925C71.1919 77.3133 73.4692 75.0279 73.4692 72.2188V64.3145H76.7139C78.4806 64.3145 79.918 62.9033 79.918 61.1689V49.7455C79.9178 48.011 78.4805 46.6 76.7138 46.6ZM65.1092 41.9903V68.9237H40.0595L49.7753 52.9839C50.0703 52.5 50.0819 51.8921 49.8055 51.3974C49.5291 50.9026 49.0063 50.5952 48.4411 50.5952H39.337L41.1294 41.9903H65.1092ZM5.07672 74.9612C3.56969 74.9612 2.34375 73.7308 2.34375 72.2187V38.6957C2.34375 37.1833 3.56984 35.9531 5.07672 35.9531H37.0795L34.8349 39.6385H8.19078C6.99172 39.6385 6.01625 40.6174 6.01625 41.8206V69.0937C6.01625 70.2969 6.99172 71.2758 8.19078 71.2758H17.9277C18.5748 71.2758 19.0995 70.7493 19.0995 70.0998C19.0995 69.4504 18.5748 68.9239 17.9277 68.9239H8.36V41.9903H33.4023L23.6931 57.9307C23.3984 58.4144 23.387 59.0224 23.6634 59.5171C23.9398 60.0118 24.4627 60.3189 25.0277 60.3189H34.1311L32.3338 68.9237H23.3964C22.7492 68.9237 22.2245 69.4502 22.2245 70.0997C22.2245 70.7491 22.7492 71.2757 23.3964 71.2757H31.8425L31.0727 74.9611H5.07672V74.9612ZM33.3814 75.3727L36.6219 59.8589C36.7191 59.3941 36.6036 58.9159 36.3053 58.5473C36.0069 58.1785 35.5644 57.9671 35.0911 57.9671H26.418L40.0791 35.5385L36.8467 51.0564C36.7499 51.5211 36.8655 51.9989 37.1638 52.3674C37.462 52.7358 37.9045 52.9472 38.3778 52.9472H47.0505L33.3814 75.3727ZM77.5741 61.1688C77.5741 61.6064 77.1881 61.9623 76.7138 61.9623H73.4691V48.952H76.7138C77.1881 48.952 77.5741 49.3081 77.5741 49.7455V61.1688Z" fill="#39CA6E"/>
<path d="M25.2889 27.249H36.6775C37.3247 27.249 37.8494 26.7224 37.8494 26.073C37.8494 25.4235 37.3247 24.897 36.6775 24.897H25.5329C25.8132 22.1732 27.0675 19.6547 29.0821 17.7815C31.1693 15.8408 33.8869 14.7719 36.7344 14.7719C39.5819 14.7719 42.2994 15.8408 44.3868 17.7815C46.4013 19.6547 47.6557 22.1736 47.9361 24.897H42.1463C41.499 24.897 40.9744 25.4235 40.9744 26.073C40.9744 26.7224 41.499 27.249 42.1463 27.249H48.1797C48.7713 27.249 49.3408 26.9986 49.7421 26.562C50.1408 26.1283 50.3424 25.5433 50.295 24.957C50.0199 21.5492 48.4874 18.3881 45.9796 16.0564C43.4577 13.7113 40.1744 12.4199 36.7344 12.4199C33.2944 12.4199 30.011 13.7113 27.4891 16.0564C24.9814 18.3883 23.4488 21.5492 23.1738 24.957C23.1264 25.5433 23.328 26.1283 23.7266 26.562C24.1279 26.9986 24.6974 27.249 25.2889 27.249Z" fill="#39CA6E"/>
<path d="M36.7344 7.32636C37.3816 7.32636 37.9063 6.79983 37.9063 6.15038V1.32052C37.9063 0.67106 37.3816 0.144531 36.7344 0.144531C36.0872 0.144531 35.5625 0.67106 35.5625 1.32052V6.15038C35.5625 6.79983 36.0872 7.32636 36.7344 7.32636Z" fill="#39CA6E"/>
<path d="M12.0684 27.2485H16.8813C17.5285 27.2485 18.0532 26.7219 18.0532 26.0725C18.0532 25.423 17.5285 24.8965 16.8813 24.8965H12.0684C11.4212 24.8965 10.8965 25.423 10.8965 26.0725C10.8965 26.7219 11.4212 27.2485 12.0684 27.2485Z" fill="#39CA6E"/>
<path d="M55.416 26.0725C55.416 26.7219 55.9405 27.2485 56.5879 27.2485H61.4009C62.0482 27.2485 62.5727 26.7219 62.5727 26.0725C62.5727 25.423 62.0482 24.8965 61.4009 24.8965H56.5879C55.9405 24.8965 55.416 25.423 55.416 26.0725Z" fill="#39CA6E"/>
<path d="M25.7931 9.40809C26.0101 9.78535 26.404 9.99624 26.809 9.99624C27.0078 9.99624 27.2093 9.94544 27.3939 9.8385C27.9543 9.51377 28.1464 8.79454 27.8228 8.2321L25.4164 4.0492C25.0928 3.48661 24.3761 3.2939 23.8156 3.61879C23.2551 3.94352 23.0631 4.66275 23.3867 5.22518L25.7931 9.40809Z" fill="#39CA6E"/>
<path d="M53.929 17.2887C54.1277 17.2887 54.3293 17.2378 54.5138 17.131L58.682 14.716C59.2424 14.3913 59.4345 13.672 59.1109 13.1096C58.7871 12.547 58.0702 12.3546 57.5101 12.6792L53.342 15.0942C52.7815 15.4189 52.5895 16.1382 52.9131 16.7006C53.1302 17.0779 53.524 17.2887 53.929 17.2887Z" fill="#39CA6E"/>
<path d="M14.7863 14.7161L18.9544 17.1311C19.139 17.2381 19.3405 17.2889 19.5393 17.2889C19.9443 17.2889 20.3382 17.078 20.5552 16.7007C20.8788 16.1383 20.6868 15.4191 20.1263 15.0943L15.9582 12.6793C15.3977 12.3544 14.681 12.5472 14.3574 13.1097C14.0338 13.6722 14.2258 14.3914 14.7863 14.7161Z" fill="#39CA6E"/>
<path d="M46.0755 9.83843C46.2602 9.94537 46.4616 9.99617 46.6603 9.99617C47.0653 9.99617 47.4592 9.78512 47.6763 9.40802L50.0827 5.22512C50.4063 4.66268 50.2142 3.94345 49.6538 3.61872C49.0928 3.29383 48.3763 3.48685 48.053 4.04913L45.6464 8.23204C45.3228 8.79447 45.515 9.5137 46.0755 9.83843Z" fill="#39CA6E"/>
</g>
</svg>
