<svg width="168" height="177" viewBox="0 0 168 177" fill="none" xmlns="http://www.w3.org/2000/svg">
<path d="M67.2747 108.799C64.9553 109.664 9.11234 149.006 4.23856 153.131C-1.242 157.768 0.695769 162.729 0.695769 162.729L88.2574 110.331L86.0359 104.762L75.5934 110.891C75.5934 110.891 69.5942 107.944 67.2747 108.799Z" fill="white"/>
<path d="M4.23889 153.132C3.43638 153.82 2.75131 154.508 2.14453 155.185L5.89284 152.995L75.5938 110.892C75.5938 110.892 69.5945 107.945 67.2751 108.8C64.9556 109.664 9.11267 149.007 4.23889 153.132Z" fill="#BDC5CA"/>
<path d="M101.255 86.4121C101.852 83.9956 100.726 15.5275 100.061 9.17191C99.3169 2.02059 94.1397 0.841797 94.1397 0.841797L88.2188 102.994L94.0614 104.271L94.8639 92.1587C94.8639 92.1587 100.667 88.8286 101.255 86.4121Z" fill="white"/>
<path d="M100.06 9.17124C99.9426 8.12015 99.7664 7.1673 99.5413 6.2832L99.238 10.6251L94.8535 92.158C94.8535 92.158 100.657 88.8279 101.244 86.4114C101.841 83.9949 100.716 15.5269 100.05 9.17124H100.06Z" fill="#BDC5CA"/>
<path d="M98.7289 124.87C100.168 126.893 152.605 170.695 157.85 174.339C163.742 178.436 167.999 175.263 167.999 175.263L94.7066 104.143L89.9307 107.748L98.5625 116.255C98.5625 116.255 97.3001 122.836 98.7289 124.86V124.87Z" fill="white"/>
<path d="M157.851 174.341C158.722 174.93 159.563 175.421 160.366 175.834L157.283 172.779L98.5627 116.266C98.5627 116.266 97.3002 122.847 98.7291 124.871C100.168 126.894 152.605 170.696 157.851 174.341Z" fill="#BDC5CA"/>
<path d="M167.999 175.264C167.931 175.333 151.734 159.733 131.828 140.421C111.912 121.108 95.8321 105.391 95.9006 105.322C95.9691 105.254 112.166 120.853 132.072 140.166C151.978 159.478 168.068 175.185 167.999 175.264Z" fill="white"/>
</svg>
