<svg width="127" height="121" viewBox="0 0 127 121" fill="none" xmlns="http://www.w3.org/2000/svg">
<g opacity="0.3">
<path d="M108.642 60.7214C108.642 87.178 87.3999 108.675 61.0373 109.08C60.785 109.083 60.5339 109.085 60.2781 109.085C33.5669 109.085 11.9141 87.4326 11.9141 60.7214C11.9141 35.9205 30.5843 15.4785 54.6355 12.6836C56.4859 12.4677 58.3679 12.3562 60.2781 12.3562C86.9893 12.3562 108.642 34.0091 108.642 60.7202V60.7214Z" fill="url(#paint0_linear_1_8994)"/>
<path d="M90.4168 90.8608C107.062 74.2156 107.062 47.2283 90.4168 30.583C73.7715 13.9377 46.7842 13.9377 30.1389 30.583C13.4937 47.2283 13.4937 74.2156 30.1389 90.8608C46.7842 107.506 73.7715 107.506 90.4168 90.8608Z" fill="url(#paint1_linear_1_8994)"/>
<path d="M87.1971 87.6392C102.063 72.7732 102.063 48.6706 87.1971 33.8046C72.3311 18.9386 48.2286 18.9386 33.3626 33.8046C18.4966 48.6706 18.4966 72.7732 33.3626 87.6392C48.2286 102.505 72.3311 102.505 87.1971 87.6392Z" fill="url(#paint2_linear_1_8994)"/>
<path d="M74.0087 31.2566L44.2656 64.5103H56.4015L46.5536 89.6469L76.2955 56.4917H65.1547L74.0087 31.2566Z" fill="url(#paint3_linear_1_8994)"/>
<path style="mix-blend-mode:multiply" opacity="0.2" d="M51.1937 84.6626C50.5308 91.888 51.575 97.9296 55.0974 103.032C56.6028 105.215 58.5599 107.224 61.0334 109.08C60.7811 109.083 60.53 109.086 60.2742 109.086C33.563 109.086 11.9102 87.4329 11.9102 60.7217C11.9102 35.9207 30.5804 15.4787 54.6316 12.6838C56.1734 14.2162 57.6623 16.0173 58.9577 18.1199C62.7476 24.2483 64.9242 32.9135 62.1269 44.8276C61.6564 46.8328 61.0451 48.9319 60.2742 51.1273C58.5529 56.0354 56.9853 60.6255 55.6477 64.9187C54.8827 67.3804 54.1939 69.7424 53.5932 72.0128C52.3846 76.5935 51.5422 80.7976 51.1913 84.6626H51.1937Z" fill="url(#paint4_linear_1_8994)"/>
<path d="M114.337 60.7214C114.337 87.178 93.0953 108.675 66.7326 109.08C66.4803 109.083 66.2292 109.085 65.9734 109.085C39.2623 109.085 17.6094 87.4326 17.6094 60.7214C17.6094 35.9205 36.2796 15.4785 60.3308 12.6836C62.1812 12.4677 64.0632 12.3562 65.9734 12.3562C92.6846 12.3562 114.337 34.0091 114.337 60.7202V60.7214Z" fill="url(#paint5_linear_1_8994)"/>
<path d="M96.1121 90.8606C112.757 74.2153 112.757 47.228 96.1121 30.5828C79.4668 13.9375 52.4795 13.9375 35.8342 30.5828C19.189 47.228 19.189 74.2153 35.8342 90.8606C52.4795 107.506 79.4668 107.506 96.1121 90.8606Z" fill="url(#paint6_linear_1_8994)"/>
<path d="M79.7001 31.2563L49.957 64.5101H62.0929L52.2451 89.6466L81.987 56.4914H70.8472L79.7001 31.2563Z" fill="white"/>
<path style="mix-blend-mode:multiply" opacity="0.2" d="M56.8968 84.6628C56.2339 91.8883 57.2782 97.9298 60.8005 103.033C62.3059 105.215 64.2631 107.224 66.7365 109.08C66.4842 109.084 66.2331 109.086 65.9773 109.086C39.2662 109.086 17.6133 87.4331 17.6133 60.7219C17.6133 35.921 36.2835 15.479 60.3347 12.6841C61.8765 14.2165 63.3655 16.0176 64.6608 18.1202C68.4507 24.2486 70.6273 32.9137 67.83 44.8278C67.3595 46.8331 66.7482 48.9322 65.9773 51.1275C64.256 56.0356 62.6884 60.6257 61.3508 64.919C60.5858 67.3807 59.8971 69.7426 59.2963 72.013C58.0878 76.5938 57.2453 80.7978 56.8945 84.6628H56.8968Z" fill="url(#paint7_linear_1_8994)"/>
</g>
<defs>
<linearGradient id="paint0_linear_1_8994" x1="58.9252" y1="88.3701" x2="63.723" y2="-9.67215" gradientUnits="userSpaceOnUse">
<stop stop-color="#311944"/>
<stop offset="1" stop-color="#A03976"/>
</linearGradient>
<linearGradient id="paint1_linear_1_8994" x1="58.9244" y1="88.3705" x2="63.7222" y2="-9.67171" gradientUnits="userSpaceOnUse">
<stop stop-color="#311944"/>
<stop offset="1" stop-color="#A03976"/>
</linearGradient>
<linearGradient id="paint2_linear_1_8994" x1="58.9264" y1="88.3705" x2="63.7242" y2="-9.67172" gradientUnits="userSpaceOnUse">
<stop stop-color="#311944"/>
<stop offset="1" stop-color="#A03976"/>
</linearGradient>
<linearGradient id="paint3_linear_1_8994" x1="58.9277" y1="88.1497" x2="63.7255" y2="-9.89139" gradientUnits="userSpaceOnUse">
<stop stop-color="#311944"/>
<stop offset="1" stop-color="#A03976"/>
</linearGradient>
<linearGradient id="paint4_linear_1_8994" x1="36.3286" y1="87.2651" x2="41.1252" y2="-10.7772" gradientUnits="userSpaceOnUse">
<stop stop-color="#311944"/>
<stop offset="1" stop-color="#A03976"/>
</linearGradient>
<linearGradient id="paint5_linear_1_8994" x1="120.448" y1="-175.333" x2="64.0808" y2="68.9231" gradientUnits="userSpaceOnUse">
<stop stop-color="#FCB148"/>
<stop offset="0.05" stop-color="#FDB946"/>
<stop offset="0.14" stop-color="#FEC144"/>
<stop offset="0.32" stop-color="#FFC444"/>
<stop offset="0.48" stop-color="#FDB946"/>
<stop offset="0.78" stop-color="#F99C4C"/>
<stop offset="0.87" stop-color="#F8924F"/>
<stop offset="1" stop-color="#F8924F"/>
</linearGradient>
<linearGradient id="paint6_linear_1_8994" x1="66.2331" y1="70.6974" x2="68.0318" y2="139.656" gradientUnits="userSpaceOnUse">
<stop offset="0.32" stop-color="#FFC444"/>
<stop offset="0.5" stop-color="#FDB946"/>
<stop offset="0.61" stop-color="#FCB148"/>
<stop offset="0.63" stop-color="#FBA949"/>
<stop offset="0.68" stop-color="#F99C4C"/>
<stop offset="0.74" stop-color="#F8944E"/>
<stop offset="0.87" stop-color="#F8924F"/>
<stop offset="1" stop-color="#F8924F"/>
</linearGradient>
<linearGradient id="paint7_linear_1_8994" x1="17.6133" y1="60.885" x2="69.0984" y2="60.885" gradientUnits="userSpaceOnUse">
<stop stop-color="#FCB148"/>
<stop offset="0.05" stop-color="#FDB946"/>
<stop offset="0.14" stop-color="#FEC144"/>
<stop offset="0.32" stop-color="#FFC444"/>
<stop offset="0.48" stop-color="#FDB946"/>
<stop offset="0.78" stop-color="#F99C4C"/>
<stop offset="0.87" stop-color="#F8924F"/>
<stop offset="1" stop-color="#F8924F"/>
</linearGradient>
</defs>
</svg>
