<svg width="18" height="164" viewBox="0 0 18 164" fill="none" xmlns="http://www.w3.org/2000/svg">
<path d="M5.98011 7.74609L4.68945 204.318H17.1129L10.8832 7.74609H5.98011Z" fill="white"/>
<path d="M13.7196 9.01656C12.4794 12.476 8.68673 14.2781 5.24018 13.0333C1.79362 11.7884 -0.00175995 7.98163 1.23842 4.5222C2.47861 1.06278 6.27126 -0.739298 9.71781 0.505515C13.1644 1.75033 14.9598 5.55714 13.7196 9.01656Z" fill="white"/>
<path d="M11.1139 6.71135C11.1139 8.7595 9.46271 10.4168 7.42218 10.4168C5.38164 10.4168 3.73047 8.7595 3.73047 6.71135C3.73047 4.6632 5.38164 3.00586 7.42218 3.00586C9.46271 3.00586 11.1139 4.6632 11.1139 6.71135Z" fill="#BDC5CA"/>
</svg>
