<svg width="106" height="130" viewBox="0 0 106 130" fill="none" xmlns="http://www.w3.org/2000/svg">
<g opacity="0.2">
<path d="M21.8359 53.5438C21.8359 54.5954 22.6883 55.448 23.7402 55.448C24.7922 55.448 25.6445 54.5954 25.6445 53.5438C25.6445 43.564 31.1121 34.4292 39.9136 29.704C40.8401 29.2066 41.1882 28.0521 40.6908 27.1256C40.1931 26.1991 39.0388 25.851 38.1121 26.3484C28.0724 31.7383 21.8359 42.1588 21.8359 53.5438ZM5.2551 64.5397C4.29533 60.6879 3.80859 56.6996 3.80859 52.6855C3.80859 42.8109 6.73816 33.2975 12.2809 25.1738C17.6942 17.2395 25.2327 11.1188 34.0808 7.47373C35.0533 7.07307 35.5169 5.9602 35.1162 4.98748C34.7158 4.01527 33.6032 3.55113 32.6303 3.95205C23.0928 7.88125 14.9683 14.4775 9.13504 23.0273C3.15859 31.786 0 42.0418 0 52.6855C0 57.0096 0.524571 61.3077 1.55975 65.4603C1.81619 66.4897 2.86914 67.0965 3.86801 66.8477C4.88846 66.5935 5.50951 65.5601 5.2551 64.5397ZM65.4575 29.704C74.2589 34.4292 79.7266 43.564 79.7266 53.5438C79.7266 54.5954 80.5789 55.448 81.6309 55.448C82.6828 55.448 83.5352 54.5954 83.5352 53.5438C83.5352 42.1588 77.2987 31.7383 67.259 26.3484C66.3322 25.851 65.178 26.1988 64.6803 27.1256C64.1829 28.0521 64.5308 29.2063 65.4575 29.704ZM40.0334 101.917C40.333 100.908 39.7584 99.8484 38.7499 99.549C32.352 97.6488 26.4989 94.5031 21.354 90.1994C20.5471 89.5248 19.3464 89.6317 18.6715 90.4384C17.9969 91.245 18.1038 92.446 18.9102 93.1209C24.4562 97.76 30.7663 101.151 37.6657 103.2C38.6481 103.492 39.7305 102.936 40.0334 101.917ZM96.7317 75.4853L77.8469 59.4321C75.0491 57.0296 71.2941 58.1582 69.2468 60.8463L63.2483 57.3828C65.6685 50.8602 61.5029 43.5548 54.5898 42.3797V35.0792C55.1992 34.8687 55.7906 34.5891 56.3504 34.2334C58.7638 32.6993 60.2045 30.0765 60.2045 27.217V5.28734C60.2042 2.37199 57.8325 0 54.9169 0C52.3628 0 50.1757 1.82355 49.7159 4.33596L45.256 28.7171C44.8025 31.1962 46.0797 33.6748 48.3615 34.7448C49.141 35.1102 49.9566 35.345 50.7812 35.4575V42.3843C47.5046 42.9487 44.6718 44.8977 42.9825 47.7631C41.1988 50.7889 40.9965 54.3161 42.1243 57.3805L35.796 61.0355C35.3087 60.6125 34.7697 60.24 34.1811 59.933C31.6466 58.6102 28.6543 58.6742 26.1777 60.1037L7.18656 71.0684C4.67924 72.4953 3.80936 75.7933 5.25129 78.291C6.53859 80.521 9.24117 81.475 11.6066 80.6272L34.9512 72.299C37.3252 71.4523 38.8332 69.1069 38.6184 66.5955C38.545 65.7386 38.3416 64.9152 38.027 64.1451L44.0238 60.6816C44.7111 61.5103 45.5269 62.2517 46.4646 62.872L44.7142 97.437C44.6573 98.5217 45.5292 99.4376 46.6174 99.4376C47.6249 99.4376 48.4661 98.6471 48.5177 97.6295L50.1973 64.4622C51.0146 64.6466 51.8418 64.7428 52.6657 64.7428C53.512 64.7428 54.3524 64.642 55.1731 64.4556L58.2997 126.191H47.0714L48.065 106.577C48.1183 105.527 47.3098 104.632 46.2594 104.579C45.2095 104.522 44.3145 105.334 44.2614 106.384L43.258 126.191H21.0366C19.9847 126.191 19.1323 127.044 19.1323 128.096C19.1323 129.147 19.9847 130 21.0366 130H84.3324C85.3844 130 86.2367 129.147 86.2367 128.096C86.2367 127.044 85.3844 126.191 84.3324 126.191H62.1131L58.9062 62.8664C59.8076 62.271 60.6293 61.538 61.342 60.6798L67.6698 64.3335C66.9927 67.778 68.5801 71.3555 71.6721 73.128L90.6636 84.093C93.1602 85.5375 96.4125 84.7102 97.8862 82.1575C99.1631 79.9457 98.6776 77.1398 96.7317 75.4853ZM33.6715 68.7121L10.3269 77.0402C9.65377 77.2809 8.90678 77.0055 8.54953 76.3867C8.14734 75.6902 8.39211 74.7655 9.09086 74.3666L28.0823 63.4019C29.446 62.6145 31.0268 62.5828 32.4193 63.3095C33.8135 64.0372 34.6899 65.3529 34.824 66.92C34.8913 67.7087 34.4175 68.446 33.6715 68.7121ZM49.9781 31.2962C49.2611 30.9601 48.8599 30.1813 49.0024 29.4026L53.4622 5.0215C53.5907 4.31869 54.2024 3.80885 54.9169 3.80885C55.7324 3.80885 56.3956 4.4723 56.3956 5.2876V27.217C56.3956 28.7897 55.6344 30.1755 54.307 31.0192C52.9803 31.8627 51.4023 31.9643 49.9781 31.2962ZM59.1061 57.2683C57.019 60.809 52.4405 61.9917 48.899 59.9041C45.3586 57.8167 44.1761 53.238 46.2635 49.6971C47.6163 47.4023 50.0376 46.0279 52.6855 46.0279C52.6972 46.0279 52.7084 46.0263 52.7198 46.0261C58.2179 45.9304 62.0118 52.339 59.1061 57.2683ZM94.5877 80.2532C94.1799 80.9595 93.2742 81.202 92.5676 80.7945L73.5762 69.8296C70.7317 68.2195 70.5852 64.0583 73.2522 62.2322C73.9047 61.7853 74.7767 61.8208 75.3802 62.334L94.2647 78.387C94.8088 78.8498 94.9449 79.6347 94.5877 80.2532ZM52.6848 51.5785C51.6331 51.5785 50.7805 52.4311 50.7805 53.4828C50.7805 54.5345 51.6331 55.3871 52.6848 55.3871C53.7365 55.3871 54.5891 54.5345 54.5891 53.4828C54.5891 52.4311 53.7365 51.5785 52.6848 51.5785ZM84.0173 90.1992C78.8684 94.5044 73.0153 97.6501 66.6209 99.549C65.6124 99.8484 65.0381 100.908 65.3374 101.917C65.6401 102.935 66.7189 103.493 67.7049 103.2C74.5999 101.152 80.9103 97.7613 86.4599 93.1211C87.2668 92.4465 87.3742 91.2455 86.6993 90.4389C86.0255 89.6317 84.8242 89.5248 84.0173 90.1992ZM96.2361 23.0273C90.4026 14.4775 82.2781 7.88125 72.7406 3.9523C71.7686 3.55139 70.655 4.01527 70.2546 4.98773C69.8539 5.9602 70.3176 7.07332 71.29 7.47398C80.1384 11.1191 87.6766 17.2397 93.0899 25.174C98.6327 33.2978 101.562 42.8111 101.562 52.6858C101.562 56.6998 101.076 60.6879 100.116 64.5399C99.8613 65.5604 100.482 66.5938 101.503 66.8482C102.497 67.096 103.554 66.4925 103.811 65.4608C104.846 61.3082 105.371 57.0101 105.371 52.6861C105.371 42.0418 102.213 31.786 96.2361 23.0273Z" fill="#39CA6E"/>
</g>
</svg>
