<svg width="57" height="64" viewBox="0 0 57 64" fill="none" xmlns="http://www.w3.org/2000/svg">
<path d="M27.835 26.9424C25.4778 26.9424 23.5684 28.8519 23.5684 31.202C23.5684 33.5521 25.4778 35.4686 27.835 35.4686C30.1921 35.4686 32.1016 33.5591 32.1016 31.202C32.1016 28.8449 30.1921 26.9424 27.835 26.9424Z" fill="url(#paint0_radial_1_11102)"/>
<path d="M55.9598 44.1628C55.701 44.3447 55.4282 44.4986 55.1414 44.6245C55.3652 45.3589 55.3442 45.9884 55.0715 46.492C53.7076 48.961 46.4403 47.737 36.9979 43.876C37.2776 41.7497 37.4875 39.4975 37.6134 37.1614C39.313 36.0703 40.9287 34.9651 42.4465 33.853C45.0205 36.3081 47.0139 38.4903 48.3638 40.0501C48.4408 37.4412 50.5741 35.3498 53.197 35.3498C53.3019 35.3498 53.4138 35.3498 53.5187 35.3638C51.5393 33.3215 49.42 31.5309 47.2937 29.9921C53.7985 24.3126 57.1838 18.9899 55.5261 16.0522C53.6936 12.7998 46.1606 13.3314 36.6412 16.8216C35.0045 6.81257 31.766 0 28.031 0C26.4643 0 24.9814 1.20304 23.6735 3.33634C24.0862 3.46924 24.4778 3.65809 24.8416 3.8889C25.8068 1.83953 26.8909 0.685454 28.038 0.685454C30.8498 0.685454 33.2838 7.58895 34.4729 17.6609C32.3815 18.5003 30.2063 19.4795 27.996 20.5776C27.9611 20.5636 27.9331 20.5496 27.8981 20.5356C26.2684 19.7453 24.6597 19.0248 23.0929 18.3744C23.6315 15.8144 24.1911 13.6951 24.6387 12.1423C23.9253 12.555 23.1069 12.7858 22.2256 12.7858C20.3581 12.7858 18.7424 11.7297 17.9311 10.1839C17.4624 12.1843 17.1477 14.1707 16.9518 16.1152C8.53055 13.4503 2.0607 13.3174 0.403023 16.311C-1.37356 19.5214 2.85107 25.5017 10.5589 31.6498C2.90703 37.8748 -1.25466 43.89 0.549906 47.0865C0.990555 47.8699 1.77393 48.4364 2.83009 48.7931C2.82309 48.6812 2.8161 48.5693 2.8161 48.4574C2.8161 48.2476 2.83009 48.0377 2.85807 47.8279C2.03273 47.639 1.44519 47.2823 1.14443 46.7438C-0.114565 44.5125 3.97717 38.7491 11.9019 32.692C13.8953 34.2097 16.0985 35.7275 18.4626 37.2104C18.5606 38.952 18.7004 40.6446 18.8823 42.2743C15.3291 43.3305 12.3495 43.995 10.2862 44.3866C11.6151 45.247 12.4964 46.7438 12.4964 48.4504C12.4964 49.4926 12.1677 50.4578 11.6011 51.2482C14.5248 50.5347 17.2736 49.5275 19.7986 48.3875C21.5262 57.2424 24.5688 63.1317 28.038 63.1317C31.787 63.1317 35.0394 56.2562 36.6691 46.1842C46.2725 49.6255 53.8684 50.1011 55.68 46.8207C56.0927 46.0723 56.1766 45.177 55.9738 44.1558L55.9598 44.1628ZM37.7323 33.9999C37.7533 33.1956 37.7603 32.3912 37.7603 31.5729C37.7603 30.9294 37.7603 30.2929 37.7393 29.6564C38.6905 30.4537 39.5998 31.2441 40.4531 32.0135C39.6068 32.664 38.7045 33.3284 37.7323 33.9999ZM51.3504 19.0179C50.8468 20.6266 49.1892 24.0259 44.7827 28.2925C42.2087 26.6348 39.6977 25.3198 37.4945 24.2986C37.3686 22.585 37.2007 20.9203 36.9979 19.3256C46.9719 15.7375 52.2947 16.0102 51.3504 19.0179ZM0.983561 16.6467C2.23556 14.3805 8.45361 15.2269 16.756 18.3604C16.5881 21.4379 16.7 24.3546 16.9518 26.9495C15.3291 28.0267 13.7974 29.1248 12.3635 30.2159C4.34788 24.4106 -0.359369 19.0738 0.983561 16.6467ZM13.8393 31.2581C14.8955 30.5027 16.0146 29.7473 17.1827 28.9989C17.4345 30.9434 17.7492 32.657 18.05 34.0489C16.5741 33.1186 15.1683 32.1884 13.8393 31.2651V31.2581ZM34.7177 20.1789C34.8086 21.1581 34.8856 22.1583 34.9555 23.1795C33.2489 22.4801 31.871 22.0045 30.9897 21.7177C32.2906 21.1511 33.5356 20.6406 34.7177 20.1789ZM22.5963 20.7874C23.4567 21.1791 24.324 21.5848 25.2053 22.0115C24.5478 22.3612 23.8973 22.7249 23.2328 23.0956C22.8481 23.3124 22.4704 23.5293 22.0927 23.7461C22.2466 22.7179 22.4145 21.7317 22.5893 20.7874H22.5963ZM21.1205 40.4068C21.0995 39.8752 21.0855 39.3507 21.0716 38.8261C21.806 39.2597 22.5544 39.6794 23.3168 40.0991C23.5965 40.2529 23.8693 40.3998 24.1491 40.5537C23.1419 40.9174 22.1627 41.2531 21.2045 41.5679C21.1765 41.1832 21.1485 40.7985 21.1205 40.4138V40.4068ZM28.024 62.4602C25.4011 62.4602 23.0999 56.431 21.8409 47.4222C24.6177 46.0233 27.0728 44.4916 29.1221 43.0647C30.9477 43.925 32.7313 44.6944 34.4729 45.3798C33.2908 55.5078 30.8498 62.4672 28.031 62.4672L28.024 62.4602ZM34.7247 42.9248C33.6336 42.4492 32.5214 41.9386 31.3953 41.4C32.2836 40.7146 33.06 40.0851 33.6895 39.5465C34.1441 39.2877 34.5918 39.0219 35.0324 38.7561C34.9555 40.183 34.8506 41.5749 34.7247 42.9178V42.9248ZM35.1653 35.6996C35.1304 35.7205 35.0954 35.7415 35.0604 35.7695C32.4165 37.1544 29.8006 38.3435 27.2896 39.3576C26.3803 38.882 25.4641 38.3924 24.5478 37.8888C23.3587 37.2313 22.1977 36.5669 21.0716 35.9024C21.1275 32.4821 21.3863 29.2367 21.757 26.2711C23.6245 25.2289 25.597 24.2077 27.6603 23.2355C28.9263 23.879 30.2133 24.5644 31.5072 25.2779C32.3326 25.7325 33.1439 26.1941 33.9413 26.6558C34.354 26.9705 34.7666 27.2783 35.1653 27.593C35.2073 28.901 35.2283 30.2299 35.2283 31.5868C35.2283 32.9438 35.2073 34.3636 35.1653 35.7136V35.6996Z" fill="url(#paint1_radial_1_11102)"/>
<path d="M22.2109 4.37158C20.2384 4.37158 18.6367 5.97331 18.6367 7.94573C18.6367 9.91816 20.2384 11.5199 22.2109 11.5199C24.1833 11.5199 25.785 9.91816 25.785 7.94573C25.785 5.97331 24.1833 4.37158 22.2109 4.37158Z" fill="url(#paint2_radial_1_11102)"/>
<path d="M54.9536 37.1473C53.2259 36.196 51.0507 36.8185 50.0994 38.5462C49.1482 40.2738 49.7707 42.4491 51.4983 43.4003C53.2259 44.3515 55.4012 43.729 56.3524 42.0014C57.3037 40.2738 56.6812 38.0985 54.9536 37.1473Z" fill="url(#paint3_radial_1_11102)"/>
<path d="M5.62749 45.3311C3.90686 46.3033 3.30534 48.4786 4.27057 50.1992C5.24279 51.9199 7.41806 52.5214 9.13869 51.5562C10.8593 50.5839 11.4608 48.4087 10.4956 46.688C9.52338 44.9674 7.34812 44.3659 5.62749 45.3311Z" fill="url(#paint4_radial_1_11102)"/>
<defs>
<radialGradient id="paint0_radial_1_11102" cx="0" cy="0" r="1" gradientUnits="userSpaceOnUse" gradientTransform="translate(26.5074 29.9374) scale(4.00803 4.00474)">
<stop stop-color="#A6ECC0"/>
<stop offset="1" stop-color="#00D64E"/>
</radialGradient>
<radialGradient id="paint1_radial_1_11102" cx="0" cy="0" r="1" gradientUnits="userSpaceOnUse" gradientTransform="translate(19.3151 22.1764) scale(26.3404 29.6528)">
<stop stop-color="#A6ECC0"/>
<stop offset="1" stop-color="#00D64E"/>
</radialGradient>
<radialGradient id="paint2_radial_1_11102" cx="0" cy="0" r="1" gradientUnits="userSpaceOnUse" gradientTransform="translate(21.0988 6.88258) scale(3.35754)">
<stop stop-color="#A6ECC0"/>
<stop offset="1" stop-color="#00D64E"/>
</radialGradient>
<radialGradient id="paint3_radial_1_11102" cx="0" cy="0" r="1" gradientUnits="userSpaceOnUse" gradientTransform="translate(52.1146 39.2114) scale(3.35518 3.35518)">
<stop stop-color="#A6ECC0"/>
<stop offset="1" stop-color="#00D64E"/>
</radialGradient>
<radialGradient id="paint4_radial_1_11102" cx="0" cy="0" r="1" gradientUnits="userSpaceOnUse" gradientTransform="translate(6.27148 47.381) scale(3.35603)">
<stop stop-color="#A6ECC0"/>
<stop offset="1" stop-color="#00D64E"/>
</radialGradient>
</defs>
</svg>
