<svg width="365" height="360" viewBox="0 0 365 360" fill="none" xmlns="http://www.w3.org/2000/svg">
<rect x="0.0078125" y="0.000488281" width="364.096" height="360" fill="url(#paint0_linear_1_8696)"/>
<g opacity="0.015">
<path d="M18.6104 326.464C20.6874 318.456 20.3454 313.031 17.9519 314.093C16.6601 314.681 15.3747 315.241 14.1019 315.815C11.7906 316.863 8.13693 323.866 5.87 331.703C4.59723 336.123 3.2928 340.63 1.96304 345.251C-0.557182 353.991 -0.696497 360.751 1.79839 359.933C3.17248 359.459 4.56557 359.015 5.95866 358.541C8.54853 357.665 12.6835 349.313 15.0137 340.328C16.2422 335.592 17.4389 330.971 18.6104 326.464Z" fill="white"/>
<path d="M34.7928 319.796C36.6101 311.572 35.8882 306.09 33.2857 307.238C31.8799 307.87 30.4869 308.472 29.1001 309.104C26.5926 310.223 22.9515 317.471 20.9062 325.508C19.7538 330.044 18.576 334.679 17.3666 339.43C15.0743 348.443 15.3276 355.389 18.0631 354.485C19.5701 353.983 21.0962 353.466 22.6286 352.964C25.4718 352.002 29.5814 343.319 31.633 334.062C32.7095 329.197 33.7669 324.432 34.7928 319.796Z" fill="white"/>
<path d="M52.4842 312.546C53.985 304.107 52.8135 298.552 49.9767 299.815C48.4443 300.504 46.9246 301.179 45.4175 301.853C42.682 303.088 39.079 310.551 37.2996 318.789C36.2991 323.453 35.267 328.218 34.2158 333.112C32.2148 342.412 32.9304 349.531 35.9382 348.541C37.5972 347.981 39.2752 347.421 40.9659 346.862C44.1067 345.799 48.1657 336.772 49.869 327.228C50.7619 322.205 51.6357 317.325 52.4842 312.56L52.4842 312.546Z" fill="white"/>
<path d="M71.9101 304.571C73.0183 295.931 71.3212 290.305 68.2058 291.682C66.5278 292.429 64.8687 293.175 63.216 293.907C60.2272 295.242 56.6812 302.963 55.2248 311.416C54.4079 316.196 53.5657 321.104 52.6982 326.142C51.0582 335.729 52.3309 343.034 55.6553 341.929C57.498 341.312 59.3533 340.709 61.2277 340.063C64.7041 338.901 68.687 329.486 69.9598 319.64C70.6247 314.473 71.2769 309.45 71.9038 304.556L71.9101 304.571Z" fill="white"/>
<path d="M93.3338 295.767C93.967 286.911 91.6305 281.242 88.2111 282.764C86.3684 283.582 84.5384 284.4 82.7274 285.204C79.4473 286.667 75.9772 294.647 74.9198 303.316C74.3245 308.224 73.7103 313.276 73.0834 318.472C71.8866 328.375 73.837 335.852 77.5413 334.632C79.5866 333.943 81.6572 333.269 83.7468 332.565C87.6285 331.274 91.4785 321.442 92.213 311.281C92.5929 305.957 92.9666 300.79 93.3275 295.767L93.3338 295.767Z" fill="white"/>
<path d="M117.103 286.006C117.147 276.936 114.051 271.267 110.271 272.946C108.238 273.85 106.218 274.754 104.217 275.644C100.601 277.266 97.2453 285.504 96.6817 294.402C96.3651 299.454 96.0358 304.635 95.7065 309.989C95.067 320.207 97.8468 327.871 101.988 326.494C104.28 325.733 106.598 324.958 108.941 324.169C113.291 322.719 116.964 312.457 117.027 301.966C117.052 296.483 117.084 291.173 117.109 286.021L117.103 286.006Z" fill="white"/>
<path d="M143.596 275.103C142.912 265.817 138.891 260.162 134.693 262.028C132.433 263.032 130.191 264.037 127.975 265.027C123.966 266.821 120.769 275.361 120.819 284.46C120.845 289.641 120.876 294.98 120.908 300.477C120.971 311.011 124.764 318.848 129.431 317.298C132.015 316.436 134.63 315.561 137.27 314.686C142.19 313.035 145.597 302.314 144.806 291.493C144.394 285.852 143.989 280.398 143.603 275.117L143.596 275.103Z" fill="white"/>
<path d="M173.336 262.89C171.74 253.418 166.598 247.82 161.906 249.901C159.379 251.021 156.885 252.14 154.409 253.246C149.938 255.24 146.962 264.081 147.76 273.396C148.216 278.706 148.691 284.189 149.178 289.843C150.122 300.708 155.181 308.702 160.475 306.937C163.413 305.961 166.383 304.97 169.391 303.966C174.995 302.086 178.034 290.848 176.166 279.696C175.191 273.898 174.247 268.315 173.342 262.904L173.336 262.89Z" fill="white"/>
<path d="M206.919 249.1C204.17 239.47 197.661 233.987 192.38 236.327C189.543 237.59 186.738 238.838 183.958 240.087C178.943 242.34 176.264 251.483 178.006 260.984C179.006 266.409 180.038 272.035 181.102 277.847C183.173 289.042 189.809 297.151 195.869 295.142C199.231 294.022 202.644 292.888 206.089 291.726C212.529 289.573 215.062 277.776 211.801 266.294C210.116 260.352 208.483 254.64 206.912 249.114L206.919 249.1Z" fill="white"/>
<path d="M245.198 233.391C240.994 223.632 232.781 218.35 226.791 221.006C223.58 222.441 220.402 223.847 217.261 225.254C211.593 227.794 209.308 237.266 212.239 246.94C213.917 252.48 215.665 258.22 217.476 264.177C220.978 275.687 229.634 283.868 236.644 281.543C240.538 280.237 244.483 278.916 248.485 277.596C255.963 275.084 257.781 262.698 252.727 250.93C250.119 244.859 247.611 239.032 245.198 233.42L245.198 233.391Z" fill="white"/>
<path d="M289.188 215.315C283.115 205.498 272.756 200.518 265.917 203.546C262.251 205.182 258.629 206.804 255.051 208.397C248.599 211.282 246.845 221.099 251.283 230.887C253.842 236.513 256.501 242.354 259.262 248.439C264.632 260.251 275.878 268.403 284.072 265.691C288.631 264.169 293.26 262.619 297.952 261.055C306.741 258.098 307.564 245.081 300.149 233.054C296.343 226.897 292.69 220.984 289.188 215.315Z" fill="white"/>
<path d="M340.282 194.317C331.778 184.543 318.696 180.022 310.806 183.538C306.582 185.418 302.409 187.284 298.293 189.121C290.878 192.436 289.84 202.598 296.216 212.429C299.902 218.112 303.752 224.025 307.766 230.197C315.599 242.224 330.233 250.261 339.94 247.046C345.354 245.238 350.851 243.401 356.436 241.535C366.909 238.019 366.339 224.312 355.764 212.142C350.369 205.927 345.215 200 340.282 194.331L340.282 194.317Z" fill="white"/>
<path d="M30.2193 281.734C31.8467 275.448 31.3274 271.472 29.1302 272.664C27.946 273.31 26.7683 273.955 25.5968 274.587C23.4692 275.749 20.3348 281.591 18.5427 287.776C17.5422 291.25 16.5164 294.795 15.4716 298.411C13.5023 305.243 13.6796 310.166 15.9655 309.118C17.2256 308.53 18.4921 307.955 19.7648 307.367C22.1268 306.262 25.6095 299.488 27.4142 292.541C28.3703 288.867 29.3012 285.265 30.2193 281.734Z" fill="white"/>
<path d="M44.9084 274.113C46.3204 267.741 45.4846 263.765 43.1164 265.043C41.8436 265.746 40.5708 266.421 39.3107 267.11C37.0248 268.358 33.903 274.343 32.3073 280.629C31.4081 284.16 30.4899 287.776 29.5528 291.465C27.7861 298.426 28.2863 303.406 30.7622 302.258C32.13 301.641 33.5041 301.009 34.8845 300.349C37.449 299.158 40.9064 292.168 42.4705 285.093C43.3 281.347 44.1105 277.687 44.902 274.099L44.9084 274.113Z" fill="white"/>
<path d="M60.7983 265.895C61.9508 259.422 60.754 255.476 58.2021 256.853C56.8217 257.6 55.4539 258.346 54.0988 259.078C51.6356 260.427 48.5455 266.555 47.1714 272.942C46.3989 276.53 45.6074 280.204 44.7968 283.964C43.2708 291.069 44.1446 296.078 46.8358 294.843C48.3239 294.154 49.8183 293.465 51.3253 292.777C54.1178 291.485 57.5246 284.28 58.8163 277.075C59.4939 273.272 60.1588 269.541 60.811 265.895L60.7983 265.895Z" fill="white"/>
<path d="M78.042 256.968C78.8842 250.409 77.2695 246.491 74.5023 247.984C73.0079 248.788 71.5262 249.606 70.0571 250.395C67.3913 251.845 64.3518 258.131 63.2373 264.618C62.6168 268.263 61.9709 271.995 61.3187 275.813C60.0776 283.046 61.3947 288.098 64.3328 286.749C65.9538 286.003 67.5876 285.242 69.2339 284.481C72.2861 283.075 75.6231 275.64 76.573 268.307C77.0732 264.431 77.5608 260.657 78.0357 256.954L78.042 256.968Z" fill="white"/>
<path d="M96.8296 247.241C97.3045 240.61 95.1959 236.749 92.1945 238.371C90.5734 239.261 88.965 240.122 87.3693 240.997C84.4755 242.576 81.5057 249.02 80.7078 255.594C80.2582 259.296 79.8023 263.085 79.3338 266.96C78.4472 274.323 80.2772 279.389 83.5003 277.911C85.2734 277.093 87.0717 276.275 88.8764 275.428C92.2261 273.878 95.4682 266.214 96.0064 258.751C96.2914 254.819 96.5637 250.987 96.836 247.241L96.8296 247.241Z" fill="white"/>
<path d="M117.365 236.598C117.397 229.896 114.718 226.136 111.438 227.901C109.671 228.863 107.917 229.824 106.182 230.757C103.029 232.479 100.154 239.081 99.7361 245.726C99.5018 249.472 99.2612 253.318 99.0142 257.251C98.5456 264.743 100.996 269.795 104.542 268.173C106.499 267.269 108.475 266.364 110.463 265.432C114.155 263.709 117.257 255.816 117.302 248.238C117.321 244.248 117.34 240.373 117.365 236.584L117.365 236.598Z" fill="white"/>
<path d="M139.907 224.938C139.406 218.193 136.05 214.547 132.46 216.485C130.529 217.533 128.61 218.58 126.71 219.614C123.259 221.494 120.511 228.268 120.543 234.97C120.562 238.759 120.581 242.649 120.606 246.639C120.65 254.231 123.842 259.268 127.761 257.46C129.927 256.455 132.112 255.451 134.322 254.432C138.418 252.537 141.338 244.385 140.774 236.707C140.476 232.674 140.192 228.756 139.913 224.953L139.907 224.938Z" fill="white"/>
<path d="M164.783 212.053C163.643 205.293 159.483 201.791 155.538 203.93C153.41 205.092 151.302 206.226 149.218 207.36C145.438 209.427 142.842 216.359 143.418 223.104C143.747 226.922 144.083 230.84 144.437 234.873C145.102 242.566 149.174 247.531 153.537 245.522C155.943 244.403 158.381 243.283 160.838 242.149C165.403 240.04 168.076 231.629 166.777 223.865C166.094 219.803 165.429 215.871 164.789 212.024L164.783 212.053Z" fill="white"/>
<path d="M192.341 197.796C190.422 191.051 185.312 187.764 180.956 190.132C178.606 191.41 176.283 192.673 173.978 193.921C169.805 196.189 167.417 203.293 168.652 210.067C169.355 213.899 170.083 217.846 170.83 221.908C172.262 229.658 177.403 234.523 182.279 232.284C184.977 231.036 187.699 229.773 190.454 228.51C195.577 226.142 197.926 217.459 195.716 209.666C194.557 205.604 193.436 201.643 192.347 197.811L192.341 197.796Z" fill="white"/>
<path d="M223.06 181.893C220.185 175.219 213.936 172.205 209.091 174.831C206.489 176.252 203.905 177.644 201.353 179.037C196.731 181.548 194.603 188.825 196.642 195.57C197.807 199.402 199.004 203.349 200.239 207.411C202.614 215.204 209.053 219.882 214.543 217.357C217.583 215.95 220.654 214.529 223.763 213.094C229.544 210.41 231.469 201.469 228.126 193.676C226.385 189.614 224.694 185.696 223.06 181.893Z" fill="white"/>
<path d="M257.52 164.048C253.474 157.489 245.837 154.863 240.429 157.791C237.523 159.37 234.642 160.934 231.792 162.484C226.638 165.297 224.852 172.717 227.879 179.391C229.608 183.18 231.387 187.112 233.23 191.159C236.763 198.938 244.818 203.359 251.042 200.488C254.493 198.895 257.982 197.273 261.516 195.652C268.095 192.595 269.456 183.381 264.694 175.659C262.218 171.655 259.831 167.78 257.52 164.048Z" fill="white"/>
<path d="M296.443 143.908C290.928 137.578 281.613 135.426 275.534 138.727C272.267 140.506 269.037 142.257 265.84 143.994C260.065 147.137 258.71 154.715 262.952 161.245C265.377 164.976 267.885 168.837 270.481 172.827C275.484 180.52 285.533 184.553 292.657 181.28C296.608 179.458 300.61 177.606 304.662 175.741C312.223 172.224 312.825 162.766 306.277 155.217C302.883 151.313 299.616 147.553 296.456 143.922L296.443 143.908Z" fill="white"/>
<path d="M39.4219 246.276C40.7327 241.225 40.1058 238.239 38.0795 239.488C36.984 240.162 35.8949 240.837 34.8184 241.497C32.8554 242.717 30.1072 247.683 28.6571 252.706C27.8466 255.519 27.0235 258.375 26.1813 261.289C24.6045 266.771 24.9718 270.431 27.0741 269.268C28.2329 268.623 29.3917 267.977 30.5695 267.331C32.7351 266.125 35.7366 260.456 37.174 254.931C37.9402 251.989 38.6874 249.118 39.4156 246.276L39.4219 246.276Z" fill="white"/>
<path d="M52.8523 238.236C53.9794 233.141 53.0866 230.213 50.9273 231.548C49.7558 232.265 48.5971 232.983 47.4446 233.701C45.3486 235.007 42.6195 240.073 41.334 245.125C40.6121 247.967 39.884 250.851 39.1304 253.794C37.7247 259.333 38.3642 262.993 40.6185 261.745C41.8596 261.056 43.1134 260.367 44.3735 259.664C46.7037 258.372 49.6735 252.574 50.9146 246.976C51.5732 244.005 52.2127 241.106 52.846 238.25L52.8523 238.236Z" fill="white"/>
<path d="M67.2621 229.611C68.1739 224.487 66.9898 221.617 64.6722 223.038C63.4247 223.813 62.1773 224.573 60.9425 225.348C58.6946 226.741 56.0097 231.907 54.9079 237.002C54.2937 239.858 53.6668 242.772 53.0273 245.743C51.8241 251.34 52.7676 254.971 55.2055 253.622C56.5416 252.876 57.8904 252.129 59.2518 251.369C61.7657 249.962 64.6912 244.035 65.7043 238.394C66.2362 235.409 66.7618 232.481 67.2684 229.597L67.2621 229.611Z" fill="white"/>
<path d="M82.7607 220.359C83.4192 215.221 81.8932 212.423 79.4109 213.958C78.0685 214.791 76.7324 215.609 75.409 216.427C73.0028 217.919 70.3559 223.187 69.4757 228.31C68.9818 231.181 68.4816 234.123 67.9686 237.108C66.9998 242.763 68.3042 246.351 70.9321 244.901C72.3822 244.098 73.8386 243.294 75.3077 242.476C78.0242 240.969 80.8927 234.898 81.6335 229.214C82.0198 226.201 82.3997 223.258 82.7734 220.374L82.7607 220.359Z" fill="white"/>
<path d="M99.4823 210.349C99.8495 205.196 97.9309 202.498 95.2587 204.149C93.8149 205.039 92.3775 205.928 90.9528 206.804C88.3629 208.411 85.773 213.779 85.1461 218.917C84.7979 221.802 84.4369 224.758 84.076 227.772C83.3921 233.456 85.1018 237.001 87.9513 235.422C89.5217 234.546 91.0984 233.671 92.6941 232.781C95.6449 231.145 98.4311 224.93 98.849 219.218C99.0643 216.204 99.2796 213.248 99.4886 210.349L99.4823 210.349Z" fill="white"/>
<path d="M117.568 199.544C117.593 194.406 115.225 191.822 112.338 193.602C110.78 194.564 109.229 195.525 107.69 196.473C104.897 198.209 102.384 203.663 102.054 208.815C101.871 211.714 101.687 214.671 101.497 217.685C101.142 223.411 103.333 226.87 106.43 225.148C108.133 224.201 109.856 223.239 111.591 222.278C114.801 220.484 117.486 214.14 117.524 208.413C117.543 205.385 117.555 202.429 117.568 199.53L117.568 199.544Z" fill="white"/>
<path d="M137.183 187.823C136.803 182.714 133.922 180.288 130.794 182.211C129.103 183.259 127.432 184.292 125.766 185.311C122.746 187.177 120.327 192.746 120.352 197.884C120.371 200.783 120.384 203.739 120.403 206.768C120.435 212.494 123.189 215.853 126.564 213.987C128.426 212.953 130.307 211.906 132.2 210.858C135.708 208.906 138.26 202.419 137.842 196.678C137.62 193.664 137.405 190.708 137.19 187.823L137.183 187.823Z" fill="white"/>
<path d="M158.541 175.054C157.686 169.987 154.203 167.748 150.803 169.844C148.967 170.978 147.149 172.097 145.345 173.217C142.065 175.255 139.766 180.909 140.203 186.019C140.45 188.903 140.703 191.845 140.969 194.859C141.469 200.586 144.87 203.786 148.574 201.748C150.613 200.615 152.677 199.481 154.754 198.318C158.604 196.165 160.979 189.535 160.023 183.837C159.516 180.837 159.028 177.91 158.547 175.054L158.541 175.054Z" fill="white"/>
<path d="M181.902 161.085C180.483 156.105 176.304 154.096 172.593 156.378C170.592 157.612 168.61 158.832 166.641 160.052C163.07 162.262 160.923 168.017 161.848 173.069C162.373 175.925 162.911 178.838 163.456 181.838C164.507 187.521 168.68 190.564 172.752 188.296C175 187.048 177.267 185.785 179.559 184.522C183.808 182.154 185.961 175.38 184.359 169.754C183.516 166.797 182.693 163.898 181.895 161.085L181.902 161.085Z" fill="white"/>
<path d="M207.526 145.774C205.437 140.923 200.441 139.201 196.382 141.698C194.191 143.047 192.025 144.396 189.872 145.717C185.972 148.128 184.009 153.969 185.516 158.935C186.371 161.748 187.244 164.618 188.137 167.575C189.847 173.201 194.932 175.985 199.434 173.488C201.922 172.11 204.43 170.718 206.963 169.311C211.668 166.685 213.536 159.796 211.167 154.256C209.92 151.357 208.711 148.53 207.526 145.788L207.526 145.774Z" fill="white"/>
<path d="M235.789 128.859C232.895 124.18 226.936 122.802 222.479 125.558C220.072 127.036 217.691 128.514 215.33 129.978C211.049 132.619 209.32 138.532 211.511 143.369C212.752 146.11 214.031 148.923 215.342 151.808C217.85 157.319 224.024 159.802 229.026 157.017C231.793 155.482 234.586 153.917 237.404 152.353C242.647 149.44 244.154 142.407 240.842 137.039C239.107 134.226 237.423 131.5 235.783 128.844L235.789 128.859Z" fill="white"/>
<path d="M267.101 110.148C263.238 105.713 256.14 104.78 251.213 107.823C248.56 109.459 245.932 111.081 243.323 112.703C238.606 115.616 237.169 121.601 240.183 126.251C241.899 128.892 243.659 131.604 245.476 134.388C248.946 139.727 256.425 141.808 262.022 138.708C265.119 136.986 268.247 135.25 271.407 133.499C277.283 130.226 278.334 123.108 273.876 117.97C271.552 115.286 269.292 112.703 267.095 110.177L267.101 110.148Z" fill="white"/>
<path d="M46.8871 217.468C47.9636 213.306 47.2797 211.053 45.4054 212.316C44.3922 213.005 43.3854 213.679 42.3786 214.354C40.5549 215.588 38.1233 219.894 36.9202 224.041C36.2553 226.352 35.5714 228.706 34.8812 231.103C33.5895 235.595 34.0707 238.379 36.0147 237.159C37.0848 236.485 38.155 235.81 39.2378 235.136C41.2388 233.873 43.873 229.05 45.0444 224.544C45.665 222.147 46.2792 219.779 46.8808 217.468L46.8871 217.468Z" fill="white"/>
<path d="M59.2627 209.302C60.1872 205.14 59.2754 202.944 57.2871 204.279C56.2106 204.997 55.1405 205.729 54.0767 206.446C52.139 207.752 49.7264 212.13 48.6689 216.292C48.0801 218.617 47.4785 220.971 46.8706 223.382C45.7245 227.888 46.44 230.63 48.517 229.338C49.6568 228.62 50.8029 227.903 51.9617 227.185C54.0957 225.836 56.7045 220.928 57.705 216.407C58.2369 213.995 58.7625 211.627 59.2754 209.302L59.2627 209.302Z" fill="white"/>
<path d="M72.4398 200.61C73.1807 196.448 72.0219 194.338 69.9069 195.759C68.7608 196.534 67.621 197.309 66.4875 198.07C64.4232 199.462 62.0423 203.896 61.1431 208.059C60.6429 210.384 60.1363 212.752 59.6107 215.163C58.6419 219.698 59.6107 222.382 61.827 220.99C63.0428 220.229 64.2712 219.454 65.506 218.679C67.7919 217.244 70.3565 212.235 71.167 207.714C71.5976 205.303 72.0155 202.935 72.4335 200.61L72.4398 200.61Z" fill="white"/>
<path d="M86.5142 191.322C87.0462 187.174 85.6087 185.151 83.3481 186.672C82.126 187.49 80.9102 188.323 79.7071 189.141C77.5098 190.633 75.1669 195.126 74.4514 199.288C74.0524 201.613 73.6472 203.981 73.2356 206.392C72.4631 210.927 73.7295 213.539 76.1041 212.047C77.4085 211.229 78.7256 210.396 80.049 209.578C82.4996 208.042 85.0135 202.947 85.5961 198.412C85.9063 196.001 86.2103 193.647 86.5079 191.322L86.5142 191.322Z" fill="white"/>
<path d="M101.572 181.374C101.863 177.255 100.109 175.346 97.6966 176.968C96.3921 177.843 95.094 178.719 93.8086 179.594C91.4657 181.187 89.1671 185.751 88.6668 189.885C88.3882 192.195 88.1033 194.563 87.8056 196.96C87.2611 201.495 88.8568 204.007 91.415 202.414C92.8208 201.524 94.2329 200.649 95.6576 199.759C98.2918 198.094 100.742 192.927 101.065 188.406C101.236 186.009 101.407 183.656 101.572 181.359L101.572 181.374Z" fill="white"/>
<path d="M117.717 170.71C117.736 166.634 115.621 164.854 113.037 166.605C111.638 167.552 110.251 168.485 108.871 169.418C106.363 171.112 104.128 175.747 103.868 179.852C103.722 182.148 103.577 184.502 103.425 186.899C103.14 191.405 105.122 193.831 107.876 192.109C109.39 191.161 110.916 190.2 112.448 189.238C115.285 187.459 117.653 182.191 117.679 177.699C117.691 175.317 117.704 172.992 117.717 170.71Z" fill="white"/>
<path d="M135.074 159.245C134.776 155.226 132.256 153.604 129.476 155.484C127.976 156.503 126.488 157.508 125.006 158.513C122.315 160.335 120.155 165.028 120.181 169.09C120.193 171.372 120.206 173.697 120.219 176.065C120.244 180.543 122.663 182.825 125.633 180.974C127.266 179.94 128.913 178.921 130.572 177.873C133.643 175.95 135.904 170.597 135.581 166.162C135.41 163.808 135.239 161.512 135.074 159.259L135.074 159.245Z" fill="white"/>
<path d="M153.811 146.894C153.146 142.961 150.157 141.526 147.174 143.535C145.56 144.626 143.958 145.717 142.368 146.793C139.475 148.745 137.41 153.496 137.752 157.5C137.948 159.753 138.145 162.035 138.347 164.389C138.734 168.809 141.653 170.934 144.87 168.924C146.643 167.805 148.428 166.7 150.227 165.566C153.557 163.47 155.691 158.045 154.957 153.682C154.571 151.372 154.191 149.118 153.817 146.908L153.811 146.894Z" fill="white"/>
<path d="M174.062 133.517C172.973 129.7 169.446 128.48 166.229 130.647C164.488 131.824 162.759 132.986 161.043 134.149C157.927 136.259 155.977 141.052 156.693 144.985C157.098 147.195 157.51 149.434 157.934 151.744C158.738 156.093 162.233 158.016 165.735 155.82C167.66 154.615 169.604 153.395 171.561 152.161C175.183 149.879 177.158 144.382 175.949 140.119C175.309 137.866 174.682 135.67 174.068 133.517L174.062 133.517Z" fill="white"/>
<path d="M196.028 119.011C194.439 115.322 190.304 114.375 186.815 116.729C184.934 118.006 183.06 119.269 181.204 120.518C177.836 122.8 176.025 127.636 177.177 131.454C177.829 133.592 178.494 135.788 179.172 138.027C180.464 142.275 184.637 143.94 188.449 141.558C190.551 140.237 192.672 138.903 194.806 137.568C198.77 135.085 200.537 129.516 198.77 125.383C197.833 123.201 196.921 121.077 196.028 118.996L196.028 119.011Z" fill="white"/>
<path d="M219.95 103.229C217.778 99.7266 212.94 99.0808 209.147 101.65C207.102 103.028 205.069 104.405 203.056 105.769C199.396 108.237 197.756 113.117 199.421 116.791C200.358 118.858 201.321 120.968 202.302 123.135C204.17 127.24 209.128 128.617 213.301 126.005C215.606 124.556 217.93 123.106 220.273 121.628C224.617 118.901 226.143 113.275 223.705 109.328C222.42 107.247 221.172 105.223 219.944 103.243L219.95 103.229Z" fill="white"/>
<path d="M246.084 85.97C243.228 82.6978 237.567 82.4394 233.438 85.2237C231.209 86.7307 228.999 88.2233 226.802 89.7016C222.819 92.3998 221.388 97.2938 223.649 100.781C224.921 102.748 226.232 104.757 227.575 106.809C230.12 110.727 235.996 111.746 240.594 108.862C243.127 107.268 245.685 105.661 248.268 104.039C253.055 101.025 254.278 95.3706 251.054 91.6535C249.357 89.7016 247.705 87.8071 246.096 85.9413L246.084 85.97Z" fill="white"/>
<path d="M53.0794 193.628C53.9786 190.155 53.2631 188.418 51.5217 189.681C50.5782 190.356 49.6347 191.044 48.7039 191.719C47.0005 192.953 44.8159 196.742 43.8091 200.215C43.2518 202.153 42.6819 204.134 42.0994 206.128C41.0229 209.874 41.5738 212.013 43.3848 210.793C44.379 210.118 45.3731 209.429 46.38 208.741C48.2353 207.478 50.5782 203.287 51.547 199.541C52.0663 197.546 52.5728 195.58 53.0794 193.628Z" fill="white"/>
<path d="M64.5298 185.496C65.296 182.038 64.3905 180.373 62.5478 181.708C61.5536 182.425 60.5595 183.143 59.5653 183.86C57.767 185.166 55.6014 188.998 54.7148 192.472C54.2209 194.409 53.7207 196.375 53.2141 198.37C52.2643 202.116 53.0178 204.197 54.9302 202.891C55.9813 202.174 57.0451 201.442 58.1089 200.724C60.0719 199.375 62.3958 195.127 63.219 191.395C63.6623 189.4 64.0929 187.448 64.5234 185.511L64.5298 185.496Z" fill="white"/>
<path d="M76.6678 176.869C77.2757 173.425 76.1613 171.861 74.2109 173.267C73.1535 174.028 72.1023 174.788 71.0575 175.549C69.1578 176.927 67.0176 180.802 66.2704 184.261C65.8524 186.184 65.4345 188.15 65.0039 190.145C64.1997 193.877 65.1749 195.886 67.2075 194.508C68.3283 193.747 69.4491 192.972 70.5826 192.197C72.6722 190.762 74.9581 186.457 75.623 182.739C75.9776 180.759 76.3259 178.807 76.6678 176.884L76.6678 176.869Z" fill="white"/>
<path d="M89.5547 167.724C89.9917 164.322 88.6366 162.844 86.5723 164.337C85.4515 165.14 84.337 165.944 83.2289 166.748C81.2152 168.212 79.1129 172.13 78.5177 175.56C78.1884 177.483 77.8528 179.421 77.5172 181.401C76.884 185.118 78.0998 187.042 80.2654 185.563C81.4559 184.745 82.659 183.927 83.8621 183.109C86.091 181.588 88.3263 177.21 88.8075 173.522C89.0608 171.556 89.3078 169.618 89.5547 167.724Z" fill="white"/>
<path d="M103.246 157.994C103.486 154.636 101.865 153.272 99.6745 154.851C98.484 155.712 97.2999 156.559 96.1285 157.42C93.9882 158.97 91.9302 162.931 91.5123 166.333C91.2843 168.227 91.05 170.165 90.8094 172.131C90.3661 175.819 91.8605 177.642 94.1718 176.063C95.4446 175.188 96.7237 174.327 98.0091 173.437C100.384 171.815 102.568 167.395 102.834 163.735C102.974 161.783 103.113 159.874 103.246 157.994Z" fill="white"/>
<path d="M117.838 147.655C117.857 144.354 115.938 143.12 113.602 144.799C112.335 145.718 111.081 146.622 109.827 147.526C107.554 149.176 105.541 153.166 105.332 156.525C105.211 158.405 105.091 160.314 104.971 162.251C104.743 165.897 106.547 167.604 109.023 165.925C110.378 164.992 111.746 164.059 113.127 163.112C115.672 161.376 117.787 156.898 117.806 153.295C117.819 151.372 117.825 149.492 117.838 147.655Z" fill="white"/>
<path d="M133.419 136.588C133.178 133.358 130.936 132.282 128.441 134.076C127.093 135.052 125.75 136.013 124.42 136.975C122.002 138.726 120.051 142.759 120.064 146.06C120.077 147.911 120.083 149.777 120.096 151.686C120.121 155.274 122.274 156.853 124.921 155.044C126.377 154.054 127.84 153.049 129.315 152.045C132.044 150.179 134.077 145.658 133.817 142.113C133.678 140.233 133.545 138.396 133.412 136.573L133.419 136.588Z" fill="white"/>
<path d="M150.081 124.743C149.549 121.6 146.934 120.695 144.274 122.619C142.837 123.652 141.406 124.7 139.981 125.719C137.397 127.584 135.523 131.66 135.795 134.89C135.954 136.698 136.112 138.535 136.27 140.401C136.574 143.917 139.132 145.324 141.975 143.386C143.539 142.31 145.116 141.233 146.699 140.157C149.631 138.148 151.562 133.584 150.986 130.125C150.676 128.302 150.378 126.508 150.081 124.743Z" fill="white"/>
<path d="M167.956 112.05C167.088 109.022 164.055 108.319 161.206 110.371C159.667 111.491 158.135 112.596 156.608 113.686C153.841 115.696 152.062 119.786 152.632 122.915C152.955 124.666 153.284 126.46 153.62 128.282C154.253 131.713 157.261 132.933 160.319 130.837C162.004 129.689 163.701 128.526 165.41 127.364C168.57 125.197 170.381 120.59 169.438 117.246C168.937 115.48 168.443 113.744 167.956 112.036L167.956 112.05Z" fill="white"/>
<path d="M187.174 98.4204C185.927 95.5213 182.419 95.0621 179.354 97.2723C177.701 98.4635 176.055 99.6547 174.421 100.832C171.458 102.984 169.78 107.103 170.691 110.117C171.204 111.811 171.73 113.533 172.262 115.298C173.275 118.614 176.796 119.59 180.101 117.336C181.925 116.088 183.755 114.839 185.604 113.576C189.023 111.237 190.682 106.601 189.308 103.401C188.58 101.707 187.864 100.057 187.168 98.4204L187.174 98.4204Z" fill="white"/>
<path d="M207.897 83.7085C206.206 80.9816 202.154 80.7951 198.861 83.1775C197.082 84.4692 195.315 85.7465 193.561 87.0095C190.37 89.3202 188.824 93.4536 190.129 96.324C190.863 97.9314 191.611 99.5819 192.37 101.261C193.814 104.433 197.93 105.151 201.514 102.711C203.49 101.362 205.472 99.9981 207.473 98.6347C211.177 96.0944 212.665 91.4443 210.797 88.416C209.809 86.8086 208.841 85.2586 207.897 83.7229L207.897 83.7085Z" fill="white"/>
<path d="M230.292 67.8C228.095 65.274 223.428 65.4175 219.869 67.9722C217.951 69.3643 216.045 70.7421 214.151 72.1056C210.713 74.5885 209.32 78.7362 211.074 81.4344C212.062 82.9557 213.068 84.5058 214.101 86.0845C216.051 89.0697 220.844 89.4716 224.739 86.8164C226.885 85.3525 229.045 83.8743 231.223 82.3817C235.257 79.6261 236.523 74.9616 234.079 72.1343C232.787 70.656 231.527 69.1921 230.292 67.7713L230.292 67.8Z" fill="white"/>
<path d="M58.2845 173.549C59.0507 170.592 58.3225 169.258 56.6887 170.506C55.8086 171.181 54.922 171.855 54.0482 172.516C52.4525 173.735 50.4705 177.094 49.6157 180.065C49.1407 181.715 48.6532 183.394 48.1656 185.088C47.2474 188.26 47.849 189.925 49.5397 188.69C50.4642 188.016 51.395 187.341 52.3322 186.652C54.0545 185.389 56.1695 181.701 56.9927 178.543C57.4296 176.85 57.8665 175.185 58.2908 173.549L58.2845 173.549Z" fill="white"/>
<path d="M68.9438 165.548C69.5897 162.62 68.6969 161.357 66.9808 162.663C66.05 163.366 65.1255 164.084 64.2073 164.773C62.5293 166.05 60.5663 169.452 59.8191 172.394C59.4012 174.03 58.9769 175.695 58.5527 177.388C57.7485 180.546 58.521 182.139 60.3003 180.847C61.2755 180.13 62.2633 179.412 63.2448 178.694C65.0685 177.36 67.1518 173.642 67.8483 170.499C68.2219 168.82 68.5829 167.17 68.9438 165.548Z" fill="white"/>
<path d="M80.1942 157.094C80.7072 154.195 79.6307 153.032 77.826 154.395C76.8445 155.142 75.8694 155.888 74.9005 156.62C73.1338 157.969 71.1962 161.399 70.563 164.313C70.2147 165.935 69.8538 167.585 69.4992 169.264C68.8216 172.393 69.7841 173.914 71.6648 172.551C72.6969 171.79 73.7354 171.044 74.7802 170.283C76.7052 168.877 78.7632 165.102 79.3204 162.002C79.618 160.337 79.9093 158.701 80.1942 157.094Z" fill="white"/>
<path d="M92.0699 148.181C92.4371 145.325 91.158 144.248 89.252 145.698C88.2199 146.487 87.1877 147.262 86.1683 148.051C84.3066 149.472 82.4006 152.931 81.9003 155.816C81.6217 157.423 81.3494 159.059 81.0582 160.71C80.5326 163.824 81.6977 165.245 83.686 163.796C84.7815 162.992 85.877 162.203 86.9851 161.384C89.0241 159.892 91.044 156.089 91.443 153.017C91.6519 151.381 91.8609 149.774 92.0635 148.181L92.0699 148.181Z" fill="white"/>
<path d="M104.638 138.749C104.841 135.951 103.34 134.989 101.32 136.51C100.231 137.343 99.1416 138.175 98.0651 138.993C96.0958 140.5 94.2278 143.973 93.8795 146.815C93.6895 148.394 93.4932 150.016 93.2969 151.652C92.9297 154.709 94.3291 156.029 96.4377 154.494C97.5965 153.647 98.7679 152.8 99.9394 151.939C102.105 150.36 104.074 146.514 104.296 143.5C104.41 141.892 104.524 140.299 104.638 138.749Z" fill="white"/>
<path d="M117.941 128.758C117.954 126.017 116.206 125.185 114.072 126.807C112.92 127.682 111.767 128.558 110.621 129.433C108.538 131.026 106.714 134.528 106.537 137.327C106.442 138.877 106.341 140.47 106.239 142.077C106.049 145.091 107.708 146.297 109.956 144.661C111.191 143.756 112.426 142.852 113.673 141.948C115.978 140.269 117.891 136.394 117.91 133.437C117.916 131.858 117.929 130.308 117.935 128.787L117.941 128.758Z" fill="white"/>
<path d="M132.065 118.151C131.868 115.496 129.848 114.792 127.588 116.515C126.366 117.447 125.144 118.38 123.934 119.299C121.731 120.978 119.951 124.509 119.964 127.235C119.97 128.757 119.983 130.307 119.989 131.871C120.008 134.813 121.952 135.89 124.339 134.153C125.65 133.192 126.974 132.23 128.303 131.268C130.76 129.474 132.603 125.571 132.394 122.686C132.28 121.15 132.172 119.643 132.058 118.151L132.065 118.151Z" fill="white"/>
<path d="M147.08 106.887C146.643 104.318 144.319 103.787 141.919 105.609C140.621 106.6 139.323 107.59 138.044 108.566C135.707 110.346 133.991 113.905 134.219 116.546C134.346 118.024 134.479 119.531 134.612 121.052C134.865 123.923 137.132 124.841 139.678 122.99C141.077 121.971 142.489 120.937 143.908 119.904C146.523 117.995 148.296 114.063 147.827 111.264C147.58 109.772 147.327 108.308 147.093 106.872L147.08 106.887Z" fill="white"/>
<path d="M163.069 94.8769C162.366 92.4227 159.706 92.0638 157.148 94.0014C155.768 95.0491 154.387 96.0968 153.026 97.1445C150.537 99.0389 148.897 102.598 149.366 105.167C149.632 106.602 149.898 108.052 150.17 109.53C150.683 112.315 153.317 113.047 156.04 111.066C157.534 109.975 159.041 108.87 160.561 107.765C163.36 105.727 165.032 101.78 164.272 99.082C163.866 97.6612 163.467 96.2547 163.075 94.8769L163.069 94.8769Z" fill="white"/>
<path d="M180.149 82.0622C179.142 79.7371 176.096 79.5936 173.373 81.6603C171.898 82.7798 170.435 83.8992 168.979 85.0044C166.332 87.028 164.774 90.6017 165.515 93.0415C165.926 94.405 166.351 95.7971 166.781 97.2179C167.592 99.8731 170.638 100.404 173.55 98.28C175.152 97.1175 176.767 95.9406 178.395 94.7494C181.396 92.5535 182.954 88.5924 181.858 86.0377C181.276 84.6886 180.706 83.3539 180.142 82.0478L180.149 82.0622Z" fill="white"/>
<path d="M198.403 68.3503C197.054 66.1688 193.584 66.2692 190.671 68.4795C189.101 69.6707 187.53 70.8619 185.979 72.0531C183.155 74.2059 181.698 77.7796 182.743 80.1046C183.332 81.3963 183.927 82.7167 184.541 84.0658C185.694 86.5917 189.196 86.8788 192.33 84.5968C194.052 83.3338 195.787 82.0709 197.535 80.8079C200.764 78.4541 202.183 74.493 200.707 72.0962C199.922 70.8332 199.156 69.5846 198.403 68.3646L198.403 68.3503Z" fill="white"/>
<path d="M217.992 53.6402C216.25 51.6452 212.299 52.0184 209.183 54.3865C207.499 55.6638 205.827 56.9411 204.162 58.2041C201.135 60.5148 199.805 64.0741 201.199 66.2413C201.984 67.4468 202.782 68.6811 203.598 69.9297C205.137 72.2978 209.164 72.2978 212.533 69.858C214.389 68.5089 216.257 67.1454 218.137 65.7676C221.62 63.2273 222.874 59.2662 220.968 57.0703C219.955 55.9078 218.954 54.7596 217.985 53.6402L217.992 53.6402Z" fill="white"/>
<path d="M62.7248 156.42C63.3833 153.88 62.6488 152.846 61.1164 154.066C60.2869 154.726 59.4574 155.387 58.6342 156.032C57.1334 157.224 55.3288 160.252 54.5816 162.807C54.17 164.227 53.7584 165.677 53.3341 167.127C52.5489 169.853 53.1758 171.145 54.7589 169.94C55.6264 169.279 56.5002 168.605 57.3741 167.93C58.9888 166.696 60.9074 163.409 61.6103 160.711C61.9839 159.262 62.3575 157.841 62.7248 156.42Z" fill="white"/>
<path d="M72.7034 148.58C73.2607 146.068 72.3805 145.121 70.7785 146.384C69.9109 147.073 69.0434 147.762 68.1822 148.451C66.6119 149.699 64.8199 152.742 64.174 155.282C63.813 156.689 63.4584 158.11 63.0848 159.559C62.4009 162.257 63.1735 163.477 64.8388 162.214C65.7507 161.511 66.6688 160.808 67.587 160.105C69.284 158.799 71.1774 155.498 71.7726 152.814C72.0892 151.379 72.3995 149.972 72.7098 148.58L72.7034 148.58Z" fill="white"/>
<path d="M83.177 140.374C83.6139 137.905 82.5818 137.03 80.8974 138.364C79.9856 139.096 79.0737 139.814 78.1682 140.532C76.5219 141.838 74.7488 144.909 74.2106 147.406C73.913 148.798 73.6091 150.205 73.2988 151.64C72.7226 154.31 73.6597 155.458 75.4137 154.109C76.3762 153.377 77.3387 152.63 78.3075 151.884C80.0932 150.506 81.9612 147.177 82.4362 144.536C82.6894 143.129 82.9364 141.737 83.177 140.359L83.177 140.374Z" fill="white"/>
<path d="M94.1954 131.713C94.5056 129.288 93.3025 128.513 91.5295 129.919C90.5733 130.68 89.6172 131.44 88.661 132.201C86.9323 133.579 85.1846 136.664 84.7604 139.119C84.5261 140.482 84.2855 141.874 84.0448 143.281C83.5952 145.907 84.7097 146.969 86.5524 145.563C87.5655 144.788 88.5787 143.998 89.6045 143.223C91.4915 141.774 93.3215 138.415 93.6571 135.818C93.8344 134.44 94.0117 133.062 94.1827 131.727L94.1954 131.713Z" fill="white"/>
<path d="M105.791 122.615C105.962 120.247 104.562 119.573 102.7 121.051C101.694 121.854 100.687 122.644 99.6863 123.448C97.8626 124.897 96.1529 127.997 95.8616 130.408C95.697 131.757 95.5324 133.121 95.3677 134.499C95.0575 137.082 96.3682 138.044 98.3185 136.551C99.3887 135.733 100.459 134.915 101.542 134.082C103.53 132.547 105.328 129.174 105.512 126.634C105.613 125.285 105.708 123.936 105.803 122.629L105.791 122.615Z" fill="white"/>
<path d="M118.027 113.017C118.04 110.72 116.432 110.161 114.469 111.711C113.405 112.557 112.347 113.39 111.296 114.222C109.377 115.744 107.706 118.872 107.554 121.226C107.471 122.547 107.389 123.867 107.301 125.216C107.142 127.742 108.675 128.589 110.733 127.01C111.86 126.149 113 125.273 114.139 124.398C116.242 122.776 117.989 119.375 118.008 116.906C118.015 115.586 118.021 114.28 118.027 113.002L118.027 113.017Z" fill="white"/>
<path d="M130.938 102.884C130.773 100.659 128.937 100.229 126.866 101.879C125.746 102.769 124.625 103.659 123.517 104.534C121.49 106.142 119.863 109.27 119.876 111.567C119.876 112.844 119.888 114.136 119.895 115.456C119.914 117.925 121.687 118.628 123.865 116.963C125.062 116.045 126.265 115.126 127.468 114.193C129.697 112.485 131.388 109.055 131.217 106.658C131.122 105.381 131.033 104.118 130.938 102.884Z" fill="white"/>
<path d="M144.604 92.1651C144.243 90.0267 142.154 89.754 139.969 91.4906C138.785 92.4235 137.607 93.3707 136.436 94.3036C134.302 95.9971 132.719 99.1402 132.909 101.365C133.016 102.599 133.124 103.848 133.232 105.125C133.441 107.507 135.48 108.082 137.791 106.316C139.057 105.34 140.336 104.364 141.615 103.388C143.984 101.566 145.605 98.1356 145.218 95.8249C145.01 94.5906 144.807 93.385 144.604 92.1938L144.604 92.1651Z" fill="white"/>
<path d="M159.072 80.815C158.49 78.777 156.121 78.6622 153.81 80.4992C152.556 81.4895 151.309 82.4798 150.068 83.4701C147.807 85.2641 146.294 88.4072 146.68 90.5457C146.895 91.7369 147.117 92.9425 147.345 94.1624C147.769 96.4587 150.106 96.8606 152.556 94.9804C153.905 93.9471 155.26 92.9138 156.622 91.8661C159.136 89.9429 160.687 86.484 160.06 84.2882C159.724 83.1113 159.395 81.9631 159.072 80.815Z" fill="white"/>
<path d="M174.431 68.7497C173.601 66.8265 170.923 66.9126 168.472 68.8502C167.142 69.9122 165.825 70.9456 164.508 71.9933C162.114 73.9021 160.671 77.0452 161.279 79.0688C161.62 80.2026 161.969 81.3508 162.323 82.5133C162.988 84.6948 165.66 84.9245 168.269 82.9295C169.7 81.8244 171.144 80.7193 172.594 79.6142C175.273 77.5619 176.735 74.1174 175.836 72.022C175.361 70.9169 174.893 69.8261 174.431 68.7497Z" fill="white"/>
<path d="M190.749 55.9522C189.647 54.1725 186.62 54.4596 184.018 56.5263C182.606 57.6457 181.206 58.7652 179.813 59.8703C177.274 61.8939 175.906 65.037 176.767 66.9315C177.249 67.9935 177.742 69.07 178.243 70.1751C179.18 72.2418 182.226 72.2418 185.005 70.1177C186.538 68.9408 188.07 67.7639 189.622 66.587C192.484 64.3912 193.833 60.961 192.636 59.0092C191.996 57.9758 191.369 56.9712 190.755 55.9665L190.749 55.9522Z" fill="white"/>
<path d="M208.131 42.307C206.719 40.6852 203.306 41.2162 200.539 43.4121C199.038 44.6033 197.55 45.7802 196.062 46.9571C193.364 49.0955 192.092 52.2386 193.231 54.0039C193.871 54.9799 194.523 55.9845 195.188 57.0035C196.435 58.9123 199.893 58.6827 202.863 56.4151C204.496 55.1664 206.143 53.9035 207.795 52.6405C210.854 50.3011 212.082 46.871 210.544 45.0913C209.727 44.1441 208.923 43.2255 208.131 42.3214L208.131 42.307Z" fill="white"/>
<path d="M66.5733 141.621C67.1432 139.41 66.415 138.621 64.9712 139.812C64.186 140.458 63.4135 141.09 62.6346 141.735C61.2162 142.898 59.5509 145.639 58.9113 147.864C58.5504 149.098 58.1894 150.361 57.8285 151.624C57.1509 153.992 57.7842 154.997 59.2722 153.805C60.0891 153.16 60.9059 152.499 61.7291 151.839C63.2425 150.634 64.9965 147.677 65.6108 145.338C65.9337 144.089 66.2566 142.84 66.5733 141.621Z" fill="white"/>
<path d="M75.9321 133.998C76.4133 131.831 75.5585 131.113 74.0514 132.348C73.2346 133.022 72.4177 133.682 71.6072 134.357C70.1318 135.577 68.4791 138.318 67.9219 140.528C67.6116 141.748 67.295 142.983 66.9784 144.231C66.3831 146.571 67.1557 147.503 68.7134 146.255C69.5682 145.566 70.4294 144.891 71.2906 144.202C72.88 142.925 74.615 139.969 75.1279 137.658C75.4002 136.424 75.6725 135.204 75.9384 133.998L75.9321 133.998Z" fill="white"/>
<path d="M85.7373 126.018C86.1173 123.894 85.1231 123.248 83.5464 124.54C82.6916 125.243 81.8367 125.946 80.9882 126.635C79.4431 127.913 77.8157 130.668 77.3472 132.835C77.0875 134.041 76.8279 135.261 76.562 136.481C76.0681 138.777 76.9799 139.638 78.6136 138.332C79.5064 137.615 80.412 136.897 81.3111 136.179C82.9765 134.845 84.6862 131.859 85.0915 129.592C85.3068 128.386 85.522 127.181 85.731 126.004L85.7373 126.018Z" fill="white"/>
<path d="M96.0005 117.666C96.2665 115.585 95.1267 115.039 93.474 116.388C92.5811 117.12 91.6883 117.852 90.8018 118.584C89.1871 119.919 87.5787 122.689 87.2114 124.813C87.0088 125.99 86.8062 127.181 86.5972 128.401C86.2109 130.654 87.2811 131.429 88.9971 130.066C89.9406 129.32 90.8841 128.559 91.8339 127.798C93.588 126.406 95.266 123.392 95.5573 121.182C95.7092 119.991 95.8612 118.828 96.0069 117.666L96.0005 117.666Z" fill="white"/>
<path d="M106.788 108.908C106.933 106.885 105.623 106.426 103.894 107.846C102.957 108.621 102.02 109.382 101.089 110.143C99.3918 111.535 97.815 114.334 97.5618 116.4C97.4225 117.548 97.2831 118.725 97.1375 119.902C96.8715 122.112 98.1127 122.787 99.911 121.352C100.899 120.562 101.893 119.773 102.893 118.969C104.736 117.505 106.383 114.477 106.541 112.31C106.623 111.147 106.705 110.014 106.788 108.88L106.788 108.908Z" fill="white"/>
<path d="M118.097 99.7065C118.103 97.7402 116.621 97.3958 114.804 98.8884C113.822 99.6921 112.841 100.496 111.866 101.3C110.086 102.763 108.541 105.562 108.415 107.586C108.345 108.705 108.275 109.839 108.199 111.002C108.066 113.154 109.491 113.728 111.391 112.221C112.429 111.389 113.474 110.557 114.532 109.71C116.469 108.16 118.078 105.132 118.09 103.036C118.09 101.917 118.103 100.812 118.109 99.7065L118.097 99.7065Z" fill="white"/>
<path d="M129.997 90.0315C129.857 88.137 128.173 87.9217 126.267 89.4861C125.235 90.3329 124.203 91.1796 123.177 92.0264C121.309 93.5621 119.802 96.3751 119.808 98.327C119.808 99.4177 119.821 100.508 119.827 101.628C119.84 103.709 121.467 104.168 123.468 102.575C124.563 101.7 125.665 100.824 126.773 99.9344C128.819 98.2983 130.376 95.2556 130.231 93.232C130.155 92.1556 130.072 91.0792 129.997 90.0315Z" fill="white"/>
<path d="M142.524 79.8292C142.22 78.0209 140.32 77.9348 138.313 79.5853C137.224 80.4751 136.141 81.3649 135.065 82.2547C133.102 83.8622 131.639 86.6752 131.797 88.5696C131.886 89.6173 131.981 90.6794 132.069 91.7558C132.247 93.7651 134.102 94.0952 136.211 92.416C137.37 91.4975 138.535 90.5646 139.7 89.6317C141.859 87.9094 143.366 84.8668 143.037 82.9149C142.86 81.8816 142.689 80.8482 142.518 79.8436L142.524 79.8292Z" fill="white"/>
<path d="M155.735 69.0881C155.241 67.3802 153.113 67.4376 150.998 69.1742C149.852 70.1214 148.712 71.0543 147.579 71.9872C145.514 73.6807 144.096 76.4937 144.425 78.3021C144.609 79.3067 144.799 80.3114 144.983 81.3447C145.337 83.2679 147.439 83.4401 149.668 81.6748C150.89 80.6989 152.119 79.7229 153.36 78.7326C155.64 76.9099 157.083 73.8673 156.564 72.0159C156.286 71.0256 156.007 70.064 155.735 69.1024L155.735 69.0881Z" fill="white"/>
<path d="M169.685 57.7325C168.995 56.1251 166.601 56.3547 164.372 58.1774C163.163 59.1677 161.96 60.158 160.763 61.1339C158.585 62.9279 157.23 65.741 157.743 67.4345C158.034 68.3817 158.325 69.3433 158.616 70.3193C159.174 72.142 161.548 72.1563 163.91 70.2762C165.208 69.2429 166.506 68.1952 167.817 67.1618C170.236 65.2386 171.598 62.196 170.857 60.4594C170.464 59.5409 170.071 58.6223 169.685 57.7325Z" fill="white"/>
<path d="M184.435 45.7359C183.517 44.2576 180.838 44.6595 178.483 46.597C177.204 47.6447 175.937 48.6924 174.671 49.7258C172.366 51.6203 171.08 54.4189 171.802 56.012C172.208 56.9018 172.613 57.806 173.031 58.7102C173.81 60.4181 176.494 60.2458 178.996 58.2509C180.37 57.1601 181.75 56.055 183.137 54.9499C185.701 52.8976 186.987 49.8693 185.999 48.2619C185.467 47.4008 184.954 46.5683 184.441 45.7359L184.435 45.7359Z" fill="white"/>
<path d="M200.056 33.0187C198.884 31.6839 195.896 32.3011 193.401 34.3391C192.052 35.4442 190.703 36.5493 189.367 37.6544C186.935 39.6493 185.72 42.448 186.669 43.9119C187.201 44.73 187.74 45.5624 188.291 46.4092C189.323 47.9879 192.337 47.6004 194.996 45.4906C196.453 44.3281 197.922 43.1512 199.397 41.9744C202.12 39.7929 203.311 36.7789 202.044 35.315C201.367 34.54 200.702 33.7793 200.056 33.0187Z" fill="white"/>
<path d="M69.9165 128.721C70.4167 126.784 69.7012 126.181 68.3335 127.329C67.5926 127.961 66.8581 128.578 66.1235 129.195C64.7811 130.329 63.2424 132.826 62.6725 134.778C62.3622 135.869 62.0456 136.96 61.7226 138.079C61.1274 140.146 61.767 140.935 63.1727 139.773C63.9389 139.141 64.7178 138.495 65.4903 137.864C66.9214 136.687 68.5361 134.003 69.068 131.965C69.3529 130.874 69.6316 129.783 69.9102 128.707L69.9165 128.721Z" fill="white"/>
<path d="M78.7452 121.31C79.1631 119.415 78.3336 118.87 76.9152 120.075C76.1427 120.735 75.3764 121.381 74.6103 122.027C73.2172 123.204 71.6848 125.716 71.1972 127.639C70.9249 128.701 70.6526 129.792 70.374 130.882C69.8611 132.92 70.6146 133.638 72.0837 132.432C72.8879 131.772 73.6921 131.098 74.5026 130.437C75.997 129.203 77.5927 126.519 78.0423 124.51C78.2829 123.434 78.5172 122.372 78.7515 121.324L78.7452 121.31Z" fill="white"/>
<path d="M87.9465 113.609C88.2757 111.757 87.3259 111.298 85.8442 112.547C85.04 113.221 84.2421 113.896 83.4443 114.57C81.9879 115.805 80.4808 118.316 80.0692 120.211C79.8412 121.258 79.6133 122.32 79.3853 123.397C78.9547 125.406 79.8412 126.038 81.3736 124.775C82.2158 124.086 83.058 123.382 83.9065 122.679C85.4642 121.387 87.0473 118.689 87.3956 116.723C87.5855 115.675 87.7692 114.628 87.9528 113.594L87.9465 113.609Z" fill="white"/>
<path d="M97.5659 105.544C97.8002 103.736 96.7111 103.362 95.166 104.668C94.3238 105.372 93.4943 106.089 92.6585 106.793C91.1387 108.07 89.6507 110.596 89.334 112.447C89.1567 113.466 88.9794 114.514 88.8021 115.562C88.4665 117.528 89.486 118.088 91.0944 116.767C91.9746 116.035 92.8547 115.318 93.7413 114.586C95.375 113.237 96.9264 110.524 97.1797 108.601C97.3126 107.568 97.4456 106.563 97.5723 105.558L97.5659 105.544Z" fill="white"/>
<path d="M107.632 97.0979C107.758 95.3469 106.53 95.0599 104.915 96.4233C104.035 97.1696 103.167 97.9016 102.294 98.6335C100.711 99.9683 99.2478 102.509 99.0262 104.317C98.9058 105.322 98.7855 106.326 98.6589 107.36C98.4309 109.268 99.5961 109.742 101.274 108.35C102.199 107.589 103.123 106.829 104.048 106.068C105.757 104.661 107.283 101.935 107.416 100.069C107.486 99.0641 107.562 98.0881 107.632 97.1122L107.632 97.0979Z" fill="white"/>
<path d="M118.158 88.2944C118.158 86.6008 116.784 86.4143 115.093 87.8495C114.175 88.6245 113.263 89.3995 112.351 90.1602C110.692 91.5667 109.255 94.107 109.147 95.8436C109.084 96.8195 109.027 97.7955 108.963 98.7857C108.849 100.637 110.179 101.01 111.94 99.5608C112.908 98.7714 113.877 97.9677 114.852 97.164C116.651 95.6857 118.132 92.9588 118.145 91.1504C118.145 90.1889 118.158 89.2273 118.164 88.2944L118.158 88.2944Z" fill="white"/>
<path d="M129.196 79.0294C129.076 77.4076 127.525 77.3358 125.752 78.8285C124.789 79.6322 123.833 80.4502 122.883 81.254C121.148 82.7179 119.749 85.2582 119.755 86.9517C119.755 87.8846 119.768 88.8318 119.774 89.7934C119.787 91.5874 121.294 91.8458 123.136 90.3245C124.15 89.492 125.169 88.6453 126.189 87.8128C128.076 86.2485 129.519 83.5216 129.393 81.785C129.323 80.8521 129.26 79.9336 129.19 79.0294L129.196 79.0294Z" fill="white"/>
<path d="M140.764 69.34C140.504 67.79 138.763 67.8474 136.907 69.4118C135.9 70.2586 134.9 71.1053 133.899 71.9521C132.082 73.4878 130.714 76.0281 130.854 77.6499C130.93 78.5397 131.012 79.4582 131.088 80.3768C131.24 82.099 132.937 82.2425 134.881 80.6351C135.945 79.7596 137.015 78.8698 138.091 77.98C140.073 76.3438 141.473 73.617 141.2 71.9521C141.055 71.0623 140.909 70.2012 140.757 69.3257L140.764 69.34Z" fill="white"/>
<path d="M152.912 59.1525C152.494 57.6886 150.556 57.8752 148.612 59.5113C147.554 60.4011 146.503 61.2909 145.459 62.1664C143.553 63.7739 142.229 66.3142 142.508 67.8642C142.666 68.7253 142.824 69.5864 142.989 70.4619C143.293 72.098 145.199 72.1124 147.244 70.4189C148.365 69.5003 149.492 68.5674 150.626 67.6346C152.715 65.9123 154.064 63.1854 153.621 61.621C153.386 60.7886 153.146 59.9562 152.918 59.1525L152.912 59.1525Z" fill="white"/>
<path d="M165.698 48.4488C165.109 47.0854 162.956 47.4155 160.911 49.1377C159.803 50.0706 158.701 51.0035 157.599 51.9363C155.598 53.6299 154.325 56.1559 154.762 57.6198C155.009 58.4235 155.256 59.2416 155.51 60.074C155.984 61.624 158.118 61.4805 160.278 59.7008C161.462 58.7249 162.646 57.7489 163.843 56.7586C166.04 54.9359 167.332 52.2234 166.705 50.7595C166.369 49.9701 166.034 49.2095 165.711 48.4488L165.698 48.4488Z" fill="white"/>
<path d="M179.154 37.1665C178.375 35.9178 175.982 36.4058 173.829 38.2141C172.664 39.2044 171.498 40.1804 170.346 41.1563C168.244 42.936 167.022 45.4619 167.636 46.811C167.978 47.5573 168.326 48.318 168.674 49.093C169.333 50.5426 171.726 50.2268 174 48.3611C175.247 47.3277 176.501 46.2944 177.761 45.261C180.085 43.3378 181.307 40.6397 180.471 39.2762C180.028 38.5586 179.585 37.841 179.154 37.1521L179.154 37.1665Z" fill="white"/>
<path d="M193.333 25.2867C192.345 24.1529 189.692 24.8274 187.425 26.7362C186.196 27.7696 184.974 28.8029 183.758 29.8363C181.542 31.7021 180.383 34.2137 181.194 35.4623C181.644 36.1512 182.099 36.8545 182.562 37.5577C183.429 38.8781 186.101 38.3901 188.501 36.4239C189.818 35.3331 191.142 34.2424 192.478 33.1516C194.935 31.128 196.075 28.4298 195.017 27.2099C194.454 26.564 193.896 25.9182 193.345 25.2867L193.333 25.2867Z" fill="white"/>
<path d="M72.8593 117.365C73.3026 115.657 72.5997 115.198 71.3016 116.317C70.5987 116.92 69.9022 117.523 69.2056 118.126C67.9329 119.231 66.4955 121.513 65.9952 123.264C65.7166 124.225 65.438 125.201 65.153 126.177C64.6274 128.014 65.267 128.603 66.5968 127.483C67.325 126.866 68.0595 126.249 68.7877 125.632C70.1365 124.484 71.6372 122.044 72.1058 120.235C72.3591 119.274 72.606 118.312 72.853 117.365L72.8593 117.365Z" fill="white"/>
<path d="M81.206 110.189C81.5732 108.51 80.769 108.122 79.4266 109.285C78.6984 109.916 77.9702 110.548 77.2483 111.165C75.9249 112.313 74.5065 114.609 74.0696 116.317C73.8289 117.264 73.5883 118.212 73.3413 119.173C72.8854 120.967 73.6326 121.513 75.0131 120.336C75.7729 119.69 76.5328 119.044 77.299 118.398C78.7047 117.207 80.1928 114.753 80.5854 112.988C80.7944 112.04 81.0033 111.107 81.206 110.174L81.206 110.189Z" fill="white"/>
<path d="M89.8835 102.729C90.1748 101.093 89.2566 100.777 87.8636 101.997C87.1037 102.657 86.3502 103.303 85.5966 103.963C84.2225 105.154 82.8168 107.465 82.4559 109.13C82.2596 110.048 82.0569 110.981 81.8543 111.928C81.4744 113.679 82.3355 114.153 83.7729 112.933C84.5645 112.258 85.356 111.584 86.1539 110.909C87.6229 109.661 89.0857 107.207 89.396 105.484C89.5606 104.566 89.7252 103.647 89.8835 102.743L89.8835 102.729Z" fill="white"/>
<path d="M98.9336 94.9472C99.1362 93.3541 98.104 93.1245 96.6476 94.3731C95.8561 95.062 95.0709 95.7366 94.2857 96.4111C92.8547 97.6454 91.4679 99.9561 91.1893 101.592C91.0373 102.496 90.879 103.401 90.7207 104.319C90.4294 106.041 91.4046 106.429 92.9116 105.152C93.7348 104.448 94.5644 103.745 95.3939 103.042C96.9263 101.736 98.37 99.2672 98.5853 97.6023C98.6993 96.6981 98.8133 95.8083 98.9272 94.9328L98.9336 94.9472Z" fill="white"/>
<path d="M108.36 86.8398C108.468 85.3042 107.315 85.1463 105.796 86.4667C104.972 87.1843 104.156 87.8875 103.339 88.5908C101.851 89.8825 100.483 92.1932 100.293 93.7719C100.185 94.6474 100.078 95.5372 99.97 96.427C99.7674 98.0919 100.876 98.4076 102.446 97.0729C103.307 96.3409 104.175 95.609 105.042 94.877C106.644 93.5136 108.056 91.045 108.177 89.4232C108.24 88.5477 108.303 87.6866 108.36 86.8398Z" fill="white"/>
<path d="M118.209 78.383C118.215 76.9047 116.924 76.8473 115.34 78.2108C114.479 78.9571 113.624 79.689 112.776 80.4353C111.225 81.7844 109.882 84.0951 109.787 85.6308C109.736 86.4775 109.679 87.3387 109.629 88.1998C109.527 89.8072 110.775 90.0369 112.421 88.6447C113.32 87.884 114.226 87.109 115.131 86.3484C116.803 84.9275 118.19 82.459 118.196 80.8802C118.196 80.0478 118.209 79.2154 118.209 78.3973L118.209 78.383Z" fill="white"/>
<path d="M128.485 69.5426C128.377 68.1218 126.94 68.1649 125.287 69.6001C124.394 70.3751 123.501 71.1501 122.609 71.9107C120.988 73.3172 119.677 75.6279 119.683 77.1062C119.683 77.9242 119.689 78.7423 119.696 79.5747C119.708 81.1248 121.108 81.2539 122.824 79.79C123.767 78.9863 124.711 78.1826 125.661 77.3789C127.408 75.8863 128.764 73.4177 128.65 71.9251C128.593 71.1214 128.529 70.332 128.472 69.5426L128.485 69.5426Z" fill="white"/>
<path d="M139.239 60.3014C139.011 58.9666 137.409 59.1101 135.687 60.6028C134.75 61.4065 133.819 62.2245 132.888 63.0283C131.197 64.4922 129.918 66.8029 130.039 68.2094C130.108 68.9844 130.172 69.7737 130.241 70.5774C130.374 72.0701 131.938 72.0701 133.737 70.5487C134.724 69.7163 135.712 68.8696 136.713 68.0228C138.549 66.4584 139.854 63.9898 139.619 62.569C139.486 61.8083 139.366 61.0477 139.239 60.3014Z" fill="white"/>
<path d="M150.491 50.6433C150.13 49.3803 148.357 49.653 146.553 51.2174C145.571 52.0642 144.596 52.911 143.627 53.7434C141.86 55.279 140.619 57.5897 140.86 58.9245C140.993 59.6564 141.132 60.4171 141.272 61.1634C141.531 62.5842 143.279 62.4551 145.166 60.862C146.198 59.9865 147.243 59.111 148.281 58.2212C150.206 56.5851 151.473 54.1165 151.093 52.7818C150.89 52.0642 150.688 51.3466 150.485 50.6433L150.491 50.6433Z" fill="white"/>
<path d="M162.283 40.51C161.777 39.3331 159.82 39.735 157.927 41.3711C156.901 42.261 155.881 43.1364 154.868 44.0119C153.019 45.6193 151.816 47.9157 152.196 49.1786C152.405 49.8675 152.62 50.5708 152.836 51.2884C153.241 52.6231 155.185 52.3648 157.167 50.6856C158.25 49.7671 159.345 48.8342 160.441 47.9157C162.461 46.2078 163.676 43.7392 163.138 42.4906C162.847 41.816 162.562 41.1702 162.283 40.51Z" fill="white"/>
<path d="M174.647 29.8734C173.982 28.797 171.816 29.3423 169.834 31.0646C168.758 31.9975 167.694 32.916 166.63 33.8345C164.692 35.5137 163.54 37.8101 164.065 38.9726C164.357 39.6184 164.661 40.2643 164.958 40.9388C165.522 42.1731 167.681 41.7856 169.758 40.0203C170.898 39.0587 172.044 38.0828 173.196 37.1068C175.324 35.2985 176.477 32.8586 175.767 31.7104C175.387 31.0933 175.014 30.4905 174.64 29.8877L174.647 29.8734Z" fill="white"/>
<path d="M187.638 18.7296C186.795 17.768 184.415 18.4713 182.331 20.2653C181.204 21.2412 180.083 22.2172 178.969 23.1788C176.936 24.9441 175.834 27.2117 176.525 28.2881C176.911 28.8765 177.297 29.4793 177.69 30.0821C178.424 31.2159 180.818 30.6562 183.009 28.8048C184.212 27.7858 185.415 26.7668 186.631 25.7334C188.866 23.839 189.962 21.4135 189.062 20.3658C188.581 19.806 188.106 19.2606 187.638 18.7296Z" fill="white"/>
<path d="M75.4737 107.289C75.8663 105.767 75.1761 105.437 73.9477 106.514C73.2828 107.102 72.6179 107.691 71.953 108.279C70.7436 109.341 69.4012 111.465 68.9516 113.015C68.7046 113.876 68.4513 114.737 68.2044 115.613C67.7358 117.235 68.369 117.694 69.6355 116.603C70.3257 116 71.0222 115.398 71.7187 114.795C73.0042 113.675 74.3973 111.437 74.8152 109.843C75.0368 108.982 75.2584 108.136 75.4737 107.289Z" fill="white"/>
<path d="M83.3878 100.347C83.717 98.8539 82.9318 98.5956 81.6591 99.7151C80.9689 100.332 80.2787 100.935 79.5884 101.538C78.3347 102.643 77.0049 104.767 76.6186 106.288C76.4033 107.135 76.1881 107.982 75.9728 108.829C75.5675 110.422 76.2957 110.824 77.6065 109.69C78.322 109.073 79.0439 108.441 79.7721 107.81C81.1018 106.647 82.4886 104.408 82.8369 102.844C83.0205 101.997 83.2041 101.179 83.3878 100.347Z" fill="white"/>
<path d="M91.5971 93.1443C91.8568 91.6948 90.9766 91.4938 89.6531 92.6563C88.9376 93.2878 88.2221 93.9193 87.5065 94.5508C86.2084 95.699 84.8913 97.8231 84.5747 99.3014C84.3974 100.119 84.2201 100.952 84.0365 101.784C83.7009 103.334 84.5304 103.679 85.8918 102.488C86.639 101.842 87.3862 101.181 88.1397 100.536C89.5265 99.3301 90.8879 97.0768 91.1602 95.5555C91.3059 94.7374 91.4515 93.9337 91.5908 93.13L91.5971 93.1443Z" fill="white"/>
<path d="M100.138 85.6381C100.315 84.2316 99.3333 84.1025 97.9592 85.3224C97.212 85.9826 96.4712 86.6428 95.7303 87.2886C94.3815 88.4798 93.0834 90.6183 92.8365 92.0535C92.7035 92.8572 92.5642 93.6609 92.4249 94.4646C92.1653 95.986 93.1024 96.2443 94.5208 95.01C95.2997 94.3355 96.0786 93.6609 96.8638 92.972C98.3075 91.7234 99.6499 89.4558 99.8462 87.9775C99.9475 87.1881 100.049 86.3988 100.15 85.6238L100.138 85.6381Z" fill="white"/>
<path d="M109.016 77.8455C109.111 76.4964 108.015 76.439 106.591 77.7019C105.818 78.3908 105.045 79.0654 104.273 79.7543C102.867 81.0029 101.594 83.127 101.423 84.5192C101.328 85.2942 101.233 86.0692 101.138 86.8586C100.961 88.3225 102.012 88.509 103.488 87.2317C104.298 86.5285 105.109 85.8252 105.926 85.122C107.426 83.8159 108.75 81.5483 108.851 80.1274C108.908 79.3668 108.959 78.6061 109.016 77.8598L109.016 77.8455Z" fill="white"/>
<path d="M118.257 69.7295C118.257 68.4235 117.048 68.4665 115.56 69.7726C114.756 70.4902 113.951 71.1934 113.154 71.8967C111.691 73.1883 110.437 75.3125 110.355 76.6615C110.31 77.4079 110.26 78.1685 110.215 78.9292C110.127 80.35 111.305 80.4505 112.843 79.1158C113.685 78.3838 114.534 77.6518 115.383 76.9055C116.947 75.5421 118.245 73.2888 118.251 71.911C118.251 71.1791 118.257 70.4471 118.264 69.7295L118.257 69.7295Z" fill="white"/>
<path d="M127.885 61.2828C127.79 60.0486 126.448 60.1634 124.903 61.5412C124.067 62.2875 123.225 63.0194 122.395 63.7514C120.875 65.1005 119.647 67.2246 119.653 68.5163C119.653 69.2339 119.659 69.9515 119.666 70.6834C119.672 72.0469 120.983 72.0469 122.591 70.6547C123.471 69.8941 124.352 69.1191 125.244 68.3584C126.878 66.9376 128.145 64.6843 128.05 63.3639C127.999 62.6606 127.948 61.9717 127.898 61.2828L127.885 61.2828Z" fill="white"/>
<path d="M137.925 52.4658C137.729 51.2889 136.241 51.5186 134.632 52.9394C133.758 53.7144 132.884 54.4751 132.017 55.2501C130.434 56.6566 129.231 58.7807 129.338 60.0006C129.395 60.6895 129.459 61.3784 129.516 62.0673C129.63 63.3734 131.086 63.2729 132.758 61.8234C133.676 61.0196 134.6 60.2303 135.525 59.4266C137.235 57.9483 138.463 55.6807 138.254 54.4464C138.14 53.7718 138.033 53.126 137.919 52.4658L137.925 52.4658Z" fill="white"/>
<path d="M148.4 43.2675C148.083 42.1624 146.449 42.5068 144.771 43.9851C143.859 44.7888 142.954 45.5925 142.048 46.3963C140.396 47.8602 139.231 49.9699 139.44 51.1324C139.56 51.7783 139.68 52.4385 139.801 53.0987C140.029 54.3329 141.637 54.1177 143.391 52.5963C144.353 51.7639 145.316 50.9315 146.285 50.0847C148.07 48.5347 149.261 46.2814 148.932 45.1189C148.754 44.4874 148.577 43.8703 148.406 43.2675L148.4 43.2675Z" fill="white"/>
<path d="M159.334 33.6485C158.891 32.6296 157.099 33.0888 155.345 34.6245C154.395 35.4713 153.445 36.3037 152.502 37.1361C150.78 38.6574 149.646 40.7672 149.975 41.8579C150.159 42.4607 150.343 43.0778 150.533 43.695C150.887 44.8432 152.667 44.5274 154.497 42.9343C155.503 42.0589 156.51 41.1834 157.523 40.3079C159.391 38.6861 160.538 36.4472 160.075 35.3564C159.828 34.7824 159.581 34.2083 159.334 33.6342L159.334 33.6485Z" fill="white"/>
<path d="M170.771 23.6203C170.194 22.6874 168.219 23.2758 166.389 24.8833C165.395 25.7587 164.407 26.6342 163.419 27.5097C161.621 29.1028 160.525 31.1982 160.987 32.2028C161.241 32.7625 161.5 33.3366 161.76 33.8964C162.247 34.9728 164.21 34.5135 166.129 32.8487C167.18 31.9301 168.238 31.0116 169.302 30.0931C171.258 28.3995 172.36 26.1749 171.746 25.1703C171.417 24.6393 171.094 24.1226 170.771 23.5916L170.771 23.6203Z" fill="white"/>
<path d="M182.738 13.0941C182.01 12.2617 179.851 12.9793 177.932 14.6729C176.893 15.5914 175.855 16.5099 174.823 17.4141C172.942 19.079 171.897 21.16 172.493 22.0785C172.822 22.5952 173.157 23.1119 173.499 23.6286C174.133 24.6045 176.298 24.0017 178.312 22.2651C179.414 21.3035 180.522 20.3419 181.636 19.3803C183.688 17.6007 184.733 15.3905 183.96 14.5006C183.549 14.027 183.137 13.5534 182.732 13.0941L182.738 13.0941Z" fill="white"/>
<path d="M77.808 98.3078C78.1626 96.9444 77.4851 96.7147 76.3136 97.7624C75.6804 98.3365 75.0409 98.8962 74.414 99.4703C73.2615 100.504 72.0014 102.47 71.5961 103.862C71.3745 104.637 71.1529 105.412 70.9249 106.187C70.507 107.651 71.1339 107.981 72.3307 106.919C72.9892 106.331 73.6478 105.757 74.3063 105.168C75.5284 104.092 76.8329 102.011 77.2065 100.59C77.4028 99.8148 77.5991 99.0541 77.8017 98.3078L77.808 98.3078Z" fill="white"/>
<path d="M85.326 91.5768C85.6236 90.2564 84.8638 90.0699 83.648 91.1606C82.9894 91.749 82.3372 92.3375 81.6787 92.9259C80.4882 94.0023 79.2344 95.9685 78.8925 97.332C78.7025 98.0783 78.5062 98.839 78.3163 99.614C77.9553 101.035 78.6645 101.322 79.912 100.217C80.5958 99.614 81.2797 99.0112 81.9636 98.394C83.2237 97.2746 84.5218 95.1935 84.8321 93.8014C84.9967 93.0551 85.1614 92.3088 85.326 91.5768Z" fill="white"/>
<path d="M93.1229 84.6021C93.3509 83.3104 92.5087 83.2099 91.2486 84.3294C90.5647 84.9465 89.8871 85.5493 89.2096 86.1665C87.9748 87.2859 86.74 89.2522 86.4551 90.5725C86.2968 91.3045 86.1385 92.0365 85.9738 92.7828C85.6762 94.1749 86.4741 94.3902 87.7658 93.2564C88.4751 92.6249 89.1843 92.0077 89.8935 91.3763C91.2042 90.2137 92.4833 88.1327 92.7303 86.7836C92.8569 86.0516 92.9899 85.334 93.1166 84.6164L93.1229 84.6021Z" fill="white"/>
<path d="M101.205 77.3854C101.364 76.1368 100.426 76.0938 99.1282 77.2563C98.419 77.8878 97.7162 78.5193 97.0133 79.1507C95.7342 80.2989 94.5121 82.2795 94.2905 83.5568C94.1701 84.2744 94.0435 84.992 93.9232 85.7096C93.6952 87.0587 94.5881 87.2166 95.9305 86.0254C96.665 85.3795 97.3996 84.7193 98.1404 84.0592C99.5018 82.8536 100.762 80.7725 100.933 79.4521C101.022 78.7489 101.117 78.0456 101.205 77.3567L101.205 77.3854Z" fill="white"/>
<path d="M109.583 69.8797C109.666 68.6741 108.627 68.7028 107.278 69.9227C106.544 70.5829 105.816 71.2431 105.087 71.889C103.758 73.0802 102.561 75.0608 102.409 76.2951C102.327 76.984 102.238 77.6729 102.156 78.3761C101.997 79.6821 102.998 79.7539 104.391 78.534C105.157 77.8594 105.917 77.1849 106.689 76.496C108.108 75.2474 109.343 73.152 109.438 71.889C109.488 71.2144 109.533 70.5399 109.583 69.8653L109.583 69.8797Z" fill="white"/>
<path d="M118.302 62.0836C118.302 60.9355 117.162 61.0359 115.763 62.2989C115.003 62.9878 114.243 63.6623 113.49 64.3369C112.109 65.5712 110.932 67.5518 110.856 68.743C110.811 69.4032 110.773 70.0777 110.729 70.7523C110.653 72.0152 111.761 72.0152 113.211 70.7379C114.003 70.0347 114.801 69.3314 115.598 68.6282C117.067 67.3221 118.283 65.2411 118.296 64.0355C118.296 63.3897 118.302 62.7438 118.309 62.098L118.302 62.0836Z" fill="white"/>
<path d="M127.349 53.9858C127.266 52.895 126.006 53.0816 124.55 54.3876C123.758 55.1053 122.973 55.8085 122.188 56.5118C120.757 57.8034 119.598 59.7697 119.604 60.9035C119.604 61.535 119.611 62.1808 119.617 62.8267C119.623 64.0322 120.852 63.9461 122.359 62.6114C123.182 61.8794 124.012 61.1475 124.847 60.4155C126.38 59.0521 127.57 56.9854 127.482 55.8229C127.437 55.2057 127.393 54.5886 127.349 53.9858Z" fill="white"/>
<path d="M136.765 45.5624C136.588 44.5291 135.208 44.8161 133.694 46.1652C132.871 46.8972 132.054 47.6435 131.244 48.3754C129.756 49.7102 128.622 51.6764 128.717 52.7672C128.768 53.3699 128.825 53.9727 128.875 54.5899C128.977 55.738 130.332 55.5658 131.902 54.1737C132.763 53.413 133.625 52.6523 134.492 51.8773C136.088 50.4565 137.247 48.3898 137.063 47.299C136.962 46.7106 136.867 46.1365 136.772 45.5624L136.765 45.5624Z" fill="white"/>
<path d="M146.561 36.7985C146.283 35.8369 144.769 36.21 143.199 37.6309C142.344 38.3916 141.496 39.1666 140.647 39.9272C139.102 41.3194 137.994 43.2713 138.184 44.3046C138.292 44.8787 138.393 45.4528 138.5 46.0269C138.703 47.1033 140.191 46.8306 141.831 45.381C142.73 44.5916 143.63 43.7879 144.529 42.9842C146.194 41.506 147.315 39.4536 147.03 38.4203C146.872 37.8749 146.72 37.3295 146.568 36.7841L146.561 36.7985Z" fill="white"/>
<path d="M156.762 27.6849C156.375 26.795 154.716 27.283 153.083 28.7469C152.196 29.5506 151.31 30.34 150.423 31.1293C148.815 32.5789 147.738 34.5164 148.03 35.478C148.188 36.009 148.352 36.5544 148.517 37.0855C148.827 38.0901 150.467 37.7169 152.171 36.21C153.108 35.3776 154.045 34.5595 154.989 33.7127C156.724 32.177 157.813 30.1247 157.408 29.1775C157.192 28.6608 156.971 28.1728 156.762 27.6705L156.762 27.6849Z" fill="white"/>
<path d="M167.403 18.1513C166.897 17.3332 165.092 17.936 163.382 19.4716C162.458 20.3041 161.533 21.1365 160.615 21.9546C158.937 23.4615 157.899 25.399 158.304 26.2889C158.526 26.7768 158.754 27.2792 158.982 27.7815C159.412 28.7144 161.211 28.2121 162.99 26.6477C163.965 25.7866 164.947 24.9111 165.928 24.05C167.739 22.4425 168.79 20.4045 168.258 19.5434C167.973 19.0841 167.688 18.6249 167.41 18.1656L167.403 18.1513Z" fill="white"/>
<path d="M178.502 8.21731C177.869 7.48536 175.893 8.21731 174.114 9.82474C173.151 10.7002 172.189 11.5613 171.226 12.4225C169.479 14.0012 168.478 15.91 168.997 16.7281C169.289 17.173 169.58 17.6179 169.878 18.0772C170.428 18.9239 172.404 18.2925 174.266 16.6563C175.285 15.7521 176.311 14.848 177.337 13.9294C179.23 12.2502 180.231 10.2266 179.566 9.45159C179.211 9.03538 178.85 8.61917 178.502 8.23166L178.502 8.21731Z" fill="white"/>
<path d="M79.9049 90.2392C80.2215 89.0049 79.5629 88.8614 78.4485 89.8804C77.8406 90.4401 77.239 90.9855 76.6311 91.5309C75.5293 92.5355 74.3389 94.3726 73.9779 95.6212C73.7753 96.3101 73.579 97.0134 73.3701 97.7166C72.9901 99.0227 73.6107 99.2667 74.7568 98.2477C75.3837 97.6879 76.0106 97.1138 76.6438 96.5541C77.8026 95.5064 79.0374 93.5832 79.373 92.2915C79.5503 91.6027 79.7276 90.9138 79.9049 90.2392Z" fill="white"/>
<path d="M87.0588 83.7217C87.3248 82.5305 86.5902 82.43 85.4314 83.4777C84.8046 84.0518 84.1777 84.6259 83.5571 85.1856C82.4173 86.2333 81.2395 88.056 80.9292 89.2759C80.7583 89.9505 80.5873 90.6394 80.41 91.3283C80.0871 92.6056 80.7773 92.8065 81.9677 91.7301C82.6136 91.1417 83.2658 90.5533 83.9181 89.9648C85.1212 88.8884 86.3369 86.9509 86.6156 85.7023C86.7675 85.0277 86.9132 84.3675 87.0588 83.7073L87.0588 83.7217Z" fill="white"/>
<path d="M94.4748 76.9728C94.6774 75.8103 93.8669 75.7816 92.6701 76.8723C92.0242 77.4608 91.3784 78.0492 90.7325 78.6376C89.5547 79.7141 88.3895 81.5511 88.1363 82.7423C87.997 83.4025 87.8513 84.0627 87.7057 84.7373C87.4397 85.9859 88.2123 86.1151 89.4407 85.01C90.1119 84.4072 90.7895 83.79 91.467 83.1873C92.7081 82.0678 93.9176 80.1303 94.1329 78.9247C94.2532 78.2788 94.3672 77.6187 94.4811 76.9872L94.4748 76.9728Z" fill="white"/>
<path d="M102.154 70.0119C102.3 68.8924 101.401 68.9211 100.166 70.0406C99.4949 70.6577 98.8237 71.2605 98.1588 71.8777C96.943 72.9971 95.7969 74.8198 95.5943 75.9824C95.4866 76.6139 95.3726 77.2597 95.265 77.9055C95.056 79.1111 95.9172 79.1829 97.19 78.0347C97.8865 77.4032 98.5831 76.7717 99.286 76.1402C100.578 74.9777 101.762 73.0402 101.914 71.8777C101.996 71.2462 102.078 70.629 102.154 70.0119Z" fill="white"/>
<path d="M110.101 62.7838C110.177 61.7074 109.19 61.7935 107.91 62.9704C107.214 63.6019 106.524 64.2334 105.833 64.8649C104.573 66.013 103.44 67.8501 103.307 68.9696C103.231 69.5867 103.155 70.2038 103.079 70.8353C102.94 71.9979 103.896 71.9979 105.213 70.821C105.935 70.1751 106.663 69.5149 107.385 68.8691C108.721 67.6635 109.892 65.726 109.975 64.6065C110.019 64.0038 110.063 63.401 110.101 62.8125L110.101 62.7838Z" fill="white"/>
<path d="M118.33 55.2962C118.33 54.2628 117.254 54.4351 115.924 55.6406C115.208 56.3008 114.486 56.9467 113.771 57.6069C112.466 58.7981 111.352 60.6352 111.282 61.6972C111.244 62.2856 111.206 62.8884 111.168 63.4912C111.099 64.6107 112.15 64.5389 113.518 63.3046C114.265 62.6301 115.018 61.9555 115.772 61.2666C117.159 60.018 118.305 58.0948 118.311 57.0041C118.311 56.4157 118.311 55.8559 118.317 55.2818L118.33 55.2962Z" fill="white"/>
<path d="M126.871 47.5313C126.795 46.5553 125.611 46.7993 124.236 48.048C123.489 48.7225 122.748 49.4114 122.008 50.0859C120.652 51.3202 119.557 53.1429 119.563 54.1619C119.563 54.7217 119.563 55.2957 119.57 55.8698C119.576 56.9462 120.735 56.7884 122.153 55.511C122.932 54.8078 123.711 54.1045 124.496 53.4013C125.94 52.0952 127.061 50.1721 126.985 49.1531C126.947 48.6077 126.902 48.048 126.864 47.5169L126.871 47.5313Z" fill="white"/>
<path d="M135.732 39.4652C135.574 38.5466 134.282 38.8767 132.857 40.1684C132.084 40.8717 131.312 41.5749 130.546 42.2782C129.146 43.5555 128.07 45.3782 128.152 46.3542C128.196 46.8852 128.247 47.4306 128.291 47.9759C128.38 48.9949 129.653 48.7509 131.128 47.4306C131.939 46.6986 132.743 45.981 133.56 45.2347C135.061 43.8856 136.156 41.9624 135.991 41.0008C135.903 40.4842 135.814 39.9675 135.732 39.4508L135.732 39.4652Z" fill="white"/>
<path d="M144.94 31.1044C144.693 30.2432 143.281 30.6595 141.806 32.0085C141.002 32.7405 140.204 33.4725 139.406 34.2044C137.949 35.5248 136.905 37.3475 137.069 38.266C137.164 38.7684 137.253 39.285 137.354 39.8017C137.532 40.7633 138.925 40.4332 140.457 39.0554C141.299 38.2947 142.141 37.5341 142.984 36.7734C144.541 35.3669 145.611 33.4581 145.352 32.5539C145.212 32.066 145.073 31.5923 144.94 31.1187L144.94 31.1044Z" fill="white"/>
<path d="M154.504 22.4193C154.162 21.6299 152.624 22.1466 151.091 23.5387C150.255 24.2994 149.426 25.06 148.603 25.8207C147.096 27.1985 146.07 29.0069 146.329 29.8536C146.475 30.3273 146.621 30.8009 146.766 31.2745C147.039 32.1643 148.558 31.7481 150.154 30.3129C151.028 29.5235 151.902 28.7342 152.782 27.9448C154.403 26.4809 155.435 24.5864 155.081 23.754C154.891 23.3091 154.694 22.8642 154.511 22.4193L154.504 22.4193Z" fill="white"/>
<path d="M164.45 13.3724C164.006 12.6548 162.335 13.2719 160.739 14.7358C159.871 15.5252 159.01 16.3145 158.149 17.1039C156.579 18.5391 155.591 20.3331 155.945 21.1081C156.142 21.5387 156.344 21.9836 156.541 22.4285C156.914 23.2466 158.58 22.7299 160.239 21.2229C161.151 20.4049 162.062 19.5725 162.981 18.7544C164.671 17.2331 165.665 15.3529 165.203 14.5923C164.95 14.1904 164.703 13.7886 164.456 13.3867L164.45 13.3724Z" fill="white"/>
<path d="M174.792 3.95182C174.235 3.30597 172.424 4.03793 170.759 5.55925C169.86 6.37731 168.96 7.19538 168.068 8.01345C166.434 9.50606 165.478 11.2857 165.94 11.989C166.193 12.3765 166.453 12.7783 166.713 13.1802C167.2 13.9265 169.011 13.2807 170.74 11.7306C171.69 10.8695 172.64 10.0227 173.596 9.16161C175.356 7.56853 176.312 5.70277 175.73 5.02822C175.413 4.66942 175.103 4.29627 174.792 3.95182Z" fill="white"/>
<path d="M81.7855 82.9486C82.0768 81.8292 81.4309 81.7574 80.3608 82.7333C79.7782 83.2787 79.202 83.8097 78.6257 84.3408C77.5746 85.3167 76.4475 87.0389 76.1182 88.1728C75.9346 88.8043 75.7573 89.4357 75.5673 90.0816C75.2254 91.2728 75.8332 91.4307 76.9287 90.4404C77.5303 89.895 78.1255 89.3353 78.7334 88.7899C79.8415 87.7709 81.0067 85.9769 81.3043 84.8144C81.4689 84.1829 81.6272 83.5658 81.7855 82.9486Z" fill="white"/>
<path d="M88.633 76.634C88.8673 75.5576 88.1581 75.5146 87.0563 76.5336C86.4547 77.0933 85.8595 77.6387 85.2642 78.1984C84.1751 79.2031 83.067 80.9253 82.782 82.0304C82.63 82.6476 82.4717 83.2647 82.3134 83.8818C82.0222 85.0444 82.6997 85.1592 83.8268 84.1258C84.4474 83.5661 85.0679 82.992 85.6885 82.4179C86.8346 81.3702 87.9871 79.5619 88.2341 78.4424C88.367 77.8396 88.5 77.2368 88.633 76.634Z" fill="white"/>
<path d="M95.7058 70.119C95.8894 69.0713 95.1042 69.1 93.9707 70.1477C93.3502 70.7218 92.736 71.2958 92.1217 71.8556C91.0009 72.9033 89.8991 74.6112 89.6648 75.6876C89.5382 76.276 89.4052 76.8788 89.2786 77.4816C89.0379 78.601 89.7851 78.6585 90.9566 77.5964C91.5962 77.008 92.242 76.4195 92.8816 75.8311C94.0657 74.7403 95.1992 72.9463 95.3955 71.8556C95.5031 71.2671 95.6044 70.6787 95.7058 70.1046L95.7058 70.119Z" fill="white"/>
<path d="M103.009 63.3701C103.136 62.3654 102.275 62.4372 101.103 63.528C100.464 64.1164 99.824 64.7048 99.1908 65.2933C98.032 66.3697 96.9429 68.0776 96.7656 69.1253C96.6643 69.6993 96.5629 70.2734 96.468 70.8619C96.2843 71.9526 97.1075 71.9526 98.317 70.8475C98.9755 70.2447 99.6467 69.6419 100.312 69.0248C101.54 67.9053 102.655 66.1113 102.794 65.0493C102.87 64.4752 102.939 63.9155 103.009 63.3557L103.009 63.3701Z" fill="white"/>
<path d="M110.557 56.4174C110.627 55.4558 109.683 55.5993 108.467 56.7188C107.809 57.3359 107.15 57.9387 106.492 58.5415C105.295 59.6466 104.218 61.3689 104.098 62.3735C104.028 62.9332 103.965 63.493 103.895 64.0527C103.769 65.1004 104.681 65.043 105.928 63.8948C106.612 63.2633 107.302 62.6462 107.986 62.0147C109.252 60.8522 110.361 59.0582 110.43 58.0535C110.468 57.5082 110.506 56.9628 110.544 56.4318L110.557 56.4174Z" fill="white"/>
<path d="M118.365 49.2109C118.365 48.2924 117.339 48.4933 116.086 49.6558C115.402 50.2873 114.724 50.9188 114.047 51.5503C112.806 52.6985 111.754 54.4064 111.691 55.368C111.659 55.899 111.621 56.43 111.59 56.9754C111.526 57.98 112.527 57.8509 113.825 56.674C114.534 56.0282 115.243 55.3823 115.959 54.7221C117.27 53.5165 118.359 51.7225 118.359 50.761C118.359 50.2443 118.359 49.7276 118.365 49.2109Z" fill="white"/>
<path d="M126.452 41.7608C126.389 40.8853 125.268 41.1724 123.97 42.3779C123.261 43.0381 122.558 43.684 121.855 44.3298C120.576 45.521 119.537 47.2146 119.537 48.1331C119.537 48.6354 119.537 49.1521 119.544 49.6688C119.544 50.6304 120.645 50.4294 121.988 49.1952C122.722 48.5206 123.457 47.8461 124.198 47.1715C125.559 45.9229 126.623 44.1432 126.553 43.2247C126.515 42.7367 126.484 42.2488 126.446 41.7608L126.452 41.7608Z" fill="white"/>
<path d="M134.822 34.0392C134.683 33.2212 133.467 33.58 132.119 34.8286C131.39 35.5031 130.662 36.1777 129.934 36.8522C128.604 38.0722 127.591 39.7801 127.667 40.6412C127.705 41.1148 127.749 41.6028 127.794 42.0907C127.87 42.9949 129.066 42.7222 130.459 41.4449C131.219 40.7416 131.986 40.0527 132.752 39.3495C134.164 38.0578 135.202 36.2782 135.057 35.417C134.981 34.9578 134.905 34.4985 134.822 34.0392Z" fill="white"/>
<path d="M143.499 26.0279C143.278 25.2529 141.961 25.6979 140.567 26.9895C139.808 27.6928 139.054 28.396 138.301 29.0849C136.926 30.3623 135.932 32.0415 136.078 32.8595C136.16 33.3188 136.243 33.7637 136.331 34.223C136.49 35.0697 137.794 34.7109 139.231 33.3906C140.023 32.673 140.814 31.941 141.612 31.209C143.075 29.8599 144.095 28.0946 143.867 27.2909C143.746 26.8604 143.62 26.4298 143.499 25.9992L143.499 26.0279Z" fill="white"/>
<path d="M152.495 17.7273C152.191 17.0241 150.76 17.5551 149.31 18.8898C148.525 19.6218 147.746 20.3394 146.961 21.057C145.536 22.3774 144.567 24.0566 144.795 24.8172C144.922 25.2334 145.048 25.664 145.181 26.0802C145.422 26.8696 146.84 26.4247 148.341 25.0612C149.158 24.3149 149.987 23.5542 150.81 22.7936C152.33 21.4014 153.318 19.6361 153.001 18.9042C152.83 18.5023 152.66 18.1148 152.495 17.713L152.495 17.7273Z" fill="white"/>
<path d="M161.83 9.12375C161.432 8.49226 159.886 9.12375 158.386 10.5015C157.575 11.2622 156.765 12.0085 155.954 12.7548C154.479 14.1183 153.535 15.7975 153.852 16.4864C154.029 16.8739 154.206 17.2614 154.384 17.6489C154.719 18.3808 156.258 17.8354 157.816 16.4146C158.671 15.6396 159.526 14.8502 160.38 14.0609C161.963 12.6113 162.913 10.8603 162.502 10.1858C162.28 9.827 162.058 9.4682 161.837 9.10939L161.83 9.12375Z" fill="white"/>
<path d="M171.512 0.1962C171.018 -0.377882 169.34 0.354072 167.788 1.78928C166.946 2.57864 166.104 3.35365 165.262 4.12866C163.729 5.54952 162.818 7.2 163.223 7.83149C163.451 8.17594 163.679 8.53474 163.907 8.89354C164.337 9.55374 166.009 8.89354 167.63 7.42963C168.517 6.61157 169.403 5.80785 170.296 4.98979C171.942 3.48282 172.86 1.74622 172.341 1.15779C172.063 0.842043 171.784 0.511945 171.512 0.210552L171.512 0.1962Z" fill="white"/>
</g>
<defs>
<linearGradient id="paint0_linear_1_8696" x1="257.821" y1="-1947.23" x2="178.262" y2="359.87" gradientUnits="userSpaceOnUse">
<stop stop-color="white"/>
<stop offset="1" stop-color="white" stop-opacity="0"/>
</linearGradient>
</defs>
</svg>
