<svg width="135" height="210" viewBox="0 0 135 210" fill="none" xmlns="http://www.w3.org/2000/svg">
<g opacity="0.4">
<path d="M71.0182 77.1097L65.938 77.0062L61.2662 208.145C61.2498 208.58 61.5929 208.945 62.0285 208.95L69.4555 209.103C69.8911 209.114 70.2505 208.765 70.2505 208.33L71.0182 77.1097Z" fill="url(#paint0_linear_1_10412)"/>
<g style="mix-blend-mode:multiply">
<path d="M65.6523 85.4809L70.5934 85.5815L70.6035 83.5457L65.7227 83.4452L65.6523 85.4809Z" fill="#E6E6E6"/>
</g>
<path d="M70.865 84.1138C70.865 84.0183 70.7896 83.9429 70.6941 83.9378L65.6123 83.8323C65.5168 83.8323 65.4414 83.9026 65.4364 83.9982L65.4062 84.9079C65.4062 85.0035 65.4766 85.0839 65.5771 85.0889L70.6841 85.1945C70.7796 85.1945 70.86 85.1191 70.86 85.0236V84.1138H70.865Z" fill="url(#paint1_linear_1_10412)"/>
<path d="M68.6709 69.6174L68.2286 69.6073C66.4191 69.5721 64.9061 71.0198 64.8709 72.8293L64.7855 76.9862C64.7704 77.7 65.3333 78.2881 66.0471 78.3032L70.4956 78.3937C71.2093 78.4088 71.7974 77.8458 71.8125 77.132L71.898 72.9751C71.9332 71.1655 70.4855 69.6526 68.676 69.6174H68.6709Z" fill="url(#paint2_radial_1_10412)"/>
<g style="mix-blend-mode:multiply">
<path d="M70.4958 78.1776L66.0473 78.0871C65.3336 78.072 64.7706 77.4839 64.7857 76.7701V76.9863C64.7656 77.7001 65.3336 78.2882 66.0423 78.3032L70.4908 78.3937C71.2045 78.4088 71.7926 77.8458 71.8077 77.1321V76.9159C71.7977 77.6297 71.2096 78.1926 70.4958 78.1776Z" fill="#E6E6E6"/>
</g>
<path d="M73.9583 77.0717C73.893 80.1279 71.3647 82.5557 68.3085 82.4903C65.2524 82.425 62.8246 79.8966 62.89 76.8405C62.9553 73.7844 65.4836 71.3566 68.5398 71.4219C71.5959 71.4873 74.0237 74.0156 73.9583 77.0717Z" fill="#D6D6D6"/>
<path d="M73.0032 77.0516C72.9529 79.58 70.8569 81.5906 68.3285 81.5353C65.8002 81.485 63.7896 79.389 63.8449 76.8606C63.8951 74.3323 65.9912 72.3217 68.5195 72.377C71.0479 72.4272 73.0585 74.5233 73.0032 77.0516Z" fill="url(#paint3_radial_1_10412)"/>
<path d="M66.332 72.8747C66.7191 73.9303 67.5183 74.6692 68.4683 74.6893C69.4183 74.7094 70.2477 74.0057 70.68 72.9652C70.0416 72.6033 69.3027 72.3872 68.5186 72.3721C67.7344 72.357 66.9905 72.538 66.332 72.8747Z" fill="url(#paint4_linear_1_10412)"/>
<path d="M66.8626 71.2965L66.8324 72.6838C66.8123 73.6037 67.5412 74.3627 68.461 74.3828C69.3809 74.4029 70.1399 73.6741 70.16 72.7542L70.1902 71.3669L66.8626 71.2965Z" fill="url(#paint5_linear_1_10412)"/>
<path style="mix-blend-mode:multiply" d="M70.1823 71.3687L66.8555 71.2996L66.8334 72.3599L70.1603 72.429L70.1823 71.3687Z" fill="url(#paint6_linear_1_10412)"/>
<path d="M71.9784 0.0354513L70.2593 0.000265736C69.249 -0.0198403 68.3945 0.74419 68.304 1.74949L63.3328 55.302C63.2825 55.8549 63.3479 56.4128 63.5288 56.9356L66.3487 65.0786L66.213 71.5326L70.7419 71.6281L72.2197 0.291804C72.2197 0.156088 72.1141 0.0404779 71.9734 0.0354513H71.9784Z" fill="url(#paint7_linear_1_10412)"/>
<path d="M66.2361 70.6033L66.2168 71.533L70.7447 71.627L70.764 70.6973L66.2361 70.6033Z" fill="url(#paint8_linear_1_10412)"/>
<g style="mix-blend-mode:multiply">
<path d="M66.2331 70.5977L66.7408 70.6078L66.8614 64.8876L63.3529 55.101L63.3328 55.297C63.2825 55.8499 63.3479 56.4078 63.5288 56.9306L66.3487 65.0736L66.2331 70.5977Z" fill="#E6E6E6"/>
</g>
<path d="M69.0975 73.1914C69.0925 73.493 68.8412 73.7293 68.5446 73.7242C68.243 73.7192 68.0068 73.4679 68.0118 73.1713C68.0168 72.8697 68.2681 72.6335 68.5647 72.6385C68.8613 72.6435 69.1026 72.8949 69.0975 73.1914Z" fill="#808080"/>
<path d="M68.1641 73.1713C68.1641 73.3623 68.2948 73.5131 68.4707 73.5533L68.4858 72.7993C68.3048 72.8295 68.1641 72.9803 68.1641 73.1713Z" fill="#E6E6E6"/>
<path d="M68.9486 73.1863C68.9486 72.9953 68.818 72.8445 68.642 72.8043L68.627 73.5583C68.8079 73.5281 68.9486 73.3773 68.9486 73.1863Z" fill="#E6E6E6"/>
<path d="M65.9379 80.8015C66.6566 79.937 66.8979 78.8764 66.4405 78.047C65.9831 77.2126 64.9577 76.8507 63.8418 76.9965C63.8468 77.7303 64.0278 78.4743 64.4098 79.1629C64.7868 79.8515 65.3196 80.4044 65.9379 80.8015Z" fill="url(#paint9_linear_1_10412)"/>
<path d="M64.3046 81.1383L65.521 80.4698C66.3253 80.0274 66.6168 79.0171 66.1745 78.2129C65.7322 77.4086 64.7218 77.112 63.9176 77.5594L62.7012 78.2279L64.3046 81.1433V81.1383Z" fill="url(#paint10_linear_1_10412)"/>
<path style="mix-blend-mode:multiply" d="M62.7011 78.2228L64.3047 81.1384L65.234 80.6273L63.6304 77.7116L62.7011 78.2228Z" fill="url(#paint11_linear_1_10412)"/>
<path d="M0.0299377 112.333L0.859314 113.841C1.34689 114.725 2.43261 115.082 3.35247 114.66L52.2152 92.1915C52.7179 91.9603 53.1652 91.6235 53.5322 91.2063L59.1719 84.697L64.8318 81.5856L62.6503 77.6146L0.130468 111.996C0.00983204 112.061 -0.035407 112.212 0.0299377 112.333Z" fill="url(#paint12_linear_1_10412)"/>
<path d="M62.641 77.6175L61.8262 78.0657L64.0087 82.034L64.8235 81.5859L62.641 77.6175Z" fill="url(#paint13_linear_1_10412)"/>
<g style="mix-blend-mode:multiply">
<path d="M64.0133 82.028L63.767 81.5857L58.7556 84.3402L52.0352 92.2721L52.2161 92.1916C52.7188 91.9604 53.1661 91.6236 53.5331 91.2064L59.1728 84.6971L64.0133 82.0331V82.028Z" fill="#E6E6E6"/>
</g>
<path d="M64.8272 78.2479C65.0886 78.1022 65.4204 78.1977 65.5661 78.4641C65.7119 78.7255 65.6164 79.0572 65.35 79.203C65.0886 79.3488 64.7569 79.2532 64.6111 78.9868C64.4653 78.7255 64.5608 78.3937 64.8272 78.2479Z" fill="#808080"/>
<path d="M65.2755 79.0673C65.4414 78.9768 65.5067 78.7808 65.4514 78.6099L64.793 78.9718C64.9086 79.1125 65.1096 79.1578 65.2755 79.0673Z" fill="#E6E6E6"/>
<path d="M64.8983 78.3836C64.7324 78.4741 64.6671 78.6702 64.7224 78.8411L65.3809 78.4791C65.2652 78.3384 65.0642 78.2932 64.8983 78.3836Z" fill="#E6E6E6"/>
<path d="M72.9972 77.1824C71.8914 76.9914 70.8509 77.3131 70.3583 78.1274C69.8657 78.9417 70.0617 80.0123 70.7453 80.902C71.3787 80.5301 71.9316 79.9973 72.3387 79.3287C72.7459 78.6552 72.957 77.9213 72.9972 77.1874V77.1824Z" fill="url(#paint14_linear_1_10412)"/>
<path d="M74.1016 78.4289L72.9103 77.7101C72.1262 77.2326 71.1008 77.4839 70.6283 78.2731C70.1558 79.0622 70.4021 80.0826 71.1912 80.5551L72.3825 81.2739L74.1066 78.4289H74.1016Z" fill="url(#paint15_linear_1_10412)"/>
<path style="mix-blend-mode:multiply" d="M72.3763 81.2738L74.0996 78.4272L73.1923 77.878L71.4691 80.7246L72.3763 81.2738Z" fill="url(#paint16_linear_1_10412)"/>
<path d="M133.254 118.495L134.143 117.027C134.666 116.163 134.435 115.042 133.611 114.459L89.7191 83.3799C89.2667 83.0582 88.749 82.842 88.2061 82.7365L79.7465 81.1079L74.2224 77.7653L71.875 81.6407L132.912 118.591C133.028 118.661 133.183 118.626 133.254 118.505V118.495Z" fill="url(#paint17_linear_1_10412)"/>
<path d="M74.2185 77.7617L71.873 81.636L72.6685 82.1176L75.014 78.2433L74.2185 77.7617Z" fill="url(#paint18_linear_1_10412)"/>
<g style="mix-blend-mode:multiply">
<path d="M75.0211 78.2378L74.7598 78.6701L79.6506 81.6307L89.8795 83.4855L89.7187 83.3699C89.2663 83.0482 88.7486 82.832 88.2057 82.7265L79.7461 81.0979L75.0211 78.2378Z" fill="#E6E6E6"/>
</g>
<path d="M71.3424 79.4241C71.086 79.2682 71.0056 78.9365 71.1614 78.6801C71.3173 78.4238 71.649 78.3434 71.9054 78.4992C72.1617 78.655 72.2421 78.9868 72.0863 79.2431C71.9305 79.4995 71.5987 79.5799 71.3424 79.4241Z" fill="#808080"/>
<path d="M71.8255 78.6248C71.6646 78.5243 71.4636 78.5645 71.3379 78.7002L71.9813 79.0923C72.0416 78.9214 71.9813 78.7254 71.8255 78.6248Z" fill="#E6E6E6"/>
<path d="M71.4191 79.2933C71.5799 79.3938 71.781 79.3536 71.9067 79.2179L71.2633 78.8258C71.2029 78.9967 71.2633 79.1927 71.4191 79.2933Z" fill="#E6E6E6"/>
<path d="M105.83 162.953L104.054 162.917L102.42 208.768C102.414 208.921 102.534 209.048 102.687 209.05L105.283 209.103C105.436 209.107 105.561 208.985 105.561 208.833L105.83 162.953Z" fill="url(#paint19_linear_1_10412)"/>
<g style="mix-blend-mode:multiply">
<path d="M103.953 165.88L105.681 165.915L105.684 165.203L103.978 165.168L103.953 165.88Z" fill="#E6E6E6"/>
</g>
<path d="M105.776 165.402C105.776 165.368 105.749 165.342 105.716 165.34L103.939 165.303C103.906 165.303 103.879 165.328 103.878 165.361L103.867 165.68C103.867 165.713 103.892 165.741 103.927 165.743L105.713 165.78C105.746 165.78 105.774 165.753 105.774 165.72V165.402H105.776Z" fill="url(#paint20_linear_1_10412)"/>
<path d="M105.009 160.333L104.854 160.33C104.222 160.318 103.693 160.824 103.68 161.456L103.65 162.91C103.645 163.159 103.842 163.365 104.092 163.37L105.647 163.402C105.897 163.407 106.102 163.21 106.107 162.961L106.137 161.507C106.15 160.875 105.643 160.346 105.011 160.333H105.009Z" fill="url(#paint21_radial_1_10412)"/>
<g style="mix-blend-mode:multiply">
<path d="M105.647 163.326L104.092 163.295C103.842 163.289 103.645 163.084 103.651 162.834V162.91C103.644 163.159 103.842 163.365 104.09 163.37L105.645 163.402C105.895 163.407 106.1 163.21 106.106 162.961V162.885C106.102 163.135 105.897 163.332 105.647 163.326Z" fill="#E6E6E6"/>
</g>
<path d="M106.859 162.939C106.836 164.008 105.952 164.857 104.883 164.834C103.815 164.811 102.966 163.927 102.989 162.859C103.012 161.79 103.896 160.941 104.964 160.964C106.033 160.987 106.882 161.871 106.859 162.939Z" fill="#D6D6D6"/>
<path d="M106.525 162.932C106.507 163.816 105.774 164.519 104.89 164.5C104.006 164.483 103.303 163.75 103.323 162.866C103.34 161.982 104.073 161.279 104.957 161.298C105.841 161.316 106.544 162.048 106.525 162.932Z" fill="url(#paint22_radial_1_10412)"/>
<path d="M104.191 161.472C104.327 161.841 104.606 162.099 104.938 162.107C105.27 162.114 105.56 161.868 105.712 161.504C105.488 161.377 105.23 161.302 104.956 161.296C104.682 161.291 104.422 161.354 104.191 161.472Z" fill="url(#paint23_linear_1_10412)"/>
<path d="M104.376 160.92L104.365 161.405C104.358 161.727 104.613 161.992 104.935 161.999C105.256 162.006 105.522 161.751 105.529 161.43L105.539 160.945L104.376 160.92Z" fill="url(#paint24_linear_1_10412)"/>
<path style="mix-blend-mode:multiply" d="M105.538 160.945L104.375 160.921L104.367 161.292L105.53 161.316L105.538 160.945Z" fill="url(#paint25_linear_1_10412)"/>
<path d="M106.165 136.004L105.564 135.992C105.211 135.985 104.912 136.252 104.881 136.604L103.142 155.328C103.125 155.521 103.148 155.716 103.211 155.899L104.197 158.746L104.149 161.003L105.733 161.036L106.25 136.094C106.25 136.047 106.213 136.006 106.164 136.004H106.165Z" fill="url(#paint26_linear_1_10412)"/>
<path d="M104.157 160.678L104.15 161.003L105.734 161.036L105.74 160.711L104.157 160.678Z" fill="url(#paint27_linear_1_10412)"/>
<g style="mix-blend-mode:multiply">
<path d="M104.157 160.676L104.334 160.679L104.376 158.679L103.149 155.258L103.142 155.326C103.125 155.519 103.148 155.715 103.211 155.897L104.197 158.744L104.157 160.676Z" fill="#E6E6E6"/>
</g>
<path d="M105.159 161.583C105.157 161.688 105.069 161.771 104.966 161.769C104.86 161.767 104.778 161.679 104.779 161.576C104.781 161.47 104.869 161.388 104.973 161.389C105.076 161.391 105.161 161.479 105.159 161.583Z" fill="#808080"/>
<path d="M104.832 161.576C104.832 161.643 104.878 161.695 104.939 161.709L104.945 161.446C104.881 161.456 104.832 161.509 104.832 161.576Z" fill="#E6E6E6"/>
<path d="M105.107 161.581C105.107 161.514 105.061 161.461 104.999 161.447L104.994 161.711C105.057 161.7 105.107 161.648 105.107 161.581Z" fill="#E6E6E6"/>
<path d="M104.055 164.244C104.306 163.941 104.391 163.571 104.231 163.281C104.071 162.989 103.712 162.862 103.322 162.913C103.324 163.17 103.387 163.43 103.521 163.671C103.653 163.911 103.839 164.105 104.055 164.244Z" fill="url(#paint28_linear_1_10412)"/>
<path d="M103.484 164.361L103.91 164.128C104.191 163.973 104.293 163.62 104.138 163.339C103.984 163.057 103.63 162.954 103.349 163.11L102.924 163.344L103.484 164.363V164.361Z" fill="url(#paint29_linear_1_10412)"/>
<path style="mix-blend-mode:multiply" d="M102.922 163.342L103.482 164.361L103.807 164.183L103.247 163.163L102.922 163.342Z" fill="url(#paint30_linear_1_10412)"/>
<path d="M81.0105 175.268L81.3005 175.795C81.4709 176.105 81.8505 176.23 82.1722 176.082L99.2566 168.226C99.4323 168.145 99.5888 168.027 99.7171 167.881L101.689 165.606L103.668 164.518L102.905 163.129L81.0456 175.15C81.0034 175.173 80.9876 175.226 81.0105 175.268Z" fill="url(#paint31_linear_1_10412)"/>
<path d="M102.902 163.13L102.617 163.287L103.38 164.674L103.665 164.518L102.902 163.13Z" fill="url(#paint32_linear_1_10412)"/>
<g style="mix-blend-mode:multiply">
<path d="M103.381 164.672L103.295 164.518L101.543 165.481L99.1934 168.254L99.2566 168.226C99.4324 168.145 99.5888 168.027 99.7171 167.882L101.689 165.606L103.381 164.674V164.672Z" fill="#E6E6E6"/>
</g>
<path d="M103.664 163.351C103.755 163.3 103.871 163.333 103.922 163.426C103.973 163.518 103.94 163.634 103.847 163.685C103.755 163.736 103.639 163.702 103.588 163.609C103.537 163.518 103.571 163.402 103.664 163.351Z" fill="#808080"/>
<path d="M103.819 163.637C103.877 163.606 103.9 163.537 103.881 163.477L103.65 163.604C103.691 163.653 103.761 163.669 103.819 163.637Z" fill="#E6E6E6"/>
<path d="M103.687 163.398C103.629 163.43 103.607 163.498 103.626 163.558L103.856 163.432C103.816 163.382 103.745 163.367 103.687 163.398Z" fill="#E6E6E6"/>
<path d="M106.522 162.978C106.136 162.911 105.772 163.024 105.6 163.309C105.428 163.593 105.496 163.968 105.735 164.279C105.957 164.149 106.15 163.962 106.292 163.729C106.435 163.493 106.508 163.237 106.522 162.98V162.978Z" fill="url(#paint33_linear_1_10412)"/>
<path d="M106.908 163.414L106.491 163.163C106.217 162.996 105.858 163.084 105.693 163.36C105.528 163.636 105.614 163.992 105.89 164.158L106.307 164.409L106.909 163.414H106.908Z" fill="url(#paint34_linear_1_10412)"/>
<path style="mix-blend-mode:multiply" d="M106.304 164.409L106.906 163.413L106.589 163.221L105.986 164.217L106.304 164.409Z" fill="url(#paint35_linear_1_10412)"/>
<path d="M127.589 177.423L127.901 176.91C128.083 176.608 128.002 176.216 127.714 176.012L112.368 165.145C112.21 165.033 112.029 164.957 111.839 164.92L108.881 164.351L106.95 163.182L106.129 164.537L127.47 177.456C127.51 177.481 127.565 177.469 127.589 177.426V177.423Z" fill="url(#paint36_linear_1_10412)"/>
<path d="M106.949 163.181L106.129 164.535L106.407 164.704L107.227 163.349L106.949 163.181Z" fill="url(#paint37_linear_1_10412)"/>
<g style="mix-blend-mode:multiply">
<path d="M107.228 163.347L107.137 163.498L108.847 164.534L112.423 165.182L112.367 165.142C112.209 165.029 112.028 164.954 111.838 164.917L108.88 164.347L107.228 163.347Z" fill="#E6E6E6"/>
</g>
<path d="M105.943 163.762C105.853 163.708 105.825 163.592 105.879 163.502C105.934 163.412 106.05 163.384 106.139 163.439C106.229 163.493 106.257 163.609 106.203 163.699C106.148 163.788 106.032 163.817 105.943 163.762Z" fill="#808080"/>
<path d="M106.11 163.483C106.054 163.447 105.983 163.461 105.939 163.509L106.164 163.646C106.185 163.586 106.164 163.518 106.11 163.483Z" fill="#E6E6E6"/>
<path d="M105.969 163.716C106.025 163.751 106.095 163.737 106.139 163.69L105.914 163.553C105.893 163.612 105.914 163.681 105.969 163.716Z" fill="#E6E6E6"/>
<path d="M31.8484 179.646L30.7146 179.623L29.672 208.889C29.6684 208.986 29.7449 209.068 29.8421 209.069L31.4996 209.103C31.5968 209.106 31.677 209.028 31.677 208.931L31.8484 179.646Z" fill="url(#paint38_linear_1_10412)"/>
<g style="mix-blend-mode:multiply">
<path d="M30.6504 181.514L31.7531 181.537L31.7553 181.082L30.6661 181.06L30.6504 181.514Z" fill="#E6E6E6"/>
</g>
<path d="M31.8139 181.209C31.8139 181.188 31.7971 181.171 31.7758 181.17L30.6417 181.146C30.6204 181.146 30.6036 181.162 30.6024 181.183L30.5957 181.386C30.5957 181.408 30.6114 181.426 30.6338 181.427L31.7736 181.45C31.7949 181.45 31.8128 181.433 31.8128 181.412V181.209H31.8139Z" fill="url(#paint39_linear_1_10412)"/>
<path d="M31.3242 177.974L31.2255 177.972C30.8217 177.964 30.484 178.287 30.4762 178.691L30.4571 179.618C30.4537 179.778 30.5794 179.909 30.7387 179.912L31.7314 179.932C31.8907 179.936 32.022 179.81 32.0253 179.651L32.0444 178.723C32.0523 178.319 31.7292 177.982 31.3253 177.974H31.3242Z" fill="url(#paint40_radial_1_10412)"/>
<g style="mix-blend-mode:multiply">
<path d="M31.7315 179.884L30.7387 179.864C30.5794 179.861 30.4538 179.729 30.4571 179.57V179.618C30.4527 179.778 30.5794 179.909 30.7376 179.912L31.7304 179.932C31.8897 179.936 32.0209 179.81 32.0243 179.651V179.603C32.022 179.762 31.8908 179.888 31.7315 179.884Z" fill="#E6E6E6"/>
</g>
<path d="M32.5056 179.638C32.491 180.32 31.9268 180.861 31.2447 180.847C30.5627 180.832 30.0209 180.268 30.0354 179.586C30.05 178.904 30.6143 178.362 31.2963 178.377C31.9784 178.391 32.5202 178.955 32.5056 179.638Z" fill="#D6D6D6"/>
<path d="M32.2922 179.633C32.2809 180.197 31.8132 180.646 31.2489 180.634C30.6847 180.622 30.236 180.155 30.2483 179.59C30.2595 179.026 30.7273 178.577 31.2915 178.59C31.8558 178.601 32.3045 179.069 32.2922 179.633Z" fill="url(#paint41_radial_1_10412)"/>
<path d="M30.8027 178.701C30.8891 178.936 31.0675 179.101 31.2795 179.106C31.4915 179.11 31.6766 178.953 31.7731 178.721C31.6306 178.64 31.4657 178.592 31.2907 178.589C31.1157 178.585 30.9497 178.626 30.8027 178.701Z" fill="url(#paint42_linear_1_10412)"/>
<path d="M30.9209 178.349L30.9142 178.658C30.9097 178.864 31.0723 179.033 31.2776 179.037C31.4829 179.042 31.6523 178.879 31.6568 178.674L31.6635 178.364L30.9209 178.349Z" fill="url(#paint43_linear_1_10412)"/>
<path style="mix-blend-mode:multiply" d="M31.6643 178.365L30.9219 178.349L30.917 178.586L31.6594 178.601L31.6643 178.365Z" fill="url(#paint44_linear_1_10412)"/>
<path d="M32.064 162.445L31.6803 162.437C31.4548 162.433 31.2641 162.603 31.244 162.828L30.1345 174.779C30.1233 174.902 30.1379 175.027 30.1783 175.144L30.8076 176.961L30.7773 178.401L31.788 178.423L32.1178 162.502C32.1178 162.472 32.0943 162.446 32.0628 162.445H32.064Z" fill="url(#paint45_linear_1_10412)"/>
<path d="M30.7817 178.194L30.7773 178.401L31.7878 178.422L31.7922 178.215L30.7817 178.194Z" fill="url(#paint46_linear_1_10412)"/>
<g style="mix-blend-mode:multiply">
<path d="M30.7818 178.193L30.8951 178.195L30.922 176.918L30.139 174.734L30.1345 174.778C30.1233 174.901 30.1379 175.026 30.1783 175.143L30.8076 176.96L30.7818 178.193Z" fill="#E6E6E6"/>
</g>
<path d="M31.422 178.771C31.4209 178.839 31.3648 178.892 31.2986 178.89C31.2313 178.889 31.1786 178.833 31.1797 178.767C31.1808 178.7 31.2369 178.647 31.3031 178.648C31.3693 178.649 31.4231 178.705 31.422 178.771Z" fill="#808080"/>
<path d="M31.2148 178.767C31.2148 178.81 31.244 178.843 31.2833 178.852L31.2866 178.684C31.2463 178.691 31.2148 178.724 31.2148 178.767Z" fill="#E6E6E6"/>
<path d="M31.3902 178.77C31.3902 178.728 31.361 178.694 31.3217 178.685L31.3184 178.853C31.3587 178.847 31.3902 178.813 31.3902 178.77Z" fill="#E6E6E6"/>
<path d="M30.7158 180.47C30.8762 180.277 30.9301 180.04 30.828 179.855C30.7259 179.669 30.4971 179.588 30.248 179.621C30.2492 179.785 30.2896 179.951 30.3748 180.104C30.4589 180.258 30.5778 180.381 30.7158 180.47Z" fill="url(#paint47_linear_1_10412)"/>
<path d="M30.352 180.545L30.6235 180.396C30.8029 180.297 30.868 180.072 30.7693 179.892C30.6706 179.713 30.4451 179.647 30.2656 179.746L29.9941 179.896L30.352 180.546V180.545Z" fill="url(#paint48_linear_1_10412)"/>
<path style="mix-blend-mode:multiply" d="M29.9917 179.894L30.3496 180.545L30.557 180.431L30.1991 179.78L29.9917 179.894Z" fill="url(#paint49_linear_1_10412)"/>
<path d="M16.0067 187.507L16.1918 187.843C16.3006 188.041 16.5429 188.12 16.7482 188.026L27.6529 183.012C27.7651 182.96 27.865 182.885 27.9468 182.792L29.2055 181.339L30.4686 180.645L29.9817 179.759L16.0291 187.432C16.0022 187.446 15.9921 187.48 16.0067 187.507Z" fill="url(#paint50_linear_1_10412)"/>
<path d="M29.9807 179.759L29.7988 179.859L30.2859 180.745L30.4677 180.645L29.9807 179.759Z" fill="url(#paint51_linear_1_10412)"/>
<g style="mix-blend-mode:multiply">
<path d="M30.2865 180.744L30.2315 180.645L29.1131 181.26L27.6133 183.03L27.6537 183.012C27.7658 182.96 27.8657 182.885 27.9476 182.792L29.2062 181.339L30.2865 180.745V180.744Z" fill="#E6E6E6"/>
</g>
<path d="M30.4658 179.9C30.5241 179.868 30.5982 179.889 30.6307 179.948C30.6632 180.007 30.6419 180.081 30.5824 180.113C30.5241 180.146 30.4501 180.124 30.4175 180.065C30.385 180.007 30.4063 179.933 30.4658 179.9Z" fill="#808080"/>
<path d="M30.5647 180.083C30.6017 180.063 30.6163 180.019 30.604 179.981L30.457 180.062C30.4828 180.093 30.5277 180.103 30.5647 180.083Z" fill="#E6E6E6"/>
<path d="M30.4811 179.93C30.444 179.951 30.4295 179.994 30.4418 180.032L30.5887 179.952C30.5629 179.92 30.5181 179.91 30.4811 179.93Z" fill="#E6E6E6"/>
<path d="M32.2908 179.662C32.044 179.62 31.8118 179.691 31.7018 179.873C31.5919 180.055 31.6357 180.294 31.7882 180.492C31.9296 180.409 32.053 180.291 32.1438 180.141C32.2347 179.991 32.2818 179.827 32.2908 179.663V179.662Z" fill="url(#paint52_linear_1_10412)"/>
<path d="M32.5376 179.941L32.2717 179.78C32.0967 179.674 31.8679 179.73 31.7625 179.906C31.657 180.082 31.712 180.31 31.8881 180.415L32.154 180.576L32.5387 179.941H32.5376Z" fill="url(#paint53_linear_1_10412)"/>
<path style="mix-blend-mode:multiply" d="M32.1525 180.575L32.5371 179.94L32.3346 179.818L31.95 180.453L32.1525 180.575Z" fill="url(#paint54_linear_1_10412)"/>
<path d="M45.739 188.882L45.9376 188.555C46.0542 188.362 46.0026 188.112 45.8186 187.981L36.0233 181.046C35.9224 180.974 35.8068 180.925 35.6857 180.902L33.7977 180.538L32.5649 179.792L32.041 180.657L45.6627 188.904C45.6885 188.919 45.7233 188.911 45.739 188.884V188.882Z" fill="url(#paint55_linear_1_10412)"/>
<path d="M32.5644 179.792L32.041 180.656L32.2185 180.764L32.742 179.899L32.5644 179.792Z" fill="url(#paint56_linear_1_10412)"/>
<g style="mix-blend-mode:multiply">
<path d="M32.7419 179.898L32.6836 179.994L33.7751 180.655L36.0579 181.069L36.022 181.043C35.921 180.971 35.8055 180.923 35.6843 180.9L33.7964 180.536L32.7419 179.898Z" fill="#E6E6E6"/>
</g>
<path d="M31.9214 180.163C31.8642 180.128 31.8462 180.054 31.881 179.997C31.9158 179.939 31.9898 179.921 32.047 179.956C32.1042 179.991 32.1222 180.065 32.0874 180.122C32.0526 180.179 31.9786 180.197 31.9214 180.163Z" fill="#808080"/>
<path d="M32.0287 179.984C31.9928 179.962 31.948 179.971 31.9199 180.001L32.0635 180.089C32.077 180.05 32.0635 180.007 32.0287 179.984Z" fill="#E6E6E6"/>
<path d="M31.9384 180.133C31.9742 180.156 32.0191 180.147 32.0472 180.117L31.9036 180.029C31.8901 180.067 31.9036 180.111 31.9384 180.133Z" fill="#E6E6E6"/>
</g>
<defs>
<linearGradient id="paint0_linear_1_10412" x1="62.5967" y1="142.955" x2="71.5845" y2="143.142" gradientUnits="userSpaceOnUse">
<stop stop-color="#CCCCCC"/>
<stop offset="0.07" stop-color="#D1D1D1"/>
<stop offset="0.33" stop-color="#E0E0E0"/>
<stop offset="0.54" stop-color="#E6E6E6"/>
<stop offset="0.91" stop-color="#D1D1D1"/>
<stop offset="1" stop-color="#CCCCCC"/>
</linearGradient>
<linearGradient id="paint1_linear_1_10412" x1="64.6232" y1="84.4493" x2="71.6538" y2="84.5954" gradientUnits="userSpaceOnUse">
<stop stop-color="#B3B3B3"/>
<stop offset="0.03" stop-color="#B7B7B7"/>
<stop offset="0.22" stop-color="#D1D1D1"/>
<stop offset="0.4" stop-color="#E0E0E0"/>
<stop offset="0.54" stop-color="#E6E6E6"/>
<stop offset="0.74" stop-color="#D1D1D1"/>
<stop offset="1" stop-color="#B3B3B3"/>
</linearGradient>
<radialGradient id="paint2_radial_1_10412" cx="0" cy="0" r="1" gradientUnits="userSpaceOnUse" gradientTransform="translate(68.3721 76.0023) rotate(1.19) scale(3.96089 5.70369)">
<stop stop-color="#E6E6E6"/>
<stop offset="0.33" stop-color="#E3E3E3"/>
<stop offset="0.58" stop-color="#D9D9D9"/>
<stop offset="0.8" stop-color="#C9C9C9"/>
<stop offset="1" stop-color="#B3B3B3"/>
</radialGradient>
<radialGradient id="paint3_radial_1_10412" cx="0" cy="0" r="1" gradientUnits="userSpaceOnUse" gradientTransform="translate(68.419 76.9451) rotate(1.19) scale(4.58418)">
<stop stop-color="#F2F2F2"/>
<stop offset="0.3" stop-color="#EEEEEE"/>
<stop offset="0.52" stop-color="#E6E6E6"/>
<stop offset="1" stop-color="#CCCCCC"/>
</radialGradient>
<linearGradient id="paint4_linear_1_10412" x1="66.0232" y1="73.4884" x2="70.9381" y2="73.5905" gradientUnits="userSpaceOnUse">
<stop stop-color="#CCCCCC"/>
<stop offset="0.08" stop-color="#BCBCBC"/>
<stop offset="0.22" stop-color="#A8A8A8"/>
<stop offset="0.36" stop-color="#9C9C9C"/>
<stop offset="0.5" stop-color="#999999"/>
<stop offset="0.66" stop-color="#9C9C9C"/>
<stop offset="0.79" stop-color="#A6A6A6"/>
<stop offset="0.9" stop-color="#B6B6B6"/>
<stop offset="1" stop-color="#CCCCCC"/>
</linearGradient>
<linearGradient id="paint5_linear_1_10412" x1="66.8189" y1="72.8313" x2="70.1458" y2="72.9004" gradientUnits="userSpaceOnUse">
<stop stop-color="#C0C0C0"/>
<stop offset="0.08" stop-color="#C8C8C8"/>
<stop offset="0.31" stop-color="#DEDEDE"/>
<stop offset="0.46" stop-color="#E6E6E6"/>
<stop offset="0.61" stop-color="#DCDCDC"/>
<stop offset="0.87" stop-color="#C3C3C3"/>
<stop offset="1" stop-color="#B3B3B3"/>
</linearGradient>
<linearGradient id="paint6_linear_1_10412" x1="68.5138" y1="71.339" x2="68.4917" y2="72.3994" gradientUnits="userSpaceOnUse">
<stop stop-color="#C0C0C0"/>
<stop offset="0.41" stop-color="#E1E1E1"/>
<stop offset="0.77" stop-color="#F7F7F7"/>
<stop offset="1" stop-color="white"/>
</linearGradient>
<linearGradient id="paint7_linear_1_10412" x1="63.7233" y1="35.6783" x2="71.4775" y2="35.8393" gradientUnits="userSpaceOnUse">
<stop stop-color="#F2F2F2"/>
<stop offset="0.55" stop-color="#F0F0F0"/>
<stop offset="0.75" stop-color="#E9E9E9"/>
<stop offset="0.8" stop-color="#E6E6E6"/>
<stop offset="0.89" stop-color="#D1D1D1"/>
<stop offset="1" stop-color="#B3B3B3"/>
</linearGradient>
<linearGradient id="paint8_linear_1_10412" x1="66.2214" y1="71.0705" x2="70.7543" y2="71.1647" gradientUnits="userSpaceOnUse">
<stop stop-color="#B3B3B3"/>
<stop offset="0.15" stop-color="#C8C8C8"/>
<stop offset="0.34" stop-color="#DEDEDE"/>
<stop offset="0.46" stop-color="#E6E6E6"/>
<stop offset="0.57" stop-color="#DCDCDC"/>
<stop offset="0.76" stop-color="#C3C3C3"/>
<stop offset="1" stop-color="#999999"/>
</linearGradient>
<linearGradient id="paint9_linear_1_10412" x1="66.608" y1="80.7474" x2="64.2389" y2="76.4399" gradientUnits="userSpaceOnUse">
<stop stop-color="#CCCCCC"/>
<stop offset="0.08" stop-color="#BCBCBC"/>
<stop offset="0.22" stop-color="#A8A8A8"/>
<stop offset="0.36" stop-color="#9C9C9C"/>
<stop offset="0.5" stop-color="#999999"/>
<stop offset="0.66" stop-color="#9C9C9C"/>
<stop offset="0.79" stop-color="#A6A6A6"/>
<stop offset="0.9" stop-color="#B6B6B6"/>
<stop offset="1" stop-color="#CCCCCC"/>
</linearGradient>
<linearGradient id="paint10_linear_1_10412" x1="65.6427" y1="80.3893" x2="64.0392" y2="77.4736" gradientUnits="userSpaceOnUse">
<stop stop-color="#C0C0C0"/>
<stop offset="0.08" stop-color="#C8C8C8"/>
<stop offset="0.31" stop-color="#DEDEDE"/>
<stop offset="0.46" stop-color="#E6E6E6"/>
<stop offset="0.61" stop-color="#DCDCDC"/>
<stop offset="0.87" stop-color="#C3C3C3"/>
<stop offset="1" stop-color="#B3B3B3"/>
</linearGradient>
<linearGradient id="paint11_linear_1_10412" x1="63.4868" y1="79.6722" x2="64.4161" y2="79.1611" gradientUnits="userSpaceOnUse">
<stop stop-color="#C0C0C0"/>
<stop offset="0.41" stop-color="#E1E1E1"/>
<stop offset="0.77" stop-color="#F7F7F7"/>
<stop offset="1" stop-color="white"/>
</linearGradient>
<linearGradient id="paint12_linear_1_10412" x1="35.0164" y1="101.65" x2="31.2763" y2="94.8496" gradientUnits="userSpaceOnUse">
<stop stop-color="#F2F2F2"/>
<stop offset="0.55" stop-color="#F0F0F0"/>
<stop offset="0.75" stop-color="#E9E9E9"/>
<stop offset="0.8" stop-color="#E6E6E6"/>
<stop offset="0.89" stop-color="#D1D1D1"/>
<stop offset="1" stop-color="#B3B3B3"/>
</linearGradient>
<linearGradient id="paint13_linear_1_10412" x1="64.409" y1="81.8023" x2="62.2241" y2="77.8296" gradientUnits="userSpaceOnUse">
<stop stop-color="#B3B3B3"/>
<stop offset="0.15" stop-color="#C8C8C8"/>
<stop offset="0.34" stop-color="#DEDEDE"/>
<stop offset="0.46" stop-color="#E6E6E6"/>
<stop offset="0.57" stop-color="#DCDCDC"/>
<stop offset="0.76" stop-color="#C3C3C3"/>
<stop offset="1" stop-color="#999999"/>
</linearGradient>
<linearGradient id="paint14_linear_1_10412" x1="72.6323" y1="76.6706" x2="70.0872" y2="80.8764" gradientUnits="userSpaceOnUse">
<stop stop-color="#CCCCCC"/>
<stop offset="0.08" stop-color="#BCBCBC"/>
<stop offset="0.22" stop-color="#A8A8A8"/>
<stop offset="0.36" stop-color="#9C9C9C"/>
<stop offset="0.5" stop-color="#999999"/>
<stop offset="0.66" stop-color="#9C9C9C"/>
<stop offset="0.79" stop-color="#A6A6A6"/>
<stop offset="0.9" stop-color="#B6B6B6"/>
<stop offset="1" stop-color="#CCCCCC"/>
</linearGradient>
<linearGradient id="paint15_linear_1_10412" x1="72.8038" y1="77.6858" x2="71.0836" y2="80.5284" gradientUnits="userSpaceOnUse">
<stop stop-color="#C0C0C0"/>
<stop offset="0.08" stop-color="#C8C8C8"/>
<stop offset="0.31" stop-color="#DEDEDE"/>
<stop offset="0.46" stop-color="#E6E6E6"/>
<stop offset="0.61" stop-color="#DCDCDC"/>
<stop offset="0.87" stop-color="#C3C3C3"/>
<stop offset="1" stop-color="#B3B3B3"/>
</linearGradient>
<linearGradient id="paint16_linear_1_10412" x1="73.2312" y1="79.8229" x2="72.3239" y2="79.2737" gradientUnits="userSpaceOnUse">
<stop stop-color="#C0C0C0"/>
<stop offset="0.41" stop-color="#E1E1E1"/>
<stop offset="0.77" stop-color="#F7F7F7"/>
<stop offset="1" stop-color="white"/>
</linearGradient>
<linearGradient id="paint17_linear_1_10412" x1="106.532" y1="93.5721" x2="102.514" y2="100.212" gradientUnits="userSpaceOnUse">
<stop stop-color="#F2F2F2"/>
<stop offset="0.55" stop-color="#F0F0F0"/>
<stop offset="0.75" stop-color="#E9E9E9"/>
<stop offset="0.8" stop-color="#E6E6E6"/>
<stop offset="0.89" stop-color="#D1D1D1"/>
<stop offset="1" stop-color="#B3B3B3"/>
</linearGradient>
<linearGradient id="paint18_linear_1_10412" x1="74.6116" y1="77.9762" x2="72.2662" y2="81.8505" gradientUnits="userSpaceOnUse">
<stop stop-color="#B3B3B3"/>
<stop offset="0.15" stop-color="#C8C8C8"/>
<stop offset="0.34" stop-color="#DEDEDE"/>
<stop offset="0.46" stop-color="#E6E6E6"/>
<stop offset="0.57" stop-color="#DCDCDC"/>
<stop offset="0.76" stop-color="#C3C3C3"/>
<stop offset="1" stop-color="#999999"/>
</linearGradient>
<linearGradient id="paint19_linear_1_10412" x1="102.885" y1="185.975" x2="106.028" y2="186.041" gradientUnits="userSpaceOnUse">
<stop stop-color="#CCCCCC"/>
<stop offset="0.07" stop-color="#D1D1D1"/>
<stop offset="0.33" stop-color="#E0E0E0"/>
<stop offset="0.54" stop-color="#E6E6E6"/>
<stop offset="0.91" stop-color="#D1D1D1"/>
<stop offset="1" stop-color="#CCCCCC"/>
</linearGradient>
<linearGradient id="paint20_linear_1_10412" x1="103.593" y1="165.519" x2="106.052" y2="165.57" gradientUnits="userSpaceOnUse">
<stop stop-color="#B3B3B3"/>
<stop offset="0.03" stop-color="#B7B7B7"/>
<stop offset="0.22" stop-color="#D1D1D1"/>
<stop offset="0.4" stop-color="#E0E0E0"/>
<stop offset="0.54" stop-color="#E6E6E6"/>
<stop offset="0.74" stop-color="#D1D1D1"/>
<stop offset="1" stop-color="#B3B3B3"/>
</linearGradient>
<radialGradient id="paint21_radial_1_10412" cx="0" cy="0" r="1" gradientUnits="userSpaceOnUse" gradientTransform="translate(104.905 162.566) rotate(1.19) scale(1.38489 1.99425)">
<stop stop-color="#E6E6E6"/>
<stop offset="0.33" stop-color="#E3E3E3"/>
<stop offset="0.58" stop-color="#D9D9D9"/>
<stop offset="0.8" stop-color="#C9C9C9"/>
<stop offset="1" stop-color="#B3B3B3"/>
</radialGradient>
<radialGradient id="paint22_radial_1_10412" cx="0" cy="0" r="1" gradientUnits="userSpaceOnUse" gradientTransform="translate(104.922 162.895) rotate(1.19) scale(1.60282)">
<stop stop-color="#F2F2F2"/>
<stop offset="0.3" stop-color="#EEEEEE"/>
<stop offset="0.52" stop-color="#E6E6E6"/>
<stop offset="1" stop-color="#CCCCCC"/>
</radialGradient>
<linearGradient id="paint23_linear_1_10412" x1="104.083" y1="161.687" x2="105.802" y2="161.722" gradientUnits="userSpaceOnUse">
<stop stop-color="#CCCCCC"/>
<stop offset="0.08" stop-color="#BCBCBC"/>
<stop offset="0.22" stop-color="#A8A8A8"/>
<stop offset="0.36" stop-color="#9C9C9C"/>
<stop offset="0.5" stop-color="#999999"/>
<stop offset="0.66" stop-color="#9C9C9C"/>
<stop offset="0.79" stop-color="#A6A6A6"/>
<stop offset="0.9" stop-color="#B6B6B6"/>
<stop offset="1" stop-color="#CCCCCC"/>
</linearGradient>
<linearGradient id="paint24_linear_1_10412" x1="104.361" y1="161.457" x2="105.524" y2="161.481" gradientUnits="userSpaceOnUse">
<stop stop-color="#C0C0C0"/>
<stop offset="0.08" stop-color="#C8C8C8"/>
<stop offset="0.31" stop-color="#DEDEDE"/>
<stop offset="0.46" stop-color="#E6E6E6"/>
<stop offset="0.61" stop-color="#DCDCDC"/>
<stop offset="0.87" stop-color="#C3C3C3"/>
<stop offset="1" stop-color="#B3B3B3"/>
</linearGradient>
<linearGradient id="paint25_linear_1_10412" x1="104.955" y1="160.935" x2="104.947" y2="161.306" gradientUnits="userSpaceOnUse">
<stop stop-color="#C0C0C0"/>
<stop offset="0.41" stop-color="#E1E1E1"/>
<stop offset="0.77" stop-color="#F7F7F7"/>
<stop offset="1" stop-color="white"/>
</linearGradient>
<linearGradient id="paint26_linear_1_10412" x1="103.279" y1="148.467" x2="105.99" y2="148.523" gradientUnits="userSpaceOnUse">
<stop stop-color="#F2F2F2"/>
<stop offset="0.55" stop-color="#F0F0F0"/>
<stop offset="0.75" stop-color="#E9E9E9"/>
<stop offset="0.8" stop-color="#E6E6E6"/>
<stop offset="0.89" stop-color="#D1D1D1"/>
<stop offset="1" stop-color="#B3B3B3"/>
</linearGradient>
<linearGradient id="paint27_linear_1_10412" x1="104.152" y1="160.841" x2="105.737" y2="160.874" gradientUnits="userSpaceOnUse">
<stop stop-color="#B3B3B3"/>
<stop offset="0.15" stop-color="#C8C8C8"/>
<stop offset="0.34" stop-color="#DEDEDE"/>
<stop offset="0.46" stop-color="#E6E6E6"/>
<stop offset="0.57" stop-color="#DCDCDC"/>
<stop offset="0.76" stop-color="#C3C3C3"/>
<stop offset="1" stop-color="#999999"/>
</linearGradient>
<linearGradient id="paint28_linear_1_10412" x1="104.289" y1="164.225" x2="103.461" y2="162.719" gradientUnits="userSpaceOnUse">
<stop stop-color="#CCCCCC"/>
<stop offset="0.08" stop-color="#BCBCBC"/>
<stop offset="0.22" stop-color="#A8A8A8"/>
<stop offset="0.36" stop-color="#9C9C9C"/>
<stop offset="0.5" stop-color="#999999"/>
<stop offset="0.66" stop-color="#9C9C9C"/>
<stop offset="0.79" stop-color="#A6A6A6"/>
<stop offset="0.9" stop-color="#B6B6B6"/>
<stop offset="1" stop-color="#CCCCCC"/>
</linearGradient>
<linearGradient id="paint29_linear_1_10412" x1="103.952" y1="164.1" x2="103.392" y2="163.08" gradientUnits="userSpaceOnUse">
<stop stop-color="#C0C0C0"/>
<stop offset="0.08" stop-color="#C8C8C8"/>
<stop offset="0.31" stop-color="#DEDEDE"/>
<stop offset="0.46" stop-color="#E6E6E6"/>
<stop offset="0.61" stop-color="#DCDCDC"/>
<stop offset="0.87" stop-color="#C3C3C3"/>
<stop offset="1" stop-color="#B3B3B3"/>
</linearGradient>
<linearGradient id="paint30_linear_1_10412" x1="103.196" y1="163.849" x2="103.521" y2="163.67" gradientUnits="userSpaceOnUse">
<stop stop-color="#C0C0C0"/>
<stop offset="0.41" stop-color="#E1E1E1"/>
<stop offset="0.77" stop-color="#F7F7F7"/>
<stop offset="1" stop-color="white"/>
</linearGradient>
<linearGradient id="paint31_linear_1_10412" x1="93.2432" y1="171.533" x2="91.9355" y2="169.155" gradientUnits="userSpaceOnUse">
<stop stop-color="#F2F2F2"/>
<stop offset="0.55" stop-color="#F0F0F0"/>
<stop offset="0.75" stop-color="#E9E9E9"/>
<stop offset="0.8" stop-color="#E6E6E6"/>
<stop offset="0.89" stop-color="#D1D1D1"/>
<stop offset="1" stop-color="#B3B3B3"/>
</linearGradient>
<linearGradient id="paint32_linear_1_10412" x1="103.52" y1="164.593" x2="102.756" y2="163.204" gradientUnits="userSpaceOnUse">
<stop stop-color="#B3B3B3"/>
<stop offset="0.15" stop-color="#C8C8C8"/>
<stop offset="0.34" stop-color="#DEDEDE"/>
<stop offset="0.46" stop-color="#E6E6E6"/>
<stop offset="0.57" stop-color="#DCDCDC"/>
<stop offset="0.76" stop-color="#C3C3C3"/>
<stop offset="1" stop-color="#999999"/>
</linearGradient>
<linearGradient id="paint33_linear_1_10412" x1="106.395" y1="162.799" x2="105.505" y2="164.27" gradientUnits="userSpaceOnUse">
<stop stop-color="#CCCCCC"/>
<stop offset="0.08" stop-color="#BCBCBC"/>
<stop offset="0.22" stop-color="#A8A8A8"/>
<stop offset="0.36" stop-color="#9C9C9C"/>
<stop offset="0.5" stop-color="#999999"/>
<stop offset="0.66" stop-color="#9C9C9C"/>
<stop offset="0.79" stop-color="#A6A6A6"/>
<stop offset="0.9" stop-color="#B6B6B6"/>
<stop offset="1" stop-color="#CCCCCC"/>
</linearGradient>
<linearGradient id="paint34_linear_1_10412" x1="106.454" y1="163.154" x2="105.852" y2="164.148" gradientUnits="userSpaceOnUse">
<stop stop-color="#C0C0C0"/>
<stop offset="0.08" stop-color="#C8C8C8"/>
<stop offset="0.31" stop-color="#DEDEDE"/>
<stop offset="0.46" stop-color="#E6E6E6"/>
<stop offset="0.61" stop-color="#DCDCDC"/>
<stop offset="0.87" stop-color="#C3C3C3"/>
<stop offset="1" stop-color="#B3B3B3"/>
</linearGradient>
<linearGradient id="paint35_linear_1_10412" x1="106.603" y1="163.901" x2="106.285" y2="163.709" gradientUnits="userSpaceOnUse">
<stop stop-color="#C0C0C0"/>
<stop offset="0.41" stop-color="#E1E1E1"/>
<stop offset="0.77" stop-color="#F7F7F7"/>
<stop offset="1" stop-color="white"/>
</linearGradient>
<linearGradient id="paint36_linear_1_10412" x1="118.246" y1="168.709" x2="116.842" y2="171.03" gradientUnits="userSpaceOnUse">
<stop stop-color="#F2F2F2"/>
<stop offset="0.55" stop-color="#F0F0F0"/>
<stop offset="0.75" stop-color="#E9E9E9"/>
<stop offset="0.8" stop-color="#E6E6E6"/>
<stop offset="0.89" stop-color="#D1D1D1"/>
<stop offset="1" stop-color="#B3B3B3"/>
</linearGradient>
<linearGradient id="paint37_linear_1_10412" x1="107.086" y1="163.256" x2="106.266" y2="164.61" gradientUnits="userSpaceOnUse">
<stop stop-color="#B3B3B3"/>
<stop offset="0.15" stop-color="#C8C8C8"/>
<stop offset="0.34" stop-color="#DEDEDE"/>
<stop offset="0.46" stop-color="#E6E6E6"/>
<stop offset="0.57" stop-color="#DCDCDC"/>
<stop offset="0.76" stop-color="#C3C3C3"/>
<stop offset="1" stop-color="#999999"/>
</linearGradient>
<linearGradient id="paint38_linear_1_10412" x1="29.9689" y1="194.341" x2="31.9748" y2="194.383" gradientUnits="userSpaceOnUse">
<stop stop-color="#CCCCCC"/>
<stop offset="0.07" stop-color="#D1D1D1"/>
<stop offset="0.33" stop-color="#E0E0E0"/>
<stop offset="0.54" stop-color="#E6E6E6"/>
<stop offset="0.91" stop-color="#D1D1D1"/>
<stop offset="1" stop-color="#CCCCCC"/>
</linearGradient>
<linearGradient id="paint39_linear_1_10412" x1="30.4209" y1="181.284" x2="31.99" y2="181.317" gradientUnits="userSpaceOnUse">
<stop stop-color="#B3B3B3"/>
<stop offset="0.03" stop-color="#B7B7B7"/>
<stop offset="0.22" stop-color="#D1D1D1"/>
<stop offset="0.4" stop-color="#E0E0E0"/>
<stop offset="0.54" stop-color="#E6E6E6"/>
<stop offset="0.74" stop-color="#D1D1D1"/>
<stop offset="1" stop-color="#B3B3B3"/>
</linearGradient>
<radialGradient id="paint40_radial_1_10412" cx="0" cy="0" r="1" gradientUnits="userSpaceOnUse" gradientTransform="translate(31.2575 179.399) rotate(1.19) scale(0.883957 1.2729)">
<stop stop-color="#E6E6E6"/>
<stop offset="0.33" stop-color="#E3E3E3"/>
<stop offset="0.58" stop-color="#D9D9D9"/>
<stop offset="0.8" stop-color="#C9C9C9"/>
<stop offset="1" stop-color="#B3B3B3"/>
</radialGradient>
<radialGradient id="paint41_radial_1_10412" cx="0" cy="0" r="1" gradientUnits="userSpaceOnUse" gradientTransform="translate(31.2691 179.609) rotate(1.19) scale(1.02306)">
<stop stop-color="#F2F2F2"/>
<stop offset="0.3" stop-color="#EEEEEE"/>
<stop offset="0.52" stop-color="#E6E6E6"/>
<stop offset="1" stop-color="#CCCCCC"/>
</radialGradient>
<linearGradient id="paint42_linear_1_10412" x1="30.7338" y1="178.838" x2="31.8307" y2="178.861" gradientUnits="userSpaceOnUse">
<stop stop-color="#CCCCCC"/>
<stop offset="0.08" stop-color="#BCBCBC"/>
<stop offset="0.22" stop-color="#A8A8A8"/>
<stop offset="0.36" stop-color="#9C9C9C"/>
<stop offset="0.5" stop-color="#999999"/>
<stop offset="0.66" stop-color="#9C9C9C"/>
<stop offset="0.79" stop-color="#A6A6A6"/>
<stop offset="0.9" stop-color="#B6B6B6"/>
<stop offset="1" stop-color="#CCCCCC"/>
</linearGradient>
<linearGradient id="paint43_linear_1_10412" x1="30.9111" y1="178.691" x2="31.6536" y2="178.707" gradientUnits="userSpaceOnUse">
<stop stop-color="#C0C0C0"/>
<stop offset="0.08" stop-color="#C8C8C8"/>
<stop offset="0.31" stop-color="#DEDEDE"/>
<stop offset="0.46" stop-color="#E6E6E6"/>
<stop offset="0.61" stop-color="#DCDCDC"/>
<stop offset="0.87" stop-color="#C3C3C3"/>
<stop offset="1" stop-color="#B3B3B3"/>
</linearGradient>
<linearGradient id="paint44_linear_1_10412" x1="31.292" y1="178.358" x2="31.287" y2="178.595" gradientUnits="userSpaceOnUse">
<stop stop-color="#C0C0C0"/>
<stop offset="0.41" stop-color="#E1E1E1"/>
<stop offset="0.77" stop-color="#F7F7F7"/>
<stop offset="1" stop-color="white"/>
</linearGradient>
<linearGradient id="paint45_linear_1_10412" x1="30.2217" y1="170.4" x2="31.9522" y2="170.436" gradientUnits="userSpaceOnUse">
<stop stop-color="#F2F2F2"/>
<stop offset="0.55" stop-color="#F0F0F0"/>
<stop offset="0.75" stop-color="#E9E9E9"/>
<stop offset="0.8" stop-color="#E6E6E6"/>
<stop offset="0.89" stop-color="#D1D1D1"/>
<stop offset="1" stop-color="#B3B3B3"/>
</linearGradient>
<linearGradient id="paint46_linear_1_10412" x1="30.7784" y1="178.298" x2="31.79" y2="178.319" gradientUnits="userSpaceOnUse">
<stop stop-color="#B3B3B3"/>
<stop offset="0.15" stop-color="#C8C8C8"/>
<stop offset="0.34" stop-color="#DEDEDE"/>
<stop offset="0.46" stop-color="#E6E6E6"/>
<stop offset="0.57" stop-color="#DCDCDC"/>
<stop offset="0.76" stop-color="#C3C3C3"/>
<stop offset="1" stop-color="#999999"/>
</linearGradient>
<linearGradient id="paint47_linear_1_10412" x1="30.8654" y1="180.458" x2="30.3367" y2="179.497" gradientUnits="userSpaceOnUse">
<stop stop-color="#CCCCCC"/>
<stop offset="0.08" stop-color="#BCBCBC"/>
<stop offset="0.22" stop-color="#A8A8A8"/>
<stop offset="0.36" stop-color="#9C9C9C"/>
<stop offset="0.5" stop-color="#999999"/>
<stop offset="0.66" stop-color="#9C9C9C"/>
<stop offset="0.79" stop-color="#A6A6A6"/>
<stop offset="0.9" stop-color="#B6B6B6"/>
<stop offset="1" stop-color="#CCCCCC"/>
</linearGradient>
<linearGradient id="paint48_linear_1_10412" x1="30.6506" y1="180.378" x2="30.2927" y2="179.727" gradientUnits="userSpaceOnUse">
<stop stop-color="#C0C0C0"/>
<stop offset="0.08" stop-color="#C8C8C8"/>
<stop offset="0.31" stop-color="#DEDEDE"/>
<stop offset="0.46" stop-color="#E6E6E6"/>
<stop offset="0.61" stop-color="#DCDCDC"/>
<stop offset="0.87" stop-color="#C3C3C3"/>
<stop offset="1" stop-color="#B3B3B3"/>
</linearGradient>
<linearGradient id="paint49_linear_1_10412" x1="30.1671" y1="180.218" x2="30.3745" y2="180.104" gradientUnits="userSpaceOnUse">
<stop stop-color="#C0C0C0"/>
<stop offset="0.41" stop-color="#E1E1E1"/>
<stop offset="0.77" stop-color="#F7F7F7"/>
<stop offset="1" stop-color="white"/>
</linearGradient>
<linearGradient id="paint50_linear_1_10412" x1="23.8147" y1="185.123" x2="22.98" y2="183.605" gradientUnits="userSpaceOnUse">
<stop stop-color="#F2F2F2"/>
<stop offset="0.55" stop-color="#F0F0F0"/>
<stop offset="0.75" stop-color="#E9E9E9"/>
<stop offset="0.8" stop-color="#E6E6E6"/>
<stop offset="0.89" stop-color="#D1D1D1"/>
<stop offset="1" stop-color="#B3B3B3"/>
</linearGradient>
<linearGradient id="paint51_linear_1_10412" x1="30.3752" y1="180.693" x2="29.8876" y2="179.807" gradientUnits="userSpaceOnUse">
<stop stop-color="#B3B3B3"/>
<stop offset="0.15" stop-color="#C8C8C8"/>
<stop offset="0.34" stop-color="#DEDEDE"/>
<stop offset="0.46" stop-color="#E6E6E6"/>
<stop offset="0.57" stop-color="#DCDCDC"/>
<stop offset="0.76" stop-color="#C3C3C3"/>
<stop offset="1" stop-color="#999999"/>
</linearGradient>
<linearGradient id="paint52_linear_1_10412" x1="32.2093" y1="179.548" x2="31.6413" y2="180.487" gradientUnits="userSpaceOnUse">
<stop stop-color="#CCCCCC"/>
<stop offset="0.08" stop-color="#BCBCBC"/>
<stop offset="0.22" stop-color="#A8A8A8"/>
<stop offset="0.36" stop-color="#9C9C9C"/>
<stop offset="0.5" stop-color="#999999"/>
<stop offset="0.66" stop-color="#9C9C9C"/>
<stop offset="0.79" stop-color="#A6A6A6"/>
<stop offset="0.9" stop-color="#B6B6B6"/>
<stop offset="1" stop-color="#CCCCCC"/>
</linearGradient>
<linearGradient id="paint53_linear_1_10412" x1="32.248" y1="179.775" x2="31.8641" y2="180.409" gradientUnits="userSpaceOnUse">
<stop stop-color="#C0C0C0"/>
<stop offset="0.08" stop-color="#C8C8C8"/>
<stop offset="0.31" stop-color="#DEDEDE"/>
<stop offset="0.46" stop-color="#E6E6E6"/>
<stop offset="0.61" stop-color="#DCDCDC"/>
<stop offset="0.87" stop-color="#C3C3C3"/>
<stop offset="1" stop-color="#B3B3B3"/>
</linearGradient>
<linearGradient id="paint54_linear_1_10412" x1="32.3433" y1="180.252" x2="32.1408" y2="180.129" gradientUnits="userSpaceOnUse">
<stop stop-color="#C0C0C0"/>
<stop offset="0.41" stop-color="#E1E1E1"/>
<stop offset="0.77" stop-color="#F7F7F7"/>
<stop offset="1" stop-color="white"/>
</linearGradient>
<linearGradient id="paint55_linear_1_10412" x1="39.7754" y1="183.32" x2="38.8787" y2="184.802" gradientUnits="userSpaceOnUse">
<stop stop-color="#F2F2F2"/>
<stop offset="0.55" stop-color="#F0F0F0"/>
<stop offset="0.75" stop-color="#E9E9E9"/>
<stop offset="0.8" stop-color="#E6E6E6"/>
<stop offset="0.89" stop-color="#D1D1D1"/>
<stop offset="1" stop-color="#B3B3B3"/>
</linearGradient>
<linearGradient id="paint56_linear_1_10412" x1="32.6522" y1="179.839" x2="32.1287" y2="180.704" gradientUnits="userSpaceOnUse">
<stop stop-color="#B3B3B3"/>
<stop offset="0.15" stop-color="#C8C8C8"/>
<stop offset="0.34" stop-color="#DEDEDE"/>
<stop offset="0.46" stop-color="#E6E6E6"/>
<stop offset="0.57" stop-color="#DCDCDC"/>
<stop offset="0.76" stop-color="#C3C3C3"/>
<stop offset="1" stop-color="#999999"/>
</linearGradient>
</defs>
</svg>
