<svg width="890" height="438" viewBox="0 0 890 438" fill="none" xmlns="http://www.w3.org/2000/svg">
<g opacity="0.02">
<path d="M30.9633 57.7407C35.1018 68.0082 31.8714 74.7659 24.0485 73.2293C19.8227 72.3911 15.6319 71.5704 11.476 70.7497C3.93255 69.248 -6.00322 60.1679 -10.91 50.1448C-13.6689 44.4698 -16.5152 38.6724 -19.4139 32.718C-24.9318 21.4027 -22.9586 12.7417 -14.6643 13.9465C-10.0893 14.6276 -5.46194 15.3086 -0.799641 15.9896C7.8614 17.2818 19.0545 28.2652 23.7517 39.8773C26.2138 45.9889 28.6235 51.9259 30.9633 57.7232V57.7407Z" fill="white"/>
<path d="M84.5393 67.4494C87.5951 77.9613 82.9154 84.8064 74.3242 83.13C69.6968 82.222 65.1218 81.314 60.5643 80.4235C52.3223 78.7995 42.5437 69.4051 38.5275 59.1201C36.275 53.3053 33.9526 47.3334 31.5603 41.2043C27.0377 29.5398 30.5475 20.6518 39.7149 21.9963C44.7963 22.7472 49.9126 23.4806 55.0813 24.2664C64.6678 25.6808 75.6513 37.1357 79.1611 49.1145C80.9946 55.4007 82.7931 61.5124 84.5219 67.4668L84.5393 67.4494Z" fill="white"/>
<path d="M143.62 78.1532C145.367 88.9271 138.923 95.8245 129.494 93.9736C124.412 92.9782 119.366 91.9829 114.372 91.0051C105.327 89.224 95.7576 79.5152 92.8415 68.9683C91.2001 62.9964 89.5063 56.8498 87.7776 50.5287C84.4773 38.48 89.8555 29.3824 100.071 30.8667C105.711 31.7049 111.421 32.5256 117.183 33.3812C127.887 34.9528 138.504 46.9141 140.53 59.277C141.577 65.7553 142.608 72.0416 143.603 78.1532H143.62Z" fill="white"/>
<path d="M209.162 90.027C209.284 101.063 200.746 107.96 190.321 105.917C184.716 104.817 179.145 103.717 173.628 102.634C163.657 100.661 154.402 90.6382 152.848 79.8119C151.975 73.6653 151.067 67.3616 150.159 60.8484C148.395 48.4156 156.061 39.091 167.481 40.7673C173.802 41.6928 180.193 42.6357 186.654 43.5961C198.65 45.3598 208.778 57.8449 208.953 70.6095C209.023 77.2799 209.11 83.7408 209.18 90.0096L209.162 90.027Z" fill="white"/>
<path d="M282.213 103.281C280.327 114.579 269.239 121.459 257.662 119.188C251.428 117.966 245.246 116.744 239.135 115.539C228.081 113.356 219.263 102.966 219.403 91.8957C219.473 85.592 219.56 79.0963 219.647 72.4084C219.822 59.5914 230.282 50.0573 243.151 51.9432C250.275 52.9909 257.487 54.056 264.769 55.1212C278.336 57.1293 287.731 70.1733 285.548 83.3395C284.413 90.2019 283.296 96.8374 282.23 103.263L282.213 103.281Z" fill="white"/>
<path d="M364.219 118.141C359.819 129.666 345.64 136.476 332.701 133.944C325.733 132.582 318.853 131.22 312.026 129.875C299.698 127.448 291.491 116.691 293.691 105.359C294.948 98.8979 296.258 92.2275 297.602 85.3475C300.204 72.1289 314.156 62.4028 328.754 64.5506C336.856 65.738 345.046 66.9428 353.34 68.1651C368.794 70.4526 377.176 84.1252 372.024 97.693C369.335 104.748 366.734 111.54 364.237 118.123L364.219 118.141Z" fill="white"/>
<path d="M456.848 134.922C449.27 146.638 431.319 153.309 416.756 150.463C408.933 148.926 401.198 147.407 393.532 145.888C379.702 143.146 372.316 132.023 377.118 120.463C379.877 113.863 382.723 107.018 385.657 99.9456C391.367 86.3254 409.667 76.4595 426.378 78.9042C435.65 80.2662 445.062 81.6457 454.561 83.0601C472.32 85.6793 479.304 100.033 470.312 114.002C465.667 121.232 461.162 128.181 456.831 134.904L456.848 134.922Z" fill="white"/>
<path d="M562.393 154.042C550.798 165.916 528.15 172.342 511.631 169.112C502.778 167.365 494.012 165.654 485.351 163.943C469.723 160.852 463.419 149.327 471.504 137.558C476.131 130.818 480.951 123.833 485.945 116.587C495.601 102.582 519.472 92.629 538.802 95.4578C549.541 97.0469 560.419 98.6533 571.455 100.26C592.078 103.316 597.089 118.385 583.155 132.704C575.96 140.09 569.046 147.18 562.393 154.007V154.042Z" fill="white"/>
<path d="M683.702 176.027C666.956 187.971 638.389 194.03 619.53 190.346C609.419 188.355 599.431 186.382 589.565 184.443C571.772 180.934 566.935 168.99 579.176 157.081C586.23 150.236 593.564 143.129 601.177 135.725C615.985 121.354 646.997 111.436 669.593 114.736C682.165 116.587 694.93 118.473 707.869 120.376C732.106 123.973 734.376 139.811 713.928 154.444C703.434 161.935 693.358 169.129 683.702 176.027Z" fill="white"/>
<path d="M824.599 201.573C801.148 213.465 765.072 218.965 743.315 214.687C731.668 212.4 720.16 210.129 708.81 207.894C688.363 203.861 685.499 191.498 703.083 179.536C713.246 172.622 723.862 165.427 734.933 157.919C756.533 143.286 796.887 133.507 823.656 137.419C838.586 139.619 853.743 141.854 869.144 144.124C898.026 148.402 896.455 165.078 867.293 179.886C852.416 187.447 838.202 194.658 824.599 201.556V201.573Z" fill="white"/>
<path d="M10.0816 104.485C13.9756 112.238 11.6707 117.075 5.13996 115.521C1.63014 114.666 -1.8797 113.845 -5.35459 113.007C-11.6583 111.487 -20.2669 104.206 -24.6673 96.5577C-27.1469 92.2621 -29.6788 87.8617 -32.2631 83.374C-37.135 74.905 -35.7555 68.8458 -28.928 70.2427C-25.1562 70.9936 -21.367 71.7619 -17.5604 72.5652C-10.4883 74.0145 -0.954238 82.5184 3.35882 91.127C5.64632 95.6846 7.88142 100.137 10.0641 104.503L10.0816 104.485Z" fill="white"/>
<path d="M53.8844 114.491C57.0624 122.367 53.7622 127.169 46.7251 125.492C42.9184 124.584 39.1467 123.676 35.4099 122.786C28.6172 121.144 20.0959 113.688 16.3067 105.918C14.1763 101.552 11.9936 97.082 9.7585 92.507C5.55021 83.8635 7.95993 77.7693 15.3812 79.271C19.4847 80.1092 23.6057 80.9473 27.7616 81.7855C35.4622 83.3571 44.8566 92.1229 48.4189 100.889C50.2873 105.516 52.1208 110.056 53.9194 114.491H53.8844Z" fill="white"/>
<path d="M101.448 125.353C103.77 133.333 99.3175 138.1 91.6867 136.284C87.5658 135.306 83.4797 134.31 79.4286 133.35C72.0772 131.586 63.6955 123.938 60.6223 116.045C58.911 111.61 57.1299 107.07 55.3314 102.425C51.9088 93.6245 55.5409 87.4779 63.6431 89.1193C68.1133 90.0273 72.6185 90.9528 77.1586 91.8783C85.5752 93.5896 94.7775 102.635 97.3968 111.558C98.7763 116.272 100.121 120.865 101.43 125.37L101.448 125.353Z" fill="white"/>
<path d="M153.249 137.191C154.559 145.259 148.744 149.956 140.467 147.983C135.997 146.9 131.562 145.852 127.161 144.787C119.181 142.867 110.992 135.026 108.792 127.029C107.552 122.524 106.295 117.914 105.002 113.199C102.558 104.241 107.604 98.077 116.492 99.8756C121.382 100.871 126.341 101.866 131.317 102.896C140.555 104.782 149.495 114.107 150.979 123.187C151.765 127.972 152.516 132.634 153.267 137.191H153.249Z" fill="white"/>
<path d="M209.874 150.131C209.962 158.285 202.575 162.86 193.53 160.712C188.658 159.543 183.821 158.373 179.037 157.238C170.341 155.142 162.413 147.11 161.261 139.025C160.615 134.467 159.951 129.788 159.27 125.003C157.978 115.888 164.736 109.742 174.514 111.715C179.91 112.815 185.358 113.915 190.841 115.05C201.021 117.145 209.577 126.749 209.7 135.969C209.752 140.824 209.804 145.538 209.874 150.148V150.131Z" fill="white"/>
<path d="M272.052 164.327C270.673 172.534 261.418 176.97 251.517 174.612C246.191 173.338 240.901 172.063 235.662 170.806C226.145 168.518 218.567 160.276 218.654 152.122C218.707 147.512 218.759 142.78 218.829 137.925C218.951 128.688 227.752 122.559 238.561 124.759C244.533 125.981 250.557 127.204 256.651 128.443C267.949 130.748 275.999 140.667 274.445 150.009C273.624 154.916 272.838 159.683 272.07 164.31L272.052 164.327Z" fill="white"/>
<path d="M340.628 179.99C337.485 188.215 326.013 192.475 315.134 189.874C309.267 188.459 303.452 187.08 297.707 185.7C287.282 183.186 280.123 174.752 281.712 166.545C282.62 161.9 283.546 157.133 284.523 152.226C286.357 142.867 297.585 136.825 309.616 139.269C316.252 140.631 322.974 141.993 329.749 143.373C342.339 145.94 349.708 156.172 346.129 165.619C344.243 170.561 342.409 175.345 340.646 180.025L340.628 179.99Z" fill="white"/>
<path d="M416.624 197.347C411.334 205.554 397.242 209.553 385.228 206.672C378.75 205.118 372.341 203.581 365.985 202.062C354.478 199.303 347.895 190.659 351.3 182.418C353.238 177.755 355.246 172.953 357.307 168.012C361.253 158.582 375.432 152.663 388.878 155.387C396.316 156.906 403.825 158.442 411.421 159.979C425.547 162.86 432.026 173.425 425.932 182.906C422.736 187.848 419.645 192.668 416.642 197.33L416.624 197.347Z" fill="white"/>
<path d="M501.347 216.695C493.419 224.815 476.185 228.482 462.826 225.286C455.65 223.558 448.525 221.864 441.488 220.17C428.741 217.114 422.874 208.261 428.497 200.054C431.71 195.392 435.01 190.59 438.415 185.648C444.963 176.166 462.722 170.474 477.861 173.547C486.243 175.258 494.712 176.987 503.285 178.733C519.228 181.999 524.536 192.877 515.317 202.359C510.515 207.301 505.852 212.068 501.347 216.695Z" fill="white"/>
<path d="M596.374 238.4C585.216 246.38 564.157 249.576 549.245 246.014C541.23 244.093 533.285 242.189 525.427 240.304C511.213 236.881 506.289 227.853 514.636 219.734C519.403 215.124 524.309 210.339 529.391 205.415C539.135 195.951 561.346 190.572 578.511 194.065C588.027 196.003 597.649 197.976 607.393 199.949C625.535 203.669 629.29 214.879 616.158 224.274C609.331 229.146 602.748 233.86 596.374 238.4Z" fill="white"/>
<path d="M703.712 262.916C688.503 270.617 662.817 273.236 646.053 269.22C637.043 267.055 628.138 264.924 619.319 262.811C603.394 258.987 599.657 249.768 611.357 241.822C618.045 237.282 624.96 232.585 632.119 227.731C645.914 218.371 673.625 213.464 693.27 217.446C704.166 219.663 715.202 221.916 726.378 224.186C747.227 228.464 748.886 239.971 730.83 249.156C721.471 253.906 712.46 258.481 703.747 262.899L703.712 262.916Z" fill="white"/>
<path d="M31.9783 148.14C35.0865 154.339 32.6244 157.901 26.6699 156.277C23.4395 155.404 20.244 154.531 17.0659 153.658C11.2861 152.069 3.76005 145.905 0.215313 139.758C-1.77533 136.301 -3.7834 132.791 -5.86135 129.212C-9.73787 122.471 -7.97427 118.019 -1.75788 119.538C1.66463 120.376 5.12205 121.214 8.59694 122.07C15.0229 123.641 23.2125 130.696 26.635 137.506C28.451 141.12 30.2146 144.648 31.9608 148.123L31.9783 148.14Z" fill="white"/>
<path d="M71.7183 158.635C74.2328 164.868 70.9674 168.361 64.5764 166.632C61.1364 165.689 57.6965 164.764 54.2915 163.821C48.0925 162.127 40.6887 155.841 37.6504 149.642C35.9566 146.167 34.2279 142.622 32.4642 139.008C29.1465 132.197 31.7483 127.78 38.4711 129.421C42.1555 130.329 45.8749 131.237 49.6291 132.163C56.5615 133.874 64.6288 141.086 67.4227 147.948C68.8895 151.58 70.3388 155.142 71.7358 158.652L71.7183 158.635Z" fill="white"/>
<path d="M114.46 169.897C116.276 176.149 112.068 179.554 105.223 177.685C101.521 176.672 97.8362 175.677 94.1867 174.682C87.5512 172.866 80.2522 166.457 77.825 160.223C76.463 156.731 75.0835 153.151 73.6691 149.519C70.9975 142.639 74.5946 138.274 81.8412 140.038C85.84 141.015 89.8562 141.993 93.9073 142.989C101.398 144.822 109.309 152.208 111.352 159.123C112.417 162.79 113.465 166.37 114.495 169.88L114.46 169.897Z" fill="white"/>
<path d="M160.563 182.068C161.576 188.337 156.285 191.62 148.916 189.612C144.935 188.529 140.971 187.446 137.042 186.381C129.9 184.426 122.758 177.895 121.03 171.644C120.069 168.134 119.074 164.537 118.079 160.87C116.193 153.955 120.907 149.642 128.765 151.563C133.096 152.628 137.444 153.693 141.844 154.776C149.981 156.766 157.665 164.327 158.817 171.277C159.411 174.944 160.004 178.541 160.581 182.068H160.563Z" fill="white"/>
<path d="M210.437 195.217C210.507 201.469 203.976 204.612 196.014 202.446C191.718 201.276 187.44 200.107 183.197 198.954C175.496 196.841 168.564 190.206 167.656 183.937C167.149 180.41 166.643 176.813 166.119 173.146C165.141 166.178 171.183 161.97 179.722 164.065C184.419 165.218 189.169 166.388 193.953 167.558C202.806 169.74 210.21 177.459 210.315 184.426C210.367 188.11 210.402 191.707 210.437 195.235V195.217Z" fill="white"/>
<path d="M264.529 209.484C263.481 215.7 255.536 218.651 246.91 216.311C242.248 215.036 237.638 213.779 233.045 212.539C224.716 210.269 218.046 203.494 218.116 197.243C218.168 193.716 218.203 190.118 218.255 186.434C218.343 179.467 225.939 175.381 235.246 177.651C240.379 178.908 245.566 180.183 250.787 181.457C260.46 183.832 267.498 191.725 266.345 198.71C265.734 202.377 265.14 205.974 264.547 209.484H264.529Z" fill="white"/>
<path d="M323.441 225.024C321.084 231.188 311.48 233.912 302.103 231.363C297.039 229.983 292.028 228.621 287.051 227.259C278.006 224.78 271.667 217.9 272.872 211.683C273.553 208.174 274.252 204.594 274.985 200.927C276.364 193.96 285.741 190.066 295.957 192.545C301.579 193.925 307.272 195.304 312.999 196.719C323.616 199.338 330.164 207.405 327.528 214.338C326.131 217.987 324.786 221.549 323.459 225.024H323.441Z" fill="white"/>
<path d="M387.843 242.015C383.932 248.074 372.407 250.518 362.175 247.742C356.657 246.24 351.191 244.756 345.76 243.272C335.912 240.583 329.993 233.581 332.542 227.434C333.991 223.959 335.475 220.414 336.977 216.765C339.876 209.85 351.383 206.148 362.611 208.907C368.81 210.426 375.061 211.963 381.383 213.499C393.099 216.381 399.036 224.623 394.619 231.468C392.296 235.065 390.026 238.592 387.826 242.015H387.843Z" fill="white"/>
<path d="M458.517 260.646C452.755 266.548 438.978 268.644 427.785 265.606C421.743 263.964 415.771 262.323 409.834 260.716C399.077 257.783 393.664 250.676 397.82 244.634C400.178 241.211 402.587 237.719 405.049 234.122C409.764 227.277 423.786 223.889 436.201 226.928C443.064 228.604 449.978 230.298 456.963 232.009C469.937 235.205 475.088 243.586 468.558 250.326C465.118 253.854 461.783 257.294 458.517 260.629V260.646Z" fill="white"/>
<path d="M536.442 281.216C528.462 286.909 512.031 288.585 499.738 285.233C493.102 283.434 486.537 281.635 480.023 279.854C468.219 276.641 463.452 269.447 469.494 263.563C472.916 260.227 476.444 256.805 480.058 253.295C486.973 246.59 503.998 243.569 517.793 246.956C525.424 248.825 533.125 250.728 540.895 252.631C555.353 256.176 559.509 264.732 550.377 271.263C545.592 274.686 540.948 278.003 536.425 281.234L536.442 281.216Z" fill="white"/>
<path d="M622.79 303.987C612.138 309.382 592.564 310.517 578.978 306.816C571.662 304.825 564.415 302.852 557.221 300.879C544.212 297.334 540.248 290.052 548.56 284.395C553.292 281.182 558.146 277.881 563.158 274.494C572.727 267.998 593.349 265.466 608.786 269.238C617.324 271.333 625.95 273.446 634.664 275.576C650.868 279.558 653.767 288.219 641.474 294.47C635.065 297.735 628.832 300.879 622.772 303.952L622.79 303.987Z" fill="white"/>
<path d="M15.5176 173.407C18.4862 178.471 16.6003 181.212 11.4316 179.676C8.63771 178.838 5.86129 178.017 3.08487 177.196C-1.94413 175.694 -8.6495 170.456 -11.9672 165.409C-13.8007 162.598 -15.6865 159.734 -17.5899 156.818C-21.1521 151.353 -19.825 147.965 -14.4643 149.449C-11.5132 150.27 -8.56213 151.091 -5.57616 151.912C-0.0582371 153.448 7.20583 159.315 10.4363 164.798C12.1475 167.714 13.8414 170.596 15.5002 173.407H15.5176Z" fill="white"/>
<path d="M49.6475 183.343C52.1969 188.407 49.6824 191.078 44.1994 189.454C41.2309 188.581 38.2799 187.691 35.3463 186.818C30.003 185.229 23.35 179.903 20.4339 174.839C18.81 172.01 17.1511 169.146 15.4748 166.213C12.3142 160.73 14.2874 157.395 20.0149 158.966C23.158 159.839 26.3186 160.712 29.5141 161.585C35.3987 163.227 42.593 169.199 45.3519 174.699C46.8187 177.633 48.268 180.514 49.6824 183.343H49.6475Z" fill="white"/>
<path d="M85.9851 193.925C88.0281 198.989 84.8326 201.556 79.0004 199.827C75.8398 198.884 72.6967 197.941 69.571 197.016C63.8785 195.322 57.3128 189.926 54.8333 184.863C53.4538 182.034 52.0568 179.153 50.6075 176.219C47.9358 170.701 50.6075 167.436 56.7191 169.129C60.0718 170.055 63.4594 170.998 66.8644 171.941C73.1681 173.687 80.2401 179.781 82.4752 185.282C83.6626 188.215 84.8151 191.096 85.9676 193.925H85.9851Z" fill="white"/>
<path d="M124.8 205.223C126.267 210.269 122.303 212.731 116.069 210.88C112.699 209.885 109.346 208.872 106.029 207.877C99.9694 206.061 93.5085 200.595 91.5353 195.531C90.4352 192.703 89.3177 189.821 88.1827 186.888C86.0524 181.37 89.5447 178.192 96.0929 180.008C99.69 181.003 103.322 182.016 106.972 183.011C113.729 184.88 120.662 191.079 122.268 196.597C123.124 199.53 123.962 202.394 124.783 205.223H124.8Z" fill="white"/>
<path d="M166.327 217.324C167.13 222.335 162.293 224.658 155.64 222.684C152.043 221.619 148.463 220.554 144.919 219.489C138.458 217.551 132.119 211.998 130.74 206.969C129.971 204.157 129.186 201.276 128.365 198.36C126.863 192.842 131.264 189.786 138.318 191.725C142.195 192.807 146.089 193.872 150.018 194.955C157.282 196.981 164.039 203.267 164.93 208.767C165.401 211.683 165.873 214.547 166.327 217.341V217.324Z" fill="white"/>
<path d="M210.847 230.298C210.9 235.257 205.067 237.422 197.943 235.292C194.084 234.139 190.26 233.004 186.453 231.869C179.538 229.809 173.374 224.169 172.658 219.175C172.257 216.381 171.855 213.517 171.436 210.601C170.65 205.118 176.116 202.167 183.712 204.262C187.885 205.415 192.093 206.585 196.319 207.755C204.142 209.92 210.673 216.328 210.743 221.794C210.777 224.693 210.812 227.521 210.847 230.298Z" fill="white"/>
<path d="M258.725 244.25C257.905 249.139 250.955 251.112 243.289 248.825C239.151 247.585 235.047 246.363 230.961 245.14C223.54 242.923 217.585 237.213 217.655 232.271C217.69 229.494 217.725 226.666 217.76 223.784C217.83 218.336 224.5 215.56 232.69 217.813C237.195 219.07 241.735 220.31 246.31 221.584C254.779 223.924 261.013 230.437 260.122 235.833C259.651 238.697 259.179 241.491 258.725 244.232V244.25Z" fill="white"/>
<path d="M310.385 259.284C308.552 264.069 300.31 265.815 292.085 263.37C287.633 262.043 283.215 260.716 278.832 259.407C270.852 257.032 265.159 251.252 266.102 246.38C266.644 243.639 267.185 240.862 267.744 237.998C268.809 232.62 276.859 230.036 285.729 232.481C290.619 233.843 295.543 235.187 300.502 236.567C309.687 239.116 315.572 245.717 313.546 251.025C312.481 253.836 311.433 256.578 310.403 259.267L310.385 259.284Z" fill="white"/>
<path d="M366.227 275.559C363.224 280.203 353.498 281.688 344.627 279.051C339.825 277.619 335.058 276.205 330.326 274.79C321.735 272.223 316.357 266.391 318.33 261.607C319.447 258.918 320.582 256.193 321.752 253.382C323.97 248.091 333.609 245.751 343.265 248.423C348.574 249.89 353.934 251.374 359.33 252.876C369.318 255.652 374.766 262.34 371.431 267.526C369.667 270.268 367.939 272.939 366.245 275.559H366.227Z" fill="white"/>
<path d="M426.798 293.195C422.415 297.683 411.013 298.835 401.391 295.971C396.205 294.417 391.036 292.881 385.92 291.362C376.63 288.585 371.636 282.701 374.814 278.056C376.613 275.454 378.446 272.782 380.315 270.058C383.877 264.889 395.384 262.864 405.896 265.763C411.694 267.369 417.543 268.993 423.428 270.617C434.359 273.638 439.231 280.413 434.359 285.442C431.775 288.096 429.26 290.681 426.798 293.212V293.195Z" fill="white"/>
<path d="M492.778 312.403C486.788 316.664 473.447 317.45 462.988 314.324C457.348 312.648 451.742 310.972 446.19 309.313C436.097 306.309 431.574 300.372 436.167 295.902C438.751 293.388 441.405 290.821 444.112 288.184C449.263 283.19 462.935 281.514 474.443 284.692C480.799 286.455 487.207 288.219 493.668 290.017C505.647 293.335 509.855 300.18 503.132 304.982C499.588 307.514 496.148 309.976 492.76 312.386L492.778 312.403Z" fill="white"/>
<path d="M564.837 333.41C556.962 337.391 541.351 337.705 529.966 334.318C523.819 332.484 517.725 330.668 511.666 328.869C500.682 325.587 496.736 319.632 502.97 315.389C506.479 312.997 510.094 310.552 513.796 308.055C520.816 303.288 537.02 302.048 549.697 305.558C556.682 307.496 563.737 309.452 570.861 311.425C584.062 315.092 587.432 321.972 578.544 326.495C573.865 328.869 569.307 331.174 564.872 333.444L564.837 333.41Z" fill="white"/>
<path d="M32.5983 202.411C35.0778 206.637 33.1047 208.75 28.3027 207.213C25.7009 206.393 23.099 205.554 20.5322 204.734C15.8349 203.232 9.81067 198.622 7.03424 194.396C5.49761 192.039 3.92603 189.629 2.31954 187.202C-0.64896 182.645 0.870213 180.043 5.86428 181.527C8.60578 182.348 11.3473 183.186 14.1237 184.024C19.24 185.561 25.7009 190.66 28.3725 195.217C29.8044 197.644 31.2013 200.037 32.5983 202.411Z" fill="white"/>
<path d="M64.1887 212.312C66.3015 216.52 63.8046 218.546 58.7232 216.922C55.9817 216.049 53.2401 215.176 50.4986 214.303C45.5395 212.714 39.5676 208.051 37.1229 203.826C35.7609 201.468 34.3814 199.076 32.9845 196.649C30.3652 192.091 32.4432 189.559 37.7167 191.148C40.6153 192.022 43.5489 192.912 46.4825 193.785C51.8956 195.427 58.3041 200.595 60.5741 205.135C61.7964 207.562 62.9838 209.937 64.1712 212.295L64.1887 212.312Z" fill="white"/>
<path d="M97.6512 222.807C99.3275 226.998 96.2542 228.901 90.876 227.19C87.9599 226.264 85.0613 225.339 82.1801 224.413C76.9415 222.737 71.0395 218.022 68.979 213.814C67.8265 211.474 66.674 209.082 65.4866 206.655C63.269 202.115 65.9581 199.67 71.5633 201.346C74.654 202.272 77.7448 203.215 80.8704 204.158C86.6328 205.904 92.9365 211.142 94.77 215.665C95.7479 218.075 96.7083 220.449 97.6512 222.789V222.807Z" fill="white"/>
<path d="M133.186 233.93C134.391 238.068 130.654 239.867 124.962 238.051C121.871 237.073 118.798 236.095 115.742 235.117C110.189 233.336 104.392 228.569 102.75 224.396C101.842 222.056 100.917 219.699 99.9912 217.289C98.245 212.766 101.598 210.426 107.57 212.225C110.852 213.22 114.17 214.216 117.488 215.211C123.634 217.062 129.798 222.388 131.126 226.875C131.824 229.268 132.505 231.625 133.186 233.93Z" fill="white"/>
<path d="M170.95 245.769C171.614 249.855 167.144 251.514 161.102 249.593C157.819 248.545 154.554 247.515 151.323 246.467C145.421 244.582 139.746 239.762 138.594 235.624C137.965 233.319 137.319 230.961 136.655 228.569C135.433 224.081 139.554 221.864 145.928 223.785C149.437 224.85 152.965 225.897 156.509 226.98C163.058 228.953 169.082 234.331 169.815 238.784C170.199 241.159 170.584 243.481 170.95 245.769Z" fill="white"/>
<path d="M211.181 258.359C211.234 262.375 205.943 263.877 199.499 261.834C196.007 260.716 192.549 259.616 189.092 258.516C182.823 256.508 177.27 251.654 176.694 247.568C176.362 245.28 176.031 242.958 175.699 240.6C175.07 236.165 180.047 234.087 186.874 236.13C190.611 237.265 194.383 238.4 198.19 239.553C205.209 241.665 211.042 247.114 211.094 251.496C211.129 253.836 211.146 256.124 211.181 258.359Z" fill="white"/>
<path d="M254.161 271.822C253.497 275.751 247.316 277.061 240.436 274.878C236.716 273.691 233.014 272.521 229.347 271.351C222.677 269.22 217.299 264.314 217.334 260.297C217.369 258.045 217.386 255.775 217.421 253.452C217.491 249.087 223.428 247.166 230.727 249.366C234.743 250.571 238.777 251.794 242.845 253.016C250.371 255.286 255.977 260.786 255.261 265.099C254.876 267.387 254.51 269.622 254.143 271.84L254.161 271.822Z" fill="white"/>
<path d="M300.099 286.228C298.633 290.052 291.421 291.152 284.087 288.812C280.123 287.555 276.177 286.28 272.248 285.04C265.123 282.77 259.955 277.811 260.706 273.882C261.142 271.682 261.579 269.447 262.015 267.177C262.853 262.899 269.908 261.188 277.748 263.545C282.061 264.854 286.409 266.164 290.775 267.474C298.86 269.918 304.185 275.471 302.596 279.68C301.741 281.897 300.92 284.08 300.099 286.228Z" fill="white"/>
<path d="M349.397 301.664C347.004 305.349 338.64 306.204 330.782 303.707C326.539 302.345 322.313 301.001 318.105 299.674C310.474 297.229 305.567 292.252 307.139 288.446C308.03 286.315 308.938 284.133 309.863 281.915C311.609 277.742 319.904 276.257 328.338 278.807C332.982 280.204 337.662 281.618 342.377 283.032C351.09 285.669 356.084 291.274 353.483 295.343C352.103 297.491 350.741 299.604 349.397 301.682V301.664Z" fill="white"/>
<path d="M402.389 318.253C398.949 321.78 389.276 322.339 380.824 319.65C376.267 318.201 371.726 316.751 367.221 315.319C359.049 312.7 354.422 307.689 356.936 304.022C358.351 301.961 359.8 299.866 361.267 297.718C364.061 293.684 373.77 292.497 382.885 295.238C387.914 296.757 392.96 298.277 398.059 299.813C407.488 302.66 412.063 308.3 408.274 312.194C406.266 314.254 404.293 316.262 402.372 318.253H402.389Z" fill="white"/>
<path d="M459.525 336.151C454.863 339.469 443.687 339.696 434.607 336.797C429.7 335.226 424.829 333.672 419.992 332.135C411.191 329.324 406.93 324.295 410.527 320.802C412.553 318.846 414.613 316.838 416.709 314.795C420.69 310.936 432.04 310.063 441.924 313.032C447.372 314.673 452.837 316.332 458.355 317.991C468.57 321.082 472.674 326.739 467.523 330.424C464.799 332.379 462.127 334.265 459.525 336.134V336.151Z" fill="white"/>
<path d="M521.293 355.516C515.233 358.589 502.364 358.415 492.551 355.307C487.26 353.613 482.004 351.937 476.783 350.278C467.301 347.257 463.459 342.21 468.296 338.927C471.02 337.077 473.797 335.191 476.643 333.27C482.021 329.638 495.24 329.149 505.979 332.379C511.898 334.16 517.853 335.959 523.86 337.775C534.983 341.128 538.475 346.803 531.735 350.243C528.173 352.041 524.698 353.822 521.293 355.551V355.516Z" fill="white"/>
<path d="M46.9625 226.84C49.0754 230.437 47.0673 232.061 42.5622 230.542C40.135 229.721 37.6903 228.901 35.2806 228.098C30.8802 226.613 25.4147 222.527 23.0574 218.913C21.7477 216.905 20.4032 214.861 19.0586 212.801C16.5267 208.942 18.1855 206.916 22.8478 208.418C25.3972 209.239 27.9641 210.059 30.5485 210.898C35.2981 212.434 41.1303 216.922 43.4004 220.764C44.6052 222.824 45.8101 224.85 46.98 226.84H46.9625Z" fill="white"/>
<path d="M76.359 236.584C78.1401 240.146 75.678 241.683 70.9459 240.094C68.379 239.238 65.8296 238.365 63.2976 237.527C58.6703 235.973 53.2571 231.834 51.1966 228.255C50.0441 226.264 48.8742 224.238 47.7043 222.178C45.4866 218.336 47.6169 216.398 52.5237 217.97C55.2128 218.843 57.9368 219.716 60.6434 220.589C65.6724 222.213 71.4174 226.735 73.3382 230.559C74.3684 232.602 75.3637 234.611 76.359 236.584Z" fill="white"/>
<path d="M107.379 246.869C108.794 250.396 105.825 251.811 100.849 250.152C98.1421 249.244 95.453 248.336 92.7814 247.445C87.9095 245.804 82.5662 241.63 80.82 238.086C79.8596 236.112 78.8643 234.104 77.8865 232.061C76.0181 228.255 78.6722 226.404 83.8584 228.063C86.7046 228.988 89.5684 229.896 92.4496 230.822C97.758 232.533 103.433 237.125 104.97 240.897C105.79 242.923 106.594 244.913 107.379 246.869Z" fill="white"/>
<path d="M140.133 257.713C141.146 261.188 137.619 262.497 132.363 260.734C129.516 259.773 126.67 258.83 123.859 257.87C118.725 256.141 113.469 251.933 112.089 248.423C111.321 246.467 110.57 244.477 109.767 242.469C108.318 238.679 111.531 236.951 117.014 238.714C120.035 239.692 123.055 240.653 126.111 241.648C131.734 243.464 137.304 248.091 138.404 251.828C138.981 253.819 139.557 255.774 140.116 257.713H140.133Z" fill="white"/>
<path d="M174.785 269.185C175.344 272.59 171.206 273.76 165.635 271.909C162.632 270.896 159.629 269.884 156.66 268.888C151.229 267.055 146.078 262.829 145.118 259.372C144.594 257.451 144.053 255.478 143.511 253.487C142.499 249.768 146.358 248.161 152.172 250.03C155.368 251.06 158.598 252.09 161.829 253.138C167.801 255.059 173.231 259.738 173.842 263.405C174.157 265.361 174.471 267.299 174.785 269.185Z" fill="white"/>
<path d="M211.467 281.338C211.502 284.674 206.682 285.686 200.797 283.713C197.619 282.648 194.441 281.583 191.281 280.518C185.536 278.579 180.507 274.319 180.018 270.914C179.756 269.028 179.477 267.09 179.197 265.134C178.673 261.467 183.248 260 189.447 261.991C192.852 263.091 196.257 264.191 199.697 265.291C206.053 267.334 211.327 272.049 211.379 275.646C211.397 277.567 211.432 279.452 211.449 281.303L211.467 281.338Z" fill="white"/>
<path d="M250.422 294.243C249.881 297.473 244.311 298.329 238.077 296.234C234.707 295.099 231.337 293.964 228.002 292.846C221.925 290.803 217.018 286.507 217.053 283.19C217.07 281.339 217.105 279.453 217.123 277.549C217.175 273.97 222.536 272.66 229.119 274.773C232.734 275.943 236.383 277.113 240.05 278.283C246.825 280.466 251.907 285.215 251.33 288.725C251.016 290.593 250.719 292.427 250.405 294.243H250.422Z" fill="white"/>
<path d="M291.826 307.95C290.621 311.076 284.213 311.722 277.595 309.504C274.015 308.299 270.435 307.094 266.908 305.907C260.465 303.742 255.733 299.411 256.361 296.198C256.71 294.4 257.077 292.566 257.444 290.715C258.142 287.223 264.394 286.105 271.413 288.358C275.272 289.598 279.166 290.855 283.078 292.112C290.289 294.435 295.179 299.219 293.887 302.624C293.206 304.44 292.507 306.221 291.861 307.968L291.826 307.95Z" fill="white"/>
<path d="M335.915 322.566C333.977 325.552 326.643 325.988 319.588 323.631C315.781 322.356 311.975 321.082 308.22 319.807C301.358 317.502 296.835 313.171 298.127 310.046C298.861 308.3 299.594 306.536 300.345 304.737C301.76 301.35 309.024 300.459 316.532 302.869C320.653 304.196 324.809 305.541 329 306.885C336.718 309.365 341.328 314.167 339.233 317.449C338.115 319.178 337.015 320.889 335.932 322.566H335.915Z" fill="white"/>
<path d="M383.006 338.159C380.229 340.988 371.83 341.162 364.322 338.648C360.253 337.286 356.219 335.924 352.203 334.579C344.904 332.117 340.609 327.769 342.652 324.801C343.787 323.142 344.956 321.448 346.144 319.719C348.379 316.489 356.778 315.843 364.811 318.427C369.228 319.842 373.681 321.273 378.169 322.723C386.446 325.394 390.741 330.214 387.72 333.322C386.114 334.963 384.542 336.587 382.988 338.176L383.006 338.159Z" fill="white"/>
<path d="M433.353 354.835C429.634 357.489 420.065 357.367 412.032 354.678C407.702 353.228 403.371 351.779 399.093 350.33C391.305 347.711 387.289 343.363 390.17 340.534C391.794 338.962 393.435 337.356 395.129 335.714C398.307 332.641 407.964 332.292 416.607 335.068C421.357 336.605 426.141 338.141 430.961 339.678C439.866 342.542 443.778 347.361 439.709 350.277C437.544 351.814 435.431 353.333 433.353 354.817V354.835Z" fill="white"/>
<path d="M487.359 372.734C482.557 375.161 471.661 374.707 463.07 371.826C458.425 370.272 453.815 368.717 449.223 367.181C440.876 364.37 437.209 360.039 441.05 357.402C443.216 355.935 445.416 354.434 447.668 352.915C451.912 350.033 463.017 350.033 472.307 353.002C477.423 354.643 482.575 356.302 487.761 357.978C497.365 361.069 500.822 365.889 495.566 368.56C492.772 369.975 490.013 371.372 487.342 372.734H487.359Z" fill="white"/>
<path d="M59.2096 247.69C61.0256 250.781 59 252.038 54.7743 250.554C52.4868 249.75 50.1993 248.947 47.9292 248.161C43.7908 246.712 38.8142 243.027 36.7537 239.919C35.6187 238.191 34.4837 236.427 33.3137 234.663C31.1485 231.346 32.8772 229.774 37.2426 231.241C39.6349 232.044 42.0446 232.865 44.4544 233.685C48.9071 235.187 54.198 239.186 56.1363 242.469C57.1665 244.232 58.1968 245.961 59.2096 247.69Z" fill="white"/>
<path d="M86.7193 257.224C88.256 260.28 85.8288 261.432 81.4109 259.896C79.0187 259.057 76.6264 258.219 74.2516 257.381C69.9211 255.862 64.9794 252.16 63.1983 249.069C62.203 247.358 61.2251 245.629 60.1949 243.866C58.309 240.583 60.4393 239.099 65.0318 240.635C67.5463 241.491 70.0782 242.347 72.6102 243.202C77.29 244.791 82.5111 248.807 84.1525 252.073C85.0255 253.819 85.8811 255.53 86.7368 257.224H86.7193Z" fill="white"/>
<path d="M115.6 267.212C116.805 270.215 113.959 271.28 109.314 269.656C106.8 268.766 104.285 267.893 101.788 267.02C97.2479 265.431 92.3587 261.694 90.8744 258.655C90.0537 256.962 89.2156 255.25 88.36 253.504C86.7709 250.256 89.3553 248.859 94.1922 250.501C96.8464 251.391 99.5005 252.299 102.172 253.207C107.096 254.884 112.248 258.935 113.557 262.148C114.256 263.859 114.937 265.553 115.6 267.229V267.212Z" fill="white"/>
<path d="M145.983 277.741C146.838 280.692 143.521 281.635 138.631 279.924C135.995 278.999 133.358 278.073 130.721 277.148C125.954 275.471 121.135 271.717 119.965 268.731C119.318 267.072 118.655 265.378 117.991 263.667C116.752 260.472 119.825 259.179 124.906 260.891C127.7 261.834 130.494 262.794 133.323 263.737C138.526 265.501 143.573 269.587 144.498 272.747C144.987 274.424 145.476 276.1 145.948 277.724L145.983 277.741Z" fill="white"/>
<path d="M177.975 288.812C178.446 291.694 174.587 292.514 169.453 290.716C166.677 289.738 163.9 288.778 161.142 287.8C156.113 286.036 151.398 282.264 150.595 279.331C150.141 277.689 149.687 276.03 149.233 274.354C148.377 271.211 151.992 270.041 157.37 271.857C160.321 272.852 163.272 273.848 166.258 274.86C171.741 276.729 176.7 280.832 177.206 283.923C177.486 285.565 177.748 287.206 178.01 288.795L177.975 288.812Z" fill="white"/>
<path d="M211.711 300.494C211.746 303.288 207.31 303.969 201.897 302.083C198.964 301.053 196.048 300.04 193.149 299.027C187.858 297.176 183.248 293.369 182.829 290.506C182.602 288.899 182.375 287.293 182.13 285.651C181.694 282.578 185.92 281.548 191.595 283.469C194.703 284.516 197.846 285.582 200.989 286.647C206.787 288.62 211.606 292.758 211.658 295.762C211.676 297.368 211.693 298.957 211.711 300.511V300.494Z" fill="white"/>
<path d="M247.312 312.822C246.858 315.529 241.794 316.053 236.084 314.044C232.993 312.962 229.903 311.879 226.847 310.814C221.259 308.858 216.771 305.052 216.806 302.258C216.806 300.704 216.841 299.132 216.859 297.526C216.911 294.522 221.8 293.667 227.807 295.692C231.108 296.81 234.425 297.927 237.743 299.062C243.89 301.14 248.552 305.314 248.08 308.23C247.819 309.784 247.574 311.32 247.312 312.822Z" fill="white"/>
<path d="M284.995 325.866C284 328.468 278.237 328.8 272.213 326.687C268.948 325.552 265.7 324.399 262.469 323.264C256.585 321.204 252.219 317.38 252.743 314.673C253.04 313.171 253.337 311.652 253.634 310.098C254.21 307.199 259.832 306.501 266.206 308.649C269.698 309.836 273.226 311.024 276.753 312.211C283.284 314.429 287.754 318.602 286.689 321.413C286.112 322.915 285.554 324.382 284.995 325.831V325.866Z" fill="white"/>
<path d="M324.89 339.678C323.284 342.158 316.753 342.297 310.379 340.062C306.922 338.857 303.482 337.652 300.06 336.448C293.826 334.265 289.652 330.441 290.718 327.839C291.311 326.39 291.922 324.923 292.551 323.439C293.721 320.645 300.164 320.156 306.922 322.443C310.641 323.7 314.378 324.958 318.133 326.232C325.065 328.572 329.343 332.781 327.614 335.452C326.689 336.884 325.781 338.281 324.89 339.678Z" fill="white"/>
<path d="M367.238 354.346C364.95 356.686 357.564 356.581 350.806 354.224C347.139 352.932 343.507 351.675 339.875 350.4C333.275 348.078 329.293 344.253 330.97 341.791C331.913 340.412 332.873 339.015 333.851 337.601C335.684 334.946 343.053 334.667 350.247 337.094C354.194 338.439 358.175 339.783 362.174 341.128C369.56 343.625 373.594 347.816 371.114 350.365C369.805 351.71 368.512 353.037 367.238 354.346Z" fill="white"/>
<path d="M412.237 369.922C409.199 372.087 400.852 371.738 393.675 369.223C389.781 367.861 385.922 366.499 382.081 365.155C375.079 362.693 371.307 358.869 373.682 356.564C375.009 355.271 376.371 353.962 377.75 352.617C380.335 350.103 388.734 350.103 396.399 352.687C400.625 354.119 404.851 355.551 409.129 356.983C417.022 359.654 420.741 363.828 417.441 366.203C415.677 367.46 413.949 368.682 412.255 369.904L412.237 369.922Z" fill="white"/>
<path d="M460.176 386.528C456.282 388.501 446.87 387.855 439.239 385.184C435.101 383.734 430.997 382.302 426.894 380.87C419.455 378.269 415.945 374.445 419.088 372.297C420.852 371.109 422.65 369.887 424.484 368.647C427.924 366.325 437.458 366.604 445.648 369.363C450.153 370.882 454.693 372.419 459.25 373.956C467.684 376.802 471.072 380.975 466.829 383.14C464.576 384.293 462.358 385.411 460.176 386.511V386.528Z" fill="white"/>
<path d="M69.8177 265.693C71.3892 268.382 69.3811 269.342 65.3998 267.893C63.2346 267.107 61.1042 266.339 58.9564 265.553C55.045 264.139 50.4526 260.803 48.689 258.097C47.6936 256.595 46.6983 255.058 45.7029 253.522C43.8345 250.641 45.5807 249.418 49.6842 250.868C51.9368 251.653 54.1894 252.457 56.4594 253.26C60.6328 254.727 65.4697 258.324 67.1635 261.17C68.054 262.689 68.9446 264.208 69.8177 265.693Z" fill="white"/>
<path d="M95.6238 274.965C96.9509 277.602 94.5935 278.475 90.4376 276.973C88.1851 276.152 85.9325 275.349 83.6974 274.528C79.6288 273.044 75.0713 269.709 73.5346 267.02C72.679 265.536 71.8059 264.034 70.9328 262.515C69.2914 259.668 71.4218 258.533 75.7174 260.053C78.0747 260.891 80.4495 261.711 82.8243 262.55C87.2072 264.104 91.9917 267.701 93.4062 270.512C94.157 272.014 94.9079 273.498 95.6413 274.965H95.6238Z" fill="white"/>
<path d="M122.655 284.674C123.703 287.258 120.962 288.044 116.614 286.472C114.256 285.617 111.899 284.761 109.559 283.923C105.298 282.369 100.811 279.016 99.5186 276.379C98.8027 274.913 98.0868 273.428 97.3534 271.944C95.9914 269.15 98.5059 268.103 103.011 269.692C105.473 270.565 107.97 271.438 110.45 272.311C115.042 273.935 119.757 277.567 120.874 280.326C121.468 281.793 122.062 283.259 122.638 284.691L122.655 284.674Z" fill="white"/>
<path d="M150.978 294.837C151.711 297.369 148.568 298.032 144.011 296.391C141.548 295.5 139.086 294.61 136.642 293.719C132.189 292.095 127.754 288.725 126.741 286.141C126.182 284.709 125.623 283.26 125.047 281.775C123.982 279.034 126.933 278.091 131.665 279.75C134.267 280.658 136.869 281.583 139.488 282.509C144.325 284.202 148.952 287.869 149.755 290.559C150.174 292.008 150.594 293.422 150.995 294.837H150.978Z" fill="white"/>
<path d="M180.696 305.488C181.098 307.95 177.483 308.509 172.716 306.78C170.132 305.837 167.547 304.912 164.98 303.986C160.301 302.293 155.953 298.888 155.254 296.373C154.87 294.976 154.486 293.544 154.084 292.112C153.351 289.423 156.773 288.603 161.733 290.349C164.457 291.309 167.198 292.27 169.957 293.247C175.038 295.029 179.579 298.713 180.015 301.35C180.242 302.764 180.469 304.144 180.696 305.523V305.488Z" fill="white"/>
<path d="M211.899 316.699C211.916 319.091 207.83 319.51 202.819 317.694C200.112 316.716 197.405 315.738 194.716 314.76C189.809 312.979 185.549 309.574 185.2 307.112C185.008 305.75 184.815 304.371 184.606 302.956C184.239 300.337 188.168 299.639 193.407 301.472C196.27 302.485 199.152 303.498 202.068 304.528C207.411 306.414 211.846 310.098 211.881 312.648C211.881 314.01 211.916 315.354 211.934 316.699H211.899Z" fill="white"/>
<path d="M244.713 328.468C244.329 330.772 239.684 331.034 234.428 329.131C231.581 328.101 228.735 327.071 225.906 326.04C220.755 324.172 216.599 320.749 216.617 318.375C216.617 317.048 216.652 315.72 216.669 314.358C216.704 311.826 221.192 311.268 226.71 313.206C229.73 314.271 232.769 315.336 235.825 316.419C241.465 318.41 245.76 322.111 245.359 324.574C245.149 325.883 244.922 327.193 244.713 328.468Z" fill="white"/>
<path d="M279.27 340.866C278.431 343.066 273.193 343.171 267.658 341.163C264.654 340.08 261.668 338.997 258.7 337.915C253.286 335.959 249.253 332.537 249.689 330.232C249.934 328.957 250.196 327.665 250.44 326.355C250.929 323.91 256.045 323.509 261.86 325.552C265.056 326.669 268.269 327.804 271.482 328.939C277.436 331.035 281.592 334.737 280.684 337.112C280.195 338.369 279.724 339.626 279.252 340.848L279.27 340.866Z" fill="white"/>
<path d="M315.69 353.944C314.328 356.022 308.461 355.952 302.629 353.84C299.468 352.687 296.325 351.552 293.2 350.417C287.507 348.357 283.596 344.934 284.504 342.734C285.01 341.512 285.534 340.289 286.04 339.032C287.018 336.692 292.815 336.483 298.962 338.63C302.332 339.818 305.72 341.005 309.142 342.21C315.428 344.428 319.41 348.13 317.978 350.382C317.21 351.587 316.441 352.757 315.69 353.927V353.944Z" fill="white"/>
<path d="M354.168 367.757C352.264 369.712 345.664 369.433 339.517 367.215C336.182 366.011 332.864 364.806 329.564 363.618C323.557 361.436 319.82 358.013 321.235 355.953C322.038 354.8 322.841 353.63 323.645 352.443C325.181 350.225 331.729 350.208 338.243 352.495C341.822 353.752 345.402 355.027 349.017 356.284C355.687 358.624 359.441 362.326 357.398 364.439C356.316 365.557 355.233 366.674 354.168 367.757Z" fill="white"/>
<path d="M394.845 382.355C392.313 384.154 384.927 383.665 378.431 381.307C374.904 380.033 371.411 378.758 367.919 377.501C361.563 375.196 358.018 371.791 360.009 369.852C361.126 368.77 362.244 367.67 363.396 366.57C365.544 364.492 372.948 364.701 379.845 367.128C383.635 368.455 387.441 369.8 391.265 371.144C398.337 373.642 401.882 377.326 399.158 379.282C397.691 380.329 396.277 381.342 394.862 382.355H394.845Z" fill="white"/>
<path d="M437.922 397.826C434.692 399.45 426.45 398.699 419.57 396.22C415.851 394.875 412.131 393.53 408.447 392.186C401.742 389.759 398.389 386.354 401.008 384.573C402.475 383.577 403.959 382.564 405.478 381.534C408.325 379.613 416.637 380.085 423.97 382.652C427.987 384.066 432.038 385.498 436.106 386.93C443.615 389.584 446.898 393.251 443.405 395.032C441.537 395.975 439.704 396.901 437.922 397.826Z" fill="white"/>
<path d="M79.0343 281.391C80.4138 283.748 78.4406 284.481 74.6689 283.085C72.6258 282.316 70.6003 281.565 68.5747 280.815C64.8728 279.435 60.6296 276.397 59.0581 274.022C58.2024 272.695 57.3294 271.368 56.4388 270.006C54.7974 267.491 56.561 266.531 60.4375 267.945C62.5504 268.713 64.6982 269.499 66.8285 270.268C70.7749 271.699 75.2276 274.965 76.6944 277.444C77.4802 278.771 78.2486 280.099 79.0169 281.408L79.0343 281.391Z" fill="white"/>
<path d="M103.377 290.402C104.53 292.707 102.242 293.37 98.3306 291.903C96.2003 291.1 94.0874 290.314 91.9745 289.529C88.1329 288.097 83.9072 285.041 82.5626 282.701C81.8118 281.409 81.0609 280.082 80.2926 278.755C78.8782 276.275 80.9561 275.402 85.0073 276.869C87.2249 277.672 89.4426 278.493 91.6777 279.296C95.7987 280.798 100.199 284.063 101.439 286.508C102.102 287.817 102.748 289.109 103.395 290.384L103.377 290.402Z" fill="white"/>
<path d="M128.763 299.778C129.671 302.031 127.052 302.589 122.966 301.07C120.748 300.25 118.548 299.429 116.348 298.608C112.332 297.106 108.176 294.051 107.041 291.746C106.412 290.471 105.784 289.179 105.155 287.869C103.968 285.425 106.412 284.656 110.638 286.193C112.96 287.031 115.283 287.887 117.623 288.742C121.918 290.314 126.284 293.597 127.244 295.989C127.768 297.264 128.274 298.538 128.781 299.796L128.763 299.778Z" fill="white"/>
<path d="M155.287 309.592C155.934 311.792 152.93 312.246 148.669 310.657C146.347 309.801 144.06 308.928 141.755 308.073C137.564 306.518 133.46 303.445 132.587 301.193C132.098 299.953 131.609 298.678 131.12 297.403C130.195 295.011 133.006 294.33 137.442 295.937C139.869 296.827 142.296 297.7 144.741 298.591C149.246 300.232 153.524 303.532 154.222 305.872C154.589 307.13 154.956 308.352 155.305 309.574L155.287 309.592Z" fill="white"/>
<path d="M183.034 319.859C183.383 321.989 179.995 322.339 175.543 320.68C173.116 319.772 170.723 318.881 168.314 317.991C163.948 316.367 159.914 313.276 159.303 311.076C158.971 309.853 158.64 308.631 158.29 307.374C157.662 305.051 160.875 304.475 165.502 306.169C168.052 307.094 170.601 308.02 173.15 308.945C177.865 310.657 182.073 313.974 182.44 316.244C182.632 317.467 182.842 318.654 183.034 319.841V319.859Z" fill="white"/>
<path d="M212.068 330.581C212.068 332.641 208.279 332.868 203.617 331.122C201.085 330.179 198.571 329.236 196.056 328.311C191.481 326.599 187.517 323.509 187.22 321.396C187.046 320.208 186.889 319.021 186.714 317.816C186.4 315.563 190.067 315.109 194.921 316.873C197.593 317.833 200.264 318.811 202.953 319.789C207.913 321.588 211.999 324.905 212.034 327.106C212.034 328.276 212.068 329.446 212.086 330.581H212.068Z" fill="white"/>
<path d="M242.498 341.844C242.166 343.817 237.888 343.904 232.999 342.088C230.344 341.11 227.708 340.115 225.089 339.137C220.304 337.356 216.445 334.265 216.462 332.205C216.462 331.07 216.497 329.917 216.515 328.747C216.55 326.565 220.706 326.25 225.787 328.101C228.581 329.114 231.392 330.144 234.204 331.157C239.407 333.06 243.388 336.378 243.039 338.491C242.847 339.626 242.673 340.744 242.48 341.844H242.498Z" fill="white"/>
<path d="M274.403 353.63C273.687 355.516 268.885 355.446 263.769 353.543C260.992 352.513 258.233 351.483 255.474 350.452C250.463 348.584 246.691 345.493 247.075 343.52C247.285 342.437 247.512 341.32 247.721 340.202C248.14 338.107 252.82 337.932 258.181 339.888C261.115 340.953 264.066 342.036 267.034 343.118C272.5 345.109 276.359 348.427 275.608 350.452C275.206 351.535 274.805 352.583 274.385 353.648L274.403 353.63Z" fill="white"/>
<path d="M307.907 366.029C306.755 367.81 301.412 367.583 296.051 365.592C293.135 364.509 290.236 363.427 287.355 362.362C282.099 360.406 278.449 357.315 279.218 355.429C279.654 354.382 280.091 353.334 280.545 352.269C281.383 350.278 286.639 350.261 292.279 352.321C295.37 353.439 298.478 354.574 301.604 355.709C307.366 357.804 311.085 361.122 309.863 363.025C309.217 364.038 308.554 365.051 307.925 366.029H307.907Z" fill="white"/>
<path d="M343.146 379.055C341.522 380.713 335.585 380.312 329.945 378.216C326.889 377.081 323.851 375.946 320.813 374.811C315.295 372.751 311.785 369.678 312.99 367.897C313.671 366.919 314.352 365.923 315.05 364.911C316.36 363.025 322.244 363.199 328.199 365.365C331.464 366.552 334.73 367.739 338.03 368.944C344.089 371.162 347.651 374.462 345.923 376.243C344.997 377.204 344.072 378.129 343.181 379.055H343.146Z" fill="white"/>
<path d="M380.253 392.779C378.106 394.299 371.505 393.705 365.568 391.505C362.355 390.3 359.142 389.113 355.964 387.925C350.167 385.76 346.797 382.687 348.49 381.045C349.433 380.137 350.394 379.212 351.354 378.269C353.17 376.505 359.771 376.889 366.039 379.159C369.479 380.417 372.937 381.674 376.412 382.931C382.82 385.271 386.19 388.554 383.885 390.213C382.663 391.086 381.441 391.959 380.253 392.797V392.779Z" fill="white"/>
<path d="M419.36 407.238C416.636 408.617 409.319 407.797 403.068 405.474C399.68 404.217 396.31 402.96 392.958 401.702C386.846 399.432 383.65 396.377 385.886 394.857C387.125 394.019 388.383 393.164 389.657 392.308C392.05 390.701 399.418 391.295 406.036 393.687C409.669 395.015 413.318 396.342 417.002 397.669C423.778 400.131 426.921 403.414 424.005 404.898C422.451 405.684 420.914 406.469 419.395 407.238H419.36Z" fill="white"/>
<path d="M87.1532 295.203C88.3755 297.281 86.4372 297.84 82.8575 296.478C80.9193 295.745 78.9985 295.011 77.0777 294.278C73.5679 292.933 69.6041 290.157 68.2246 288.026C67.4563 286.857 66.6879 285.669 65.9022 284.482C64.4528 282.247 66.2165 281.531 69.8834 282.893C71.8915 283.644 73.9171 284.394 75.9252 285.145C79.6446 286.542 83.783 289.511 85.0752 291.711C85.7737 292.881 86.4547 294.051 87.1357 295.203H87.1532Z" fill="white"/>
<path d="M110.167 303.934C111.18 305.977 108.962 306.448 105.26 305.034C103.252 304.266 101.244 303.497 99.2532 302.746C95.6036 301.349 91.6922 298.556 90.4874 296.478C89.8238 295.325 89.1602 294.173 88.4792 293.003C87.222 290.82 89.2825 290.156 93.0892 291.588C95.1846 292.374 97.28 293.16 99.3928 293.946C103.269 295.395 107.373 298.381 108.456 300.529C109.032 301.681 109.608 302.816 110.167 303.951V303.934Z" fill="white"/>
<path d="M134.107 313.014C134.91 315.005 132.378 315.389 128.537 313.905C126.441 313.101 124.363 312.316 122.285 311.512C118.496 310.063 114.62 307.252 113.624 305.226C113.083 304.109 112.524 302.974 111.965 301.821C110.918 299.691 113.293 299.115 117.256 300.599C119.439 301.42 121.622 302.24 123.822 303.061C127.873 304.58 131.907 307.566 132.762 309.661C133.216 310.779 133.67 311.897 134.107 312.997V313.014Z" fill="white"/>
<path d="M159.061 322.478C159.62 324.417 156.773 324.696 152.757 323.177C150.574 322.339 148.409 321.518 146.244 320.697C142.297 319.196 138.473 316.384 137.705 314.394C137.286 313.293 136.849 312.193 136.413 311.076C135.61 308.98 138.299 308.509 142.455 310.063C144.725 310.919 147.012 311.774 149.3 312.63C153.525 314.219 157.507 317.222 158.1 319.248C158.415 320.348 158.729 321.431 159.043 322.496L159.061 322.478Z" fill="white"/>
<path d="M185.057 332.344C185.354 334.213 182.176 334.405 177.985 332.798C175.715 331.925 173.462 331.07 171.21 330.214C167.106 328.643 163.335 325.831 162.811 323.91C162.514 322.845 162.217 321.763 161.92 320.68C161.361 318.654 164.417 318.27 168.748 319.894C171.122 320.785 173.515 321.675 175.907 322.566C180.325 324.225 184.219 327.228 184.551 329.201C184.725 330.266 184.9 331.314 185.057 332.344Z" fill="white"/>
<path d="M212.213 342.629C212.23 344.428 208.668 344.498 204.303 342.839C201.928 341.931 199.57 341.04 197.231 340.132C192.952 338.491 189.251 335.68 188.989 333.811C188.849 332.781 188.692 331.733 188.552 330.686C188.273 328.73 191.713 328.45 196.253 330.144C198.732 331.07 201.229 332.013 203.726 332.938C208.336 334.667 212.16 337.67 212.178 339.591C212.178 340.604 212.213 341.617 212.213 342.612V342.629Z" fill="white"/>
<path d="M240.559 353.386C240.262 355.115 236.298 355.062 231.741 353.316C229.278 352.373 226.816 351.43 224.354 350.505C219.884 348.793 216.269 345.982 216.287 344.183C216.287 343.188 216.304 342.193 216.322 341.18C216.357 339.294 220.216 339.137 224.948 340.918C227.55 341.896 230.152 342.874 232.771 343.852C237.59 345.668 241.327 348.671 241.013 350.487C240.856 351.465 240.681 352.425 240.524 353.386H240.559Z" fill="white"/>
<path d="M270.203 364.631C269.575 366.255 265.157 366.08 260.407 364.264C257.823 363.287 255.256 362.291 252.689 361.313C248.027 359.532 244.5 356.721 244.831 355.01C245.024 354.067 245.198 353.106 245.39 352.128C245.757 350.312 250.07 350.312 255.029 352.163C257.753 353.176 260.477 354.206 263.236 355.237C268.3 357.14 271.897 360.143 271.251 361.872C270.884 362.798 270.553 363.723 270.203 364.631Z" fill="white"/>
<path d="M301.232 376.383C300.236 377.919 295.347 377.588 290.37 375.684C287.664 374.654 284.975 373.624 282.303 372.611C277.431 370.743 274.009 367.931 274.672 366.307C275.039 365.417 275.423 364.491 275.807 363.583C276.523 361.855 281.343 362.012 286.546 363.95C289.392 365.015 292.274 366.08 295.137 367.163C300.446 369.154 303.938 372.157 302.89 373.781C302.332 374.654 301.773 375.527 301.214 376.383H301.232Z" fill="white"/>
<path d="M333.752 388.711C332.355 390.143 326.959 389.654 321.738 387.663C318.909 386.581 316.098 385.515 313.304 384.45C308.205 382.494 304.888 379.701 305.935 378.164C306.512 377.326 307.105 376.47 307.699 375.597C308.816 373.973 314.177 374.287 319.643 376.33C322.629 377.448 325.65 378.583 328.671 379.701C334.241 381.779 337.593 384.782 336.109 386.301C335.306 387.122 334.52 387.908 333.752 388.711Z" fill="white"/>
<path d="M367.834 401.65C366.001 402.96 360.029 402.296 354.563 400.201C351.595 399.066 348.661 397.948 345.728 396.831C340.384 394.788 337.206 391.994 338.656 390.58C339.459 389.794 340.297 389.008 341.118 388.187C342.672 386.686 348.626 387.157 354.354 389.305C357.497 390.475 360.657 391.662 363.836 392.85C369.703 395.05 372.881 398.018 370.925 399.415C369.877 400.166 368.847 400.899 367.817 401.633L367.834 401.65Z" fill="white"/>
<path d="M403.651 415.218C401.328 416.388 394.763 415.532 389.018 413.35C385.91 412.162 382.819 410.975 379.746 409.805C374.14 407.657 371.102 404.898 373.005 403.589C374.071 402.873 375.136 402.139 376.218 401.406C378.244 400.026 384.845 400.707 390.886 402.96C394.204 404.2 397.522 405.44 400.874 406.697C407.038 409.002 410.059 411.953 407.58 413.227C406.253 413.909 404.943 414.572 403.651 415.218Z" fill="white"/>
<path d="M94.3659 307.462C95.4485 309.313 93.5452 309.714 90.1577 308.405C88.3242 307.689 86.4906 306.973 84.6572 306.257C81.3219 304.965 77.6201 302.38 76.3803 300.494C75.6993 299.447 75.0008 298.399 74.3198 297.334C73.0276 295.361 74.7738 294.802 78.2662 296.129C80.1695 296.862 82.0903 297.596 84.0111 298.329C87.5558 299.691 91.3974 302.415 92.5499 304.353C93.1611 305.401 93.7722 306.431 94.3659 307.462Z" fill="white"/>
<path d="M116.174 315.913C117.082 317.729 114.916 318.043 111.407 316.681C109.503 315.931 107.6 315.197 105.697 314.464C102.239 313.119 98.5722 310.535 97.5071 308.684C96.9134 307.654 96.3197 306.623 95.726 305.593C94.6084 303.655 96.6165 303.166 100.231 304.545C102.204 305.296 104.195 306.065 106.203 306.833C109.87 308.247 113.694 310.971 114.655 312.875C115.161 313.905 115.667 314.9 116.174 315.913Z" fill="white"/>
<path d="M138.824 324.679C139.54 326.442 137.113 326.687 133.463 325.272C131.49 324.504 129.517 323.736 127.544 322.967C123.964 321.57 120.332 318.986 119.459 317.187C118.97 316.192 118.481 315.179 117.975 314.167C117.049 312.281 119.337 311.862 123.091 313.311C125.151 314.097 127.212 314.9 129.29 315.686C133.114 317.153 136.868 319.894 137.619 321.745C138.021 322.74 138.422 323.718 138.806 324.696L138.824 324.679Z" fill="white"/>
<path d="M162.38 333.811C162.869 335.523 160.163 335.68 156.374 334.196C154.313 333.392 152.27 332.589 150.227 331.803C146.508 330.354 142.928 327.752 142.247 326.006C141.88 325.028 141.496 324.05 141.112 323.072C140.396 321.222 142.98 320.907 146.892 322.409C149.04 323.23 151.187 324.05 153.353 324.888C157.334 326.408 161.036 329.167 161.577 330.965C161.857 331.926 162.136 332.886 162.415 333.829L162.38 333.811Z" fill="white"/>
<path d="M186.857 343.293C187.119 344.935 184.098 345.005 180.169 343.468C178.039 342.63 175.909 341.809 173.778 340.971C169.902 339.452 166.392 336.867 165.921 335.174C165.659 334.231 165.397 333.288 165.135 332.327C164.646 330.546 167.545 330.319 171.613 331.873C173.848 332.729 176.083 333.585 178.336 334.44C182.474 336.029 186.124 338.788 186.403 340.517C186.56 341.442 186.7 342.368 186.857 343.276V343.293Z" fill="white"/>
<path d="M212.338 353.159C212.338 354.748 209.003 354.696 204.899 353.107C202.682 352.234 200.464 351.378 198.264 350.522C194.23 348.951 190.773 346.367 190.546 344.725C190.423 343.817 190.284 342.892 190.162 341.966C189.917 340.237 193.165 340.115 197.408 341.739C199.731 342.63 202.071 343.52 204.41 344.428C208.723 346.087 212.303 348.829 212.321 350.505C212.321 351.396 212.338 352.286 212.355 353.159H212.338Z" fill="white"/>
<path d="M238.89 363.444C238.628 364.945 234.926 364.806 230.665 363.129C228.36 362.221 226.038 361.331 223.75 360.44C219.559 358.799 216.172 356.215 216.189 354.643C216.189 353.77 216.207 352.897 216.224 352.006C216.242 350.347 219.856 350.347 224.291 352.041C226.719 352.967 229.146 353.91 231.608 354.835C236.113 356.564 239.606 359.305 239.344 360.912C239.204 361.767 239.064 362.606 238.924 363.444H238.89Z" fill="white"/>
<path d="M266.571 374.165C266.03 375.597 261.926 375.318 257.491 373.589C255.081 372.646 252.671 371.721 250.279 370.778C245.914 369.067 242.596 366.482 242.893 364.998C243.05 364.16 243.225 363.322 243.382 362.483C243.696 360.894 247.712 361.017 252.322 362.78C254.854 363.758 257.404 364.719 259.953 365.696C264.668 367.495 268.055 370.254 267.479 371.756C267.165 372.576 266.868 373.362 266.554 374.165H266.571Z" fill="white"/>
<path d="M295.456 385.359C294.583 386.703 290.078 386.284 285.451 384.485C282.936 383.508 280.439 382.53 277.942 381.552C273.385 379.771 270.172 377.204 270.748 375.789C271.08 375.004 271.412 374.2 271.743 373.397C272.372 371.895 276.807 372.157 281.644 374.008C284.298 375.021 286.953 376.034 289.624 377.064C294.548 378.95 297.831 381.692 296.923 383.106C296.434 383.874 295.945 384.625 295.474 385.359H295.456Z" fill="white"/>
<path d="M325.618 397.058C324.396 398.298 319.454 397.739 314.617 395.871C311.998 394.84 309.378 393.828 306.777 392.815C302.027 390.964 298.901 388.397 299.809 387.07C300.316 386.336 300.822 385.586 301.346 384.835C302.324 383.438 307.231 383.822 312.277 385.76C315.053 386.825 317.83 387.89 320.624 388.956C325.775 390.929 328.936 393.653 327.661 394.98C326.98 395.678 326.299 396.377 325.618 397.075V397.058Z" fill="white"/>
<path d="M357.146 409.264C355.557 410.399 350.109 409.683 345.063 407.727C342.321 406.662 339.597 405.597 336.873 404.532C331.914 402.593 328.893 400.044 330.168 398.822C330.866 398.141 331.582 397.442 332.298 396.761C333.643 395.451 339.056 396.01 344.347 398.036C347.245 399.153 350.162 400.271 353.095 401.388C358.491 403.449 361.529 406.156 359.835 407.378C358.927 408.024 358.037 408.653 357.146 409.299V409.264Z" fill="white"/>
<path d="M390.164 422.063C388.156 423.076 382.201 422.203 376.91 420.142C374.047 419.025 371.183 417.907 368.337 416.807C363.151 414.781 360.269 412.249 361.911 411.132C362.819 410.503 363.744 409.875 364.687 409.246C366.433 408.059 372.405 408.792 377.958 410.905C380.996 412.075 384.052 413.245 387.125 414.415C392.783 416.58 395.664 419.269 393.534 420.352C392.399 420.928 391.264 421.504 390.146 422.063H390.164Z" fill="white"/>
<path d="M100.791 318.392C101.769 320.051 99.9002 320.331 96.6697 319.056C94.9236 318.357 93.1599 317.676 91.4312 316.978C88.2532 315.721 84.7783 313.328 83.6607 311.635C83.0496 310.692 82.4384 309.749 81.8098 308.806C80.6573 307.025 82.386 306.623 85.6863 307.915C87.5023 308.631 89.3184 309.33 91.1344 310.046C94.5045 311.355 98.1016 313.887 99.1318 315.616C99.6732 316.559 100.214 317.484 100.773 318.392H100.791Z" fill="white"/>
<path d="M121.539 326.582C122.359 328.188 120.264 328.415 116.911 327.088C115.095 326.372 113.297 325.656 111.481 324.94C108.198 323.631 104.74 321.238 103.797 319.58C103.274 318.672 102.732 317.746 102.208 316.803C101.213 315.074 103.169 314.725 106.609 316.07C108.495 316.803 110.381 317.537 112.266 318.287C115.741 319.649 119.321 322.181 120.177 323.875C120.631 324.783 121.085 325.691 121.539 326.582Z" fill="white"/>
<path d="M143.03 335.068C143.659 336.64 141.336 336.762 137.861 335.4C135.975 334.649 134.107 333.916 132.239 333.165C128.834 331.803 125.429 329.411 124.643 327.804C124.206 326.914 123.77 326.023 123.316 325.115C122.495 323.421 124.695 323.159 128.257 324.539C130.213 325.307 132.169 326.058 134.125 326.826C137.739 328.241 141.266 330.773 141.947 332.414C142.297 333.305 142.663 334.178 143.013 335.051L143.03 335.068Z" fill="white"/>
<path d="M165.313 343.852C165.75 345.371 163.165 345.423 159.586 344.009C157.63 343.241 155.692 342.472 153.754 341.704C150.226 340.307 146.856 337.897 146.245 336.343C145.913 335.47 145.564 334.597 145.232 333.724C144.604 332.083 147.066 331.89 150.768 333.34C152.793 334.126 154.819 334.929 156.862 335.732C160.616 337.199 164.091 339.731 164.562 341.337C164.807 342.193 165.069 343.049 165.313 343.887V343.852Z" fill="white"/>
<path d="M188.431 352.984C188.658 354.451 185.794 354.416 182.075 352.932C180.049 352.128 178.041 351.325 176.033 350.539C172.366 349.09 169.066 346.68 168.647 345.179C168.42 344.341 168.175 343.502 167.948 342.647C167.512 341.058 170.27 340.97 174.112 342.455C176.225 343.275 178.32 344.096 180.451 344.934C184.362 346.453 187.767 349.003 188.029 350.539C188.169 351.36 188.291 352.181 188.431 353.002V352.984Z" fill="white"/>
<path d="M212.459 362.466C212.459 363.863 209.316 363.741 205.457 362.204C203.362 361.366 201.266 360.545 199.188 359.724C195.382 358.223 192.134 355.813 191.924 354.364C191.802 353.56 191.697 352.74 191.575 351.919C191.365 350.382 194.421 350.382 198.42 351.936C200.603 352.792 202.803 353.648 205.003 354.503C209.054 356.092 212.407 358.624 212.442 360.091C212.442 360.877 212.459 361.663 212.477 362.448L212.459 362.466Z" fill="white"/>
<path d="M237.417 372.315C237.19 373.642 233.715 373.415 229.699 371.826C227.517 370.953 225.351 370.097 223.186 369.241C219.24 367.67 216.044 365.278 216.062 363.898C216.062 363.13 216.079 362.344 216.097 361.558C216.114 360.091 219.502 360.196 223.657 361.82C225.928 362.711 228.215 363.601 230.52 364.492C234.746 366.151 238.029 368.665 237.784 370.08C237.662 370.83 237.54 371.581 237.417 372.315Z" fill="white"/>
<path d="M263.378 382.564C262.89 383.822 259.083 383.472 254.909 381.831C252.639 380.94 250.387 380.032 248.152 379.142C244.048 377.518 240.923 375.126 241.185 373.799C241.324 373.065 241.481 372.332 241.621 371.581C241.9 370.184 245.637 370.394 249.968 372.087C252.343 373.013 254.717 373.938 257.11 374.881C261.51 376.61 264.706 379.124 264.199 380.452C263.92 381.167 263.658 381.866 263.396 382.564H263.378Z" fill="white"/>
<path d="M290.392 393.216C289.624 394.386 285.451 393.932 281.12 392.203C278.763 391.278 276.423 390.335 274.083 389.409C269.822 387.716 266.767 385.341 267.291 384.084C267.587 383.385 267.867 382.687 268.164 381.988C268.722 380.679 272.826 381.01 277.348 382.774C279.828 383.734 282.308 384.712 284.787 385.69C289.38 387.489 292.47 389.986 291.685 391.243C291.248 391.906 290.829 392.57 290.41 393.234L290.392 393.216Z" fill="white"/>
<path d="M318.523 404.321C317.457 405.404 312.882 404.81 308.377 403.029C305.933 402.051 303.488 401.091 301.043 400.131C296.608 398.367 293.639 396.01 294.443 394.84C294.879 394.194 295.333 393.53 295.787 392.884C296.643 391.662 301.166 392.116 305.863 393.949C308.447 394.962 311.031 395.957 313.633 396.988C318.418 398.856 321.421 401.353 320.304 402.505C319.71 403.134 319.099 403.728 318.523 404.339V404.321Z" fill="white"/>
<path d="M347.861 415.916C346.464 416.912 341.488 416.178 336.773 414.31C334.223 413.297 331.674 412.284 329.142 411.289C324.515 409.456 321.651 407.098 322.769 406.016C323.38 405.422 324.008 404.811 324.637 404.2C325.824 403.065 330.783 403.676 335.69 405.579C338.379 406.627 341.086 407.692 343.793 408.74C348.787 410.695 351.685 413.175 350.218 414.223C349.433 414.781 348.647 415.34 347.879 415.899L347.861 415.916Z" fill="white"/>
<path d="M378.47 428C376.724 428.89 371.276 428 366.369 426.044C363.715 424.979 361.061 423.931 358.406 422.884C353.587 420.963 350.828 418.64 352.26 417.645C353.063 417.104 353.866 416.562 354.687 416.004C356.206 414.973 361.654 415.742 366.788 417.732C369.599 418.832 372.428 419.933 375.257 421.05C380.478 423.093 383.237 425.555 381.403 426.498C380.426 427.005 379.43 427.511 378.47 427.982V428Z" fill="white"/>
<path d="M106.572 328.206C107.445 329.708 105.629 329.882 102.556 328.643C100.879 327.962 99.2204 327.298 97.5441 326.634C94.5057 325.412 91.2229 323.177 90.2276 321.658C89.6688 320.82 89.1275 319.964 88.5513 319.108C87.5036 317.519 89.2148 317.223 92.3754 318.462C94.1041 319.143 95.8329 319.842 97.579 320.523C100.775 321.798 104.18 324.137 105.105 325.709C105.594 326.547 106.083 327.385 106.572 328.206Z" fill="white"/>
<path d="M126.317 336.134C127.05 337.583 125.024 337.705 121.829 336.43C120.1 335.732 118.372 335.033 116.66 334.352C113.517 333.078 110.269 330.86 109.414 329.376C108.942 328.555 108.471 327.717 107.982 326.879C107.091 325.325 108.995 325.08 112.277 326.39C114.058 327.106 115.857 327.822 117.656 328.538C120.973 329.847 124.326 332.205 125.094 333.724C125.513 334.545 125.915 335.348 126.317 336.151V336.134Z" fill="white"/>
<path d="M146.772 344.341C147.331 345.755 145.095 345.79 141.795 344.463C140.014 343.747 138.233 343.031 136.452 342.315C133.204 341.005 129.991 338.77 129.293 337.321C128.908 336.518 128.507 335.714 128.105 334.894C127.372 333.375 129.502 333.217 132.89 334.562C134.741 335.295 136.609 336.046 138.477 336.78C141.9 338.142 145.235 340.499 145.829 341.966C146.161 342.751 146.475 343.555 146.789 344.323L146.772 344.341Z" fill="white"/>
<path d="M167.934 352.827C168.336 354.189 165.856 354.154 162.451 352.792C160.6 352.041 158.749 351.308 156.916 350.557C153.563 349.195 150.402 346.977 149.844 345.563C149.547 344.794 149.232 344.009 148.935 343.223C148.359 341.756 150.734 341.669 154.244 343.066C156.165 343.834 158.085 344.602 160.024 345.371C163.586 346.785 166.851 349.142 167.27 350.557C167.497 351.325 167.724 352.076 167.934 352.827Z" fill="white"/>
<path d="M189.84 361.61C190.05 362.92 187.326 362.815 183.798 361.383C181.878 360.615 179.974 359.847 178.071 359.078C174.596 357.681 171.47 355.446 171.104 354.084C170.894 353.333 170.685 352.583 170.475 351.814C170.091 350.4 172.728 350.4 176.36 351.832C178.35 352.618 180.358 353.421 182.349 354.207C186.034 355.673 189.264 358.031 189.491 359.393C189.613 360.126 189.735 360.86 189.84 361.575V361.61Z" fill="white"/>
<path d="M212.549 370.725C212.549 371.983 209.58 371.773 205.913 370.306C203.94 369.503 201.95 368.717 199.976 367.914C196.379 366.465 193.306 364.23 193.114 362.937C193.009 362.221 192.904 361.488 192.8 360.755C192.607 359.393 195.506 359.48 199.278 360.982C201.338 361.802 203.416 362.623 205.494 363.461C209.318 364.98 212.479 367.32 212.496 368.647C212.496 369.363 212.496 370.044 212.514 370.743L212.549 370.725Z" fill="white"/>
<path d="M236.105 380.172C235.896 381.36 232.63 381.063 228.841 379.544C226.781 378.723 224.738 377.885 222.695 377.064C218.958 375.562 215.937 373.345 215.954 372.105C215.954 371.424 215.954 370.725 215.972 370.027C215.989 368.717 219.185 368.909 223.096 370.463C225.244 371.319 227.392 372.175 229.557 373.03C233.538 374.619 236.629 376.959 236.42 378.199C236.315 378.863 236.193 379.544 236.088 380.19L236.105 380.172Z" fill="white"/>
<path d="M260.532 389.986C260.095 391.103 256.533 390.702 252.604 389.13C250.474 388.275 248.344 387.419 246.231 386.563C242.372 385.009 239.403 382.792 239.63 381.604C239.752 380.958 239.892 380.295 240.014 379.631C240.259 378.391 243.769 378.688 247.837 380.295C250.072 381.185 252.29 382.058 254.542 382.966C258.681 384.608 261.702 386.947 261.248 388.117C261.003 388.746 260.759 389.375 260.532 390.003V389.986Z" fill="white"/>
<path d="M285.918 400.166C285.237 401.214 281.343 400.707 277.274 399.066C275.057 398.175 272.857 397.285 270.656 396.394C266.64 394.788 263.759 392.57 264.213 391.452C264.475 390.841 264.719 390.213 264.999 389.584C265.488 388.414 269.329 388.816 273.555 390.492C275.878 391.418 278.2 392.343 280.522 393.268C284.818 394.98 287.769 397.302 287.053 398.402C286.669 398.996 286.285 399.572 285.918 400.148V400.166Z" fill="white"/>
<path d="M312.293 410.73C311.35 411.691 307.107 411.062 302.881 409.368C300.576 408.443 298.288 407.517 296.018 406.592C291.862 404.916 289.034 402.715 289.75 401.685C290.151 401.109 290.553 400.533 290.954 399.956C291.705 398.874 295.896 399.38 300.297 401.126C302.706 402.087 305.116 403.047 307.543 404.008C312.013 405.789 314.86 408.094 313.882 409.106C313.358 409.648 312.817 410.189 312.31 410.73H312.293Z" fill="white"/>
<path d="M339.705 421.731C338.483 422.604 333.873 421.853 329.473 420.072C327.081 419.112 324.706 418.152 322.331 417.191C318 415.445 315.276 413.262 316.254 412.319C316.796 411.795 317.354 411.254 317.896 410.713C318.926 409.717 323.518 410.346 328.093 412.18C330.608 413.175 333.122 414.188 335.654 415.183C340.317 417.034 343.058 419.321 341.783 420.247C341.085 420.736 340.404 421.225 339.723 421.714L339.705 421.731Z" fill="white"/>
<path d="M368.238 433.186C366.701 433.972 361.707 433.081 357.115 431.23C354.635 430.235 352.155 429.24 349.693 428.244C345.188 426.428 342.551 424.263 343.826 423.408C344.525 422.936 345.241 422.447 345.956 421.958C347.301 421.05 352.295 421.836 357.062 423.722C359.681 424.77 362.301 425.8 364.937 426.848C369.792 428.786 372.429 431.056 370.822 431.877C369.949 432.313 369.093 432.767 368.238 433.186Z" fill="white"/>
<path d="M111.778 337.076C112.581 338.438 110.8 338.526 107.849 337.338C106.242 336.675 104.653 336.029 103.064 335.383C100.166 334.195 97.0575 332.1 96.1495 330.72C95.6431 329.952 95.1542 329.184 94.6304 328.398C93.6874 326.949 95.3637 326.756 98.3846 327.961C100.043 328.625 101.685 329.306 103.361 329.969C106.417 331.209 109.63 333.392 110.451 334.806C110.905 335.575 111.341 336.326 111.778 337.076Z" fill="white"/>
<path d="M130.646 344.76C131.292 346.07 129.336 346.122 126.298 344.882C124.639 344.201 122.998 343.538 121.356 342.857C118.353 341.634 115.297 339.539 114.511 338.194C114.092 337.443 113.656 336.693 113.219 335.942C112.416 334.527 114.284 334.388 117.393 335.645C119.104 336.326 120.815 337.024 122.526 337.723C125.687 338.998 128.865 341.198 129.546 342.56C129.913 343.293 130.279 344.027 130.646 344.76Z" fill="white"/>
<path d="M150.155 352.687C150.661 353.962 148.496 353.927 145.37 352.652C143.659 351.954 141.965 351.255 140.272 350.574C137.181 349.3 134.143 347.222 133.496 345.912C133.147 345.196 132.781 344.463 132.431 343.729C131.768 342.367 133.828 342.297 137.059 343.59C138.822 344.306 140.603 345.022 142.367 345.737C145.632 347.065 148.758 349.247 149.299 350.574C149.596 351.29 149.876 352.006 150.155 352.705V352.687Z" fill="white"/>
<path d="M170.292 360.894C170.641 362.117 168.266 362.029 165.036 360.702C163.272 359.986 161.509 359.271 159.763 358.555C156.567 357.245 153.564 355.167 153.075 353.892C152.795 353.194 152.516 352.495 152.254 351.779C151.748 350.452 154.018 350.452 157.353 351.797C159.169 352.53 161.02 353.264 162.853 354.015C166.241 355.377 169.314 357.559 169.698 358.851C169.908 359.55 170.1 360.231 170.292 360.912V360.894Z" fill="white"/>
<path d="M191.109 369.363C191.301 370.533 188.699 370.359 185.347 368.997C183.531 368.246 181.715 367.512 179.899 366.779C176.598 365.434 173.63 363.339 173.298 362.117C173.106 361.436 172.931 360.755 172.739 360.074C172.39 358.799 174.905 358.869 178.345 360.266C180.23 361.034 182.134 361.785 184.02 362.553C187.512 363.968 190.568 366.15 190.76 367.373C190.865 368.036 190.969 368.7 191.074 369.346L191.109 369.363Z" fill="white"/>
<path d="M212.637 378.129C212.637 379.247 209.808 379.002 206.35 377.588C204.465 376.819 202.596 376.051 200.728 375.283C197.305 373.886 194.407 371.808 194.232 370.638C194.145 369.992 194.04 369.346 193.953 368.682C193.778 367.46 196.537 367.617 200.117 369.049C202.072 369.835 204.028 370.62 206.001 371.424C209.616 372.89 212.619 375.073 212.619 376.243C212.619 376.872 212.619 377.5 212.637 378.129Z" fill="white"/>
<path d="M234.938 387.192C234.764 388.257 231.673 387.908 228.093 386.441C226.138 385.638 224.199 384.852 222.261 384.066C218.734 382.617 215.87 380.556 215.87 379.439C215.87 378.828 215.87 378.199 215.887 377.57C215.887 376.4 218.926 376.645 222.628 378.147C224.653 378.967 226.679 379.788 228.722 380.609C232.476 382.128 235.41 384.293 235.218 385.411C235.113 386.004 235.026 386.598 234.921 387.192H234.938Z" fill="white"/>
<path d="M258.016 396.586C257.631 397.581 254.279 397.145 250.559 395.626C248.551 394.805 246.543 393.984 244.535 393.164C240.868 391.679 238.074 389.601 238.284 388.554C238.388 387.977 238.511 387.384 238.633 386.79C238.843 385.69 242.143 386.022 245.984 387.576C248.08 388.431 250.193 389.27 252.306 390.125C256.199 391.697 259.063 393.862 258.662 394.91C258.452 395.468 258.243 396.027 258.016 396.586Z" fill="white"/>
<path d="M281.942 406.33C281.331 407.273 277.699 406.732 273.857 405.16C271.762 404.305 269.684 403.449 267.606 402.611C263.817 401.057 261.075 399.014 261.477 398.018C261.704 397.46 261.931 396.918 262.176 396.359C262.612 395.329 266.209 395.766 270.173 397.372C272.356 398.245 274.538 399.136 276.739 400.026C280.772 401.668 283.584 403.816 282.955 404.794C282.623 405.317 282.274 405.841 281.942 406.365V406.33Z" fill="white"/>
<path d="M306.756 416.423C305.918 417.278 301.972 416.632 297.973 415.008C295.808 414.118 293.66 413.245 291.495 412.372C287.566 410.765 284.894 408.722 285.523 407.797C285.872 407.29 286.221 406.766 286.588 406.26C287.252 405.3 291.163 405.841 295.302 407.5C297.554 408.408 299.842 409.333 302.112 410.259C306.302 411.953 309.027 414.1 308.153 414.991C307.682 415.48 307.21 415.951 306.756 416.44V416.423Z" fill="white"/>
<path d="M332.494 426.9C331.394 427.668 327.133 426.9 322.994 425.224C320.759 424.298 318.524 423.39 316.289 422.482C312.221 420.823 309.619 418.78 310.492 417.942C310.981 417.471 311.47 416.999 311.959 416.528C312.884 415.637 317.127 416.301 321.423 418.029C323.78 418.972 326.138 419.933 328.495 420.893C332.86 422.657 335.48 424.787 334.345 425.608C333.733 426.044 333.122 426.481 332.511 426.917L332.494 426.9Z" fill="white"/>
<path d="M359.205 437.761C357.843 438.46 353.215 437.569 348.937 435.823C346.615 434.863 344.292 433.92 341.97 432.977C337.744 431.248 335.23 429.24 336.347 428.471C336.976 428.052 337.605 427.616 338.233 427.179C339.421 426.376 344.03 427.179 348.501 428.96C350.945 429.956 353.39 430.934 355.852 431.929C360.392 433.762 362.924 435.875 361.492 436.591C360.724 436.975 359.956 437.377 359.205 437.744V437.761Z" fill="white"/>
</g>
</svg>
