<svg width="651" height="466" viewBox="0 0 651 466" fill="none" xmlns="http://www.w3.org/2000/svg">
<g opacity="0.02">
<path d="M647.352 356.117C649.359 344.097 661.156 336.777 673.473 339.192C680.106 340.492 686.682 341.793 693.185 343.075C704.944 345.397 714.326 356.451 714.178 368.23C714.103 374.936 714.011 381.847 713.918 388.963C713.732 402.599 702.604 412.743 688.912 410.736C681.332 409.621 673.659 408.488 665.912 407.355C651.477 405.218 641.482 391.341 643.804 377.333C645.012 370.032 646.201 362.972 647.334 356.135L647.352 356.117Z" fill="white"/>
<path d="M560.107 340.307C564.789 328.045 579.874 320.8 593.641 323.494C601.053 324.943 608.373 326.392 615.637 327.822C628.753 330.405 637.485 341.849 635.144 353.906C633.807 360.78 632.413 367.877 630.983 375.196C628.215 389.26 613.371 399.608 597.84 397.323C589.219 396.059 580.506 394.778 571.682 393.477C555.24 391.043 546.323 376.497 551.803 362.062C554.664 354.556 557.432 347.329 560.089 340.325L560.107 340.307Z" fill="white"/>
<path d="M461.554 322.453C469.617 309.987 488.715 302.891 504.209 305.919C512.532 307.554 520.762 309.17 528.918 310.786C543.632 313.703 551.49 325.537 546.381 337.836C543.446 344.858 540.418 352.141 537.297 359.665C531.222 374.156 511.752 384.653 493.973 382.052C484.108 380.603 474.094 379.135 463.988 377.63C445.094 374.843 437.662 359.572 447.23 344.71C452.172 337.018 456.965 329.624 461.572 322.472L461.554 322.453Z" fill="white"/>
<path d="M349.265 302.11C361.601 289.477 385.697 282.64 403.272 286.077C412.691 287.935 422.017 289.756 431.232 291.576C447.859 294.865 454.566 307.126 445.964 319.648C441.041 326.819 435.913 334.25 430.6 341.96C420.326 356.86 394.93 367.449 374.364 364.44C362.939 362.749 351.365 361.04 339.623 359.331C317.683 356.08 312.351 340.047 327.176 324.813C334.83 316.954 342.187 309.411 349.265 302.147V302.11Z" fill="white"/>
<path d="M220.201 278.72C238.018 266.013 268.411 259.566 288.476 263.486C299.232 265.604 309.859 267.703 320.356 269.766C339.287 273.5 344.433 286.207 331.41 298.877C323.904 306.16 316.101 313.721 308.001 321.598C292.247 336.888 259.252 347.441 235.212 343.929C221.836 341.96 208.256 339.954 194.489 337.929C168.703 334.101 166.288 317.251 188.043 301.683C199.208 293.713 209.928 286.059 220.201 278.72Z" fill="white"/>
<path d="M70.2966 251.541C95.247 238.889 133.629 233.037 156.778 237.589C169.169 240.022 181.412 242.438 193.488 244.816C215.243 249.107 218.289 262.26 199.581 274.986C188.769 282.343 177.473 289.997 165.695 297.986C142.714 313.554 99.78 323.958 71.2998 319.797C55.4156 317.456 39.2898 315.078 22.904 312.663C-7.82414 308.111 -6.15212 290.369 24.8733 274.615C40.7018 266.571 55.8243 258.898 70.2966 251.559V251.541Z" fill="white"/>
<path d="M585.213 274.503C588.557 265.753 600.763 261.22 612.337 263.988C618.579 265.493 624.766 266.961 630.878 268.428C641.969 271.104 649.586 280.077 647.895 288.809C646.929 293.75 645.945 298.822 644.904 304.043C642.954 314 631.008 320.428 618.208 317.827C611.148 316.378 603.995 314.929 596.787 313.462C583.392 310.731 575.552 299.844 579.361 289.793C581.367 284.536 583.318 279.445 585.194 274.466L585.213 274.503Z" fill="white"/>
<path d="M504.351 256.037C509.981 247.305 524.973 243.05 537.755 246.116C544.647 247.769 551.465 249.404 558.228 251.02C570.471 253.956 577.475 263.152 573.852 271.921C571.79 276.881 569.653 281.99 567.461 287.248C563.262 297.28 548.177 303.578 533.872 300.68C525.958 299.063 517.969 297.428 509.888 295.794C494.858 292.728 487.966 281.489 494.449 271.401C497.849 266.143 501.137 261.015 504.333 256.055L504.351 256.037Z" fill="white"/>
<path d="M414.216 235.452C422.65 226.813 440.987 222.912 455.199 226.312C462.835 228.151 470.414 229.953 477.901 231.755C491.463 235.006 497.706 244.425 491.724 253.157C488.305 258.117 484.794 263.226 481.171 268.484C474.204 278.572 455.311 284.628 439.203 281.358C430.286 279.538 421.275 277.698 412.154 275.841C395.192 272.367 389.544 260.792 399.353 250.705C404.462 245.447 409.423 240.375 414.216 235.452Z" fill="white"/>
<path d="M313.111 212.359C324.982 203.869 347.387 200.469 363.253 204.259C371.78 206.303 380.233 208.328 388.593 210.334C403.716 213.976 408.955 223.581 400.075 232.219C395.003 237.124 389.782 242.214 384.376 247.453C374.01 257.523 350.378 263.245 332.116 259.529C321.991 257.467 311.754 255.368 301.388 253.268C282.085 249.311 278.091 237.384 292.062 227.389C299.326 222.206 306.33 217.19 313.111 212.359Z" fill="white"/>
<path d="M198.909 186.276C215.091 178.083 242.419 175.296 260.254 179.569C269.84 181.873 279.315 184.14 288.697 186.387C305.64 190.456 309.616 200.265 297.169 208.718C290.053 213.549 282.696 218.546 275.079 223.711C260.403 233.669 230.919 238.889 210.019 234.653C198.426 232.294 186.685 229.897 174.795 227.482C152.613 222.931 150.848 210.688 170.058 200.916C180.015 195.862 189.602 190.995 198.872 186.295L198.909 186.276Z" fill="white"/>
<path d="M603.488 226.591C605.996 220.032 616.214 217.134 626.19 219.847C631.578 221.314 636.91 222.763 642.205 224.213C651.828 226.851 658.572 234.17 657.29 240.784C656.566 244.518 655.822 248.327 655.042 252.228C653.574 259.641 643.598 263.784 632.73 261.146C626.748 259.678 620.691 258.21 614.598 256.706C603.302 253.919 596.335 245.336 599.141 237.96C600.627 234.077 602.057 230.288 603.469 226.591H603.488Z" fill="white"/>
<path d="M534.974 208.514C539.136 202.067 551.397 199.466 562.284 202.42C568.155 204.018 573.97 205.597 579.747 207.176C590.225 210.037 596.523 217.487 593.811 224.027C592.269 227.724 590.69 231.495 589.092 235.378C586.008 242.735 573.765 246.673 561.819 243.738C555.224 242.122 548.573 240.487 541.848 238.852C529.382 235.787 523.066 227.018 527.766 219.735C530.237 215.908 532.652 212.155 534.993 208.514H534.974Z" fill="white"/>
<path d="M459.782 188.691C465.913 182.412 480.571 180.182 492.479 183.415C498.907 185.161 505.261 186.908 511.578 188.617C523.022 191.738 528.781 199.299 524.359 205.727C521.851 209.369 519.288 213.084 516.668 216.911C511.652 224.194 496.734 227.798 483.525 224.565C476.224 222.782 468.867 220.98 461.435 219.159C447.632 215.759 442.151 206.842 449.1 199.671C452.76 195.918 456.308 192.258 459.782 188.71V188.691Z" fill="white"/>
<path d="M376.873 166.806C385.363 160.75 402.845 158.966 415.924 162.533C422.984 164.447 429.969 166.36 436.899 168.255C449.457 171.673 454.529 179.328 448.101 185.588C444.46 189.137 440.707 192.778 436.861 196.512C429.504 203.646 411.391 206.86 396.714 203.256C388.596 201.268 380.403 199.243 372.135 197.218C356.753 193.447 352.331 184.344 362.048 177.396C367.138 173.754 372.08 170.224 376.891 166.787L376.873 166.806Z" fill="white"/>
<path d="M285.005 142.58C296.338 136.84 317.164 135.632 331.617 139.571C339.402 141.689 347.112 143.788 354.766 145.887C368.606 149.659 372.824 157.406 363.98 163.425C358.946 166.843 353.781 170.354 348.449 173.959C338.268 180.87 316.328 183.564 299.905 179.551C290.82 177.321 281.642 175.073 272.372 172.807C255.132 168.571 252.048 159.356 265.127 152.705C271.945 149.231 278.577 145.887 285.024 142.617L285.005 142.58Z" fill="white"/>
<path d="M617.385 190.14C619.336 185.05 628.105 183.192 636.855 185.793C641.592 187.205 646.293 188.617 650.956 190.01C659.446 192.537 665.502 198.686 664.499 203.869C663.923 206.786 663.347 209.74 662.753 212.787C661.619 218.509 653.055 221.258 643.617 218.657C638.415 217.208 633.176 215.778 627.9 214.31C618.128 211.598 611.867 204.575 614.022 198.928C615.156 195.937 616.27 193.02 617.367 190.159L617.385 190.14Z" fill="white"/>
<path d="M557.971 172.826C561.166 167.884 571.514 166.305 580.952 169.11C586.061 170.633 591.133 172.138 596.167 173.643C605.308 176.374 611.03 182.579 608.93 187.669C607.741 190.53 606.534 193.429 605.289 196.42C602.93 202.049 592.675 204.538 582.401 201.696C576.753 200.135 571.05 198.556 565.309 196.958C554.682 194.005 548.886 186.889 552.434 181.371C554.311 178.455 556.15 175.612 557.952 172.826H557.971Z" fill="white"/>
<path d="M493.527 154.062C498.19 149.287 510.321 148.061 520.558 151.108C526.076 152.761 531.575 154.396 537.018 156.012C546.902 158.966 552.215 165.227 548.834 170.169C546.92 172.937 544.969 175.779 542.982 178.678C539.192 184.177 526.949 186.332 515.765 183.248C509.597 181.539 503.373 179.811 497.112 178.083C485.482 174.869 480.299 167.661 485.482 162.31C488.232 159.486 490.907 156.737 493.527 154.043V154.062Z" fill="white"/>
<path d="M423.335 133.626C429.707 129.093 443.901 128.257 455.029 131.582C461.03 133.366 466.993 135.149 472.901 136.914C483.639 140.109 488.451 146.426 483.565 151.182C480.816 153.857 477.992 156.588 475.112 159.393C469.632 164.707 455.085 166.49 442.842 163.109C436.08 161.233 429.261 159.356 422.388 157.443C409.643 153.913 405.166 146.63 412.318 141.521C416.09 138.828 419.749 136.208 423.354 133.644L423.335 133.626Z" fill="white"/>
<path d="M346.665 111.276C355.044 107.041 371.652 106.706 383.765 110.31C390.305 112.261 396.789 114.193 403.235 116.107C414.921 119.599 419.119 125.935 412.487 130.449C408.753 132.994 404.907 135.595 400.969 138.252C393.5 143.324 376.26 144.643 362.772 140.908C355.341 138.846 347.835 136.766 340.255 134.666C326.21 130.765 322.625 123.445 332.081 118.633C337.06 116.107 341.909 113.654 346.628 111.239L346.665 111.276Z" fill="white"/>
<path d="M628.322 161.474C629.883 157.406 637.556 156.235 645.358 158.725C649.576 160.062 653.774 161.419 657.954 162.738C665.534 165.153 671.033 170.429 670.234 174.609C669.77 176.95 669.305 179.328 668.841 181.743C667.949 186.295 660.444 188.115 652.102 185.607C647.513 184.214 642.887 182.821 638.243 181.427C629.641 178.826 623.975 172.918 625.666 168.441C626.576 166.082 627.449 163.759 628.322 161.474Z" fill="white"/>
<path d="M575.874 145.051C578.419 141.131 587.318 140.221 595.678 142.878C600.192 144.327 604.688 145.757 609.165 147.169C617.284 149.77 622.505 155.065 620.833 159.115C619.885 161.381 618.919 163.704 617.934 166.063C616.077 170.503 607.252 172.082 598.279 169.37C593.337 167.884 588.358 166.379 583.342 164.874C574.071 162.069 568.758 156.105 571.526 151.777C572.994 149.491 574.443 147.243 575.874 145.033V145.051Z" fill="white"/>
<path d="M519.498 127.402C523.158 123.649 533.45 123.055 542.442 125.916C547.29 127.458 552.121 129 556.914 130.523C565.608 133.31 570.532 138.642 567.856 142.543C566.352 144.735 564.81 146.965 563.249 149.25C560.277 153.541 549.947 154.805 540.249 151.888C534.899 150.272 529.53 148.655 524.105 147.02C514.073 143.992 509.205 137.991 513.237 133.849C515.373 131.656 517.473 129.52 519.516 127.402H519.498Z" fill="white"/>
<path d="M458.706 108.359C463.667 104.83 475.557 104.588 485.217 107.672C490.438 109.344 495.621 110.997 500.767 112.632C510.13 115.623 514.663 120.974 510.836 124.69C508.681 126.77 506.489 128.907 504.26 131.08C500.024 135.186 487.948 136.115 477.433 132.957C471.637 131.21 465.822 129.446 459.951 127.681C449.083 124.392 444.717 118.373 450.198 114.453C453.096 112.372 455.938 110.366 458.706 108.378V108.359Z" fill="white"/>
<path d="M392.996 87.7566C399.443 84.4868 413.135 84.6726 423.576 87.9795C429.205 89.7816 434.797 91.5651 440.352 93.33C450.44 96.544 454.527 101.913 449.381 105.406C446.483 107.375 443.529 109.381 440.5 111.425C434.778 115.289 420.715 115.809 409.289 112.373C402.991 110.478 396.656 108.564 390.265 106.632C378.431 103.065 374.716 97.027 381.887 93.3671C385.677 91.4536 389.374 89.5586 392.996 87.7194V87.7566Z" fill="white"/>
<path d="M637.128 138.363C638.409 135.038 645.228 134.35 652.269 136.71C656.077 137.992 659.886 139.274 663.638 140.537C670.494 142.84 675.528 147.448 674.86 150.866C674.488 152.78 674.098 154.73 673.708 156.7C672.965 160.415 666.314 161.604 658.845 159.208C654.74 157.889 650.597 156.551 646.435 155.213C638.762 152.743 633.561 147.652 634.935 144.029C635.66 142.097 636.403 140.202 637.09 138.345L637.128 138.363Z" fill="white"/>
<path d="M590.216 122.813C592.279 119.636 600.081 119.172 607.587 121.68C611.637 123.036 615.687 124.392 619.681 125.749C626.982 128.201 631.794 132.808 630.419 136.134C629.639 137.992 628.859 139.868 628.06 141.782C626.555 145.386 618.827 146.333 610.838 143.769C606.454 142.357 602.032 140.927 597.573 139.496C589.362 136.858 584.457 131.749 586.687 128.257C587.876 126.417 589.046 124.597 590.198 122.813H590.216Z" fill="white"/>
<path d="M540.119 106.223C543.073 103.213 552.009 103.028 559.998 105.703C564.326 107.152 568.618 108.601 572.891 110.032C580.657 112.651 585.227 117.277 583.053 120.435C581.846 122.2 580.601 124.002 579.338 125.841C576.96 129.278 568.023 129.966 559.478 127.216C554.777 125.711 550.04 124.188 545.265 122.646C536.459 119.804 531.889 114.676 535.103 111.369C536.812 109.623 538.484 107.895 540.138 106.204L540.119 106.223Z" fill="white"/>
<path d="M486.556 88.4811C490.514 85.6572 500.694 85.7873 509.24 88.6483C513.848 90.1903 518.455 91.7322 523.007 93.2742C531.292 96.0609 535.565 100.687 532.5 103.697C530.772 105.369 529.026 107.078 527.224 108.824C523.843 112.094 513.569 112.465 504.373 109.511C499.32 107.877 494.229 106.242 489.102 104.607C479.627 101.56 475.465 96.4325 479.794 93.33C482.098 91.6951 484.346 90.0788 486.556 88.4997V88.4811Z" fill="white"/>
<path d="M429.092 69.4385C434.201 66.8562 445.794 67.3392 454.934 70.4046C459.876 72.058 464.78 73.7115 469.666 75.3463C478.547 78.3374 482.448 82.9448 478.361 85.7501C476.057 87.3106 473.716 88.9083 471.32 90.5246C466.805 93.59 454.99 93.59 445.106 90.4317C439.663 88.6854 434.182 86.9205 428.665 85.137C418.447 81.8487 414.768 76.7211 420.36 73.8787C423.333 72.3739 426.268 70.8876 429.111 69.4385H429.092Z" fill="white"/>
<path d="M644.395 119.302C645.454 116.534 651.585 116.181 657.994 118.429C661.468 119.636 664.924 120.863 668.361 122.07C674.621 124.262 679.266 128.331 678.709 131.211C678.393 132.808 678.077 134.425 677.761 136.078C677.148 139.162 671.166 139.905 664.385 137.62C660.669 136.357 656.916 135.093 653.164 133.83C646.216 131.471 641.46 127.031 642.593 124.039C643.206 122.442 643.8 120.881 644.395 119.339V119.302Z" fill="white"/>
<path d="M601.947 104.607C603.656 101.969 610.604 101.82 617.385 104.198C621.064 105.48 624.724 106.762 628.365 108.044C634.997 110.366 639.438 114.435 638.304 117.203C637.673 118.745 637.023 120.306 636.354 121.885C635.109 124.857 628.254 125.377 621.064 122.944C617.107 121.606 613.131 120.268 609.137 118.912C601.761 116.423 597.21 111.945 599.049 109.103C600.034 107.58 601 106.093 601.947 104.607Z" fill="white"/>
<path d="M556.895 89.0012C559.328 86.5117 567.187 86.6232 574.377 89.1312C578.278 90.506 582.142 91.8436 586.007 93.1998C593.029 95.6707 597.265 99.7393 595.481 102.359C594.478 103.826 593.456 105.313 592.416 106.818C590.465 109.641 582.625 109.939 574.971 107.356C570.773 105.926 566.537 104.495 562.282 103.065C554.424 100.408 550.132 95.9494 552.77 93.237C554.164 91.8065 555.539 90.3945 556.895 89.0012Z" fill="white"/>
<path d="M509.016 72.4298C512.249 70.1261 521.129 70.4976 528.765 73.1729C532.907 74.622 537.013 76.0711 541.1 77.5016C548.55 80.1211 552.563 84.1897 550.036 86.642C548.624 88.0167 547.175 89.4101 545.708 90.8406C542.958 93.5159 534.022 93.5159 525.866 90.7663C521.37 89.2429 516.875 87.7195 512.323 86.1961C503.926 83.3537 499.969 78.9135 503.48 76.3869C505.356 75.0493 507.195 73.7488 508.997 72.4483L509.016 72.4298Z" fill="white"/>
<path d="M458.017 54.762C462.16 52.6627 472.173 53.3501 480.292 56.1925C484.695 57.7345 489.061 59.2579 493.427 60.7813C501.341 63.5495 505.075 67.6181 501.731 69.9032C499.855 71.1665 497.941 72.4669 495.99 73.786C492.331 76.2569 482.187 75.9596 473.474 73.0243C468.681 71.408 463.85 69.7731 459.002 68.1382C450.028 65.11 446.424 60.6699 450.939 58.3662C453.335 57.14 455.695 55.951 458.017 54.7806V54.762Z" fill="white"/>
<path d="M650.489 103.344C651.381 101.003 656.954 100.891 662.843 103.028C666.039 104.18 669.216 105.331 672.374 106.483C678.133 108.564 682.425 112.205 681.96 114.658C681.7 116.014 681.421 117.389 681.161 118.782C680.641 121.383 675.198 121.81 669.011 119.637C665.611 118.448 662.193 117.24 658.775 116.032C652.44 113.803 648.018 109.864 648.984 107.338C649.504 106 650.006 104.663 650.508 103.362L650.489 103.344Z" fill="white"/>
<path d="M611.736 89.4285C613.185 87.2177 619.428 87.2921 625.633 89.54C628.995 90.7662 632.339 91.9737 635.665 93.1813C641.721 95.3735 645.883 99.0148 644.917 101.356C644.378 102.656 643.821 103.957 643.282 105.294C642.241 107.784 636.074 108.007 629.534 105.722C625.949 104.458 622.344 103.195 618.703 101.913C612.015 99.5536 607.779 95.615 609.303 93.2185C610.12 91.9366 610.937 90.6919 611.736 89.4471V89.4285Z" fill="white"/>
<path d="M570.807 74.7332C572.832 72.6525 579.854 72.9498 586.394 75.3092C589.942 76.5911 593.472 77.8729 596.983 79.1362C603.374 81.4585 607.35 85.0998 605.845 87.292C604.99 88.5182 604.136 89.7629 603.281 91.0262C601.646 93.3856 594.68 93.4042 587.75 90.9705C583.941 89.6329 580.133 88.2767 576.287 86.939C569.19 84.4496 565.196 80.511 567.37 78.2631C568.522 77.0741 569.673 75.8851 570.807 74.7332Z" fill="white"/>
<path d="M527.523 59.2021C530.216 57.2886 538.075 57.8088 544.986 60.3168C548.739 61.673 552.454 63.0292 556.17 64.3668C562.932 66.8191 566.704 70.4418 564.586 72.504C563.397 73.6558 562.208 74.8263 560.982 75.9967C558.697 78.2075 550.82 77.9845 543.481 75.4022C539.45 73.9903 535.4 72.5597 531.331 71.1292C523.807 68.4726 520.036 64.5526 522.934 62.4719C524.494 61.3572 525.999 60.2796 527.504 59.2021H527.523Z" fill="white"/>
<path d="M481.691 42.7419C485.128 41.0141 493.897 41.813 501.217 44.4511C505.174 45.8816 509.131 47.3121 513.051 48.7426C520.185 51.3249 523.752 54.9477 520.965 56.8426C519.405 57.9016 517.826 58.9791 516.209 60.0752C513.181 62.1188 504.338 61.6172 496.535 58.8862C492.262 57.3814 487.952 55.858 483.623 54.3346C475.635 51.5107 472.142 47.6093 475.858 45.7144C477.846 44.7112 479.796 43.7265 481.691 42.7419Z" fill="white"/>
<path d="M620.02 76.5724C621.246 74.6775 626.931 74.919 632.634 77.0369C635.737 78.1887 638.821 79.3406 641.886 80.4738C647.478 82.5546 651.361 85.8429 650.543 87.8493C650.079 88.964 649.614 90.0787 649.131 91.2119C648.24 93.3298 642.648 93.3484 636.647 91.1562C633.359 89.9672 630.052 88.7596 626.726 87.5521C620.595 85.3227 616.638 81.7929 617.939 79.7678C618.626 78.6903 619.332 77.6128 620.001 76.5724H620.02Z" fill="white"/>
<path d="M582.532 62.7133C584.26 60.9484 590.576 61.3757 596.577 63.6051C599.828 64.8127 603.061 66.0202 606.293 67.2278C612.164 69.42 615.898 72.6898 614.616 74.5847C613.892 75.6251 613.167 76.684 612.424 77.7616C611.031 79.768 604.77 79.5822 598.435 77.2785C594.961 76.0152 591.486 74.7519 587.975 73.47C581.529 71.1106 577.739 67.5994 579.578 65.7044C580.562 64.6826 581.547 63.698 582.495 62.7133H582.532Z" fill="white"/>
<path d="M543.051 48.1109C545.336 46.4946 552.358 47.1263 558.675 49.4671C562.093 50.749 565.512 52.0123 568.893 53.2756C575.061 55.5793 578.646 58.849 576.844 60.5954C575.841 61.5614 574.819 62.5461 573.797 63.5493C571.865 65.4257 564.843 65.017 558.173 62.6018C554.513 61.2642 550.835 59.9266 547.138 58.589C540.32 56.0995 536.734 52.6068 539.186 50.8419C540.487 49.913 541.787 48.9841 543.051 48.0923V48.1109Z" fill="white"/>
<path d="M501.44 32.7284C504.339 31.2607 512.123 32.1339 518.774 34.6048C522.378 35.9424 525.963 37.28 529.53 38.6176C536.033 41.0328 539.433 44.2839 537.055 45.9002C535.735 46.792 534.398 47.7023 533.042 48.6126C530.496 50.3218 522.657 49.6902 515.615 47.145C511.751 45.733 507.868 44.3211 503.948 42.9092C496.74 40.2897 493.396 36.797 496.499 35.2178C498.152 34.3818 499.787 33.5458 501.403 32.7284H501.44Z" fill="white"/>
<path d="M627.119 65.5557C628.178 63.9208 633.38 64.2738 638.674 66.2988C641.554 67.3949 644.415 68.491 647.257 69.5686C652.441 71.5564 656.082 74.5475 655.376 76.2753C654.986 77.2227 654.577 78.2074 654.168 79.1734C653.407 81.0127 648.279 80.8455 642.743 78.7833C639.715 77.65 636.649 76.5168 633.603 75.3649C627.955 73.247 624.239 70.0516 625.354 68.3238C625.948 67.3949 626.543 66.466 627.137 65.5557H627.119Z" fill="white"/>
<path d="M592.523 52.4397C594.009 50.9163 599.75 51.4365 605.305 53.5544C608.314 54.7062 611.305 55.8395 614.278 56.9727C619.703 59.0535 623.232 62.026 622.118 63.6608C621.505 64.5526 620.873 65.4629 620.241 66.3918C619.052 68.1196 613.349 67.7852 607.534 65.6115C604.357 64.4225 601.143 63.215 597.929 62.026C592.003 59.8152 588.436 56.6198 590.015 55.0035C590.869 54.1303 591.705 53.2943 592.523 52.4397Z" fill="white"/>
<path d="M556.258 38.6731C558.208 37.2798 564.562 37.9857 570.377 40.2151C573.535 41.4227 576.656 42.6117 579.777 43.8007C585.462 45.9743 588.844 48.9468 587.302 50.4516C586.447 51.2876 585.555 52.1237 584.682 52.9968C583.029 54.5945 576.693 54.0929 570.6 51.8078C567.256 50.5631 563.893 49.2998 560.512 48.0365C554.27 45.6956 550.889 42.5374 552.969 41.0511C554.084 40.2523 555.18 39.472 556.276 38.6917L556.258 38.6731Z" fill="white"/>
<path d="M518.154 24.2383C520.625 22.9935 527.61 23.9039 533.722 26.2261C537.029 27.4894 540.317 28.7527 543.587 29.9975C549.551 32.2826 552.783 35.2179 550.758 36.6113C549.625 37.373 548.492 38.1532 547.34 38.9335C545.185 40.4012 538.162 39.6766 531.734 37.2801C528.205 35.961 524.675 34.642 521.108 33.3044C514.55 30.8521 511.336 27.7124 513.974 26.3562C515.386 25.6316 516.779 24.9257 518.154 24.2383Z" fill="white"/>
<path d="M633.268 56.0065C634.197 54.576 638.99 55.0219 643.913 56.9355C646.588 57.9758 649.245 59.0162 651.902 60.0566C656.751 61.9515 660.169 64.6825 659.556 66.1873C659.203 67.0233 658.85 67.8779 658.497 68.7325C657.828 70.3302 653.109 70.0516 647.963 68.0823C645.139 67.0048 642.316 65.9272 639.473 64.8311C634.234 62.8247 630.741 59.9079 631.707 58.4031C632.228 57.5857 632.748 56.7868 633.249 56.0065H633.268Z" fill="white"/>
<path d="M601.181 43.5593C602.482 42.2402 607.739 42.8347 612.885 44.8226C615.672 45.9187 618.459 46.9962 621.227 48.0737C626.28 50.043 629.606 52.774 628.64 54.1859C628.101 54.9662 627.562 55.765 627.005 56.5639C625.964 58.0501 620.744 57.6414 615.375 55.5793C612.421 54.446 609.467 53.3127 606.495 52.1795C601.014 50.0802 597.651 47.182 599.008 45.77C599.732 45.0269 600.457 44.2838 601.181 43.5407V43.5593Z" fill="white"/>
<path d="M567.634 30.5734C569.324 29.3658 575.121 30.1275 580.49 32.2083C583.407 33.3415 586.305 34.4748 589.203 35.608C594.479 37.6702 597.693 40.3826 596.337 41.6831C595.594 42.4076 594.832 43.1507 594.07 43.8753C592.64 45.2686 586.881 44.6741 581.252 42.5191C578.168 41.3301 575.065 40.1411 571.944 38.9521C566.203 36.7599 562.971 33.8803 564.773 32.5798C565.739 31.8924 566.686 31.2236 567.634 30.5362V30.5734Z" fill="white"/>
<path d="M532.501 16.9556C534.637 15.878 540.972 16.8069 546.601 18.9992C549.648 20.1881 552.695 21.3771 555.723 22.5476C561.241 24.7026 564.306 27.3964 562.56 28.5854C561.594 29.2542 560.609 29.9231 559.606 30.5919C557.748 31.8552 551.395 31.0749 545.487 28.827C542.254 27.5822 539.003 26.3375 535.733 25.0928C529.714 22.7891 526.649 19.9281 528.915 18.7762C530.123 18.1631 531.33 17.5501 532.519 16.9556H532.501Z" fill="white"/>
<path d="M638.653 47.6466C639.47 46.4019 643.911 46.8849 648.518 48.7241C651.026 49.7087 653.516 50.712 656.005 51.6966C660.538 53.4987 663.789 56.0253 663.232 57.3629C662.916 58.106 662.619 58.8492 662.303 59.5923C661.708 60.9856 657.343 60.6327 652.531 58.7563C649.893 57.7345 647.255 56.6941 644.617 55.6537C639.731 53.7402 636.442 51.0835 637.278 49.7459C637.743 49.0399 638.189 48.334 638.634 47.628L638.653 47.6466Z" fill="white"/>
<path d="M608.725 35.831C609.859 34.6791 614.726 35.3108 619.519 37.2057C622.12 38.2461 624.721 39.2679 627.322 40.2897C632.041 42.1661 635.199 44.6741 634.345 45.9188C633.88 46.6062 633.397 47.3122 632.914 47.9996C632.004 49.3001 627.192 48.817 622.194 46.8663C619.445 45.7888 616.695 44.7298 613.927 43.6337C608.837 41.6459 605.641 38.9892 606.83 37.7631C607.462 37.0943 608.112 36.4626 608.725 35.8124V35.831Z" fill="white"/>
<path d="M577.515 23.4951C579.001 22.4361 584.296 23.2164 589.312 25.2043C592.025 26.2818 594.737 27.3593 597.431 28.4183C602.354 30.369 605.401 32.877 604.212 34.0288C603.562 34.6605 602.893 35.3107 602.224 35.961C600.961 37.1685 595.684 36.5183 590.464 34.4933C587.603 33.3786 584.723 32.2453 581.844 31.1307C576.53 29.0499 573.447 26.4118 575.007 25.2971C575.843 24.7026 576.679 24.1081 577.497 23.5136L577.515 23.4951Z" fill="white"/>
<path d="M544.947 10.6392C546.805 9.69172 552.601 10.6392 557.822 12.7199C560.646 13.8532 563.47 14.9679 566.293 16.0826C571.421 18.1262 574.356 20.597 572.833 21.656C571.978 22.2319 571.124 22.8078 570.251 23.4023C568.634 24.4984 562.838 23.681 557.376 21.5631C554.385 20.3927 551.375 19.2223 548.366 18.0333C542.811 15.8596 539.875 13.2401 541.826 12.2369C542.867 11.6982 543.925 11.1594 544.947 10.6578V10.6392Z" fill="white"/>
<path d="M643.411 40.2526C644.136 39.1379 648.279 39.6767 652.608 41.423C654.967 42.3705 657.308 43.318 659.649 44.2655C663.922 45.9747 666.987 48.3341 666.504 49.5231C666.225 50.1733 665.965 50.8421 665.668 51.5109C665.148 52.7557 661.06 52.3284 656.565 50.5449C654.094 49.5602 651.623 48.5756 649.152 47.591C644.582 45.7703 641.442 43.2994 642.204 42.129C642.613 41.4973 643.021 40.8843 643.411 40.2712V40.2526Z" fill="white"/>
<path d="M615.356 29.0127C616.359 27.9909 620.874 28.6597 625.37 30.4618C627.822 31.4464 630.256 32.431 632.671 33.4157C637.093 35.1992 640.102 37.54 639.341 38.6361C638.913 39.2492 638.486 39.8623 638.059 40.4753C637.26 41.6272 632.801 41.0884 628.119 39.2306C625.556 38.2088 622.992 37.187 620.409 36.1652C615.654 34.2703 612.625 31.818 613.666 30.7404C614.223 30.1645 614.799 29.5886 615.338 29.0127H615.356Z" fill="white"/>
<path d="M586.192 17.3085C587.492 16.3796 592.397 17.1784 597.078 19.0734C599.623 20.0952 602.15 21.117 604.677 22.1388C609.284 23.9966 612.182 26.3188 611.142 27.3221C610.566 27.8794 609.971 28.4553 609.396 29.0312C608.299 30.0902 603.413 29.4214 598.546 27.4707C595.871 26.4117 593.195 25.3342 590.502 24.2753C585.541 22.306 582.625 19.8723 583.981 18.8876C584.724 18.3674 585.448 17.8473 586.173 17.3271L586.192 17.3085Z" fill="white"/>
<path d="M555.833 5.12131C557.467 4.2853 562.781 5.23278 567.667 7.20205C570.305 8.261 572.943 9.31995 575.563 10.3789C580.356 12.311 583.161 14.6147 581.805 15.525C581.062 16.0266 580.3 16.5468 579.538 17.067C578.108 18.0331 572.794 17.1971 567.723 15.1906C564.936 14.0759 562.149 12.9798 559.344 11.8651C554.179 9.80298 551.374 7.38783 553.083 6.51466C554.012 6.05021 554.922 5.56718 555.833 5.12131Z" fill="white"/>
<path d="M647.644 33.6942C648.294 32.691 652.158 33.2669 656.245 34.9389C658.475 35.8493 660.685 36.7596 662.896 37.6513C666.928 39.3048 669.844 41.4784 669.417 42.5374C669.176 43.1319 668.934 43.7078 668.674 44.3023C668.21 45.3984 664.383 44.9339 660.165 43.2247C657.843 42.2958 655.521 41.3484 653.18 40.4009C648.888 38.6545 645.897 36.3694 646.566 35.3291C646.919 34.7717 647.291 34.2144 647.644 33.657V33.6942Z" fill="white"/>
<path d="M621.246 22.9564C622.137 22.0461 626.336 22.7335 630.59 24.4613C632.894 25.4087 635.179 26.3376 637.483 27.2665C641.663 28.9757 644.505 31.1494 643.837 32.134C643.465 32.6728 643.093 33.2301 642.703 33.7689C641.997 34.7907 637.836 34.2147 633.433 32.4498C631.036 31.4838 628.603 30.4991 626.187 29.5145C621.729 27.7124 618.83 25.4273 619.759 24.4798C620.261 23.9596 620.763 23.458 621.246 22.9378V22.9564Z" fill="white"/>
<path d="M593.86 11.8093C595.031 10.9919 599.564 11.8093 603.967 13.5928C606.345 14.5775 608.723 15.5435 611.101 16.5096C615.429 18.2745 618.198 20.4481 617.269 21.3399C616.749 21.8415 616.228 22.3431 615.708 22.8447C614.724 23.7922 610.209 23.0862 605.639 21.247C603.131 20.2438 600.623 19.222 598.115 18.2002C593.47 16.3238 590.683 14.0573 591.891 13.1841C592.541 12.7197 593.192 12.2552 593.842 11.7908L593.86 11.8093Z" fill="white"/>
<path d="M565.442 0.25385C566.891 -0.489273 571.814 0.458208 576.366 2.31602C578.836 3.33781 581.307 4.34102 583.778 5.34424C588.274 7.18347 590.949 9.31995 589.76 10.1374C589.092 10.5833 588.423 11.0477 587.754 11.5122C586.491 12.3667 581.586 11.5122 576.83 9.6172C574.229 8.55824 571.628 7.51787 569.009 6.45892C564.178 4.50823 561.485 2.26028 563.008 1.49858C563.825 1.08986 564.643 0.662567 565.442 0.272428V0.25385Z" fill="white"/>
</g>
</svg>
