<svg width="110" height="147" viewBox="0 0 110 147" fill="none" xmlns="http://www.w3.org/2000/svg">
<g opacity="0.2">
<path d="M56.3743 88.4036C52.5698 87.1803 48.6847 86.2123 44.6651 85.5267C40.6455 84.8411 36.4781 84.4244 32.4182 84.5857C24.3253 84.8814 16.6894 87.6373 13.2345 96.1201C9.71229 99.1449 7.83021 102.68 7.42691 106.552C7.03705 110.424 8.12597 114.632 10.5996 118.907C13.0597 123.155 16.9717 127.457 21.9996 131.221C27.0139 134.985 33.171 138.171 39.5969 140.241C45.7809 142.244 52.5429 143.212 59.2915 143.185C66.0401 143.159 72.6811 142.137 78.8248 140.376C81.9033 139.488 84.8608 138.44 87.684 137.23C88.3965 136.921 89.0955 136.612 89.7811 136.302L90.3054 136.06C90.4398 135.98 90.4802 135.886 90.5877 135.792C90.7625 135.617 90.9373 135.442 91.1389 135.281C91.9993 134.609 93.263 134.03 94.567 133.439C97.2153 132.269 100.186 131.059 102.888 129.473C105.631 127.873 107.809 125.884 109.301 123.397C107.217 123.155 105.174 122.039 103.44 120.668C101.665 119.27 100.025 117.576 98.1429 115.761C97.1884 114.86 96.1667 113.906 94.9434 112.965C94.3384 112.494 93.5856 112.01 92.8462 111.567C92.4026 111.338 92.1875 111.123 91.9186 110.908L91.1255 110.263L84.6458 105.073C80.2498 101.632 75.7597 98.2845 71.1486 95.4076C66.5106 92.5307 61.7516 90.1109 56.3877 88.3902L56.3743 88.4036Z" fill="#5A9403"/>
<path style="mix-blend-mode:overlay" opacity="0.2" d="M56.3743 88.4036C52.5698 87.1803 48.6847 86.2123 44.6651 85.5267C40.6455 84.8411 36.4781 84.4244 32.4182 84.5857C24.3253 84.8814 16.6894 87.6373 13.2345 96.1201C9.71229 99.1449 7.83021 102.68 7.42691 106.552C7.03705 110.424 8.12597 114.632 10.5996 118.907C13.0597 123.155 16.9717 127.457 21.9996 131.221C27.0139 134.985 33.171 138.171 39.5969 140.241C45.7809 142.244 52.5429 143.212 59.2915 143.185C66.0401 143.159 72.6811 142.137 78.8248 140.376C81.9033 139.488 84.8608 138.44 87.684 137.23C88.3965 136.921 89.0955 136.612 89.7811 136.302L90.3054 136.06C90.4398 135.98 90.4802 135.886 90.5877 135.792C90.7625 135.617 90.9373 135.442 91.1389 135.281C91.9993 134.609 93.263 134.03 94.567 133.439C97.2153 132.269 100.186 131.059 102.888 129.473C105.631 127.873 107.809 125.884 109.301 123.397C107.217 123.155 105.174 122.039 103.44 120.668C101.665 119.27 100.025 117.576 98.1429 115.761C97.1884 114.86 96.1667 113.906 94.9434 112.965C94.3384 112.494 93.5856 112.01 92.8462 111.567C92.4026 111.338 92.1875 111.123 91.9186 110.908L91.1255 110.263L84.6458 105.073C80.2498 101.632 75.7597 98.2845 71.1486 95.4076C66.5106 92.5307 61.7516 90.1109 56.3877 88.3902L56.3743 88.4036Z" fill="url(#paint0_linear_1_10765)"/>
<path d="M-4.35029 86.3064C-3.70501 85.473 -2.65643 85.1906 -1.63473 85.5805C4.02494 87.718 8.81079 91.4015 13.5429 94.8027L13.6235 94.8699C15.2636 94.3321 17.2398 94.2918 18.9874 94.238L20.2242 94.1708C22.5499 94.0095 25.5747 93.7406 28.586 93.176C28.8683 93.1222 29.1372 93.2298 29.2985 93.4718C29.4464 93.7003 29.4598 94.0095 29.2985 94.2649C29.191 94.4262 29.0296 94.5472 28.8414 94.601C27.5105 94.9237 26.1662 95.206 24.8084 95.4748C23.3969 95.7571 21.9853 96.026 20.5469 96.268C19.8209 96.4024 19.0412 96.5906 18.2212 96.7923C17.7775 96.8998 17.307 97.0074 16.8499 97.1149C17.5759 97.5989 18.2212 98.0156 18.8396 98.392L23.8539 101.497C26.1393 101.242 28.6263 101.686 31.0327 102.008C32.0947 102.156 33.0761 102.264 33.9903 102.304L35.7245 102.371C38.6417 102.452 41.6127 102.412 44.4223 101.955C45.5112 101.78 46.5867 101.551 47.6218 101.309C49.719 100.825 51.8027 100.234 53.9402 99.8843C54.599 99.7767 55.2711 99.6961 55.903 99.602C57.8254 99.3465 59.8016 99.0239 61.4282 97.9484C61.6433 97.8005 61.8987 97.814 62.1004 97.9753C62.302 98.1232 62.3692 98.4055 62.3155 98.6609C62.2751 98.8088 62.1676 98.9836 62.0601 99.0642C60.3796 100.314 58.3766 100.825 56.4407 101.282L54.9351 101.632C52.3405 102.25 49.8938 103.07 47.3664 103.756C46.506 103.984 45.6457 104.2 44.7584 104.401C40.7523 105.315 36.5579 105.477 32.9551 105.342C32.1619 105.329 31.315 105.315 30.4278 105.315H30.2261C31.5436 106.082 32.8745 106.821 34.2188 107.534C37.0822 109.066 40.1339 110.518 43.2124 111.741C47.9848 113.623 52.9185 115.29 57.3549 116.608C58.5244 116.46 59.694 116.487 60.8367 116.487C61.8181 116.487 62.8263 116.487 63.7943 116.352C66.1603 116.03 68.5129 115.425 70.7579 114.806L71.7393 114.524C74.7372 113.677 78.0443 112.629 81.2841 113.26C81.6471 113.328 81.8756 113.664 81.8487 114.013C81.8084 114.309 81.5933 114.551 81.2841 114.618C76.9822 115.425 72.8282 116.514 68.0424 117.925L67.3433 118.127C66.698 118.315 66.0124 118.517 65.2865 118.692C67.0341 119.095 68.9834 119.498 70.9461 119.848C76.2428 120.789 80.6388 121.232 84.7525 121.461C86.3254 121.542 87.952 121.716 89.5383 121.864C90.9365 122.012 92.3615 122.106 93.773 122.294C95.1846 122.469 96.5961 122.617 97.9674 122.617C98.1959 122.617 98.411 122.725 98.5589 122.886C98.7067 123.061 98.7739 123.276 98.7336 123.504C98.6798 123.827 98.3975 124.055 98.0615 124.082C96.6902 124.176 95.3459 124.109 94.0553 123.988C92.7379 123.867 91.6086 123.773 90.2508 123.693C89.1485 123.612 88.0058 123.545 86.8765 123.504C82.0504 123.356 77.0225 122.819 73.0164 122.254C67.9886 121.555 62.8935 120.56 58.0405 119.35C55.177 118.624 52.2598 117.818 49.3829 116.904L50.7138 117.764C52.2329 118.732 53.7789 119.686 55.3652 120.574C58.2421 122.214 61.1862 123.813 64.0766 125.292C64.6681 125.601 65.273 125.897 65.8914 126.18C67.9214 127.134 70.0185 128.075 71.8065 129.406C72.0082 129.567 72.1157 129.809 72.0888 130.051C72.0485 130.253 71.9409 130.428 71.7662 130.535C71.6049 130.629 71.3494 130.656 71.1747 130.616C69.0237 130.078 66.9803 129.083 65.031 128.088C64.0228 127.578 63.0011 127.04 61.9794 126.569C60.7023 125.964 59.4386 125.346 58.1884 124.714C56.481 123.854 54.7468 122.926 53.053 122.012C51.5877 121.232 50.1358 120.439 48.6973 119.633C47.2589 118.826 45.7935 117.979 44.3954 117.078L42.6075 115.976C41.169 115.089 39.7037 114.121 38.5072 112.938L38.4131 112.911C31.6242 109.994 24.9832 106.27 18.4363 102.761C17.1591 102.089 15.9223 101.35 14.7796 100.624L15.64 103.003C16.7693 106.095 18.0598 109.308 19.9016 112.198C21.8105 115.223 24.3648 118.019 27.0131 120.641C29.191 122.805 31.5704 124.997 33.8289 127.242C34.0709 127.484 34.1516 127.806 34.044 128.062C33.9499 128.304 33.7214 128.465 33.4256 128.505C33.1433 128.546 32.8476 128.465 32.619 128.29C26.8921 123.894 21.0846 118.396 16.9978 112.387C15.8686 110.76 14.9679 109.066 14.1344 107.426L12.7631 104.724L12.1716 103.608C11.1499 101.699 10.061 99.5347 9.91314 97.3972C5.61125 94.5069 1.44381 91.6838 -3.28826 89.963C-4.01421 89.6942 -4.5385 89.1833 -4.75359 88.5112C-4.98213 87.7718 -4.82081 86.9114 -4.32341 86.2795L-4.35029 86.3064Z" fill="#65A00E"/>
<path d="M33.2771 127.631C28.2896 122.644 22.845 118.073 19.3094 112.494C16.6476 108.286 15.1823 103.581 13.5422 99.1313C15.2226 100.22 16.9434 101.282 18.691 102.223C25.3052 105.759 31.8924 109.469 38.8427 112.44C40.5096 114.094 42.7278 115.317 44.7174 116.581C47.5136 118.355 50.4174 119.915 53.3346 121.488C56.2518 123.047 59.1959 124.62 62.2342 126.032C65.1783 127.403 68.1089 129.245 71.295 130.024C71.3891 130.051 71.4294 129.93 71.3622 129.876C69.1037 128.196 66.2537 127.12 63.7398 125.83C60.7823 124.311 57.8919 122.711 55.0151 121.098C52.1382 119.471 49.3957 117.697 46.6936 115.882C46.2634 115.586 45.8332 115.277 45.403 114.968C54.4101 118.046 63.6726 120.358 73.083 121.649C77.6672 122.281 82.2648 122.751 86.8759 122.899C88.7445 122.966 90.6804 123.128 92.4549 123.235C94.2294 123.383 96.0846 123.612 97.9801 123.477C98.1414 123.477 98.1145 123.235 97.9532 123.235C95.7485 123.235 93.5573 122.832 91.3929 122.644C89.1478 122.456 86.9162 122.173 84.7249 122.052C80.0735 121.824 75.4221 121.259 70.8245 120.439C67.9879 119.942 65.1783 119.323 62.3686 118.624C64.3044 118.396 66.2403 117.804 67.84 117.334C72.3839 115.989 76.5514 114.887 81.149 114.013C81.2297 114.013 81.2162 113.892 81.149 113.879C77.8016 113.22 74.3466 114.457 71.1337 115.344C68.7542 116.003 66.3613 116.621 63.8742 116.971C61.7099 117.28 59.4783 116.93 57.3273 117.24C52.4743 115.815 47.6884 114.161 42.9967 112.319C37.6865 110.222 32.6856 107.52 27.8325 104.616C29.6205 104.737 31.4085 104.683 32.9813 104.724C36.974 104.858 40.9129 104.657 44.6636 103.796C46.4113 103.393 48.1186 102.922 49.799 102.425C51.4794 101.941 53.1061 101.417 54.8537 101.027C57.2332 100.449 59.7606 100.045 61.7905 98.5533C61.8577 98.5129 61.7905 98.4188 61.7367 98.4592C59.4514 99.9648 56.6686 100.059 54.0337 100.476C50.8745 101.013 47.8094 102.022 44.5158 102.546C41.1146 103.097 37.5655 103.057 34.003 102.909C30.9379 102.788 26.9856 101.712 23.7592 102.129L18.5566 98.9028C17.4542 98.2172 16.3653 97.5047 15.2764 96.7518C17.0375 96.5367 18.8792 95.9318 20.4924 95.6495C23.3021 95.1655 26.058 94.6278 28.7601 93.996C28.908 93.9556 28.8542 93.7405 28.7063 93.7674C25.9639 94.2783 23.1542 94.5875 20.3042 94.7891C18.328 94.9235 15.5587 94.816 13.5691 95.5554C8.66224 92.0467 3.88984 88.3094 -1.8236 86.145C-4.00142 85.3115 -5.30544 88.5917 -3.11416 89.3983C1.80612 91.1728 6.14833 94.1573 10.5443 97.1148C10.5443 97.1955 10.5309 97.2627 10.5443 97.3568C10.6922 99.8035 12.171 102.304 13.3271 104.495C14.6714 107.049 15.8276 109.631 17.5349 112.104C21.5141 117.898 26.999 123.182 33.0485 127.86C33.2233 127.994 33.4787 127.793 33.3174 127.631H33.2771Z" fill="#77B519"/>
<path d="M-3.34305 87.0861C-3.15485 86.8441 -2.7381 86.4677 -2.03904 86.7366C3.44586 88.8068 8.15104 92.45 12.8428 95.8109L13.2058 96.0663C13.394 96.1873 13.6091 96.2142 13.7973 96.1469C15.0744 95.663 16.7548 95.5554 18.3277 95.5016L17.9109 95.5958C17.0102 95.8243 16.0558 96.0394 15.1551 96.1469C14.9803 96.1604 14.8324 96.2545 14.7383 96.3889C14.698 96.4561 14.6576 96.5233 14.6442 96.604C14.5904 96.8594 14.6845 97.1149 14.9131 97.2627C16.2305 98.1634 17.2522 98.8356 18.2201 99.4271L23.4093 102.654C23.5303 102.734 23.6916 102.775 23.826 102.748C25.977 102.452 28.464 102.896 30.8838 103.218C31.9593 103.366 32.981 103.487 33.9355 103.527L35.6831 103.581C38.6541 103.662 41.6789 103.621 44.5557 103.151L45.4968 102.99L44.5423 103.205C40.6303 104.105 36.5166 104.24 32.9675 104.119C32.1609 104.092 31.3006 104.092 30.3999 104.079C29.5529 104.079 28.6791 104.052 27.8322 103.998C27.5902 103.971 27.3751 104.105 27.2541 104.294C27.2272 104.334 27.2138 104.361 27.2003 104.415C27.1197 104.683 27.2407 104.979 27.4961 105.127C29.5126 106.324 31.556 107.493 33.6263 108.609C36.53 110.155 39.6086 111.634 42.7543 112.871C47.6074 114.793 52.6352 116.487 57.1388 117.818C57.2329 117.845 57.3404 117.845 57.4345 117.831H57.4748C58.5503 117.67 59.6661 117.697 60.8491 117.71C61.8843 117.71 62.9463 117.71 63.9814 117.562C64.6671 117.468 65.3527 117.347 66.0248 117.213C64.8418 117.535 63.5647 117.845 62.301 117.992C62.0322 118.019 61.8305 118.221 61.7633 118.463C61.7633 118.503 61.7498 118.517 61.7498 118.557C61.7498 118.718 61.8036 118.866 61.8977 118.987C60.7013 118.718 59.5048 118.436 58.3218 118.14C54.114 117.078 49.7987 115.815 45.6043 114.376C45.3086 114.269 44.9859 114.39 44.8381 114.658C44.8246 114.685 44.8112 114.712 44.7977 114.739C44.7171 114.981 44.7977 115.263 45.0263 115.438C45.4699 115.761 45.9001 116.07 46.3437 116.366C47.5536 117.186 48.777 117.979 50.0003 118.759C50.8338 119.296 51.6673 119.821 52.5277 120.332C51.4522 119.754 50.3767 119.162 49.3281 118.571C47.9031 117.777 46.4513 116.93 45.08 116.057L43.2786 114.941C41.8671 114.067 40.4421 113.126 39.3128 111.997C39.259 111.943 39.1918 111.889 39.1112 111.862L38.8961 111.768C32.1475 108.878 25.5468 105.181 18.9999 101.659C17.185 100.691 15.397 99.575 13.9048 98.6071C13.6628 98.4592 13.3805 98.4592 13.1654 98.6071C13.1251 98.6474 13.0713 98.7012 13.0444 98.7415C12.9369 98.9028 12.91 99.1045 12.9772 99.2927L14.4291 103.339C15.5852 106.485 16.8892 109.752 18.7713 112.75L18.852 112.884L18.0588 111.755C16.9699 110.195 16.123 108.609 15.276 106.929L13.8779 104.2L13.2864 103.07C12.2782 101.188 11.2699 99.212 11.1624 97.3031C11.1624 97.2762 11.1624 97.2358 11.1624 97.1955C11.2027 96.9535 11.0951 96.7116 10.8801 96.5637C6.41685 93.5524 2.08808 90.5948 -2.91286 88.78C-3.24895 88.6455 -3.47749 88.4439 -3.57159 88.1616C-3.67914 87.812 -3.57159 87.3684 -3.32961 87.0323L-3.34305 87.0861Z" fill="#87C923"/>
<path style="mix-blend-mode:screen" opacity="0.7" d="M8.93108 101.484C5.86599 107.547 7.39853 115.022 12.9641 122.375C15.7469 126.018 19.5514 129.608 24.149 132.727C28.7198 135.832 34.0837 138.44 39.6358 140.241C45.8197 142.244 52.5818 143.212 59.3303 143.186C66.0789 143.159 72.72 142.137 78.8636 140.376C81.9421 139.489 84.8997 138.44 87.7228 137.23C88.4353 136.921 89.1343 136.612 89.82 136.303L90.3443 136.061C90.4787 135.98 90.519 135.886 90.6266 135.792C90.8013 135.617 90.9761 135.442 91.1777 135.281C92.0381 134.609 93.3018 134.031 94.6058 133.439C97.2542 132.269 100.225 131.06 102.927 129.473C105.67 127.874 107.848 125.884 109.34 123.397C108.278 124.311 106.275 125.104 103.694 125.333C101.126 125.602 98.1145 125.4 95.2376 125.198L93.127 125.077C92.428 125.037 91.823 125.024 91.1374 125.05C89.6855 125.05 88.2471 125.05 86.8759 125.01C84.1468 124.943 81.727 124.782 79.966 124.58C76.4303 124.217 69.8296 122.725 66.5091 122.321C64.8421 122.133 63.9818 122.281 64.7212 123.088C65.4605 123.894 67.7997 125.4 72.6796 127.658C79.6568 130.818 79.7912 132.256 76.4169 132.377C73.0695 132.458 66.1058 131.019 59.5858 127.753C56.9912 126.462 54.2353 125.037 51.4391 123.531L47.2447 121.232C45.8332 120.453 44.4216 119.646 43.0504 118.84C37.5117 115.613 32.4436 112.252 28.1955 109.792C23.9608 107.332 21.2856 106.351 20.7344 107.655C20.479 108.3 20.7344 109.51 21.7426 111.338C22.7509 113.153 24.4716 115.6 27.241 118.624C33.0485 124.876 36.8664 128.72 37.5655 130.508C38.3318 132.269 35.9657 132.014 31.0186 128.989C25.8294 125.79 20.6403 120.869 16.7686 115.774C12.87 110.666 10.1813 105.45 8.97141 101.484H8.93108Z" fill="url(#paint1_radial_1_10765)"/>
<path style="mix-blend-mode:overlay" opacity="0.5" d="M56.3743 88.4036C52.5698 87.1803 48.6847 86.2123 44.6651 85.5267C40.6455 84.8411 36.4781 84.4244 32.4182 84.5857C24.3253 84.8814 16.6894 87.6373 13.2345 96.1201C9.71229 99.1449 7.83021 102.68 7.42691 106.552C7.03705 110.424 8.12597 114.632 10.5996 118.907C13.0597 123.155 16.9717 127.457 21.9996 131.221C27.0139 134.985 33.171 138.171 39.5969 140.241C45.7809 142.244 52.5429 143.212 59.2915 143.185C66.0401 143.159 72.6811 142.137 78.8248 140.376C81.9033 139.488 84.8608 138.44 87.684 137.23C88.3965 136.921 89.0955 136.612 89.7811 136.302L90.3054 136.06C90.4398 135.98 90.4802 135.886 90.5877 135.792C90.7625 135.617 90.9373 135.442 91.1389 135.281C91.9993 134.609 93.263 134.03 94.567 133.439C97.2153 132.269 100.186 131.059 102.888 129.473C105.631 127.873 107.809 125.884 109.301 123.397C107.217 123.155 105.174 122.039 103.44 120.668C101.665 119.27 100.025 117.576 98.1429 115.761C97.1884 114.86 96.1667 113.906 94.9434 112.965C94.3384 112.494 93.5856 112.01 92.8462 111.567C92.4026 111.338 92.1875 111.123 91.9186 110.908L91.1255 110.263L84.6458 105.073C80.2498 101.632 75.7597 98.2845 71.1486 95.4076C66.5106 92.5307 61.7516 90.1109 56.3877 88.3902L56.3743 88.4036Z" fill="url(#paint2_radial_1_10765)"/>
<path d="M37.2426 60.3607C34.9573 60.5489 32.5106 60.9522 29.8891 61.5975C27.2677 62.2428 24.4849 63.1166 21.9441 64.3937C19.4033 65.6709 17.1179 67.3378 15.5316 69.5291C13.9453 71.7204 13.0446 74.4225 13.1655 77.6892C11.8615 80.7543 11.7137 83.6312 12.4665 86.2527C13.2193 88.8607 14.8728 91.2402 17.3195 93.2836C19.7662 95.327 23.0733 97.0477 27.0526 98.177C31.0184 99.3197 35.7101 99.8171 40.4556 99.4272C42.2033 99.2793 44.0047 99.0105 45.8061 98.5803C47.6882 98.1366 49.1266 97.6527 50.928 96.9805C54.3561 95.6631 57.5959 93.8617 60.4728 91.7242C63.3497 89.5867 65.8905 87.1265 67.9877 84.4916C69.0497 83.1742 70.0042 81.8164 70.8511 80.4317C71.2813 79.7326 71.6712 79.0336 72.0476 78.3345L72.5853 77.2859C72.7198 76.9633 73.0424 76.5062 73.2709 76.1029C73.3516 75.9551 73.4323 75.8072 73.4995 75.6593C73.5667 75.5114 73.6339 75.377 73.6474 75.2829C73.6877 75.0678 73.7549 74.8258 73.8221 74.5973C73.9565 74.1268 74.1179 73.6428 74.2792 73.1454C74.6153 72.1506 74.9648 71.1154 75.2606 70.04C75.8655 67.889 76.0134 65.7784 75.5294 63.7485C74.2926 64.5551 72.6525 64.8508 71.0528 64.8643C70.2462 64.8911 69.3992 64.8643 68.4985 64.8239C68.0415 64.8239 67.5844 64.797 67.087 64.797H66.3476C66.1056 64.8239 65.9174 64.7702 65.7292 64.7298L65.3393 64.6357C65.2183 64.5954 65.0839 64.5551 64.9226 64.5551L63.9816 64.4341C63.3497 64.3534 62.7179 64.2593 62.086 64.1518C60.8089 63.9501 59.5452 63.7216 58.2816 63.4661C55.7408 62.9687 53.2403 62.4041 50.8205 61.8933C48.4141 61.369 46.0884 60.8985 43.8837 60.6027C43.3325 60.5355 42.7813 60.4548 42.2301 60.401C41.7327 60.3473 41.0202 60.3338 40.4691 60.3204C39.4339 60.2666 38.3719 60.2801 37.2561 60.3742L37.2426 60.3607Z" fill="#75AE10"/>
<path style="mix-blend-mode:overlay" opacity="0.2" d="M37.2426 60.3607C34.9573 60.5489 32.5106 60.9522 29.8891 61.5975C27.2677 62.2428 24.4849 63.1166 21.9441 64.3937C19.4033 65.6709 17.1179 67.3378 15.5316 69.5291C13.9453 71.7204 13.0446 74.4225 13.1655 77.6892C11.8615 80.7543 11.7137 83.6312 12.4665 86.2527C13.2193 88.8607 14.8728 91.2402 17.3195 93.2836C19.7662 95.327 23.0733 97.0477 27.0526 98.177C31.0184 99.3197 35.7101 99.8171 40.4556 99.4272C42.2033 99.2793 44.0047 99.0105 45.8061 98.5803C47.6882 98.1366 49.1266 97.6527 50.928 96.9805C54.3561 95.6631 57.5959 93.8617 60.4728 91.7242C63.3497 89.5867 65.8905 87.1265 67.9877 84.4916C69.0497 83.1742 70.0042 81.8164 70.8511 80.4317C71.2813 79.7326 71.6712 79.0336 72.0476 78.3345L72.5853 77.2859C72.7198 76.9633 73.0424 76.5062 73.2709 76.1029C73.3516 75.9551 73.4323 75.8072 73.4995 75.6593C73.5667 75.5114 73.6339 75.377 73.6474 75.2829C73.6877 75.0678 73.7549 74.8258 73.8221 74.5973C73.9565 74.1268 74.1179 73.6428 74.2792 73.1454C74.6153 72.1506 74.9648 71.1154 75.2606 70.04C75.8655 67.889 76.0134 65.7784 75.5294 63.7485C74.2926 64.5551 72.6525 64.8508 71.0528 64.8643C70.2462 64.8911 69.3992 64.8643 68.4985 64.8239C68.0415 64.8239 67.5844 64.797 67.087 64.797H66.3476C66.1056 64.8239 65.9174 64.7702 65.7292 64.7298L65.3393 64.6357C65.2183 64.5954 65.0839 64.5551 64.9226 64.5551L63.9816 64.4341C63.3497 64.3534 62.7179 64.2593 62.086 64.1518C60.8089 63.9501 59.5452 63.7216 58.2816 63.4661C55.7408 62.9687 53.2403 62.4041 50.8205 61.8933C48.4141 61.369 46.0884 60.8985 43.8837 60.6027C43.3325 60.5355 42.7813 60.4548 42.2301 60.401C41.7327 60.3473 41.0202 60.3338 40.4691 60.3204C39.4339 60.2666 38.3719 60.2801 37.2561 60.3742L37.2426 60.3607Z" fill="url(#paint3_linear_1_10765)"/>
<path d="M0.00392405 77.528C0.0980278 76.7752 0.595438 76.2106 1.32138 76.0762C5.26029 75.3368 9.21265 76.0761 12.9902 76.7618H13.0575C13.9044 75.9148 15.0874 75.2695 16.1494 74.7049L16.8888 74.2882C18.2735 73.4816 20.0749 72.4061 21.7957 71.1693C21.957 71.0618 22.1586 71.0483 22.3065 71.1693C22.4544 71.2769 22.5485 71.4785 22.5082 71.6936C22.4947 71.828 22.4141 71.9625 22.3065 72.0431C21.5671 72.6346 20.8009 73.2127 20.0346 73.7908L17.6282 75.5653C17.2115 75.8611 16.7947 76.224 16.3377 76.6139L15.5848 77.2323C16.1629 77.3264 16.6468 77.407 17.1308 77.4608C18.3004 77.6221 19.5237 77.7969 20.9756 78.012C22.3065 77.1919 23.9466 76.7618 25.506 76.3047C26.1917 76.1165 26.8235 75.9148 27.3881 75.6863L28.4636 75.2561C30.265 74.5167 32.0664 73.6832 33.6258 72.6212C34.2308 72.2179 34.8223 71.7608 35.3735 71.3172C36.4893 70.4434 37.5648 69.4754 38.6537 68.6688L39.635 67.9698C40.119 67.6203 40.5895 67.2573 41.0063 66.8405C41.2214 66.6254 41.4096 66.4104 41.5843 66.1684C41.7725 65.9129 41.9608 65.6441 42.1086 65.3618C42.1893 65.2139 42.3372 65.1332 42.4985 65.187C42.6598 65.2273 42.7808 65.3887 42.8077 65.5769C42.8346 65.6844 42.8077 65.8323 42.7808 65.9129C42.4716 66.5582 42.0548 67.1228 41.6515 67.6068C41.2482 68.0908 40.7912 68.521 40.3341 68.9377L39.6082 69.5696C38.3848 70.6719 37.1211 71.8818 35.8037 73.0245C35.3466 73.4144 34.8895 73.7908 34.4056 74.1672C32.2412 75.8611 29.7004 77.0844 27.4688 77.9986C26.9714 78.2002 26.4605 78.4422 25.9093 78.6842L25.7884 78.7379C26.7832 78.8724 27.778 79.0068 28.7728 79.1144C30.8968 79.3563 33.1016 79.5042 35.2794 79.4908C38.6402 79.4773 42.0414 79.2488 45.0393 78.7917C45.698 78.3615 46.3836 78.0254 47.0558 77.6894C47.6339 77.407 48.2254 77.0978 48.7362 76.7214C49.9999 75.7938 51.156 74.678 52.2046 73.5891L52.6617 73.1052C54.0464 71.6129 55.4714 69.8922 57.4072 69.22C57.6223 69.1394 57.8643 69.2738 57.9853 69.5023C58.0794 69.6905 58.039 69.9191 57.9046 70.0535C55.8881 72.0028 53.9791 74.0193 51.6803 76.4257L51.3442 76.7752C51.035 77.0978 50.6989 77.4474 50.336 77.77C51.4787 77.4877 52.7289 77.1382 53.9791 76.7349C57.34 75.6325 59.9883 74.3823 62.3275 73.0648C63.2282 72.554 64.1827 72.0566 65.0968 71.5726C66.3471 70.9004 67.6242 70.1611 68.7265 69.2872C69.0357 69.0049 69.3449 68.7226 69.6407 68.4134C69.7482 68.3059 69.8961 68.2521 70.0574 68.279C70.2053 68.2924 70.3532 68.3865 70.4338 68.521C70.5683 68.7226 70.5548 68.9646 70.407 69.1528C70.0709 69.5427 69.7482 69.8787 69.3584 70.2552C68.3367 71.1155 67.2881 71.7743 66.2126 72.4195C65.5808 72.796 64.9086 73.1724 64.2768 73.5622C61.5478 75.2561 58.4827 76.6542 55.9688 77.6221C52.823 78.8455 49.5025 79.7865 46.2357 80.4049C44.3268 80.7813 42.3372 81.0905 40.3341 81.2922L41.3827 81.4938C42.5657 81.7089 43.7891 81.8837 44.999 82.0047C47.1902 82.2467 49.4756 82.3945 51.6938 82.4483C52.1508 82.4483 52.6079 82.4483 53.0784 82.4483C54.611 82.408 56.1973 82.3273 57.7164 82.5559C57.8912 82.5828 58.039 82.7037 58.1063 82.8651C58.16 82.9995 58.1466 83.1474 58.0794 83.2818C58.0121 83.3893 57.8777 83.4969 57.7433 83.5372C56.2511 83.9405 54.6782 83.9674 53.1725 83.954C52.3928 83.954 51.5862 83.9271 50.8199 83.954C49.852 83.954 48.8841 83.954 47.9296 83.9002C46.6122 83.8599 45.335 83.7389 44.0176 83.6448C42.8883 83.5507 41.7725 83.4566 40.6567 83.3087C39.5409 83.1743 38.4251 82.9995 37.3362 82.7844L35.965 82.529C34.8626 82.3139 33.7334 82.0719 32.7117 81.6148H32.6445C27.778 81.4938 22.8442 80.8351 17.9912 80.499C17.0501 80.4318 16.1225 80.3243 15.2487 80.2167L16.378 81.4938C17.8433 83.1608 19.4027 84.8816 21.2042 86.2528C23.0862 87.6912 25.2909 88.8339 27.536 89.8556L33.357 92.4233C33.5721 92.5174 33.6931 92.7056 33.6931 92.9207C33.6931 93.1089 33.5855 93.2837 33.4108 93.3912C33.2494 93.4988 33.0478 93.5122 32.8461 93.4585C28.1678 92.0469 23.382 89.9901 19.4834 87.2476C18.4214 86.5082 17.4669 85.6747 16.5662 84.8547L15.074 83.5238L14.4421 82.9726C13.3532 82.0585 12.1433 81.0099 11.4846 79.679C8.16407 79.195 4.89732 78.832 1.71124 79.4908C1.22727 79.5849 0.7702 79.4639 0.447558 79.1278C0.0845868 78.7648 -0.0901752 78.1733 -0.0229582 77.5953L0.00392405 77.528Z" fill="#80BA1B"/>
<path d="M33.13 92.7592C28.7743 90.7695 24.3918 89.2101 20.9368 86.5483C18.3288 84.5453 16.2988 81.9238 14.1345 79.5578C15.4385 79.746 16.729 79.9207 18.0196 80.0014C22.9264 80.3375 27.8333 81.0097 32.7939 81.1172C34.2054 81.7759 35.8724 81.991 37.405 82.3002C39.5559 82.7304 41.7741 82.9858 44.0326 83.1472C46.2373 83.3085 48.5092 83.4832 50.808 83.4429C53.0396 83.416 55.4191 83.6311 57.6238 83.053C57.691 83.053 57.6776 82.9589 57.6238 82.9321C55.688 82.6363 53.6043 82.8783 51.6684 82.838C49.3965 82.7976 47.138 82.6363 44.9602 82.3943C42.742 82.1792 40.5507 81.7759 38.4536 81.292C38.1175 81.2247 37.7814 81.1172 37.4319 81.0365C43.7099 80.6736 49.9476 79.4368 55.809 77.1648C58.6724 76.0625 61.4552 74.7585 64.0498 73.1453C65.784 72.0698 67.5719 71.1825 69.1045 69.8516C69.454 69.5156 69.7632 69.1795 70.059 68.8165C70.1262 68.7358 70.0052 68.6283 69.938 68.7089C69.6288 69.0181 69.3061 69.3139 68.9566 69.6365C66.9939 71.1691 64.6547 72.2042 62.5307 73.4276C59.8689 74.9467 57.0189 76.1835 54.1017 77.1514C52.2868 77.7429 50.4585 78.2134 48.5899 78.6033C49.6653 77.8773 50.5929 76.896 51.3592 76.0894C53.537 73.8174 55.4594 71.774 57.5969 69.7038C57.6373 69.6634 57.5969 69.5962 57.5432 69.6231C55.5267 70.3222 54.0882 72.2042 52.5691 73.7906C51.4533 74.9601 50.2837 76.1028 48.9528 77.0842C47.7967 77.9311 46.3717 78.3882 45.1887 79.2082C41.8951 79.7191 38.5745 79.9073 35.2675 79.9342C31.5168 79.9611 27.8198 79.504 24.1498 78.9528C25.2656 78.5361 26.3545 77.9983 27.3224 77.595C29.796 76.5868 32.1621 75.3903 34.192 73.8174C36.0875 72.3387 37.7545 70.6986 39.3812 69.2198C39.9458 68.7089 40.5373 68.2115 41.0616 67.6469C41.3304 67.3646 41.5455 67.0689 41.7875 66.7462C42.0295 66.4101 42.2446 66.0606 42.4328 65.6707C42.4462 65.6304 42.3925 65.5766 42.3656 65.6304C42.1505 66.0337 41.8951 66.4101 41.6128 66.7328C41.3573 67.0554 41.0616 67.3377 40.7524 67.6066C40.134 68.1309 39.4484 68.5745 38.7896 69.0719C37.1764 70.2818 35.6036 71.774 33.7753 73.0108C31.8797 74.3014 29.7019 75.229 27.4837 76.1163C25.5882 76.8825 22.8861 77.2858 21.0175 78.4823C19.7 78.2806 18.3691 78.079 17.0382 77.9042C16.1913 77.7967 15.3444 77.6622 14.4974 77.5144C15.5057 76.8153 16.4602 75.8608 17.3743 75.2021C18.9606 74.046 20.5335 72.8898 22.0526 71.6799C22.1333 71.6127 22.0526 71.4917 21.9585 71.5455C20.3856 72.6747 18.7321 73.6964 17.0382 74.6913C15.8552 75.3769 14.1479 76.1566 13.1531 77.2589C9.25451 76.5464 5.28871 75.7802 1.33636 76.533C-0.155858 76.8153 0.153338 79.3292 1.61867 79.0066C4.93919 78.321 8.35381 78.7377 11.755 79.2217C11.755 79.2755 11.7819 79.3292 11.8088 79.383C12.5616 80.9021 14.0807 82.0448 15.3309 83.1203C16.7694 84.3705 18.1003 85.7014 19.7135 86.8306C23.4911 89.4655 28.0215 91.4955 32.9821 92.9877C33.13 93.0415 33.2241 92.8398 33.0896 92.7726L33.13 92.7592Z" fill="#90CF26"/>
<path d="M0.824219 77.6356C0.851106 77.4205 0.972098 77.0307 1.45606 76.9366C5.2471 76.2241 9.11879 76.9366 12.8426 77.6222L13.1249 77.6759C13.2594 77.7028 13.4072 77.6491 13.5013 77.5415C14.1466 76.829 15.128 76.2509 16.069 75.7267L15.8405 75.9149C15.3431 76.3451 14.8322 76.7618 14.3214 77.1248C14.2273 77.192 14.1601 77.2995 14.1332 77.4205C14.1332 77.4743 14.1332 77.5281 14.1332 77.5818C14.1735 77.7566 14.2945 77.891 14.4693 77.9179C15.5044 78.0927 16.2976 78.2271 17.0369 78.3212C18.2334 78.4826 19.4971 78.6573 21.0162 78.8993C21.1103 78.9127 21.2178 78.8993 21.2985 78.8321C22.5353 78.0255 24.1754 77.6087 25.7348 77.1517C26.4339 76.95 27.0926 76.7484 27.6841 76.5064L28.7596 76.0762C30.5879 75.3234 32.4162 74.4764 34.0294 73.3875L34.5402 73.0245L34.0294 73.4278C31.9053 75.0679 29.4183 76.2778 27.227 77.1651C26.7296 77.3667 26.2053 77.6087 25.6407 77.8642C25.1164 78.0927 24.5921 78.3212 24.0544 78.5229C23.9065 78.5767 23.7855 78.7245 23.7721 78.8858C23.7721 78.9262 23.7721 78.9531 23.7721 78.9934C23.7855 79.195 23.9334 79.3564 24.1216 79.3833C25.6542 79.6118 27.1733 79.8269 28.7058 79.9882C30.8568 80.2302 33.0884 80.3915 35.3065 80.3646C38.7211 80.3512 42.2299 80.1092 45.295 79.6387C45.3622 79.6387 45.4159 79.5983 45.4697 79.558H45.4832C46.0747 79.1278 46.7468 78.8186 47.4459 78.4691C48.0509 78.1734 48.6692 77.8507 49.2339 77.434C49.5968 77.1651 49.9598 76.8828 50.3093 76.587C49.7313 77.1651 49.086 77.7566 48.3869 78.2271C48.2391 78.3212 48.1718 78.5229 48.2122 78.6976C48.2122 78.7111 48.2122 78.738 48.2256 78.7514C48.2659 78.859 48.3466 78.9396 48.4407 78.9934C47.6475 79.1816 46.8678 79.3429 46.0747 79.5042C43.2784 80.0554 40.3209 80.4318 37.4037 80.5932C37.202 80.5932 37.0273 80.7814 37.0138 80.983C37.0138 81.0099 37.0138 81.0234 37.0138 81.0637C37.0138 81.2519 37.1483 81.4132 37.3365 81.467C37.686 81.5611 38.0355 81.6552 38.3716 81.7224C39.3261 81.9375 40.2806 82.1392 41.2485 82.3139C41.9072 82.4215 42.566 82.5425 43.2247 82.6231C42.4046 82.5559 41.5846 82.4752 40.7645 82.3677C39.6622 82.2333 38.5733 82.0585 37.5112 81.8568L36.1266 81.6014C35.0511 81.3998 33.9353 81.1443 32.9808 80.7142C32.927 80.6873 32.8733 80.6738 32.8195 80.6738H32.6716C27.8589 80.5663 22.9251 79.8941 18.0721 79.558C16.7277 79.4639 15.37 79.2892 14.2138 79.1144C14.0391 79.0875 13.8643 79.1816 13.7837 79.3564C13.7702 79.3967 13.7433 79.437 13.7433 79.4774C13.7164 79.6118 13.7568 79.7597 13.8509 79.8538C14.4961 80.5663 15.128 81.3057 15.7598 82.0182C17.252 83.712 18.8249 85.4731 20.6801 86.8847L20.7608 86.9519L20.0214 86.441C18.9997 85.7285 18.099 84.9488 17.1848 84.1153L15.6657 82.7575L15.0204 82.2064C13.9315 81.2922 12.8292 80.3243 12.2377 79.1413C12.2377 79.1278 12.2108 79.1009 12.2108 79.0606C12.1704 78.8993 12.036 78.7783 11.8747 78.7514C8.40629 78.2406 4.99167 77.8373 1.60394 78.5363C1.3754 78.5901 1.18719 78.5363 1.05276 78.4019C0.877995 78.2271 0.797335 77.9179 0.837665 77.6222L0.824219 77.6356Z" fill="#A1E330"/>
<path style="mix-blend-mode:screen" opacity="0.7" d="M12.0217 82.5288C11.847 87.4088 14.5222 91.6703 19.5097 94.8833C22.0102 96.4696 25.1156 97.7871 28.705 98.6071C32.2809 99.4406 36.3543 99.7767 40.4411 99.4272C42.1887 99.2793 43.9901 99.0104 45.7915 98.5802C47.6736 98.1366 49.112 97.6526 50.9135 96.9805C54.3415 95.663 57.5814 93.8616 60.4583 91.7241C63.3352 89.5866 65.8759 87.1265 67.9731 84.4916C69.0351 83.1741 69.9896 81.8163 70.8366 80.4317C71.2667 79.7326 71.6566 79.0335 72.033 78.3345L72.5708 77.2859C72.7052 76.9633 73.0278 76.5062 73.2564 76.1029C73.337 75.955 73.4177 75.8071 73.4849 75.6593C73.5521 75.5114 73.6193 75.3769 73.6328 75.2828C73.6731 75.0677 73.7403 74.8258 73.8076 74.5972C73.942 74.1267 74.1033 73.6428 74.2646 73.1453C74.6007 72.1505 74.9502 71.1154 75.246 70.0399C75.8509 67.889 75.9988 65.7784 75.5149 63.7484C75.4208 64.6626 74.8292 65.9262 73.7403 67.1765C73.2026 67.8083 72.5708 68.4402 71.8986 69.0586L69.8283 70.9272L68.5915 71.8817C68.1882 72.1909 67.7849 72.4866 67.3816 72.7689C66.5616 73.347 65.755 73.8982 64.9618 74.3956C63.3889 75.3904 61.8967 76.1835 60.7943 76.681C59.7189 77.1784 58.0922 77.7699 56.4656 78.3076C54.8524 78.8453 53.2392 79.3293 52.1906 79.7326C51.142 80.1359 50.6715 80.4989 51.3705 80.7946C52.0696 81.0769 53.9382 81.3324 57.6351 81.1173C60.2701 80.9425 61.7354 80.9828 62.3134 81.292C62.8915 81.5878 62.5554 82.139 61.5472 82.7708C59.571 84.0345 54.7717 85.5133 49.7304 85.4057C48.7356 85.3923 47.687 85.3519 46.6385 85.2982L45.079 85.1906L43.4524 85.0696C41.2745 84.8814 39.0967 84.6126 36.9861 84.2765C32.7514 83.6177 28.8528 82.7305 25.6668 82.2868C22.4807 81.8298 20.6389 81.9777 20.6255 82.9859C20.6255 83.4833 21.0826 84.1958 22.1177 85.11C23.1663 86.0241 24.7795 87.1534 27.1993 88.4036C32.2406 90.9847 35.6283 92.5442 36.5425 93.539C37.013 94.0364 36.8651 94.3859 36.0988 94.5338C35.346 94.6951 33.9613 94.6413 32.0658 94.2918C28.0194 93.5524 23.7309 91.6972 20.2088 89.4656C16.6731 87.234 13.8097 84.6932 12.0486 82.5423L12.0217 82.5288Z" fill="url(#paint4_radial_1_10765)"/>
<path style="mix-blend-mode:overlay" opacity="0.5" d="M37.2426 60.3607C34.9573 60.5489 32.5106 60.9522 29.8891 61.5975C27.2677 62.2428 24.4849 63.1166 21.9441 64.3937C19.4033 65.6709 17.1179 67.3378 15.5316 69.5291C13.9453 71.7204 13.0446 74.4225 13.1655 77.6892C11.8615 80.7543 11.7137 83.6312 12.4665 86.2527C13.2193 88.8607 14.8728 91.2402 17.3195 93.2836C19.7662 95.327 23.0733 97.0477 27.0526 98.177C31.0184 99.3197 35.7101 99.8171 40.4556 99.4272C42.2033 99.2793 44.0047 99.0105 45.8061 98.5803C47.6882 98.1366 49.1266 97.6527 50.928 96.9805C54.3561 95.6631 57.5959 93.8617 60.4728 91.7242C63.3497 89.5867 65.8905 87.1265 67.9877 84.4916C69.0497 83.1742 70.0042 81.8164 70.8511 80.4317C71.2813 79.7326 71.6712 79.0336 72.0476 78.3345L72.5853 77.2859C72.7198 76.9633 73.0424 76.5062 73.2709 76.1029C73.3516 75.9551 73.4323 75.8072 73.4995 75.6593C73.5667 75.5114 73.6339 75.377 73.6474 75.2829C73.6877 75.0678 73.7549 74.8258 73.8221 74.5973C73.9565 74.1268 74.1179 73.6428 74.2792 73.1454C74.6153 72.1506 74.9648 71.1154 75.2606 70.04C75.8655 67.889 76.0134 65.7784 75.5294 63.7485C74.2926 64.5551 72.6525 64.8508 71.0528 64.8643C70.2462 64.8911 69.3992 64.8643 68.4985 64.8239C68.0415 64.8239 67.5844 64.797 67.087 64.797H66.3476C66.1056 64.8239 65.9174 64.7702 65.7292 64.7298L65.3393 64.6357C65.2183 64.5954 65.0839 64.5551 64.9226 64.5551L63.9816 64.4341C63.3497 64.3534 62.7179 64.2593 62.086 64.1518C60.8089 63.9501 59.5452 63.7216 58.2816 63.4661C55.7408 62.9687 53.2403 62.4041 50.8205 61.8933C48.4141 61.369 46.0884 60.8985 43.8837 60.6027C43.3325 60.5355 42.7813 60.4548 42.2301 60.401C41.7327 60.3473 41.0202 60.3338 40.4691 60.3204C39.4339 60.2666 38.3719 60.2801 37.2561 60.3742L37.2426 60.3607Z" fill="url(#paint5_radial_1_10765)"/>
<path d="M-0.519575 116.393C0.0853786 113.529 0.421463 110.437 0.367689 107.413C0.313915 104.388 -0.129713 101.43 -1.03042 98.903C-1.93113 96.3756 -3.28891 94.3054 -5.05 93.0148C-6.81108 91.7108 -8.97546 91.1865 -11.5028 91.5091C-13.963 90.6219 -16.1946 90.7429 -18.1842 91.4554C-20.1873 92.1813 -21.9483 93.4988 -23.5212 95.2464C-25.0806 96.994 -26.4653 99.1719 -27.6349 101.686C-28.791 104.2 -29.7455 107.05 -30.3908 110.074C-30.942 112.682 -31.2108 115.465 -31.2915 118.45C-31.3722 121.421 -31.2377 124.58 -30.9285 127.779C-30.7672 129.379 -30.5656 130.992 -30.3101 132.606C-30.1891 133.412 -30.0413 134.219 -29.8799 135.012L-29.8262 135.308L-29.7993 135.456L-29.7589 135.55C-29.6917 135.684 -29.6111 135.792 -29.5573 135.953C-29.4632 136.303 -29.3825 136.665 -29.3153 137.042C-29.0061 138.574 -28.7776 140.309 -28.3205 141.962C-28.1054 142.782 -27.8365 143.602 -27.487 144.342C-27.1375 145.081 -26.7207 145.753 -26.2368 146.345C-25.6318 145.269 -24.7177 144.395 -23.6825 143.643C-22.6474 142.89 -21.4778 142.218 -20.2007 141.398C-19.8781 141.196 -19.5554 140.981 -19.2328 140.752C-18.9101 140.551 -18.5337 140.188 -18.1976 139.905L-16.3021 138.521C-15.025 137.58 -13.7344 136.571 -12.4573 135.469C-9.90306 133.278 -7.41603 130.724 -5.30542 127.578C-3.19481 124.459 -1.46061 120.708 -0.546463 116.339L-0.519575 116.393Z" fill="#5A9403"/>
<path style="mix-blend-mode:overlay" opacity="0.2" d="M-0.519575 116.393C0.0853786 113.529 0.421463 110.437 0.367689 107.413C0.313915 104.388 -0.129713 101.43 -1.03042 98.903C-1.93113 96.3756 -3.28891 94.3054 -5.05 93.0148C-6.81108 91.7108 -8.97546 91.1865 -11.5028 91.5091C-13.963 90.6219 -16.1946 90.7429 -18.1842 91.4554C-20.1873 92.1813 -21.9483 93.4988 -23.5212 95.2464C-25.0806 96.994 -26.4653 99.1719 -27.6349 101.686C-28.791 104.2 -29.7455 107.05 -30.3908 110.074C-30.942 112.682 -31.2108 115.465 -31.2915 118.45C-31.3722 121.421 -31.2377 124.58 -30.9285 127.779C-30.7672 129.379 -30.5656 130.992 -30.3101 132.606C-30.1891 133.412 -30.0413 134.219 -29.8799 135.012L-29.8262 135.308L-29.7993 135.456L-29.7589 135.55C-29.6917 135.684 -29.6111 135.792 -29.5573 135.953C-29.4632 136.303 -29.3825 136.665 -29.3153 137.042C-29.0061 138.574 -28.7776 140.309 -28.3205 141.962C-28.1054 142.782 -27.8365 143.602 -27.487 144.342C-27.1375 145.081 -26.7207 145.753 -26.2368 146.345C-25.6318 145.269 -24.7177 144.395 -23.6825 143.643C-22.6474 142.89 -21.4778 142.218 -20.2007 141.398C-19.8781 141.196 -19.5554 140.981 -19.2328 140.752C-18.9101 140.551 -18.5337 140.188 -18.1976 139.905L-16.3021 138.521C-15.025 137.58 -13.7344 136.571 -12.4573 135.469C-9.90306 133.278 -7.41603 130.724 -5.30542 127.578C-3.19481 124.459 -1.46061 120.708 -0.546463 116.339L-0.519575 116.393Z" fill="url(#paint6_linear_1_10765)"/>
<path style="mix-blend-mode:overlay" opacity="0.5" d="M-0.519575 116.393C0.0853786 113.529 0.421463 110.437 0.367689 107.413C0.313915 104.388 -0.129713 101.43 -1.03042 98.903C-1.93113 96.3756 -3.28891 94.3054 -5.05 93.0148C-6.81108 91.7108 -8.97546 91.1865 -11.5028 91.5091C-13.963 90.6219 -16.1946 90.7429 -18.1842 91.4554C-20.1873 92.1813 -21.9483 93.4988 -23.5212 95.2464C-25.0806 96.994 -26.4653 99.1719 -27.6349 101.686C-28.791 104.2 -29.7455 107.05 -30.3908 110.074C-30.942 112.682 -31.2108 115.465 -31.2915 118.45C-31.3722 121.421 -31.2377 124.58 -30.9285 127.779C-30.7672 129.379 -30.5656 130.992 -30.3101 132.606C-30.1891 133.412 -30.0413 134.219 -29.8799 135.012L-29.8262 135.308L-29.7993 135.456L-29.7589 135.55C-29.6917 135.684 -29.6111 135.792 -29.5573 135.953C-29.4632 136.303 -29.3825 136.665 -29.3153 137.042C-29.0061 138.574 -28.7776 140.309 -28.3205 141.962C-28.1054 142.782 -27.8365 143.602 -27.487 144.342C-27.1375 145.081 -26.7207 145.753 -26.2368 146.345C-25.6318 145.269 -24.7177 144.395 -23.6825 143.643C-22.6474 142.89 -21.4778 142.218 -20.2007 141.398C-19.8781 141.196 -19.5554 140.981 -19.2328 140.752C-18.9101 140.551 -18.5337 140.188 -18.1976 139.905L-16.3021 138.521C-15.025 137.58 -13.7344 136.571 -12.4573 135.469C-9.90306 133.278 -7.41603 130.724 -5.30542 127.578C-3.19481 124.459 -1.46061 120.708 -0.546463 116.339L-0.519575 116.393Z" fill="url(#paint7_radial_1_10765)"/>
<path d="M26.2322 54.177C25.5197 56.2338 24.5652 58.4117 23.3553 60.6836C22.1454 62.9555 20.6666 65.3081 18.8921 67.3515C17.1176 69.3949 15.0339 71.1157 12.6275 72.0567C10.2211 73.0112 7.50556 73.1859 4.52112 72.3121C1.37537 72.7961 -1.31331 72.2449 -3.55836 70.9274C-5.78996 69.61 -7.60482 67.5263 -8.90882 64.7704C-10.2128 62.0279 -11.0194 58.573 -11.127 54.6206C-11.2345 50.6817 -10.6027 46.2319 -9.11048 41.9435C-8.5593 40.3572 -7.87368 38.7709 -7.06708 37.2114C-6.2067 35.5713 -5.41354 34.3614 -4.3784 32.8558C-2.34845 29.9923 0.0848007 27.4381 2.74659 25.2737C5.40838 23.1228 8.27183 21.3617 11.2159 20.0442C12.6813 19.372 14.16 18.8209 15.6523 18.3638C16.3916 18.1353 17.1445 17.9336 17.8704 17.7588L18.9728 17.5169C19.3089 17.4765 19.8063 17.2749 20.223 17.1673C20.3709 17.1404 20.5456 17.0867 20.6801 17.0598C20.828 17.0329 20.9758 17.006 21.0699 17.0195C21.285 17.0195 21.5136 17.0195 21.7421 17.0195C22.2126 17.0195 22.6966 16.9791 23.194 16.9522C24.1888 16.8716 25.2374 16.7909 26.2994 16.7775C28.4369 16.7237 30.4131 17.1001 32.1742 18.0143C31.139 18.9687 30.4803 20.4072 30.0905 21.886C29.8888 22.6254 29.714 23.4185 29.5258 24.252C29.4317 24.6687 29.3242 25.0989 29.2166 25.556L29.0284 26.2416C28.9612 26.4702 28.9612 26.6449 28.9478 26.8331V27.223C28.9478 27.344 28.9478 27.4784 28.9209 27.6263L28.7999 28.527C28.7327 29.1319 28.6655 29.7369 28.5982 30.3553C28.4772 31.5786 28.3831 32.802 28.3294 34.0388C28.1815 36.4989 28.1143 38.9456 28.0202 41.2982C27.9261 43.6508 27.8185 45.8959 27.5765 48.0199C27.5093 48.5442 27.4555 49.0685 27.3614 49.5928C27.2942 50.0633 27.1329 50.722 27.0254 51.2329C26.8237 52.2008 26.5683 53.1687 26.2188 54.1904L26.2322 54.177Z" fill="#75AE10"/>
<path style="mix-blend-mode:overlay" opacity="0.2" d="M26.2322 54.177C25.5197 56.2338 24.5652 58.4117 23.3553 60.6836C22.1454 62.9555 20.6666 65.3081 18.8921 67.3515C17.1176 69.3949 15.0339 71.1157 12.6275 72.0567C10.2211 73.0112 7.50556 73.1859 4.52112 72.3121C1.37537 72.7961 -1.31331 72.2449 -3.55836 70.9274C-5.78996 69.61 -7.60482 67.5263 -8.90882 64.7704C-10.2128 62.0279 -11.0194 58.573 -11.127 54.6206C-11.2345 50.6817 -10.6027 46.2319 -9.11048 41.9435C-8.5593 40.3572 -7.87368 38.7709 -7.06708 37.2114C-6.2067 35.5713 -5.41354 34.3614 -4.3784 32.8558C-2.34845 29.9923 0.0848007 27.4381 2.74659 25.2737C5.40838 23.1228 8.27183 21.3617 11.2159 20.0442C12.6813 19.372 14.16 18.8209 15.6523 18.3638C16.3916 18.1353 17.1445 17.9336 17.8704 17.7588L18.9728 17.5169C19.3089 17.4765 19.8063 17.2749 20.223 17.1673C20.3709 17.1404 20.5456 17.0867 20.6801 17.0598C20.828 17.0329 20.9758 17.006 21.0699 17.0195C21.285 17.0195 21.5136 17.0195 21.7421 17.0195C22.2126 17.0195 22.6966 16.9791 23.194 16.9522C24.1888 16.8716 25.2374 16.7909 26.2994 16.7775C28.4369 16.7237 30.4131 17.1001 32.1742 18.0143C31.139 18.9687 30.4803 20.4072 30.0905 21.886C29.8888 22.6254 29.714 23.4185 29.5258 24.252C29.4317 24.6687 29.3242 25.0989 29.2166 25.556L29.0284 26.2416C28.9612 26.4702 28.9612 26.6449 28.9478 26.8331V27.223C28.9478 27.344 28.9478 27.4784 28.9209 27.6263L28.7999 28.527C28.7327 29.1319 28.6655 29.7369 28.5982 30.3553C28.4772 31.5786 28.3831 32.802 28.3294 34.0388C28.1815 36.4989 28.1143 38.9456 28.0202 41.2982C27.9261 43.6508 27.8185 45.8959 27.5765 48.0199C27.5093 48.5442 27.4555 49.0685 27.3614 49.5928C27.2942 50.0633 27.1329 50.722 27.0254 51.2329C26.8237 52.2008 26.5683 53.1687 26.2188 54.1904L26.2322 54.177Z" fill="url(#paint8_linear_1_10765)"/>
<path d="M1.53605 84.5321C2.26199 84.6262 2.89383 84.2901 3.18958 83.6583C4.81623 80.2033 5.07166 76.3585 5.32708 72.7153V72.6481C6.32189 72.07 7.19571 71.129 7.97543 70.2821L8.54005 69.6906C9.61552 68.6017 11.0405 67.1901 12.5865 65.8861C12.7209 65.7651 12.7747 65.5769 12.7075 65.4156C12.6403 65.2408 12.479 65.1198 12.2773 65.1064C12.1429 65.0929 12.0219 65.1333 11.9143 65.2005C11.1884 65.7517 10.4759 66.3163 9.74996 66.8809L7.5318 68.6958C7.15538 69.005 6.7252 69.3142 6.25468 69.6368L5.50184 70.188C5.55561 69.6368 5.59595 69.1663 5.66317 68.7092C5.7976 67.58 5.91858 66.4104 6.06646 65.0257C7.14193 63.9906 7.92165 62.579 8.71481 61.2481C9.0509 60.6566 9.38698 60.1189 9.73651 59.6484L10.3952 58.7611C11.511 57.2689 12.7075 55.8036 14.0518 54.6071C14.5761 54.15 15.1273 53.7064 15.6651 53.3031C16.7405 52.483 17.8832 51.7168 18.8915 50.9102L19.7787 50.1708C20.2089 49.8078 20.666 49.4583 21.1499 49.176C21.3919 49.0281 21.6474 48.9071 21.9162 48.7995C22.1985 48.6786 22.4943 48.571 22.79 48.5038C22.9514 48.4635 23.0455 48.3425 23.0455 48.1946C23.0455 48.0467 22.9245 47.8854 22.7632 47.8182C22.6691 47.7644 22.5346 47.751 22.4405 47.7644C21.7683 47.8988 21.1634 48.1408 20.5988 48.3962C20.0476 48.6517 19.5502 48.9743 19.0528 49.2969L18.3 49.8078C16.9825 50.6682 15.5709 51.5554 14.1997 52.4965C13.7426 52.8191 13.2856 53.1552 12.815 53.5047C10.7448 55.1045 8.99713 57.1613 7.63935 59.0165C7.33015 59.4198 6.99406 59.8366 6.64453 60.2936L6.56387 60.4012C6.67142 59.4467 6.79241 58.5057 6.92685 57.5512C7.20916 55.5347 7.58557 53.4644 8.12331 51.4479C8.92991 48.3559 9.95161 45.2505 11.0809 42.5887C11.6455 42.0913 12.1025 41.5267 12.5731 40.9889C12.9764 40.5184 13.3931 40.0479 13.8636 39.6715C15.0198 38.717 16.3238 37.9238 17.574 37.2113L18.1386 36.9021C19.8459 35.9745 21.7683 35.0604 22.8573 33.4337C22.9783 33.2455 22.9245 32.9901 22.7363 32.8422C22.5749 32.7078 22.3733 32.6944 22.212 32.7885C19.94 34.1866 17.6009 35.4771 14.845 37.0231L14.4417 37.2517C14.0653 37.4668 13.6754 37.6953 13.2721 37.9507C13.7964 36.9559 14.4283 35.8804 15.1004 34.8319C16.9153 31.9953 18.6898 29.8444 20.4778 27.9757C21.1768 27.2632 21.849 26.5104 22.5212 25.771C23.4353 24.7762 24.4167 23.7679 25.4922 22.9479C25.8283 22.7328 26.1643 22.5043 26.5139 22.3026C26.6349 22.222 26.7155 22.101 26.729 21.9531C26.7558 21.8052 26.7021 21.6573 26.5945 21.5498C26.4466 21.375 26.2047 21.3347 26.003 21.4288C25.5728 21.6573 25.183 21.859 24.7393 22.1279C23.6908 22.8672 22.8438 23.6738 21.9969 24.5208C21.4995 25.0182 21.0021 25.5425 20.4912 26.0399C18.2731 28.1505 16.2566 30.6644 14.7643 32.7616C12.8957 35.383 11.2287 38.233 9.88439 41.0965C9.09123 42.7769 8.32495 44.5514 7.66623 46.3528L7.73345 45.3311C7.81411 44.1885 7.94854 43.0189 8.12331 41.8762C8.41906 39.7925 8.82236 37.6415 9.30632 35.5847C9.40043 35.1679 9.52142 34.7512 9.64241 34.3076C10.0323 32.896 10.5028 31.4576 10.6507 29.9922C10.6641 29.8309 10.5834 29.6562 10.449 29.5486C10.3415 29.4679 10.1936 29.4411 10.0591 29.4814C9.93816 29.5217 9.80373 29.6293 9.74996 29.7234C9.02401 31.0139 8.62071 32.4658 8.27119 33.8505C8.08298 34.5764 7.92166 35.3293 7.73345 36.0283C7.49147 36.9156 7.28981 37.8163 7.08816 38.717C6.81929 39.9538 6.61765 41.1637 6.38911 42.387C6.2009 43.4491 6.02614 44.5111 5.90515 45.5731C5.77071 46.6352 5.66316 47.6972 5.60939 48.7592L5.52873 50.0901C5.46152 51.1521 5.42118 52.2679 5.60939 53.3165V53.3837C4.54736 57.9007 3.99618 62.6328 3.14925 67.1901C2.98793 68.0639 2.86694 68.9646 2.75939 69.7981L1.84524 68.4538C0.648781 66.7061 -0.574568 64.8509 -1.4215 62.8748C-2.30877 60.791 -2.83306 58.4922 -3.2498 56.1665L-4.23117 50.1708C-4.2715 49.9557 -4.41938 49.7944 -4.60758 49.7406C-4.78235 49.7003 -4.95712 49.7406 -5.10499 49.8885C-5.23943 50.0094 -5.30664 50.1977 -5.30664 50.3859C-5.11843 55.0373 -4.33872 59.9576 -2.72551 64.2057C-2.29532 65.3618 -1.74414 66.4373 -1.20641 67.4724L-0.332591 69.1663L0.0169406 69.8788C0.60845 71.1021 1.29406 72.4734 2.35609 73.3875C2.00656 76.5736 1.57637 79.6656 0.205147 82.4618C0.00349665 82.892 0.00349474 83.3356 0.245476 83.712C0.487457 84.1288 0.998307 84.438 1.54949 84.5052L1.53605 84.5321Z" fill="#80BA1B"/>
<path d="M-4.68748 50.2917C-3.88087 54.7952 -3.47757 59.2047 -1.83748 63.036C-0.61413 65.9264 1.33516 68.4268 3.01559 70.9811C3.15002 69.7443 3.2979 68.494 3.52644 67.2841C4.37337 62.673 4.92455 57.9813 6.00002 53.3568C5.71771 51.8915 5.91936 50.3051 6.00002 48.8129C6.10757 46.7157 6.40333 44.6051 6.77974 42.4811C7.15615 40.3974 7.53257 38.2599 8.11063 36.1492C8.66181 34.1058 9.02479 31.8474 10.0868 29.9384C10.1137 29.8846 10.1944 29.9115 10.1944 29.9787C10.0196 31.8339 9.29365 33.7025 8.87691 35.504C8.3795 37.6146 8.00309 39.7521 7.69389 41.8089C7.37125 43.9061 7.22336 46.0301 7.16959 48.087C7.16959 48.4231 7.16959 48.7591 7.16959 49.0952C8.99789 43.3818 11.6059 37.9103 15.1012 33.0304C16.7951 30.6509 18.6637 28.379 20.7743 26.3625C22.1724 25.0181 23.4227 23.5797 25.0224 22.4639C25.4123 22.2219 25.8021 22.0202 26.2054 21.8186C26.2995 21.7783 26.3668 21.9127 26.2727 21.9665C25.9097 22.1816 25.5601 22.4101 25.1837 22.6521C23.3017 24.104 21.7826 26.0264 20.1559 27.6934C18.1125 29.7905 16.2977 32.1431 14.7248 34.6033C13.7569 36.1358 12.8696 37.7221 12.063 39.3488C12.9906 38.5287 14.1198 37.8969 15.0474 37.386C17.6689 35.9207 20.008 34.6167 22.4278 33.1379C22.4682 33.111 22.5219 33.1648 22.4951 33.2051C21.3793 34.899 19.2821 35.7863 17.4672 36.808C16.1229 37.5608 14.792 38.3674 13.5686 39.3757C12.5066 40.2495 11.7538 41.4459 10.7187 42.3601C9.48186 45.2907 8.51393 48.3155 7.70733 51.3537C6.79318 54.8087 6.34954 58.3443 5.97313 61.8664C6.61841 60.9254 7.38469 60.065 7.9762 59.2584C9.4953 57.2016 11.1623 55.3061 13.0981 53.8139C14.913 52.4157 16.8219 51.2596 18.5696 50.1035C19.1745 49.7002 19.7795 49.27 20.4248 48.9205C20.7474 48.7457 21.0701 48.5978 21.433 48.4634C21.796 48.3155 22.1724 48.208 22.5892 48.1273C22.6295 48.1273 22.6698 48.1811 22.6161 48.1945C22.1859 48.3021 21.7826 48.4499 21.4196 48.6381C21.0566 48.7995 20.734 49.0011 20.3979 49.2162C19.7661 49.6598 19.188 50.1976 18.583 50.6815C17.0908 51.8915 15.3297 52.9804 13.7569 54.3919C12.1168 55.8304 10.7455 57.6318 9.4012 59.4735C8.24507 61.0464 7.23682 63.4528 5.67738 64.8912C5.54295 66.1549 5.42195 67.432 5.26063 68.7091C5.16653 69.5157 5.08587 70.3358 5.01865 71.1558C5.90591 70.3896 7.00828 69.7308 7.82832 69.0452C9.26677 67.8488 10.7186 66.6657 12.184 65.5499C12.2646 65.4827 12.3587 65.6037 12.2915 65.6709C10.88 66.8539 9.53563 68.1445 8.21818 69.4754C7.30403 70.403 6.17478 71.8011 4.92455 72.4598C4.65568 76.2374 4.42714 80.0688 2.80049 83.5506C2.1821 84.8681 -0.0629492 83.9808 0.56889 82.7037C1.98045 79.7999 2.42408 76.5466 2.77361 73.2799C2.73327 73.253 2.6795 73.2261 2.63917 73.1858C1.41582 72.1372 0.716767 70.4568 0.0177112 69.0452C-0.802336 67.4186 -1.71648 65.8726 -2.37521 64.1115C-3.9212 59.9978 -4.71436 55.3195 -4.91602 50.3858C-4.91602 50.2379 -4.71436 50.1976 -4.70092 50.332L-4.68748 50.2917Z" fill="#90CF26"/>
<path d="M1.63296 83.7524C1.84805 83.7793 2.22447 83.7524 2.42612 83.3357C3.98555 80.0017 4.24097 76.251 4.4964 72.6482V72.3793C4.52329 72.2449 4.60395 72.1239 4.73838 72.0567C5.54498 71.6265 6.32471 70.8602 7.02376 70.1074L6.79522 70.2687C6.28437 70.6317 5.77352 70.9947 5.31645 71.3845C5.23579 71.4652 5.1148 71.4921 4.99381 71.4921C4.94003 71.4921 4.88626 71.4786 4.84593 71.4517C4.69805 71.3845 4.60395 71.2232 4.61739 71.0619C4.69805 70.0671 4.76527 69.3008 4.85938 68.6017C4.99381 67.459 5.12824 66.2491 5.27612 64.7972C5.27612 64.7031 5.32989 64.6225 5.3971 64.5553C6.43224 63.6008 7.21196 62.1892 8.00512 60.8583C8.35465 60.2668 8.70418 59.7022 9.06715 59.2182L9.72588 58.331C10.8551 56.8119 12.0785 55.3331 13.4631 54.0963L13.9202 53.7064L13.4228 54.0829C11.3929 55.6557 9.69899 57.6588 8.35466 59.4871C8.04546 59.9039 7.69593 60.334 7.33295 60.7777C6.99687 61.2079 6.66079 61.6381 6.35159 62.0951C6.25749 62.2296 6.10961 62.2968 5.94829 62.2699C5.9214 62.2699 5.88107 62.2564 5.85418 62.243C5.67942 62.1892 5.55843 62.0145 5.57187 61.8263C5.71975 60.3609 5.88107 58.909 6.09617 57.4437C6.37848 55.4003 6.76834 53.2897 7.30607 51.2598C8.13956 48.1006 9.1747 44.9145 10.3308 42.1989C10.3577 42.1451 10.398 42.0914 10.4518 42.051H10.4653C10.9896 41.5805 11.4332 41.0428 11.9172 40.4782C12.3339 39.9807 12.791 39.4833 13.3018 39.0666C13.6379 38.7977 13.9874 38.5289 14.337 38.2734C13.6648 38.6767 12.9657 39.1338 12.3608 39.6581C12.2398 39.7791 12.0381 39.7925 11.8768 39.7119C11.8634 39.7119 11.8499 39.6984 11.8365 39.685C11.7424 39.6178 11.6886 39.5237 11.6617 39.4296C11.2988 40.1152 10.9627 40.8008 10.6266 41.4999C9.45702 43.96 8.40842 46.6083 7.56149 49.2567C7.50772 49.4449 7.30607 49.5524 7.10442 49.5256C7.07753 49.5256 7.06409 49.5256 7.0372 49.5121C6.86243 49.4583 6.74144 49.3105 6.74144 49.1223C6.74144 48.7862 6.74144 48.4366 6.74144 48.1006C6.75489 47.173 6.80867 46.2454 6.87588 45.3043C6.92966 44.6725 6.98343 44.0407 7.05064 43.3954C6.91621 44.1751 6.79522 44.9548 6.70111 45.7345C6.56668 46.7831 6.47257 47.8182 6.40536 48.8668L6.31125 50.1977C6.24404 51.2463 6.21716 52.3218 6.39192 53.3166C6.39192 53.3704 6.39192 53.4241 6.39192 53.4779L6.36503 53.6123C5.32989 58.089 4.76527 62.7942 3.93178 67.3784C3.70324 68.6421 3.54192 69.9326 3.42093 71.0484C3.40749 71.2232 3.27305 71.3576 3.09829 71.3979C3.05796 71.3979 3.00419 71.3979 2.9773 71.3979C2.84287 71.3979 2.72187 71.3173 2.65466 71.2097C2.14381 70.4435 1.61952 69.6772 1.10867 68.9244C-0.11468 67.1498 -1.35148 65.2812 -2.2253 63.2244L-2.26562 63.1303L-1.96987 63.9369C-1.55312 65.0527 -1.04228 66.0609 -0.491098 67.1095L0.396166 68.8303L0.759138 69.5562C1.35065 70.7796 1.96904 72.0298 2.92352 72.8498C2.93697 72.8633 2.96385 72.8767 2.99074 72.8902C3.12517 72.9708 3.20584 73.1187 3.19239 73.28C2.84286 76.6005 2.39923 79.8538 0.960791 82.8248C0.866687 83.0265 0.853244 83.2147 0.960791 83.376C1.08178 83.5777 1.35065 83.7255 1.63296 83.7659V83.7524Z" fill="#A1E330"/>
<path style="mix-blend-mode:screen" opacity="0.7" d="M-0.225008 72.2314C-4.78232 71.2366 -8.08939 67.7548 -9.86392 62.3774C-10.7512 59.7022 -11.2083 56.5161 -11.1276 52.994C-11.0469 49.4852 -10.3882 45.6539 -9.11109 41.9569C-8.55991 40.3706 -7.8743 38.7843 -7.06769 37.2249C-6.20732 35.5848 -5.41416 34.3749 -4.37902 32.8692C-2.34906 30.0058 0.0841885 27.4515 2.74598 25.2871C5.40777 23.1362 8.27121 21.3751 11.2153 20.0576C12.6806 19.3855 14.1594 18.8343 15.6516 18.3772C16.391 18.1487 17.1439 17.947 17.8698 17.7723L18.9722 17.5303C19.3082 17.49 19.8056 17.2883 20.2224 17.1808C20.3703 17.1539 20.545 17.1001 20.6795 17.0732C20.8273 17.0463 20.9752 17.0194 21.0693 17.0329C21.2844 17.0329 21.513 17.0329 21.7415 17.0329C22.212 17.0329 22.696 16.9926 23.1934 16.9657C24.1882 16.885 25.2368 16.8043 26.2988 16.7909C28.4363 16.7371 30.4125 17.1135 32.1736 18.0277C31.3132 17.8933 29.9957 18.1352 28.5842 18.8477C27.8717 19.1973 27.1323 19.6275 26.4063 20.1114L24.1882 21.5768L23.0186 22.4909C22.6422 22.7867 22.2658 23.0959 21.9028 23.4051C21.1769 24.0234 20.4778 24.6418 19.8325 25.2602C18.542 26.4836 17.4665 27.6666 16.7271 28.5673C16.0146 29.4546 15.0736 30.8124 14.1997 32.1836C13.3125 33.5548 12.4924 34.926 11.874 35.7999C11.2556 36.6737 10.812 37.0232 10.7045 36.3107C10.6104 35.5982 10.812 33.8102 11.8875 30.4494C12.6806 28.0565 12.9898 26.6852 12.8285 26.0937C12.6941 25.4888 12.1026 25.677 11.2825 26.4567C9.64244 27.9892 7.14197 32.0626 6.05306 36.7543C5.82452 37.6819 5.62287 38.6633 5.42122 39.6447L5.15234 41.11L4.87003 42.6425C4.5205 44.6994 4.26509 46.7831 4.07688 48.8131C3.67358 52.873 3.56603 56.6909 3.22994 59.756C2.9073 62.8076 2.32924 64.4881 1.3882 64.2461C0.931125 64.1251 0.379945 63.5336 -0.225008 62.3506C-0.829961 61.1675 -1.48869 59.4065 -2.06675 56.8657C-3.24977 51.5958 -3.88161 48.0871 -4.59411 47.0251C-4.94364 46.4739 -5.29316 46.5277 -5.61581 47.1999C-5.93845 47.8586 -6.22076 49.1491 -6.3552 50.9909C-6.62406 54.9029 -5.92501 59.3123 -4.7151 63.0899C-3.49175 66.8944 -1.82477 70.1343 -0.238449 72.2718L-0.225008 72.2314Z" fill="url(#paint9_radial_1_10765)"/>
<path style="mix-blend-mode:overlay" opacity="0.5" d="M26.2322 54.177C25.5197 56.2338 24.5652 58.4117 23.3553 60.6836C22.1454 62.9555 20.6666 65.3081 18.8921 67.3515C17.1176 69.3949 15.0339 71.1157 12.6275 72.0567C10.2211 73.0112 7.50556 73.1859 4.52112 72.3121C1.37537 72.7961 -1.31331 72.2449 -3.55836 70.9274C-5.78996 69.61 -7.60482 67.5263 -8.90882 64.7704C-10.2128 62.0279 -11.0194 58.573 -11.127 54.6206C-11.2345 50.6817 -10.6027 46.2319 -9.11048 41.9435C-8.5593 40.3572 -7.87368 38.7709 -7.06708 37.2114C-6.2067 35.5713 -5.41354 34.3614 -4.3784 32.8558C-2.34845 29.9923 0.0848007 27.4381 2.74659 25.2737C5.40838 23.1228 8.27183 21.3617 11.2159 20.0442C12.6813 19.372 14.16 18.8209 15.6523 18.3638C16.3916 18.1353 17.1445 17.9336 17.8704 17.7588L18.9728 17.5169C19.3089 17.4765 19.8063 17.2749 20.223 17.1673C20.3709 17.1404 20.5456 17.0867 20.6801 17.0598C20.828 17.0329 20.9758 17.006 21.0699 17.0195C21.285 17.0195 21.5136 17.0195 21.7421 17.0195C22.2126 17.0195 22.6966 16.9791 23.194 16.9522C24.1888 16.8716 25.2374 16.7909 26.2994 16.7775C28.4369 16.7237 30.4131 17.1001 32.1742 18.0143C31.139 18.9687 30.4803 20.4072 30.0905 21.886C29.8888 22.6254 29.714 23.4185 29.5258 24.252C29.4317 24.6687 29.3242 25.0989 29.2166 25.556L29.0284 26.2416C28.9612 26.4702 28.9612 26.6449 28.9478 26.8331V27.223C28.9478 27.344 28.9478 27.4784 28.9209 27.6263L28.7999 28.527C28.7327 29.1319 28.6655 29.7369 28.5982 30.3553C28.4772 31.5786 28.3831 32.802 28.3294 34.0388C28.1815 36.4989 28.1143 38.9456 28.0202 41.2982C27.9261 43.6508 27.8185 45.8959 27.5765 48.0199C27.5093 48.5442 27.4555 49.0685 27.3614 49.5928C27.2942 50.0633 27.1329 50.722 27.0254 51.2329C26.8237 52.2008 26.5683 53.1687 26.2188 54.1904L26.2322 54.177Z" fill="url(#paint10_radial_1_10765)"/>
</g>
<defs>
<linearGradient id="paint0_linear_1_10765" x1="70.3724" y1="94.9124" x2="39.5107" y2="142.672" gradientUnits="userSpaceOnUse">
<stop stop-color="#737480"/>
<stop offset="0.55" stop-color="#348E85"/>
<stop offset="1" stop-color="#737480"/>
</linearGradient>
<radialGradient id="paint1_radial_1_10765" cx="0" cy="0" r="1" gradientUnits="userSpaceOnUse" gradientTransform="translate(55.5986 115.468) rotate(142.85) scale(38.8267)">
<stop stop-color="#83F196"/>
<stop offset="1" stop-color="#132601"/>
</radialGradient>
<radialGradient id="paint2_radial_1_10765" cx="0" cy="0" r="1" gradientUnits="userSpaceOnUse" gradientTransform="translate(47.5594 131.772) rotate(142.85) scale(62.9011 62.9011)">
<stop stop-color="#AAD7FF"/>
<stop offset="1" stop-color="#132601"/>
</radialGradient>
<linearGradient id="paint3_linear_1_10765" x1="41.3904" y1="59.5205" x2="47.8342" y2="98.3034" gradientUnits="userSpaceOnUse">
<stop stop-color="#8C8C8C"/>
<stop offset="0.55" stop-color="#4EA893"/>
<stop offset="1" stop-color="#8C8C8C"/>
</linearGradient>
<radialGradient id="paint4_radial_1_10765" cx="0" cy="0" r="1" gradientUnits="userSpaceOnUse" gradientTransform="translate(43.8173 81.1198) rotate(90.57) scale(25.8608 25.8608)">
<stop stop-color="#9DFFA3"/>
<stop offset="1" stop-color="#2E400E"/>
</radialGradient>
<radialGradient id="paint5_radial_1_10765" cx="0" cy="0" r="1" gradientUnits="userSpaceOnUse" gradientTransform="translate(55.3643 84.7839) rotate(90.57) scale(52.6088 52.6088)">
<stop stop-color="#C4F0FF"/>
<stop offset="1" stop-color="#2E400E"/>
</radialGradient>
<linearGradient id="paint6_linear_1_10765" x1="0.216732" y1="118.975" x2="-31.277" y2="118.472" gradientUnits="userSpaceOnUse">
<stop stop-color="#737480"/>
<stop offset="0.55" stop-color="#348E85"/>
<stop offset="1" stop-color="#737480"/>
</linearGradient>
<radialGradient id="paint7_radial_1_10765" cx="0" cy="0" r="1" gradientUnits="userSpaceOnUse" gradientTransform="translate(-27.3573 122.408) rotate(165.9) scale(30.3208)">
<stop stop-color="#AAD7FF"/>
<stop offset="1" stop-color="#132601"/>
</radialGradient>
<linearGradient id="paint8_linear_1_10765" x1="28.0861" y1="50.5884" x2="-6.22943" y2="35.4326" gradientUnits="userSpaceOnUse">
<stop stop-color="#8C8C8C"/>
<stop offset="0.55" stop-color="#4EA893"/>
<stop offset="1" stop-color="#8C8C8C"/>
</linearGradient>
<radialGradient id="paint9_radial_1_10765" cx="0" cy="0" r="1" gradientUnits="userSpaceOnUse" gradientTransform="translate(9.09664 43.5375) rotate(-166.18) scale(24.6659)">
<stop stop-color="#9DFFA3"/>
<stop offset="1" stop-color="#2E400E"/>
</radialGradient>
<radialGradient id="paint10_radial_1_10765" cx="0" cy="0" r="1" gradientUnits="userSpaceOnUse" gradientTransform="translate(8.43967 31.997) rotate(-166.18) scale(50.2073 50.2073)">
<stop stop-color="#C4F0FF"/>
<stop offset="1" stop-color="#2E400E"/>
</radialGradient>
</defs>
</svg>
