<svg width="136" height="185" viewBox="0 0 136 185" fill="none" xmlns="http://www.w3.org/2000/svg">
<g opacity="0.8">
<g opacity="0.1">
<path d="M101.756 68.1615C101.756 87.1399 86.3723 102.516 67.4007 102.516C48.429 102.516 33.0391 87.1331 33.0391 68.1615C33.0391 49.1898 48.4222 33.8066 67.4007 33.8066C86.3791 33.8066 101.756 49.1898 101.756 68.1615Z" fill="#39CA6E"/>
<path d="M67.3959 25.282C73.95 25.282 79.265 25.1466 79.265 18.1659C79.265 11.1853 67.3959 0 67.3959 0C67.3959 0 55.5335 11.1853 55.5335 18.1659C55.5335 25.1466 60.8486 25.282 67.3959 25.282ZM25.4578 67.7076C25.4578 61.1603 25.3224 55.8452 18.335 55.8452C11.3475 55.8452 0.175781 67.7076 0.175781 67.7076C0.175781 67.7076 11.3611 79.5767 18.3417 79.5767C25.3224 79.5767 25.4646 74.2685 25.4646 67.7076H25.4578ZM67.8834 109.646C61.3293 109.646 56.021 109.781 56.021 116.762C56.021 123.742 67.8834 134.928 67.8834 134.928C67.8834 134.928 79.7525 123.742 79.7525 116.762C79.7525 109.781 74.4375 109.646 67.8834 109.646ZM116.944 55.351C109.957 55.351 109.828 60.6592 109.828 67.2133C109.828 73.7674 109.964 79.0757 116.944 79.0757C123.925 79.0757 135.11 67.2133 135.11 67.2133C135.11 67.2133 123.925 55.351 116.944 55.351ZM37.6452 37.8079C42.2764 33.1767 45.9394 29.3242 41.0035 24.3883C36.0676 19.4524 19.7636 19.9331 19.7636 19.9331C19.7636 19.9331 19.2829 36.2303 24.2188 41.173C29.1546 46.1089 33.0072 42.4459 37.6452 37.8147V37.8079ZM110.722 40.8209C115.658 35.885 115.17 19.581 115.17 19.581C115.17 19.581 98.8732 19.1003 93.9373 24.0362C89.0014 28.9721 92.6576 32.8246 97.2956 37.4626C101.934 42.0938 105.786 45.7568 110.722 40.8209ZM24.5641 94.1068C19.6282 99.0427 20.1089 115.34 20.1089 115.34C20.1089 115.34 36.4061 115.821 41.342 110.885C46.2779 105.949 42.6217 102.096 37.9837 97.4583C33.3525 92.8271 29.4999 89.1641 24.5573 94.1068H24.5641ZM97.6409 97.1198C93.0097 101.751 89.3467 105.61 94.2826 110.546C99.2185 115.482 115.522 115.001 115.522 115.001C115.522 115.001 116.003 98.7041 111.067 93.7683C106.131 88.8324 102.272 92.4886 97.6409 97.1265V97.1198Z" fill="#39CA6E"/>
</g>
<path opacity="0.2" d="M97.1752 167.339H97.2362L93.1669 134.453H95.9226V126.599H88.0753V134.453H90.7024L87.1409 163.243C82.6452 161.868 77.8176 160.954 72.7666 160.568L68.0406 70.6458H66.8693L62.1433 160.568C57.0923 160.947 52.2648 161.868 47.769 163.243L44.2075 134.453H46.9632V126.599H39.1159V134.453H41.743L37.6738 167.339H37.7347C29.6166 171.605 23.3062 177.563 19.8125 184.51H115.097C111.597 177.563 105.287 171.605 97.1752 167.339ZM74.1072 72.7583C76.6327 74.2073 101.068 86.4894 101.671 85.44C102.28 84.3837 79.3546 69.461 76.8358 68.012C74.3104 66.5631 72.076 66.6917 71.3244 67.9985C70.5661 69.312 71.5885 71.3026 74.114 72.7583H74.1072ZM60.7959 72.7583C63.3214 71.3094 64.337 69.312 63.5855 67.9985C62.8339 66.6917 60.5996 66.5631 58.0741 68.012C55.5486 69.461 32.6295 84.3837 33.2321 85.44C33.8347 86.4894 58.2704 74.2073 60.7959 72.7583ZM67.3229 61.7084C68.8328 61.7084 70.0515 59.8329 70.0515 56.9215C70.0515 54.0101 68.5281 26.7036 67.3229 26.7036C66.1177 26.7036 64.5875 54.0101 64.5875 56.9215C64.5875 59.8329 65.813 61.7084 67.3229 61.7084ZM67.4516 69.5151C69.4016 69.5151 70.9859 67.9308 70.9859 65.9808C70.9859 64.0308 69.4016 62.4465 67.4516 62.4465C65.5016 62.4465 63.9172 64.0308 63.9172 65.9808C63.9172 67.9308 65.5016 69.5151 67.4516 69.5151ZM85.7123 116.436H77.865V124.284H85.7123V116.436ZM77.865 134.447H85.7123V126.593H77.865V134.447ZM95.9226 95.8398H88.0753V103.687H95.9226V95.8398ZM98.157 134.447H106.004V126.593H98.157V134.447ZM88.0753 124.284H95.9226V116.436H88.0753V124.284ZM106.011 116.436H98.1637V124.284H106.011V116.436ZM106.011 105.996H98.1637V113.843H106.011V105.996ZM85.7191 105.996H77.8718V113.843H85.7191V105.996ZM106.011 95.8331H98.1637V103.68H106.011V95.8331ZM95.9226 105.996H88.0753V113.843H95.9226V105.996ZM57.0449 105.996H49.1976V113.843H57.0449V105.996ZM36.7529 95.8331H28.9056V103.68H36.7529V95.8331ZM85.7123 95.8331H77.865V103.68H85.7123V95.8331ZM46.9565 95.8331H39.1092V103.68H46.9565V95.8331ZM36.7462 116.43H28.8989V124.277H36.7462V116.43ZM36.7462 126.593H28.8989V134.447H36.7462V126.593ZM36.7462 105.996H28.8989V113.843H36.7462V105.996ZM49.1908 134.447H57.0381V126.593H49.1908V134.447ZM57.0381 116.436H49.1908V124.284H57.0381V116.436ZM39.1024 124.284H46.9497V116.436H39.1024V124.284ZM57.0381 95.8398H49.1908V103.687H57.0381V95.8398ZM46.9565 106.003H39.1092V113.85H46.9565V106.003Z" fill="#323C45"/>
</g>
</svg>
