<svg width="93" height="18" viewBox="0 0 93 18" fill="none" xmlns="http://www.w3.org/2000/svg">
<circle cx="90.5" cy="2.00049" r="2" transform="rotate(90 90.5 2.00049)" fill="#DCDEE7"/>
<circle cx="68.5" cy="2.00049" r="2" transform="rotate(90 68.5 2.00049)" fill="#DCDEE7"/>
<circle cx="46.5" cy="2.00049" r="2" transform="rotate(90 46.5 2.00049)" fill="#DCDEE7"/>
<circle cx="24.5" cy="2.00049" r="2" transform="rotate(90 24.5 2.00049)" fill="#DCDEE7"/>
<circle cx="2.5" cy="2.00049" r="2" transform="rotate(90 2.5 2.00049)" fill="#DCDEE7"/>
<circle cx="90.5" cy="16.0005" r="2" transform="rotate(90 90.5 16.0005)" fill="#DCDEE7"/>
<circle cx="68.5" cy="16.0005" r="2" transform="rotate(90 68.5 16.0005)" fill="#DCDEE7"/>
<circle cx="46.5" cy="16.0005" r="2" transform="rotate(90 46.5 16.0005)" fill="#DCDEE7"/>
<circle cx="24.5" cy="16.0005" r="2" transform="rotate(90 24.5 16.0005)" fill="#DCDEE7"/>
<circle cx="2.5" cy="16.0005" r="2" transform="rotate(90 2.5 16.0005)" fill="#DCDEE7"/>
</svg>
