<svg width="126" height="130" viewBox="0 0 126 130" fill="none" xmlns="http://www.w3.org/2000/svg">
<g opacity="0.2">
<path d="M17.3875 37.5736C14.9746 38.8572 12.6037 40.218 10.275 41.649C9.25788 40.4285 2.10321 36.8371 0.482885 30.1313C-2.37197 18.277 8.0023 13.6475 16.6019 12.876C17.6401 12.7848 18.6782 12.7216 19.7233 12.6796C20.1091 12.6655 20.4879 12.6585 20.8737 12.6445C24.0232 12.5814 27.1796 12.7567 30.3151 13.1215C30.6097 13.1565 30.9043 13.1916 31.1919 13.2267C33.9064 13.5704 36.607 14.0614 39.2864 14.6576C39.6161 14.7278 39.9388 14.8049 40.2685 14.8821C41.4328 15.1556 42.5972 15.4502 43.7546 15.7589C45.5012 16.2288 47.2408 16.7409 48.9663 17.288C49.4854 17.4493 50.0044 17.6177 50.5165 17.786C52.6278 18.4734 54.7321 19.2099 56.8154 19.9745C58.3375 20.5287 67.0704 25.2353 68.1576 24.9267C68.0314 24.9898 67.9192 25.0459 67.7859 25.102C62.1393 23.5308 55.9175 23.8885 49.8782 25.1161C49.2328 25.2493 48.5945 25.3966 47.9562 25.5369C44.2105 26.4207 40.5701 27.5992 37.2172 28.8056C36.7823 28.967 36.3474 29.1213 35.9195 29.2826C35.1971 29.5492 34.4746 29.8297 33.7591 30.1033C32.0196 30.7767 30.308 31.4711 28.6176 32.2006C27.3971 32.7197 26.1906 33.2527 24.9911 33.8069C23.0131 34.7117 21.0631 35.6587 19.1482 36.6477C18.5589 36.9493 17.9697 37.258 17.3875 37.5666V37.5736Z" fill="url(#paint0_radial_1_11379)"/>
<path style="mix-blend-mode:multiply" opacity="0.7" d="M17.3875 37.5736C14.9746 38.8572 12.6037 40.218 10.275 41.649C9.25788 40.4285 2.10321 36.8371 0.482885 30.1313C-2.37197 18.277 8.0023 13.6475 16.6019 12.876C17.6401 12.7848 18.6782 12.7216 19.7233 12.6796C20.1091 12.6655 20.4879 12.6585 20.8737 12.6445C24.0232 12.5814 27.1796 12.7567 30.3151 13.1215C30.6097 13.1565 30.9043 13.1916 31.1919 13.2267C33.9064 13.5704 36.607 14.0614 39.2864 14.6576C39.6161 14.7278 39.9388 14.8049 40.2685 14.8821C41.4328 15.1556 42.5972 15.4502 43.7546 15.7589C45.5012 16.2288 47.2408 16.7409 48.9663 17.288C49.4854 17.4493 50.0044 17.6177 50.5165 17.786C52.6278 18.4734 54.7321 19.2099 56.8154 19.9745C58.3375 20.5287 67.0704 25.2353 68.1576 24.9267C68.0314 24.9898 67.9192 25.0459 67.7859 25.102C62.1393 23.5308 55.9175 23.8885 49.8782 25.1161C49.2328 25.2493 48.5945 25.3966 47.9562 25.5369C44.2105 26.4207 40.5701 27.5992 37.2172 28.8056C36.7823 28.967 36.3474 29.1213 35.9195 29.2826C35.1971 29.5492 34.4746 29.8297 33.7591 30.1033C32.0196 30.7767 30.308 31.4711 28.6176 32.2006C27.3971 32.7197 26.1906 33.2527 24.9911 33.8069C23.0131 34.7117 21.0631 35.6587 19.1482 36.6477C18.5589 36.9493 17.9697 37.258 17.3875 37.5666V37.5736Z" fill="url(#paint1_linear_1_11379)"/>
<path d="M13.5437 64.8878C7.31494 59.8375 8.43023 48.9231 10.3943 41.9298C10.4153 41.8526 10.3662 41.7614 10.275 41.6492C10.7169 41.3826 11.1518 41.1161 11.5867 40.8566C12.1549 40.5199 12.73 40.1832 13.2982 39.8535C15.8164 38.3945 18.3836 37.0197 21 35.722C21.5822 35.4274 22.1714 35.1398 22.7606 34.8593H22.7746C25.1385 33.7229 27.5514 32.6497 30.0065 31.6256C31.1779 31.1346 32.3633 30.6576 33.5558 30.1947C34.3343 29.8861 35.12 29.5915 35.9126 29.2969C37.9748 28.5323 40.1563 27.7607 42.4219 27.0663H42.436C43.0673 26.8629 43.7056 26.6735 44.3509 26.4911C47.0374 25.7265 49.8081 25.0742 52.5928 24.6393C53.2311 24.5341 53.8764 24.4499 54.5218 24.3728C59.053 23.8327 63.5773 23.9379 67.7789 25.1093C66.7899 25.5371 65.7377 25.7897 64.7698 26.3087C63.6545 26.8979 62.7356 27.88 61.6624 28.5393C60.5471 29.2197 59.502 30.0334 58.4779 30.8751C58.3376 30.9943 58.1973 31.1066 58.057 31.2258C57.6642 31.5555 57.2714 31.8922 56.8856 32.2289C55.5038 33.4494 54.178 34.726 52.8874 36.0447C52.7261 36.213 52.5577 36.3814 52.3964 36.5497C51.0286 37.9807 49.7029 39.4607 48.4192 40.9828C48.286 41.1371 48.1597 41.2844 48.0334 41.4388C45.9011 43.985 43.8669 46.6154 41.8748 49.2808C41.7696 49.4211 41.6574 49.5614 41.5522 49.7087C40.7806 50.7539 40.009 51.792 39.2444 52.8301C38.1291 54.3452 36.7473 56.1199 35.1691 57.8875C35.0218 58.0628 34.8674 58.2312 34.7061 58.3995C32.3423 60.9949 29.5786 63.5341 26.6396 65.2315C22.4029 67.6796 17.8085 68.36 13.5227 64.8949L13.5437 64.8878Z" fill="url(#paint2_linear_1_11379)"/>
<path d="M34.7268 58.3993C33.9553 58.2029 33.1135 57.9785 32.2438 57.7049C31.3529 57.4384 30.427 57.1157 29.4661 56.765C28.5121 56.3932 27.5301 56.0074 26.5551 55.5445C25.5731 55.1026 24.5981 54.5835 23.6231 54.0434C23.1461 53.7558 22.6691 53.4752 22.1992 53.1806C21.7362 52.872 21.2592 52.5844 20.8173 52.2547C20.3684 51.9321 19.9125 51.6094 19.4916 51.2657C19.2812 51.0903 19.0707 50.922 18.8533 50.7537C18.6499 50.5783 18.4465 50.3959 18.243 50.2206C18.0466 50.0452 17.8432 49.8698 17.6468 49.6875C17.4574 49.4981 17.2751 49.3157 17.0857 49.1333C16.7069 48.7756 16.3632 48.3968 16.0335 48.018C15.8722 47.8287 15.7038 47.6533 15.5425 47.4639C15.3882 47.2675 15.2409 47.0781 15.0936 46.8957C14.9463 46.7064 14.799 46.524 14.6587 46.3416C14.5184 46.1592 14.3922 45.9698 14.2659 45.7875C13.7398 45.072 13.333 44.3565 12.9542 43.7323C12.5965 43.0869 12.3019 42.4627 12.0564 41.9787C11.8389 41.4736 11.6706 41.0808 11.5724 40.8493C11.4952 40.674 11.4531 40.5828 11.4531 40.5828L13.2839 39.8463L15.1146 39.1098C15.1146 39.1098 15.276 39.6429 15.5636 40.5758C15.7179 40.9756 15.8792 41.4456 16.1107 42.0067C16.3702 42.5679 16.6438 43.2132 17.0296 43.8796C17.1207 44.0479 17.2119 44.2233 17.3101 44.3986C17.4224 44.567 17.5276 44.7353 17.6398 44.9107C17.745 45.093 17.8573 45.2684 17.9765 45.4508C18.0887 45.6261 18.229 45.8015 18.3553 45.9839C18.6078 46.3486 18.8743 46.7204 19.176 47.0711C19.3233 47.2535 19.4706 47.4359 19.6179 47.6252C19.7722 47.8076 19.9335 47.983 20.0948 48.1724C20.2562 48.3547 20.4175 48.5371 20.5859 48.7195C20.7612 48.8948 20.9366 49.0772 21.1119 49.2526C21.4627 49.6173 21.8414 49.954 22.2202 50.3047C22.592 50.6625 23.0058 50.9781 23.4056 51.3218C23.8125 51.6515 24.2333 51.9671 24.6472 52.2898C25.5029 52.9071 26.3727 53.5103 27.2635 54.0504C28.1474 54.6045 29.0522 55.0956 29.936 55.5655C30.8269 56.0144 31.6896 56.4423 32.5313 56.8071C33.3661 57.1858 34.1727 57.5015 34.9162 57.7891C35.0004 57.8242 35.0846 57.8522 35.1758 57.8873C35.0285 58.0626 34.8742 58.231 34.7128 58.3993H34.7268ZM41.8955 49.2806C41.5939 49.1544 41.2783 49.0211 40.9486 48.8738C38.5567 47.8146 35.4213 46.2364 32.5734 44.2724C32.2157 44.0269 31.872 43.7743 31.5283 43.5218C31.1916 43.2553 30.8479 43.0028 30.5182 42.7362C29.8659 42.2031 29.2486 41.663 28.6875 41.1089C28.5472 40.9686 28.4139 40.8353 28.2736 40.702C28.1403 40.5618 28.0141 40.4215 27.8878 40.2812C27.6283 40.0146 27.3968 39.727 27.1724 39.4535C26.9409 39.1869 26.7515 38.9064 26.5551 38.6398C26.3587 38.3803 26.1974 38.1067 26.043 37.8542C25.8747 37.6017 25.7555 37.3562 25.6292 37.1177C25.5731 36.9984 25.5099 36.8862 25.4468 36.774C25.3977 36.6618 25.3556 36.5495 25.3065 36.4373C25.2294 36.2269 25.1171 36.0164 25.068 35.8481C25.0189 35.6797 24.9698 35.5324 24.9278 35.3922C24.9067 35.315 24.8857 35.2799 24.8646 35.1817C24.8436 35.0976 24.8296 35.0204 24.8085 34.9432C24.7805 34.7889 24.7454 34.6627 24.7243 34.5574C24.6752 34.347 24.6542 34.2348 24.6542 34.2348L22.7743 34.852H22.7603L20.9015 35.4623C20.9015 35.4623 20.9366 35.5535 20.9997 35.7218C20.9997 35.7359 21.0067 35.7569 21.0137 35.7709C21.0488 35.8691 21.0979 35.9954 21.154 36.1357C21.1821 36.2058 21.2101 36.283 21.2382 36.3742C21.2592 36.4513 21.3294 36.5776 21.3715 36.6898C21.4767 36.9213 21.5959 37.1738 21.7292 37.4544C21.8625 37.735 22.0168 37.9594 22.1781 38.247C22.2623 38.3803 22.3465 38.5206 22.4306 38.6679C22.5288 38.8011 22.627 38.9414 22.7252 39.0887C22.9287 39.3763 23.1321 39.6709 23.3846 39.9585C23.6231 40.2461 23.8686 40.5547 24.1492 40.8283C24.4227 41.1159 24.7033 41.4175 25.0119 41.6911C25.3135 41.9716 25.6292 42.2522 25.9659 42.5188C26.1342 42.652 26.2956 42.7923 26.4709 42.9256C26.6463 43.0519 26.8216 43.1851 26.997 43.3184C27.6984 43.8445 28.456 44.3285 29.2206 44.7914C29.6063 45.0229 30.0062 45.2404 30.399 45.4648C30.7988 45.6752 31.1986 45.8927 31.6054 46.0821C34.8391 47.6814 38.199 48.7966 40.7382 49.5051C41.0258 49.5893 41.2993 49.6594 41.5589 49.7296C41.6641 49.5893 41.7763 49.449 41.8815 49.3017L41.8955 49.2806ZM48.44 40.9826C48.1734 40.9125 47.8999 40.8353 47.6123 40.7511C45.4729 40.1479 42.6741 39.1449 40.163 37.6788C39.8473 37.4895 39.5387 37.3141 39.2441 37.1107C38.9355 36.9213 38.6479 36.7179 38.3673 36.5145C37.7992 36.1076 37.2731 35.6587 36.7891 35.2238C36.5506 34.9994 36.3261 34.7679 36.1087 34.5504C35.9053 34.3119 35.6948 34.0945 35.5125 33.87C35.3371 33.6386 35.1547 33.4211 35.0004 33.1967C34.8531 32.9722 34.7128 32.7547 34.5795 32.5443C34.4603 32.3269 34.3481 32.1235 34.2358 31.9271C34.1306 31.7236 34.0605 31.5272 33.9763 31.3519C33.9412 31.2607 33.8921 31.1765 33.8641 31.0923C33.843 31.0152 33.815 30.938 33.7939 30.8679C33.7448 30.7276 33.7027 30.6013 33.6607 30.4821C33.6326 30.3769 33.5975 30.2857 33.5765 30.1875C33.5274 30.0121 33.4853 29.8438 33.4572 29.7386C33.4081 29.5632 33.3871 29.472 33.3871 29.472L29.7045 30.8959C29.7045 30.8959 29.7466 30.9801 29.8168 31.1485C29.8729 31.2677 29.929 31.415 30.0272 31.6184C30.0623 31.6956 30.1044 31.7868 30.1465 31.878C30.2447 32.0673 30.3569 32.2778 30.4761 32.5092C30.5393 32.6215 30.6024 32.7407 30.6655 32.867C30.7357 32.9792 30.8058 33.0844 30.883 33.2037C31.0373 33.4281 31.1846 33.6806 31.367 33.9191C31.5493 34.1576 31.7457 34.4031 31.9562 34.6627C32.1736 34.9082 32.4051 35.1537 32.6366 35.4062C32.8821 35.6517 33.1486 35.8902 33.4081 36.1357C33.6817 36.3742 33.9763 36.5986 34.2639 36.8371C34.5655 37.0546 34.8741 37.279 35.1968 37.4895C35.8351 37.8963 36.5085 38.2891 37.2099 38.6328C37.5607 38.8082 37.9184 38.9765 38.2761 39.1238C38.6339 39.2851 38.9986 39.4184 39.3634 39.5587C42.2813 40.6529 45.2695 41.158 47.5071 41.3895C47.7035 41.4105 47.8858 41.4245 48.0612 41.4456C48.1874 41.2913 48.3137 41.1439 48.447 40.9896L48.44 40.9826ZM52.9081 36.0445C52.7959 36.0024 52.6696 35.9673 52.5504 35.9182C51.8209 35.6657 51.0072 35.294 50.1866 34.824C49.3659 34.347 48.5592 33.7508 47.8437 33.0774C47.493 32.7337 47.1563 32.383 46.8547 32.0042C46.7074 31.8148 46.5601 31.6395 46.4268 31.4431C46.2936 31.2537 46.1603 31.0643 46.0481 30.8679C45.9288 30.6785 45.8096 30.4961 45.7114 30.2997C45.6062 30.1103 45.5009 29.928 45.4238 29.7386C45.2414 29.3738 45.1081 29.0091 44.9749 28.6794C44.8626 28.3427 44.7434 28.02 44.6803 27.7675L44.54 27.2414C44.5259 27.1783 44.5119 27.1152 44.4979 27.0591C44.4418 26.7925 44.3997 26.5961 44.3716 26.4699C44.3506 26.3717 44.3366 26.3296 44.3366 26.3296L42.4567 27.045H42.4427L40.647 27.7325C40.647 27.7325 40.7662 27.978 40.9697 28.4058C40.9907 28.4619 41.0187 28.5181 41.0538 28.5742C41.0889 28.6443 41.131 28.7215 41.1661 28.7916C41.2432 28.9459 41.3344 29.1003 41.4256 29.2756C41.608 29.6263 41.8324 29.963 42.0709 30.3488C42.3304 30.7206 42.611 31.1274 42.9337 31.5202C43.095 31.7236 43.2704 31.92 43.4527 32.1164C43.6281 32.3199 43.8245 32.5163 44.0209 32.7056C44.2173 32.9021 44.4277 33.0844 44.6382 33.2668C44.8486 33.4562 45.0731 33.6245 45.3045 33.7999C45.7535 34.1436 46.2445 34.4592 46.7285 34.7468C47.7175 35.301 48.7486 35.7288 49.7236 36.0094C50.7056 36.29 51.6315 36.4513 52.4171 36.5355C52.5785 36.3672 52.7468 36.1988 52.9081 36.0305V36.0445ZM58.0707 31.2256C57.9515 31.1414 57.8322 31.0713 57.72 30.9801C57.5797 30.8609 57.4324 30.7416 57.2921 30.6154C57.1448 30.5031 57.0186 30.3558 56.8923 30.2155L56.5135 29.7947C56.3031 29.465 56.0716 29.1844 55.8892 28.8548C55.7279 28.511 55.5315 28.2094 55.4052 27.8727C55.279 27.5431 55.1597 27.2204 55.0475 26.9118C54.9774 26.6101 54.9072 26.3226 54.8511 26.063C54.816 25.9368 54.788 25.8105 54.7599 25.6983C54.7319 25.551 54.7108 25.4107 54.6898 25.2774C54.6477 25.0179 54.6056 24.7864 54.5775 24.597C54.5635 24.5128 54.5565 24.4427 54.5425 24.3796C54.5004 24.1411 54.4864 24.0078 54.4864 24.0078L52.6205 24.6461L50.7547 25.2844C50.7547 25.2844 50.8459 25.4808 51.0142 25.8245C51.0984 25.9999 51.1966 26.2103 51.3088 26.4488C51.365 26.5681 51.4281 26.6943 51.4912 26.8276C51.5824 26.9819 51.6666 27.1503 51.7648 27.3186C51.9542 27.6483 52.1646 28.006 52.382 28.3848C52.6346 28.7215 52.9011 29.0722 53.1747 29.4369C53.4552 29.7947 53.813 30.1173 54.1286 30.461C54.4723 30.7907 54.8722 31.0713 55.2369 31.3659L55.8472 31.7306C56.0436 31.8499 56.247 31.9691 56.4574 32.0533C56.6047 32.1164 56.759 32.1796 56.9063 32.2427C57.2921 31.906 57.6849 31.5693 58.0777 31.2396L58.0707 31.2256Z" fill="url(#paint3_linear_1_11379)"/>
<path d="M15.5186 38.1907C15.5186 38.1907 15.3994 37.6787 15.1819 36.7808C15.1328 36.5494 15.0627 36.3249 15.0066 36.0303C14.9505 35.7357 14.8873 35.4201 14.8242 35.0763C14.7611 34.7397 14.6839 34.3819 14.6208 34.0031C14.5647 33.6314 14.5156 33.2316 14.4595 32.8247C14.4314 32.6213 14.4034 32.4109 14.3753 32.2005C14.3613 31.983 14.3402 31.7656 14.3192 31.5411C14.2841 31.0922 14.228 30.6362 14.214 30.1593C14.1999 29.6823 14.1859 29.1913 14.1719 28.6862C14.1719 28.1882 14.1929 27.6762 14.2069 27.1571C14.221 26.638 14.2911 26.105 14.3262 25.5719C14.3683 25.0388 14.4665 24.5057 14.5366 23.9656C14.6208 23.4325 14.7471 22.8924 14.8523 22.3523C14.9996 21.8192 15.1258 21.2861 15.2872 20.76C15.4625 20.2339 15.6168 19.7078 15.8273 19.2028L16.1289 18.4452C16.2411 18.1997 16.3533 17.9542 16.4656 17.7087C16.676 17.2177 16.9496 16.7618 17.1881 16.2988C17.4546 15.8499 17.7001 15.401 17.9877 14.9872C18.5278 14.1384 19.131 13.3879 19.7132 12.6864C20.099 12.6724 20.4778 12.6654 20.8636 12.6514C20.7163 12.8548 20.569 13.0722 20.4217 13.2897C19.9447 14.0262 19.4537 14.8048 19.0469 15.6605C18.8224 16.0814 18.6471 16.5303 18.4436 16.9722C18.2753 17.4352 18.0719 17.8841 17.9316 18.3611C17.8544 18.5996 17.7773 18.831 17.7001 19.0695L17.5107 19.792C17.3704 20.269 17.2933 20.774 17.1881 21.265C17.0969 21.756 17.0408 22.2611 16.9706 22.7521C16.9285 23.2501 16.8724 23.7411 16.8514 24.2391C16.8514 24.7301 16.8093 25.2211 16.8303 25.6981C16.8584 26.1821 16.8514 26.6591 16.8935 27.122C16.9355 27.592 16.9706 28.0479 17.0197 28.4969C17.0828 28.9458 17.146 29.3737 17.2091 29.8015C17.2722 30.2294 17.3774 30.6292 17.4476 31.0291C17.4897 31.2255 17.5248 31.4219 17.5668 31.6112L17.7141 32.1654C17.8123 32.5301 17.9035 32.8738 17.9807 33.2035C18.0719 33.5332 18.1771 33.8278 18.2613 34.1084C18.3524 34.396 18.4366 34.6555 18.5138 34.894C18.5909 35.1395 18.6891 35.392 18.7663 35.6024C18.9346 36.0724 19.0749 36.4301 19.1521 36.6546C19.2222 36.851 19.2643 36.9562 19.2643 36.9562L17.3915 37.5805L15.5257 38.1977L15.5186 38.1907ZM28.6145 32.2005V32.1724C28.5093 31.8006 28.4461 31.4289 28.3479 30.9659C28.2427 30.517 28.1796 29.9769 28.0814 29.3877C28.0323 29.0931 28.0113 28.7844 27.9762 28.4688C27.9341 28.1532 27.906 27.8235 27.892 27.4868C27.8429 26.8064 27.8289 26.0909 27.8289 25.3404C27.8429 24.9686 27.8429 24.5898 27.871 24.2041C27.899 23.8253 27.9201 23.4325 27.9622 23.0397C28.0533 22.2611 28.1656 21.4614 28.3269 20.6758L28.4461 20.0866L28.5934 19.5044C28.6846 19.1116 28.8039 18.7328 28.9161 18.347C29.1546 17.5895 29.4141 16.853 29.7157 16.1515C30.1577 15.0713 30.6627 14.0823 31.1747 13.2125C30.8872 13.1704 30.5925 13.1354 30.2979 13.1073C29.7368 13.8228 29.1616 14.6435 28.6215 15.5413C28.2077 16.2217 27.8148 16.9512 27.4501 17.7158C27.2747 18.1015 27.0854 18.4803 26.924 18.8872L26.6785 19.4834L26.4541 20.0936C26.1524 20.9073 25.8999 21.742 25.6825 22.5837C25.5702 22.9976 25.4861 23.4184 25.3949 23.8323C25.3037 24.2461 25.2406 24.66 25.1634 25.0738C25.0372 25.8945 24.9319 26.6871 24.8828 27.4447C24.8408 27.8235 24.8267 28.1952 24.8127 28.553C24.7987 28.9107 24.7776 29.2614 24.7776 29.5981C24.7846 30.2645 24.7776 30.8677 24.8127 31.4289C24.8408 31.983 24.8618 32.4951 24.9039 32.8388C24.946 33.2877 24.974 33.6103 24.9881 33.7997C24.9951 33.926 25.0021 33.9891 25.0021 33.9891L28.874 33.2877C28.874 33.2877 28.7758 32.8949 28.6145 32.1934V32.2005ZM37.4666 29.6612C37.3684 29.3807 37.2983 29.1211 37.2071 28.8055L37.1791 28.7003C37.0668 28.3566 36.9826 27.9147 36.8844 27.4447C36.8283 27.2132 36.8003 26.9607 36.7582 26.7082C36.7161 26.4557 36.667 26.1891 36.653 25.9156C36.5969 25.3684 36.5688 24.7933 36.5688 24.19C36.5758 23.5868 36.6179 22.9695 36.7091 22.3382C36.7582 22.0226 36.8003 21.7069 36.8774 21.3913L36.9826 20.9143L37.1159 20.4443C37.2913 19.8201 37.5298 19.2098 37.7963 18.6136C38.0629 18.0244 38.3715 17.4562 38.7012 16.9301C39.1852 16.1586 39.7183 15.4641 40.2514 14.8679C39.9217 14.7908 39.599 14.7136 39.2693 14.6435C38.7643 15.0713 38.2382 15.5553 37.7332 16.1165C37.2843 16.6075 36.8424 17.1616 36.4215 17.7508C36.0147 18.347 35.6289 18.9783 35.2992 19.6517L35.0537 20.1568L34.8362 20.6758C34.6819 21.0195 34.5697 21.3773 34.4434 21.728C34.205 22.4364 34.0296 23.1589 33.8893 23.8604C33.763 24.5688 33.6719 25.2632 33.6298 25.9156C33.5947 26.2523 33.5877 26.5679 33.5807 26.8765C33.5807 27.1852 33.5596 27.4868 33.5807 27.7814C33.6017 28.3566 33.6087 28.8826 33.6648 29.3666C33.6929 29.6262 33.7139 29.8647 33.742 30.0821C33.763 30.2715 33.7841 30.4398 33.8051 30.5731C33.8893 31.1764 33.9454 31.5271 33.9454 31.5271L37.7612 30.5521C37.7612 30.5521 37.649 30.2154 37.4596 29.6402L37.4666 29.6612ZM49.8751 25.1159C49.854 25.0247 49.826 24.9055 49.7979 24.7652C49.7558 24.5758 49.6997 24.3514 49.6436 24.0918C49.6015 23.8603 49.5875 23.671 49.5454 23.4184C49.5314 23.2922 49.4963 23.1659 49.4893 23.0186C49.4893 22.8713 49.4823 22.71 49.4823 22.5557C49.4823 22.3873 49.4823 22.226 49.4753 22.0506C49.4753 21.8823 49.5033 21.7069 49.5173 21.5246C49.5314 21.3422 49.5524 21.1528 49.5665 20.9704C49.6015 20.7881 49.6436 20.5987 49.6787 20.4093C49.7418 20.0235 49.854 19.6447 49.9663 19.2519C50.0224 19.0555 50.0855 18.8661 50.1627 18.6767C50.2398 18.4873 50.31 18.2979 50.3801 18.1086C50.4292 18.0033 50.4783 17.8981 50.5204 17.7929C50.0013 17.6246 49.4893 17.4562 48.9702 17.2949C48.851 17.4422 48.7388 17.5965 48.6195 17.7508C48.4792 17.9332 48.3389 18.1226 48.2197 18.319C47.9672 18.7118 47.7006 19.1116 47.5042 19.5395C47.399 19.7569 47.2938 19.9604 47.1816 20.1708C47.0974 20.3882 47.0132 20.6057 46.922 20.8231C46.8379 21.0406 46.7467 21.251 46.6765 21.4614C46.6134 21.6789 46.5573 21.8963 46.5012 22.0997C46.4451 22.3102 46.3889 22.5136 46.3328 22.71C46.2907 22.9134 46.2627 23.1379 46.2346 23.3343C46.1785 23.7271 46.1224 24.1409 46.0943 24.4425C46.0803 24.7091 46.0663 24.9476 46.0593 25.137C46.0382 25.5228 46.0242 25.7402 46.0242 25.7402L47.9531 25.5578L49.9312 25.3684C49.9312 25.3684 49.9102 25.2843 49.8751 25.13V25.1159Z" fill="url(#paint4_linear_1_11379)"/>
<path d="M9.62109 40.8283L12.9599 38.9695C14.0822 38.3593 15.1695 37.7069 16.3198 37.1318L19.7849 35.4273C20.9423 34.8731 22.0786 34.2629 23.2641 33.7789L26.7923 32.2568L28.5529 31.4992C29.1421 31.2537 29.7454 31.0433 30.3416 30.8118L33.9329 29.458C35.1254 28.9951 36.3319 28.5672 37.5383 28.1604C38.7518 27.7535 39.9723 27.3607 41.1928 26.989C42.4204 26.6242 43.6479 26.2735 44.8894 25.9578C46.131 25.6422 47.3725 25.3476 48.6351 25.0951C49.2594 24.9548 49.8907 24.8566 50.522 24.7444C51.1533 24.6251 51.7846 24.5339 52.4229 24.4498C53.0542 24.3586 53.6925 24.2744 54.3308 24.2183C54.9691 24.1552 55.6004 24.085 56.2457 24.064C57.5223 23.9798 58.806 23.9658 60.0826 24.0008C60.7209 24.0429 61.3592 24.0499 61.9975 24.1131C62.6358 24.1902 63.2671 24.2463 63.8984 24.3375L65.7783 24.6812L67.6301 25.1512L68.0369 24.9688L67.6371 25.1652L65.7712 24.7514L63.8844 24.4708C63.2531 24.4007 62.6148 24.3656 61.9835 24.3095C61.3522 24.2604 60.7139 24.2744 60.0826 24.2604C58.813 24.2604 57.5434 24.3165 56.2808 24.4427C55.6495 24.4848 55.0182 24.576 54.3939 24.6602C53.7626 24.7373 53.1383 24.8355 52.5141 24.9478C51.8898 25.053 51.2655 25.1652 50.6482 25.2985C50.031 25.4318 49.4067 25.551 48.7894 25.7123C47.5549 25.9999 46.3344 26.3366 45.1139 26.6873C43.8934 27.0451 42.6869 27.4309 41.4874 27.8307C40.288 28.2445 39.0885 28.6654 37.9031 29.1143C36.7036 29.5632 35.5252 30.0262 34.3608 30.5242L30.8466 31.9902C30.2644 32.2357 29.6682 32.4672 29.093 32.7337L27.3675 33.5474L23.9234 35.1677C22.759 35.6798 21.6718 36.3181 20.5495 36.9003L17.2036 38.6819C16.0884 39.2782 15.0152 39.9796 13.9139 40.6179L10.6382 42.589L9.63512 40.8494L9.62109 40.8283Z" fill="url(#paint5_radial_1_11379)"/>
<path d="M101.845 25.8528C101.467 23.0681 101.004 20.3044 100.471 17.5548C101.916 16.9235 107.52 10.9613 114.142 11.4383C125.849 12.287 126.669 23.973 124.558 32.7199C124.299 33.7721 124.018 34.8242 123.716 35.8623C123.604 36.2411 123.492 36.6269 123.373 37.0057C122.398 40.1411 121.212 43.2064 119.851 46.1875C119.725 46.4681 119.599 46.7487 119.466 47.0222C118.266 49.6035 116.94 52.1217 115.524 54.5837C115.348 54.8853 115.173 55.18 114.997 55.4886C114.366 56.5548 113.721 57.6139 113.061 58.6591C112.058 60.2443 111.027 61.8015 109.968 63.3377C109.652 63.8006 109.33 64.2566 109.007 64.7195C107.695 66.5924 106.335 68.4442 104.96 70.2679C103.957 71.6006 96.8232 78.7763 96.753 79.9477C96.739 79.8075 96.725 79.6742 96.7109 79.5269C99.9867 74.4344 101.691 68.1706 102.547 61.8156C102.631 61.1352 102.715 60.4548 102.792 59.7814C103.213 55.8042 103.333 51.8411 103.333 48.1515C103.333 47.6676 103.333 47.1906 103.325 46.7206C103.318 45.921 103.304 45.1213 103.283 44.3357C103.241 42.4068 103.171 40.4989 103.059 38.605C102.989 37.2372 102.891 35.8764 102.785 34.5226C102.61 32.285 102.386 30.0685 102.112 27.8659C102.028 27.1856 101.944 26.5192 101.852 25.8388L101.845 25.8528Z" fill="url(#paint6_radial_1_11379)"/>
<path style="mix-blend-mode:multiply" opacity="0.7" d="M101.845 25.8528C101.467 23.0681 101.004 20.3044 100.471 17.5548C101.916 16.9235 107.52 10.9613 114.142 11.4383C125.849 12.287 126.669 23.973 124.558 32.7199C124.299 33.7721 124.018 34.8242 123.716 35.8623C123.604 36.2411 123.492 36.6269 123.373 37.0057C122.398 40.1411 121.212 43.2064 119.851 46.1875C119.725 46.4681 119.599 46.7487 119.466 47.0222C118.266 49.6035 116.94 52.1217 115.524 54.5837C115.348 54.8853 115.173 55.18 114.997 55.4886C114.366 56.5548 113.721 57.6139 113.061 58.6591C112.058 60.2443 111.027 61.8015 109.968 63.3377C109.652 63.8006 109.33 64.2566 109.007 64.7195C107.695 66.5924 106.335 68.4442 104.96 70.2679C103.957 71.6006 96.8232 78.7763 96.753 79.9477C96.739 79.8075 96.725 79.6742 96.7109 79.5269C99.9867 74.4344 101.691 68.1706 102.547 61.8156C102.631 61.1352 102.715 60.4548 102.792 59.7814C103.213 55.8042 103.333 51.8411 103.333 48.1515C103.333 47.6676 103.333 47.1906 103.325 46.7206C103.318 45.921 103.304 45.1213 103.283 44.3357C103.241 42.4068 103.171 40.4989 103.059 38.605C102.989 37.2372 102.891 35.8764 102.785 34.5226C102.61 32.285 102.386 30.0685 102.112 27.8659C102.028 27.1856 101.944 26.5192 101.852 25.8388L101.845 25.8528Z" fill="url(#paint7_linear_1_11379)"/>
<path d="M78.271 13.5987C84.8926 8.99731 94.4532 13.4865 100.17 17.5969C100.233 17.639 100.331 17.625 100.465 17.5619C100.563 18.0739 100.661 18.593 100.759 19.105C100.878 19.7714 100.998 20.4448 101.117 21.1111C101.622 24.0502 102.029 27.0173 102.351 30.0054C102.429 30.6718 102.499 31.3381 102.562 32.0115V32.0255C102.821 34.712 103.011 37.4336 103.13 40.1762C103.193 41.4879 103.242 42.8066 103.27 44.1324C103.291 44.9951 103.305 45.8719 103.319 46.7417C103.34 49.0214 103.319 51.4133 103.214 53.8683V53.8823C103.186 54.5698 103.151 55.2572 103.109 55.9516C102.927 58.8415 102.611 61.7876 102.099 64.6775C101.987 65.3439 101.853 66.0032 101.713 66.6626C100.724 71.3061 99.1528 75.7532 96.7118 79.548C96.6417 78.4327 96.7609 77.3244 96.6066 76.2021C96.4312 74.9185 95.842 73.698 95.5965 72.4424C95.337 71.1307 94.9442 69.8471 94.5093 68.5705C94.4462 68.3951 94.39 68.2198 94.3269 68.0444C94.1516 67.5534 93.9762 67.0624 93.8008 66.5784C93.1415 64.8388 92.419 63.1273 91.6334 61.4439C91.5352 61.2334 91.437 61.016 91.3388 60.8055C90.483 59.0099 89.5712 57.2422 88.6032 55.5027C88.505 55.3273 88.4068 55.152 88.3156 54.9836C86.7023 52.0867 84.9697 49.2599 83.2021 46.4681C83.1109 46.3208 83.0127 46.1665 82.9215 46.0192C82.2271 44.932 81.5327 43.8448 80.8383 42.7716C79.8282 41.2003 78.6638 39.2854 77.5766 37.1811C77.4714 36.9777 77.3661 36.7743 77.2609 36.5638C75.6757 33.4214 74.2658 29.9072 73.6906 26.4772C72.8489 21.532 73.7327 16.7763 78.285 13.6128L78.271 13.5987Z" fill="url(#paint8_linear_1_11379)"/>
<path d="M77.2461 36.55C77.681 35.8485 78.158 35.084 78.6911 34.3054C79.2242 33.5128 79.8204 32.6921 80.4517 31.8503C81.097 31.0226 81.7774 30.1739 82.5139 29.3532C83.2434 28.5185 84.029 27.7189 84.8357 26.9192C85.2495 26.5334 85.6634 26.1476 86.0912 25.7829C86.5261 25.4252 86.94 25.0394 87.3819 24.7027C87.8238 24.359 88.2587 24.0083 88.7146 23.6996C88.9391 23.5453 89.1635 23.384 89.388 23.2297C89.6195 23.0824 89.8509 22.9351 90.0754 22.7948C90.2999 22.6545 90.5313 22.5072 90.7558 22.3739C90.9873 22.2476 91.2187 22.1214 91.4432 21.9881C91.8921 21.7216 92.3481 21.5041 92.797 21.2937C93.0214 21.1885 93.2389 21.0762 93.4634 20.978C93.6878 20.8869 93.9123 20.8027 94.1227 20.7115C94.3402 20.6273 94.5576 20.5361 94.768 20.452C94.9785 20.3748 95.1959 20.3047 95.3993 20.2345C96.227 19.9399 97.0056 19.7505 97.7 19.5752C98.4085 19.4209 99.0678 19.3227 99.5869 19.2315C100.12 19.1753 100.527 19.1333 100.772 19.1052C100.962 19.0842 101.06 19.0771 101.06 19.0771L101.13 21.1113L101.2 23.1525C101.2 23.1525 100.66 23.1525 99.7202 23.1385C99.2993 23.1665 98.8294 23.1806 98.2401 23.2297C97.6439 23.3138 96.9705 23.384 96.2411 23.5593C96.0587 23.6014 95.8693 23.6295 95.6799 23.6716C95.4905 23.7277 95.3011 23.7768 95.1047 23.8329C94.9083 23.882 94.7119 23.9381 94.5085 23.9942C94.3051 24.0503 94.1087 24.1345 93.8982 24.2047C93.4844 24.3449 93.0635 24.4923 92.6427 24.6746C92.4252 24.7588 92.2148 24.85 91.9903 24.9412C91.7729 25.0394 91.5625 25.1446 91.338 25.2498C91.1205 25.355 90.9031 25.4532 90.6786 25.5655C90.4612 25.6847 90.2437 25.7969 90.0193 25.9232C89.5774 26.1547 89.1425 26.4282 88.7006 26.6948C88.2517 26.9473 87.8308 27.2629 87.3889 27.5505C86.954 27.8451 86.5331 28.1678 86.1053 28.4834C85.2635 29.1358 84.4288 29.8162 83.6502 30.5316C82.8576 31.2331 82.1141 31.9766 81.3986 32.6991C80.6972 33.4356 80.0308 34.1651 79.4276 34.8806C78.8103 35.589 78.2632 36.2904 77.7511 36.9358C77.688 37.0129 77.6319 37.0831 77.5758 37.1602C77.4706 36.9568 77.3653 36.7534 77.2601 36.543L77.2461 36.55ZM83.1943 46.4543C83.4047 46.2018 83.6292 45.9282 83.8747 45.6476C85.6213 43.6065 88.0833 40.9971 90.7909 38.7946C91.1276 38.514 91.4783 38.2545 91.815 37.9949C92.1657 37.7424 92.5094 37.4829 92.8601 37.2374C93.5545 36.7604 94.249 36.3115 94.9434 35.9327C95.1117 35.8415 95.2801 35.7433 95.4484 35.6521C95.6168 35.568 95.7921 35.4838 95.9605 35.3996C96.2901 35.2243 96.6268 35.084 96.9495 34.9507C97.2651 34.8034 97.5878 34.6982 97.8894 34.593C98.191 34.4807 98.4927 34.4036 98.7732 34.3264C99.0538 34.2352 99.3204 34.1931 99.5799 34.144C99.7062 34.123 99.8324 34.102 99.9517 34.0739C100.071 34.0599 100.183 34.0529 100.302 34.0388C100.52 34.0248 100.751 33.9827 100.913 33.9897C101.081 33.9897 101.235 33.9897 101.369 33.9897C101.446 33.9897 101.481 33.9897 101.579 33.9897C101.663 33.9967 101.74 34.0038 101.817 34.0108C101.965 34.0248 102.091 34.0388 102.196 34.0458C102.4 34.0669 102.512 34.0739 102.512 34.0739L102.568 32.0257V32.0117L102.624 29.9845C102.624 29.9845 102.533 29.9845 102.358 30.0056C102.344 30.0056 102.33 30.0056 102.308 30.0056C102.203 30.0056 102.077 30.0196 101.93 30.0266C101.853 30.0266 101.775 30.0336 101.691 30.0406C101.614 30.0406 101.474 30.0687 101.362 30.0757C101.116 30.1108 100.85 30.1458 100.548 30.1879C100.246 30.23 99.9937 30.3142 99.6781 30.3843C99.5308 30.4194 99.3765 30.4615 99.2151 30.5036C99.0608 30.5597 98.8995 30.6088 98.7382 30.6719C98.4085 30.7842 98.0718 30.8964 97.7351 31.0577C97.3914 31.205 97.0337 31.3523 96.69 31.5487C96.3393 31.7311 95.9745 31.9135 95.6238 32.1379C95.266 32.3484 94.9083 32.5728 94.5576 32.8183C94.3822 32.9376 94.1999 33.0638 94.0245 33.1901C93.8491 33.3234 93.6738 33.4566 93.4984 33.5899C92.79 34.123 92.1026 34.7192 91.4292 35.3365C91.0925 35.6451 90.7698 35.9748 90.4331 36.2904C90.1105 36.6201 89.7878 36.9498 89.4722 37.2865C86.961 39.987 84.8497 42.9681 83.3767 45.2618C83.2083 45.5214 83.054 45.7669 82.9067 46.0054C82.9979 46.1527 83.0961 46.307 83.1873 46.4543H83.1943ZM88.6024 55.4888C88.7567 55.2503 88.911 55.0048 89.0794 54.7383C90.3279 52.8093 92.1517 50.3473 94.3051 48.3271C94.5786 48.0746 94.8382 47.8221 95.1258 47.5976C95.3993 47.3521 95.6729 47.1277 95.9535 46.9172C96.5076 46.4823 97.0898 46.0966 97.6439 45.7529C97.9245 45.5845 98.2051 45.4372 98.4786 45.2899C98.7592 45.1566 99.0258 45.0234 99.2923 44.9111C99.5588 44.8059 99.8184 44.7007 100.071 44.6165C100.323 44.5394 100.569 44.4692 100.8 44.3991C101.039 44.35 101.263 44.3009 101.474 44.2518C101.691 44.2167 101.895 44.1957 102.084 44.1746C102.175 44.1676 102.273 44.1466 102.358 44.1466C102.435 44.1466 102.512 44.1466 102.589 44.1466C102.729 44.1466 102.863 44.1395 102.982 44.1325C103.087 44.1325 103.185 44.1325 103.276 44.1466C103.452 44.1466 103.613 44.1606 103.725 44.1676C103.901 44.1746 103.992 44.1816 103.992 44.1816L103.901 40.0993C103.901 40.0993 103.81 40.1133 103.634 40.1273C103.508 40.1484 103.354 40.1554 103.136 40.1904C103.052 40.2045 102.961 40.2115 102.856 40.2325C102.652 40.2676 102.421 40.3167 102.175 40.3658C102.049 40.3939 101.93 40.4149 101.789 40.443C101.663 40.478 101.544 40.5201 101.411 40.5552C101.158 40.6394 100.878 40.7095 100.597 40.8147C100.323 40.927 100.036 41.0392 99.7272 41.1654C99.4326 41.2987 99.138 41.453 98.8293 41.6073C98.5277 41.7757 98.2261 41.9651 97.9175 42.1475C97.6159 42.3439 97.3072 42.5613 96.9986 42.7788C96.704 43.0102 96.4024 43.2417 96.1008 43.4942C95.5186 43.9993 94.9434 44.5464 94.4033 45.1286C94.1297 45.4232 93.8632 45.7178 93.6107 46.0334C93.3441 46.335 93.1056 46.6507 92.8601 46.9663C90.9171 49.5126 89.4792 52.3113 88.5393 54.4507C88.4551 54.6331 88.3849 54.8084 88.3078 54.9838C88.406 55.1521 88.4972 55.3275 88.5954 55.5028L88.6024 55.4888ZM91.6326 61.437C91.7027 61.3318 91.7869 61.2266 91.8641 61.1214C92.334 60.4831 92.9373 59.7886 93.6317 59.1223C94.3331 58.4629 95.1398 57.8456 95.9815 57.3476C96.4094 57.1091 96.8373 56.8847 97.2792 56.7023C97.4966 56.6111 97.7071 56.5269 97.9245 56.4498C98.1419 56.3726 98.3594 56.3025 98.5698 56.2464C98.7803 56.1832 98.9907 56.1271 99.1941 56.0921C99.3975 56.05 99.6009 56.0009 99.7973 55.9798C100.19 55.9167 100.562 55.8886 100.906 55.8606C101.249 55.8606 101.579 55.8325 101.832 55.8536L102.351 55.8816C102.414 55.8816 102.47 55.8957 102.533 55.8957C102.792 55.9237 102.982 55.9377 103.108 55.9518C103.199 55.9588 103.248 55.9658 103.248 55.9658L103.213 53.8825V53.8685L103.178 51.8834C103.178 51.8834 102.919 51.9255 102.463 51.9957C102.407 51.9957 102.344 52.0097 102.28 52.0237C102.203 52.0377 102.126 52.0518 102.042 52.0658C101.881 52.1009 101.705 52.1359 101.516 52.171C101.137 52.2412 100.758 52.3604 100.323 52.4796C99.8955 52.6199 99.4396 52.7672 98.9767 52.9706C98.7382 53.0689 98.5067 53.1811 98.2612 53.3003C98.0157 53.4126 97.7772 53.5458 97.5387 53.6791C97.3002 53.8124 97.0617 53.9597 96.8232 54.121C96.5847 54.2683 96.3533 54.4437 96.1218 54.612C95.6588 54.9557 95.2169 55.3345 94.7961 55.7273C93.9684 56.534 93.2459 57.4178 92.6707 58.3016C92.0955 59.1854 91.6466 60.0482 91.317 60.8057C91.4222 61.0232 91.5204 61.2336 91.6116 61.444L91.6326 61.437ZM94.3261 68.0376C94.4383 67.9464 94.5436 67.8482 94.6698 67.764C94.8241 67.6588 94.9855 67.5536 95.1468 67.4554C95.2941 67.3431 95.4695 67.266 95.6378 67.1818L96.1429 66.9363C96.5076 66.8311 96.8443 66.6838 97.202 66.6066C97.5668 66.5505 97.9035 66.4523 98.2542 66.4313C98.5979 66.4102 98.9276 66.3892 99.2432 66.3751C99.5448 66.3962 99.8254 66.4172 100.085 66.4383C100.211 66.4383 100.33 66.4523 100.45 66.4593C100.597 66.4804 100.73 66.5014 100.857 66.5224C101.109 66.5645 101.326 66.5926 101.509 66.6206C101.586 66.6347 101.656 66.6417 101.719 66.6557C101.951 66.6908 102.077 66.7118 102.077 66.7118L102.105 64.6706L102.133 62.6295C102.133 62.6295 101.923 62.6575 101.558 62.7136C101.376 62.7417 101.151 62.7768 100.899 62.8118C100.772 62.8329 100.632 62.8539 100.499 62.875C100.33 62.917 100.148 62.9521 99.9657 62.9942C99.6009 63.0854 99.2081 63.1766 98.7943 63.2748C98.4085 63.4221 97.9946 63.5764 97.5738 63.7307C97.1599 63.892 96.7461 64.1446 96.3322 64.362C95.9254 64.6005 95.5326 64.9091 95.1468 65.1757L94.6137 65.6667C94.4383 65.828 94.263 65.9823 94.1227 66.1717C94.0175 66.305 93.9123 66.4313 93.8 66.5575C93.9824 67.0415 94.1578 67.5325 94.3261 68.0235V68.0376Z" fill="url(#paint9_linear_1_11379)"/>
<path d="M101.886 23.819C101.886 23.819 102.391 23.8541 103.275 23.9242C103.499 23.9453 103.731 23.9523 104.011 23.9874C104.299 24.0224 104.607 24.0575 104.937 24.0996C105.26 24.1417 105.618 24.1768 105.982 24.2329C106.34 24.296 106.719 24.3661 107.112 24.4363C107.308 24.4714 107.504 24.5064 107.708 24.5415C107.911 24.5906 108.115 24.6397 108.325 24.6888C108.746 24.794 109.181 24.8852 109.616 25.0115C110.058 25.1447 110.507 25.285 110.97 25.4253C111.425 25.5796 111.881 25.762 112.351 25.9304C112.821 26.1057 113.284 26.3372 113.754 26.5406C114.224 26.751 114.68 27.0106 115.15 27.2491C115.606 27.5016 116.062 27.7962 116.511 28.0627C116.946 28.3714 117.395 28.666 117.816 28.9886C118.236 29.3253 118.664 29.6339 119.05 30.0057L119.639 30.5318C119.822 30.7212 120.011 30.9036 120.193 31.0929C120.572 31.4507 120.895 31.8645 121.239 32.2433C121.561 32.6501 121.891 33.0289 122.171 33.4428C122.768 34.2424 123.252 35.0701 123.694 35.8627C123.694 35.8627 123.694 35.8627 123.694 35.8697C123.581 36.2485 123.469 36.6343 123.35 37.0131C123.21 36.8026 123.069 36.5922 122.915 36.3748C122.403 35.6803 121.856 34.9509 121.211 34.2845C120.902 33.9338 120.551 33.6181 120.214 33.2814C119.85 32.9728 119.513 32.6361 119.12 32.3485C118.931 32.2012 118.741 32.0539 118.552 31.8996L117.956 31.4857C117.563 31.1982 117.135 30.9667 116.721 30.7071C116.307 30.4616 115.866 30.2512 115.445 30.0268C115.003 29.8304 114.575 29.6269 114.133 29.4516C113.691 29.2973 113.256 29.1079 112.814 28.9746C112.365 28.8483 111.937 28.694 111.503 28.5958C111.061 28.4976 110.633 28.3854 110.212 28.2942C109.784 28.217 109.37 28.1469 108.963 28.0838C108.557 28.0206 108.157 27.9926 107.771 27.9435C107.582 27.9224 107.392 27.9014 107.203 27.8804L106.649 27.8523C106.284 27.8383 105.94 27.8172 105.618 27.7962C105.288 27.7892 104.986 27.7962 104.706 27.7962C104.418 27.7962 104.152 27.7962 103.906 27.7962C103.661 27.7962 103.401 27.8172 103.184 27.8242C102.707 27.8453 102.335 27.8733 102.103 27.8804C101.9 27.8874 101.795 27.8944 101.795 27.8944L101.844 25.8532L101.893 23.812L101.886 23.819ZM103.05 38.6264H103.078C103.45 38.6474 103.808 38.6965 104.257 38.7456C104.699 38.7807 105.218 38.8859 105.772 38.9701C106.052 39.0122 106.34 39.0893 106.642 39.1525C106.943 39.2156 107.252 39.2857 107.561 39.3769C108.199 39.5312 108.851 39.7417 109.532 39.9802C109.861 40.1134 110.212 40.2327 110.549 40.373C110.885 40.5203 111.236 40.6606 111.573 40.8289C112.253 41.1586 112.941 41.5163 113.6 41.9231L114.098 42.2248L114.582 42.5544C114.912 42.7649 115.213 43.0034 115.529 43.2278C116.139 43.6978 116.728 44.1888 117.261 44.7008C118.096 45.4724 118.833 46.2791 119.457 47.0507C119.59 46.7771 119.716 46.4965 119.843 46.216C119.373 45.4374 118.819 44.6167 118.18 43.803C117.696 43.1857 117.163 42.5685 116.588 41.9722C116.3 41.6776 116.013 41.376 115.697 41.0955L115.234 40.6676L114.75 40.2537C114.105 39.6996 113.432 39.1946 112.744 38.7246C112.4 38.4861 112.05 38.2687 111.699 38.0512C111.348 37.8338 110.998 37.6444 110.647 37.441C109.945 37.0622 109.258 36.7115 108.585 36.4239C108.255 36.2696 107.918 36.1363 107.603 36.017C107.28 35.8978 106.971 35.7575 106.67 35.6593C106.066 35.4629 105.519 35.2595 104.993 35.1262C104.481 34.9859 104.011 34.8456 103.682 34.7755C103.268 34.6773 102.959 34.6071 102.777 34.5651C102.657 34.537 102.601 34.523 102.601 34.523L101.97 38.5703C101.97 38.5703 102.363 38.5983 103.05 38.6474V38.6264ZM102.461 48.1659C102.749 48.1589 103.008 48.166 103.324 48.18H103.429C103.78 48.18 104.208 48.2361 104.664 48.2782C104.895 48.2922 105.127 48.3483 105.372 48.3834C105.618 48.4185 105.87 48.4606 106.13 48.5237C106.649 48.6359 107.175 48.7902 107.729 48.9726C108.269 49.169 108.823 49.4005 109.363 49.6881C109.63 49.8354 109.91 49.9757 110.163 50.151L110.563 50.4035L110.941 50.6841C111.453 51.0559 111.93 51.4697 112.386 51.9186C112.835 52.3676 113.249 52.8445 113.621 53.3356C114.161 54.058 114.617 54.7945 114.989 55.51C115.164 55.2084 115.339 54.9068 115.515 54.6052C115.29 53.9739 115.024 53.3005 114.68 52.6341C114.378 52.0379 114.028 51.4276 113.621 50.8384C113.214 50.2562 112.765 49.674 112.26 49.1409L111.881 48.7411L111.482 48.3624C111.222 48.1028 110.934 47.8784 110.647 47.6469C110.079 47.191 109.482 46.7981 108.886 46.4404C108.283 46.0967 107.68 45.7881 107.098 45.5426C106.803 45.4023 106.522 45.3041 106.235 45.1989C105.954 45.1007 105.688 44.9884 105.421 44.9183C104.895 44.764 104.411 44.6026 103.948 44.5115C103.71 44.4553 103.478 44.4062 103.275 44.3642C103.092 44.3221 102.931 44.294 102.805 44.273C102.223 44.1677 101.893 44.1116 101.893 44.1116L101.535 48.187C101.535 48.187 101.879 48.18 102.468 48.173L102.461 48.1659ZM102.538 61.837C102.629 61.844 102.749 61.858 102.882 61.865C103.071 61.8791 103.289 61.9001 103.548 61.9212C103.766 61.9492 103.948 61.9983 104.194 62.0334C104.313 62.0544 104.439 62.0685 104.572 62.1035C104.706 62.1456 104.853 62.1947 105 62.2368C105.148 62.2859 105.302 62.335 105.463 62.3841C105.618 62.4402 105.765 62.5174 105.926 62.5875C106.087 62.6577 106.249 62.7348 106.417 62.805C106.571 62.8962 106.733 62.9944 106.887 63.0855C107.224 63.2679 107.525 63.4994 107.848 63.7309C108.009 63.8431 108.164 63.9694 108.311 64.1026C108.458 64.2359 108.606 64.3692 108.76 64.4954C108.837 64.5726 108.921 64.6568 108.998 64.7339C109.321 64.278 109.644 63.815 109.959 63.3521C109.861 63.1908 109.763 63.0294 109.658 62.8681C109.539 62.6717 109.412 62.4753 109.272 62.2929C108.998 61.9212 108.718 61.5354 108.402 61.2057C108.241 61.0373 108.087 60.862 107.932 60.6936C107.757 60.5393 107.589 60.392 107.427 60.2377C107.259 60.0904 107.098 59.9361 106.929 59.8028C106.754 59.6766 106.578 59.5503 106.403 59.431C106.235 59.3118 106.066 59.1926 105.905 59.0803C105.737 58.9751 105.54 58.8839 105.372 58.7857C105.028 58.6104 104.678 58.428 104.411 58.3087C104.173 58.2105 103.962 58.1264 103.794 58.0562C103.45 57.9159 103.254 57.8388 103.254 57.8388L102.791 59.8028L102.314 61.8159C102.314 61.8159 102.398 61.823 102.545 61.837H102.538Z" fill="url(#paint10_linear_1_11379)"/>
<path d="M101.452 17.2251L102.055 21.1321C102.244 22.4368 102.49 23.7274 102.623 25.0532L103.037 29.0233C103.17 30.349 103.339 31.6677 103.388 32.9864L103.619 36.9495L103.732 38.9346L103.767 40.9197L103.823 44.8898C103.851 46.2155 103.844 47.5343 103.823 48.853C103.795 50.1787 103.753 51.5044 103.689 52.8231C103.619 54.1418 103.528 55.4675 103.416 56.7862C103.29 58.1049 103.156 59.4236 102.974 60.7353C102.792 62.047 102.588 63.3587 102.322 64.6493C102.202 65.3017 102.062 65.947 101.908 66.5923C101.76 67.2377 101.613 67.883 101.424 68.5213C101.087 69.7979 100.68 71.0605 100.231 72.302C99.9859 72.9193 99.7754 73.5436 99.5019 74.1468C99.2283 74.7501 98.9688 75.3603 98.6812 75.9495L97.7553 77.7031L96.7172 79.3866L96.7522 79.8425L96.7031 79.3796L97.6851 77.668L98.5549 75.8934C98.8285 75.2972 99.06 74.6799 99.3195 74.0767C99.572 73.4664 99.7614 72.8351 99.9859 72.2179C100.393 70.9693 100.757 69.7067 101.052 68.4231C101.22 67.7848 101.347 67.1395 101.473 66.5011C101.613 65.8558 101.725 65.2105 101.824 64.5652C102.048 63.2745 102.202 61.9699 102.343 60.6652C102.483 59.3605 102.581 58.0488 102.658 56.7371C102.728 55.4254 102.778 54.1137 102.806 52.8021C102.827 51.4904 102.827 50.1717 102.813 48.867C102.799 47.5483 102.764 46.2366 102.693 44.9249L102.511 40.9898L102.413 39.0188L102.237 37.0548L101.887 33.1337C101.796 31.822 101.585 30.5314 101.417 29.2337L100.884 25.3478C100.708 24.0571 100.421 22.7594 100.189 21.4618L99.4598 17.5758L101.438 17.2391L101.452 17.2251Z" fill="url(#paint11_radial_1_11379)"/>
<path d="M69.021 106.483C71.4479 107.767 73.903 108.966 76.3931 110.096C76.0704 111.681 77.5855 119.839 73.419 125.162C66.0398 134.562 56.2969 128.529 50.5661 121.718C49.8787 120.891 49.2053 120.049 48.553 119.2C48.3145 118.885 48.076 118.569 47.8445 118.253C45.9156 115.63 44.162 112.859 42.5697 109.997C42.4224 109.731 42.2681 109.464 42.1278 109.191C40.767 106.694 39.5325 104.119 38.3892 101.51C38.2489 101.194 38.1086 100.872 37.9753 100.549C37.4843 99.4057 37.0213 98.2483 36.5654 97.0909C35.885 95.3373 35.2327 93.5627 34.6224 91.7881C34.433 91.255 34.2577 90.7219 34.0823 90.1818C33.3458 87.9933 32.6584 85.7837 31.992 83.5672C31.508 81.9539 29.8947 71.7971 29.0039 71.0605C29.1232 71.1307 29.2354 71.1938 29.3616 71.271C31.5291 76.9667 35.5203 82.01 40.0726 86.387C40.5636 86.8499 41.0546 87.3129 41.5456 87.7618C44.4636 90.4062 47.5359 92.7911 50.4679 94.9095C50.8537 95.183 51.2325 95.4566 51.6042 95.7231C52.2426 96.1791 52.8879 96.621 53.5262 97.0629C55.0834 98.1361 56.6406 99.1742 58.2048 100.17C59.3341 100.893 60.4634 101.601 61.5997 102.289C63.4796 103.425 65.3665 104.512 67.2674 105.55C67.8566 105.873 68.4388 106.189 69.028 106.497L69.021 106.483Z" fill="url(#paint12_radial_1_11379)"/>
<path style="mix-blend-mode:multiply" opacity="0.7" d="M69.021 106.483C71.4479 107.767 73.903 108.966 76.3931 110.096C76.0704 111.681 77.5855 119.839 73.419 125.162C66.0398 134.562 56.2969 128.529 50.5661 121.718C49.8787 120.891 49.2053 120.049 48.553 119.2C48.3145 118.885 48.076 118.569 47.8445 118.253C45.9156 115.63 44.162 112.859 42.5697 109.997C42.4224 109.731 42.2681 109.464 42.1278 109.191C40.767 106.694 39.5325 104.119 38.3892 101.51C38.2489 101.194 38.1086 100.872 37.9753 100.549C37.4843 99.4057 37.0213 98.2483 36.5654 97.0909C35.885 95.3373 35.2327 93.5627 34.6224 91.7881C34.433 91.255 34.2577 90.7219 34.0823 90.1818C33.3458 87.9933 32.6584 85.7837 31.992 83.5672C31.508 81.9539 29.8947 71.7971 29.0039 71.0605C29.1232 71.1307 29.2354 71.1938 29.3616 71.271C31.5291 76.9667 35.5203 82.01 40.0726 86.387C40.5636 86.8499 41.0546 87.3129 41.5456 87.7618C44.4636 90.4062 47.5359 92.7911 50.4679 94.9095C50.8537 95.183 51.2325 95.4566 51.6042 95.7231C52.2426 96.1791 52.8879 96.621 53.5262 97.0629C55.0834 98.1361 56.6406 99.1742 58.2048 100.17C59.3341 100.893 60.4634 101.601 61.5997 102.289C63.4796 103.425 65.3665 104.512 67.2674 105.55C67.8566 105.873 68.4388 106.189 69.028 106.497L69.021 106.483Z" fill="url(#paint13_linear_1_11379)"/>
<path d="M92.2565 93.6189C92.1092 101.861 83.0747 107.353 76.5373 109.822C76.4672 109.85 76.4251 109.941 76.397 110.089C75.9341 109.878 75.4641 109.668 75.0012 109.45C74.3979 109.17 73.8017 108.882 73.2055 108.595C70.5821 107.325 67.9938 105.964 65.4336 104.519C64.8654 104.197 64.2902 103.874 63.722 103.544H63.715C61.4353 102.204 59.1697 100.802 56.9181 99.3286C55.8379 98.6271 54.7717 97.9117 53.6985 97.1681C52.997 96.6912 52.2956 96.2002 51.6012 95.7092C49.7845 94.4185 47.8906 93.0226 46.0037 91.5216H45.9967C45.4706 91.1007 44.9445 90.6728 44.4114 90.2379C42.223 88.4212 40.0625 86.4642 38.0634 84.3599C37.6005 83.8829 37.1516 83.3919 36.7097 82.8869C33.5883 79.3797 30.9649 75.4937 29.3516 71.25C30.2704 71.8322 31.0911 72.5687 32.0661 73.0808C33.1814 73.677 34.4861 73.8734 35.6294 74.3924C36.8219 74.9325 38.0634 75.3324 39.326 75.7041C39.5014 75.7532 39.6767 75.8023 39.8451 75.8514C40.3361 75.9847 40.8271 76.118 41.3111 76.2442C43.0717 76.6861 44.8463 77.0649 46.621 77.3665C46.8454 77.4086 47.0699 77.4437 47.3014 77.4858C49.2163 77.8014 51.1382 78.0399 53.0742 78.2293C53.2706 78.2504 53.46 78.2644 53.6564 78.2854C56.876 78.587 60.1166 78.7554 63.3433 78.8676C63.5186 78.8676 63.687 78.8816 63.8623 78.8887C65.1249 78.9307 66.3805 78.9658 67.6361 79.0009C69.4598 79.05 71.6483 79.1763 73.942 79.4638C74.1665 79.4919 74.3839 79.52 74.6154 79.555C78.0174 80.025 81.6157 80.8597 84.667 82.3397C89.072 84.4791 92.3407 87.9583 92.2425 93.6259L92.2565 93.6189Z" fill="url(#paint14_linear_1_11379)"/>
<path d="M74.6293 79.555C74.9379 80.3266 75.2676 81.1683 75.5833 82.0661C75.9059 82.978 76.2216 83.953 76.5232 84.9631C76.8108 85.9872 77.0984 87.0463 77.3298 88.1406C77.5753 89.2348 77.7647 90.3641 77.9331 91.5005C78.0032 92.0686 78.0734 92.6368 78.1225 93.212C78.1575 93.7872 78.2277 94.3553 78.2347 94.9235C78.2557 95.4987 78.2768 96.0668 78.2628 96.628C78.2628 96.9086 78.2557 97.1891 78.2487 97.4697C78.2347 97.7503 78.2207 98.0238 78.1996 98.2974C78.1786 98.571 78.1716 98.8445 78.1435 99.1111C78.1155 99.3776 78.0804 99.6512 78.0523 99.9107C78.0032 100.444 77.912 100.956 77.8279 101.454C77.7858 101.699 77.7437 101.952 77.6946 102.197C77.6385 102.443 77.5824 102.674 77.5333 102.913C77.4771 103.144 77.421 103.376 77.3719 103.607C77.3158 103.832 77.2457 104.049 77.1825 104.267C76.944 105.129 76.6494 105.894 76.3899 106.588C76.1093 107.269 75.8077 107.893 75.5833 108.377C75.3237 108.861 75.1273 109.226 75.0081 109.45C74.9169 109.619 74.8678 109.71 74.8678 109.71L73.2124 108.602L71.55 107.486C71.55 107.486 71.8656 107.037 72.4057 106.245C72.6232 105.873 72.8827 105.466 73.1773 104.94C73.4509 104.393 73.7806 103.776 74.0611 103.06C74.1313 102.885 74.2155 102.709 74.2926 102.52C74.3557 102.331 74.4259 102.141 74.489 101.938C74.5592 101.741 74.6293 101.545 74.7065 101.342C74.7766 101.138 74.8257 100.921 74.8888 100.71C75.0151 100.282 75.1414 99.8406 75.2325 99.3776C75.2887 99.1461 75.3378 98.9147 75.3939 98.6762C75.443 98.4377 75.478 98.1922 75.5271 97.9537C75.5692 97.7082 75.6113 97.4627 75.6534 97.2172C75.6815 96.9647 75.7165 96.7122 75.7516 96.4526C75.8218 95.9476 75.8568 95.4215 75.8919 94.8954C75.941 94.3694 75.941 93.8363 75.962 93.2962C75.9761 92.756 75.962 92.2159 75.962 91.6758C75.92 90.5886 75.8638 89.4944 75.7446 88.4282C75.6394 87.355 75.478 86.3028 75.3097 85.2787C75.1203 84.2616 74.9309 83.2796 74.7065 82.3537C74.496 81.4278 74.2575 80.558 74.0331 79.7584C74.005 79.6672 73.984 79.576 73.9559 79.4848C74.1804 79.5129 74.3978 79.5409 74.6293 79.576V79.555ZM63.3572 78.8746C63.4344 79.2043 63.5255 79.548 63.6097 79.9127C64.227 82.5571 64.8933 86.1415 65.0897 89.6978C65.1178 90.1467 65.1248 90.5886 65.1388 91.0235C65.1388 91.4654 65.1529 91.9003 65.1388 92.3422C65.1178 93.205 65.0757 94.0467 64.9845 94.8533C64.9635 95.0497 64.9354 95.2462 64.9144 95.4426C64.8863 95.639 64.8513 95.8283 64.8232 96.0177C64.7741 96.3965 64.6969 96.7613 64.6128 97.112C64.5496 97.4627 64.4514 97.7924 64.3602 98.108C64.2761 98.4307 64.1638 98.7253 64.0656 99.0059C63.9745 99.2934 63.8552 99.546 63.75 99.7915C63.6939 99.9107 63.6448 100.03 63.5957 100.149C63.5396 100.254 63.4764 100.36 63.4203 100.465C63.3081 100.661 63.2099 100.879 63.1117 101.012C63.0135 101.152 62.9223 101.279 62.8451 101.398C62.796 101.461 62.782 101.496 62.7259 101.573C62.6698 101.636 62.6207 101.699 62.5716 101.763C62.4734 101.882 62.3962 101.98 62.3261 102.064C62.1928 102.225 62.1227 102.317 62.1227 102.317L63.7149 103.544H63.7219L65.3002 104.765C65.3002 104.765 65.3493 104.688 65.4405 104.526C65.4545 104.512 65.4615 104.498 65.4685 104.484C65.5246 104.393 65.5878 104.281 65.6649 104.154C65.707 104.091 65.7491 104.021 65.7912 103.944C65.8333 103.881 65.8964 103.748 65.9525 103.642C66.0647 103.418 66.191 103.165 66.3243 102.892C66.4575 102.618 66.5417 102.352 66.661 102.043C66.7171 101.896 66.7732 101.741 66.8293 101.58C66.8714 101.419 66.9275 101.25 66.9696 101.082C67.0678 100.738 67.173 100.388 67.2361 100.009C67.3133 99.6372 67.4045 99.2514 67.4466 98.8515C67.5027 98.4517 67.5658 98.0379 67.5869 97.617C67.6219 97.1961 67.65 96.7613 67.657 96.3264C67.657 96.1089 67.664 95.8845 67.671 95.66C67.671 95.4355 67.657 95.2111 67.657 94.9866C67.636 94.0818 67.5588 93.1629 67.4536 92.237C67.4045 91.774 67.3273 91.3111 67.2642 90.8481C67.187 90.3852 67.1099 89.9222 67.0187 89.4663C66.3173 85.7908 65.1599 82.2906 64.1849 79.7303C64.0727 79.4427 63.9674 79.1622 63.8622 78.9026C63.6939 78.9026 63.5185 78.8886 63.3432 78.8816L63.3572 78.8746ZM53.0881 78.2433C53.1863 78.5098 53.2986 78.7834 53.4108 79.078C54.2245 81.2384 55.1293 84.1985 55.5081 87.1796C55.5502 87.5584 55.5993 87.9231 55.6203 88.2949C55.6624 88.6667 55.6764 89.0244 55.6835 89.3891C55.7115 90.1116 55.6835 90.8201 55.6414 91.4864C55.6133 91.8231 55.5712 92.1458 55.5362 92.4614C55.48 92.7701 55.4309 93.0787 55.3748 93.3663C55.2977 93.6539 55.2416 93.9345 55.1644 94.194C55.0802 94.4465 54.996 94.699 54.9189 94.9375C54.8207 95.169 54.7365 95.3864 54.6523 95.5899C54.5612 95.7933 54.4559 95.9756 54.3718 96.151C54.3227 96.2352 54.2876 96.3264 54.2385 96.3965C54.1964 96.4667 54.1543 96.5298 54.1052 96.5929C54.0281 96.7192 53.9579 96.8314 53.8878 96.9296C53.8317 97.0138 53.7685 97.0979 53.7124 97.1751C53.6072 97.3224 53.502 97.4487 53.4389 97.5399C53.3336 97.6801 53.2775 97.7573 53.2775 97.7573L56.5673 100.03C56.5673 100.03 56.6094 99.9458 56.6935 99.7845C56.7496 99.6652 56.8338 99.5249 56.925 99.3285C56.9601 99.2514 57.0092 99.1672 57.0513 99.069C57.1354 98.8726 57.2336 98.6551 57.3389 98.4167C57.388 98.2974 57.4371 98.1782 57.4932 98.0449C57.5353 97.9186 57.5773 97.7924 57.6194 97.6661C57.7036 97.4066 57.8018 97.126 57.879 96.8314C57.9491 96.5368 58.0263 96.2282 58.0964 95.8985C58.1525 95.5758 58.2086 95.2321 58.2577 94.8814C58.2998 94.5307 58.3209 94.1659 58.3559 93.8012C58.37 93.4294 58.377 93.0507 58.377 92.6649C58.363 92.2861 58.3489 91.8933 58.3209 91.4935C58.2507 90.7149 58.1525 89.9082 57.9912 89.1156C57.914 88.7158 57.8299 88.3159 57.7317 87.9231C57.6405 87.5233 57.5282 87.1375 57.423 86.7517C56.5182 83.6444 55.1153 80.8176 53.9579 78.7904C53.8597 78.6151 53.7615 78.4537 53.6633 78.2924C53.4739 78.2713 53.2775 78.2573 53.0811 78.2363L53.0881 78.2433ZM46.6349 77.3805C46.677 77.4998 46.7121 77.626 46.7541 77.7593C46.9926 78.5239 47.1961 79.4357 47.3293 80.4037C47.4556 81.3717 47.4766 82.4098 47.3925 83.4129C47.3363 83.9109 47.2662 84.4019 47.161 84.8789C47.1049 85.1104 47.0558 85.3418 46.9856 85.5733C46.9225 85.7978 46.8523 86.0222 46.7752 86.2327C46.705 86.4431 46.6279 86.6535 46.5437 86.8499C46.4595 87.0463 46.3824 87.2427 46.2842 87.4251C46.1088 87.7969 45.9124 88.1266 45.7441 88.4282C45.5477 88.7228 45.3793 89.0104 45.218 89.2138L44.8953 89.6346C44.8532 89.6837 44.8182 89.7328 44.7831 89.7819C44.6148 89.9854 44.4885 90.1397 44.4113 90.2379C44.3482 90.315 44.3202 90.3501 44.3202 90.3501L45.9896 91.5145H45.9966L47.5959 92.6368C47.5959 92.6368 47.7151 92.3983 47.9185 91.9704C47.9466 91.9143 47.9746 91.8652 47.9957 91.8021C48.0308 91.7319 48.0658 91.6548 48.1009 91.5776C48.1711 91.4233 48.2412 91.255 48.3184 91.0726C48.4797 90.7078 48.5989 90.3221 48.7532 89.8942C48.8795 89.4523 49.0268 88.9823 49.132 88.4703C49.1952 88.2107 49.2372 87.9512 49.2793 87.6776C49.3284 87.4111 49.3635 87.1305 49.3916 86.8499C49.4266 86.5694 49.4407 86.2818 49.4547 85.9942C49.4757 85.7066 49.4687 85.412 49.4687 85.1174C49.4687 84.5282 49.4126 83.939 49.3425 83.3568C49.1741 82.1924 48.8865 81.0701 48.5148 80.0811C48.143 79.085 47.7151 78.2082 47.3013 77.4928C47.0698 77.4577 46.8453 77.4156 46.6209 77.3735L46.6349 77.3805ZM39.852 75.8584C39.859 76.0057 39.873 76.153 39.873 76.3003C39.873 76.4897 39.859 76.6861 39.845 76.8825C39.845 77.0719 39.8099 77.2683 39.7819 77.4577L39.6836 78.0258C39.5644 78.3976 39.4802 78.7624 39.3329 79.1061C39.1646 79.4498 39.0524 79.7865 38.87 80.0951C38.6876 80.3967 38.5193 80.6843 38.3509 80.9649C38.1615 81.2034 37.9862 81.4278 37.8178 81.6382C37.7407 81.7435 37.6635 81.8417 37.5934 81.9329C37.4952 82.0451 37.404 82.1433 37.3128 82.2415C37.1374 82.4309 36.9831 82.5992 36.8569 82.7325C36.8007 82.7956 36.7516 82.8447 36.7095 82.8938C36.5482 83.0692 36.457 83.1674 36.457 83.1674L38.0633 84.3668L39.6626 85.5663C39.6626 85.5663 39.7608 85.3699 39.9221 85.0332C40.0063 84.8649 40.1115 84.6544 40.2238 84.4159C40.2799 84.2967 40.343 84.1704 40.4061 84.0372C40.4693 83.8688 40.5464 83.7005 40.6166 83.5181C40.7498 83.1604 40.9042 82.7746 41.0655 82.3677C41.1707 81.9539 41.2829 81.519 41.4022 81.0771C41.5144 80.6282 41.5495 80.1372 41.6126 79.6672C41.6617 79.1832 41.6336 78.6852 41.6407 78.2012L41.5565 77.4717C41.5284 77.2332 41.5004 76.9947 41.4372 76.7633C41.3952 76.6019 41.3531 76.4336 41.318 76.2722C40.834 76.146 40.336 76.0127 39.852 75.8794V75.8584Z" fill="url(#paint15_linear_1_11379)"/>
<path d="M70.6152 107.697C70.6152 107.697 70.2996 108.104 69.7385 108.812C69.5912 108.987 69.4579 109.177 69.2685 109.401C69.0791 109.626 68.8687 109.864 68.6512 110.117C68.4338 110.369 68.2023 110.65 67.9498 110.923C67.6973 111.19 67.4237 111.47 67.1431 111.758C67.0028 111.905 66.8555 112.046 66.7153 112.2C66.5609 112.34 66.4066 112.488 66.2383 112.635C65.9156 112.929 65.5929 113.245 65.2422 113.54C64.8845 113.834 64.5127 114.136 64.141 114.445C63.7622 114.739 63.3554 115.027 62.9485 115.321C62.5417 115.616 62.0928 115.875 61.6649 116.156C61.23 116.437 60.76 116.668 60.3041 116.928C59.8412 117.173 59.3501 117.384 58.8802 117.608C58.3822 117.797 57.8982 118.008 57.4001 118.176C56.8951 118.338 56.4041 118.52 55.885 118.639L55.1275 118.836C54.868 118.885 54.6154 118.934 54.3629 118.983C53.8649 119.095 53.3458 119.137 52.8548 119.207C52.3498 119.242 51.8588 119.306 51.3748 119.306C50.3998 119.348 49.4599 119.277 48.5831 119.2C48.5831 119.2 48.5831 119.2 48.5761 119.2C48.3376 118.885 48.0991 118.569 47.8676 118.253C48.1131 118.253 48.3656 118.253 48.6181 118.253C49.4669 118.218 50.3577 118.176 51.2556 118.015C51.7115 117.959 52.1674 117.839 52.6234 117.748C53.0793 117.615 53.5422 117.524 53.9912 117.363C54.2156 117.285 54.4401 117.215 54.6786 117.138L55.3519 116.872C55.8009 116.703 56.2358 116.479 56.6707 116.275C57.0985 116.065 57.5194 115.819 57.9403 115.588C58.3471 115.321 58.7609 115.083 59.1537 114.809C59.5325 114.522 59.9253 114.262 60.2901 113.968C60.6478 113.659 61.0126 113.385 61.3422 113.077C61.6719 112.761 62.0086 112.459 62.3172 112.158C62.6189 111.842 62.9135 111.527 63.201 111.225C63.4886 110.916 63.7412 110.594 64.0007 110.299C64.1269 110.152 64.2532 110.004 64.3795 109.857L64.7162 109.408C64.9406 109.114 65.151 108.833 65.3545 108.566C65.5509 108.293 65.7122 108.033 65.8805 107.795C66.0419 107.549 66.1962 107.325 66.3365 107.115C66.4768 106.904 66.61 106.673 66.7293 106.483C66.9888 106.062 67.1782 105.74 67.3045 105.536C67.4097 105.361 67.4658 105.263 67.4658 105.263L69.0581 106.476L70.6503 107.69L70.6152 107.697ZM58.1998 100.163L58.1858 100.184C57.9613 100.486 57.7158 100.759 57.4142 101.11C57.1336 101.461 56.7548 101.84 56.362 102.261C56.1656 102.471 55.9412 102.674 55.7237 102.892C55.5063 103.109 55.2678 103.327 55.0223 103.544C54.5313 103.986 53.9912 104.421 53.416 104.863C53.1214 105.066 52.8268 105.291 52.5181 105.494C52.2095 105.691 51.8939 105.908 51.5712 106.097C50.9189 106.483 50.2455 106.862 49.544 107.185L49.018 107.43L48.4849 107.648C48.1341 107.802 47.7694 107.921 47.4117 108.061C46.6892 108.307 45.9667 108.517 45.2512 108.679C44.157 108.938 43.0978 109.1 42.1298 109.177C42.2771 109.443 42.4244 109.717 42.5717 109.983C43.4556 110.04 44.4235 110.04 45.4406 109.962C46.2122 109.913 47.0048 109.815 47.8045 109.675C48.2043 109.598 48.6111 109.527 49.0109 109.429L49.6142 109.282L50.2174 109.114C51.0241 108.889 51.8097 108.609 52.5813 108.3C52.9671 108.153 53.3388 107.97 53.7106 107.809C54.0823 107.641 54.4401 107.451 54.7978 107.269C55.4993 106.897 56.1726 106.511 56.7829 106.111C57.0985 105.922 57.3931 105.719 57.6737 105.515C57.9543 105.312 58.2349 105.129 58.4944 104.933C58.9994 104.533 59.4694 104.19 59.8762 103.825C60.2831 103.474 60.6618 103.151 60.9003 102.92C61.216 102.625 61.4545 102.408 61.5877 102.275C61.6789 102.19 61.721 102.148 61.721 102.148L58.8732 99.2935C58.8732 99.2935 58.6277 99.6091 58.1928 100.156L58.1998 100.163ZM50.9609 94.18C50.8066 94.4255 50.6453 94.6359 50.4559 94.9025L50.3928 94.9866C50.1964 95.2883 49.9088 95.6109 49.6072 95.9757C49.4599 96.1651 49.2845 96.3264 49.1162 96.5158C48.9478 96.6982 48.7725 96.8946 48.5761 97.0699C48.1903 97.4417 47.7624 97.7994 47.3065 98.1571C46.8435 98.5009 46.3385 98.8375 45.8054 99.1251C45.5318 99.2654 45.2653 99.4197 44.9777 99.539L44.5498 99.7284L44.1079 99.8897C43.5187 100.107 42.9155 100.268 42.2982 100.395C41.6879 100.514 41.0707 100.591 40.4674 100.626C39.5836 100.668 38.7349 100.626 37.9633 100.528C38.1036 100.851 38.2369 101.173 38.3771 101.489C39.0084 101.664 39.6958 101.819 40.4183 101.917C41.0637 102.008 41.7511 102.057 42.4525 102.057C43.1469 102.05 43.8624 102.001 44.5779 101.882L45.111 101.791L45.637 101.664C45.9948 101.594 46.3315 101.482 46.6822 101.37C47.3696 101.152 48.0219 100.879 48.6462 100.577C49.2635 100.268 49.8527 99.9318 50.3788 99.5811C50.6523 99.4127 50.9048 99.2303 51.1433 99.055C51.3818 98.8726 51.6273 98.7113 51.8377 98.5289C52.2656 98.1712 52.6654 97.8555 53.0021 97.5188C53.1845 97.3435 53.3599 97.1821 53.5072 97.0348C53.6404 96.9086 53.7597 96.7893 53.8509 96.6911C54.2647 96.2633 54.5032 96.0107 54.5032 96.0107L51.473 93.3663C51.473 93.3663 51.2836 93.6609 50.9539 94.1589L50.9609 94.18ZM40.0606 86.38C40.0045 86.4501 39.9273 86.5483 39.8361 86.6536C39.7169 86.8009 39.5766 86.9762 39.4153 87.1867C39.268 87.355 39.1277 87.4813 38.9593 87.6706C38.8752 87.7618 38.791 87.853 38.6858 87.9512C38.5735 88.0424 38.4543 88.1336 38.3351 88.2318C38.2088 88.33 38.0825 88.4282 37.9563 88.5404C37.823 88.6386 37.6757 88.7228 37.5284 88.814C37.3741 88.9052 37.2268 89.0034 37.0725 89.1016C36.9111 89.1787 36.7428 89.2559 36.5815 89.3401C36.2448 89.5154 35.887 89.6417 35.5223 89.782C35.3399 89.8521 35.1505 89.9082 34.9611 89.9573C34.7717 90.0064 34.5824 90.0555 34.393 90.1046C34.2878 90.1257 34.1755 90.1467 34.0703 90.1678C34.2457 90.7079 34.428 91.241 34.6104 91.7741C34.7998 91.7881 34.9822 91.7881 35.1646 91.8021C35.389 91.8161 35.6135 91.8232 35.8379 91.8021C36.2939 91.7881 36.7568 91.767 37.1987 91.6899C37.4232 91.6548 37.6476 91.6197 37.8721 91.5917C38.0896 91.5356 38.307 91.4794 38.5244 91.4233C38.7349 91.3672 38.9523 91.3181 39.1557 91.255C39.3592 91.1778 39.5556 91.1007 39.752 91.0235C39.9414 90.9464 40.1307 90.8762 40.3201 90.7991C40.5025 90.7149 40.6849 90.6026 40.8602 90.5115C41.1969 90.3221 41.5406 90.1327 41.7931 89.9784C42.0106 89.8311 42.193 89.7048 42.3473 89.5996C42.6559 89.3892 42.8313 89.2699 42.8313 89.2699L41.5336 87.7478L40.2079 86.1836C40.2079 86.1836 40.1518 86.2467 40.0606 86.366V86.38Z" fill="url(#paint16_linear_1_11379)"/>
<path d="M76.0979 111.091L72.6258 109.338C71.4755 108.741 70.297 108.208 69.1607 107.549L65.7517 105.606C64.6154 104.954 63.465 104.329 62.3848 103.607L59.0881 101.51L57.4397 100.457L55.8404 99.3351C53.722 97.827 51.5476 96.382 49.4924 94.7968C48.4542 94.0112 47.4301 93.2045 46.4131 92.3908C45.403 91.5702 44.4069 90.7284 43.4249 89.8727C42.4499 89.0029 41.489 88.1261 40.556 87.2212C39.6231 86.3094 38.7113 85.3835 37.8345 84.4155C37.3855 83.9455 36.9647 83.4475 36.5438 82.9495C36.1159 82.4585 35.7021 81.9604 35.3093 81.4414C34.9095 80.9293 34.5026 80.4243 34.1309 79.8842C33.7591 79.3511 33.3593 78.832 33.0226 78.2779C32.3071 77.1907 31.6618 76.0614 31.0586 74.911C30.778 74.3218 30.4834 73.7466 30.2168 73.1504L29.4874 71.3477L29.1016 71.1162L29.4944 71.3407L30.28 73.1223C30.5676 73.7045 30.8762 74.2727 31.1708 74.8479C31.8091 75.9702 32.4895 77.0784 33.233 78.1306C33.5838 78.6707 33.9976 79.1757 34.3834 79.6878C34.7622 80.2069 35.183 80.6979 35.5969 81.1959C36.0037 81.6939 36.4316 82.1849 36.8735 82.6549C37.3084 83.1318 37.7433 83.6088 38.1992 84.0648C39.0971 84.9977 40.03 85.8815 40.9839 86.7583C41.9379 87.6281 42.9199 88.4698 43.9089 89.2975C44.912 90.1112 45.9221 90.9178 46.9532 91.6964C47.9843 92.475 49.0294 93.2396 50.0816 93.9831C52.1859 95.4982 54.3744 96.859 56.5348 98.2899L58.1551 99.3491L59.8175 100.338L63.1494 102.309C64.2506 102.99 65.394 103.572 66.5303 104.175L69.9393 105.978C71.0686 106.581 72.2751 107.086 73.4465 107.647L76.9747 109.288L76.0979 111.098V111.091Z" fill="url(#paint17_radial_1_11379)"/>
<path d="M73.6504 59.7391C73.6504 64.8035 69.547 68.9139 64.4756 68.9139C59.4042 68.9139 55.3008 64.8105 55.3008 59.7391C55.3008 54.6677 59.4042 50.5713 64.4756 50.5713C69.547 50.5713 73.6504 54.6747 73.6504 59.7391Z" fill="url(#paint18_radial_1_11379)"/>
<path style="mix-blend-mode:multiply" opacity="0.7" d="M73.6504 59.7391C73.6504 64.8035 69.547 68.9139 64.4756 68.9139C59.4042 68.9139 55.3008 64.8105 55.3008 59.7391C55.3008 54.6677 59.4042 50.5713 64.4756 50.5713C69.547 50.5713 73.6504 54.6747 73.6504 59.7391Z" fill="url(#paint19_linear_1_11379)"/>
<path d="M64.4773 67.5674C60.1634 67.5674 56.6562 64.0602 56.6562 59.7463C56.6562 55.4325 60.1634 51.9253 64.4773 51.9253C68.7911 51.9253 72.2983 55.4325 72.2983 59.7463C72.2983 64.0602 68.7911 67.5674 64.4773 67.5674Z" fill="url(#paint20_linear_1_11379)"/>
<path d="M35.395 114.536C35.395 114.536 34.6515 114.094 33.3539 113.322C33.0312 113.126 32.6735 112.929 32.2807 112.67C31.8879 112.403 31.46 112.116 31.0111 111.814C30.5621 111.505 30.0781 111.183 29.5731 110.839C29.0891 110.474 28.5841 110.088 28.058 109.689C27.5389 109.275 26.9708 108.882 26.4307 108.412C25.8906 107.949 25.3294 107.465 24.7612 106.967C24.179 106.483 23.6249 105.943 23.0567 105.382C22.4956 104.821 21.8924 104.274 21.3312 103.67C20.2159 102.457 19.0515 101.215 17.9924 99.8475C17.4452 99.1811 16.8981 98.5077 16.4001 97.7852C15.8951 97.0698 15.369 96.3754 14.878 95.6459C14.408 94.9093 13.9451 94.1658 13.4751 93.4363C12.9911 92.7138 12.6193 91.9282 12.1845 91.1847C11.3147 89.7047 10.6553 88.1405 9.93985 86.6815C9.34363 85.1594 8.67726 83.7284 8.24237 82.2975C8.00388 81.589 7.77241 80.9016 7.54795 80.2423C7.36557 79.5689 7.1832 78.9095 7.01485 78.2853C6.85352 77.654 6.66413 77.0648 6.54489 76.4826C6.42565 75.9004 6.31342 75.3532 6.2082 74.8342C6.10298 74.3151 6.00478 73.8381 5.9136 73.3892C5.85047 72.9403 5.78734 72.5264 5.73122 72.1477C5.52079 70.6536 5.39453 69.7979 5.39453 69.7979C5.39453 69.7979 5.56989 70.6396 5.87151 72.1196C5.94867 72.4914 6.03284 72.8982 6.12403 73.3401C6.24327 73.775 6.36953 74.252 6.50982 74.757C6.64309 75.2621 6.79039 75.8022 6.94471 76.3703C7.09201 76.9385 7.31647 77.5137 7.51989 78.1309C7.72331 78.7412 7.94075 79.3725 8.16521 80.0318C8.42474 80.6772 8.69831 81.3365 8.97187 82.0169C9.48392 83.3987 10.2274 84.7665 10.9008 86.2185C11.6934 87.6144 12.4229 89.0944 13.3629 90.4903C13.8258 91.1917 14.2327 91.9282 14.7517 92.6086C15.2497 93.296 15.7478 93.9834 16.2458 94.6709C16.7648 95.3442 17.312 95.9896 17.8451 96.6489C18.3641 97.3153 18.9323 97.9325 19.5075 98.5428C20.6087 99.7984 21.8082 100.921 22.9445 102.022C23.5197 102.569 24.1299 103.053 24.6981 103.558C25.2733 104.056 25.8344 104.547 26.4237 104.975C26.9988 105.417 27.56 105.838 28.1001 106.252C28.6402 106.665 29.2013 107.009 29.7204 107.367C30.2465 107.718 30.7445 108.054 31.2215 108.37C31.7125 108.658 32.1754 108.931 32.6103 109.184C33.0452 109.443 33.4521 109.682 33.8238 109.899C34.2026 110.117 34.5954 110.299 34.9251 110.474C36.2648 111.162 37.0364 111.561 37.0364 111.561L35.4021 114.515L35.395 114.536Z" fill="#A1EA40"/>
<path d="M122.182 61.6615C122.182 61.6615 122.119 62.6505 122.014 64.376C121.986 64.8109 121.958 65.2879 121.923 65.807C121.853 66.3471 121.776 66.9293 121.698 67.5535C121.537 68.7951 121.376 70.205 121.032 71.685C120.878 72.4285 120.716 73.2071 120.555 74.0068C120.352 74.7994 120.113 75.6131 119.882 76.4478C119.468 78.1383 118.773 79.8427 118.156 81.6314C117.812 82.5152 117.406 83.385 117.02 84.2758C116.823 84.7177 116.627 85.1667 116.431 85.6156C116.206 86.0505 115.975 86.4924 115.743 86.9273C115.273 87.7971 114.852 88.7089 114.333 89.5647C113.814 90.4204 113.288 91.2762 112.762 92.132C112.236 92.9877 111.619 93.7803 111.051 94.601L110.181 95.8145C109.865 96.2003 109.556 96.5861 109.241 96.9649C108.61 97.7224 108.027 98.508 107.368 99.2095C106.709 99.9109 106.063 100.612 105.425 101.3C104.794 101.987 104.085 102.583 103.44 103.208C102.781 103.825 102.156 104.442 101.476 104.961C100.817 105.501 100.171 106.027 99.5469 106.539C98.9297 107.059 98.2703 107.472 97.6741 107.914C97.0639 108.342 96.4817 108.756 95.9345 109.149C95.3594 109.507 94.8052 109.843 94.2932 110.159C93.7811 110.475 93.2971 110.769 92.8552 111.05C92.4063 111.323 91.9714 111.527 91.5926 111.73C90.0565 112.537 89.1797 113 89.1797 113C89.1797 113 90.0284 112.495 91.5155 111.604C91.8802 111.379 92.3081 111.148 92.736 110.86C93.1639 110.566 93.6268 110.243 94.1248 109.899C94.6158 109.556 95.1419 109.191 95.696 108.812C96.2221 108.391 96.7763 107.949 97.3585 107.493C97.9266 107.023 98.5579 106.582 99.1401 106.034C99.7293 105.501 100.333 104.947 100.957 104.372C101.595 103.818 102.184 103.18 102.795 102.541C103.398 101.889 104.057 101.272 104.646 100.563C105.236 99.8618 105.839 99.1463 106.442 98.4168C107.052 97.7014 107.578 96.8947 108.161 96.1231C108.441 95.7373 108.729 95.3445 109.016 94.9517L109.795 93.7242C110.3 92.8965 110.861 92.0899 111.331 91.2341C111.794 90.3784 112.257 89.5226 112.72 88.6668C113.183 87.8111 113.541 86.9132 113.947 86.0505C114.144 85.6156 114.34 85.1807 114.537 84.7528C114.705 84.3109 114.866 83.869 115.035 83.4271C115.357 82.5433 115.708 81.6875 115.989 80.8248C116.494 79.0782 117.069 77.4158 117.378 75.7744C117.553 74.9607 117.742 74.1751 117.897 73.4106C118.016 72.639 118.128 71.8955 118.233 71.173C118.493 69.742 118.563 68.4374 118.654 67.28C118.703 66.7048 118.745 66.1647 118.787 65.6667C118.787 65.1476 118.794 64.6636 118.801 64.2357C118.815 62.5032 118.822 61.5142 118.822 61.5142L122.196 61.6334L122.182 61.6615Z" fill="#A1EA40"/>
<path d="M35.6008 5.6513C35.6008 5.6513 36.3864 5.30759 37.7542 4.70435C38.4205 4.38871 39.3044 4.05903 40.3285 3.68025C40.8335 3.49087 41.3736 3.29446 41.9418 3.07702C42.5169 2.90166 43.1202 2.71928 43.7445 2.52288C44.993 2.10903 46.3749 1.78637 47.8409 1.43565C48.5633 1.23925 49.3279 1.12 50.1065 0.979716C50.8851 0.853457 51.6707 0.671084 52.4774 0.579897C53.291 0.481695 54.1117 0.383494 54.9464 0.285292C55.7811 0.166048 56.6299 0.166048 57.4856 0.0959041C59.2042 -0.051398 60.9087 0.0187459 62.6903 0.00471708C64.4018 0.123962 66.0923 0.159034 67.8038 0.411551C68.6525 0.530796 69.5013 0.579897 70.322 0.748242C71.1426 0.895544 71.9493 1.04285 72.7489 1.19015C73.5416 1.33044 74.3131 1.5549 75.0707 1.73026C75.8212 1.91964 76.5648 2.08097 77.2662 2.31946C78.6831 2.75436 80.0158 3.14716 81.2153 3.63115C81.8185 3.85561 82.3937 4.07306 82.9408 4.27648C83.4739 4.51497 83.986 4.73943 84.463 4.94986C85.4169 5.37072 86.2516 5.73547 86.911 6.10022C88.2437 6.78763 89.0013 7.17342 89.0013 7.17342C89.0013 7.17342 88.2156 6.82971 86.8478 6.22648C86.1745 5.91083 85.3187 5.59518 84.3437 5.23745C83.8597 5.05507 83.3407 4.86568 82.7935 4.66227C82.2394 4.49392 81.6502 4.31155 81.0399 4.12917C79.8264 3.72234 78.4797 3.41371 77.0628 3.07702C76.3613 2.88763 75.6178 2.7754 74.8673 2.63511C74.1097 2.50885 73.3522 2.33349 72.5596 2.24231C71.7739 2.15112 70.9673 2.05292 70.1606 1.95472C69.354 1.83547 68.5333 1.84249 67.7056 1.77936C66.0712 1.63205 64.3387 1.70921 62.6342 1.68817C60.9998 1.80741 59.2813 1.84249 57.654 2.08799C56.8333 2.20022 56.0126 2.25633 55.22 2.41767C54.4274 2.56497 53.6418 2.70526 52.8632 2.85256C52.0916 2.99284 51.3481 3.21029 50.6115 3.37864C49.882 3.56101 49.1596 3.71533 48.4792 3.9468C47.1044 4.36766 45.8067 4.75345 44.6493 5.22342C44.0671 5.44086 43.506 5.6513 42.9729 5.85471C42.4608 6.07917 41.9698 6.29662 41.5139 6.50004C40.602 6.89986 39.8094 7.25058 39.136 7.61532C37.8033 8.30273 37.0457 8.68852 37.0457 8.68852L35.5938 5.64428L35.6008 5.6513Z" fill="#A1EA40"/>
</g>
<defs>
<radialGradient id="paint0_radial_1_11379" cx="0" cy="0" r="1" gradientUnits="userSpaceOnUse" gradientTransform="translate(30.197 10.1679) rotate(75.27) scale(29.5648 36.5454)">
<stop stop-color="#7FDB1A"/>
<stop offset="0.2" stop-color="#7AD218"/>
<stop offset="0.51" stop-color="#6CBB14"/>
<stop offset="0.9" stop-color="#57960D"/>
<stop offset="0.98" stop-color="#528E0C"/>
</radialGradient>
<linearGradient id="paint1_linear_1_11379" x1="26.3917" y1="1.7834" x2="34.786" y2="25.8612" gradientUnits="userSpaceOnUse">
<stop stop-color="#5FA712" stop-opacity="0"/>
<stop offset="0.13" stop-color="#5EA511" stop-opacity="0.05"/>
<stop offset="0.32" stop-color="#5CA210" stop-opacity="0.2"/>
<stop offset="0.56" stop-color="#599C0F" stop-opacity="0.44"/>
<stop offset="0.82" stop-color="#54930D" stop-opacity="0.77"/>
<stop offset="0.98" stop-color="#528E0C"/>
</linearGradient>
<linearGradient id="paint2_linear_1_11379" x1="29.7855" y1="28.0297" x2="44.8969" y2="52.4095" gradientUnits="userSpaceOnUse">
<stop offset="0.05" stop-color="#5CA605"/>
<stop offset="0.56" stop-color="#8EE22B"/>
<stop offset="0.68" stop-color="#90E32E"/>
<stop offset="0.77" stop-color="#99E637"/>
<stop offset="0.85" stop-color="#A7EC48"/>
<stop offset="0.93" stop-color="#BCF55F"/>
<stop offset="0.99" stop-color="#D4FF7A"/>
</linearGradient>
<linearGradient id="paint3_linear_1_11379" x1="32.9953" y1="29.488" x2="40.5263" y2="56.829" gradientUnits="userSpaceOnUse">
<stop stop-color="#8CDF29"/>
<stop offset="0.12" stop-color="#82D124"/>
<stop offset="0.5" stop-color="#68AC17"/>
<stop offset="0.81" stop-color="#57960E"/>
<stop offset="1" stop-color="#528E0C"/>
</linearGradient>
<linearGradient id="paint4_linear_1_11379" x1="28.1572" y1="10.3752" x2="34.3936" y2="33.0162" gradientUnits="userSpaceOnUse">
<stop stop-color="#54990F"/>
<stop offset="0.76" stop-color="#54990F"/>
<stop offset="1" stop-color="#5CA512"/>
</linearGradient>
<radialGradient id="paint5_radial_1_11379" cx="0" cy="0" r="1" gradientUnits="userSpaceOnUse" gradientTransform="translate(39.0464 32.8033) scale(21.927 21.0499)">
<stop stop-color="#8EE22B"/>
<stop offset="0.37" stop-color="#8DE12A" stop-opacity="0.99"/>
<stop offset="0.51" stop-color="#8ADD29" stop-opacity="0.96"/>
<stop offset="0.6" stop-color="#86D828" stop-opacity="0.92"/>
<stop offset="0.68" stop-color="#7FCF25" stop-opacity="0.85"/>
<stop offset="0.75" stop-color="#77C522" stop-opacity="0.76"/>
<stop offset="0.81" stop-color="#6DB81E" stop-opacity="0.64"/>
<stop offset="0.86" stop-color="#61A819" stop-opacity="0.51"/>
<stop offset="0.91" stop-color="#529614" stop-opacity="0.36"/>
<stop offset="0.95" stop-color="#43820E" stop-opacity="0.19"/>
<stop offset="0.96" stop-color="#407E0D" stop-opacity="0.15"/>
</radialGradient>
<radialGradient id="paint6_radial_1_11379" cx="0" cy="0" r="1" gradientUnits="userSpaceOnUse" gradientTransform="translate(108.078 42.6472) rotate(-177.14) scale(28.3329 38.1878)">
<stop stop-color="#7FDB1A"/>
<stop offset="0.2" stop-color="#7AD218"/>
<stop offset="0.51" stop-color="#6CBB14"/>
<stop offset="0.9" stop-color="#57960D"/>
<stop offset="0.98" stop-color="#528E0C"/>
</radialGradient>
<linearGradient id="paint7_linear_1_11379" x1="120.238" y1="42.6813" x2="95.7955" y2="43.2211" gradientUnits="userSpaceOnUse">
<stop stop-color="#5FA712" stop-opacity="0"/>
<stop offset="0.13" stop-color="#5EA511" stop-opacity="0.05"/>
<stop offset="0.32" stop-color="#5CA210" stop-opacity="0.2"/>
<stop offset="0.56" stop-color="#599C0F" stop-opacity="0.44"/>
<stop offset="0.82" stop-color="#54930D" stop-opacity="0.77"/>
<stop offset="0.98" stop-color="#528E0C"/>
</linearGradient>
<linearGradient id="paint8_linear_1_11379" x1="107.408" y1="41.5287" x2="79.9929" y2="47.9793" gradientUnits="userSpaceOnUse">
<stop offset="0.05" stop-color="#5CA605"/>
<stop offset="0.56" stop-color="#8EE22B"/>
<stop offset="0.68" stop-color="#90E32E"/>
<stop offset="0.77" stop-color="#99E637"/>
<stop offset="0.85" stop-color="#A7EC48"/>
<stop offset="0.93" stop-color="#BCF55F"/>
<stop offset="0.99" stop-color="#D4FF7A"/>
</linearGradient>
<linearGradient id="paint9_linear_1_11379" x1="103.974" y1="43.9251" x2="76.9041" y2="42.4354" gradientUnits="userSpaceOnUse">
<stop stop-color="#8CDF29"/>
<stop offset="0.12" stop-color="#82D124"/>
<stop offset="0.5" stop-color="#68AC17"/>
<stop offset="0.81" stop-color="#57960E"/>
<stop offset="1" stop-color="#528E0C"/>
</linearGradient>
<linearGradient id="paint10_linear_1_11379" x1="123.167" y1="45.2767" x2="100.748" y2="44.0429" gradientUnits="userSpaceOnUse">
<stop stop-color="#54990F"/>
<stop offset="0.76" stop-color="#54990F"/>
<stop offset="1" stop-color="#5CA512"/>
</linearGradient>
<radialGradient id="paint11_radial_1_11379" cx="0" cy="0" r="1" gradientUnits="userSpaceOnUse" gradientTransform="translate(100.014 48.3136) scale(22.425 23.0977)">
<stop stop-color="#8EE22B"/>
<stop offset="0.37" stop-color="#8DE12A" stop-opacity="0.99"/>
<stop offset="0.51" stop-color="#8ADD29" stop-opacity="0.96"/>
<stop offset="0.6" stop-color="#86D828" stop-opacity="0.92"/>
<stop offset="0.68" stop-color="#7FCF25" stop-opacity="0.85"/>
<stop offset="0.75" stop-color="#77C522" stop-opacity="0.76"/>
<stop offset="0.81" stop-color="#6DB81E" stop-opacity="0.64"/>
<stop offset="0.86" stop-color="#61A819" stop-opacity="0.51"/>
<stop offset="0.91" stop-color="#529614" stop-opacity="0.36"/>
<stop offset="0.95" stop-color="#43820E" stop-opacity="0.19"/>
<stop offset="0.96" stop-color="#407E0D" stop-opacity="0.15"/>
</radialGradient>
<radialGradient id="paint12_radial_1_11379" cx="0" cy="0" r="1" gradientUnits="userSpaceOnUse" gradientTransform="translate(41.3761 112.382) rotate(-53.11) scale(29.1542 37.3666)">
<stop stop-color="#7FDB1A"/>
<stop offset="0.2" stop-color="#7AD218"/>
<stop offset="0.51" stop-color="#6CBB14"/>
<stop offset="0.9" stop-color="#57960D"/>
<stop offset="0.98" stop-color="#528E0C"/>
</radialGradient>
<linearGradient id="paint13_linear_1_11379" x1="35.658" y1="118.702" x2="49.2067" y2="97.5058" gradientUnits="userSpaceOnUse">
<stop stop-color="#5FA712" stop-opacity="0"/>
<stop offset="0.13" stop-color="#5EA511" stop-opacity="0.05"/>
<stop offset="0.32" stop-color="#5CA210" stop-opacity="0.2"/>
<stop offset="0.56" stop-color="#599C0F" stop-opacity="0.44"/>
<stop offset="0.82" stop-color="#54930D" stop-opacity="0.77"/>
<stop offset="0.98" stop-color="#528E0C"/>
</linearGradient>
<linearGradient id="paint14_linear_1_11379" x1="53.262" y1="102.298" x2="63.9893" y2="75.467" gradientUnits="userSpaceOnUse">
<stop offset="0.05" stop-color="#5CA605"/>
<stop offset="0.56" stop-color="#8EE22B"/>
<stop offset="0.68" stop-color="#90E32E"/>
<stop offset="0.77" stop-color="#99E637"/>
<stop offset="0.85" stop-color="#A7EC48"/>
<stop offset="0.93" stop-color="#BCF55F"/>
<stop offset="0.99" stop-color="#D4FF7A"/>
</linearGradient>
<linearGradient id="paint15_linear_1_11379" x1="53.3668" y1="97.865" x2="70.3757" y2="76.2428" gradientUnits="userSpaceOnUse">
<stop stop-color="#8CDF29"/>
<stop offset="0.12" stop-color="#82D124"/>
<stop offset="0.5" stop-color="#68AC17"/>
<stop offset="0.81" stop-color="#57960E"/>
<stop offset="1" stop-color="#528E0C"/>
</linearGradient>
<linearGradient id="paint16_linear_1_11379" x1="41.0337" y1="113.314" x2="55.0588" y2="95.4848" gradientUnits="userSpaceOnUse">
<stop stop-color="#54990F"/>
<stop offset="0.76" stop-color="#54990F"/>
<stop offset="1" stop-color="#5CA512"/>
</linearGradient>
<radialGradient id="paint17_radial_1_11379" cx="0" cy="0" r="1" gradientUnits="userSpaceOnUse" gradientTransform="translate(52.7821 90.8898) scale(22.3759)">
<stop stop-color="#8EE22B"/>
<stop offset="0.37" stop-color="#8DE12A" stop-opacity="0.99"/>
<stop offset="0.51" stop-color="#8ADD29" stop-opacity="0.96"/>
<stop offset="0.6" stop-color="#86D828" stop-opacity="0.92"/>
<stop offset="0.68" stop-color="#7FCF25" stop-opacity="0.85"/>
<stop offset="0.75" stop-color="#77C522" stop-opacity="0.76"/>
<stop offset="0.81" stop-color="#6DB81E" stop-opacity="0.64"/>
<stop offset="0.86" stop-color="#61A819" stop-opacity="0.51"/>
<stop offset="0.91" stop-color="#529614" stop-opacity="0.36"/>
<stop offset="0.95" stop-color="#43820E" stop-opacity="0.19"/>
<stop offset="0.96" stop-color="#407E0D" stop-opacity="0.15"/>
</radialGradient>
<radialGradient id="paint18_radial_1_11379" cx="0" cy="0" r="1" gradientUnits="userSpaceOnUse" gradientTransform="translate(62.4905 59.8017) scale(11.2511 14.5139)">
<stop stop-color="#7FDB1A"/>
<stop offset="0.2" stop-color="#7AD218"/>
<stop offset="0.51" stop-color="#6CBB14"/>
<stop offset="0.9" stop-color="#57960D"/>
<stop offset="0.98" stop-color="#528E0C"/>
</radialGradient>
<linearGradient id="paint19_linear_1_11379" x1="55.8198" y1="60.3914" x2="71.0831" y2="59.2481" gradientUnits="userSpaceOnUse">
<stop stop-color="#5FA712" stop-opacity="0"/>
<stop offset="0.18" stop-color="#5DA411" stop-opacity="0.05"/>
<stop offset="0.46" stop-color="#5A9E10" stop-opacity="0.2"/>
<stop offset="0.79" stop-color="#55940D" stop-opacity="0.44"/>
<stop offset="0.98" stop-color="#528E0C" stop-opacity="0.6"/>
</linearGradient>
<linearGradient id="paint20_linear_1_11379" x1="68.1598" y1="70.1346" x2="61.6365" y2="51.7219" gradientUnits="userSpaceOnUse">
<stop stop-color="#5FA712" stop-opacity="0"/>
<stop offset="0.11" stop-color="#65AA17" stop-opacity="0.04"/>
<stop offset="0.26" stop-color="#76B328" stop-opacity="0.14"/>
<stop offset="0.46" stop-color="#91C243" stop-opacity="0.3"/>
<stop offset="0.56" stop-color="#A3CC54" stop-opacity="0.41"/>
<stop offset="0.64" stop-color="#B0D361" stop-opacity="0.5"/>
<stop offset="0.8" stop-color="#D4E784" stop-opacity="0.73"/>
<stop offset="0.98" stop-color="#FFFFAE"/>
</linearGradient>
</defs>
</svg>
