<svg width="92" height="18" viewBox="0 0 92 18" fill="none" xmlns="http://www.w3.org/2000/svg">
<circle cx="90" cy="2" r="2" transform="rotate(90 90 2)" fill="black"/>
<circle cx="68" cy="2" r="2" transform="rotate(90 68 2)" fill="black"/>
<circle cx="46" cy="2" r="2" transform="rotate(90 46 2)" fill="black"/>
<circle cx="24" cy="2" r="2" transform="rotate(90 24 2)" fill="black"/>
<circle cx="2" cy="2" r="2" transform="rotate(90 2 2)" fill="black"/>
<circle cx="90" cy="16" r="2" transform="rotate(90 90 16)" fill="black"/>
<circle cx="68" cy="16" r="2" transform="rotate(90 68 16)" fill="black"/>
<circle cx="46" cy="16" r="2" transform="rotate(90 46 16)" fill="black"/>
<circle cx="24" cy="16" r="2" transform="rotate(90 24 16)" fill="black"/>
<circle cx="2" cy="16" r="2" transform="rotate(90 2 16)" fill="black"/>
</svg>
