<svg width="462" height="998" viewBox="0 0 462 998" fill="none" xmlns="http://www.w3.org/2000/svg">
<g opacity="0.15">
<path d="M-137.188 886.27C-116.775 864.644 -59.6592 811.142 5.50003 770.149C86.949 718.906 128.501 665.718 120.142 617.661C111.783 569.605 26.6124 401.733 55.0164 233.176C66.424 154.436 72.1539 96.3207 73.5928 77.1054" stroke="url(#paint0_linear_1_11440)" stroke-width="2"/>
<path d="M-124.24 910.525C-103.827 888.898 -46.7119 835.397 18.4473 794.403C99.8963 743.161 141.448 689.972 133.089 641.916C124.731 593.859 39.5597 425.988 67.9637 257.431C79.3713 178.691 85.1011 120.575 86.5401 101.36" stroke="url(#paint1_linear_1_11440)" stroke-width="2"/>
<path d="M-135.959 906.716C-115.553 885.078 -58.4509 831.553 6.70607 790.556C88.1523 739.309 129.684 686.086 121.291 637.969C112.897 589.851 27.5812 421.73 55.8838 252.996C67.2433 174.173 72.9367 115.995 74.3634 96.7582" stroke="url(#paint2_linear_1_11440)" stroke-width="2"/>
<path d="M-139.746 898.324C-119.34 876.686 -62.238 823.161 2.91896 782.164C84.3652 730.917 125.897 677.694 117.503 629.577C109.11 581.459 23.794 413.337 52.0967 244.604C63.4562 165.781 69.1496 107.603 70.5763 88.3661" stroke="url(#paint3_linear_1_11440)" stroke-width="2"/>
<path d="M-130.582 809.71C-110.169 788.084 -53.0537 734.583 12.1055 693.589C93.5545 642.347 135.106 589.158 126.747 541.101C118.389 493.045 33.2179 325.174 61.6219 156.616C73.0295 77.8763 78.7593 19.7608 80.1983 0.545585" stroke="url(#paint4_linear_1_11440)" stroke-width="2"/>
<path d="M-117.635 833.965C-97.2219 812.339 -40.1064 758.837 25.0528 717.843C106.502 666.601 148.053 613.413 139.695 565.356C131.336 517.3 46.1652 349.428 74.5691 180.871C85.9768 102.131 91.7066 44.0155 93.1456 24.8002" stroke="url(#paint5_linear_1_11440)" stroke-width="2"/>
<path d="M-129.354 830.156C-108.947 808.519 -51.8454 754.994 13.3115 713.996C94.7577 662.749 136.29 609.527 127.896 561.409C119.502 513.291 34.1866 345.17 62.4892 176.437C73.8488 97.6136 79.5421 39.4349 80.9689 20.1984" stroke="url(#paint6_linear_1_11440)" stroke-width="2"/>
<path d="M-133.141 821.764C-112.734 800.127 -55.6325 746.602 9.52443 705.604C90.9706 654.357 132.503 601.134 124.109 553.017C115.715 504.899 30.3995 336.778 58.7021 168.045C70.0617 89.2215 75.755 31.0428 77.1818 11.8063" stroke="url(#paint7_linear_1_11440)" stroke-width="2"/>
<path d="M-128.16 968.815C-107.747 947.189 -50.6318 893.688 14.5274 852.694C95.9764 801.452 137.528 748.263 129.169 700.206C120.811 652.15 35.6398 484.279 64.0438 315.721C75.4514 236.981 81.1812 178.866 82.6202 159.651" stroke="url(#paint8_linear_1_11440)" stroke-width="2"/>
<path d="M-115.213 993.07C-94.8001 971.444 -37.6846 917.942 27.4746 876.948C108.924 825.706 150.475 772.518 142.117 724.461C133.758 676.405 48.587 508.533 76.991 339.976C88.3986 261.236 94.1285 203.12 95.5675 183.905" stroke="url(#paint9_linear_1_11440)" stroke-width="2"/>
<path d="M-126.932 989.261C-106.525 967.624 -49.4235 914.099 15.7334 873.101C97.1796 821.854 138.712 768.632 130.318 720.514C121.924 672.396 36.6085 504.275 64.9111 335.542C76.2707 256.719 81.964 198.54 83.3907 179.303" stroke="url(#paint10_linear_1_11440)" stroke-width="2"/>
<path d="M-130.719 980.869C-110.312 959.232 -53.2107 905.707 11.9463 864.709C93.3925 813.462 134.925 760.239 126.531 712.122C118.137 664.004 32.8214 495.883 61.124 327.15C72.4836 248.326 78.1769 190.148 79.6036 170.911" stroke="url(#paint11_linear_1_11440)" stroke-width="2"/>
<path d="M-121.555 892.256C-101.142 870.629 -44.0264 817.128 21.1328 776.134C102.582 724.892 144.133 671.703 135.775 623.647C127.416 575.59 42.2452 407.719 70.6492 239.162C82.0568 160.422 87.7867 102.306 89.2257 83.091" stroke="url(#paint12_linear_1_11440)" stroke-width="2"/>
<path d="M-108.607 916.51C-88.1946 894.884 -31.0791 841.383 34.0801 800.389C115.529 749.147 157.081 695.958 148.722 647.902C140.363 599.845 55.1925 431.974 83.5965 263.416C95.0041 184.676 100.734 126.561 102.173 107.346" stroke="url(#paint13_linear_1_11440)" stroke-width="2"/>
<path d="M-120.326 912.702C-99.9199 891.064 -42.8181 837.539 22.3389 796.541C103.785 745.294 145.317 692.072 136.923 643.954C128.53 595.837 43.214 427.715 71.5166 258.982C82.8761 180.159 88.5695 121.98 89.9962 102.744" stroke="url(#paint14_linear_1_11440)" stroke-width="2"/>
<path d="M-124.113 904.31C-103.707 882.672 -46.6052 829.147 18.5518 788.149C99.998 736.902 141.53 683.68 133.136 635.562C124.742 587.445 39.4269 419.323 67.7295 250.59C79.089 171.767 84.7824 113.588 86.2091 94.3517" stroke="url(#paint15_linear_1_11440)" stroke-width="2"/>
</g>
<defs>
<linearGradient id="paint0_linear_1_11440" x1="-286.029" y1="628.469" x2="222.435" y2="334.907" gradientUnits="userSpaceOnUse">
<stop stop-color="#39CA6E"/>
<stop offset="1" stop-color="#39CA6E" stop-opacity="0"/>
</linearGradient>
<linearGradient id="paint1_linear_1_11440" x1="-273.082" y1="652.723" x2="235.382" y2="359.162" gradientUnits="userSpaceOnUse">
<stop stop-color="white"/>
<stop offset="1" stop-color="white" stop-opacity="0"/>
</linearGradient>
<linearGradient id="paint2_linear_1_11440" x1="-285.03" y1="648.518" x2="223.434" y2="354.956" gradientUnits="userSpaceOnUse">
<stop stop-color="#39CA6E"/>
<stop offset="1" stop-color="#39CA6E" stop-opacity="0"/>
</linearGradient>
<linearGradient id="paint3_linear_1_11440" x1="-288.817" y1="640.126" x2="219.647" y2="346.564" gradientUnits="userSpaceOnUse">
<stop stop-color="#39CA6E"/>
<stop offset="1" stop-color="#39CA6E" stop-opacity="0"/>
</linearGradient>
<linearGradient id="paint4_linear_1_11440" x1="-279.424" y1="551.909" x2="229.04" y2="258.347" gradientUnits="userSpaceOnUse">
<stop stop-color="#39CA6E"/>
<stop offset="1" stop-color="#39CA6E" stop-opacity="0"/>
</linearGradient>
<linearGradient id="paint5_linear_1_11440" x1="-266.477" y1="576.164" x2="241.987" y2="282.602" gradientUnits="userSpaceOnUse">
<stop stop-color="white"/>
<stop offset="1" stop-color="white" stop-opacity="0"/>
</linearGradient>
<linearGradient id="paint6_linear_1_11440" x1="-278.424" y1="571.958" x2="230.04" y2="278.397" gradientUnits="userSpaceOnUse">
<stop stop-color="#39CA6E"/>
<stop offset="1" stop-color="#39CA6E" stop-opacity="0"/>
</linearGradient>
<linearGradient id="paint7_linear_1_11440" x1="-282.211" y1="563.566" x2="226.253" y2="270.004" gradientUnits="userSpaceOnUse">
<stop stop-color="#39CA6E"/>
<stop offset="1" stop-color="#39CA6E" stop-opacity="0"/>
</linearGradient>
<linearGradient id="paint8_linear_1_11440" x1="-277.002" y1="711.014" x2="231.462" y2="417.452" gradientUnits="userSpaceOnUse">
<stop stop-color="#39CA6E"/>
<stop offset="1" stop-color="#39CA6E" stop-opacity="0"/>
</linearGradient>
<linearGradient id="paint9_linear_1_11440" x1="-264.055" y1="735.269" x2="244.409" y2="441.707" gradientUnits="userSpaceOnUse">
<stop stop-color="white"/>
<stop offset="1" stop-color="white" stop-opacity="0"/>
</linearGradient>
<linearGradient id="paint10_linear_1_11440" x1="-276.002" y1="731.063" x2="232.462" y2="437.501" gradientUnits="userSpaceOnUse">
<stop stop-color="#39CA6E"/>
<stop offset="1" stop-color="#39CA6E" stop-opacity="0"/>
</linearGradient>
<linearGradient id="paint11_linear_1_11440" x1="-279.79" y1="722.671" x2="228.674" y2="429.109" gradientUnits="userSpaceOnUse">
<stop stop-color="#39CA6E"/>
<stop offset="1" stop-color="#39CA6E" stop-opacity="0"/>
</linearGradient>
<linearGradient id="paint12_linear_1_11440" x1="-270.396" y1="634.454" x2="238.067" y2="340.893" gradientUnits="userSpaceOnUse">
<stop stop-color="#39CA6E"/>
<stop offset="1" stop-color="#39CA6E" stop-opacity="0"/>
</linearGradient>
<linearGradient id="paint13_linear_1_11440" x1="-257.449" y1="658.709" x2="251.015" y2="365.147" gradientUnits="userSpaceOnUse">
<stop stop-color="white"/>
<stop offset="1" stop-color="white" stop-opacity="0"/>
</linearGradient>
<linearGradient id="paint14_linear_1_11440" x1="-269.397" y1="654.504" x2="239.067" y2="360.942" gradientUnits="userSpaceOnUse">
<stop stop-color="#39CA6E"/>
<stop offset="1" stop-color="#39CA6E" stop-opacity="0"/>
</linearGradient>
<linearGradient id="paint15_linear_1_11440" x1="-273.184" y1="646.112" x2="235.28" y2="352.55" gradientUnits="userSpaceOnUse">
<stop stop-color="#39CA6E"/>
<stop offset="1" stop-color="#39CA6E" stop-opacity="0"/>
</linearGradient>
</defs>
</svg>
