<svg width="780" height="968" viewBox="0 0 780 968" fill="none" xmlns="http://www.w3.org/2000/svg">
<g opacity="0.15">
<path d="M889.074 595.768C867.223 575.596 813.092 519.077 771.378 454.376C719.237 373.5 665.591 332.541 617.63 341.431C569.669 350.322 402.752 437.348 233.89 410.814C155.029 400.28 96.8531 395.194 77.6231 393.968" stroke="url(#paint0_linear_1_11419)" stroke-width="2"/>
<path d="M913.188 582.553C891.336 562.381 837.205 505.862 795.492 441.161C743.35 360.285 689.704 319.326 641.743 328.216C593.782 337.107 426.865 424.133 258.003 397.599C179.142 387.065 120.966 381.979 101.736 380.753" stroke="url(#paint1_linear_1_11419)" stroke-width="2"/>
<path d="M909.508 594.313C887.645 574.148 833.491 517.643 791.773 452.945C739.627 372.071 685.947 331.132 637.926 340.058C589.904 348.985 422.738 436.158 253.702 409.727C174.758 399.242 116.52 394.194 97.2686 392.98" stroke="url(#paint2_linear_1_11419)" stroke-width="2"/>
<path d="M901.156 598.193C879.294 578.028 825.139 521.523 783.422 456.824C731.275 375.951 677.596 335.011 629.574 343.938C581.553 352.865 414.387 440.038 245.35 413.607C166.406 403.122 108.168 398.074 88.917 396.86" stroke="url(#paint3_linear_1_11419)" stroke-width="2"/>
<path d="M812.449 590.012C790.598 569.84 736.467 513.321 694.753 448.62C642.612 367.744 588.966 326.784 541.005 335.675C493.044 344.566 326.127 431.592 157.265 405.057C78.4035 394.523 20.2281 389.438 0.998106 388.212" stroke="url(#paint4_linear_1_11419)" stroke-width="2"/>
<path d="M836.562 576.797C814.711 556.625 760.58 500.106 718.867 435.405C666.725 354.529 613.079 313.569 565.118 322.46C517.157 331.351 350.24 418.377 181.378 391.843C102.517 381.308 44.3414 376.223 25.1114 374.997" stroke="url(#paint5_linear_1_11419)" stroke-width="2"/>
<path d="M832.883 588.557C811.02 568.392 756.866 511.887 715.148 447.188C663.002 366.315 609.322 325.375 561.301 334.302C513.279 343.228 346.113 430.402 177.077 403.971C98.1329 393.486 39.8947 388.437 20.6436 387.224" stroke="url(#paint6_linear_1_11419)" stroke-width="2"/>
<path d="M824.531 592.437C802.669 572.272 748.514 515.767 706.797 451.068C654.65 370.195 600.971 329.255 552.949 338.182C504.928 347.108 337.762 434.282 168.725 407.851C89.7813 397.365 31.5431 392.317 12.292 391.104" stroke="url(#paint7_linear_1_11419)" stroke-width="2"/>
<path d="M971.516 585.826C949.664 565.654 895.533 509.135 853.82 444.434C801.678 363.558 748.032 322.599 700.071 331.489C652.11 340.38 485.193 427.406 316.331 400.872C237.47 390.338 179.295 385.252 160.065 384.026" stroke="url(#paint8_linear_1_11419)" stroke-width="2"/>
<path d="M995.629 572.611C973.778 552.439 919.647 495.92 877.933 431.219C825.791 350.343 772.146 309.384 724.185 318.274C676.224 327.165 509.307 414.191 340.445 387.657C261.583 377.123 203.408 372.037 184.178 370.811" stroke="url(#paint9_linear_1_11419)" stroke-width="2"/>
<path d="M991.949 584.372C970.087 564.206 915.932 507.701 874.215 443.003C822.068 362.129 768.389 321.19 720.367 330.116C672.346 339.043 505.18 426.216 336.143 399.785C257.199 389.3 198.961 384.252 179.71 383.038" stroke="url(#paint10_linear_1_11419)" stroke-width="2"/>
<path d="M983.598 588.251C961.735 568.086 907.58 511.581 865.863 446.883C813.717 366.009 760.037 325.07 712.016 333.996C663.994 342.923 496.828 430.096 327.792 403.665C248.848 393.18 190.61 388.132 171.358 386.918" stroke="url(#paint11_linear_1_11419)" stroke-width="2"/>
<path d="M894.887 580.07C873.035 559.898 818.904 503.379 777.191 438.678C725.049 357.802 671.403 316.842 623.442 325.733C575.481 334.624 408.564 421.65 239.702 395.116C160.841 384.581 102.666 379.496 83.4356 378.27" stroke="url(#paint12_linear_1_11419)" stroke-width="2"/>
<path d="M919 566.855C897.149 546.683 843.018 490.164 801.304 425.463C749.162 344.587 695.517 303.627 647.556 312.518C599.595 321.409 432.678 408.435 263.816 381.901C184.954 371.366 126.779 366.281 107.549 365.055" stroke="url(#paint13_linear_1_11419)" stroke-width="2"/>
<path d="M915.32 578.615C893.458 558.45 839.303 501.945 797.586 437.246C745.439 356.373 691.76 315.433 643.738 324.36C595.717 333.286 428.551 420.46 259.515 394.029C180.57 383.544 122.332 378.495 103.081 377.282" stroke="url(#paint14_linear_1_11419)" stroke-width="2"/>
<path d="M906.969 582.495C885.106 562.33 830.952 505.825 789.234 441.126C737.088 360.253 683.408 319.313 635.387 328.24C587.365 337.166 420.199 424.34 251.163 397.909C172.219 387.424 113.981 382.375 94.7295 381.162" stroke="url(#paint15_linear_1_11419)" stroke-width="2"/>
</g>
<defs>
<linearGradient id="paint0_linear_1_11419" x1="632.938" y1="747.458" x2="333.759" y2="242.278" gradientUnits="userSpaceOnUse">
<stop stop-color="#39CA6E"/>
<stop offset="1" stop-color="#39CA6E" stop-opacity="0"/>
</linearGradient>
<linearGradient id="paint1_linear_1_11419" x1="657.051" y1="734.243" x2="357.873" y2="229.064" gradientUnits="userSpaceOnUse">
<stop stop-color="white"/>
<stop offset="1" stop-color="white" stop-opacity="0"/>
</linearGradient>
<linearGradient id="paint2_linear_1_11419" x1="652.978" y1="746.237" x2="353.799" y2="241.057" gradientUnits="userSpaceOnUse">
<stop stop-color="#39CA6E"/>
<stop offset="1" stop-color="#39CA6E" stop-opacity="0"/>
</linearGradient>
<linearGradient id="paint3_linear_1_11419" x1="644.626" y1="750.116" x2="345.447" y2="244.937" gradientUnits="userSpaceOnUse">
<stop stop-color="#39CA6E"/>
<stop offset="1" stop-color="#39CA6E" stop-opacity="0"/>
</linearGradient>
<linearGradient id="paint4_linear_1_11419" x1="556.313" y1="741.701" x2="257.134" y2="236.522" gradientUnits="userSpaceOnUse">
<stop stop-color="#39CA6E"/>
<stop offset="1" stop-color="#39CA6E" stop-opacity="0"/>
</linearGradient>
<linearGradient id="paint5_linear_1_11419" x1="580.426" y1="728.487" x2="281.248" y2="223.307" gradientUnits="userSpaceOnUse">
<stop stop-color="white"/>
<stop offset="1" stop-color="white" stop-opacity="0"/>
</linearGradient>
<linearGradient id="paint6_linear_1_11419" x1="576.353" y1="740.48" x2="277.174" y2="235.301" gradientUnits="userSpaceOnUse">
<stop stop-color="#39CA6E"/>
<stop offset="1" stop-color="#39CA6E" stop-opacity="0"/>
</linearGradient>
<linearGradient id="paint7_linear_1_11419" x1="568.001" y1="744.36" x2="268.822" y2="239.181" gradientUnits="userSpaceOnUse">
<stop stop-color="#39CA6E"/>
<stop offset="1" stop-color="#39CA6E" stop-opacity="0"/>
</linearGradient>
<linearGradient id="paint8_linear_1_11419" x1="715.379" y1="737.516" x2="416.201" y2="232.337" gradientUnits="userSpaceOnUse">
<stop stop-color="#39CA6E"/>
<stop offset="1" stop-color="#39CA6E" stop-opacity="0"/>
</linearGradient>
<linearGradient id="paint9_linear_1_11419" x1="739.493" y1="724.301" x2="440.314" y2="219.122" gradientUnits="userSpaceOnUse">
<stop stop-color="white"/>
<stop offset="1" stop-color="white" stop-opacity="0"/>
</linearGradient>
<linearGradient id="paint10_linear_1_11419" x1="735.419" y1="736.295" x2="436.24" y2="231.115" gradientUnits="userSpaceOnUse">
<stop stop-color="#39CA6E"/>
<stop offset="1" stop-color="#39CA6E" stop-opacity="0"/>
</linearGradient>
<linearGradient id="paint11_linear_1_11419" x1="727.067" y1="740.175" x2="427.889" y2="234.995" gradientUnits="userSpaceOnUse">
<stop stop-color="#39CA6E"/>
<stop offset="1" stop-color="#39CA6E" stop-opacity="0"/>
</linearGradient>
<linearGradient id="paint12_linear_1_11419" x1="638.751" y1="731.76" x2="339.572" y2="226.58" gradientUnits="userSpaceOnUse">
<stop stop-color="#39CA6E"/>
<stop offset="1" stop-color="#39CA6E" stop-opacity="0"/>
</linearGradient>
<linearGradient id="paint13_linear_1_11419" x1="662.864" y1="718.545" x2="363.685" y2="213.365" gradientUnits="userSpaceOnUse">
<stop stop-color="white"/>
<stop offset="1" stop-color="white" stop-opacity="0"/>
</linearGradient>
<linearGradient id="paint14_linear_1_11419" x1="658.79" y1="730.538" x2="359.611" y2="225.359" gradientUnits="userSpaceOnUse">
<stop stop-color="#39CA6E"/>
<stop offset="1" stop-color="#39CA6E" stop-opacity="0"/>
</linearGradient>
<linearGradient id="paint15_linear_1_11419" x1="650.439" y1="734.418" x2="351.26" y2="229.239" gradientUnits="userSpaceOnUse">
<stop stop-color="#39CA6E"/>
<stop offset="1" stop-color="#39CA6E" stop-opacity="0"/>
</linearGradient>
</defs>
</svg>
