<svg width="151" height="145" viewBox="0 0 151 145" fill="none" xmlns="http://www.w3.org/2000/svg">
<g opacity="0.2">
<path d="M106.761 20.2904C105.28 17.5061 103.71 14.7704 102.058 12.0833C103.467 10.9096 107.611 2.65393 115.348 0.784248C129.027 -2.50995 134.369 9.46085 135.259 19.3839C135.365 20.5818 135.437 21.7797 135.486 22.9857C135.502 23.4308 135.51 23.8679 135.526 24.3131C135.599 27.9472 135.397 31.5894 134.976 35.2074C134.936 35.5473 134.895 35.8873 134.855 36.2191C134.458 39.3514 133.891 42.4676 133.203 45.5594C133.123 45.9398 133.034 46.3121 132.944 46.6925C132.629 48.0361 132.289 49.3797 131.933 50.7152C131.39 52.7306 130.8 54.7378 130.168 56.7289C129.982 57.3279 129.788 57.9268 129.594 58.5177C128.8 60.9539 127.951 63.3821 127.068 65.7859C126.429 67.5423 120.998 77.6191 121.354 78.8737C121.281 78.728 121.216 78.5985 121.152 78.4447C122.965 71.9292 122.552 64.7499 121.136 57.7811C120.982 57.0365 120.812 56.2999 120.65 55.5634C119.63 51.2413 118.27 47.0406 116.878 43.1717C116.692 42.6699 116.514 42.1681 116.328 41.6744C116.02 40.8407 115.696 40.007 115.381 39.1815C114.604 37.1742 113.803 35.1993 112.961 33.2487C112.362 31.8403 111.747 30.4482 111.107 29.0641C110.063 26.7817 108.971 24.5316 107.829 22.322C107.481 21.6421 107.125 20.9622 106.769 20.2904L106.761 20.2904Z" fill="url(#paint0_radial_1_11339)"/>
<path style="mix-blend-mode:multiply" opacity="0.7" d="M106.761 20.2904C105.28 17.5061 103.71 14.7704 102.058 12.0833C103.467 10.9096 107.611 2.65393 115.348 0.784248C129.027 -2.50995 134.369 9.46085 135.259 19.3839C135.365 20.5818 135.437 21.7797 135.486 22.9857C135.502 23.4308 135.51 23.8679 135.526 24.3131C135.599 27.9472 135.397 31.5894 134.976 35.2074C134.936 35.5473 134.895 35.8873 134.855 36.2191C134.458 39.3514 133.891 42.4676 133.203 45.5594C133.123 45.9398 133.034 46.3121 132.944 46.6925C132.629 48.0361 132.289 49.3797 131.933 50.7152C131.39 52.7306 130.8 54.7378 130.168 56.7289C129.982 57.3279 129.788 57.9268 129.594 58.5177C128.8 60.9539 127.951 63.3821 127.068 65.7859C126.429 67.5423 120.998 77.6191 121.354 78.8737C121.281 78.728 121.216 78.5985 121.152 78.4447C122.965 71.9292 122.552 64.7499 121.136 57.7811C120.982 57.0365 120.812 56.2999 120.65 55.5634C119.63 51.2413 118.27 47.0406 116.878 43.1717C116.692 42.6699 116.514 42.1681 116.328 41.6744C116.02 40.8407 115.696 40.007 115.381 39.1815C114.604 37.1742 113.803 35.1993 112.961 33.2487C112.362 31.8403 111.747 30.4482 111.107 29.0641C110.063 26.7817 108.971 24.5316 107.829 22.322C107.481 21.6421 107.125 20.9622 106.769 20.2904L106.761 20.2904Z" fill="url(#paint1_linear_1_11339)"/>
<path d="M75.244 15.8553C81.0716 8.66793 93.6656 9.95486 101.735 12.2211C101.824 12.2454 101.929 12.1888 102.059 12.0835C102.367 12.5935 102.674 13.0953 102.974 13.5971C103.362 14.2527 103.751 14.9164 104.131 15.572C105.814 18.4777 107.401 21.44 108.898 24.459C109.238 25.1308 109.57 25.8107 109.894 26.4906L109.894 26.5068C111.205 29.2344 112.443 32.0187 113.625 34.8515C114.192 36.2032 114.742 37.5711 115.276 38.947C115.632 39.8454 115.972 40.7519 116.312 41.6666C117.194 44.0461 118.085 46.5633 118.886 49.1776L118.886 49.1938C119.121 49.9223 119.339 50.6588 119.55 51.4034C120.432 54.5034 121.185 57.7005 121.687 60.9137C121.808 61.6503 121.905 62.3949 121.994 63.1395C122.617 68.3682 122.496 73.5887 121.144 78.4369C120.65 77.2957 120.359 76.0816 119.76 74.9646C119.08 73.6777 117.947 72.6174 117.186 71.3791C116.401 70.0922 115.462 68.8862 114.491 67.7045C114.353 67.5426 114.224 67.3807 114.086 67.2188C113.706 66.7656 113.317 66.3123 112.929 65.8672C111.521 64.2727 110.048 62.7429 108.526 61.2537C108.332 61.0675 108.137 60.8732 107.943 60.6871C106.292 59.1088 104.584 57.5791 102.828 56.0979C102.65 55.9441 102.48 55.7984 102.302 55.6527C99.3637 53.1922 96.3285 50.845 93.2528 48.5463C93.0909 48.4249 92.9291 48.2954 92.7591 48.174C91.5531 47.2837 90.3552 46.3934 89.1573 45.5111C87.4091 44.2242 85.3613 42.6297 83.3217 40.8086C83.1193 40.6386 82.9251 40.4606 82.7308 40.2744C79.7361 37.5468 76.8061 34.3578 74.8474 30.9665C72.0227 26.0778 71.2376 20.7763 75.2359 15.831L75.244 15.8553Z" fill="url(#paint2_linear_1_11339)"/>
<path d="M82.7221 40.2983C82.9487 39.4079 83.2078 38.4367 83.5234 37.433C83.831 36.4051 84.2033 35.3367 84.608 34.2279C85.037 33.1271 85.4821 31.994 86.0163 30.8689C86.5262 29.7358 87.1252 28.6107 87.7484 27.4857C88.0802 26.9353 88.404 26.3849 88.7439 25.8426C89.1001 25.3084 89.4319 24.7581 89.8123 24.2482C90.1846 23.7301 90.557 23.204 90.9536 22.7184C91.1559 22.4756 91.3502 22.2328 91.5444 21.9819C91.7468 21.7472 91.9572 21.5124 92.1595 21.2777C92.3619 21.0511 92.5642 20.8164 92.7747 20.5897C92.9932 20.3712 93.2037 20.1608 93.4141 19.9422C93.8269 19.5052 94.2639 19.1086 94.701 18.7282C94.9195 18.542 95.1219 18.3477 95.3404 18.1616C95.5671 17.9835 95.7856 17.8135 95.996 17.6436C96.2146 17.4736 96.425 17.3036 96.6354 17.1418C96.8459 16.9799 97.0644 16.8342 97.2749 16.6885C98.1004 16.0815 98.926 15.612 99.6464 15.175C100.391 14.7622 101.111 14.4222 101.67 14.1389C102.253 13.888 102.706 13.6938 102.973 13.5805C103.175 13.4914 103.28 13.4429 103.28 13.4429L104.13 15.5554L104.98 17.6679C104.98 17.6679 104.365 17.854 103.289 18.1859C102.827 18.3639 102.285 18.5501 101.637 18.8172C100.99 19.1167 100.245 19.4323 99.4764 19.8775C99.2821 19.9827 99.0798 20.0879 98.8774 20.2012C98.6832 20.3307 98.4889 20.4521 98.2866 20.5816C98.0762 20.7031 97.8738 20.8326 97.6634 20.9701C97.461 21.0996 97.2587 21.2615 97.0482 21.4072C96.6274 21.6986 96.1984 22.0062 95.7937 22.3542C95.5832 22.5242 95.3728 22.6941 95.1543 22.8641C94.9438 23.0422 94.7415 23.2283 94.523 23.4145C94.3125 23.6006 94.1021 23.7868 93.8916 23.9811C93.6893 24.1834 93.4788 24.3858 93.2765 24.5881C92.8556 24.9928 92.4671 25.4299 92.0624 25.8669C91.6496 26.2959 91.2854 26.7734 90.8888 27.2348C90.5084 27.7042 90.1442 28.1899 89.7719 28.6674C89.0596 29.6548 88.3635 30.6585 87.7403 31.6864C87.1009 32.7062 86.5343 33.7503 85.992 34.7702C85.474 35.7981 84.9803 36.7936 84.5594 37.7649C84.1224 38.728 83.7581 39.6588 83.4263 40.5168C83.3858 40.6139 83.3534 40.711 83.313 40.8163C83.1106 40.6463 82.9164 40.4682 82.7221 40.2821L82.7221 40.2983ZM93.2441 48.5702C93.3898 48.2221 93.5436 47.8579 93.7136 47.4775C94.9357 44.7175 96.7569 41.0995 99.0231 37.8134C99.3064 37.4007 99.5978 37.0041 99.8892 36.6075C100.197 36.219 100.488 35.8224 100.796 35.4419C101.411 34.6892 102.034 33.977 102.673 33.3295C102.835 33.1676 102.989 33.0138 103.143 32.8519C103.305 32.6981 103.467 32.5524 103.629 32.4068C103.936 32.1073 104.268 31.8402 104.584 31.5812C104.891 31.3141 105.215 31.0956 105.522 30.8689C105.822 30.6423 106.138 30.4561 106.429 30.2781C106.72 30.0838 107.004 29.9462 107.279 29.8005C107.416 29.7358 107.546 29.6629 107.675 29.5901C107.805 29.5334 107.934 29.4849 108.064 29.4282C108.307 29.3392 108.55 29.2097 108.744 29.153C108.938 29.0964 109.108 29.0397 109.27 28.9912C109.359 28.9669 109.399 28.9426 109.513 28.9183C109.61 28.894 109.699 28.8778 109.788 28.8536C109.966 28.8212 110.112 28.7807 110.233 28.7564C110.476 28.6998 110.605 28.6755 110.605 28.6755L109.893 26.5063L109.893 26.4902L109.189 24.3453C109.189 24.3453 109.084 24.3858 108.89 24.4586C108.873 24.4586 108.849 24.4667 108.833 24.4748C108.72 24.5153 108.574 24.5719 108.412 24.6367C108.331 24.669 108.242 24.7014 108.137 24.7338C108.048 24.7581 107.902 24.839 107.773 24.8876C107.505 25.009 107.214 25.1466 106.89 25.3004C106.567 25.4541 106.308 25.6322 105.976 25.8184C105.822 25.9155 105.66 26.0126 105.49 26.1097C105.336 26.2231 105.174 26.3364 105.004 26.4497C104.673 26.6844 104.333 26.9191 104.001 27.2105C103.669 27.4857 103.313 27.769 102.997 28.0927C102.665 28.4084 102.317 28.7321 102.002 29.0883C101.678 29.4363 101.354 29.8005 101.047 30.189C100.893 30.3833 100.731 30.5695 100.577 30.7718C100.431 30.9741 100.278 31.1765 100.124 31.3788C99.5169 32.1882 98.9584 33.0624 98.4242 33.9446C98.1571 34.3897 97.9062 34.8511 97.6472 35.3044C97.4044 35.7657 97.1535 36.227 96.9349 36.6965C95.0895 40.4278 93.8026 44.3047 92.9851 47.2347C92.888 47.5665 92.8071 47.8822 92.7261 48.1817C92.888 48.3031 93.0499 48.4326 93.2198 48.554L93.2441 48.5702ZM102.819 56.1217C102.9 55.8142 102.989 55.4985 103.086 55.1666C103.782 52.698 104.94 49.4686 106.631 46.571C106.85 46.2068 107.052 45.8506 107.287 45.5107C107.505 45.1546 107.74 44.8227 107.975 44.499C108.444 43.8434 108.962 43.2363 109.464 42.6778C109.723 42.4027 109.99 42.1437 110.241 41.8927C110.516 41.658 110.767 41.4152 111.026 41.2048C111.293 41.0024 111.544 40.792 111.803 40.6139C112.062 40.4439 112.313 40.2821 112.556 40.1283C112.807 39.9907 113.042 39.8612 113.268 39.7317C113.503 39.6103 113.73 39.5293 113.932 39.4322C114.037 39.3917 114.134 39.3351 114.231 39.3027C114.32 39.2784 114.41 39.2461 114.49 39.2218C114.652 39.1651 114.798 39.1166 114.936 39.068C115.057 39.0356 115.162 38.9951 115.276 38.9709C115.478 38.9142 115.672 38.8656 115.794 38.8333C115.996 38.7766 116.101 38.7523 116.101 38.7523L114.458 34.5031C114.458 34.5031 114.361 34.5516 114.167 34.6326C114.029 34.6973 113.859 34.7621 113.624 34.8754C113.535 34.9158 113.43 34.9644 113.325 35.013C113.106 35.1263 112.864 35.2558 112.597 35.3934C112.467 35.4662 112.329 35.5391 112.184 35.6119C112.054 35.6929 111.933 35.7738 111.795 35.8628C111.536 36.0409 111.245 36.2109 110.97 36.4213C110.694 36.6317 110.411 36.8584 110.112 37.1012C109.828 37.3521 109.545 37.6192 109.254 37.8863C108.97 38.1696 108.695 38.4771 108.412 38.7766C108.137 39.0923 107.878 39.4322 107.603 39.7641C107.352 40.1121 107.093 40.4682 106.85 40.8405C106.38 41.5771 105.927 42.3541 105.531 43.1635C105.328 43.5682 105.134 43.981 104.964 44.3937C104.778 44.8065 104.624 45.2274 104.462 45.6483C103.2 49.0153 102.617 52.4633 102.35 55.0452C102.325 55.2719 102.309 55.4823 102.285 55.6847C102.463 55.8303 102.633 55.976 102.811 56.1298L102.819 56.1217ZM108.517 61.2775C108.566 61.148 108.606 61.0023 108.663 60.8647C108.954 60.023 109.383 59.0841 109.926 58.1371C110.476 57.1901 111.164 56.2593 111.941 55.4337C112.338 55.0291 112.742 54.6406 113.179 54.2925C113.398 54.1225 113.6 53.9526 113.827 53.7988C114.045 53.645 114.264 53.4912 114.49 53.3617C114.709 53.2241 114.919 53.0865 115.146 52.9732C115.365 52.8518 115.575 52.7304 115.794 52.6414C116.214 52.4309 116.635 52.2771 117.016 52.1234C117.404 51.9939 117.777 51.8563 118.068 51.7834L118.675 51.6215C118.748 51.6054 118.821 51.5892 118.885 51.573C119.193 51.5082 119.42 51.4597 119.565 51.4273C119.679 51.403 119.727 51.3868 119.727 51.3868L118.902 49.2177L118.902 49.2015L118.108 47.1295C118.108 47.1295 117.825 47.2671 117.331 47.5018C117.267 47.5261 117.202 47.5584 117.137 47.5989C117.056 47.6394 116.967 47.6879 116.886 47.7284C116.708 47.8174 116.53 47.9227 116.328 48.0279C115.923 48.2383 115.535 48.4973 115.089 48.7725C114.66 49.072 114.191 49.3957 113.738 49.7681C113.503 49.9542 113.276 50.1566 113.05 50.367C112.815 50.5694 112.588 50.796 112.37 51.0226C112.143 51.2492 111.933 51.492 111.722 51.7349C111.504 51.9777 111.31 52.2367 111.107 52.5038C110.711 53.0218 110.346 53.5884 110.015 54.1468C109.375 55.2881 108.881 56.4779 108.558 57.6029C108.234 58.736 108.048 59.8044 107.951 60.7109C108.145 60.8971 108.339 61.0913 108.533 61.2775L108.517 61.2775ZM114.078 67.2346C114.175 67.097 114.256 66.9594 114.361 66.8299C114.499 66.668 114.636 66.498 114.782 66.3362C114.911 66.1662 115.081 66.0205 115.243 65.8748L115.729 65.4377C116.109 65.1949 116.433 64.9278 116.813 64.7174C117.21 64.5312 117.558 64.3046 117.947 64.1589C118.327 64.0132 118.699 63.8756 119.055 63.7461C119.403 63.6652 119.735 63.5843 120.035 63.5195C120.18 63.479 120.326 63.4467 120.456 63.4143C120.626 63.3819 120.787 63.3576 120.941 63.3333C121.241 63.2848 121.508 63.2362 121.726 63.2038C121.823 63.1877 121.904 63.1796 121.977 63.1634C122.252 63.1148 122.406 63.0986 122.406 63.0986L121.67 60.9457L120.933 58.7927C120.933 58.7927 120.707 58.8979 120.31 59.0922C120.108 59.1893 119.865 59.3026 119.59 59.4321C119.452 59.4969 119.306 59.5697 119.153 59.6426C118.974 59.7478 118.78 59.8449 118.586 59.9582C118.206 60.1767 117.793 60.4196 117.356 60.6705C116.967 60.9618 116.562 61.2694 116.142 61.5851C115.729 61.9088 115.357 62.3216 114.96 62.6858C114.579 63.0824 114.256 63.5438 113.916 63.9647L113.495 64.6688C113.357 64.8955 113.22 65.1302 113.123 65.373C113.05 65.543 112.977 65.721 112.904 65.891C113.293 66.3362 113.681 66.7894 114.061 67.2427L114.078 67.2346Z" fill="url(#paint3_linear_1_11339)"/>
<path d="M106.042 18.1375C106.042 18.1375 106.633 17.9999 107.669 17.749C107.936 17.6924 108.195 17.6114 108.535 17.5467C108.875 17.4819 109.239 17.4091 109.636 17.3362C110.024 17.2634 110.437 17.1743 110.874 17.1015C111.303 17.0368 111.764 16.9801 112.234 16.9153C112.469 16.883 112.711 16.8506 112.954 16.8182C113.205 16.802 113.456 16.7777 113.715 16.7535C114.233 16.713 114.759 16.6482 115.309 16.6321C115.86 16.6159 116.426 16.5997 117.009 16.5835C117.584 16.5835 118.175 16.6078 118.774 16.624C119.373 16.6402 119.988 16.7211 120.603 16.7616C121.218 16.8101 121.833 16.9234 122.456 17.0044C123.071 17.1015 123.695 17.2472 124.318 17.3686C124.933 17.5386 125.548 17.6843 126.155 17.8704C126.762 18.0728 127.369 18.2508 127.952 18.4936L128.826 18.8417C129.109 18.9712 129.393 19.1007 129.676 19.2302C130.243 19.473 130.769 19.7887 131.303 20.0639C131.821 20.3714 132.339 20.6547 132.816 20.9865C133.796 21.6098 134.662 22.3058 135.471 22.9776C135.487 23.4228 135.496 23.8599 135.512 24.305C135.277 24.1351 135.026 23.9651 134.775 23.7951C133.925 23.2447 133.027 22.6782 132.039 22.2087C131.554 21.9497 131.036 21.7474 130.526 21.5126C129.992 21.3184 129.474 21.0837 128.923 20.9218C128.648 20.8328 128.381 20.7437 128.106 20.6547L127.272 20.4362C126.722 20.2743 126.139 20.1853 125.572 20.0639C125.006 19.9586 124.423 19.8939 123.857 19.8129C123.282 19.7644 122.715 19.6996 122.141 19.6753C121.574 19.6753 121.008 19.6268 120.457 19.6511C119.899 19.6834 119.348 19.6753 118.814 19.7239C118.272 19.7725 117.746 19.8129 117.228 19.8696C116.71 19.9424 116.216 20.0153 115.722 20.0881C115.229 20.161 114.767 20.2824 114.306 20.3633C114.079 20.4119 113.853 20.4524 113.634 20.5009L112.995 20.6709C112.574 20.7842 112.177 20.8894 111.797 20.9785C111.416 21.0837 111.076 21.2051 110.753 21.3022C110.421 21.4074 110.121 21.5046 109.846 21.5936C109.563 21.6826 109.271 21.7959 109.029 21.885C108.486 22.0792 108.074 22.2411 107.815 22.3301C107.588 22.4111 107.467 22.4596 107.467 22.4596L106.746 20.2986L106.034 18.1456L106.042 18.1375ZM112.954 33.2487L112.987 33.2487C113.416 33.1273 113.844 33.0545 114.379 32.9412C114.897 32.8198 115.52 32.7469 116.2 32.6336C116.54 32.5769 116.896 32.5527 117.26 32.5122C117.624 32.4636 118.005 32.4312 118.393 32.4151C119.178 32.3584 120.004 32.3422 120.87 32.3422C121.299 32.3584 121.736 32.3584 122.181 32.3908C122.618 32.4232 123.071 32.4474 123.525 32.496C124.423 32.6012 125.346 32.7307 126.252 32.9169L126.932 33.0545L127.604 33.2244C128.057 33.3297 128.494 33.4673 128.94 33.5968C129.814 33.872 130.664 34.1714 131.473 34.5195C132.719 35.0294 133.861 35.6121 134.864 36.203C134.913 35.8711 134.953 35.5312 134.986 35.1913C134.16 34.5437 133.213 33.8801 132.177 33.2568C131.392 32.7793 130.55 32.326 129.668 31.9051C129.223 31.7028 128.786 31.4843 128.316 31.2981L127.628 31.0148L126.924 30.7558C125.985 30.4078 125.022 30.1164 124.051 29.8655C123.573 29.736 123.088 29.6389 122.61 29.5337C122.133 29.4284 121.655 29.3556 121.178 29.2666C120.231 29.1209 119.316 28.9995 118.442 28.9428C118.005 28.8942 117.576 28.8781 117.163 28.8619C116.75 28.8457 116.345 28.8214 115.957 28.8214C115.188 28.8295 114.492 28.8214 113.844 28.8619C113.205 28.8942 112.614 28.9185 112.218 28.9671C111.7 29.0156 111.327 29.048 111.109 29.0642C110.963 29.0723 110.89 29.0804 110.89 29.0804L111.7 33.5482C111.7 33.5482 112.153 33.4349 112.962 33.2487L112.954 33.2487ZM115.884 43.4632C116.208 43.3498 116.507 43.2689 116.872 43.1637L116.993 43.1313C117.39 43.0018 117.9 42.9047 118.442 42.7914C118.709 42.7266 119 42.6942 119.292 42.6457C119.583 42.5971 119.891 42.5405 120.206 42.5243C120.838 42.4595 121.501 42.4272 122.197 42.4272C122.893 42.4352 123.606 42.4838 124.334 42.589C124.698 42.6457 125.063 42.6942 125.427 42.7833L125.977 42.9047L126.519 43.0585C127.24 43.2608 127.944 43.536 128.632 43.8436C129.312 44.1511 129.967 44.5073 130.574 44.8877C131.465 45.4462 132.266 46.0613 132.954 46.6764C133.043 46.296 133.132 45.9237 133.213 45.5433C132.719 44.9605 132.161 44.3535 131.513 43.7707C130.947 43.2527 130.307 42.7428 129.627 42.2572C128.94 41.7877 128.211 41.3426 127.434 40.9622L126.851 40.6789L126.252 40.428C125.856 40.2499 125.443 40.1204 125.038 39.9747C124.221 39.6995 123.387 39.4972 122.578 39.3353C121.76 39.1896 120.959 39.0844 120.206 39.0358C119.818 38.9954 119.454 38.9873 119.097 38.9792C118.741 38.9792 118.393 38.9549 118.053 38.9792C117.39 39.0035 116.783 39.0115 116.224 39.0763C115.925 39.1087 115.649 39.133 115.399 39.1653C115.18 39.1896 114.986 39.2139 114.832 39.2382C114.136 39.3353 113.731 39.4001 113.731 39.4001L114.856 43.8031C114.856 43.8031 115.245 43.6736 115.908 43.4551L115.884 43.4632ZM121.129 57.7812C121.234 57.7569 121.372 57.7245 121.534 57.6921C121.752 57.6436 122.011 57.5788 122.311 57.5141C122.578 57.4655 122.796 57.4493 123.088 57.4008C123.233 57.3846 123.379 57.3441 123.549 57.336C123.719 57.336 123.905 57.3279 124.083 57.3279C124.277 57.3279 124.464 57.3279 124.666 57.3198C124.86 57.3198 125.063 57.3522 125.273 57.3684C125.483 57.3846 125.702 57.4089 125.912 57.425C126.123 57.4655 126.341 57.5141 126.56 57.5546C127.005 57.6274 127.442 57.7569 127.895 57.8864C128.122 57.9511 128.341 58.024 128.559 58.113C128.778 58.2021 128.996 58.283 129.215 58.3639C129.336 58.4206 129.458 58.4773 129.579 58.5258C129.773 57.9269 129.967 57.336 130.154 56.7371C129.984 56.5995 129.806 56.47 129.627 56.3324C129.417 56.1705 129.199 56.0086 128.972 55.871C128.519 55.5797 128.057 55.2721 127.564 55.0455C127.313 54.9241 127.078 54.8026 126.835 54.6731C126.584 54.576 126.333 54.4789 126.082 54.3737C125.831 54.2765 125.589 54.1713 125.346 54.0904C125.095 54.0175 124.844 53.9528 124.609 53.888C124.366 53.8233 124.132 53.7585 123.905 53.6938C123.67 53.6452 123.411 53.6128 123.185 53.5805C122.732 53.5157 122.254 53.451 121.906 53.4186C121.598 53.4024 121.323 53.3862 121.105 53.3781C120.66 53.3538 120.409 53.3377 120.409 53.3377L120.619 55.5635L120.838 57.8459C120.838 57.8459 120.935 57.8217 121.113 57.7812L121.129 57.7812Z" fill="url(#paint4_linear_1_11339)"/>
<path d="M103 11.3306L105.145 15.1832C105.849 16.4783 106.601 17.7328 107.265 19.0602L109.232 23.0585C109.871 24.394 110.576 25.7052 111.134 27.0731L112.89 31.1443L113.764 33.1759C114.048 33.8557 114.291 34.5518 114.558 35.2398L116.12 39.3838C116.654 40.7598 117.148 42.1519 117.617 43.5441C118.087 44.9443 118.54 46.3526 118.969 47.761C119.39 49.1774 119.794 50.5938 120.159 52.0264C120.523 53.459 120.863 54.8916 121.154 56.3485C121.316 57.0689 121.429 57.7973 121.559 58.5258C121.696 59.2542 121.802 59.9827 121.899 60.7192C122.004 61.4477 122.101 62.1842 122.166 62.9207C122.239 63.6573 122.32 64.3857 122.344 65.1304C122.441 66.6034 122.457 68.0846 122.417 69.5577C122.368 70.2942 122.36 71.0308 122.287 71.7673C122.198 72.5039 122.134 73.2323 122.028 73.9608L121.632 76.1299L121.089 78.2667L121.3 78.7361L121.073 78.2748L121.551 76.1218L121.875 73.9446C121.955 73.2161 121.996 72.4796 122.061 71.7511C122.117 71.0227 122.101 70.2862 122.117 69.5577C122.117 68.0927 122.053 66.6277 121.907 65.1708C121.858 64.4424 121.753 63.7139 121.656 62.9936C121.567 62.2651 121.454 61.5448 121.324 60.8244C121.203 60.1041 121.073 59.3837 120.919 58.6715C120.766 57.9592 120.628 57.2389 120.442 56.5266C120.11 55.1021 119.722 53.6938 119.317 52.2854C118.904 50.8771 118.459 49.485 117.998 48.1009C117.52 46.7169 117.034 45.3328 116.516 43.965C115.998 42.5809 115.464 41.2211 114.89 39.8776L113.198 35.8225C112.915 35.1508 112.648 34.4628 112.34 33.7991L111.401 31.808L109.531 27.8339C108.941 26.4903 108.204 25.2358 107.532 23.9408L105.476 20.08C104.788 18.7931 103.979 17.5547 103.242 16.284L100.968 12.5042L102.975 11.3468L103 11.3306Z" fill="url(#paint5_radial_1_11339)"/>
<path d="M120.289 117.748C123.502 117.311 126.691 116.777 129.864 116.162C130.592 117.829 137.472 124.296 136.922 131.937C135.942 145.446 122.458 146.393 112.365 143.956C111.151 143.657 109.937 143.333 108.739 142.985C108.302 142.856 107.857 142.726 107.42 142.588C103.802 141.463 100.265 140.096 96.8249 138.525C96.5012 138.38 96.1774 138.234 95.8617 138.08C92.8832 136.696 89.9775 135.166 87.1366 133.531C86.7885 133.329 86.4486 133.127 86.0925 132.924C84.8622 132.196 83.64 131.451 82.434 130.69C80.6048 129.533 78.808 128.343 77.0354 127.121C76.5013 126.757 75.9752 126.385 75.441 126.012C73.2799 124.499 71.1431 122.928 69.0387 121.342C67.5009 120.185 59.2209 111.953 57.8692 111.872C58.0311 111.856 58.1849 111.84 58.3549 111.824C64.231 115.604 71.4588 117.57 78.7918 118.558C79.5769 118.655 80.362 118.752 81.139 118.841C85.7282 119.327 90.3013 119.464 94.5586 119.464C95.1171 119.464 95.6675 119.464 96.2098 119.456C97.1325 119.448 98.0552 119.432 98.9617 119.408C101.187 119.359 103.389 119.278 105.574 119.149C107.153 119.068 108.723 118.954 110.285 118.833C112.867 118.631 115.425 118.372 117.966 118.056C118.751 117.959 119.52 117.862 120.305 117.757L120.289 117.748Z" fill="url(#paint6_radial_1_11339)"/>
<path style="mix-blend-mode:multiply" opacity="0.7" d="M120.289 117.748C123.502 117.311 126.691 116.777 129.864 116.162C130.592 117.829 137.472 124.296 136.922 131.937C135.942 145.446 122.458 146.393 112.365 143.956C111.151 143.657 109.937 143.333 108.739 142.985C108.302 142.856 107.857 142.726 107.42 142.588C103.802 141.463 100.265 140.096 96.8249 138.525C96.5012 138.38 96.1774 138.234 95.8617 138.08C92.8832 136.696 89.9775 135.166 87.1366 133.531C86.7885 133.329 86.4486 133.127 86.0925 132.924C84.8622 132.196 83.64 131.451 82.434 130.69C80.6048 129.533 78.808 128.343 77.0354 127.121C76.5013 126.757 75.9752 126.385 75.441 126.012C73.2799 124.499 71.1431 122.928 69.0387 121.342C67.5009 120.185 59.2209 111.953 57.8692 111.872C58.0311 111.856 58.1849 111.84 58.3549 111.824C64.231 115.604 71.4588 117.57 78.7918 118.558C79.5769 118.655 80.362 118.752 81.139 118.841C85.7282 119.327 90.3013 119.464 94.5586 119.464C95.1171 119.464 95.6675 119.464 96.2098 119.456C97.1325 119.448 98.0552 119.432 98.9617 119.408C101.187 119.359 103.389 119.278 105.574 119.149C107.153 119.068 108.723 118.954 110.285 118.833C112.867 118.631 115.425 118.372 117.966 118.056C118.751 117.959 119.52 117.862 120.305 117.757L120.289 117.748Z" fill="url(#paint7_linear_1_11339)"/>
<path d="M134.427 90.545C139.736 98.1856 134.556 109.218 129.813 115.814C129.764 115.887 129.781 116 129.854 116.154C129.263 116.267 128.664 116.381 128.073 116.494C127.304 116.631 126.527 116.769 125.758 116.907C122.367 117.489 118.943 117.959 115.495 118.331C114.726 118.42 113.957 118.501 113.18 118.574L113.164 118.574C110.064 118.873 106.924 119.092 103.759 119.23C102.245 119.302 100.724 119.359 99.194 119.391C98.1985 119.416 97.1868 119.432 96.1831 119.448C93.5526 119.472 90.7926 119.448 87.9598 119.327L87.9436 119.327C87.1504 119.294 86.3572 119.254 85.5559 119.205C82.2212 118.995 78.8218 118.631 75.4871 118.04C74.7182 117.91 73.9574 117.757 73.1966 117.595C67.8385 116.453 62.707 114.64 58.3282 111.824C59.6151 111.743 60.8939 111.88 62.1889 111.702C63.6701 111.5 65.0785 110.82 66.5273 110.537C68.0408 110.237 69.522 109.784 70.9951 109.282C71.1974 109.209 71.3997 109.145 71.6021 109.072C72.1687 108.869 72.7352 108.667 73.2937 108.465C75.301 107.704 77.2759 106.87 79.2184 105.964C79.4612 105.85 79.7121 105.737 79.9549 105.624C82.027 104.636 84.0666 103.584 86.0739 102.467C86.2762 102.354 86.4786 102.241 86.6728 102.135C90.0156 100.274 93.2774 98.2747 96.4988 96.235C96.6687 96.1298 96.8468 96.0165 97.0168 95.9113C98.2713 95.11 99.5259 94.3087 100.764 93.5074C102.577 92.3419 104.787 90.9983 107.215 89.7437C107.45 89.6223 107.684 89.5009 107.927 89.3795C111.553 87.5503 115.608 85.9234 119.566 85.2597C125.272 84.2885 130.76 85.3083 134.41 90.5612L134.427 90.545Z" fill="url(#paint8_linear_1_11339)"/>
<path d="M107.946 89.3633C108.755 89.8651 109.637 90.4155 110.536 91.0306C111.45 91.6457 112.397 92.3337 113.369 93.0622C114.324 93.8068 115.303 94.5919 116.25 95.4418C117.213 96.2835 118.136 97.19 119.059 98.1208C119.504 98.5984 119.949 99.0759 120.37 99.5696C120.782 100.071 121.228 100.549 121.616 101.059C122.013 101.569 122.417 102.071 122.774 102.597C122.952 102.856 123.138 103.115 123.316 103.374C123.486 103.641 123.656 103.908 123.818 104.167C123.98 104.426 124.15 104.693 124.303 104.952C124.449 105.219 124.595 105.486 124.748 105.745C125.056 106.263 125.307 106.789 125.55 107.307C125.671 107.566 125.801 107.817 125.914 108.076C126.019 108.335 126.116 108.594 126.222 108.837C126.319 109.088 126.424 109.339 126.521 109.582C126.61 109.825 126.691 110.075 126.772 110.31C127.112 111.265 127.33 112.164 127.533 112.965C127.711 113.782 127.824 114.543 127.929 115.142C127.994 115.757 128.043 116.227 128.075 116.51C128.099 116.729 128.107 116.842 128.107 116.842L125.76 116.923L123.405 117.004C123.405 117.004 123.405 116.381 123.421 115.296C123.389 114.81 123.373 114.268 123.316 113.588C123.219 112.9 123.138 112.123 122.935 111.281C122.887 111.071 122.855 110.852 122.806 110.634C122.741 110.415 122.685 110.197 122.62 109.97C122.563 109.744 122.498 109.517 122.434 109.282C122.369 109.048 122.272 108.821 122.191 108.578C122.029 108.101 121.859 107.615 121.649 107.129C121.551 106.878 121.446 106.636 121.341 106.377C121.228 106.126 121.106 105.883 120.985 105.624C120.863 105.373 120.75 105.122 120.621 104.863C120.483 104.612 120.354 104.361 120.208 104.102C119.941 103.592 119.625 103.09 119.318 102.581C119.026 102.063 118.662 101.577 118.33 101.067C117.99 100.565 117.618 100.08 117.254 99.5858C116.501 98.6146 115.716 97.6514 114.89 96.753C114.081 95.8384 113.223 94.9804 112.389 94.1548C111.539 93.3455 110.698 92.5765 109.872 91.8805C109.055 91.1682 108.245 90.5369 107.5 89.946C107.411 89.8732 107.331 89.8084 107.241 89.7437C107.476 89.6223 107.711 89.5009 107.954 89.3795L107.946 89.3633ZM96.5171 96.2269C96.8085 96.4697 97.1242 96.7287 97.4479 97.012C99.8032 99.0273 102.814 101.868 105.356 104.993C105.679 105.381 105.979 105.786 106.278 106.174C106.57 106.579 106.869 106.975 107.152 107.38C107.703 108.181 108.221 108.983 108.658 109.784C108.763 109.978 108.876 110.173 108.982 110.367C109.079 110.561 109.176 110.763 109.273 110.958C109.475 111.338 109.637 111.727 109.791 112.099C109.961 112.463 110.082 112.835 110.204 113.183C110.333 113.532 110.422 113.88 110.511 114.203C110.617 114.527 110.665 114.835 110.722 115.134C110.746 115.28 110.77 115.425 110.803 115.563C110.819 115.701 110.827 115.83 110.843 115.968C110.859 116.219 110.908 116.486 110.9 116.672C110.9 116.866 110.9 117.044 110.9 117.198C110.9 117.287 110.9 117.328 110.9 117.441C110.892 117.538 110.884 117.627 110.876 117.716C110.859 117.886 110.843 118.032 110.835 118.153C110.811 118.388 110.803 118.517 110.803 118.517L113.166 118.582L113.182 118.582L115.521 118.647C115.521 118.647 115.521 118.542 115.497 118.339C115.497 118.323 115.497 118.307 115.497 118.283C115.497 118.161 115.481 118.016 115.473 117.846C115.473 117.757 115.465 117.667 115.457 117.57C115.457 117.481 115.424 117.319 115.416 117.19C115.376 116.907 115.335 116.599 115.287 116.251C115.238 115.903 115.141 115.612 115.06 115.247C115.02 115.077 114.971 114.899 114.923 114.713C114.858 114.535 114.801 114.349 114.728 114.163C114.599 113.782 114.469 113.394 114.283 113.005C114.113 112.609 113.943 112.196 113.717 111.799C113.506 111.395 113.296 110.974 113.037 110.569C112.794 110.156 112.535 109.744 112.252 109.339C112.114 109.137 111.968 108.926 111.823 108.724C111.669 108.521 111.515 108.319 111.361 108.117C110.746 107.299 110.058 106.506 109.346 105.729C108.99 105.341 108.609 104.968 108.245 104.58C107.865 104.207 107.484 103.835 107.096 103.471C103.98 100.573 100.54 98.137 97.8931 96.4373C97.5936 96.2431 97.3103 96.065 97.0352 95.895C96.8652 96.0002 96.6871 96.1135 96.5171 96.2188L96.5171 96.2269ZM86.0923 102.467C86.3675 102.645 86.6507 102.823 86.9583 103.018C89.1841 104.458 92.0251 106.563 94.3561 109.048C94.6475 109.363 94.9388 109.663 95.1978 109.994C95.4811 110.31 95.7401 110.626 95.9829 110.95C96.4848 111.589 96.9299 112.261 97.3265 112.9C97.5208 113.224 97.6907 113.548 97.8607 113.863C98.0145 114.187 98.1683 114.495 98.2978 114.802C98.4192 115.11 98.5406 115.409 98.6377 115.701C98.7268 115.992 98.8077 116.275 98.8886 116.542C98.9453 116.818 99.002 117.077 99.0586 117.319C99.0991 117.57 99.1234 117.805 99.1476 118.024C99.1557 118.129 99.18 118.242 99.18 118.339C99.18 118.428 99.18 118.517 99.18 118.606C99.18 118.768 99.1881 118.922 99.1962 119.06C99.1962 119.181 99.1962 119.294 99.18 119.4C99.18 119.602 99.1638 119.788 99.1557 119.918C99.1476 120.12 99.1395 120.225 99.1395 120.225L103.85 120.12C103.85 120.12 103.834 120.015 103.818 119.812C103.794 119.667 103.785 119.489 103.745 119.238C103.729 119.141 103.721 119.035 103.696 118.914C103.656 118.679 103.599 118.412 103.543 118.129C103.51 117.983 103.486 117.846 103.454 117.684C103.413 117.538 103.365 117.4 103.324 117.247C103.227 116.955 103.146 116.631 103.025 116.308C102.895 115.992 102.766 115.66 102.62 115.304C102.466 114.964 102.288 114.624 102.11 114.268C101.916 113.92 101.697 113.572 101.487 113.216C101.26 112.868 101.009 112.512 100.758 112.156C100.491 111.816 100.224 111.468 99.9327 111.12C99.35 110.448 98.7187 109.784 98.0469 109.161C97.7069 108.845 97.367 108.538 97.0028 108.246C96.6547 107.939 96.2905 107.663 95.9263 107.38C92.9882 105.138 89.7588 103.479 87.2902 102.394C87.0797 102.297 86.8774 102.216 86.675 102.127C86.4808 102.241 86.2784 102.346 86.0761 102.459L86.0923 102.467ZM79.2287 105.964C79.3501 106.045 79.4715 106.142 79.5929 106.231C80.3295 106.773 81.1307 107.469 81.8997 108.271C82.6605 109.08 83.3727 110.011 83.9474 110.982C84.2226 111.476 84.4816 111.969 84.692 112.479C84.7973 112.73 84.8944 112.973 84.9834 113.224C85.0724 113.475 85.1534 113.726 85.2181 113.969C85.291 114.211 85.3557 114.454 85.3962 114.689C85.4448 114.924 85.5014 115.158 85.5257 115.385C85.5985 115.838 85.6309 116.267 85.6633 116.664C85.6633 117.06 85.6957 117.441 85.6714 117.732L85.639 118.331C85.639 118.404 85.6228 118.469 85.6228 118.542C85.5904 118.841 85.5743 119.06 85.5581 119.205C85.55 119.311 85.5419 119.367 85.5419 119.367L87.9458 119.327L87.9619 119.327L90.2525 119.286C90.2525 119.286 90.2039 118.987 90.123 118.461C90.123 118.396 90.1068 118.323 90.0906 118.25C90.0744 118.161 90.0582 118.072 90.0421 117.975C90.0016 117.789 89.9611 117.587 89.9207 117.368C89.8397 116.931 89.7021 116.494 89.5645 115.992C89.4027 115.498 89.2327 114.972 88.998 114.438C88.8846 114.163 88.7551 113.896 88.6175 113.612C88.488 113.329 88.3343 113.054 88.1805 112.779C88.0267 112.504 87.8567 112.228 87.6706 111.953C87.5006 111.678 87.2983 111.411 87.104 111.144C86.7074 110.61 86.2703 110.1 85.8171 109.614C84.8863 108.659 83.8665 107.825 82.8466 107.162C81.8268 106.498 80.8313 105.98 79.9571 105.6C79.7062 105.721 79.4634 105.834 79.2206 105.939L79.2287 105.964ZM71.6124 109.072C71.7176 109.201 71.8309 109.323 71.928 109.468C72.0494 109.646 72.1709 109.833 72.2842 110.019C72.4137 110.189 72.5027 110.391 72.5998 110.585L72.8831 111.168C73.0045 111.589 73.1745 111.977 73.2635 112.39C73.3283 112.811 73.4416 113.2 73.4659 113.604C73.4902 114.001 73.5144 114.381 73.5306 114.746C73.5063 115.094 73.4821 115.417 73.4578 115.717C73.4578 115.863 73.4416 116 73.4335 116.138C73.4092 116.308 73.3849 116.461 73.3606 116.607C73.3121 116.899 73.2797 117.149 73.2473 117.36C73.2311 117.449 73.2231 117.53 73.2069 117.603C73.1664 117.87 73.1421 118.015 73.1421 118.015L75.4974 118.048L77.8527 118.08C77.8527 118.08 77.8204 117.837 77.7556 117.417C77.7232 117.206 77.6828 116.947 77.6423 116.656C77.618 116.51 77.5937 116.348 77.5694 116.194C77.5209 116 77.4804 115.79 77.4319 115.579C77.3266 115.158 77.2214 114.705 77.1081 114.228C76.9381 113.782 76.7601 113.305 76.582 112.819C76.3958 112.342 76.1045 111.864 75.8536 111.387C75.5784 110.917 75.2222 110.464 74.9147 110.019L74.3481 109.404C74.1619 109.201 73.9839 108.999 73.7653 108.837C73.6116 108.716 73.4659 108.594 73.3202 108.465C72.7617 108.675 72.1951 108.878 71.6286 109.072L71.6124 109.072Z" fill="url(#paint9_linear_1_11339)"/>
<path d="M122.634 117.797C122.634 117.797 122.594 118.38 122.513 119.399C122.489 119.658 122.481 119.925 122.44 120.249C122.4 120.581 122.359 120.937 122.311 121.318C122.262 121.69 122.222 122.103 122.157 122.524C122.084 122.936 122.003 123.373 121.922 123.827C121.882 124.053 121.841 124.28 121.801 124.515C121.744 124.749 121.688 124.984 121.631 125.227C121.509 125.713 121.404 126.214 121.259 126.716C121.105 127.226 120.943 127.744 120.781 128.278C120.603 128.804 120.392 129.331 120.198 129.873C119.996 130.415 119.729 130.949 119.494 131.492C119.251 132.034 118.952 132.56 118.677 133.102C118.385 133.628 118.045 134.154 117.738 134.672C117.382 135.174 117.042 135.692 116.669 136.178C116.281 136.664 115.925 137.157 115.496 137.602L114.889 138.282C114.67 138.493 114.46 138.711 114.241 138.922C113.828 139.359 113.351 139.731 112.914 140.128C112.444 140.5 112.007 140.88 111.53 141.204C110.607 141.892 109.652 142.451 108.737 142.961C108.737 142.961 108.737 142.961 108.729 142.961C108.292 142.831 107.847 142.702 107.41 142.564C107.653 142.402 107.896 142.24 108.146 142.062C108.948 141.471 109.79 140.84 110.558 140.095C110.963 139.739 111.327 139.335 111.716 138.946C112.072 138.525 112.461 138.137 112.792 137.683C112.962 137.465 113.132 137.246 113.31 137.028L113.788 136.34C114.12 135.887 114.387 135.393 114.686 134.915C114.97 134.438 115.212 133.928 115.471 133.442C115.698 132.932 115.933 132.439 116.135 131.929C116.313 131.419 116.532 130.917 116.686 130.407C116.831 129.889 117.009 129.395 117.123 128.893C117.236 128.384 117.365 127.89 117.471 127.404C117.56 126.91 117.641 126.433 117.713 125.963C117.786 125.494 117.819 125.033 117.875 124.588C117.9 124.369 117.924 124.15 117.948 123.932L117.981 123.293C117.997 122.872 118.021 122.475 118.045 122.103C118.053 121.722 118.045 121.374 118.045 121.051C118.045 120.719 118.045 120.411 118.045 120.128C118.045 119.845 118.021 119.545 118.013 119.294C117.989 118.744 117.956 118.315 117.948 118.048C117.94 117.813 117.932 117.692 117.932 117.692L120.287 117.748L122.643 117.805L122.634 117.797ZM105.548 119.14L105.548 119.173C105.524 119.602 105.467 120.014 105.411 120.533C105.37 121.042 105.249 121.641 105.152 122.281C105.103 122.605 105.014 122.936 104.941 123.284C104.868 123.632 104.788 123.989 104.682 124.345C104.504 125.081 104.261 125.834 103.986 126.619C103.832 126.999 103.695 127.404 103.533 127.793C103.363 128.181 103.201 128.586 103.007 128.974C102.626 129.759 102.214 130.553 101.744 131.314L101.396 131.888L101.016 132.447C100.773 132.827 100.498 133.175 100.239 133.539C99.6965 134.243 99.13 134.923 98.5391 135.538C97.6488 136.502 96.718 137.352 95.8277 138.072C96.1433 138.226 96.4671 138.371 96.7908 138.517C97.6893 137.975 98.6362 137.335 99.5751 136.599C100.287 136.04 101 135.425 101.688 134.761C102.028 134.43 102.376 134.098 102.699 133.734L103.193 133.199L103.671 132.641C104.31 131.896 104.893 131.119 105.435 130.326C105.71 129.929 105.961 129.525 106.212 129.12C106.463 128.715 106.682 128.311 106.916 127.906C107.353 127.097 107.758 126.303 108.09 125.526C108.268 125.146 108.422 124.757 108.559 124.393C108.697 124.021 108.859 123.665 108.972 123.317C109.199 122.621 109.433 121.989 109.587 121.382C109.749 120.792 109.911 120.249 109.992 119.869C110.105 119.391 110.186 119.035 110.235 118.825C110.267 118.687 110.283 118.622 110.283 118.622L105.613 117.894C105.613 117.894 105.581 118.347 105.524 119.14L105.548 119.14ZM94.5407 118.46C94.5488 118.792 94.5407 119.092 94.5246 119.456L94.5246 119.577C94.5246 119.982 94.4598 120.476 94.4112 121.002C94.3951 121.269 94.3303 121.536 94.2898 121.819C94.2494 122.103 94.2008 122.394 94.128 122.694C93.9985 123.293 93.8204 123.9 93.61 124.539C93.3833 125.162 93.1162 125.802 92.7844 126.425C92.6144 126.732 92.4525 127.056 92.2502 127.348L91.9588 127.809L91.6351 128.246C91.2061 128.837 90.7285 129.387 90.2105 129.913C89.6925 130.431 89.1421 130.909 88.5756 131.338C87.7419 131.961 86.8921 132.487 86.0665 132.916C86.4145 133.118 86.7626 133.321 87.1106 133.523C87.839 133.264 88.616 132.957 89.385 132.56C90.0729 132.212 90.7771 131.807 91.457 131.338C92.1288 130.868 92.8006 130.35 93.4157 129.768L93.877 129.331L94.3141 128.869C94.6136 128.57 94.8726 128.238 95.1397 127.906C95.6658 127.25 96.119 126.562 96.5318 125.874C96.9284 125.178 97.2846 124.482 97.5678 123.811C97.7297 123.471 97.843 123.147 97.9644 122.815C98.0778 122.491 98.2073 122.184 98.2882 121.876C98.4663 121.269 98.6524 120.711 98.7576 120.176C98.8224 119.901 98.879 119.634 98.9276 119.399C98.9762 119.189 99.0085 119.003 99.0328 118.857C99.1542 118.185 99.219 117.805 99.219 117.805L94.5165 117.392C94.5165 117.392 94.5246 117.789 94.5326 118.469L94.5407 118.46ZM78.7658 118.55C78.7577 118.655 78.7416 118.792 78.7335 118.946C78.7173 119.165 78.693 119.416 78.6687 119.715C78.6363 119.966 78.5797 120.176 78.5392 120.46C78.5149 120.597 78.4987 120.743 78.4583 120.897C78.4097 121.051 78.353 121.22 78.3045 121.39C78.2478 121.56 78.1912 121.738 78.1345 121.925C78.0698 122.103 77.9807 122.273 77.8998 122.459C77.8189 122.645 77.7298 122.831 77.6489 123.025C77.5437 123.203 77.4304 123.39 77.3251 123.568C77.1147 123.956 76.8476 124.304 76.5805 124.677C76.451 124.863 76.3053 125.041 76.1515 125.211C75.9977 125.381 75.844 125.551 75.6983 125.729C75.6092 125.818 75.5121 125.915 75.4231 126.004C75.9492 126.376 76.4834 126.749 77.0176 127.113C77.2037 126.999 77.3899 126.886 77.576 126.765C77.8027 126.627 78.0293 126.481 78.2397 126.32C78.6687 126.004 79.1139 125.68 79.4943 125.316C79.6885 125.13 79.8909 124.952 80.0851 124.774C80.2632 124.571 80.4332 124.377 80.6112 124.191C80.7812 123.997 80.9593 123.811 81.1131 123.616C81.2587 123.414 81.4044 123.212 81.542 123.009C81.6796 122.815 81.8172 122.621 81.9467 122.435C82.0681 122.24 82.1733 122.014 82.2867 121.819C82.489 121.423 82.6994 121.018 82.837 120.711C82.9504 120.435 83.0475 120.193 83.1284 119.998C83.2903 119.602 83.3793 119.375 83.3793 119.375L81.1131 118.841L78.7901 118.291C78.7901 118.291 78.782 118.388 78.7658 118.558L78.7658 118.55Z" fill="url(#paint10_linear_1_11339)"/>
<path d="M130.24 117.295L125.732 117.991C124.227 118.21 122.737 118.493 121.207 118.647L116.626 119.124C115.097 119.278 113.575 119.472 112.053 119.529L107.48 119.796L105.19 119.925L102.899 119.966L98.3181 120.031C96.7884 120.063 95.2667 120.055 93.7451 120.031C92.2153 119.998 90.6856 119.95 89.164 119.877C87.6423 119.796 86.1126 119.691 84.5909 119.561C83.0693 119.416 81.5477 119.262 80.0341 119.051C78.5206 118.841 77.007 118.606 75.5177 118.299C74.765 118.161 74.0204 117.999 73.2757 117.821C72.5311 117.651 71.7865 117.481 71.0499 117.263C69.5768 116.874 68.12 116.405 66.6873 115.887C65.9751 115.603 65.2547 115.361 64.5587 115.045C63.8626 114.729 63.1584 114.43 62.4785 114.098L60.4551 113.03L58.5126 111.832L57.9865 111.872L58.5207 111.815L60.4956 112.949L62.5433 113.952C63.2313 114.268 63.9435 114.535 64.6396 114.834C65.3438 115.126 66.0722 115.344 66.7845 115.603C68.2252 116.073 69.6821 116.494 71.1632 116.834C71.8998 117.028 72.6444 117.174 73.381 117.319C74.1256 117.481 74.8702 117.611 75.6149 117.724C77.1041 117.983 78.6096 118.161 80.115 118.323C81.6205 118.485 83.134 118.598 84.6476 118.687C86.1611 118.768 87.6747 118.825 89.1882 118.857C90.7018 118.881 92.2234 118.881 93.7289 118.865C95.2505 118.849 96.7641 118.809 98.2776 118.728L102.818 118.517L105.093 118.404L107.359 118.201L111.883 117.797C113.397 117.692 114.886 117.449 116.384 117.254L120.868 116.639C122.357 116.437 123.854 116.105 125.352 115.838L129.836 114.996L130.224 117.279L130.24 117.295Z" fill="url(#paint11_radial_1_11339)"/>
<path d="M27.2452 79.8775C25.764 82.678 24.38 85.5109 23.0769 88.3842C21.2477 88.0119 11.8345 89.7601 5.6913 84.9524C-5.15446 76.4377 1.80626 65.1953 9.66538 58.5826C10.6205 57.7894 11.5917 57.0124 12.5711 56.2597C12.9353 55.9845 13.2995 55.7093 13.6637 55.4422C16.6908 53.2164 19.8879 51.1929 23.1902 49.3556C23.4978 49.1857 23.8053 49.0076 24.121 48.8457C27.0024 47.2755 29.9728 45.851 32.9837 44.5317C33.348 44.3698 33.7203 44.208 34.0926 44.0542C35.4119 43.4876 36.7474 42.9534 38.0829 42.4273C40.1063 41.6422 42.1541 40.8895 44.2018 40.1853C44.817 39.9668 45.4321 39.7644 46.0553 39.5621C48.5806 38.7122 51.1302 37.919 53.6878 37.1501C55.5494 36.5916 67.2693 34.7301 68.1191 33.7021C68.0382 33.8397 67.9654 33.9692 67.8763 34.1149C61.3041 36.6159 55.4846 41.2213 50.4341 46.4742C49.8999 47.0408 49.3657 47.6074 48.8477 48.1739C45.7963 51.541 43.0444 55.0861 40.6001 58.4693C40.2844 58.9145 39.9687 59.3515 39.6612 59.7805C39.1351 60.5171 38.6252 61.2617 38.1152 61.9982C36.8769 63.7951 35.679 65.5919 34.5297 67.3968C33.696 68.6999 32.8785 70.0031 32.0853 71.3143C30.7741 73.4834 29.5196 75.6607 28.3217 77.8541C27.9494 78.534 27.5852 79.2057 27.229 79.8856L27.2452 79.8775Z" fill="url(#paint12_radial_1_11339)"/>
<path style="mix-blend-mode:multiply" opacity="0.7" d="M27.2452 79.8775C25.764 82.678 24.38 85.5109 23.0769 88.3842C21.2477 88.0119 11.8345 89.7601 5.6913 84.9524C-5.15446 76.4377 1.80626 65.1953 9.66538 58.5826C10.6205 57.7894 11.5917 57.0124 12.5711 56.2597C12.9353 55.9845 13.2995 55.7093 13.6637 55.4422C16.6908 53.2164 19.8879 51.1929 23.1902 49.3556C23.4978 49.1857 23.8053 49.0076 24.121 48.8457C27.0024 47.2755 29.9728 45.851 32.9837 44.5317C33.348 44.3698 33.7203 44.208 34.0926 44.0542C35.4119 43.4876 36.7474 42.9534 38.0829 42.4273C40.1063 41.6422 42.1541 40.8895 44.2018 40.1853C44.817 39.9668 45.4321 39.7644 46.0553 39.5621C48.5806 38.7122 51.1302 37.919 53.6878 37.1501C55.5494 36.5916 67.2693 34.7301 68.1191 33.7021C68.0382 33.8397 67.9654 33.9692 67.8763 34.1149C61.3041 36.6159 55.4846 41.2213 50.4341 46.4742C49.8999 47.0408 49.3657 47.6074 48.8477 48.1739C45.7963 51.541 43.0444 55.0861 40.6001 58.4693C40.2844 58.9145 39.9687 59.3515 39.6612 59.7805C39.1351 60.5171 38.6252 61.2617 38.1152 61.9982C36.8769 63.7951 35.679 65.5919 34.5297 67.3968C33.696 68.6999 32.8785 70.0031 32.0853 71.3143C30.7741 73.4834 29.5196 75.6607 28.3217 77.8541C27.9494 78.534 27.5852 79.2057 27.229 79.8856L27.2452 79.8775Z" fill="url(#paint13_linear_1_11339)"/>
<path d="M42.0852 106.684C32.5749 106.514 26.2374 96.0894 23.3884 88.5459C23.356 88.465 23.2508 88.4164 23.0809 88.3841C23.3237 87.8499 23.5665 87.3076 23.8174 86.7734C24.1412 86.0773 24.473 85.3893 24.8048 84.7014C26.2698 81.6743 27.84 78.6876 29.5074 75.7334C29.8797 75.0778 30.252 74.4141 30.6324 73.7585L30.6324 73.7504C32.1783 71.1199 33.7971 68.5056 35.4968 65.9074C36.3062 64.661 37.1318 63.4307 37.9897 62.1924C38.5401 61.383 39.1067 60.5736 39.6732 59.7723C41.1625 57.676 42.7732 55.4907 44.5053 53.3134L44.5053 53.3053C44.9909 52.6983 45.4846 52.0913 45.9864 51.4761C48.0828 48.9508 50.3409 46.4579 52.7691 44.1512C53.3195 43.617 53.886 43.099 54.4688 42.5891C58.5157 38.9873 62.9997 35.9602 67.8965 34.0986C67.2247 35.1589 66.3748 36.1059 65.784 37.231C65.096 38.5179 64.8694 40.0233 64.2704 41.3426C63.6472 42.7186 63.1859 44.1512 62.7569 45.6081C62.7002 45.8104 62.6436 46.0128 62.5869 46.207C62.4331 46.7736 62.2794 47.3402 62.1337 47.8986C61.6238 49.9302 61.1867 51.9779 60.8386 54.0257C60.7901 54.2847 60.7496 54.5437 60.7011 54.8108C60.3368 57.0204 60.0616 59.2381 59.8431 61.472C59.8188 61.6986 59.8026 61.9172 59.7784 62.1438C59.4303 65.8589 59.2361 69.5982 59.1066 73.3214C59.1066 73.5238 59.0904 73.718 59.0823 73.9204C59.0337 75.3773 58.9933 76.826 58.9528 78.2748C58.8961 80.3792 58.7504 82.9045 58.4186 85.5512C58.3862 85.8102 58.3538 86.0611 58.3134 86.3282C57.7711 90.2537 56.8079 94.4059 55.1001 97.9267C52.6315 103.01 48.6169 106.781 42.0771 106.668L42.0852 106.684Z" fill="url(#paint14_linear_1_11339)"/>
<path d="M58.3166 86.3446C57.4263 86.7007 56.455 87.0811 55.419 87.4453C54.3668 87.8176 53.2417 88.1819 52.0762 88.5299C50.8945 88.8618 49.6723 89.1936 48.4097 89.4607C47.1471 89.744 45.844 89.9625 44.5328 90.1568C43.8772 90.2377 43.2215 90.3186 42.5579 90.3753C41.8942 90.4158 41.2386 90.4967 40.583 90.5048C39.9193 90.5291 39.2637 90.5534 38.6162 90.5372C38.2924 90.5372 37.9686 90.5291 37.6449 90.521C37.3211 90.5048 37.0055 90.4886 36.6898 90.4643C36.3742 90.4401 36.0585 90.432 35.7509 90.3996C35.4434 90.3672 35.1277 90.3267 34.8282 90.2944C34.2131 90.2377 33.6222 90.1325 33.0476 90.0354C32.7643 89.9868 32.4729 89.9382 32.1896 89.8816C31.9064 89.8168 31.6393 89.7521 31.3641 89.6954C31.097 89.6307 30.8299 89.5659 30.5628 89.5093C30.3038 89.4445 30.0529 89.3636 29.802 89.2907C28.8064 89.0155 27.9242 88.6756 27.1229 88.3761C26.3378 88.0524 25.6174 87.7043 25.059 87.4453C24.5005 87.1459 24.0796 86.9192 23.8206 86.7816C23.6264 86.6764 23.5211 86.6198 23.5211 86.6198L24.8 84.7096L26.0869 82.7914C26.0869 82.7914 26.6049 83.1556 27.5195 83.7788C27.9485 84.0297 28.4179 84.3292 29.0249 84.6691C29.6563 84.9848 30.3685 85.3652 31.1941 85.689C31.3964 85.7699 31.5988 85.867 31.8173 85.9561C32.0359 86.0289 32.2544 86.1098 32.4891 86.1827C32.7157 86.2636 32.9424 86.3446 33.1771 86.4336C33.4118 86.5145 33.6627 86.5712 33.9055 86.644C34.3993 86.7897 34.9092 86.9354 35.4434 87.0406C35.7105 87.1054 35.9776 87.162 36.2528 87.2268C36.5279 87.2834 36.8112 87.3239 37.0864 87.3806C37.3697 87.4291 37.653 87.4777 37.9363 87.5263C38.2276 87.5586 38.519 87.5991 38.8185 87.6396C39.4013 87.7205 40.0083 87.761 40.6153 87.8015C41.2224 87.8581 41.8375 87.8581 42.4607 87.8824C43.084 87.8986 43.7072 87.8824 44.3304 87.8824C45.585 87.8338 46.8476 87.7691 48.0779 87.6315C49.3162 87.5101 50.5303 87.3239 51.712 87.1297C52.8856 86.9111 54.0187 86.6926 55.0871 86.4336C56.1555 86.1908 57.1592 85.9156 58.0819 85.6566C58.1871 85.6242 58.2923 85.5999 58.3975 85.5676C58.3651 85.8266 58.3328 86.0775 58.2923 86.3446L58.3166 86.3446ZM59.1017 73.3378C58.7213 73.4268 58.3247 73.532 57.9038 73.6291C54.8524 74.3414 50.7165 75.1103 46.6129 75.3369C46.0949 75.3693 45.5849 75.3774 45.0831 75.3936C44.5732 75.3936 44.0714 75.4098 43.5615 75.3936C42.566 75.3693 41.5947 75.3207 40.6639 75.2155C40.4373 75.1912 40.2106 75.1589 39.984 75.1346C39.7574 75.1022 39.5389 75.0617 39.3203 75.0294C38.8832 74.9727 38.4624 74.8837 38.0577 74.7866C37.653 74.7137 37.2726 74.6004 36.9084 74.4952C36.536 74.3981 36.1961 74.2685 35.8723 74.1552C35.5405 74.05 35.2491 73.9124 34.9658 73.791C34.8282 73.7263 34.6906 73.6696 34.553 73.6129C34.4316 73.5482 34.3102 73.4753 34.1888 73.4106C33.9622 73.2811 33.7113 73.1678 33.5575 73.0545C33.3956 72.9412 33.2499 72.8359 33.1123 72.7469C33.0395 72.6902 32.999 72.6741 32.91 72.6093C32.8371 72.5446 32.7643 72.4879 32.6915 72.4312C32.5539 72.3179 32.4406 72.2289 32.3434 72.148C32.1573 71.9942 32.052 71.9132 32.052 71.9132L30.6356 73.7505L30.6356 73.7586L29.2273 75.5797C29.2273 75.5797 29.3163 75.6364 29.5025 75.7416C29.5187 75.7578 29.5348 75.7659 29.551 75.774C29.6563 75.8388 29.7858 75.9116 29.9314 76.0006C30.0043 76.0492 30.0852 76.0978 30.1743 76.1463C30.2471 76.1949 30.4009 76.2677 30.5223 76.3325C30.7813 76.462 31.0727 76.6077 31.3883 76.7615C31.704 76.9152 32.0116 77.0124 32.3677 77.15C32.5377 77.2147 32.7157 77.2795 32.9019 77.3442C33.088 77.3928 33.2823 77.4575 33.4766 77.5061C33.8732 77.6194 34.2778 77.7408 34.7149 77.8137C35.1439 77.9027 35.5891 78.0079 36.0504 78.0565C36.5118 78.1212 36.9893 78.1941 37.4749 78.2183C37.9606 78.2588 38.4624 78.2912 38.9642 78.2993C39.2151 78.2993 39.4741 78.3074 39.7331 78.3155C39.9921 78.3155 40.2511 78.2993 40.5101 78.2993C41.5542 78.275 42.6145 78.186 43.6829 78.0646C44.2171 78.0079 44.7513 77.9189 45.2855 77.846C45.8197 77.757 46.3539 77.668 46.88 77.5627C51.1211 76.7534 55.16 75.4179 58.1142 74.2928C58.4461 74.1633 58.7698 74.0419 59.0693 73.9205C59.0693 73.7263 59.0855 73.5239 59.0936 73.3216L59.1017 73.3378ZM59.8301 61.4884C59.5226 61.6017 59.2069 61.7312 58.867 61.8607C56.3741 62.7996 52.9584 63.8437 49.5186 64.2807C49.0815 64.3293 48.6606 64.386 48.2316 64.4102C47.8027 64.4588 47.3899 64.475 46.969 64.4831C46.1353 64.5155 45.3179 64.4831 44.5489 64.4345C44.1604 64.4021 43.7881 64.3536 43.4239 64.3131C43.0678 64.2484 42.7116 64.1917 42.3798 64.127C42.0479 64.0379 41.7242 63.9732 41.4247 63.8841C41.1333 63.787 40.842 63.6899 40.5668 63.6009C40.2997 63.4875 40.0488 63.3904 39.814 63.2933C39.5793 63.1881 39.3689 63.0667 39.1665 62.9695C39.0694 62.9129 38.9642 62.8724 38.8833 62.8158C38.8023 62.7672 38.7295 62.7186 38.6566 62.662C38.5109 62.5729 38.3814 62.492 38.2681 62.4111C38.171 62.3463 38.0739 62.2735 37.9848 62.2087C37.8149 62.0873 37.6692 61.9659 37.564 61.8931C37.4021 61.7716 37.313 61.7069 37.313 61.7069L34.6906 65.5029C34.6906 65.5029 34.7878 65.5515 34.9739 65.6486C35.1115 65.7134 35.2734 65.8105 35.5 65.9157C35.5891 65.9562 35.6862 66.0128 35.7995 66.0614C36.0261 66.1585 36.277 66.2718 36.5522 66.3932C36.6898 66.4499 36.8274 66.5065 36.9812 66.5713C37.1269 66.6199 37.2726 66.6684 37.4183 66.717C37.7177 66.8141 38.0415 66.9274 38.3814 67.0165C38.7214 67.0974 39.0775 67.1864 39.4579 67.2674C39.8302 67.3321 40.2268 67.3969 40.6315 67.4535C41.0362 67.5021 41.4571 67.5264 41.878 67.5668C42.307 67.583 42.744 67.5911 43.1892 67.5911C43.6262 67.5749 44.0795 67.5587 44.5408 67.5264C45.4393 67.4454 46.3701 67.3321 47.2847 67.146C47.746 67.0569 48.2074 66.9598 48.6606 66.8465C49.122 66.7413 49.5671 66.6118 50.0123 66.4904C53.5979 65.4463 56.8597 63.8275 59.1988 62.492C59.4011 62.3787 59.5873 62.2654 59.7735 62.1521C59.7977 61.9335 59.8139 61.7069 59.8382 61.4803L59.8301 61.4884ZM60.8257 54.042C60.6881 54.0906 60.5424 54.1311 60.3886 54.1796C59.5064 54.4548 58.4542 54.6895 57.3372 54.8433C56.2203 54.989 55.0224 55.0133 53.865 54.9162C53.2903 54.8514 52.7237 54.7705 52.1733 54.6491C51.9062 54.5843 51.6392 54.5277 51.3721 54.4467C51.1131 54.3739 50.854 54.2929 50.6112 54.2039C50.3684 54.123 50.1256 54.0339 49.899 53.9368C49.6723 53.8397 49.4457 53.7506 49.2353 53.6373C48.8063 53.435 48.4259 53.2084 48.0779 53.0141C47.7379 52.7875 47.4061 52.5932 47.1713 52.4071L46.6857 52.0348C46.6291 51.9862 46.5724 51.9457 46.5157 51.9052C46.281 51.711 46.103 51.5653 45.9897 51.4763C45.9006 51.4034 45.8601 51.3711 45.8601 51.3711L44.5166 53.2974L44.5166 53.3055L43.2215 55.1509C43.2215 55.1509 43.4967 55.2885 43.9905 55.5232C44.0552 55.5556 44.1119 55.5879 44.1847 55.6122C44.2657 55.6527 44.3547 55.6932 44.4437 55.7336C44.6218 55.8146 44.816 55.8955 45.0265 55.9845C45.4474 56.1707 45.8925 56.3083 46.3862 56.4864C46.8962 56.6321 47.4384 56.802 48.0293 56.9234C48.3288 56.9963 48.6282 57.0448 48.9439 57.0934C49.2515 57.1501 49.5752 57.1905 49.899 57.2229C50.2227 57.2634 50.5546 57.2796 50.8864 57.2958C51.2183 57.32 51.5582 57.3119 51.8982 57.3119C52.578 57.3119 53.2579 57.2472 53.9297 57.1662C55.2733 56.972 56.5683 56.6401 57.7095 56.2112C58.8589 55.7822 59.8706 55.2885 60.6962 54.8109C60.7366 54.5438 60.7852 54.2848 60.8338 54.0258L60.8257 54.042ZM62.582 46.2153C62.4121 46.2234 62.2421 46.2396 62.0721 46.2396C61.8536 46.2396 61.627 46.2234 61.4003 46.2072C61.1818 46.2072 60.9552 46.1667 60.7366 46.1343L60.081 46.021C59.6521 45.8834 59.2312 45.7863 58.8346 45.6163C58.438 45.4221 58.0495 45.2926 57.6933 45.0821C57.3453 44.8717 57.0135 44.6774 56.6897 44.4832C56.4145 44.2647 56.1555 44.0623 55.9127 43.8681C55.7913 43.779 55.678 43.69 55.5728 43.6091C55.4433 43.4957 55.3299 43.3905 55.2166 43.2853C54.9981 43.083 54.8038 42.9049 54.6501 42.7592C54.5772 42.6944 54.5206 42.6378 54.4639 42.5892C54.2616 42.4031 54.1482 42.2979 54.1482 42.2979L52.7642 44.1513L51.3802 45.9967C51.3802 45.9967 51.6068 46.1101 51.9953 46.2962C52.1895 46.3933 52.4323 46.5147 52.7075 46.6442C52.8451 46.709 52.9908 46.7818 53.1446 46.8547C53.3389 46.9275 53.5331 47.0166 53.7436 47.0975C54.1563 47.2513 54.6015 47.4294 55.0709 47.6155C55.5485 47.7369 56.0503 47.8664 56.5602 48.004C57.0782 48.1335 57.6448 48.174 58.1871 48.2468C58.7455 48.3035 59.3202 48.2711 59.8787 48.2792L60.7205 48.1821C60.9956 48.1497 61.2708 48.1173 61.5379 48.0445C61.7241 47.9959 61.9183 47.9474 62.1045 47.9069C62.2502 47.3484 62.404 46.7737 62.5578 46.2153L62.582 46.2153Z" fill="url(#paint15_linear_1_11339)"/>
<path d="M25.8461 81.7148C25.8461 81.7148 25.3766 81.3506 24.5592 80.7031C24.3568 80.5331 24.1383 80.3794 23.8793 80.1608C23.6203 79.9423 23.3451 79.6995 23.0537 79.4486C22.7623 79.1976 22.4386 78.9305 22.1229 78.6392C21.8154 78.3478 21.4916 78.0321 21.1598 77.7084C20.9898 77.5465 20.8279 77.3765 20.6498 77.2147C20.488 77.0366 20.318 76.8585 20.148 76.6643C19.8081 76.292 19.4439 75.9196 19.1039 75.5149C18.764 75.1022 18.4159 74.6732 18.0598 74.2442C17.7199 73.8071 17.388 73.3377 17.0481 72.8683C16.7081 72.3988 16.4087 71.8808 16.0849 71.3871C15.7612 70.8853 15.4941 70.343 15.1946 69.8169C14.9113 69.2827 14.6685 68.7161 14.4095 68.1738C14.191 67.5992 13.9481 67.0407 13.7539 66.466C13.5677 65.8833 13.3573 65.3167 13.2197 64.7178L12.9931 63.8436C12.9364 63.5441 12.8797 63.2528 12.8231 62.9614C12.6936 62.3867 12.645 61.7878 12.5641 61.2212C12.5236 60.6385 12.4508 60.0719 12.4508 59.5134C12.4022 58.3884 12.4832 57.3038 12.5722 56.2921C12.5722 56.2921 12.5722 56.2921 12.5722 56.284C12.9364 56.0088 13.3006 55.7336 13.6649 55.4665C13.6649 55.7498 13.6649 56.0412 13.6649 56.3325C13.7053 57.3119 13.7539 58.3398 13.94 59.3758C14.0048 59.9019 14.1424 60.428 14.2476 60.9541C14.4014 61.4802 14.5066 62.0144 14.6928 62.5324C14.7818 62.7914 14.8627 63.0504 14.9518 63.3256L15.2593 64.1026C15.4536 64.6206 15.7126 65.1225 15.9473 65.6243C16.1901 66.118 16.4734 66.6036 16.7405 67.0893C17.0481 67.5587 17.3233 68.0362 17.6389 68.4895C17.9708 68.9266 18.2703 69.3798 18.6102 69.8007C18.9663 70.2135 19.282 70.6344 19.6381 71.0148C20.0023 71.3952 20.3504 71.7837 20.6984 72.1398C21.0626 72.4878 21.4268 72.8278 21.7749 73.1596C22.131 73.4915 22.5033 73.7829 22.8433 74.0823C23.0132 74.228 23.1832 74.3737 23.3532 74.5194L23.8712 74.9079C24.2111 75.1669 24.5349 75.4097 24.8425 75.6445C25.1581 75.8711 25.4576 76.0572 25.7328 76.2515C26.0161 76.4376 26.2751 76.6157 26.5179 76.7776C26.7607 76.9395 27.0278 77.0932 27.2463 77.2308C27.732 77.5303 28.1043 77.7489 28.339 77.8945C28.5413 78.0159 28.6547 78.0807 28.6547 78.0807L27.2544 79.918L25.8542 81.7553L25.8461 81.7148ZM34.5389 67.3887L34.5146 67.3725C34.1666 67.1135 33.8509 66.8303 33.4462 66.4822C33.0415 66.1585 32.6045 65.7214 32.1188 65.2681C31.876 65.0415 31.6413 64.7825 31.3904 64.5316C31.1395 64.2807 30.8886 64.0055 30.6377 63.7222C30.1277 63.1556 29.6259 62.5324 29.116 61.8687C28.8813 61.5288 28.6223 61.1888 28.3876 60.8327C28.1609 60.4766 27.91 60.1124 27.6915 59.74C27.2463 58.9873 26.8093 58.2103 26.4369 57.4009L26.1537 56.7939L25.9028 56.1787C25.7247 55.7741 25.5871 55.3532 25.4252 54.9404C25.1419 54.1067 24.8991 53.2731 24.713 52.4475C24.4135 51.1848 24.2273 49.9627 24.1383 48.8457C23.8307 49.0157 23.5151 49.1857 23.2075 49.3556C23.1427 50.3755 23.1427 51.4924 23.2318 52.666C23.2884 53.5563 23.4018 54.471 23.5636 55.3936C23.6527 55.855 23.7336 56.3244 23.8469 56.7858L24.0169 57.4819L24.2111 58.1779C24.4701 59.1087 24.7939 60.0152 25.15 60.9056C25.32 61.3507 25.5304 61.7797 25.7166 62.2087C25.9108 62.6376 26.1294 63.0504 26.3398 63.4632C26.7688 64.2726 27.214 65.0496 27.6753 65.7538C27.8938 66.118 28.1286 66.4579 28.3633 66.7817C28.598 67.1054 28.8084 67.4292 29.0351 67.7287C29.4964 68.3114 29.893 68.8537 30.3139 69.3232C30.7186 69.7926 31.0909 70.2297 31.358 70.5049C31.698 70.8691 31.9489 71.1443 32.1026 71.2981C32.1998 71.4033 32.2483 71.4518 32.2483 71.4518L35.5425 68.1657C35.5425 68.1657 35.1783 67.8825 34.547 67.3806L34.5389 67.3887ZM41.4429 59.0359C41.1596 58.8578 40.9168 58.6717 40.6093 58.4531L40.5121 58.3803C40.1641 58.1536 39.7918 57.8218 39.3709 57.4738C39.1524 57.3038 38.9662 57.1014 38.7477 56.9072C38.5372 56.7129 38.3106 56.5106 38.1083 56.284C37.6793 55.8388 37.2665 55.3451 36.8537 54.819C36.4571 54.2848 36.0686 53.702 35.7368 53.0869C35.5749 52.7712 35.3968 52.4637 35.2592 52.1318L35.0407 51.6381L34.8545 51.1282C34.6036 50.4483 34.4175 49.7522 34.2718 49.04C34.1342 48.3358 34.0452 47.6236 34.0047 46.9275C33.9561 45.9077 34.0047 44.9283 34.118 44.038C33.7457 44.1999 33.3734 44.3536 33.0091 44.5155C32.8068 45.244 32.6287 46.0372 32.5154 46.8708C32.4102 47.6155 32.3535 48.4087 32.3535 49.218C32.3616 50.0193 32.4183 50.8449 32.5559 51.6705L32.6611 52.2856L32.8068 52.8926C32.8877 53.3054 33.0172 53.6939 33.1467 54.0986C33.3977 54.8918 33.7133 55.6446 34.0614 56.3649C34.4175 57.0772 34.806 57.7571 35.2107 58.3641C35.4049 58.6798 35.6154 58.9711 35.8177 59.2463C36.0282 59.5215 36.2143 59.8048 36.4248 60.0476C36.8375 60.5413 37.2018 61.0027 37.5903 61.3912C37.7926 61.6016 37.9788 61.804 38.1487 61.9739C38.2944 62.1277 38.432 62.2653 38.5453 62.3705C39.0391 62.8481 39.3304 63.1233 39.3304 63.1233L42.3818 59.6267C42.3818 59.6267 42.0419 59.4082 41.4672 59.0278L41.4429 59.0359ZM50.4433 46.458C50.3624 46.3933 50.249 46.3043 50.1276 46.199C49.9577 46.0614 49.7553 45.8996 49.5125 45.7134C49.3182 45.5434 49.1726 45.3816 48.954 45.1873C48.8488 45.0902 48.7436 44.9931 48.6303 44.8716C48.5251 44.7421 48.4198 44.6046 48.3065 44.467C48.1932 44.3213 48.0799 44.1756 47.9504 44.0299C47.8371 43.8761 47.7399 43.7061 47.6347 43.5362C47.5295 43.3581 47.4162 43.1881 47.3029 43.0101C47.2139 42.8239 47.1248 42.6297 47.0277 42.4435C46.8253 42.055 46.6797 41.6422 46.5178 41.2213C46.4368 41.0109 46.3721 40.7923 46.3154 40.5738C46.2588 40.3553 46.2021 40.1367 46.1455 39.9182C46.1212 39.7968 46.0969 39.6673 46.0726 39.5459C45.4494 39.7482 44.8343 39.9587 44.2191 40.1691C44.2029 40.3877 44.2029 40.5981 44.1867 40.8085C44.1706 41.0675 44.1625 41.3265 44.1867 41.5855C44.2029 42.1116 44.2272 42.6458 44.3163 43.1558C44.3567 43.4148 44.3972 43.6738 44.4296 43.9328C44.4943 44.1837 44.5591 44.4346 44.6238 44.6855C44.6886 44.9283 44.7452 45.1792 44.8181 45.4139C44.9071 45.6487 44.9961 45.8753 45.0852 46.1019C45.1742 46.3204 45.2551 46.539 45.3442 46.7575C45.4413 46.968 45.5708 47.1784 45.676 47.3807C45.8946 47.7692 46.1131 48.1658 46.2912 48.4572C46.4611 48.7081 46.6068 48.9186 46.7282 49.0966C46.971 49.4528 47.1086 49.6551 47.1086 49.6551L48.865 48.1578L50.6699 46.628C50.6699 46.628 50.5971 46.5633 50.4595 46.458L50.4433 46.458Z" fill="url(#paint16_linear_1_11339)"/>
<path d="M21.9259 88.0359L23.9494 84.0295C24.6373 82.7021 25.2525 81.3423 26.0133 80.0311L28.2553 76.0975C29.008 74.7863 29.7284 73.4589 30.562 72.2124L32.9821 68.4083L34.1962 66.5063L35.4912 64.6609C37.2314 62.2165 38.8987 59.7074 40.7279 57.3359C41.6344 56.1381 42.5652 54.9563 43.5041 53.7827C44.4511 52.6172 45.4223 51.4679 46.4098 50.3348C47.4134 49.2097 48.4252 48.1009 49.4693 47.0244C50.5215 45.9479 51.5899 44.8957 52.7068 43.884C53.2491 43.366 53.8238 42.8803 54.3984 42.3947C54.965 41.901 55.5396 41.4234 56.1386 40.9702C56.7294 40.5088 57.3122 40.0394 57.9354 39.6104C58.5506 39.1814 59.1495 38.7201 59.7889 38.3316C61.0435 37.506 62.3466 36.7614 63.674 36.0653C64.3538 35.7416 65.0175 35.4016 65.7055 35.0941L67.7856 34.2523L68.0527 33.8071L67.7937 34.2604L65.7379 35.1669C65.0661 35.4987 64.4105 35.8549 63.7468 36.1948C62.4518 36.9314 61.173 37.7165 59.9589 38.5744C59.3357 38.9791 58.7529 39.4566 58.1621 39.9018C57.5631 40.3389 56.9965 40.8245 56.4219 41.302C55.8472 41.7715 55.2806 42.2652 54.7384 42.7751C54.188 43.2769 53.6376 43.7787 53.1115 44.3048C52.035 45.3409 51.0152 46.4173 50.0035 47.5181C48.9998 48.6189 48.0286 49.752 47.0735 50.8932C46.1346 52.0507 45.2038 53.2162 44.3054 54.406C43.407 55.5958 42.5247 56.8017 41.6668 58.0158C39.9185 60.444 38.3483 62.9693 36.6972 65.4622L35.475 67.3318L34.3338 69.2501L32.0594 73.0947C31.2743 74.3654 30.6025 75.6847 29.9064 76.9959L27.8263 80.9295C27.1302 82.2326 26.5475 83.6248 25.9 84.9764L24.006 89.0476L21.9178 88.0359L21.9259 88.0359Z" fill="url(#paint17_radial_1_11339)"/>
<path d="M81.1752 85.2126C75.3315 85.2126 70.5885 80.4777 70.5885 74.6258C70.5885 68.774 75.3234 64.0391 81.1752 64.0391C87.0271 64.0391 91.7539 68.774 91.7539 74.6258C91.7539 80.4777 87.019 85.2126 81.1752 85.2126Z" fill="url(#paint18_radial_1_11339)"/>
<path style="mix-blend-mode:multiply" opacity="0.7" d="M81.1752 85.2126C75.3315 85.2126 70.5885 80.4777 70.5885 74.6258C70.5885 68.774 75.3234 64.0391 81.1752 64.0391C87.0271 64.0391 91.7539 68.774 91.7539 74.6258C91.7539 80.4777 87.019 85.2126 81.1752 85.2126Z" fill="url(#paint19_linear_1_11339)"/>
<path d="M72.1402 74.6257C72.1402 69.648 76.1871 65.6011 81.1648 65.6011C86.1425 65.6011 90.1895 69.648 90.1895 74.6257C90.1895 79.6034 86.1425 83.6504 81.1648 83.6504C76.1871 83.6504 72.1402 79.6034 72.1402 74.6257Z" fill="url(#paint20_linear_1_11339)"/>
<path d="M17.9458 41.07C17.9458 41.07 18.4557 40.2121 19.346 38.7147C19.5727 38.3424 19.7993 37.9296 20.0988 37.4763C20.4063 37.0231 20.7382 36.5294 21.0862 36.0114C21.4423 35.4934 21.8147 34.9349 22.2113 34.3521C22.6321 33.7936 23.0773 33.2109 23.5386 32.6038C24.0162 32.0049 24.4694 31.3493 25.0117 30.7261C25.5459 30.1028 26.1044 29.4553 26.6791 28.7997C27.2375 28.128 27.8608 27.4885 28.5083 26.8329C29.1558 26.1854 29.7871 25.4894 30.4832 24.8419C31.8834 23.5549 33.316 22.2114 34.8943 20.9892C35.6632 20.3579 36.4402 19.7265 37.2739 19.1519C38.0995 18.5691 38.9008 17.9621 39.7425 17.3955C40.5924 16.8532 41.4503 16.319 42.2921 15.7767C43.1258 15.2183 44.0323 14.7893 44.8902 14.2875C46.598 13.2838 48.403 12.523 50.0865 11.6974C51.8428 11.0095 53.494 10.2406 55.1451 9.73874C55.9626 9.46355 56.7558 9.19645 57.5166 8.93745C58.2936 8.72701 59.0545 8.51657 59.7748 8.32231C60.5033 8.13616 61.1831 7.91762 61.8549 7.78003C62.5267 7.64243 63.158 7.51293 63.757 7.39152C64.3559 7.27012 64.9063 7.1568 65.4243 7.05158C65.9423 6.97874 66.4199 6.90589 66.8569 6.84114C68.5809 6.59833 69.5684 6.45264 69.5684 6.45264C69.5684 6.45264 68.5971 6.65498 66.8893 7.00302C66.4603 7.09205 65.9909 7.18918 65.481 7.2944C64.9792 7.43199 64.4288 7.57768 63.846 7.73956C63.2633 7.89334 62.64 8.06331 61.9844 8.24138C61.3288 8.41135 60.6651 8.67035 59.9529 8.90507C59.2487 9.13979 58.5203 9.3907 57.7594 9.64971C57.0148 9.94918 56.254 10.2648 55.4689 10.5805C53.8744 11.1713 52.2961 12.0293 50.6207 12.8063C49.01 13.7209 47.3022 14.5627 45.6915 15.6472C44.8821 16.1814 44.0323 16.6509 43.2472 17.2498C42.454 17.8245 41.6608 18.3992 40.8676 18.9738C40.0906 19.5728 39.3459 20.2041 38.5851 20.8192C37.8162 21.4182 37.1039 22.0738 36.3998 22.7375C34.951 24.0082 33.656 25.3922 32.3852 26.7034C31.7539 27.3671 31.1954 28.0713 30.6127 28.7269C30.038 29.3906 29.4714 30.0381 28.9777 30.718C28.4678 31.3817 27.9822 32.0292 27.5046 32.6524C27.0271 33.2756 26.6305 33.9231 26.2177 34.5221C25.813 35.1291 25.4245 35.7038 25.0603 36.2542C24.7284 36.8207 24.4128 37.3549 24.1214 37.8568C23.8219 38.3586 23.5468 38.828 23.2958 39.257C23.0449 39.6941 22.8345 40.1473 22.6321 40.5277C21.8389 42.0736 21.3776 42.964 21.3776 42.964L17.9701 41.0781L17.9458 41.07Z" fill="#A1EA40"/>
<path d="M78.957 141.215C78.957 141.215 77.8157 141.142 75.8247 141.021C75.3228 140.988 74.7725 140.956 74.1735 140.915C73.5503 140.834 72.8785 140.745 72.1581 140.656C70.7255 140.47 69.0987 140.284 67.3909 139.887C66.5329 139.709 65.6345 139.523 64.7118 139.337C63.7972 139.102 62.8583 138.827 61.8952 138.56C59.9445 138.083 57.9777 137.281 55.9138 136.569C54.894 136.172 53.8903 135.703 52.8624 135.258C52.3525 135.031 51.8345 134.805 51.3165 134.578C50.8147 134.319 50.3048 134.052 49.8029 133.785C48.7993 133.242 47.7471 132.757 46.7597 132.158C45.7722 131.559 44.7848 130.952 43.7973 130.345C42.8099 129.738 41.8953 129.026 40.9483 128.37L39.548 127.366C39.1029 127.002 38.6577 126.646 38.2206 126.282C37.3465 125.553 36.44 124.881 35.6306 124.121C34.8212 123.36 34.0119 122.615 33.2187 121.879C32.4255 121.15 31.7375 120.333 31.0171 119.588C30.3049 118.827 29.5926 118.107 28.9937 117.322C28.3704 116.561 27.7634 115.816 27.1726 115.096C26.5736 114.384 26.0961 113.623 25.5862 112.935C25.0924 112.231 24.6149 111.559 24.1616 110.928C23.7489 110.264 23.3604 109.625 22.9961 109.034C22.6319 108.443 22.292 107.884 21.9682 107.374C21.6525 106.856 21.4178 106.355 21.1831 105.918C20.2523 104.145 19.7181 103.133 19.7181 103.133C19.7181 103.133 20.3009 104.113 21.3288 105.829C21.5878 106.249 21.8549 106.743 22.1867 107.237C22.5267 107.731 22.899 108.265 23.2956 108.839C23.6922 109.406 24.1131 110.013 24.5501 110.652C25.0358 111.26 25.5457 111.899 26.0718 112.571C26.6141 113.226 27.124 113.955 27.7553 114.627C28.3704 115.306 29.0099 116.003 29.6735 116.723C30.313 117.459 31.0495 118.139 31.786 118.843C32.5388 119.54 33.251 120.3 34.0685 120.98C34.8779 121.66 35.7035 122.356 36.5452 123.052C37.3708 123.756 38.3016 124.363 39.1919 125.035C39.6371 125.359 40.0903 125.691 40.5436 126.023L41.96 126.921C42.9151 127.504 43.8459 128.151 44.8333 128.694C45.8208 129.228 46.8082 129.762 47.7957 130.296C48.7831 130.83 49.8191 131.243 50.8147 131.713C51.3165 131.939 51.8183 132.166 52.312 132.393C52.8219 132.587 53.3319 132.773 53.8418 132.967C54.8616 133.34 55.849 133.744 56.8446 134.068C58.86 134.651 60.7782 135.314 62.6722 135.671C63.611 135.873 64.5176 136.091 65.3998 136.27C66.2901 136.407 67.1481 136.537 67.9817 136.658C69.6329 136.957 71.1383 137.038 72.4738 137.144C73.1375 137.2 73.7607 137.249 74.3354 137.297C74.9343 137.297 75.4928 137.306 75.9865 137.314C77.9857 137.33 79.127 137.338 79.127 137.338L78.9894 141.231L78.957 141.215Z" fill="#A1EA40"/>
<path d="M143.586 41.3045C143.586 41.3045 143.983 42.211 144.679 43.7893C145.043 44.5582 145.424 45.578 145.861 46.7597C146.079 47.3425 146.306 47.9657 146.557 48.6213C146.759 49.285 146.97 49.9811 147.196 50.7014C147.674 52.1421 148.046 53.7366 148.451 55.4282C148.677 56.2619 148.815 57.1441 148.977 58.0426C149.123 58.941 149.333 59.8475 149.438 60.7783C149.552 61.7172 149.665 62.6641 149.778 63.6273C149.916 64.5905 149.916 65.5698 149.997 66.5573C150.167 68.5403 150.086 70.5071 150.102 72.5629C149.964 74.5378 149.924 76.4884 149.633 78.4633C149.495 79.4427 149.438 80.422 149.244 81.369C149.074 82.316 148.904 83.2468 148.734 84.1695C148.572 85.0841 148.313 85.9744 148.111 86.8485C147.892 87.7146 147.706 88.5725 147.431 89.3819C146.929 91.0169 146.476 92.5547 145.917 93.9388C145.658 94.6348 145.408 95.2985 145.173 95.9299C144.898 96.545 144.639 97.1358 144.396 97.6862C143.91 98.787 143.489 99.7501 143.068 100.511C142.275 102.049 141.83 102.923 141.83 102.923C141.83 102.923 142.227 102.016 142.923 100.438C143.287 99.6611 143.651 98.6737 144.064 97.5486C144.274 96.9901 144.493 96.3912 144.728 95.7599C144.922 95.1205 145.132 94.4406 145.343 93.7364C145.812 92.3362 146.168 90.7822 146.557 89.1472C146.775 88.3378 146.905 87.4799 147.067 86.6138C147.212 85.7397 147.415 84.8656 147.52 83.951C147.625 83.0444 147.739 82.1137 147.852 81.1829C147.989 80.2521 147.981 79.3051 148.054 78.35C148.224 76.4641 148.135 74.465 148.159 72.4982C148.022 70.6123 147.981 68.6293 147.698 66.7515C147.569 65.8046 147.504 64.8576 147.318 63.943C147.148 63.0284 146.986 62.1219 146.816 61.2234C146.654 60.3331 146.403 59.4752 146.209 58.6253C145.998 57.7836 145.82 56.9499 145.553 56.1648C145.068 54.5784 144.622 53.081 144.08 51.7455C143.829 51.0738 143.586 50.4262 143.352 49.8111C143.093 49.2203 142.842 48.6537 142.607 48.1276C142.146 47.0754 141.741 46.1608 141.32 45.3838C140.527 43.8459 140.082 42.9718 140.082 42.9718L143.595 41.2964L143.586 41.3045Z" fill="#A1EA40"/>
</g>
<defs>
<radialGradient id="paint0_radial_1_11339" cx="0" cy="0" r="1" gradientUnits="userSpaceOnUse" gradientTransform="translate(138.384 35.0712) rotate(165.27) scale(34.1146 42.1694)">
<stop stop-color="#7FDB1A"/>
<stop offset="0.2" stop-color="#7AD218"/>
<stop offset="0.51" stop-color="#6CBB14"/>
<stop offset="0.9" stop-color="#57960D"/>
<stop offset="0.98" stop-color="#528E0C"/>
</radialGradient>
<linearGradient id="paint1_linear_1_11339" x1="148.059" y1="30.6802" x2="120.276" y2="40.3664" gradientUnits="userSpaceOnUse">
<stop stop-color="#5FA712" stop-opacity="0"/>
<stop offset="0.13" stop-color="#5EA511" stop-opacity="0.05"/>
<stop offset="0.32" stop-color="#5CA210" stop-opacity="0.2"/>
<stop offset="0.56" stop-color="#599C0F" stop-opacity="0.44"/>
<stop offset="0.82" stop-color="#54930D" stop-opacity="0.77"/>
<stop offset="0.98" stop-color="#528E0C"/>
</linearGradient>
<linearGradient id="paint2_linear_1_11339" x1="117.774" y1="34.5965" x2="89.6426" y2="52.0334" gradientUnits="userSpaceOnUse">
<stop offset="0.05" stop-color="#5CA605"/>
<stop offset="0.56" stop-color="#8EE22B"/>
<stop offset="0.68" stop-color="#90E32E"/>
<stop offset="0.77" stop-color="#99E637"/>
<stop offset="0.85" stop-color="#A7EC48"/>
<stop offset="0.93" stop-color="#BCF55F"/>
<stop offset="0.99" stop-color="#D4FF7A"/>
</linearGradient>
<linearGradient id="paint3_linear_1_11339" x1="116.083" y1="38.3002" x2="84.5342" y2="46.9901" gradientUnits="userSpaceOnUse">
<stop stop-color="#8CDF29"/>
<stop offset="0.12" stop-color="#82D124"/>
<stop offset="0.5" stop-color="#68AC17"/>
<stop offset="0.81" stop-color="#57960E"/>
<stop offset="1" stop-color="#528E0C"/>
</linearGradient>
<linearGradient id="paint4_linear_1_11339" x1="138.138" y1="32.7211" x2="112.013" y2="39.9172" gradientUnits="userSpaceOnUse">
<stop stop-color="#54990F"/>
<stop offset="0.76" stop-color="#54990F"/>
<stop offset="1" stop-color="#5CA512"/>
</linearGradient>
<radialGradient id="paint5_radial_1_11339" cx="0" cy="0" r="1" gradientUnits="userSpaceOnUse" gradientTransform="translate(112.26 45.2843) rotate(90) scale(25.3014 24.2893)">
<stop stop-color="#8EE22B"/>
<stop offset="0.37" stop-color="#8DE12A" stop-opacity="0.99"/>
<stop offset="0.51" stop-color="#8ADD29" stop-opacity="0.96"/>
<stop offset="0.6" stop-color="#86D828" stop-opacity="0.92"/>
<stop offset="0.68" stop-color="#7FCF25" stop-opacity="0.85"/>
<stop offset="0.75" stop-color="#77C522" stop-opacity="0.76"/>
<stop offset="0.81" stop-color="#6DB81E" stop-opacity="0.64"/>
<stop offset="0.86" stop-color="#61A819" stop-opacity="0.51"/>
<stop offset="0.91" stop-color="#529614" stop-opacity="0.36"/>
<stop offset="0.95" stop-color="#43820E" stop-opacity="0.19"/>
<stop offset="0.96" stop-color="#407E0D" stop-opacity="0.15"/>
</radialGradient>
<radialGradient id="paint6_radial_1_11339" cx="0" cy="0" r="1" gradientUnits="userSpaceOnUse" gradientTransform="translate(100.91 124.94) rotate(-87.14) scale(32.6931 44.0647)">
<stop stop-color="#7FDB1A"/>
<stop offset="0.2" stop-color="#7AD218"/>
<stop offset="0.51" stop-color="#6CBB14"/>
<stop offset="0.9" stop-color="#57960D"/>
<stop offset="0.98" stop-color="#528E0C"/>
</radialGradient>
<linearGradient id="paint7_linear_1_11339" x1="100.871" y1="138.971" x2="100.248" y2="110.767" gradientUnits="userSpaceOnUse">
<stop stop-color="#5FA712" stop-opacity="0"/>
<stop offset="0.13" stop-color="#5EA511" stop-opacity="0.05"/>
<stop offset="0.32" stop-color="#5CA210" stop-opacity="0.2"/>
<stop offset="0.56" stop-color="#599C0F" stop-opacity="0.44"/>
<stop offset="0.82" stop-color="#54930D" stop-opacity="0.77"/>
<stop offset="0.98" stop-color="#528E0C"/>
</linearGradient>
<linearGradient id="paint8_linear_1_11339" x1="102.198" y1="124.166" x2="94.7551" y2="92.5319" gradientUnits="userSpaceOnUse">
<stop offset="0.05" stop-color="#5CA605"/>
<stop offset="0.56" stop-color="#8EE22B"/>
<stop offset="0.68" stop-color="#90E32E"/>
<stop offset="0.77" stop-color="#99E637"/>
<stop offset="0.85" stop-color="#A7EC48"/>
<stop offset="0.93" stop-color="#BCF55F"/>
<stop offset="0.99" stop-color="#D4FF7A"/>
</linearGradient>
<linearGradient id="paint9_linear_1_11339" x1="99.4356" y1="120.204" x2="101.155" y2="88.9687" gradientUnits="userSpaceOnUse">
<stop stop-color="#8CDF29"/>
<stop offset="0.12" stop-color="#82D124"/>
<stop offset="0.5" stop-color="#68AC17"/>
<stop offset="0.81" stop-color="#57960E"/>
<stop offset="1" stop-color="#528E0C"/>
</linearGradient>
<linearGradient id="paint10_linear_1_11339" x1="97.8747" y1="142.353" x2="99.2983" y2="116.484" gradientUnits="userSpaceOnUse">
<stop stop-color="#54990F"/>
<stop offset="0.76" stop-color="#54990F"/>
<stop offset="1" stop-color="#5CA512"/>
</linearGradient>
<radialGradient id="paint11_radial_1_11339" cx="0" cy="0" r="1" gradientUnits="userSpaceOnUse" gradientTransform="translate(94.3674 115.636) rotate(90) scale(25.8761 26.6523)">
<stop stop-color="#8EE22B"/>
<stop offset="0.37" stop-color="#8DE12A" stop-opacity="0.99"/>
<stop offset="0.51" stop-color="#8ADD29" stop-opacity="0.96"/>
<stop offset="0.6" stop-color="#86D828" stop-opacity="0.92"/>
<stop offset="0.68" stop-color="#7FCF25" stop-opacity="0.85"/>
<stop offset="0.75" stop-color="#77C522" stop-opacity="0.76"/>
<stop offset="0.81" stop-color="#6DB81E" stop-opacity="0.64"/>
<stop offset="0.86" stop-color="#61A819" stop-opacity="0.51"/>
<stop offset="0.91" stop-color="#529614" stop-opacity="0.36"/>
<stop offset="0.95" stop-color="#43820E" stop-opacity="0.19"/>
<stop offset="0.96" stop-color="#407E0D" stop-opacity="0.15"/>
</radialGradient>
<radialGradient id="paint12_radial_1_11339" cx="0" cy="0" r="1" gradientUnits="userSpaceOnUse" gradientTransform="translate(20.4381 47.9784) rotate(36.89) scale(33.6408 43.1171)">
<stop stop-color="#7FDB1A"/>
<stop offset="0.2" stop-color="#7AD218"/>
<stop offset="0.51" stop-color="#6CBB14"/>
<stop offset="0.9" stop-color="#57960D"/>
<stop offset="0.98" stop-color="#528E0C"/>
</radialGradient>
<linearGradient id="paint13_linear_1_11339" x1="13.1463" y1="41.3803" x2="37.6042" y2="57.014" gradientUnits="userSpaceOnUse">
<stop stop-color="#5FA712" stop-opacity="0"/>
<stop offset="0.13" stop-color="#5EA511" stop-opacity="0.05"/>
<stop offset="0.32" stop-color="#5CA210" stop-opacity="0.2"/>
<stop offset="0.56" stop-color="#599C0F" stop-opacity="0.44"/>
<stop offset="0.82" stop-color="#54930D" stop-opacity="0.77"/>
<stop offset="0.98" stop-color="#528E0C"/>
</linearGradient>
<linearGradient id="paint14_linear_1_11339" x1="32.0701" y1="61.6887" x2="63.0305" y2="74.0668" gradientUnits="userSpaceOnUse">
<stop offset="0.05" stop-color="#5CA605"/>
<stop offset="0.56" stop-color="#8EE22B"/>
<stop offset="0.68" stop-color="#90E32E"/>
<stop offset="0.77" stop-color="#99E637"/>
<stop offset="0.85" stop-color="#A7EC48"/>
<stop offset="0.93" stop-color="#BCF55F"/>
<stop offset="0.99" stop-color="#D4FF7A"/>
</linearGradient>
<linearGradient id="paint15_linear_1_11339" x1="37.1888" y1="61.8099" x2="62.1385" y2="81.4364" gradientUnits="userSpaceOnUse">
<stop stop-color="#8CDF29"/>
<stop offset="0.12" stop-color="#82D124"/>
<stop offset="0.5" stop-color="#68AC17"/>
<stop offset="0.81" stop-color="#57960E"/>
<stop offset="1" stop-color="#528E0C"/>
</linearGradient>
<linearGradient id="paint16_linear_1_11339" x1="19.3643" y1="47.5809" x2="39.9373" y2="63.7644" gradientUnits="userSpaceOnUse">
<stop stop-color="#54990F"/>
<stop offset="0.76" stop-color="#54990F"/>
<stop offset="1" stop-color="#5CA512"/>
</linearGradient>
<radialGradient id="paint17_radial_1_11339" cx="0" cy="0" r="1" gradientUnits="userSpaceOnUse" gradientTransform="translate(45.2362 61.132) rotate(90) scale(25.8194 25.8194)">
<stop stop-color="#8EE22B"/>
<stop offset="0.37" stop-color="#8DE12A" stop-opacity="0.99"/>
<stop offset="0.51" stop-color="#8ADD29" stop-opacity="0.96"/>
<stop offset="0.6" stop-color="#86D828" stop-opacity="0.92"/>
<stop offset="0.68" stop-color="#7FCF25" stop-opacity="0.85"/>
<stop offset="0.75" stop-color="#77C522" stop-opacity="0.76"/>
<stop offset="0.81" stop-color="#6DB81E" stop-opacity="0.64"/>
<stop offset="0.86" stop-color="#61A819" stop-opacity="0.51"/>
<stop offset="0.91" stop-color="#529614" stop-opacity="0.36"/>
<stop offset="0.95" stop-color="#43820E" stop-opacity="0.19"/>
<stop offset="0.96" stop-color="#407E0D" stop-opacity="0.15"/>
</radialGradient>
<radialGradient id="paint18_radial_1_11339" cx="0" cy="0" r="1" gradientUnits="userSpaceOnUse" gradientTransform="translate(81.1031 72.3353) rotate(90) scale(12.9825 16.7475)">
<stop stop-color="#7FDB1A"/>
<stop offset="0.2" stop-color="#7AD218"/>
<stop offset="0.51" stop-color="#6CBB14"/>
<stop offset="0.9" stop-color="#57960D"/>
<stop offset="0.98" stop-color="#528E0C"/>
</radialGradient>
<linearGradient id="paint19_linear_1_11339" x1="80.4225" y1="64.638" x2="81.7418" y2="82.2502" gradientUnits="userSpaceOnUse">
<stop stop-color="#5FA712" stop-opacity="0"/>
<stop offset="0.18" stop-color="#5DA411" stop-opacity="0.05"/>
<stop offset="0.46" stop-color="#5A9E10" stop-opacity="0.2"/>
<stop offset="0.79" stop-color="#55940D" stop-opacity="0.44"/>
<stop offset="0.98" stop-color="#528E0C" stop-opacity="0.6"/>
</linearGradient>
<linearGradient id="paint20_linear_1_11339" x1="69.1778" y1="78.875" x2="90.4242" y2="71.3477" gradientUnits="userSpaceOnUse">
<stop stop-color="#5FA712" stop-opacity="0"/>
<stop offset="0.11" stop-color="#65AA17" stop-opacity="0.04"/>
<stop offset="0.26" stop-color="#76B328" stop-opacity="0.14"/>
<stop offset="0.46" stop-color="#91C243" stop-opacity="0.3"/>
<stop offset="0.56" stop-color="#A3CC54" stop-opacity="0.41"/>
<stop offset="0.64" stop-color="#B0D361" stop-opacity="0.5"/>
<stop offset="0.8" stop-color="#D4E784" stop-opacity="0.73"/>
<stop offset="0.98" stop-color="#FFFFAE"/>
</linearGradient>
</defs>
</svg>
