<svg width="114" height="23" viewBox="0 0 114 23" fill="none" xmlns="http://www.w3.org/2000/svg">
<circle cx="111.381" cy="2.57304" r="2.46269" transform="rotate(90 111.381 2.57304)" fill="#39CA6E"/>
<circle cx="84.2912" cy="2.57304" r="2.46269" transform="rotate(90 84.2912 2.57304)" fill="#39CA6E"/>
<circle cx="57.2024" cy="2.57304" r="2.46269" transform="rotate(90 57.2024 2.57304)" fill="#39CA6E"/>
<circle cx="30.1125" cy="2.57304" r="2.46269" transform="rotate(90 30.1125 2.57304)" fill="#39CA6E"/>
<circle cx="3.02267" cy="2.57304" r="2.46269" transform="rotate(90 3.02267 2.57304)" fill="#39CA6E"/>
<circle cx="111.381" cy="19.8116" r="2.46269" transform="rotate(90 111.381 19.8116)" fill="#39CA6E"/>
<circle cx="84.2912" cy="19.8116" r="2.46269" transform="rotate(90 84.2912 19.8116)" fill="#39CA6E"/>
<circle cx="57.2024" cy="19.8116" r="2.46269" transform="rotate(90 57.2024 19.8116)" fill="#39CA6E"/>
<circle cx="30.1125" cy="19.8116" r="2.46269" transform="rotate(90 30.1125 19.8116)" fill="#39CA6E"/>
<circle cx="3.02267" cy="19.8116" r="2.46269" transform="rotate(90 3.02267 19.8116)" fill="#39CA6E"/>
</svg>
