<svg width="318" height="280" viewBox="0 0 318 280" fill="none" xmlns="http://www.w3.org/2000/svg">
<path opacity="0.3" d="M119.787 142.143C119.787 142.143 106.662 155.51 87.7129 149.164C82.0702 147.275 35.8241 185.763 42.0064 191.789C48.1876 197.814 73.9688 139.535 71.0269 133.908C69.1536 130.326 12.2738 133.965 14.9985 144.798C17.7232 155.632 64.4495 124.102 64.6866 113.355C64.9236 102.606 12.963 80.835 11.5128 88.1636C10.0626 95.4922 64.252 100.308 68.0444 89.1343C71.8377 77.961 36.5934 30.924 32.4819 37.0585C28.3704 43.1931 76.6863 74.5998 81.4329 71.381C86.1785 68.1621 79.5555 4.59402 72.2889 5.17692C65.0223 5.76105 93.7424 64.0229 99.7823 63.3492C105.822 62.6755 128.227 3.39018 120.266 1.06226C112.305 -1.26566 112.042 62.4276 119.702 68.3327C127.362 74.239 169.677 31.8321 163.416 26.6976C157.155 21.5632 130.9 75.746 134.484 83.5973C138.068 91.4487 192.117 79.436 190.566 72.8057C189.015 66.1753 139.965 95.9094 140.902 105.35C141.84 114.791 192.618 138.259 193.394 129.159C194.171 120.061 144.45 120.379 137.181 128.5C120.684 146.927 93.8505 156.228 77.7352 132.536C64.6876 113.355 70.951 84.2306 95.8517 76.254C116.066 69.7783 139.681 88.9478 132.206 120.137C126.098 145.629 102.513 154.245 102.513 154.245L1.21281 235.709C0.85832 235.993 0.967475 236.64 1.38642 236.744L171.251 279.077C172.776 279.457 174.362 278.906 175.469 277.61L310.55 119.584C310.886 119.191 310.598 118.522 310.132 118.609L246.602 130.456C245.768 130.612 244.986 131.033 244.34 131.676L225.028 150.882C224.333 151.573 223.48 152.009 222.578 152.132L175.727 158.553C175.24 158.62 174.984 157.893 175.368 157.534L191.947 142C192.34 141.632 192.061 140.889 191.567 140.984L154.467 148.134C153.714 148.278 153.003 148.64 152.398 149.188L135.268 164.662C134.57 165.293 133.734 165.676 132.858 165.767L112.458 167.886C111.975 167.936 111.734 167.215 112.116 166.863L125.382 154.612C125.632 154.38 125.461 153.907 125.146 153.961L106.761 157.118C106.082 157.234 105.434 157.528 104.863 157.975L89.3897 170.118C88.975 170.443 89.1943 171.208 89.6912 171.169L105.972 169.888C106.465 169.848 106.687 170.602 106.28 170.933L87.714 186.025C87.3158 186.349 87.5185 187.085 88.0009 187.071L111.226 186.42C112.18 186.393 113.104 186.019 113.872 185.349L135.436 166.507C136.095 165.931 136.871 165.572 137.686 165.466L170.474 161.21C170.959 161.148 171.212 161.874 170.828 162.231L149.04 182.51C148.669 182.856 148.891 183.561 149.363 183.535L194.306 181.057C195.345 180.999 196.338 180.531 197.124 179.727L220.821 155.477C221.527 154.754 222.401 154.301 223.328 154.176L284.614 145.898C285.076 145.835 285.342 146.502 285.006 146.882L255.734 180.005C254.903 180.945 253.806 181.487 252.657 181.525L195.333 183.4C194.284 183.434 193.277 183.887 192.475 184.686L161.998 215.022C161.108 215.908 159.968 216.366 158.805 216.305L118.008 214.151C117.559 214.128 117.375 213.46 117.726 213.129L144.737 187.683C145.103 187.338 144.885 186.641 144.417 186.66L112.588 187.971C111.678 188.009 110.799 188.361 110.057 188.986L87.4312 208.053C86.5923 208.76 85.5787 209.116 84.5485 209.067L62.623 208.001C62.1563 207.979 61.9827 207.268 62.3663 206.955L81.5753 191.278C81.9724 190.954 81.7697 190.219 81.2874 190.233L65.8914 190.649C65.0067 190.672 64.147 190.995 63.4131 191.578L41.1051 209.283C40.7132 209.593 40.8888 210.315 41.3608 210.333L56.1798 210.884C56.6497 210.902 56.8275 211.618 56.4397 211.931L30.1034 233.251C29.7416 233.544 29.8674 234.209 30.3009 234.291L50.115 238.055C51.3552 238.291 52.6224 237.921 53.6277 237.033L80.1064 213.627C80.9817 212.854 82.0608 212.47 83.1524 212.545L112.346 214.549C112.793 214.579 112.971 215.246 112.619 215.573L82.0691 243.938C81.7385 244.245 81.8716 244.869 82.2864 244.955L121.051 252.905C122.391 253.18 123.765 252.745 124.81 251.717L157.117 219.925C158.011 219.045 159.154 218.595 160.317 218.663L216.684 222.021C217.109 222.047 217.303 222.655 216.999 223.005L175.877 270.387C174.789 271.641 173.247 272.185 171.754 271.841L8.92534 234.324C8.5012 234.226 8.38789 233.573 8.74446 233.286L104.177 156.595C104.735 156.146 105.37 155.848 106.036 155.719L316.488 115.114C316.909 115.033 317.172 115.637 316.869 115.993L252.052 191.981C251.44 192.698 251.329 193.818 251.785 194.682L286.762 260.992C287.189 261.802 286.695 262.851 285.887 262.851H280.211C279.378 262.851 278.602 262.347 278.157 261.515L243.788 197.683" stroke="#717171" stroke-opacity="0.5" stroke-width="0.5" stroke-linecap="round" stroke-linejoin="round"/>
</svg>
