<svg width="108" height="112" viewBox="0 0 108 112" fill="none" xmlns="http://www.w3.org/2000/svg">
<path d="M43.2556 68.2915C41.7822 68.8383 6.31039 93.7252 3.21453 96.3351C-0.266755 99.2681 0.964129 102.406 0.964129 102.406L56.5839 69.2609L55.1728 65.7375L48.5397 69.6151C48.5397 69.6151 44.7289 67.7509 43.2556 68.2915Z" fill="white"/>
<path d="M3.21511 96.3353C2.70535 96.7703 2.27019 97.2052 1.88477 97.634L4.26572 96.2483L48.5402 69.6153C48.5402 69.6153 44.7295 67.7511 43.2561 68.2917C41.7828 68.8385 6.31098 93.7254 3.21511 96.3353Z" fill="#BDC5CA"/>
<path d="M64.8401 54.1298C65.2193 52.6011 64.5044 9.28986 64.0816 5.26943C63.6092 0.745674 60.3206 0 60.3206 0L56.5596 64.6189L60.2709 65.4267L60.7806 57.7649C60.7806 57.7649 64.4671 55.6584 64.8401 54.1298Z" fill="white"/>
<path d="M64.0816 5.26929C64.007 4.60439 63.8951 4.00164 63.7522 3.44238L63.5594 6.18895L60.7744 57.7648C60.7744 57.7648 64.4608 55.6583 64.8338 54.1296C65.2131 52.601 64.4981 9.28971 64.0754 5.26929H64.0816Z" fill="#BDC5CA"/>
<path d="M63.2362 78.4571C64.15 79.7372 97.4585 107.445 100.791 109.751C104.533 112.342 107.237 110.335 107.237 110.335L60.6812 65.3457L57.6475 67.6262L63.1305 73.0075C63.1305 73.0075 62.3286 77.1709 63.2362 78.4509V78.4571Z" fill="white"/>
<path d="M100.79 109.751C101.343 110.123 101.878 110.434 102.388 110.695L100.429 108.763L63.1298 73.0137C63.1298 73.0137 62.3278 77.177 63.2355 78.4571C64.1493 79.7372 97.4578 107.445 100.79 109.751Z" fill="#BDC5CA"/>
<path d="M107.237 110.335C107.194 110.379 96.9052 100.511 84.2607 88.2944C71.6099 76.0778 61.3961 66.1354 61.4396 66.0919C61.4831 66.0484 71.7716 75.9162 84.4161 88.1328C97.0606 100.349 107.281 110.286 107.237 110.335Z" fill="white"/>
<path d="M63.4501 67.3004C62.3808 70.2706 59.1109 71.8179 56.1394 70.7491C53.1679 69.6803 51.6199 66.4118 52.6892 63.4415C53.7584 60.4712 57.0284 58.9239 59.9999 59.9927C62.9714 61.0615 64.5193 64.3301 63.4501 67.3004Z" fill="white"/>
<path d="M61.2027 65.3212C61.2027 67.0797 59.7791 68.5027 58.0198 68.5027C56.2605 68.5027 54.8369 67.0797 54.8369 65.3212C54.8369 63.5626 56.2605 62.1396 58.0198 62.1396C59.7791 62.1396 61.2027 63.5626 61.2027 65.3212Z" fill="#BDC5CA"/>
</svg>
