<svg width="147" height="154" viewBox="0 0 147 154" fill="none" xmlns="http://www.w3.org/2000/svg">
<path d="M58.6745 94.8782C56.6406 95.6331 7.67202 129.989 3.39822 133.592C-1.40767 137.641 0.291558 141.973 0.291558 141.973L77.0741 96.2164L75.126 91.3525L65.9691 96.7054C65.9691 96.7054 60.7084 94.1319 58.6745 94.8782Z" fill="white"/>
<path d="M3.39806 133.592C2.69434 134.192 2.0936 134.793 1.56152 135.385L4.84841 133.472L65.969 96.7051C65.969 96.7051 60.7082 94.1317 58.6743 94.878C56.6404 95.6329 7.67186 129.989 3.39806 133.592Z" fill="#BDC5CA"/>
<path d="M88.4712 75.3282C88.9947 73.2179 88.0078 13.4271 87.4242 7.87694C86.772 1.63194 82.2321 0.602539 82.2321 0.602539L77.04 89.8083L82.1635 90.9235L82.8672 80.3465C82.8672 80.3465 87.9563 77.4384 88.4712 75.3282Z" fill="white"/>
<path d="M87.424 7.87676C87.321 6.95888 87.1665 6.12678 86.9691 5.35474L86.7031 9.14635L82.8584 80.3463C82.8584 80.3463 87.9475 77.4382 88.4624 75.328C88.9859 73.2177 87.999 13.4269 87.4154 7.87676H87.424Z" fill="#BDC5CA"/>
<path d="M86.2572 108.912C87.5187 110.679 133.501 148.93 138.101 152.112C143.267 155.689 147 152.918 147 152.918L82.73 90.8115L78.542 93.9598L86.1113 101.389C86.1113 101.389 85.0042 107.136 86.2572 108.903V108.912Z" fill="white"/>
<path d="M138.1 152.112C138.864 152.627 139.602 153.056 140.306 153.416L137.602 150.748L86.1107 101.397C86.1107 101.397 85.0036 107.145 86.2566 108.912C87.5181 110.679 133.5 148.93 138.1 152.112Z" fill="#BDC5CA"/>
<path d="M147 152.919C146.94 152.979 132.737 139.356 115.281 122.491C97.8166 105.626 83.7165 91.9011 83.7766 91.841C83.8366 91.781 98.0397 105.403 115.495 122.268C132.951 139.133 147.06 152.85 147 152.919Z" fill="white"/>
<path d="M86.5523 93.5097C85.0762 97.6101 80.5621 99.7461 76.4599 98.2706C72.3577 96.7951 70.2208 92.283 71.6969 88.1825C73.173 84.0821 77.6871 81.9461 81.7893 83.4216C85.8914 84.897 88.0283 89.4092 86.5523 93.5097Z" fill="white"/>
<path d="M83.451 90.7776C83.451 93.2053 81.4857 95.1697 79.057 95.1697C76.6284 95.1697 74.6631 93.2053 74.6631 90.7776C74.6631 88.3499 76.6284 86.3855 79.057 86.3855C81.4857 86.3855 83.451 88.3499 83.451 90.7776Z" fill="#BDC5CA"/>
</svg>
