<svg width="123" height="86" viewBox="0 0 123 86" fill="none" xmlns="http://www.w3.org/2000/svg">
<g opacity="0.3">
<path d="M19.5212 70.5967H15.3691V83.6203H19.5212V70.5967Z" fill="#E0E0E0"/>
<path d="M23.6176 82.2412H11.2725V85.6051H23.6176V82.2412Z" fill="#E0E0E0"/>
<path d="M86.5456 70.9998H82.3936V84.0233H86.5456V70.9998Z" fill="#E0E0E0"/>
<path d="M90.642 82.6357H78.2969V85.9996H90.642V82.6357Z" fill="#E0E0E0"/>
<path d="M51.1188 35.9924H46.9668V76.7084H51.1188V35.9924Z" fill="#323C45"/>
<path d="M55.2152 75.3293H42.8701V78.6932H55.2152V75.3293Z" fill="#323C45"/>
<path d="M118.19 4.39258H114.038V76.7162H118.19V4.39258Z" fill="#E0E0E0"/>
<path d="M122.287 75.3284H109.941V78.6923H122.287V75.3284Z" fill="#E0E0E0"/>
<path d="M0 71.9927V67.0756L28.5556 0H118.772L120.058 4.97231L95.8019 71.9927H0Z" fill="white"/>
<path d="M7.11133 62.3239L31.293 5.51465H110.727L90.1612 62.3239H7.11133Z" fill="#323C45"/>
<g opacity="0.3">
<path d="M101.405 5.51465C100.869 5.51465 18.3278 36.001 18.3278 36.001L10.1162 55.2928L104.873 21.6907L110.727 5.51465H101.405Z" fill="#FAFAFC"/>
</g>
<g opacity="0.3">
<path d="M7.11133 62.3241L102.34 28.676L100.786 32.9774L15.7021 62.3241H7.11133Z" fill="white"/>
</g>
<g opacity="0.3">
<path d="M0 67.0756L93.6288 67.4064L118.772 0L120.058 4.97231L95.8019 71.9927H0V67.0756Z" fill="#717171"/>
</g>
<path d="M23.3313 24.1451H107.953C109.923 24.1451 109.932 21.0938 107.953 21.0938H23.3313C21.3616 21.0938 21.3524 24.1451 23.3313 24.1451Z" fill="white"/>
<path d="M14.4627 44.8248H99.0754C101.054 44.8248 101.054 41.7734 99.0754 41.7734H14.4627C12.4838 41.7734 12.4838 44.8248 14.4627 44.8248Z" fill="white"/>
<path d="M34.9365 66.2765C37.7384 59.1351 40.5403 51.9938 43.3422 44.8524C47.7902 33.5199 52.2289 22.1967 56.6768 10.8642C57.7033 8.25401 58.7297 5.63459 59.7562 3.02436C60.4775 1.19536 57.5091 0.404939 56.797 2.21556C53.9951 9.35693 51.1932 16.4983 48.3913 23.6397C43.9433 34.9721 39.5046 46.2954 35.0567 57.6278C34.0302 60.238 33.0038 62.8575 31.9773 65.4677C31.256 67.2967 34.2244 68.0871 34.9365 66.2765Z" fill="white"/>
<path d="M63.0019 65.3752C65.7298 58.4268 68.4485 51.4877 71.1765 44.5393C75.495 33.5193 79.8227 22.5086 84.1412 11.4886C85.1399 8.95193 86.1386 6.40603 87.128 3.86933C87.8493 2.04033 84.881 1.24991 84.1689 3.06053C81.441 10.0089 78.7223 16.9481 75.9943 23.8964C71.6758 34.9164 67.3481 45.9271 63.0296 56.9471C62.0309 59.4838 61.0322 62.0297 60.0428 64.5664C59.3215 66.3954 62.2898 67.1858 63.0019 65.3752Z" fill="white"/>
</g>
</svg>
