<svg width="200" height="273" viewBox="0 0 200 273" fill="none" xmlns="http://www.w3.org/2000/svg">
<g opacity="0.1">
<path d="M150.029 100.67C150.029 128.7 127.309 151.41 99.2891 151.41C71.2691 151.41 48.5391 128.69 48.5391 100.67C48.5391 72.6501 71.2591 49.9301 99.2891 49.9301C127.319 49.9301 150.029 72.6501 150.029 100.67Z" fill="#39CA6E"/>
<path d="M99.28 37.34C108.96 37.34 116.81 37.14 116.81 26.83C116.81 16.52 99.28 0 99.28 0C99.28 0 81.76 16.52 81.76 26.83C81.76 37.14 89.61 37.34 99.28 37.34ZM37.34 100C37.34 90.33 37.14 82.48 26.82 82.48C16.5 82.48 0 100 0 100C0 100 16.52 117.53 26.83 117.53C37.14 117.53 37.35 109.69 37.35 100H37.34ZM100 161.94C90.32 161.94 82.48 162.14 82.48 172.45C82.48 182.76 100 199.28 100 199.28C100 199.28 117.53 182.76 117.53 172.45C117.53 162.14 109.68 161.94 100 161.94ZM172.46 81.75C162.14 81.75 161.95 89.59 161.95 99.27C161.95 108.95 162.15 116.79 172.46 116.79C182.77 116.79 199.29 99.27 199.29 99.27C199.29 99.27 182.77 81.75 172.46 81.75ZM55.34 55.84C62.18 49 67.59 43.31 60.3 36.02C53.01 28.73 28.93 29.44 28.93 29.44C28.93 29.44 28.22 53.51 35.51 60.81C42.8 68.1 48.49 62.69 55.34 55.85V55.84ZM163.27 60.29C170.56 53 169.84 28.92 169.84 28.92C169.84 28.92 145.77 28.21 138.48 35.5C131.19 42.79 136.59 48.48 143.44 55.33C150.29 62.17 155.98 67.58 163.27 60.29ZM36.02 138.99C28.73 146.28 29.44 170.35 29.44 170.35C29.44 170.35 53.51 171.06 60.8 163.77C68.09 156.48 62.69 150.79 55.84 143.94C49 137.1 43.31 131.69 36.01 138.99H36.02ZM143.95 143.44C137.11 150.28 131.7 155.98 138.99 163.27C146.28 170.56 170.36 169.85 170.36 169.85C170.36 169.85 171.07 145.78 163.78 138.49C156.49 131.2 150.79 136.6 143.95 143.45V143.44Z" fill="#39CA6E"/>
</g>
<path opacity="0.2" d="M143.26 247.15H143.35L137.34 198.58H141.41V186.98H129.82V198.58H133.7L128.44 241.1C121.8 239.07 114.67 237.72 107.21 237.15L100.23 104.34H98.5L91.52 237.15C84.06 237.71 76.93 239.07 70.29 241.1L65.03 198.58H69.1V186.98H57.51V198.58H61.39L55.38 247.15H55.47C43.48 253.45 34.16 262.25 29 272.51H169.73C164.56 262.25 155.24 253.45 143.26 247.15ZM109.19 107.46C112.92 109.6 149.01 127.74 149.9 126.19C150.8 124.63 116.94 102.59 113.22 100.45C109.49 98.3099 106.19 98.4999 105.08 100.43C103.96 102.37 105.47 105.31 109.2 107.46H109.19ZM89.53 107.46C93.26 105.32 94.76 102.37 93.65 100.43C92.54 98.4999 89.24 98.3099 85.51 100.45C81.78 102.59 47.93 124.63 48.82 126.19C49.71 127.74 85.8 109.6 89.53 107.46ZM99.17 91.1399C101.4 91.1399 103.2 88.3699 103.2 84.0699C103.2 79.7699 100.95 39.4399 99.17 39.4399C97.39 39.4399 95.13 79.7699 95.13 84.0699C95.13 88.3699 96.94 91.1399 99.17 91.1399ZM99.36 102.67C102.24 102.67 104.58 100.33 104.58 97.4499C104.58 94.5699 102.24 92.2299 99.36 92.2299C96.48 92.2299 94.14 94.5699 94.14 97.4499C94.14 100.33 96.48 102.67 99.36 102.67ZM126.33 171.97H114.74V183.56H126.33V171.97ZM114.74 198.57H126.33V186.97H114.74V198.57ZM141.41 141.55H129.82V153.14H141.41V141.55ZM144.71 198.57H156.3V186.97H144.71V198.57ZM129.82 183.56H141.41V171.97H129.82V183.56ZM156.31 171.97H144.72V183.56H156.31V171.97ZM156.31 156.55H144.72V168.14H156.31V156.55ZM126.34 156.55H114.75V168.14H126.34V156.55ZM156.31 141.54H144.72V153.13H156.31V141.54ZM141.41 156.55H129.82V168.14H141.41V156.55ZM83.99 156.55H72.4V168.14H83.99V156.55ZM54.02 141.54H42.43V153.13H54.02V141.54ZM126.33 141.54H114.74V153.13H126.33V141.54ZM69.09 141.54H57.5V153.13H69.09V141.54ZM54.01 171.96H42.42V183.55H54.01V171.96ZM54.01 186.97H42.42V198.57H54.01V186.97ZM54.01 156.55H42.42V168.14H54.01V156.55ZM72.39 198.57H83.98V186.97H72.39V198.57ZM83.98 171.97H72.39V183.56H83.98V171.97ZM57.49 183.56H69.08V171.97H57.49V183.56ZM83.98 141.55H72.39V153.14H83.98V141.55ZM69.09 156.56H57.5V168.15H69.09V156.56Z" fill="#323C45"/>
</svg>
